<svg width="402" height="80" viewBox="0 0 402 80" xmlns="http://www.w3.org/2000/svg">
    <g fill-rule="nonzero" fill="none">
        <path d="M83.339 37.273c0 4.42-3.597 8.013-8.021 8.013-4.425 0-8.001-3.593-8.001-8.013s3.596-8.012 8-8.012a8.01 8.01 0 0 1 8.022 8.012" fill="#000"/>
        <path d="M109.806 3.225c-1.11 1.776-16.082 25.31-17.537 27.55-.323.524-.667 1.029-.97 1.533-.202.323-.424.646-.626.97-1.556-6.035-6.607-10.677-12.87-11.666.283-.444 9.072-14.33 11.294-17.862.242-.404.485-.706 1.03-.706 6.466.02 12.91.02 19.376.02.06.04.121.1.303.161" fill="#3467FE"/>
        <path d="M113.544 71.422c-3.233 3.835-6.87 6.54-11.496 7.63-6.364 1.493-12.405.807-17.84-3.109-3.94-2.846-6.345-6.842-8.102-11.282-.06-.141-.122-.282-.182-.464-.02-.04-.02-.08-.04-.121a166.02 166.02 0 0 1-2-5.672c-.627-1.897-1.233-3.915-1.637-5.63 1.01.201 2.04.302 3.111.302 4.708 0 8.93-2.058 11.82-5.308l.04-.04c1.07 2.644 2.182 6.781 3.233 9.99v.02c.283.888.565 1.696.848 2.382 1.172 2.906 2.405 5.772 4.748 7.932l.485.424c3.051 2.522 6.708 3.188 10.527 3.31 2.06.1 4.121-.182 6.485-.364" fill="#0217FF"/>
        <path d="M61.922 45.71c-3.758 5.247-7.819 10.232-12.607 14.652-4.041 3.734-8.344 7.064-13.517 9.082-1.98.767-4.02 1.191-6.162 1.17-6.02.021-10.345-3.753-11.638-10.05-1.131-5.59-.565-11.12 1.01-16.51 2.91-9.99 8.022-18.83 14.81-26.68 3.071-3.553 6.607-6.6 11.214-8.074 3.252-1.03 6.526-1.332 9.718.303 2.445 1.251 4.162 3.29 5.516 5.61 1.94 3.31 3.151 6.883 4.182 10.536a15.75 15.75 0 0 1 10.87-4.319c.848 0 1.656.06 2.465.182.06-.081.404-.626.95-1.494-.728-1.655-1.334-3.169-2.021-4.642-2.162-4.581-5.092-8.537-9.335-11.403C62.367.703 56.77-.387 50.77.117 43.112.763 35.98 2.983 29.474 7 19.11 13.397 10.967 21.955 5.27 32.712 1.613 39.594-.49 46.921.097 54.812.845 64.984 5.977 72.27 15.11 76.71c7.112 3.471 14.668 3.774 22.326 2.826 6.364-.787 12.365-2.866 17.9-6.075 6.709-3.875 12.527-8.941 17.962-14.451.182-.202.303-.484.566-.606-.626-1.897-1.232-3.915-1.637-5.63a15.791 15.791 0 0 1-10.304-7.064" fill="#0219FA"/>
        <g fill="#050505">
            <path d="M148.84 45.85h-15.375l-3.03 7.105h-5.88l13.84-30.718h5.617l13.88 30.698h-5.98l-3.071-7.084zm-1.898-4.48-5.799-13.421-5.738 13.421h11.537zM161.267 20.4h5.495v32.555h-5.495zM198.846 41.23c0 7.285-5.05 12.008-11.9 12.008-2.99 0-5.617-1.01-7.516-3.149v11.363h-5.475V29.523h5.233v3.068c1.838-2.24 4.566-3.33 7.778-3.33 6.83 0 11.88 4.743 11.88 11.968zm-5.576 0c0-4.481-2.99-7.327-6.93-7.327-3.96 0-6.99 2.846-6.99 7.326 0 4.48 3.03 7.326 6.99 7.326 3.94 0 6.93-2.845 6.93-7.326zM227.173 39.534v13.421h-5.496V40.24c0-4.157-2.06-6.176-5.576-6.176-3.9 0-6.546 2.362-6.546 7.064v11.847h-5.496V20.401h5.496v11.847c1.798-1.938 4.566-2.987 7.819-2.987 5.637 0 9.799 3.209 9.799 10.273zM253.782 39.231v13.724h-5.173V50.11c-1.313 2.019-3.859 3.149-7.374 3.149-5.354 0-8.728-2.947-8.728-7.024 0-3.895 2.626-6.983 9.738-6.983h6.061v-.343c0-3.209-1.94-5.086-5.839-5.086-2.626 0-5.354.868-7.112 2.321l-2.141-3.996c2.505-1.938 6.142-2.886 9.92-2.886 6.748 0 10.648 3.209 10.648 9.97zm-5.496 6.398v-2.725h-5.657c-3.738 0-4.748 1.413-4.748 3.108 0 1.978 1.677 3.25 4.485 3.25 2.687 0 5.011-1.231 5.92-3.633zM305.464 22.237l-10.183 30.698h-6.061l-7.597-22.726-7.718 22.726h-6.102L257.6 22.237h5.92l7.637 23.331 7.94-23.33h5.274l7.779 23.472 7.859-23.473zM329.043 39.231v13.724h-5.173V50.11c-1.313 2.019-3.859 3.149-7.374 3.149-5.354 0-8.729-2.947-8.729-7.024 0-3.895 2.627-6.983 9.739-6.983h6.061v-.343c0-3.209-1.94-5.086-5.839-5.086-2.626 0-5.354.868-7.112 2.321l-2.141-3.996c2.505-1.938 6.142-2.886 9.92-2.886 6.748 0 10.648 3.209 10.648 9.97zm-5.496 6.398v-2.725h-5.657c-3.738 0-4.748 1.413-4.748 3.108 0 1.978 1.677 3.25 4.485 3.25 2.667 0 5.01-1.231 5.92-3.633zM335.225 20.4h5.496v32.555h-5.496zM347.913 20.4h5.496v32.555h-5.496zM382.564 42.985h-18.407c.667 3.431 3.516 5.61 7.597 5.61 2.627 0 4.708-.827 6.365-2.542l2.95 3.37c-2.102 2.503-5.395 3.815-9.436 3.815-7.86 0-12.95-5.046-12.95-12.009s5.131-11.968 12.122-11.968c6.849 0 11.86 4.783 11.86 12.11-.02.443-.061 1.09-.101 1.614zm-18.447-3.633h13.315c-.445-3.37-3.031-5.712-6.627-5.712-3.556.02-6.163 2.301-6.688 5.712zM402.02 51.684c-1.313 1.05-3.293 1.574-5.273 1.574-5.132 0-8.082-2.725-8.082-7.891V34.084h-3.859v-4.38h3.86v-5.348h5.495v5.349h6.283v4.38h-6.283v11.14c0 2.28 1.151 3.512 3.253 3.512 1.151 0 2.242-.303 3.07-.969l1.536 3.916z"/>
        </g>
    </g>
</svg>
