<svg width="156" height="58" viewBox="0 0 156 58" fill="none" xmlns="http://www.w3.org/2000/svg">
  <linearGradient id="a" gradientUnits="userSpaceOnUse" x1="87" x2="406.558" y1="440" y2="103.193">
    <stop offset="0" stop-color="#ffe7e0"></stop>
    <stop offset="0.3438" stop-color="#f8dbf4"></stop>
    <stop offset="0.6875" stop-color="#c4ddff"></stop>
    <stop offset="1" stop-color="#cae9ff"></stop>
  </linearGradient>
  <circle cx="135.569" cy="29.417" fill="#052b65" r="19.725" style=""></circle>
  <g fill="url(#a)" transform="matrix(0.077053, 0, 0, 0.077053, 115.844093, 9.692055)" style="">
    <path d="m255.639 305.398c-64.456 0-116.705 30.131-116.705 67.302 0 37.17 52.249 67.3 116.705 67.3s116.704-30.131 116.704-67.3c0-37.17-52.251-67.302-116.704-67.302zm-56.034 75.948c-11.83 5.782-22.847 0-24.96-13.111-2.316-14.046 16.585-47.428 20.935-22.185 4.347 25.241 23.699-10.056 23.818 5.741-.647 12.754-8.254 24.115-19.793 29.555zm144.104-13.111c-2.112 13.111-13.129 18.893-24.956 13.111-11.542-5.44-19.149-16.801-19.793-29.555.118-15.797 19.468 19.5 23.818-5.741 4.347-25.243 23.245 8.139 20.931 22.185z"></path>
    <path d="m424.031 149.568c-3.348-23.966-84.293-6.874-94.812-5.063-.54.092-1.045-.369-.934-.905 1.07-5.371 1.845-19.89-8.425-23.034-6.566-2.011-10.895 1.7-13.465 5.444-1.15 1.68-4.593 8.94-6.732 13.981-1.152 2.721-3.836 6.699-6.788 6.627-12.377-3.858-24.808-5.788-37.236-5.788-12.431 0-24.862 1.93-37.239 5.788-2.952.072-5.638-3.906-6.791-6.627-2.138-5.041-5.581-12.301-6.732-13.981-2.568-3.744-6.896-7.455-13.462-5.444-10.27 3.144-9.498 17.663-8.425 23.034.108.536-.396.997-.934.905-10.519-1.811-91.4642-18.903-94.8145 5.063-3.1779 22.732 25.5285 54.082 55.5655 68.171 2.9 1.36 5.206 3.658 8.015 5.188 4.727 2.577 7.548 9.008 6.855 14.808v83.713l10.967-6.3c16.716-9.59 34.165-14.077 47.597-16.74h.476c10.733-2.384 21.689-3.61 32.684-3.662h12.473c10.992.052 21.949 1.278 32.684 3.662h.474c13.434 2.663 30.881 7.15 47.601 16.74l10.967 6.3v-83.713c-.695-5.8 2.123-12.231 6.85-14.808 2.815-1.53 5.115-3.828 8.015-5.188 30.037-14.09 58.746-45.439 55.566-68.171zm-176.204 85.823c-.464 2.484-6.387 7.057-21.072 10.847-10.283 2.591-20.982 3.556-31.566 2.902-2.488-.157-4.981-.572-7.29-1.514-4.212-1.716-7.77-4.667-10.418-8.555-3.575-5.078-5.278-10.731-4.187-16.843 1.063-6.119 4.593-10.851 9.688-14.395 3.816-2.75 8.167-4.304 12.712-4.473 2.488-.09 4.976.369 7.364 1.078 10.169 3.007 19.896 7.583 28.673 13.539 12.506 8.59 16.51 14.918 16.096 17.414zm85.967 3.68c-2.645 3.888-6.206 6.839-10.419 8.555-2.305.942-4.801 1.357-7.287 1.514-10.584.654-21.285-.312-31.568-2.902-14.688-3.79-20.606-8.363-21.069-10.847-.415-2.497 3.587-8.824 16.095-17.414 8.777-5.957 18.501-10.532 28.673-13.539 2.388-.709 4.874-1.168 7.365-1.078 4.541.169 8.898 1.723 12.711 4.473 5.095 3.544 8.626 8.273 9.686 14.392 1.091 6.112-.613 11.768-4.187 16.846z"></path>
  </g><path d="M75.3876 28.3361C74.9971 28.7267 74.9971 29.3598 75.3876 29.7504L81.7516 36.1143C82.1421 36.5048 82.7753 36.5048 83.1658 36.1143C83.5563 35.7238 83.5563 35.0906 83.1658 34.7001L77.5089 29.0432L83.1658 23.3864C83.5563 22.9959 83.5563 22.3627 83.1658 21.9722C82.7753 21.5817 82.1421 21.5817 81.7516 21.9722L75.3876 28.3361ZM103.564 29.7504C103.954 29.3598 103.954 28.7267 103.564 28.3361L97.2 21.9722C96.8095 21.5817 96.1763 21.5817 95.7858 21.9722C95.3953 22.3627 95.3953 22.9959 95.7858 23.3864L101.443 29.0432L95.7858 34.7001C95.3953 35.0906 95.3953 35.7238 95.7858 36.1143C96.1763 36.5048 96.8095 36.5048 97.2 36.1143L103.564 29.7504ZM76.0947 30.0432H102.857V28.0432H76.0947V30.0432Z" fill="#A2B8D1"/>
<g clip-path="url(#clip0_5263_1027)">
<ellipse cx="15.0266" cy="12.5416" rx="12.5051" ry="12.498" fill="white"/>
<path d="M10.0495 14.2882L10.5524 10.2757L6.19043 7.06004L10.1759 8.49367L11.1172 6.96008L14.5541 4.6954L22.1298 9.12766L22.5224 15.8903L19.1473 20.8709L16.4796 21.305L17.8592 18.6233V16.0416L16.8561 14.0254L15.8369 13.3086L14.269 15.025V16.8413L13.0454 18.0579L11.491 18.2578L10.8025 18.6719L9.67304 18.2892L9.20242 16.49L10.0495 15.2249V14.2882Z" fill="white"/>
<path d="M17.0137 7.02583C16.1827 6.84303 15.2737 6.89159 15.2737 6.89159C15.2737 6.89159 14.9752 8.35684 13.125 8.74243C13.1384 8.74243 15.5695 9.62501 17.0137 7.02583Z" fill="#94A6C3"/>
<path d="M17.7677 20.3197C18.7708 19.4858 19.5238 18.3377 19.8707 17.0383C19.8868 16.9898 20.0267 16.9041 20.1208 16.8384C20.2768 16.7385 20.4355 16.6557 20.465 16.5214C20.5269 16.1388 20.5592 15.7389 20.5592 15.3391C20.5592 15.1906 20.4166 15.0393 20.2768 14.8908C20.1665 14.7908 20.0563 14.6737 20.0563 14.5909C19.9003 13.0744 19.2414 11.6579 18.1899 10.627L18.0796 10.7441C19.0989 11.7608 19.7578 13.143 19.9003 14.608C19.9164 14.7422 20.0401 14.8736 20.1665 15.0078C20.2768 15.1078 20.4032 15.2592 20.4032 15.3248C20.4032 15.7075 20.3709 16.0902 20.3091 16.4729C20.2929 16.5386 20.1531 16.6071 20.0428 16.6728C19.8868 16.7556 19.7443 16.8384 19.7147 16.9727C19.3382 18.3892 18.475 19.6229 17.3293 20.4225C17.5337 19.957 18.1765 18.4406 18.5207 17.6723L18.4588 15.2077L16.4661 13.1601L15.3366 13.3258L14.0968 15.4591C14.0968 15.4591 14.6777 16.2416 13.8602 17.1583C13.0615 18.0579 12.4322 18.2578 12.4322 18.2578L11.8513 17.9236C12.0234 17.6895 12.3703 17.3411 12.6366 17.1069C13.091 16.7071 13.5455 16.6728 13.5455 16.2416C13.5644 15.3391 12.6527 15.5876 12.6527 15.5876L12.3219 15.9217L12.1821 17.1554L11.4936 18.0722L11.4156 18.055L10.2861 17.7894C10.2861 17.7894 10.9773 17.4067 11.0875 16.9727C11.1978 16.5557 10.867 15.1735 10.8509 15.0907C10.867 15.1078 11.1817 15.3905 11.3215 15.856C11.5716 15.1221 11.9024 14.4224 11.9965 14.3567C12.0906 14.291 13.36 13.5742 13.36 13.5742L12.9378 14.7565L13.2524 14.5738L14.0054 12.6089C14.0054 12.6089 14.7423 12.2263 15.2909 12.2263C16.2778 12.2091 17.7381 10.9268 17.0792 8.6279C17.2675 8.71072 20.5296 10.4442 21.0943 13.8427C21.5165 16.4557 20.1208 18.9032 17.7677 20.3197Z" fill="#94A6C3"/>
<path d="M14.0343 7.39154C14.3945 6.94026 14.2547 6.27475 14.2547 6.27475L13.2036 7.92566C13.1875 7.92566 13.5773 7.9428 14.0343 7.39154Z" fill="#1B314F"/>
<path d="M10.5036 16.4046L10.6299 15.7391C10.6299 15.7391 10.1111 16.7045 10.0654 16.8388C10.017 16.9901 10.0977 17.2558 10.2993 17.2386C10.5036 17.2215 10.7536 16.9045 10.7536 16.6731C10.7536 16.3732 10.5036 16.4046 10.5036 16.4046Z" fill="#1B314F"/>
<path d="M19.8213 5.80924C19.8213 5.80924 20.6066 5.84351 21.4214 5.94347C19.5846 4.40988 17.8447 3.96151 16.4328 3.96151C14.4885 3.96151 13.1707 4.81255 13.09 4.8611L13.7032 3.82729C13.7032 3.82729 11.256 3.57598 10.3927 6.32615C10.1722 5.74356 9.97048 4.89252 9.97048 4.89252C9.97048 4.89252 8.69845 6.07769 9.29547 8.04251C7.8352 7.47705 5.75101 6.69169 5.67033 6.67742C5.56007 6.66028 5.5278 6.71169 5.5278 6.71169C5.5278 6.71169 5.49553 6.76023 5.58965 6.84591C5.76446 6.99156 9.05882 9.57609 9.78223 10.0759C9.62625 10.6756 9.62625 10.9583 9.78223 11.241C10.0028 11.6237 10.0162 11.8236 9.98662 12.1064C9.95434 12.3891 9.67197 14.8394 9.61012 15.1393C9.54826 15.4391 8.88939 16.5044 8.91897 16.8214C8.95125 17.1383 9.35733 18.4863 9.72038 18.6377C9.98662 18.7376 10.6455 18.9547 11.0838 18.9547C11.2398 18.9547 11.3823 18.9204 11.4442 18.8547C11.7104 18.6062 11.7884 18.5548 11.9767 18.5548C11.9928 18.5548 12.009 18.5548 12.0224 18.5548C12.1004 18.5548 12.1945 18.572 12.3048 18.572C12.5549 18.572 12.8857 18.5206 13.1196 18.2893C13.4638 17.9237 14.0609 17.4239 14.2491 17.1898C14.4858 16.8728 14.6095 16.4415 14.5476 16.0074C14.4992 15.6076 14.7036 15.2564 14.9403 14.9079C15.2388 14.491 15.7874 13.7428 15.7874 13.7428C16.8712 14.6052 17.5462 15.9218 17.5462 17.3868C17.5462 19.9856 15.4136 22.0847 12.7781 22.0847C12.3693 22.0847 11.9794 22.0361 11.5867 21.9362C12.7942 22.3845 13.8135 22.5359 14.6471 22.5359C16.4194 22.5359 17.3606 21.8533 17.3606 21.8533C17.3606 21.8533 17.0325 22.3046 16.4973 22.8186C16.5135 22.8186 16.5135 22.8186 16.5135 22.8186C19.4475 22.3845 20.8755 19.82 20.8755 19.82C20.8755 19.82 20.7652 20.6539 20.6254 21.2193C24.5275 18.1036 23.8686 14.2054 23.8525 14.074C23.8848 14.1226 24.2774 14.6224 24.4791 14.8908C25.1084 8.02537 19.8213 5.80924 19.8213 5.80924ZM13.8135 16.7728C13.7516 16.8556 13.4854 17.1069 13.2971 17.2897C13.1089 17.4725 12.9045 17.6553 12.7485 17.8237C12.6866 17.8894 12.5603 17.9237 12.372 17.9237C12.3101 17.9237 12.2456 17.9237 12.1999 17.9237C12.1676 17.9237 12.138 17.9237 12.1058 17.9237C12.0735 17.9237 12.0574 17.9237 12.0439 17.9237C11.9955 17.9237 11.9498 17.9237 11.9014 17.9237C12.138 17.5896 12.8265 16.8242 13.0631 16.6586C13.3455 16.4587 13.4881 16.2587 13.3132 15.9103C13.1411 15.5591 12.6866 15.6447 12.6866 15.6447C12.6866 15.6447 12.9529 15.5277 13.1895 15.5277C12.891 15.4448 12.5145 15.5277 12.3424 15.7104C12.1542 15.8932 12.1864 16.5443 12.1085 16.9584C12.0305 17.3925 11.7642 17.6096 11.3555 18.0094C11.1349 18.2264 10.979 18.2921 10.8526 18.2921C10.5863 18.2436 10.2717 18.1579 10.0512 18.0751C9.89518 17.858 9.65852 17.1412 9.59667 16.8413C9.64239 16.6757 9.83064 16.3244 9.92476 16.1245C10.113 15.7418 10.2233 15.5248 10.2555 15.3249C10.3174 15.0422 10.5218 13.2915 10.5998 12.5604C10.8042 12.8432 11.0865 13.3115 11.022 13.6114C11.4765 12.9288 11.1484 12.2606 10.9897 11.995C10.8499 11.7294 10.6616 11.1953 10.8176 10.6299C10.9736 10.0644 11.5383 8.49658 11.5383 8.49658C11.5383 8.49658 11.7266 8.84785 11.9928 8.77931C12.2591 8.71363 14.4078 5.28091 14.4078 5.28091C14.4078 5.28091 14.9887 6.62887 14.3755 7.61413C13.7489 8.59654 13.1358 8.77931 13.1358 8.77931C13.1358 8.77931 13.999 8.94495 14.7977 8.32809C15.1258 9.14486 15.4405 9.99304 15.4566 10.1101C15.4082 10.2272 14.7816 11.8265 14.7197 11.9264C14.6875 11.9607 14.4696 12.0264 14.311 12.0607C14.0447 12.1435 13.8888 12.1949 13.8242 12.2434C13.714 12.3434 13.2111 13.8084 12.9771 14.5253C12.6947 14.6081 12.4123 14.7766 12.208 15.1078C12.3182 15.025 12.6624 14.9736 12.9152 14.9422C13.1358 14.9251 13.8081 15.3078 13.9829 16.0246C13.9829 16.0417 13.9829 16.0417 13.9829 16.0588C14.0178 16.3216 13.9398 16.5729 13.8135 16.7728ZM12.3397 16.9727C12.4823 16.7557 12.4661 16.3901 12.4823 16.273C12.4984 16.1559 12.528 15.9389 12.6544 15.9075C12.7808 15.8732 13.0793 15.9246 13.0793 16.1559C13.0793 16.373 12.8588 16.4215 12.7028 16.5729C12.5898 16.6871 12.3693 16.9384 12.3397 16.9727ZM18.5977 13.7885C18.7536 12.9403 18.7698 12.2063 18.7241 11.6066C19.3345 12.4719 19.711 13.5229 19.8213 14.6052C19.8374 14.7394 19.9611 14.8708 20.0875 15.005C20.1978 15.105 20.3242 15.2392 20.3242 15.322C20.3242 15.7047 20.2919 16.0874 20.2301 16.4729C20.2139 16.5215 20.0741 16.6072 19.9638 16.6728C19.8078 16.7557 19.6653 16.8385 19.6357 16.9727C19.2915 18.255 18.552 19.3887 17.565 20.1884C19.0226 18.572 19.7272 15.9046 18.5977 13.7885ZM17.6107 20.3369C18.6299 19.503 19.4152 18.3378 19.7594 17.0213C19.7756 16.9727 19.9154 16.887 20.0095 16.8214C20.1655 16.7385 20.3242 16.6386 20.3538 16.5044C20.4156 16.1217 20.4479 15.7219 20.4479 15.322C20.4479 15.1735 20.3054 15.0222 20.1655 14.8737C20.0875 14.7737 19.9611 14.6566 19.9611 14.5738C19.8347 13.3572 19.3802 12.2092 18.6757 11.2582C18.361 9.25909 17.1078 8.64223 17.0755 8.6251C17.1078 8.6765 17.9227 9.9245 17.3579 11.3895C16.777 12.8717 15.2872 12.6404 15.1608 12.6547C15.0344 12.6547 14.5503 13.3201 13.9372 14.5538C13.8592 14.5195 13.5284 14.4367 13.1519 14.5053C13.4343 13.6714 13.8592 12.489 13.9372 12.3891C13.9694 12.3548 14.2034 12.2891 14.3621 12.2406C14.6606 12.1578 14.8004 12.1064 14.8488 12.0407C14.8811 11.9893 15.0371 11.6066 15.1931 11.2068C15.3356 11.2068 15.6959 11.1725 15.7255 11.1554C15.7578 11.1211 16.0563 10.3072 16.0563 10.2072C16.0563 10.1244 15.4432 8.50801 15.2092 7.89115C15.3194 7.75692 15.4297 7.59128 15.5373 7.40851C18.7536 7.77691 21.2654 10.6756 21.2654 14.1883C21.2654 16.887 19.7756 19.2374 17.6107 20.3369Z" fill="#1B314F"/>
<path d="M13.4364 11.3414C13.7348 10.9758 13.5789 10.2932 13.0278 10.1761C13.1703 9.82762 13.3719 9.12784 13.3719 9.12784C13.3719 9.12784 11.7725 11.7927 11.6327 11.8441C11.4902 11.8955 11.3504 11.31 11.3504 11.31C11.052 12.5268 11.8531 12.6924 11.9472 12.3097C12.3854 12.1897 13.138 11.6899 13.4364 11.3414Z" fill="#1B314F"/>
<path d="M12.0723 11.9897L12.8868 10.5073C12.8868 10.5073 13.3572 10.7586 13.1207 11.1585C12.825 11.6241 12.0723 11.9897 12.0723 11.9897Z" fill="#FFD923"/>
<path d="M22.1583 18.8546C21.9217 19.1888 21.6556 19.5372 21.3438 19.8713C23.3653 15.7389 21.4378 11.9578 21.3599 11.8093C21.5024 11.9607 21.6421 12.1263 21.7685 12.2748C23.3196 14.1054 23.5077 16.8556 22.1583 18.8546Z" fill="#D82122"/>
<path d="M24.0416 13.54C23.3343 11.5238 22.3312 9.80739 20.1206 8.25953C17.988 6.76022 15.6968 6.8773 15.5704 6.89444C15.5542 6.89444 15.5381 6.89444 15.5381 6.89444C15.6161 6.86017 15.6941 6.84303 15.7721 6.82876C16.2588 6.66312 16.8854 6.52889 17.5147 6.44607C19.1794 6.1919 20.8575 6.79163 22.0031 8.07676C22.0192 8.09389 22.0192 8.09389 22.0354 8.11103C23.337 9.57607 24.012 11.4067 24.0416 13.54Z" fill="#D82122"/>
<path d="M19.6175 5.29255C17.2805 4.82698 15.7745 5.05834 14.6907 5.49249C14.6585 5.35824 14.5482 5.09261 14.4541 4.87554C14.1287 5.29255 13.7817 5.79239 13.5639 6.10944C12.9669 6.54359 12.7168 6.9606 12.7168 6.9606C13.061 5.70956 14.0668 4.77843 15.2904 4.54421C15.6347 4.47852 16.0112 4.44424 16.4199 4.44424C17.501 4.46138 18.5821 4.74415 19.6175 5.29255Z" fill="#D82122"/>
<path d="M10.9749 8.49122C9.14156 8.42552 9.75177 6.15766 9.78403 6.02628C9.78403 6.04341 9.90769 7.80857 10.9749 8.49122Z" fill="#D82122"/>
<path d="M12.7769 4.40982C11.3656 5.30954 11.6479 7.45744 11.6479 7.45744C10.2984 5.27812 12.6667 4.46123 12.7769 4.40982Z" fill="#D82122"/>
<path d="M10.4579 9.09074C10.552 9.17357 10.6461 9.32495 10.5359 9.54202C10.474 9.65913 10.3799 9.64199 10.2374 9.5763C10.0491 9.47633 8.91963 8.77655 7.90039 8.05963C9.06216 8.49378 10.2374 8.95935 10.4256 9.05932C10.4256 9.05932 10.4418 9.07646 10.4579 9.09074Z" fill="white"/>
</g>
<g clip-path="url(#clip1_5263_1027)">
<path fill-rule="evenodd" clip-rule="evenodd" d="M27.9123 18.1075C34.8177 18.1075 40.4175 23.7042 40.4175 30.6058C40.4175 37.5073 34.8177 43.104 27.9123 43.104C21.007 43.104 15.4072 37.5073 15.4072 30.6058C15.4072 23.7042 21.007 18.1075 27.9123 18.1075Z" fill="black"/>
<path d="M28.0998 35.8307C24.1007 35.8307 20.8594 34.6757 20.8594 33.1282C20.8594 32.3207 21.7422 31.5932 23.1553 31.0807C24.2583 31.7882 26.109 32.1507 28.2074 32.1507C30.2557 32.1507 32.0665 31.7082 33.1794 31.0307C34.5125 31.5382 35.3403 32.2457 35.3403 33.0257C35.3403 34.5757 32.099 35.8307 28.0998 35.8307Z" fill="white"/>
<path d="M28.1421 31.8036C25.1109 31.8036 22.6523 30.8536 22.6523 29.6811C22.6523 29.0311 23.4102 28.4486 24.5981 28.0611C25.446 28.5036 26.7165 28.7861 28.1421 28.7861C29.5677 28.7861 30.8382 28.5036 31.686 28.0611C32.8765 28.4511 33.6318 29.0311 33.6318 29.6811C33.6343 30.8536 31.1758 31.8036 28.1421 31.8036V31.8036Z" fill="white"/>
<path d="M28.1222 28.4341C25.7787 28.4341 23.8779 27.6491 23.8779 26.6841C23.8779 25.7191 25.7787 24.9341 28.1222 24.9341C30.4656 24.9341 32.3664 25.7191 32.3664 26.6841C32.3664 27.6491 30.4656 28.4341 28.1222 28.4341V28.4341Z" fill="white"/>
</g>
<g clip-path="url(#clip2_5263_1027)">
<path fill-rule="evenodd" clip-rule="evenodd" d="M13.0627 32.0468C19.9681 32.0468 25.5679 37.6435 25.5679 44.545C25.5679 51.4465 19.9681 57.0432 13.0627 57.0432C6.15741 57.0432 0.557617 51.4465 0.557617 44.545C0.557617 37.6435 6.15741 32.0468 13.0627 32.0468Z" fill="#2F6DF3"/>
<path d="M14.2897 37.6732L22.1488 51.278H6.43065L14.2897 37.6732Z" fill="white"/>
<path d="M14.2896 40.9713L19.2908 49.629H9.28834L14.2896 40.9713Z" fill="#2F6DF3"/>
<path d="M8.9965 43.9597L5.4321 37.7894L12.5609 37.7894L8.9965 43.9597Z" fill="white"/>
</g>
<g clip-path="url(#clip3_5263_1027)">
<ellipse cx="45.5129" cy="12.5416" rx="12.5051" ry="12.498" fill="#0C0D1F"/>
<path d="M53.0457 13.1759C53.0762 13.3658 53.0816 13.5352 53.0659 13.6852L42.2103 6.27722C42.6556 6.03161 43.3685 5.94025 44.3529 6.11453C45.6665 6.34709 47.2798 7.03146 48.866 8.15055L48.8733 8.15567L48.8808 8.16054C50.4949 9.21534 51.7179 10.4763 52.4168 11.6255C52.7666 12.2005 52.9739 12.7291 53.0457 13.1759ZM39.9898 9.2796L40.7709 8.14259C40.873 8.52342 41.0341 8.9113 41.238 9.29302C40.8062 9.24186 40.384 9.23394 39.9898 9.2796ZM41.4715 10.3381C41.6406 10.3681 41.8147 10.4055 41.993 10.4504C42.7931 11.4936 43.9197 12.5462 45.2849 13.4652C46.5783 14.3771 47.9125 15.0343 49.1369 15.4081C49.2617 15.5833 49.3756 15.7565 49.4782 15.927C49.825 16.5034 50.0304 17.0283 50.1012 17.4711C50.135 17.6822 50.1375 17.8676 50.114 18.0294L39.2428 10.5524C39.6797 10.2687 40.421 10.1521 41.4715 10.3381ZM47.6457 13.7248C47.0573 13.4273 46.4551 13.067 45.8568 12.6449L45.8569 12.6448L45.8477 12.6386C45.1811 12.1902 44.5814 11.7124 44.0577 11.2255C44.6898 11.5357 45.3395 11.919 45.9847 12.3742C46.5973 12.8063 47.1536 13.262 47.6457 13.7248ZM49.7387 14.5403C48.953 13.5146 47.8654 12.4772 46.5611 11.557C45.2262 10.6152 43.8476 9.9447 42.591 9.57699C42.4878 9.43142 42.3924 9.28716 42.3053 9.14477C41.7872 8.2985 41.6062 7.60904 41.658 7.11101L52.5126 14.5183C52.0672 14.7639 51.3544 14.8552 50.37 14.6809C50.1664 14.6449 49.9555 14.598 49.7387 14.5403ZM51.0163 16.9673C50.9118 16.5598 50.738 16.1384 50.5081 15.7141C50.9714 15.7755 51.4252 15.7884 51.847 15.74L51.0163 16.9673ZM38.7492 11.4266L49.5168 18.8324C49.0689 19.0578 48.3727 19.1364 47.4246 18.9685C46.111 18.736 44.4977 18.0516 42.9114 16.9325C41.3182 15.8085 40.0917 14.5435 39.3919 13.4004C38.898 12.5935 38.7103 11.9289 38.7492 11.4266Z" fill="white" stroke="white"/>
<path d="M41.5139 6.45679L53.1436 14.393L50.2675 18.6424L38.6377 10.6436L41.5139 6.45679Z" fill="url(#paint2_linear_5263_1027)"/>
<path d="M53.1436 14.3929C52.1431 15.8302 48.7668 15.2678 45.578 13.0182C42.3266 10.831 40.5759 7.89395 41.5138 6.45668C42.5142 5.0194 45.8906 5.58182 49.0794 7.83146C52.3307 9.95613 54.0814 12.9557 53.1436 14.3929Z" fill="url(#paint3_linear_5263_1027)"/>
<path d="M50.2675 18.5798C49.2671 20.0171 45.8907 19.4546 42.7019 17.205C39.5131 14.9554 37.6999 12.0808 38.7003 10.581C39.7007 9.14376 43.0771 9.70617 46.2659 11.9558C49.4547 14.2055 51.2054 17.1425 50.2675 18.5798Z" fill="url(#paint4_linear_5263_1027)"/>
<path d="M53.1437 14.3929L50.2675 18.6423C49.2671 20.0795 45.8907 19.4546 42.7019 17.2675C42.0766 16.83 41.5139 16.3926 40.9512 15.8927C41.3889 15.8302 41.9516 15.5802 42.5143 14.9553C43.5147 13.893 44.0149 13.643 44.4526 13.7055C44.8903 13.7055 45.3905 14.143 46.2033 15.2053C47.0162 16.2676 48.1416 16.5801 48.8294 16.0177C48.8919 15.9552 48.9544 15.9552 49.017 15.8927C49.5797 15.4553 49.7673 15.2678 50.8302 13.2681C51.0803 12.7682 51.9557 11.9558 53.1437 12.3307C53.4563 13.1431 53.4563 13.8305 53.1437 14.3929Z" fill="#0E0F23"/>
<path fill-rule="evenodd" clip-rule="evenodd" d="M52.7057 14.1431C51.8303 15.3929 48.7665 14.768 45.8278 12.7058C42.8266 10.6436 41.0759 8.01901 41.9513 6.7692C42.8266 5.5194 45.8904 6.1443 48.8291 8.20648C51.7678 10.2687 53.5185 12.8932 52.7057 14.1431ZM49.9545 12.2683C49.5169 12.8932 48.0162 12.5808 46.5156 11.581C45.0775 10.5811 44.2022 9.26881 44.6399 8.64391C45.0775 8.01901 46.5781 8.33146 48.0788 9.3313C49.5168 10.3311 50.3922 11.6434 49.9545 12.2683Z" fill="white"/>
<path d="M41.2637 7.89396C41.2637 7.83146 41.2012 7.76896 41.1387 7.83146C41.0762 7.89396 41.0137 7.89396 41.0137 7.95646C41.0762 8.14396 41.1387 8.26895 41.1387 8.39395C41.1387 8.45645 41.2012 8.51895 41.2637 8.45645C41.3262 8.45645 41.3887 8.39395 41.3262 8.33145C41.3262 8.20646 41.3262 8.08146 41.2637 7.89396Z" fill="white"/>
<path d="M41.5762 8.89381C41.5762 8.83131 41.5137 8.76881 41.4512 8.83131C41.3887 8.89381 41.3887 8.89381 41.3887 8.95631C42.0765 10.5188 43.5145 12.2063 45.3903 13.4562C45.4528 13.5187 45.5154 13.4562 45.5779 13.4562C45.6404 13.3937 45.5779 13.3312 45.5779 13.2687C43.6396 12.0188 42.264 10.3938 41.5762 8.89381Z" fill="white"/>
<path d="M49.1416 15.0179C49.0791 15.0179 49.0166 15.0179 49.0166 15.0804C49.0166 15.1429 49.0166 15.2053 49.0791 15.2053C49.2666 15.2678 49.5166 15.3303 49.7041 15.3928C49.7666 15.3928 49.8291 15.3928 49.8291 15.3303C49.8291 15.2678 49.8291 15.2053 49.7666 15.2053C49.5791 15.1429 49.3291 15.0804 49.1416 15.0179Z" fill="white"/>
<path d="M50.2676 15.2678C50.2051 15.2678 50.1426 15.3303 50.1426 15.3928C50.1426 15.4553 50.2051 15.5178 50.2676 15.5178C50.7676 15.5803 51.3301 15.6428 51.7676 15.5803C51.8301 15.5803 51.8926 15.5178 51.8926 15.4553C51.8926 15.3928 51.8301 15.3303 51.7676 15.3303C51.2676 15.3928 50.7676 15.3303 50.2676 15.2678Z" fill="white"/>
</g>
<g clip-path="url(#clip4_5263_1027)">
<ellipse cx="51.7777" cy="39.5303" rx="12.7503" ry="12.4982" fill="white"/>
<path d="M49.1068 32.6503C48.8951 32.6206 48.885 32.6107 48.9858 32.6008C49.1774 32.5711 49.6212 32.6107 49.9338 32.68C50.6599 32.8485 51.3155 33.2844 52.0114 34.0472L52.1929 34.2553L52.4551 34.2156C53.5745 34.0373 54.7243 34.176 55.6823 34.6119C55.9445 34.7308 56.358 34.9686 56.4085 35.028C56.4286 35.0478 56.4589 35.1766 56.4791 35.3054C56.5497 35.7711 56.5194 36.1178 56.3681 36.3853C56.2874 36.5339 56.2874 36.5735 56.3379 36.7023C56.3782 36.8014 56.4992 36.8707 56.6102 36.8707C56.8522 36.8707 57.1043 36.4943 57.2254 35.9692L57.2758 35.7611L57.3665 35.8602C57.8809 36.4249 58.2843 37.2076 58.3448 37.7624L58.365 37.911L58.2742 37.7822C58.1229 37.5543 57.9817 37.4057 57.7901 37.2769C57.4472 37.0491 57.0842 36.9797 56.1261 36.9302C55.2588 36.8807 54.7646 36.8113 54.2805 36.6528C53.4535 36.3853 53.03 36.0385 52.0517 34.7605C51.618 34.1958 51.3457 33.8887 51.0734 33.6311C50.4784 33.0664 49.8834 32.7692 49.1068 32.6503Z" fill="#FF007A"/>
<path d="M56.6199 33.9086C56.6401 33.5321 56.6905 33.2844 56.8014 33.0566C56.8418 32.9674 56.8821 32.8882 56.8922 32.8882C56.9023 32.8882 56.8821 32.9575 56.8518 33.0368C56.7712 33.2547 56.7611 33.5618 56.8115 33.9086C56.8821 34.3544 56.9124 34.4139 57.3964 34.8993C57.6183 35.1272 57.8805 35.4145 57.9814 35.5334L58.1528 35.7513L57.9814 35.5928C57.7696 35.3947 57.2855 35.0182 57.1746 34.9687C57.104 34.929 57.0939 34.929 57.0435 34.9786C57.0031 35.0182 56.993 35.0776 56.993 35.3649C56.983 35.8108 56.9224 36.0882 56.7712 36.3755C56.6905 36.5241 56.6804 36.4943 56.751 36.3259C56.8014 36.1971 56.8115 36.1377 56.8115 35.7117C56.8115 34.8498 56.7107 34.6417 56.0955 34.295C55.9442 34.2058 55.682 34.077 55.5307 34.0077C55.3693 33.9383 55.2483 33.8789 55.2584 33.8789C55.2786 33.8591 55.8736 34.0275 56.1055 34.1265C56.4585 34.2652 56.519 34.2752 56.5594 34.2652C56.5896 34.2355 56.6098 34.1563 56.6199 33.9086Z" fill="#FF007A"/>
<path d="M49.5195 35.3847C49.0961 34.8101 48.8239 33.9185 48.8844 33.2547L48.9045 33.0467L49.0053 33.0665C49.1868 33.0962 49.4993 33.2151 49.6505 33.3042C50.0538 33.542 50.2352 33.869 50.4066 34.6813C50.457 34.9191 50.5276 35.1965 50.5578 35.2857C50.6082 35.4343 50.7998 35.781 50.961 35.999C51.0719 36.1575 51.0014 36.2368 50.7493 36.2169C50.3663 36.1773 49.8521 35.8306 49.5195 35.3847Z" fill="#FF007A"/>
<path d="M56.1052 39.6938C54.1083 38.9012 53.4023 38.2176 53.4023 37.0585C53.4023 36.89 53.4124 36.7513 53.4124 36.7513C53.4225 36.7513 53.4931 36.8108 53.5839 36.8801C53.9873 37.1972 54.4411 37.3359 55.7017 37.5142C56.438 37.6232 56.8615 37.7024 57.2448 37.8312C58.4651 38.2275 59.2215 39.0399 59.403 40.1396C59.4534 40.4566 59.4232 41.0609 59.3425 41.378C59.2719 41.6257 59.0702 42.0814 59.0198 42.0913C59.0097 42.0913 58.9895 42.0418 58.9895 41.9625C58.9693 41.5464 58.7575 41.1501 58.4046 40.843C57.981 40.4863 57.4364 40.2188 56.1052 39.6938Z" fill="#FF007A"/>
<path d="M54.6934 40.0205C54.6732 39.8719 54.6228 39.6836 54.5925 39.6044L54.5421 39.4558L54.6328 39.5648C54.7639 39.7134 54.8648 39.8917 54.9556 40.1394C55.0262 40.3276 55.0262 40.3871 55.0262 40.6942C55.0262 40.9914 55.0161 41.0607 54.9556 41.2292C54.8547 41.4966 54.7337 41.6849 54.532 41.8929C54.1689 42.2595 53.6949 42.4576 53.0192 42.5468C52.8982 42.5567 52.5553 42.5864 52.2528 42.6062C51.4964 42.6459 50.9921 42.7251 50.5383 42.8836C50.4778 42.9035 50.4173 42.9233 50.4072 42.9134C50.387 42.8936 50.6996 42.7152 50.9518 42.5963C51.3048 42.4279 51.6678 42.3388 52.4645 42.2001C52.8579 42.1406 53.2613 42.0614 53.3621 42.0217C54.3605 41.7146 54.8547 40.9518 54.6934 40.0205Z" fill="#FF007A"/>
<path d="M55.6121 41.6154C55.3499 41.0507 55.2894 40.5157 55.4306 40.0104C55.4507 39.9609 55.4709 39.9114 55.4911 39.9114C55.5113 39.9114 55.5718 39.9411 55.6323 39.9807C55.7533 40.06 56.0054 40.1987 56.6509 40.5454C57.4678 40.9813 57.9317 41.3182 58.2544 41.7046C58.5368 42.0414 58.7082 42.4278 58.7889 42.9033C58.8393 43.1708 58.8091 43.8148 58.7385 44.0823C58.5166 44.9244 58.0124 45.5981 57.2761 45.9844C57.1652 46.0439 57.0744 46.0835 57.0644 46.0835C57.0543 46.0835 57.0946 45.9844 57.1551 45.8656C57.3972 45.3603 57.4274 44.8749 57.2459 44.33C57.135 43.9931 56.903 43.5869 56.4391 42.9033C55.8844 42.1108 55.7533 41.9027 55.6121 41.6154Z" fill="#FF007A"/>
<path d="M48.0966 44.6465C48.8429 44.0322 49.7606 43.5963 50.6077 43.4576C50.9708 43.3982 51.5759 43.418 51.9087 43.5072C52.4432 43.6459 52.9273 43.9431 53.1795 44.3096C53.4215 44.6663 53.5324 44.9734 53.6434 45.657C53.6837 45.9245 53.7341 46.2019 53.7442 46.2613C53.8249 46.618 53.9863 46.8954 54.188 47.044C54.5006 47.2719 55.0452 47.2818 55.5797 47.0836C55.6705 47.0539 55.7512 47.0242 55.7512 47.0341C55.7713 47.0539 55.499 47.2322 55.3175 47.3214C55.0654 47.4502 54.8637 47.4898 54.5914 47.4898C54.1073 47.4898 53.6938 47.2421 53.361 46.7468C53.2904 46.6477 53.1492 46.3604 53.0282 46.0929C52.6752 45.2904 52.4937 45.0527 52.0802 44.7852C51.7171 44.5573 51.2532 44.5078 50.9002 44.6762C50.4363 44.8942 50.3153 45.4787 50.638 45.8353C50.7691 45.9839 51.0112 46.1028 51.2129 46.1325C51.586 46.1821 51.9087 45.8948 51.9087 45.5282C51.9087 45.2904 51.818 45.1517 51.5759 45.0428C51.2532 44.9041 50.9002 45.0626 50.9103 45.3697C50.9103 45.4985 50.9708 45.5777 51.1019 45.6372C51.1826 45.6768 51.1826 45.6768 51.1221 45.6669C50.8296 45.6075 50.759 45.2508 50.991 45.023C51.2734 44.7456 51.8684 44.8644 52.0701 45.2508C52.1508 45.4093 52.1609 45.7264 52.0903 45.9245C51.9188 46.3604 51.4347 46.5883 50.9406 46.4595C50.6077 46.3703 50.4666 46.2812 50.0632 45.875C49.3572 45.1617 49.0849 45.023 48.0764 44.8743L47.8848 44.8446L48.0966 44.6465Z" fill="#FF007A"/>
<path fill-rule="evenodd" clip-rule="evenodd" d="M43.6633 30.2315C46.0132 33.0349 48.7638 35.8697 48.9453 36.1074C49.0966 36.3055 49.0361 36.4937 48.784 36.6324C48.6428 36.7117 48.3503 36.7909 48.2091 36.7909C48.0477 36.7909 47.8561 36.7117 47.725 36.5829C47.6343 36.4937 47.2409 35.9291 46.3535 34.572C45.6778 33.5319 45.1029 32.6701 45.0928 32.6602C45.0525 32.6404 45.0525 32.6404 46.2829 34.7999C47.0594 36.1569 47.3115 36.6423 47.3115 36.7018C47.3115 36.8305 47.2712 36.8999 47.1098 37.0782C46.8375 37.3753 46.7165 37.7121 46.6258 38.4154C46.5249 39.198 46.2526 39.7527 45.476 40.6938C45.0222 41.2485 44.9516 41.3475 44.8407 41.5754C44.6995 41.8527 44.6592 42.0112 44.639 42.3678C44.6188 42.7442 44.6592 42.982 44.7701 43.3386C44.8709 43.6556 44.9819 43.8636 45.2542 44.2697C45.4861 44.6263 45.6273 44.8938 45.6273 44.9928C45.6273 45.0721 45.6475 45.0721 46.0106 44.9928C46.8779 44.7947 47.5939 44.4579 47.9872 44.0419C48.2293 43.7843 48.2898 43.6457 48.2898 43.2891C48.2898 43.0612 48.2797 43.0117 48.2192 42.873C48.1183 42.6551 47.9267 42.4768 47.5132 42.1994C46.9686 41.8329 46.7367 41.5357 46.6762 41.1395C46.6258 40.8027 46.6863 40.5749 46.9888 39.9508C47.3015 39.307 47.3821 39.0395 47.4326 38.3857C47.4628 37.9697 47.5132 37.8013 47.6343 37.6725C47.7654 37.5338 47.8763 37.4843 48.1889 37.4447C48.7033 37.3753 49.0361 37.2466 49.2983 36.9989C49.5303 36.7909 49.6311 36.5829 49.6412 36.2758L49.6513 36.048L49.5202 35.9093C49.0462 35.3744 44.8511 31.5048 44.8208 31.5048C44.8107 31.5048 43.4717 29.9938 43.6633 30.2315ZM45.8895 42.7938C46.0005 42.6056 45.94 42.3678 45.7584 42.249C45.587 42.14 45.3248 42.1895 45.3248 42.3381C45.3248 42.3777 45.3449 42.4174 45.4055 42.4372C45.4962 42.4867 45.5063 42.5362 45.4357 42.6452C45.3651 42.7541 45.3651 42.8532 45.4559 42.9225C45.5971 43.0315 45.7887 42.9721 45.8895 42.7938Z" fill="#FF007A"/>
<path fill-rule="evenodd" clip-rule="evenodd" d="M49.9731 37.5834C49.7312 37.6527 49.4993 37.9103 49.4288 38.1679C49.3884 38.3264 49.4086 38.6137 49.4792 38.7029C49.5901 38.8416 49.6909 38.8812 49.9731 38.8812C50.5276 38.8812 51.0014 38.6435 51.0518 38.3561C51.1022 38.1184 50.8905 37.7914 50.5981 37.6428C50.4469 37.5636 50.1344 37.5339 49.9731 37.5834ZM50.6183 38.0787C50.699 37.9599 50.6687 37.8311 50.5175 37.7419C50.2453 37.5735 49.832 37.7122 49.832 37.9698C49.832 38.0986 50.0437 38.2373 50.2453 38.2373C50.3764 38.2373 50.5578 38.158 50.6183 38.0787Z" fill="#FF007A"/>
</g>
<defs>
<linearGradient id="paint0_linear_5263_1027" x1="116.456" y1="35.0423" x2="153.833" y2="21.5701" gradientUnits="userSpaceOnUse">
<stop stop-color="#36373D"/>
<stop offset="0.359375" stop-color="#101015"/>
<stop offset="1" stop-color="#0E0501"/>
</linearGradient>
<linearGradient id="paint1_linear_5263_1027" x1="121.384" y1="30.4028" x2="150.536" y2="30.4028" gradientUnits="userSpaceOnUse">
<stop offset="0.442708" stop-color="white"/>
<stop offset="0.505208" stop-color="#8D9ACA"/>
<stop offset="1" stop-color="#FF784A"/>
</linearGradient>
<linearGradient id="paint2_linear_5263_1027" x1="43.7924" y1="5.3284" x2="46.0963" y2="13.2442" gradientUnits="userSpaceOnUse">
<stop stop-color="#03B8FF"/>
<stop offset="1" stop-color="#FA52A0"/>
</linearGradient>
<linearGradient id="paint3_linear_5263_1027" x1="45.6916" y1="4.77544" x2="47.9956" y2="12.6913" gradientUnits="userSpaceOnUse">
<stop stop-color="#03B8FF"/>
<stop offset="1" stop-color="#FA52A0"/>
</linearGradient>
<linearGradient id="paint4_linear_5263_1027" x1="41.8991" y1="5.87934" x2="44.2031" y2="13.7952" gradientUnits="userSpaceOnUse">
<stop stop-color="#03B8FF"/>
<stop offset="1" stop-color="#FA52A0"/>
</linearGradient>
<clipPath id="clip0_5263_1027">
<rect width="26.0107" height="24.9964" fill="white" transform="translate(1.87988 0.0432434)"/>
</clipPath>
<clipPath id="clip1_5263_1027">
<rect width="25.0102" height="24.9964" fill="white" transform="translate(15.4072 18.1075)"/>
</clipPath>
<clipPath id="clip2_5263_1027">
<rect width="25.0102" height="24.9964" fill="white" transform="translate(0.557617 32.0468)"/>
</clipPath>
<clipPath id="clip3_5263_1027">
<rect width="26.0107" height="24.9964" fill="white" transform="translate(32.3662 0.0432434)"/>
</clipPath>
<clipPath id="clip4_5263_1027">
<rect width="26.0107" height="24.9964" fill="white" transform="translate(38.5303 27.032)"/>
</clipPath>
</defs>
</svg>
