<svg width="158" height="59" viewBox="0 0 158 59" fill="none" xmlns="http://www.w3.org/2000/svg">
<path d="M157.937 24.2637C157.937 35.3094 148.982 44.2637 137.937 44.2637C126.891 44.2637 117.937 35.3094 117.937 24.2637C117.937 13.218 126.891 4.26367 137.937 4.26367C148.982 4.26367 157.937 13.218 157.937 24.2637Z" fill="url(#paint0_linear_5198_517)"/>
<path d="M151.863 21.2558L147.238 20.4991L150.77 19.0225L151.567 15.8359L150.635 14.1814L146.08 12.85L148.399 16.1729H148.397L148.411 16.1922L146.602 16.6438L142.137 13.5777L138.347 14.0278L134.558 13.5777L130.091 16.6441L128.284 16.1924L128.297 16.1731H128.296L130.615 12.8503L126.059 14.1816L125.127 15.8362L125.925 19.0228L129.457 20.4991L124.833 21.2558L123.777 24.0991L126.949 25.632L129.946 24.5756L130.377 27.7743L132.346 32.3637L133.305 34.854L137.947 38.1121L138.341 38.3878V38.3933L138.344 38.3955L138.348 38.3925L138.353 38.3955L138.355 38.3933V38.3878L138.75 38.1121L143.391 34.8529L144.35 32.3626L146.319 27.7732L146.75 24.5745L149.747 25.6309L152.919 24.098L151.863 21.2558ZM126.373 14.5754L129.473 13.669L127.791 16.0797L125.74 15.701L126.373 14.5754ZM125.691 16.1651L127.497 16.5007L126.227 18.3042L125.691 16.1651ZM129.903 24.0969L126.977 25.1277L124.363 23.8633L125.176 21.6719L129.905 20.8998L129.903 24.0969ZM129.903 20.1812L126.48 18.7503L127.994 16.5995L129.902 17.076L129.903 20.1812ZM138.347 32.846L137.166 31.8759L135.68 27.9445H141.014L139.528 31.877L138.347 32.846ZM135.539 27.4774L134.341 23.3753H142.353L141.155 27.4776L135.539 27.4774ZM134.196 22.909L133.754 21.4295L138.347 14.8015L142.94 21.4298L142.498 22.9092L134.196 22.909ZM130.37 19.6443V17.0183L134.677 14.0609L138.006 14.4566L138.028 14.4593L138.019 14.4687L133.338 21.1855L130.37 19.6443ZM132.778 32.1878L130.831 27.6481L130.396 24.4341L133.897 23.5184L135.115 27.6905L134.13 29.749L132.801 32.2462L132.778 32.1878ZM133.023 32.8234L134.41 30.2167L137.984 33.1518L137.864 33.2503L133.64 34.4219L133.023 32.8234ZM138.347 37.8247L134.035 34.7958L138.347 33.5994L142.659 34.7958L138.347 37.8247ZM143.054 34.4219L138.83 33.2497L138.71 33.1513L142.285 30.2161L143.671 32.8228L143.054 34.4219ZM145.863 27.6481L143.915 32.1872L143.892 32.2465L142.564 29.749L141.578 27.6905L142.796 23.5184L146.298 24.4341L145.863 27.6481ZM146.324 19.6443L143.358 21.1855L138.676 14.4687L138.666 14.4593L138.688 14.4566L142.017 14.0609L146.324 17.0183V19.6443ZM150.469 18.3033L149.199 16.4999L151.005 16.1657L150.469 18.3033ZM147.221 13.6707L150.321 14.5771L150.955 15.701L148.903 16.0805L147.221 13.6707ZM146.791 17.0793L148.699 16.6028L150.213 18.7536L146.79 20.1845L146.791 17.0793ZM149.718 25.1293L146.791 24.0986V20.8998L151.52 21.6719L152.333 23.8633L149.718 25.1293Z" fill="url(#paint1_linear_5198_517)"/>
<path d="M80.704 21.8754C80.3135 22.2659 80.3135 22.8991 80.704 23.2896L87.068 29.6536C87.4585 30.0441 88.0917 30.0441 88.4822 29.6536C88.8727 29.2631 88.8727 28.6299 88.4822 28.2394L82.8253 22.5825L88.4822 16.9257C88.8727 16.5351 88.8727 15.902 88.4822 15.5115C88.0917 15.1209 87.4585 15.1209 87.068 15.5115L80.704 21.8754ZM108.869 23.2896C109.26 22.8991 109.26 22.2659 108.869 21.8754L102.505 15.5115C102.115 15.1209 101.482 15.1209 101.091 15.5115C100.701 15.902 100.701 16.5351 101.091 16.9257L106.748 22.5825L101.091 28.2394C100.701 28.6299 100.701 29.2631 101.091 29.6536C101.482 30.0441 102.115 30.0441 102.505 29.6536L108.869 23.2896ZM81.4111 23.5825H108.162V21.5825H81.4111V23.5825Z" fill="#A2B8D1"/>
<g clip-path="url(#clip0_5198_517)">
<ellipse cx="17.4629" cy="12.5001" rx="12.5" ry="12.4998" fill="white"/>
<path d="M12.4884 14.247L12.9911 10.2339L8.63086 7.0178L12.6147 8.45164L13.5556 6.91784L16.9911 4.65283L24.5637 9.08573L24.9561 15.8493L21.5825 20.8306L18.9158 21.2648L20.2948 18.5827V16.0007L19.2921 13.9842L18.2733 13.2673L16.7061 14.9839V16.8004L15.483 18.0172L13.9292 18.2171L13.2411 18.6313L12.112 18.2486L11.6416 16.4491L12.4884 15.1838V14.247Z" fill="white"/>
<path d="M19.4496 6.98359C18.619 6.80079 17.7103 6.84935 17.7103 6.84935C17.7103 6.84935 17.412 8.3146 15.5625 8.7002C15.5759 8.7002 18.006 9.58278 19.4496 6.98359Z" fill="#94A6C3"/>
<path d="M20.2031 20.2794C21.2058 19.4454 21.9585 18.2972 22.3053 16.9976C22.3214 16.949 22.4612 16.8633 22.5553 16.7976C22.7112 16.6977 22.8698 16.6148 22.8993 16.4806C22.9612 16.0979 22.9934 15.698 22.9934 15.2981C22.9934 15.1496 22.851 14.9982 22.7112 14.8497C22.601 14.7497 22.4907 14.6326 22.4907 14.5498C22.3348 13.0331 21.6762 11.6164 20.6251 10.5853L20.5149 10.7024C21.5337 11.7192 22.1924 13.1017 22.3348 14.5669C22.351 14.7012 22.4746 14.8325 22.601 14.9668C22.7112 15.0668 22.8375 15.2181 22.8375 15.2838C22.8375 15.6666 22.8053 16.0493 22.7434 16.432C22.7273 16.4977 22.5875 16.5663 22.4773 16.632C22.3214 16.7148 22.1789 16.7976 22.1493 16.9319C21.773 18.3486 20.9101 19.5825 19.7649 20.3822C19.9692 19.9167 20.6117 18.4 20.9558 17.6317L20.894 15.1667L18.902 13.1188L17.773 13.2845L16.5337 15.4181C16.5337 15.4181 17.1144 16.2007 16.2972 17.1175C15.4988 18.0173 14.8698 18.2172 14.8698 18.2172L14.2891 17.883C14.4612 17.6488 14.8079 17.3003 15.0741 17.0661C15.5284 16.6663 15.9827 16.632 15.9827 16.2007C16.0015 15.2981 15.0902 15.5466 15.0902 15.5466L14.7596 15.8808L14.6198 17.1147L13.9316 18.0315L13.8536 18.0144L12.7246 17.7488C12.7246 17.7488 13.4155 17.366 13.5257 16.9319C13.6359 16.5149 13.3053 15.1325 13.2891 15.0496C13.3053 15.0668 13.6198 15.3495 13.7596 15.8151C14.0096 15.081 14.3402 14.3813 14.4343 14.3156C14.5284 14.2499 15.7972 13.533 15.7972 13.533L15.3751 14.7154L15.6897 14.5326L16.4424 12.5675C16.4424 12.5675 17.1789 12.1848 17.7273 12.1848C18.7139 12.1677 20.1735 10.8852 19.5149 8.58594C19.7031 8.66877 22.9639 10.4025 23.5284 13.8014C23.9504 16.4149 22.5553 18.8627 20.2031 20.2794Z" fill="#94A6C3"/>
<path d="M16.4718 7.34921C16.832 6.89793 16.6922 6.23242 16.6922 6.23242L15.6411 7.88333C15.625 7.88333 16.0148 7.90047 16.4718 7.34921Z" fill="#1B314F"/>
<path d="M12.9421 16.3635L13.0684 15.698C13.0684 15.698 12.5496 16.6634 12.5039 16.7977C12.4555 16.949 12.5362 17.2147 12.7378 17.1975C12.9421 17.1804 13.1921 16.8633 13.1921 16.632C13.1921 16.3321 12.9421 16.3635 12.9421 16.3635Z" fill="#1B314F"/>
<path d="M22.2559 5.7668C22.2559 5.7668 23.0408 5.80108 23.8553 5.90104C22.0193 4.36724 20.2801 3.91881 18.8688 3.91881C16.9252 3.91881 15.608 4.76997 15.5274 4.81853L16.1403 3.78457C16.1403 3.78457 13.694 3.53322 12.8311 6.28378C12.6107 5.70111 12.4091 4.84995 12.4091 4.84995C12.4091 4.84995 11.1376 6.03529 11.7344 8.00039C10.2747 7.43485 8.19135 6.64938 8.1107 6.6351C8.00049 6.61796 7.96823 6.66937 7.96823 6.66937C7.96823 6.66937 7.93597 6.71793 8.03006 6.80362C8.20479 6.94929 11.4978 9.53419 12.2209 10.034C12.065 10.6338 12.065 10.9166 12.2209 11.1994C12.4413 11.5821 12.4548 11.7821 12.4252 12.0648C12.393 12.3476 12.1107 14.7983 12.0489 15.0982C11.987 15.3981 11.3284 16.4634 11.358 16.7805C11.3903 17.0975 11.7962 18.4457 12.1591 18.5971C12.4252 18.697 13.0838 18.9141 13.522 18.9141C13.6779 18.9141 13.8204 18.8798 13.8822 18.8141C14.1483 18.5656 14.2263 18.5142 14.4145 18.5142C14.4306 18.5142 14.4467 18.5142 14.4602 18.5142C14.5381 18.5142 14.6322 18.5314 14.7424 18.5314C14.9924 18.5314 15.3231 18.48 15.5569 18.2486C15.901 17.883 16.4978 17.3832 16.686 17.1489C16.9225 16.8319 17.0462 16.4006 16.9844 15.9665C16.936 15.5666 17.1403 15.2153 17.3768 14.8668C17.6752 14.4498 18.2236 13.7015 18.2236 13.7015C19.3069 14.564 19.9817 15.8808 19.9817 17.346C19.9817 19.9452 17.8499 22.0445 15.2155 22.0445C14.8069 22.0445 14.4172 21.996 14.0247 21.896C15.2317 22.3445 16.2505 22.4958 17.0838 22.4958C18.8553 22.4958 19.7962 21.8132 19.7962 21.8132C19.7962 21.8132 19.4682 22.2645 18.9333 22.7786C18.9494 22.7786 18.9494 22.7786 18.9494 22.7786C21.8822 22.3445 23.3096 19.7795 23.3096 19.7795C23.3096 19.7795 23.1994 20.6136 23.0596 21.1791C26.9602 18.0629 26.3016 14.1642 26.2854 14.0328C26.3177 14.0813 26.7102 14.5812 26.9118 14.8497C27.5408 7.98325 22.2559 5.7668 22.2559 5.7668ZM16.2505 16.7319C16.1887 16.8148 15.9225 17.0661 15.7344 17.2489C15.5462 17.4317 15.3419 17.6145 15.186 17.783C15.1241 17.8487 14.9978 17.883 14.8096 17.883C14.7478 17.883 14.6833 17.883 14.6376 17.883C14.6053 17.883 14.5758 17.883 14.5435 17.883C14.5112 17.883 14.4951 17.883 14.4817 17.883C14.4333 17.883 14.3876 17.883 14.3392 17.883C14.5758 17.5488 15.2639 16.7833 15.5005 16.6177C15.7827 16.4177 15.9252 16.2178 15.7505 15.8693C15.5784 15.518 15.1241 15.6037 15.1241 15.6037C15.1241 15.6037 15.3903 15.4866 15.6268 15.4866C15.3284 15.4038 14.9521 15.4866 14.7801 15.6694C14.5919 15.8522 14.6241 16.5034 14.5462 16.9176C14.4682 17.3517 14.2021 17.5688 13.7935 17.9687C13.5731 18.1858 13.4172 18.2515 13.2908 18.2515C13.0247 18.2029 12.7102 18.1172 12.4897 18.0344C12.3338 17.8173 12.0973 17.1004 12.0354 16.8005C12.0811 16.6348 12.2693 16.2835 12.3634 16.0836C12.5516 15.7008 12.6618 15.4838 12.694 15.2838C12.7559 15.001 12.9602 13.2502 13.0381 12.519C13.2424 12.8017 13.5247 13.2702 13.4602 13.5701C13.9145 12.8874 13.5865 12.2191 13.4279 11.9534C13.2881 11.6878 13.0999 11.1537 13.2559 10.5881C13.4118 10.0226 13.9763 8.45453 13.9763 8.45453C13.9763 8.45453 14.1645 8.80585 14.4306 8.7373C14.6967 8.6716 16.8446 5.2384 16.8446 5.2384C16.8446 5.2384 17.4252 6.58654 16.8123 7.57195C16.186 8.5545 15.5731 8.7373 15.5731 8.7373C15.5731 8.7373 16.436 8.90296 17.2344 8.28601C17.5623 9.1029 17.8768 9.9512 17.893 10.0683C17.8446 10.1854 17.2182 11.7849 17.1564 11.8849C17.1241 11.9192 16.9064 11.9848 16.7478 12.0191C16.4817 12.102 16.3258 12.1534 16.2612 12.2019C16.151 12.3019 15.6483 13.7671 15.4145 14.4841C15.1322 14.5669 14.8499 14.7354 14.6456 15.0667C14.7559 14.9839 15.0999 14.9325 15.3526 14.9011C15.5731 14.8839 16.2451 15.2667 16.4198 15.9836C16.4198 16.0007 16.4198 16.0007 16.4198 16.0179C16.4548 16.2806 16.3768 16.532 16.2505 16.7319ZM14.7774 16.9319C14.9198 16.7148 14.9037 16.3492 14.9198 16.2321C14.936 16.115 14.9655 15.8979 15.0919 15.8665C15.2182 15.8322 15.5166 15.8836 15.5166 16.115C15.5166 16.3321 15.2962 16.3806 15.1403 16.532C15.0274 16.6462 14.8069 16.8976 14.7774 16.9319ZM21.0327 13.7472C21.1887 12.8988 21.2048 12.1648 21.1591 11.565C21.7693 12.4304 22.1456 13.4815 22.2559 14.564C22.272 14.6983 22.3956 14.8297 22.522 14.9639C22.6322 15.0639 22.7586 15.1981 22.7586 15.281C22.7586 15.6637 22.7263 16.0464 22.6645 16.432C22.6483 16.4806 22.5086 16.5663 22.3983 16.632C22.2424 16.7148 22.0999 16.7976 22.0704 16.9319C21.7263 18.2143 20.987 19.3483 20.0005 20.148C21.4575 18.5314 22.1618 15.8636 21.0327 13.7472ZM20.0462 20.2965C21.065 19.4625 21.8499 18.2972 22.194 16.9804C22.2102 16.9319 22.3499 16.8462 22.444 16.7805C22.5999 16.6977 22.7586 16.5977 22.7881 16.4634C22.8499 16.0807 22.8822 15.6808 22.8822 15.281C22.8822 15.1324 22.7397 14.9811 22.5999 14.8325C22.522 14.7326 22.3956 14.6155 22.3956 14.5326C22.2693 13.3159 21.815 12.1676 21.1107 11.2165C20.7962 9.21715 19.5435 8.6002 19.5112 8.58306C19.5435 8.63447 20.358 9.88265 19.7935 11.3479C19.2129 12.8303 17.7236 12.5989 17.5973 12.6132C17.4709 12.6132 16.987 13.2787 16.3741 14.5126C16.2962 14.4784 15.9655 14.3955 15.5892 14.4641C15.8715 13.63 16.2962 12.4476 16.3741 12.3476C16.4064 12.3133 16.6403 12.2476 16.7989 12.1991C17.0973 12.1162 17.237 12.0648 17.2854 11.9991C17.3177 11.9477 17.4736 11.565 17.6295 11.1651C17.772 11.1651 18.1322 11.1308 18.1618 11.1137C18.194 11.0794 18.4924 10.2654 18.4924 10.1654C18.4924 10.0826 17.8795 8.46595 17.6456 7.849C17.7559 7.71476 17.8661 7.5491 17.9736 7.3663C21.1887 7.73475 23.6994 10.6338 23.6994 14.147C23.6994 16.8462 22.2102 19.1969 20.0462 20.2965Z" fill="#1B314F"/>
<path d="M15.8749 11.2995C16.1733 10.9339 16.0174 10.2513 15.4663 10.1342C15.6088 9.78572 15.8104 9.08594 15.8104 9.08594C15.8104 9.08594 14.2109 11.7508 14.0711 11.8022C13.9287 11.8536 13.7889 11.2681 13.7889 11.2681C13.4905 12.4849 14.2916 12.6505 14.3857 12.2678C14.8238 12.1478 15.5765 11.648 15.8749 11.2995Z" fill="#1B314F"/>
<path d="M14.5098 11.948L15.3243 10.4656C15.3243 10.4656 15.7947 10.7169 15.5582 11.1168C15.2625 11.5824 14.5098 11.948 14.5098 11.948Z" fill="#FFD923"/>
<path d="M24.5919 18.8142C24.3553 19.1484 24.0892 19.4968 23.7773 19.831C25.7988 15.698 23.8714 11.9163 23.7935 11.7678C23.9359 11.9192 24.0757 12.0849 24.2021 12.2334C25.7531 14.0642 25.9413 16.8148 24.5919 18.8142Z" fill="#D82122"/>
<path d="M26.4746 13.4987C25.7676 11.4822 24.7649 9.76556 22.5553 8.21747C20.4235 6.71794 18.1332 6.83505 18.0069 6.85218C17.9907 6.85218 17.9746 6.85218 17.9746 6.85218C18.0526 6.81791 18.1305 6.80077 18.2085 6.78649C18.695 6.62083 19.3214 6.48658 19.9504 6.40375C21.6144 6.14955 23.2918 6.74936 24.437 8.03467C24.4531 8.05181 24.4531 8.05181 24.4692 8.06895C25.7703 9.5342 26.445 11.3651 26.4746 13.4987Z" fill="#D82122"/>
<path d="M22.0521 5.24992C19.7161 4.78435 18.2107 5.0157 17.1274 5.44985C17.0952 5.31561 16.9849 5.04998 16.8909 4.8329C16.5656 5.24992 16.2188 5.74976 16.0011 6.0668C15.4043 6.50095 15.1543 6.91796 15.1543 6.91796C15.4984 5.66693 16.5038 4.73579 17.7269 4.50158C18.071 4.43589 18.4473 4.40161 18.8559 4.40161C19.9366 4.41875 21.0172 4.70152 22.0521 5.24992Z" fill="#D82122"/>
<path d="M13.4134 8.44883C11.58 8.38313 12.1903 6.11527 12.2225 5.98389C12.2225 6.00102 12.3462 7.76618 13.4134 8.44883Z" fill="#D82122"/>
<path d="M15.2154 4.36719C13.8041 5.26691 14.0863 7.4148 14.0863 7.4148C12.7369 5.23549 15.1052 4.4186 15.2154 4.36719Z" fill="#D82122"/>
<path d="M12.8963 9.04868C12.9904 9.13151 13.0845 9.2829 12.9743 9.49997C12.9124 9.61708 12.8183 9.59994 12.6759 9.53425C12.4877 9.43428 11.3587 8.7345 10.3398 8.01758C11.5011 8.45173 12.6759 8.9173 12.864 9.01726C12.864 9.01726 12.8802 9.0344 12.8963 9.04868Z" fill="white"/>
</g>
<g clip-path="url(#clip1_5198_517)">
<path fill-rule="evenodd" clip-rule="evenodd" d="M30.3438 18.0669C37.2463 18.0669 42.8438 23.6644 42.8438 30.5669C42.8438 37.4694 37.2463 43.0669 30.3438 43.0669C23.4412 43.0669 17.8438 37.4694 17.8438 30.5669C17.8438 23.6644 23.4412 18.0669 30.3438 18.0669Z" fill="black"/>
<path d="M30.5314 35.7919C26.5339 35.7919 23.2939 34.6369 23.2939 33.0894C23.2939 32.2819 24.1764 31.5544 25.5889 31.0419C26.6914 31.7494 28.5414 32.1119 30.6389 32.1119C32.6864 32.1119 34.4964 31.6694 35.6089 30.9919C36.9414 31.4994 37.7689 32.2069 37.7689 32.9869C37.7689 34.5369 34.5289 35.7919 30.5314 35.7919Z" fill="white"/>
<path d="M30.5734 31.7645C27.5434 31.7645 25.0859 30.8145 25.0859 29.642C25.0859 28.992 25.8434 28.4095 27.0309 28.022C27.8784 28.4645 29.1484 28.747 30.5734 28.747C31.9984 28.747 33.2684 28.4645 34.1159 28.022C35.3059 28.412 36.0609 28.992 36.0609 29.642C36.0634 30.8145 33.6059 31.7645 30.5734 31.7645Z" fill="white"/>
<path d="M30.554 28.3943C28.2115 28.3943 26.3115 27.6093 26.3115 26.6443C26.3115 25.6793 28.2115 24.8943 30.554 24.8943C32.8965 24.8943 34.7965 25.6793 34.7965 26.6443C34.7965 27.6093 32.8965 28.3943 30.554 28.3943Z" fill="white"/>
</g>
<g clip-path="url(#clip2_5198_517)">
<path fill-rule="evenodd" clip-rule="evenodd" d="M12.5 33.0083C19.4025 33.0083 25 38.6058 25 45.5083C25 52.4108 19.4025 58.0083 12.5 58.0083C5.5975 58.0083 0 52.4108 0 45.5083C0 38.6058 5.5975 33.0083 12.5 33.0083Z" fill="#2F6DF3"/>
<path d="M13.7264 38.6355L21.5823 52.2422H5.87058L13.7264 38.6355Z" fill="white"/>
<path d="M13.7267 41.9341L18.7259 50.5929H8.72748L13.7267 41.9341Z" fill="#2F6DF3"/>
<path d="M8.43568 44.9229L4.87275 38.7517L11.9986 38.7517L8.43568 44.9229Z" fill="white"/>
</g>
<g clip-path="url(#clip3_5198_517)">
<ellipse cx="47.9375" cy="12.5001" rx="12.5" ry="12.4998" fill="#0C0D1F"/>
<path d="M55.4671 13.1344C55.4977 13.3243 55.5031 13.4937 55.4874 13.6437L44.6364 6.2348C45.0815 5.98912 45.794 5.89771 46.778 6.07202C48.091 6.3046 49.7036 6.98904 51.2892 8.10828L51.2965 8.11341L51.3039 8.11828C52.9174 9.17321 54.1399 10.4343 54.8385 11.5837C55.1881 12.1588 55.3953 12.6875 55.4671 13.1344ZM44.0846 7.06887L54.9345 14.477C54.4894 14.7227 53.7769 14.8141 52.7928 14.6398C52.5893 14.6038 52.3786 14.5569 52.162 14.4992C51.3765 13.4733 50.2894 12.4358 48.9857 11.5155C47.6513 10.5736 46.2733 9.90296 45.0172 9.53517C44.914 9.3896 44.8187 9.24532 44.7316 9.10292C44.2138 8.25664 44.0328 7.56706 44.0846 7.06887ZM48.409 12.3325C49.0214 12.7647 49.5775 13.2205 50.0695 13.6834C49.4814 13.3859 48.8796 13.0256 48.2817 12.6036L48.2817 12.6035L48.2725 12.5973C47.6062 12.1488 47.0067 11.6708 46.4832 11.1839C47.1149 11.4941 47.7642 11.8773 48.409 12.3325ZM43.1975 8.10081C43.2995 8.48159 43.4606 8.86942 43.6644 9.2511C43.2328 9.19996 42.8108 9.19204 42.4169 9.23769L43.1975 8.10081ZM52.931 15.673C53.394 15.7344 53.8475 15.7473 54.2691 15.6989L53.4389 16.926C53.3344 16.5187 53.1607 16.0973 52.931 15.673ZM52.5239 17.4303C52.5577 17.6413 52.5602 17.8267 52.5366 17.9886L41.6701 10.5106C42.1067 10.2268 42.8477 10.1102 43.8979 10.2962C44.0668 10.3262 44.2408 10.3636 44.419 10.4084C45.2187 11.4518 46.3448 12.5046 47.7095 13.4237C49.0024 14.3357 50.336 14.993 51.56 15.3669C51.6847 15.5421 51.7986 15.7154 51.9011 15.8858C52.2477 16.4623 52.453 16.9873 52.5239 17.4303ZM41.1769 11.3851L51.9399 18.7918C51.4923 19.0173 50.7964 19.0959 49.8486 18.928C48.5357 18.6955 46.9231 18.011 45.3375 16.8918C43.7449 15.7676 42.5189 14.5024 41.8194 13.3591C41.3257 12.5523 41.138 11.8875 41.1769 11.3851Z" fill="white" stroke="white"/>
<path d="M43.9395 6.41431L55.5645 14.3517L52.6895 18.6016L41.0645 10.6018L43.9395 6.41431Z" fill="url(#paint2_linear_5198_517)"/>
<path d="M55.5645 14.3517C54.5645 15.7892 51.1895 15.2267 48.002 12.9767C44.752 10.7893 43.002 7.85179 43.9395 6.41431C44.9395 4.97683 48.3145 5.53932 51.502 7.78929C54.752 9.91427 56.502 12.9142 55.5645 14.3517Z" fill="url(#paint3_linear_5198_517)"/>
<path d="M52.6894 18.5392C51.6894 19.9767 48.3144 19.4142 45.1269 17.1642C41.9394 14.9143 40.1269 12.0393 41.1269 10.5393C42.1269 9.10183 45.5019 9.66432 48.6894 11.9143C51.8769 14.1643 53.6269 17.1017 52.6894 18.5392Z" fill="url(#paint4_linear_5198_517)"/>
<path d="M55.5645 14.3517L52.6895 18.6016C51.6895 20.0391 48.3145 19.4141 45.127 17.2266C44.502 16.7891 43.9395 16.3516 43.377 15.8516C43.8145 15.7891 44.377 15.5392 44.9395 14.9142C45.9395 13.8517 46.4395 13.6017 46.877 13.6642C47.3145 13.6642 47.8145 14.1017 48.627 15.1642C49.4395 16.2266 50.5645 16.5391 51.252 15.9766C51.3145 15.9141 51.377 15.9141 51.4395 15.8516C52.002 15.4142 52.1895 15.2267 53.252 13.2267C53.502 12.7267 54.377 11.9142 55.5645 12.2892C55.877 13.1017 55.877 13.7892 55.5645 14.3517Z" fill="#0E0F23"/>
<path fill-rule="evenodd" clip-rule="evenodd" d="M55.1269 14.1016C54.2519 15.3516 51.1894 14.7266 48.2519 12.6641C45.2519 10.6016 43.5019 7.97668 44.3769 6.72669C45.2519 5.47671 48.3144 6.1017 51.2519 8.16418C54.1894 10.2266 55.9394 12.8516 55.1269 14.1016ZM52.3769 12.2266C51.9394 12.8516 50.4394 12.5391 48.9394 11.5391C47.5019 10.5391 46.6269 9.22666 47.0644 8.60167C47.5019 7.97668 49.0019 8.28917 50.5019 9.28916C51.9394 10.2891 52.8144 11.6016 52.3769 12.2266Z" fill="white"/>
<path d="M43.6895 7.85181C43.6895 7.78932 43.627 7.72682 43.5645 7.78932C43.502 7.85181 43.4395 7.85181 43.4395 7.91431C43.502 8.10181 43.5645 8.22681 43.5645 8.35181C43.5645 8.41431 43.627 8.47681 43.6895 8.41431C43.752 8.41431 43.8145 8.35181 43.752 8.28931C43.752 8.16431 43.752 8.03931 43.6895 7.85181Z" fill="white"/>
<path d="M44.002 8.85181C44.002 8.78932 43.9395 8.72682 43.877 8.78932C43.8145 8.85181 43.8145 8.85182 43.8145 8.91431C44.502 10.4768 45.9395 12.1643 47.8145 13.4143C47.877 13.4768 47.9395 13.4143 48.002 13.4143C48.0645 13.3518 48.002 13.2893 48.002 13.2268C46.0645 11.9768 44.6895 10.3518 44.002 8.85181Z" fill="white"/>
<path d="M51.5645 14.9768C51.502 14.9768 51.4395 14.9768 51.4395 15.0393C51.4395 15.1018 51.4395 15.1643 51.502 15.1643C51.6895 15.2268 51.9395 15.2893 52.127 15.3518C52.1895 15.3518 52.252 15.3518 52.252 15.2893C52.252 15.2268 52.252 15.1643 52.1895 15.1643C52.002 15.1018 51.752 15.0393 51.5645 14.9768Z" fill="white"/>
<path d="M52.6895 15.2268C52.627 15.2268 52.5645 15.2893 52.5645 15.3518C52.5645 15.4143 52.627 15.4768 52.6895 15.4768C53.1895 15.5393 53.752 15.6018 54.1895 15.5393C54.252 15.5393 54.3145 15.4768 54.3145 15.4143C54.3145 15.3518 54.252 15.2893 54.1895 15.2893C53.6895 15.3518 53.1895 15.2893 52.6895 15.2268Z" fill="white"/>
</g>
<g clip-path="url(#clip4_5198_517)">
<ellipse cx="54.1992" cy="39.4927" rx="12.7451" ry="12.5" fill="white"/>
<path d="M51.5277 32.6118C51.316 32.582 51.3059 32.5721 51.4067 32.5622C51.5982 32.5325 52.0418 32.5721 52.3543 32.6415C53.0801 32.8099 53.7354 33.2458 54.431 34.0087L54.6124 34.2167L54.8746 34.1771C55.9935 33.9988 57.1428 34.1375 58.1005 34.5734C58.3626 34.6923 58.7759 34.93 58.8263 34.9895C58.8465 35.0093 58.8767 35.1381 58.8969 35.2669C58.9674 35.7325 58.9372 36.0793 58.786 36.3468C58.7053 36.4954 58.7053 36.535 58.7557 36.6638C58.7961 36.7629 58.917 36.8322 59.0279 36.8322C59.2699 36.8322 59.5219 36.4557 59.6429 35.9307L59.6933 35.7226L59.784 35.8217C60.2981 36.3864 60.7014 37.169 60.7618 37.7238L60.782 37.8725L60.6913 37.7437C60.5401 37.5158 60.3989 37.3672 60.2074 37.2384C59.8646 37.0105 59.5017 36.9412 58.544 36.8916C57.6771 36.8421 57.1831 36.7728 56.6992 36.6142C55.8726 36.3468 55.4492 36 54.4713 34.722C54.0378 34.1573 53.7656 33.8502 53.4935 33.5926C52.8987 33.0279 52.3039 32.7307 51.5277 32.6118Z" fill="#FF007A"/>
<path d="M59.0383 33.87C59.0584 33.4936 59.1088 33.2459 59.2197 33.018C59.2601 32.9289 59.3004 32.8496 59.3105 32.8496C59.3205 32.8496 59.3004 32.919 59.2701 32.9982C59.1895 33.2162 59.1794 33.5233 59.2298 33.87C59.3004 34.3159 59.3306 34.3753 59.8145 34.8608C60.0363 35.0886 60.2984 35.3759 60.3992 35.4948L60.5706 35.7128L60.3992 35.5543C60.1875 35.3561 59.7036 34.9796 59.5927 34.9301C59.5222 34.8905 59.5121 34.8905 59.4617 34.94C59.4214 34.9796 59.4113 35.0391 59.4113 35.3264C59.4012 35.7722 59.3407 36.0496 59.1895 36.3369C59.1088 36.4855 59.0988 36.4558 59.1693 36.2874C59.2197 36.1586 59.2298 36.0991 59.2298 35.6731C59.2298 34.8112 59.129 34.6032 58.5141 34.2564C58.3629 34.1673 58.1007 34.0385 57.9495 33.9691C57.7882 33.8998 57.6673 33.8403 57.6773 33.8403C57.6975 33.8205 58.2923 33.9889 58.5241 34.088C58.877 34.2267 58.9375 34.2366 58.9778 34.2267C59.008 34.197 59.0282 34.1177 59.0383 33.87Z" fill="#FF007A"/>
<path d="M51.9413 35.3461C51.5179 34.7715 51.2458 33.8799 51.3062 33.2161L51.3264 33.0081L51.4272 33.0279C51.6087 33.0576 51.9212 33.1765 52.0724 33.2656C52.4756 33.5034 52.6571 33.8303 52.8285 34.6427C52.8789 34.8805 52.9494 35.1579 52.9797 35.2471C53.0301 35.3957 53.2216 35.7424 53.3829 35.9604C53.4938 36.1189 53.4232 36.1982 53.1712 36.1783C52.7881 36.1387 52.274 35.792 51.9413 35.3461Z" fill="#FF007A"/>
<path d="M58.524 39.6558C56.5279 38.8632 55.8223 38.1796 55.8223 37.0205C55.8223 36.8521 55.8323 36.7134 55.8323 36.7134C55.8424 36.7134 55.913 36.7728 56.0037 36.8422C56.407 37.1592 56.8606 37.2979 58.1207 37.4762C58.8566 37.5852 59.28 37.6645 59.6631 37.7933C60.8829 38.1895 61.639 39.0019 61.8205 40.1016C61.8709 40.4186 61.8406 41.023 61.76 41.34C61.6894 41.5877 61.4878 42.0434 61.4374 42.0533C61.4273 42.0533 61.4071 42.0038 61.4071 41.9245C61.387 41.5084 61.1753 41.1121 60.8224 40.805C60.399 40.4484 59.8547 40.1809 58.524 39.6558Z" fill="#FF007A"/>
<path d="M57.1125 39.9829C57.0923 39.8343 57.0419 39.6461 57.0117 39.5668L56.9613 39.4182L57.052 39.5272C57.1831 39.6758 57.2839 39.8541 57.3746 40.1018C57.4452 40.29 57.4452 40.3495 57.4452 40.6566C57.4452 40.9538 57.4351 41.0232 57.3746 41.1916C57.2738 41.4591 57.1528 41.6473 56.9512 41.8554C56.5883 42.2219 56.1145 42.4201 55.4391 42.5092C55.3181 42.5191 54.9753 42.5489 54.6729 42.5687C53.9168 42.6083 53.4128 42.6876 52.9591 42.8461C52.8986 42.8659 52.8382 42.8857 52.8281 42.8758C52.8079 42.856 53.1204 42.6777 53.3724 42.5588C53.7253 42.3904 54.0882 42.3012 54.8846 42.1625C55.2778 42.103 55.681 42.0238 55.7818 41.9842C56.7798 41.677 57.2738 40.9142 57.1125 39.9829Z" fill="#FF007A"/>
<path d="M58.0309 41.5778C57.7688 41.0131 57.7084 40.4781 57.8495 39.9729C57.8696 39.9233 57.8898 39.8738 57.91 39.8738C57.9301 39.8738 57.9906 39.9035 58.0511 39.9431C58.1721 40.0224 58.4241 40.1611 59.0693 40.5078C59.8858 40.9437 60.3496 41.2806 60.6722 41.667C60.9544 42.0038 61.1258 42.3902 61.2065 42.8657C61.2569 43.1332 61.2266 43.7772 61.156 44.0447C60.9343 44.8868 60.4302 45.5605 59.6943 45.9469C59.5834 46.0063 59.4927 46.0459 59.4826 46.0459C59.4725 46.0459 59.5128 45.9469 59.5733 45.828C59.8153 45.3227 59.8455 44.8373 59.6641 44.2924C59.5532 43.9555 59.3213 43.5493 58.8576 42.8657C58.3031 42.0732 58.1721 41.8651 58.0309 41.5778Z" fill="#FF007A"/>
<path d="M50.5193 44.6096C51.2653 43.9953 52.1827 43.5594 53.0295 43.4207C53.3924 43.3613 53.9973 43.3811 54.3299 43.4702C54.8642 43.6089 55.3481 43.9061 55.6001 44.2727C55.8421 44.6294 55.953 44.9365 56.0639 45.6201C56.1042 45.8876 56.1546 46.165 56.1647 46.2244C56.2453 46.5811 56.4066 46.8585 56.6082 47.0071C56.9207 47.2349 57.4651 47.2449 57.9994 47.0467C58.0901 47.017 58.1708 46.9873 58.1708 46.9972C58.1909 47.017 57.9188 47.1953 57.7373 47.2845C57.4853 47.4133 57.2837 47.4529 57.0115 47.4529C56.5276 47.4529 56.1143 47.2052 55.7816 46.7099C55.711 46.6108 55.5699 46.3235 55.4489 46.056C55.0961 45.2535 54.9146 45.0157 54.5013 44.7483C54.1384 44.5204 53.6747 44.4709 53.3218 44.6393C52.8581 44.8572 52.7371 45.4418 53.0597 45.7984C53.1908 45.947 53.4327 46.0659 53.6343 46.0956C54.0073 46.1452 54.3299 45.8579 54.3299 45.4913C54.3299 45.2535 54.2392 45.1148 53.9973 45.0058C53.6747 44.8671 53.3218 45.0257 53.3319 45.3328C53.3319 45.4616 53.3924 45.5408 53.5235 45.6003C53.6041 45.6399 53.6041 45.6399 53.5436 45.63C53.2513 45.5705 53.1807 45.2139 53.4126 44.986C53.6948 44.7086 54.2896 44.8275 54.4912 45.2139C54.5719 45.3724 54.582 45.6894 54.5114 45.8876C54.34 46.3235 53.8561 46.5514 53.3622 46.4226C53.0295 46.3334 52.8883 46.2442 52.4851 45.838C51.7794 45.1247 51.5073 44.986 50.4992 44.8374L50.3076 44.8077L50.5193 44.6096Z" fill="#FF007A"/>
<path fill-rule="evenodd" clip-rule="evenodd" d="M46.0872 30.1926C48.436 32.9964 51.1855 35.8316 51.367 36.0693C51.5182 36.2675 51.4577 36.4557 51.2057 36.5944C51.0646 36.6737 50.7722 36.7529 50.6311 36.7529C50.4698 36.7529 50.2782 36.6737 50.1472 36.5449C50.0565 36.4557 49.6633 35.891 48.7762 34.5337C48.1007 33.4935 47.5261 32.6316 47.516 32.6217C47.4757 32.6018 47.4757 32.6018 48.7056 34.7616C49.4818 36.1189 49.7339 36.6043 49.7339 36.6638C49.7339 36.7926 49.6935 36.8619 49.5322 37.0402C49.2601 37.3375 49.1391 37.6743 49.0484 38.3777C48.9475 39.1604 48.6754 39.7152 47.8991 40.6564C47.4455 41.2112 47.3749 41.3102 47.264 41.5381C47.1229 41.8155 47.0826 41.974 47.0624 42.3307C47.0422 42.7071 47.0826 42.9449 47.1935 43.3016C47.2943 43.6186 47.4052 43.8266 47.6773 44.2328C47.9092 44.5895 48.0503 44.857 48.0503 44.956C48.0503 45.0353 48.0705 45.0353 48.4334 44.956C49.3004 44.7579 50.0161 44.4211 50.4093 44.005C50.6512 43.7474 50.7117 43.6087 50.7117 43.252C50.7117 43.0242 50.7016 42.9746 50.6411 42.8359C50.5403 42.618 50.3488 42.4396 49.9355 42.1622C49.3911 41.7957 49.1592 41.4985 49.0988 41.1022C49.0484 40.7653 49.1088 40.5375 49.4113 39.9133C49.7238 39.2694 49.8044 39.0019 49.8548 38.348C49.8851 37.9319 49.9355 37.7635 50.0565 37.6347C50.1875 37.496 50.2984 37.4464 50.6109 37.4068C51.125 37.3375 51.4577 37.2087 51.7198 36.961C51.9517 36.7529 52.0525 36.5449 52.0626 36.2378L52.0726 36.0099L51.9416 35.8712C51.4678 35.3362 47.2744 31.4661 47.2441 31.4661C47.2341 31.4661 45.8956 29.9549 46.0872 30.1926ZM48.3124 42.7567C48.4233 42.5684 48.3629 42.3307 48.1814 42.2118C48.01 42.1028 47.7479 42.1523 47.7479 42.3009C47.7479 42.3406 47.7681 42.3802 47.8286 42.4C47.9193 42.4495 47.9294 42.4991 47.8588 42.6081C47.7882 42.717 47.7882 42.8161 47.879 42.8855C48.0201 42.9944 48.2116 42.935 48.3124 42.7567Z" fill="#FF007A"/>
<path fill-rule="evenodd" clip-rule="evenodd" d="M52.394 37.5455C52.1521 37.6148 51.9202 37.8724 51.8497 38.13C51.8093 38.2885 51.8295 38.5758 51.9001 38.665C52.0109 38.8037 52.1118 38.8433 52.394 38.8433C52.9485 38.8433 53.4223 38.6055 53.4727 38.3182C53.5231 38.0804 53.3114 37.7535 53.019 37.6049C52.8678 37.5256 52.5553 37.4959 52.394 37.5455ZM53.0392 38.0408C53.1199 37.9219 53.0896 37.7931 52.9384 37.704C52.6662 37.5356 52.2529 37.6743 52.2529 37.9318C52.2529 38.0606 52.4646 38.1993 52.6662 38.1993C52.7973 38.1993 52.9787 38.1201 53.0392 38.0408Z" fill="#FF007A"/>
</g>
<defs>
<linearGradient id="paint0_linear_5198_517" x1="118.851" y1="30.2637" x2="156.218" y2="16.8027" gradientUnits="userSpaceOnUse">
<stop stop-color="#36373D"/>
<stop offset="0.359375" stop-color="#101015"/>
<stop offset="1" stop-color="#0E0501"/>
</linearGradient>
<linearGradient id="paint1_linear_5198_517" x1="123.777" y1="25.6235" x2="152.917" y2="25.6235" gradientUnits="userSpaceOnUse">
<stop offset="0.442708" stop-color="white"/>
<stop offset="0.505208" stop-color="#8D9ACA"/>
<stop offset="1" stop-color="#FF784A"/>
</linearGradient>
<linearGradient id="paint2_linear_5198_517" x1="46.2171" y1="5.28576" x2="48.5224" y2="13.202" gradientUnits="userSpaceOnUse">
<stop stop-color="#03B8FF"/>
<stop offset="1" stop-color="#FA52A0"/>
</linearGradient>
<linearGradient id="paint3_linear_5198_517" x1="48.1156" y1="4.73283" x2="50.421" y2="12.6492" gradientUnits="userSpaceOnUse">
<stop stop-color="#03B8FF"/>
<stop offset="1" stop-color="#FA52A0"/>
</linearGradient>
<linearGradient id="paint4_linear_5198_517" x1="44.3244" y1="5.83694" x2="46.6298" y2="13.7533" gradientUnits="userSpaceOnUse">
<stop stop-color="#03B8FF"/>
<stop offset="1" stop-color="#FA52A0"/>
</linearGradient>
<clipPath id="clip0_5198_517">
<rect width="26" height="25" fill="white" transform="translate(4.32129)"/>
</clipPath>
<clipPath id="clip1_5198_517">
<rect width="25" height="25" fill="white" transform="translate(17.8438 18.0669)"/>
</clipPath>
<clipPath id="clip2_5198_517">
<rect width="25" height="25" fill="white" transform="translate(0 33.0083)"/>
</clipPath>
<clipPath id="clip3_5198_517">
<rect width="26" height="25" fill="white" transform="translate(34.7959)"/>
</clipPath>
<clipPath id="clip4_5198_517">
<rect width="26" height="25" fill="white" transform="translate(40.957 26.9927)"/>
</clipPath>
</defs>
</svg>
