<svg width="102" height="75" viewBox="0 0 102 75" fill="none" xmlns="http://www.w3.org/2000/svg">
<path d="M53.3615 21.6318C55.2487 22.1368 56.8703 23.652 54.6169 25.6357C52.3635 27.6195 50.1931 30.1542 52.9714 29.8782C55.1478 29.662 60.7157 27.7015 61.5457 26.0609C64.0229 23.2871 74.966 18.5362 79.9666 25.6357C84.6581 32.2964 90.2454 22.2506 95.9949 18.586C96.6753 18.3056 100.683 20.0094 97.8522 22.2506C95.0212 24.4919 84.5608 39.5536 81.3427 34.1114C84.9115 42.1923 89.7875 52.7298 84.0976 56.6822C80.6975 59.044 63.7663 60.7693 56.2078 55.6336C48.6492 50.4979 59.316 40.593 59.316 34.1114C50.1993 37.4276 46.3475 36.51 44.4783 34.4786C40.408 30.0551 48.9616 24.6924 53.3615 21.6318Z" fill="#BFD5EB" stroke="#193151"/>
<path d="M80.3251 43.79C78.656 41.2628 76.4694 40.1406 74.143 39.4746C73.0526 39.1377 71.9373 38.9846 70.821 39.0185H70.6615C69.5452 38.9846 68.4299 39.1377 67.3394 39.4746C65.0098 40.1224 62.8233 41.2628 61.1573 43.79C59.807 45.8428 59.4264 48.4019 60.2821 50.5414C60.8336 52.03 61.655 53.2887 62.6638 54.1907C64.56 55.7216 66.6679 56.6658 68.8459 56.9597C69.4473 57.0602 70.0527 57.1043 70.6583 57.092H70.8177C71.4232 57.1043 72.0287 57.0602 72.63 56.9597C74.8081 56.6658 76.916 55.7216 78.8121 54.1907C79.8209 53.2887 80.6424 52.03 81.1939 50.5414C82.0561 48.4019 81.6754 45.8428 80.3251 43.79Z" fill="#9AB6CC"/>
<path d="M71.1814 4.59008C72.0969 4.64867 73.0034 4.80494 73.8853 5.05621C74.3572 4.16979 74.7523 3.24497 75.0664 2.2918C75.1627 2.01355 75.3499 1.77538 75.5981 1.61528C75.8463 1.45518 76.1412 1.38237 76.4358 1.40844C76.7305 1.43451 77.0079 1.55798 77.2238 1.75915C77.4397 1.96032 77.5817 2.2276 77.6271 2.51839C77.7358 3.21966 77.7794 3.9294 77.7572 4.63862C83.0055 3.55423 86.9132 2.6414 86.7733 4.6192L86.7538 4.69043C85.5792 7.90477 83.2365 10.4749 80.3277 11.7438C80.042 11.8422 79.7987 12.0349 79.6383 12.2899C79.4778 12.5449 79.41 12.8468 79.4459 13.1455C79.4817 15.9519 79.4459 18.684 79.4459 21.4613C76.6988 20.2741 73.7357 19.6614 70.7405 19.6614C67.7454 19.6614 64.7823 20.2741 62.0352 21.4613C62.0352 18.684 62.0124 15.9584 62.0352 13.1455C62.0711 12.8468 62.0032 12.5449 61.8428 12.2899C61.6824 12.0349 61.4391 11.8422 61.1534 11.7438C58.2446 10.4749 55.9019 7.90477 54.7273 4.69043L54.7077 4.6192C54.5678 2.6414 58.4756 3.55423 63.7239 4.63862C63.7017 3.9294 63.7453 3.21966 63.854 2.51839C63.8994 2.2276 64.0414 1.96032 64.2573 1.75915C64.4732 1.55798 64.7506 1.43451 65.0452 1.40844C65.3399 1.38237 65.6348 1.45518 65.883 1.61528C66.1312 1.77538 66.3184 2.01355 66.4147 2.2918C66.7288 3.24497 67.1239 4.16979 67.5958 5.05621C68.4777 4.80494 69.3842 4.64867 70.2997 4.59008H71.1814Z" fill="#193151"/>
<path d="M70.835 5.54771C72.0282 5.59531 73.2084 5.81334 74.3392 6.19511C75.0316 5.06349 75.5864 3.8541 75.9921 2.59233C76.0128 2.51641 76.0605 2.45057 76.1263 2.40709C76.1922 2.3636 76.2717 2.34545 76.3501 2.35604C76.432 2.35577 76.5111 2.38631 76.5714 2.44152C76.6317 2.49674 76.6689 2.57255 76.6754 2.65383C76.8197 3.69684 76.835 4.7535 76.721 5.8002C77.3457 5.70633 77.5019 5.68368 78.3283 5.49917C83.5929 4.3468 85.3174 4.30147 85.7892 4.49893C84.6894 7.3928 82.5647 9.70079 79.9324 10.8435C79.4717 11.0177 79.0803 11.3359 78.8169 11.7503C78.5535 12.1647 78.4323 12.653 78.4715 13.1417C78.5008 15.4723 78.4715 17.7544 78.4715 20.0462C73.4852 18.2032 67.9993 18.2032 63.013 20.0462C63.013 17.7544 62.9967 15.4723 63.013 13.1417C63.0522 12.653 62.931 12.1647 62.6676 11.7503C62.4041 11.3359 62.0127 11.0177 61.552 10.8435C58.9295 9.70079 56.8048 7.3928 55.6953 4.49893C56.1671 4.30147 57.8916 4.3468 63.1561 5.49917C63.9826 5.68368 64.1323 5.70633 64.7635 5.8002C64.6495 4.7535 64.6648 3.69684 64.809 2.65383C64.8156 2.57255 64.8527 2.49674 64.9131 2.44152C64.9734 2.38631 65.0524 2.35577 65.1344 2.35604C65.2127 2.34545 65.2923 2.3636 65.3581 2.40709C65.424 2.45057 65.4717 2.51641 65.4923 2.59233C65.898 3.8541 66.4529 5.06349 67.1452 6.19511C68.2761 5.81334 69.4563 5.59531 70.6495 5.54771H70.835Z" fill="#BFD5EB"/>
<path d="M58.5049 6.017L62.572 6.95573C62.6156 6.96519 62.655 6.98831 62.6844 7.0217C62.7137 7.05509 62.7315 7.09699 62.7352 7.14121C62.7388 7.18544 62.7281 7.22964 62.7046 7.26734C62.6811 7.30505 62.646 7.33425 62.6046 7.35064C61.7944 7.67434 60.327 8.1599 59.6339 7.64198C58.6285 6.89747 58.3162 6.48312 58.2543 6.25653C58.2472 6.2227 58.2489 6.18765 58.2591 6.15463C58.2694 6.1216 58.2879 6.0917 58.3129 6.06775C58.338 6.04381 58.3687 6.02659 58.4023 6.01771C58.4359 6.00883 58.4712 6.00859 58.5049 6.017V6.017Z" fill="#193151"/>
<path d="M83.0015 6.017L78.9343 6.95573C78.8908 6.96519 78.8514 6.98831 78.822 7.0217C78.7927 7.05509 78.7748 7.09699 78.7712 7.14121C78.7676 7.18544 78.7783 7.22964 78.8018 7.26734C78.8253 7.30505 78.8604 7.33425 78.9018 7.35064C79.712 7.67434 81.1794 8.1599 81.8725 7.64198C82.8779 6.89747 83.1902 6.48312 83.2521 6.25653C83.2592 6.2227 83.2575 6.18765 83.2473 6.15463C83.237 6.1216 83.2185 6.0917 83.1935 6.06775C83.1684 6.04381 83.1377 6.02659 83.1041 6.01771C83.0705 6.00883 83.0352 6.00859 83.0015 6.017V6.017Z" fill="#193151"/>
<path d="M80.3407 22.1049C78.6716 20.3116 76.4851 19.5153 74.1586 19.0427C73.0682 18.8037 71.9529 18.695 70.8366 18.719H70.6771C69.5608 18.695 68.4455 18.8037 67.3551 19.0427C65.0254 19.5024 62.8389 20.3116 61.173 22.1049C59.8227 23.5616 59.442 25.3775 60.2977 26.8957C60.8492 27.9521 61.6707 28.8452 62.6795 29.4853C64.5756 30.5716 66.6835 31.2416 68.8616 31.4501C69.4629 31.5214 70.0684 31.5528 70.6739 31.544H70.8333C71.4389 31.5528 72.0443 31.5214 72.6457 31.4501C74.8237 31.2416 76.9316 30.5716 78.8278 29.4853C79.8366 28.8452 80.658 27.9521 81.2095 26.8957C82.0717 25.3775 81.691 23.5616 80.3407 22.1049Z" fill="#9AB6CC"/>
<path d="M79.4179 21.9015C77.918 20.542 75.956 19.9302 73.8638 19.5839C72.8662 19.3896 71.851 19.2985 70.8346 19.3119H70.6882C69.67 19.2937 68.6526 19.3805 67.6524 19.5709C65.5603 19.9173 63.5983 20.542 62.0983 21.8886C60.8846 22.9892 60.5463 24.3649 61.3109 25.514C61.8376 26.3464 62.5762 27.0254 63.4518 27.4821C65.1959 28.3158 67.0802 28.8207 69.0092 28.9711C69.5845 29.027 70.1623 29.0508 70.7402 29.0424H70.7825C71.3604 29.0508 71.9383 29.027 72.5135 28.9711C74.4425 28.8207 76.3268 28.3158 78.0709 27.4821C78.9465 27.0254 79.6851 26.3464 80.2119 25.514C80.97 24.3616 80.6316 22.9859 79.4179 21.9015Z" fill="#BFD5EB"/>
<path d="M66.5203 25.7304C65.5735 26.1901 64.6917 25.7304 64.5225 24.6881C64.3371 23.5713 65.85 20.917 66.1982 22.9239C66.5464 24.9309 68.0951 22.1244 68.1049 23.3804C68.0795 23.8781 67.9186 24.3597 67.6396 24.7736C67.3605 25.1875 66.9736 25.5182 66.5203 25.7304Z" fill="#193151"/>
<path d="M0.442934 12.2547C0.442934 28.7636 42.0886 18.8331 42.0886 18.8331L53.4512 23.0432C53.4512 23.0432 45.2863 21.0296 47.7875 12.2545C50.2886 3.47948 36.2606 0.259644 26.0613 0.259644C15.8621 0.259644 0.442934 -2.01462 0.442934 12.2547Z" fill="#193151"/>
<path d="M4.85071 14.0281C4.57871 14.0281 4.29471 13.9801 3.99871 13.8841C3.70271 13.7801 3.46271 13.6161 3.27871 13.3921L3.54271 13.0201C3.70271 13.1881 3.89071 13.3241 4.10671 13.4281C4.33071 13.5241 4.56671 13.5721 4.81471 13.5721C4.99871 13.5721 5.17071 13.5481 5.33071 13.5001C5.49871 13.4441 5.63471 13.3521 5.73871 13.2241C5.84271 13.0961 5.89471 12.9241 5.89471 12.7081C5.89471 12.4841 5.83071 12.3121 5.70271 12.1921C5.58271 12.0721 5.42671 11.9761 5.23471 11.9041C5.05071 11.8241 4.85471 11.7521 4.64671 11.6881C4.30271 11.5761 4.01871 11.4241 3.79471 11.2321C3.57871 11.0401 3.47071 10.7681 3.47071 10.4161C3.47071 10.1601 3.53071 9.93613 3.65071 9.74413C3.77871 9.55213 3.95071 9.40413 4.16671 9.30013C4.38271 9.18813 4.62671 9.13213 4.89871 9.13213C5.14671 9.13213 5.39071 9.17213 5.63071 9.25213C5.87871 9.33213 6.10271 9.46813 6.30271 9.66013L6.05071 10.0561C5.92271 9.88013 5.75071 9.76013 5.53471 9.69613C5.32671 9.63213 5.14271 9.59613 4.98271 9.58813C4.84671 9.58813 4.70271 9.61613 4.55071 9.67213C4.40671 9.72813 4.28271 9.81213 4.17871 9.92413C4.08271 10.0281 4.03471 10.1681 4.03471 10.3441C4.03471 10.5281 4.08671 10.6801 4.19071 10.8001C4.29471 10.9121 4.42671 11.0041 4.58671 11.0761C4.75471 11.1481 4.92671 11.2161 5.10271 11.2801C5.33471 11.3521 5.55071 11.4401 5.75071 11.5441C5.95871 11.6401 6.12671 11.7721 6.25471 11.9401C6.39071 12.1001 6.45871 12.3161 6.45871 12.5881C6.45871 12.8601 6.39871 13.1081 6.27871 13.3321C6.15871 13.5481 5.97871 13.7201 5.73871 13.8481C5.50671 13.9681 5.21071 14.0281 4.85071 14.0281ZM8.65668 9.24013L8.71668 10.5481L8.63268 10.4281C8.79268 10.0201 9.05668 9.70013 9.42468 9.46813C9.80068 9.22813 10.2087 9.10813 10.6487 9.10813C10.9127 9.10813 11.1487 9.16013 11.3567 9.26413C11.5727 9.36013 11.7447 9.49613 11.8727 9.67213C12.0087 9.84013 12.0887 10.0361 12.1127 10.2601L12.0407 10.3321C12.2087 9.93213 12.4727 9.62813 12.8327 9.42013C13.1927 9.21213 13.5807 9.10813 13.9967 9.10813C14.4447 9.10813 14.8007 9.24013 15.0647 9.50413C15.3287 9.76013 15.4647 10.0961 15.4727 10.5121V13.9321H14.9087V10.6321C14.9007 10.3521 14.8127 10.1161 14.6447 9.92413C14.4767 9.72413 14.2207 9.61613 13.8767 9.60013C13.5647 9.60013 13.2767 9.68013 13.0127 9.84013C12.7487 10.0001 12.5327 10.2121 12.3647 10.4761C12.2047 10.7401 12.1167 11.0361 12.1007 11.3641V13.9321H11.5367V10.6321C11.5287 10.3521 11.4367 10.1161 11.2607 9.92413C11.0927 9.72413 10.8367 9.61613 10.4927 9.60013C10.1727 9.60013 9.87668 9.68013 9.60468 9.84013C9.34068 10.0001 9.12868 10.2201 8.96868 10.5001C8.80868 10.7721 8.72868 11.0761 8.72868 11.4121V13.9321H8.16468V9.24013H8.65668ZM17.154 11.5561C17.154 11.1001 17.262 10.6841 17.478 10.3081C17.702 9.93213 18.002 9.63613 18.378 9.42013C18.762 9.19613 19.19 9.08413 19.662 9.08413C20.142 9.08413 20.57 9.19613 20.946 9.42013C21.322 9.63613 21.618 9.93213 21.834 10.3081C22.05 10.6841 22.158 11.1001 22.158 11.5561C22.158 12.0121 22.05 12.4281 21.834 12.8041C21.618 13.1801 21.318 13.4801 20.934 13.7041C20.558 13.9201 20.134 14.0281 19.662 14.0281C19.182 14.0281 18.754 13.9241 18.378 13.7161C18.002 13.5001 17.702 13.2081 17.478 12.8401C17.262 12.4641 17.154 12.0361 17.154 11.5561ZM17.718 11.5681C17.718 11.9361 17.802 12.2721 17.97 12.5761C18.146 12.8721 18.378 13.1081 18.666 13.2841C18.962 13.4601 19.29 13.5481 19.65 13.5481C20.01 13.5481 20.334 13.4601 20.622 13.2841C20.918 13.1081 21.15 12.8721 21.318 12.5761C21.494 12.2721 21.582 11.9361 21.582 11.5681C21.582 11.2001 21.494 10.8681 21.318 10.5721C21.15 10.2681 20.918 10.0281 20.622 9.85213C20.334 9.66813 20.01 9.57613 19.65 9.57613C19.282 9.57613 18.95 9.67213 18.654 9.86413C18.366 10.0481 18.138 10.2921 17.97 10.5961C17.802 10.9001 17.718 11.2241 17.718 11.5681ZM23.3766 11.5561C23.3766 11.1001 23.4846 10.6841 23.7006 10.3081C23.9246 9.93213 24.2246 9.63613 24.6006 9.42013C24.9846 9.19613 25.4126 9.08413 25.8846 9.08413C26.3646 9.08413 26.7926 9.19613 27.1686 9.42013C27.5446 9.63613 27.8406 9.93213 28.0566 10.3081C28.2726 10.6841 28.3806 11.1001 28.3806 11.5561C28.3806 12.0121 28.2726 12.4281 28.0566 12.8041C27.8406 13.1801 27.5406 13.4801 27.1566 13.7041C26.7806 13.9201 26.3566 14.0281 25.8846 14.0281C25.4046 14.0281 24.9766 13.9241 24.6006 13.7161C24.2246 13.5001 23.9246 13.2081 23.7006 12.8401C23.4846 12.4641 23.3766 12.0361 23.3766 11.5561ZM23.9406 11.5681C23.9406 11.9361 24.0246 12.2721 24.1926 12.5761C24.3686 12.8721 24.6006 13.1081 24.8886 13.2841C25.1846 13.4601 25.5126 13.5481 25.8726 13.5481C26.2326 13.5481 26.5566 13.4601 26.8446 13.2841C27.1406 13.1081 27.3726 12.8721 27.5406 12.5761C27.7166 12.2721 27.8046 11.9361 27.8046 11.5681C27.8046 11.2001 27.7166 10.8681 27.5406 10.5721C27.3726 10.2681 27.1406 10.0281 26.8446 9.85213C26.5566 9.66813 26.2326 9.57613 25.8726 9.57613C25.5046 9.57613 25.1726 9.67213 24.8766 9.86413C24.5886 10.0481 24.3606 10.2921 24.1926 10.5961C24.0246 10.9001 23.9406 11.2241 23.9406 11.5681ZM29.5993 11.5561C29.5993 11.1001 29.7073 10.6841 29.9233 10.3081C30.1473 9.93213 30.4473 9.63613 30.8233 9.42013C31.2073 9.19613 31.6353 9.08413 32.1073 9.08413C32.5873 9.08413 33.0153 9.19613 33.3913 9.42013C33.7673 9.63613 34.0633 9.93213 34.2793 10.3081C34.4953 10.6841 34.6033 11.1001 34.6033 11.5561C34.6033 12.0121 34.4953 12.4281 34.2793 12.8041C34.0633 13.1801 33.7633 13.4801 33.3793 13.7041C33.0033 13.9201 32.5793 14.0281 32.1073 14.0281C31.6273 14.0281 31.1993 13.9241 30.8233 13.7161C30.4473 13.5001 30.1473 13.2081 29.9233 12.8401C29.7073 12.4641 29.5993 12.0361 29.5993 11.5561ZM30.1633 11.5681C30.1633 11.9361 30.2473 12.2721 30.4153 12.5761C30.5913 12.8721 30.8233 13.1081 31.1113 13.2841C31.4073 13.4601 31.7353 13.5481 32.0953 13.5481C32.4553 13.5481 32.7793 13.4601 33.0673 13.2841C33.3633 13.1081 33.5953 12.8721 33.7633 12.5761C33.9393 12.2721 34.0273 11.9361 34.0273 11.5681C34.0273 11.2001 33.9393 10.8681 33.7633 10.5721C33.5953 10.2681 33.3633 10.0281 33.0673 9.85213C32.7793 9.66813 32.4553 9.57613 32.0953 9.57613C31.7273 9.57613 31.3953 9.67213 31.0993 9.86413C30.8113 10.0481 30.5833 10.2921 30.4153 10.5961C30.2473 10.9001 30.1633 11.2241 30.1633 11.5681ZM36.746 7.17613H37.322V9.30013H38.774V9.75613H37.322V13.9321H36.746V9.75613H35.75V9.30013H36.746V7.17613ZM40.1803 13.9321V4.81213H40.7323V10.4881L40.6963 10.2841C40.8563 9.95613 41.1123 9.68013 41.4643 9.45613C41.8243 9.22413 42.2363 9.10813 42.7003 9.10813C43.1403 9.10813 43.4963 9.24013 43.7683 9.50413C44.0403 9.76013 44.1803 10.0961 44.1883 10.5121V13.9321H43.6123V10.6681C43.6043 10.3641 43.5083 10.1121 43.3243 9.91213C43.1403 9.71213 42.8723 9.60813 42.5203 9.60013C42.2083 9.60013 41.9163 9.68013 41.6443 9.84013C41.3723 10.0001 41.1523 10.2161 40.9843 10.4881C40.8243 10.7601 40.7443 11.0681 40.7443 11.4121V13.9321H40.1803Z" fill="white"/>
<g filter="url(#filter0_f_5287_7967)">
<ellipse cx="70.221" cy="70.0998" rx="23.3411" ry="2.19587" fill="#193151"/>
</g>
<path d="M80.7325 21.7458C78.7444 19.6094 76.0861 18.8811 74.2608 18.5088H74.2185C73.2632 18.298 72.2881 18.1895 71.3096 18.1851V18.1851H70.2001C69.2217 18.1895 68.2465 18.298 67.2913 18.5088H67.249C65.4236 18.8681 62.7653 19.5965 60.7773 21.7458C59.2415 23.3967 58.8804 25.4716 59.8272 27.1548C60.4199 28.2981 61.3083 29.2636 62.4009 29.9516C64.2067 31.0328 66.2403 31.6802 68.7977 31.9877C69.3688 32.057 69.9437 32.0916 70.519 32.0913H70.9908C71.5661 32.0916 72.1409 32.057 72.712 31.9877C75.2694 31.6802 77.303 31.0328 79.1088 29.9516C80.2014 29.2636 81.0899 28.2981 81.6826 27.1548C82.6294 25.4619 82.2682 23.3967 80.7325 21.7458ZM80.752 26.6369C80.2479 27.6176 79.4911 28.4476 78.559 29.042C76.8865 30.0422 74.9799 30.6605 72.5818 30.9356C72.0021 31.0044 71.4184 31.0347 70.8346 31.0263H70.6752C70.0914 31.0347 69.5077 31.0044 68.9279 30.9356C66.5234 30.6443 64.6232 30.0422 62.9508 29.042C62.0187 28.4476 61.2619 27.6176 60.7578 26.6369C60.0322 25.3421 60.3315 23.7884 61.5614 22.4677C62.9313 20.9916 64.7501 20.0949 67.4572 19.5544H67.4963C68.5585 19.3182 69.6454 19.2095 70.7337 19.2307H70.776C71.8643 19.2095 72.9512 19.3182 74.0135 19.5544H74.0525C76.7597 20.0852 78.5785 20.9819 79.9483 22.4677C81.1782 23.7884 81.4776 25.3486 80.752 26.6369V26.6369Z" fill="#193151"/>
<path d="M74.9889 25.7304C75.9357 26.1901 76.8175 25.7304 76.9867 24.6881C77.1721 23.5713 75.6591 20.917 75.311 22.9239C74.9628 24.9309 73.4141 22.1244 73.4043 23.3804C73.4297 23.8781 73.5905 24.3597 73.8696 24.7736C74.1487 25.1875 74.5356 25.5182 74.9889 25.7304Z" fill="#193151"/>
<path d="M76.6243 18.1135C76.1792 18.1135 75.8929 18.0858 75.8929 18.0858C75.8929 18.0858 75.8127 18.0982 75.6739 18.0982C75.4936 18.0982 75.2143 18.0772 74.8836 17.9807C74.0179 17.7279 72.7991 16.9576 72.0766 14.6912C72.0766 14.6912 71.654 12.8123 70.9004 12.7808C70.1468 12.8123 69.721 14.6912 69.721 14.6912C68.9985 16.9576 67.7799 17.728 66.9145 17.9807C66.5838 18.0773 66.3048 18.0982 66.1245 18.0982C65.9858 18.0982 65.9056 18.0858 65.9056 18.0858C65.9056 18.0858 65.8085 18.0897 65.6386 18.0897C65.2817 18.0897 64.6032 18.0724 63.8274 17.9648C63.2493 17.8847 62.6171 17.7543 62.0237 17.5438C60.2551 16.9162 59.7369 14.8624 59.5942 13.7214C59.5018 12.9815 59.1348 12.5254 58.8882 12.2962C58.7389 12.1574 58.6562 11.9613 58.6562 11.7575V9.81334C59.1802 9.79508 59.6986 9.7867 60.21 9.7867C64.4673 9.7867 68.2014 10.3693 69.9362 10.6905C70.2558 10.7497 70.5792 10.7792 70.9027 10.7792C71.2257 10.7792 71.5489 10.7497 71.868 10.6907C73.6044 10.3695 77.3423 9.7867 81.6015 9.7867C82.1128 9.7867 82.6316 9.79508 83.1554 9.81334V11.7565C83.1554 11.9609 83.072 12.1574 82.9217 12.2958C82.6729 12.5249 82.3024 12.981 82.2099 13.7214C82.0672 14.8624 81.4891 16.7763 79.7767 17.5438C79.3183 17.7492 78.8222 17.883 78.3424 17.9688C77.6947 18.0848 77.0772 18.1135 76.6243 18.1135M78.7884 10.8657C77.2956 10.8657 74.6957 11.1487 74.6957 11.1487C71.9356 11.2587 72.5126 13.4977 72.5126 13.4977L73.3969 16.0677C73.8367 17.3085 75.2227 17.5763 76.3373 17.5763C77.1838 17.5763 77.8738 17.4218 77.8738 17.4218C81.4599 17.1044 81.4664 13.0555 81.4664 13.0555C81.5493 11.3145 80.5268 11.1487 79.6425 10.9276C79.4656 10.8834 79.1616 10.8657 78.7884 10.8657M63.0082 10.8657C62.635 10.8657 62.331 10.8834 62.1541 10.9276C61.2698 11.1487 60.2474 11.3145 60.3302 13.0555C60.3302 13.0555 60.3367 17.1044 63.9228 17.4218C63.9228 17.4218 64.6128 17.5763 65.4593 17.5763C66.5739 17.5763 67.9599 17.3085 68.3997 16.0677L69.284 13.4977C69.284 13.4977 69.861 11.2587 67.1009 11.1487C67.1009 11.1487 64.501 10.8657 63.0082 10.8657" fill="url(#paint0_radial_5287_7967)"/>
<path d="M65.459 17.5763C64.6125 17.5763 63.9225 17.4218 63.9225 17.4218C60.3364 17.1043 60.3299 13.0555 60.3299 13.0555C60.247 11.3145 61.2695 11.1486 62.1538 10.9276C62.3307 10.8834 62.6347 10.8657 63.0079 10.8657C64.5007 10.8657 67.1006 11.1486 67.1006 11.1486C69.8607 11.2587 69.2837 13.4977 69.2837 13.4977L68.3994 16.0677C67.9596 17.3085 66.5736 17.5763 65.459 17.5763M67.9238 15.0834C67.8565 15.0834 67.7887 15.0951 67.7257 15.1172C67.55 15.1789 67.4066 15.3086 67.2834 15.4481C66.9939 15.7759 66.7858 16.1753 66.459 16.4659C66.1913 16.7039 65.8501 16.8581 65.4946 16.9018C65.4195 16.9111 65.3388 16.9175 65.2799 16.965C65.1776 17.0476 65.178 17.2562 65.3033 17.2957C65.4686 17.3275 65.6366 17.3429 65.8043 17.3429C66.734 17.3429 67.663 16.87 68.1826 16.0947C68.2728 15.96 68.3528 15.8137 68.378 15.6536C68.4032 15.4934 68.3657 15.3165 68.249 15.2039C68.1631 15.121 68.0443 15.0834 67.9238 15.0834M62.1187 11.1811C62.1187 11.1811 60.4455 11.2872 60.5359 12.99C60.5617 13.475 60.6707 13.6532 60.8347 13.6533C61.2463 13.6534 62.005 12.5308 62.6661 12.3225C63.5904 12.0312 62.9754 11.2336 62.1187 11.1811Z" fill="url(#paint1_linear_5287_7967)"/>
<path d="M76.3358 17.5764C75.2212 17.5764 73.8352 17.3086 73.3954 16.0677L72.5111 13.4977C72.5111 13.4977 71.9341 11.2587 74.6943 11.1487C74.6943 11.1487 77.2942 10.8657 78.7869 10.8657C79.1601 10.8657 79.4641 10.8834 79.641 10.9276C80.5253 11.1487 81.5478 11.3145 81.4649 13.0555C81.4649 13.0555 81.4584 17.1044 77.8723 17.4219C77.8723 17.4219 77.1823 17.5764 76.3358 17.5764M80.5569 13.7746C80.4171 13.7746 80.276 13.8422 80.1752 13.9427C80.0434 14.0742 79.9701 14.2531 79.9192 14.4322C79.7996 14.8528 79.7844 15.3029 79.6151 15.7061C79.4765 16.0364 79.2354 16.3228 78.9336 16.5158C78.8698 16.5566 78.7998 16.5972 78.7672 16.6656C78.7133 16.7787 78.793 16.9549 78.9134 16.9549C78.9192 16.9549 78.9251 16.9545 78.9311 16.9537C79.9968 16.6741 80.8514 15.7173 81.0094 14.627C81.0326 14.4665 81.0416 14.3001 80.9952 14.1448C80.9487 13.9895 80.8385 13.846 80.6846 13.7949C80.643 13.7811 80.6 13.7746 80.5569 13.7746M74.0793 11.3798C74.0468 11.3798 74.0141 11.3808 73.981 11.3831C73.981 11.3831 72.3353 11.7027 72.6432 13.3799C72.726 13.8308 72.8473 14.0011 72.9974 14.0012C73.4056 14.0014 74.0272 12.7427 74.6702 12.4449C75.5157 12.0533 74.8899 11.3798 74.0793 11.3798Z" fill="url(#paint2_linear_5287_7967)"/>
<path d="M60.8355 13.6533C60.6715 13.6533 60.5625 13.4751 60.5367 12.99C60.4463 11.2872 62.1195 11.1812 62.1195 11.1812C62.9762 11.2337 63.5912 12.0313 62.6669 12.3226C62.0058 12.5308 61.2471 13.6535 60.8355 13.6533Z" fill="url(#paint3_linear_5287_7967)"/>
<path d="M65.8043 17.3429C65.6366 17.3429 65.4687 17.3275 65.3034 17.2957C65.178 17.2562 65.1777 17.0476 65.2799 16.965C65.3388 16.9175 65.4196 16.9111 65.4947 16.9018C65.8502 16.8581 66.1914 16.7039 66.4591 16.4659C66.7859 16.1752 66.9939 15.7759 67.2834 15.4481C67.4067 15.3086 67.5501 15.1789 67.7258 15.1172C67.7887 15.0951 67.8565 15.0834 67.9238 15.0834C68.0443 15.0834 68.1631 15.121 68.2491 15.2039C68.3657 15.3165 68.4032 15.4934 68.3781 15.6536C68.3529 15.8137 68.2729 15.96 68.1826 16.0947C67.663 16.87 66.734 17.3429 65.8043 17.3429" fill="url(#paint4_linear_5287_7967)"/>
<path d="M72.999 14.0011C72.8489 14.001 72.7276 13.8307 72.6448 13.3798C72.3369 11.7026 73.9826 11.383 73.9826 11.383C74.0157 11.3807 74.0484 11.3797 74.0809 11.3797C74.8916 11.3797 75.5173 12.0532 74.6718 12.4448C74.0288 12.7426 73.4072 14.0013 72.999 14.0011" fill="url(#paint5_linear_5287_7967)"/>
<path d="M78.9153 16.9548C78.7949 16.9548 78.7152 16.7786 78.7691 16.6655C78.8017 16.5971 78.8718 16.5565 78.9355 16.5157C79.2373 16.3228 79.4785 16.0363 79.6171 15.706C79.7863 15.3028 79.8015 14.8527 79.9211 14.4321C79.972 14.253 80.0453 14.0741 80.1771 13.9426C80.2779 13.8421 80.419 13.7745 80.5589 13.7745C80.602 13.7745 80.645 13.781 80.6866 13.7948C80.8404 13.8459 80.9506 13.9894 80.9971 14.1447C81.0436 14.3 81.0346 14.4665 81.0113 14.6269C80.8534 15.7172 79.9988 16.674 78.9331 16.9536C78.9271 16.9544 78.9211 16.9548 78.9153 16.9548" fill="url(#paint6_linear_5287_7967)"/>
<path d="M45.5007 51.689C44.0015 45.5115 49.5858 44.8648 54.712 45.8249C54.0955 47.685 54.2188 49.9967 56.29 52.4014C58.7628 55.2723 64.6677 56.0928 69.1285 56.6253L73.8941 55.7161L75.9015 60.6421L70.576 61.7255C54.4852 61.1775 46.9999 57.8666 45.5007 51.689Z" fill="#BFD5EB" stroke="#193151"/>
<path d="M94.3614 50.9766C95.8605 44.7991 90.8937 44.292 85.7676 45.2521C86.384 47.1123 85.337 49.5899 83.2658 51.9945C80.793 54.8654 75.8207 56.0927 71.3599 56.6253L66.5943 55.716V58.322L65.0266 59.9733L69.9124 61.7254C86.0032 61.1774 92.8622 57.1542 94.3614 50.9766Z" fill="#BFD5EB" stroke="#193151"/>
<path d="M66.0944 55.1413C67.4804 55.4455 69.773 55.8948 71.301 56.4387L70.5379 60.1741L69.8071 62.1826L64.125 60.1741L66.0944 58.1637V55.1413Z" fill="#193151"/>
<path d="M74.6133 55.8326C72.7252 56.0671 70.6514 56.125 70.1382 55.9582L71.6516 55.1801L72.7252 54.7638L74.3446 54.5828L74.6133 55.8326Z" fill="#193151"/>
<path d="M57.2084 23.8418C56.4312 24.3403 54.8483 25.3653 54.7357 25.4779L53.1261 23.8846L52.6838 22.0078L55.6059 20.1455L55.789 22.4166L57.2084 23.8418Z" fill="#193151" stroke="#193151"/>
<path d="M97.0957 17.5215C96.4335 18.1349 95.0755 19.3814 94.9413 19.4603L96.0559 21.3784L97.7247 22.2606L100.203 19.952L98.0977 19.218L97.0957 17.5215Z" fill="#193151" stroke="#193151"/>
<defs>
<filter id="filter0_f_5287_7967" x="44.8799" y="65.9039" width="50.6826" height="8.39172" filterUnits="userSpaceOnUse" color-interpolation-filters="sRGB">
<feFlood flood-opacity="0" result="BackgroundImageFix"/>
<feBlend mode="normal" in="SourceGraphic" in2="BackgroundImageFix" result="shape"/>
<feGaussianBlur stdDeviation="1" result="effect1_foregroundBlur_5287_7967"/>
</filter>
<radialGradient id="paint0_radial_5287_7967" cx="0" cy="0" r="1" gradientUnits="userSpaceOnUse" gradientTransform="translate(70.9058 13.9501) scale(12.3012)">
<stop stop-color="#464648"/>
<stop offset="0.536272" stop-color="#2E2D2D"/>
<stop offset="0.990474" stop-color="#1B1919"/>
<stop offset="1" stop-color="#1B1919"/>
</radialGradient>
<linearGradient id="paint1_linear_5287_7967" x1="64.6463" y1="17.6352" x2="64.9094" y2="10.8824" gradientUnits="userSpaceOnUse">
<stop stop-color="#EFEE0E"/>
<stop offset="0.517399" stop-color="#7FCC2A"/>
<stop offset="1" stop-color="#3AAE9B"/>
</linearGradient>
<linearGradient id="paint2_linear_5287_7967" x1="76.9344" y1="17.55" x2="76.9782" y2="11.0164" gradientUnits="userSpaceOnUse">
<stop stop-color="#EFEE0E"/>
<stop offset="0.517399" stop-color="#7FCC2A"/>
<stop offset="1" stop-color="#3AAE9B"/>
</linearGradient>
<linearGradient id="paint3_linear_5287_7967" x1="64.6471" y1="17.6353" x2="64.9102" y2="10.8825" gradientUnits="userSpaceOnUse">
<stop stop-color="#F5F460"/>
<stop offset="0.517399" stop-color="#BFE587"/>
<stop offset="1" stop-color="#82D4C5"/>
</linearGradient>
<linearGradient id="paint4_linear_5287_7967" x1="64.6463" y1="17.6352" x2="64.9094" y2="10.8824" gradientUnits="userSpaceOnUse">
<stop stop-color="#F5F460"/>
<stop offset="0.517399" stop-color="#BFE587"/>
<stop offset="1" stop-color="#82D4C5"/>
</linearGradient>
<linearGradient id="paint5_linear_5287_7967" x1="76.936" y1="17.5499" x2="76.9799" y2="11.0163" gradientUnits="userSpaceOnUse">
<stop stop-color="#F5F460"/>
<stop offset="0.517399" stop-color="#BFE587"/>
<stop offset="1" stop-color="#82D4C5"/>
</linearGradient>
<linearGradient id="paint6_linear_5287_7967" x1="76.9363" y1="17.5499" x2="76.9802" y2="11.0163" gradientUnits="userSpaceOnUse">
<stop stop-color="#F5F460"/>
<stop offset="0.517399" stop-color="#BFE587"/>
<stop offset="1" stop-color="#82D4C5"/>
</linearGradient>
</defs>
</svg>
