<svg xmlns="http://www.w3.org/2000/svg" fill="none" viewBox="0 0 122 77"><path fill="#23191a" d="m31.77 76.595-18.246-.016 2.035-17.633 19.972.016z"/><path fill="#2c2f6f" d="M48.414 61.95c-.798 3.691-4.043 6.33-7.78 6.326h-.055l-.013 2.077a1.857 1.857 0 0 1-1.853 1.839 1.79 1.79 0 0 1-1.797-1.809l.014-2.11-2.517-.002-.011 1.831a1.857 1.857 0 0 1-1.853 1.84 1.793 1.793 0 0 1-1.796-1.81l.012-1.865h-.304c-3.738-.002-6.948-2.646-7.7-6.338l-.654-3.22 27.003.022z"/><path fill="#494c8c" d="m91.995 16.396 13.777 13.973-.152 23.881-7.3.362 2.048 22.046-17.515-.015-3.537-17.638-3.649-.003 1.347 17.636-18.245-.015-2.806-17.638-33.572-.028L18.63 76.59.385 76.574l6.952-60.25z"/><path fill="#23191a" fill-rule="evenodd" d="M102.825 62.694a5.41 5.41 0 0 0 5.141-3.755l3.71-11.505 2.237.002a5.41 5.41 0 0 0 5.141-3.755l2.204-6.837-8.106-.007 4.317-6.463-40.507-.034 4.234 6.47-8.105-.006 2.117 6.84a5.33 5.33 0 0 0 5.093 3.764l2.236.001L86.1 58.921a5.33 5.33 0 0 0 5.094 3.764zm2.865-18.409c-.012 1.736-1.311 3.143-2.905 3.141-1.592-.001-2.875-1.41-2.864-3.145s1.312-3.143 2.905-3.142c1.592.002 2.875 1.41 2.864 3.146m-17.126-.014c-.011 1.736 1.27 3.145 2.864 3.146s2.893-1.405 2.904-3.141-1.271-3.145-2.864-3.146-2.893 1.405-2.904 3.141" clip-rule="evenodd"/><path fill="#23191a" d="M46.12.923 14.303 5.86c-3.455.536-6.137 3.344-6.542 6.85l-.417 3.61 27.092.023c6.4.006 11.62-5.228 11.662-11.69z"/></svg>