<svg xmlns="http://www.w3.org/2000/svg" fill="none" viewBox="0 0 128 128">
  <path
    fill="#f7931a"
    d="M126.085 79.482c-8.549 34.286-43.279 55.152-77.573 46.602-34.28-8.548-55.147-43.276-46.595-77.56 8.545-34.29 43.275-55.157 77.558-46.609 34.292 8.548 55.159 43.28 46.609 77.568z"
  />
  <path
    fill="#fff"
    d="M92.224 54.882c1.274-8.517-5.21-13.096-14.078-16.15l2.876-11.537L74 25.445l-2.8 11.234c-1.847-.46-3.743-.895-5.628-1.325l2.82-11.307-7.019-1.75-2.878 11.533a231 231 0 0 1-4.485-1.054l.008-.036-9.686-2.419-1.868 7.501s5.21 1.195 5.101 1.268c2.844.71 3.359 2.592 3.273 4.085L47.56 56.318c.196.05.45.122.73.234q-.352-.089-.742-.183L42.955 74.78c-.348.864-1.23 2.16-3.218 1.668.07.102-5.105-1.274-5.105-1.274l-3.488 8.04 9.14 2.278c1.701.426 3.367.872 5.008 1.291l-2.906 11.67 7.015 1.75 2.879-11.546c1.916.52 3.776 1 5.597 1.453l-2.868 11.491 7.024 1.75 2.906-11.648c11.977 2.267 20.983 1.353 24.773-9.479 3.055-8.72-.152-13.751-6.453-17.031 4.59-1.059 8.046-4.077 8.968-10.312zm-16.047 22.5c-2.17 8.72-16.856 4.007-21.617 2.824l3.857-15.46c4.76 1.189 20.028 3.54 17.76 12.636m2.172-22.627c-1.98 7.933-14.203 3.903-18.168 2.914l3.497-14.02c3.965.987 16.734 2.832 14.672 11.106z"
  />
</svg>
