<svg xmlns="http://www.w3.org/2000/svg" fill="none" viewBox="0 0 128 128">
  <path fill="#1a1a1a" d="M128 64c0 35.346-28.654 64-64 64S0 99.346 0 64 28.654 0 64 0s64 28.654 64 64" />
  <path
    fill="url(#a)"
    d="M101.494 83.04 88.986 96.11c-.272.284-.6.51-.966.665-.366.154-.76.234-1.159.234H27.568c-.283 0-.56-.08-.796-.232a1.43 1.43 0 0 1-.536-.619 1.38 1.38 0 0 1 .27-1.529L39.023 81.56c.272-.283.6-.509.964-.663a3 3 0 0 1 1.155-.236h59.29c.283 0 .56.08.796.232.237.151.423.366.536.619s.147.532.099.804a1.4 1.4 0 0 1-.369.725M88.986 56.727c-.272-.284-.6-.51-.966-.665a3 3 0 0 0-1.159-.234H27.568c-.283 0-.56.08-.796.231a1.43 1.43 0 0 0-.536.62 1.38 1.38 0 0 0 .27 1.528l12.517 13.068c.272.284.6.51.964.664a3 3 0 0 0 1.155.235h59.29c.283 0 .56-.08.796-.231.237-.151.423-.367.536-.62a1.4 1.4 0 0 0 .099-.803 1.4 1.4 0 0 0-.369-.725zm-61.418-9.387H86.86c.399 0 .793-.08 1.159-.234.365-.155.694-.381.966-.665l12.508-13.068c.193-.202.321-.454.369-.725a1.4 1.4 0 0 0-.099-.804 1.43 1.43 0 0 0-.536-.62 1.5 1.5 0 0 0-.796-.231h-59.29c-.398 0-.79.08-1.155.235-.364.155-.692.381-.964.664L26.51 44.96a1.382 1.382 0 0 0-.27 1.528c.112.252.298.468.534.619s.512.232.795.233"
  />
  <defs>
    <linearGradient id="a" x1="32.512" x2="92.877" y1="98.581" y2="28.729" gradientUnits="userSpaceOnUse">
      <stop offset=".08" stop-color="#9945ff" />
      <stop offset=".3" stop-color="#8752f3" />
      <stop offset=".5" stop-color="#5497d5" />
      <stop offset=".6" stop-color="#43b4ca" />
      <stop offset=".72" stop-color="#28e0b9" />
      <stop offset=".97" stop-color="#19fb9b" />
    </linearGradient>
  </defs>
</svg>
