<svg fill="none" height="64" viewBox="0 0 43 64" width="43" xmlns="http://www.w3.org/2000/svg"><path d="m40.5524 63.0392c-.6244-.0013-1.2228-.2515-1.6643-.6958-.4416-.4442-.6902-1.0465-.6915-1.6747v-6.9057c0-.6287-.2483-1.2317-.69-1.6762-.4418-.4446-1.0411-.6944-1.6659-.6944s-1.224.2498-1.6657.6944c-.4419.4445-.69 1.0475-.69 1.6762v3.2781c0 .6288-.2482 1.2318-.6901 1.6763-.4417.4446-1.0409.6944-1.6657.6944s-1.2241-.2498-1.6659-.6944c-.4417-.4445-.69-1.0475-.69-1.6763v-3.2781c0-.6287-.2482-1.2317-.6899-1.6762-.4419-.4446-1.0411-.6944-1.6659-.6944s-1.224.2498-1.6659.6944c-.4417.4445-.6899 1.0475-.6899 1.6762v.8921c0 .6292-.2484 1.2326-.6905 1.6776-.4422.4449-1.0419.6948-1.6671.6948-.6253 0-1.2249-.2499-1.667-.6948-.4422-.445-.6905-1.0484-.6905-1.6776v-.8921c0-.6287-.2483-1.2317-.6902-1.6762-.4417-.4446-1.0409-.6944-1.6657-.6944s-1.224.2498-1.6658.6944c-.4418.4445-.69 1.0475-.69 1.6762v3.2781c0 .6288-.2482 1.2318-.69 1.6763-.4418.4446-1.041.6944-1.6658.6944s-1.224-.2498-1.6659-.6944c-.4418-.4445-.68995-1.0475-.68995-1.6763v-3.2781c0-.6287-.24821-1.2317-.69-1.6762-.44181-.4446-1.04101-.6944-1.66581-.6944-.62481 0-1.22402.2498-1.66581.6944-.4418.4445-.69001 1.0475-.69001 1.6762v6.9057c0 .6286-.2482 1.2317-.69 1.6762-.44179.4445-1.04101.6943-1.66581.6943s-1.22401-.2498-1.66581-.6943-.69-1.0476-.69-1.6762v-39.141c.113691-4.8576 1.86836-9.5313 4.9749-13.25101 3.10655-3.71975 7.3796-6.26368 12.1153-7.21263 4.7355-.948949 9.6511-.246325 13.9368 1.99212 4.2856 2.23843 7.6857 5.87914 9.64 10.32222 1.132 2.5695 1.7464 5.3393 1.8077 8.1493.004.029-.0004.0588-.0126.0856-.0122.0267-.0318.0494-.0565.0653v38.9885c-.0006.6282-.2485 1.2307-.6896 1.6753s-1.0393.6953-1.6636.6968zm-21.232-35.2913c-.5982 0-.8409.2328-.8409.8085 0 1.3992 1.5363 2.537 3.4277 2.537 1.8913 0 3.4225-1.1378 3.4225-2.537 0-.5746-.2428-.8076-.8393-.8076-.3192.0114-.6373.044-.9521.0975l-.0297.0051c-.5294.0874-1.0645.1365-1.6009.1468-.5378-.0103-1.0742-.0593-1.605-.1468-.3247-.0572-.653-.0917-.9823-.1035zm10.2549-11.5186c-2.0854 0-3.7806 1.9538-3.7806 4.3563s1.6952 4.3526 3.7806 4.3526 3.7745-1.9527 3.7745-4.3526c0-2.4-1.6927-4.3563-3.7745-4.3563zm-15.6738 0c-2.0803 0-3.7744 1.9538-3.7744 4.3563s1.6941 4.3526 3.7744 4.3526 3.7755-1.9527 3.7755-4.3526c0-2.4-1.6936-4.3563-3.7755-4.3563z" fill="#fff"/></svg>