<svg fill="none" height="64" viewBox="0 0 223 64" width="223" xmlns="http://www.w3.org/2000/svg"><g fill="#fff"><path d="m40.0524 63.0392c-.6244-.0013-1.2228-.2515-1.6643-.6958-.4416-.4442-.6902-1.0465-.6915-1.6747v-6.9057c0-.6287-.2483-1.2317-.69-1.6762-.4418-.4446-1.0411-.6944-1.6659-.6944s-1.224.2498-1.6657.6944c-.4419.4445-.69 1.0475-.69 1.6762v3.2781c0 .6288-.2482 1.2318-.6901 1.6763-.4417.4446-1.0409.6944-1.6657.6944s-1.2241-.2498-1.6659-.6944c-.4417-.4445-.69-1.0475-.69-1.6763v-3.2781c0-.6287-.2482-1.2317-.6899-1.6762-.4419-.4446-1.0411-.6944-1.6659-.6944s-1.224.2498-1.6659.6944c-.4417.4445-.6899 1.0475-.6899 1.6762v.8921c0 .6292-.2484 1.2326-.6905 1.6776-.4422.4449-1.0419.6948-1.6671.6948-.6253 0-1.2249-.2499-1.667-.6948-.4422-.445-.6905-1.0484-.6905-1.6776v-.8921c0-.6287-.2483-1.2317-.6902-1.6762-.4417-.4446-1.0409-.6944-1.6657-.6944s-1.224.2498-1.6658.6944c-.4418.4445-.69 1.0475-.69 1.6762v3.2781c0 .6288-.2482 1.2318-.69 1.6763-.4418.4446-1.041.6944-1.6658.6944s-1.224-.2498-1.6659-.6944c-.44176-.4445-.68995-1.0475-.68995-1.6763v-3.2781c0-.6287-.24821-1.2317-.69-1.6762-.44181-.4446-1.04101-.6944-1.66581-.6944-.62481 0-1.22402.2498-1.66581.6944-.4418.4445-.69001 1.0475-.69001 1.6762v6.9057c0 .6286-.2482 1.2317-.69 1.6762-.44179.4445-1.04101.6943-1.66581.6943s-1.22401-.2498-1.665808-.6943c-.441802-.4445-.690002-1.0476-.690002-1.6762v-39.141c.113691-4.8576 1.86836-9.5313 4.9749-13.25101 3.10655-3.71975 7.3796-6.26368 12.1153-7.21263 4.7355-.94895 9.6511-.246326 13.9368 1.99212 4.2856 2.23843 7.6857 5.87914 9.64 10.32222 1.132 2.5695 1.7464 5.3393 1.8077 8.1493.004.029-.0004.0588-.0126.0856-.0122.0267-.0318.0494-.0565.0653v38.9885c-.0006.6282-.2485 1.2307-.6896 1.6753s-1.0393.6953-1.6636.6968zm-21.232-35.2913c-.5982 0-.8409.2328-.8409.8085 0 1.3992 1.5363 2.537 3.4277 2.537 1.8913 0 3.4225-1.1378 3.4225-2.537 0-.5746-.2428-.8076-.8393-.8076-.3192.0114-.6373.044-.9521.0975l-.0297.0051c-.5294.0874-1.0645.1365-1.6009.1468-.5378-.0103-1.0742-.0593-1.605-.1468-.3247-.0572-.653-.0917-.9823-.1035zm10.2549-11.5186c-2.0854 0-3.7806 1.9538-3.7806 4.3563s1.6952 4.3526 3.7806 4.3526 3.7745-1.9527 3.7745-4.3526c0-2.4-1.6927-4.3563-3.7745-4.3563zm-15.6738 0c-2.0803 0-3.77442 1.9538-3.77442 4.3563s1.69412 4.3526 3.77442 4.3526 3.7755-1.9527 3.7755-4.3526c0-2.4-1.6936-4.3563-3.7755-4.3563z"/><path d="m162.969 50.8876-15.173-37.0409c-.119-.3377-.182-.6929-.187-1.0513-.028-.7579.24-1.4968.746-2.0586.26-.2681.574-.4772.921-.6131.348-.13592.72-.19557 1.091-.17496.564.00739 1.111.19076 1.567.52486.477.3571.85.8367 1.08 1.3887l14.428 36.2528 14.428-36.2528c.23-.552.604-1.0316 1.081-1.3887.455-.3341 1.003-.51747 1.566-.52486.372-.02061.744.03904 1.091.17496.347.1359.662.345.922.6131.507.563.775 1.3038.745 2.0633-.004.3584-.067.7136-.186 1.0513l-15.174 37.041c-.259.8146-.765 1.5273-1.447 2.0385s-1.505.7953-2.355.8128h-1.343c-.85-.0181-1.673-.3032-2.355-.8152-.681-.5121-1.187-1.2256-1.446-2.0409z"/><path d="m193.727 52.6132c-.258-.261-.46-.5718-.595-.9137-.134-.342-.199-.7079-.188-1.0754v-37.5233c-.014-.753.267-1.4812.783-2.027.252-.2712.558-.485.899-.6272s.708-.2094 1.077-.1972h24.649c.349-.0098.695.0555 1.017.1914.321.1359.61.3393.847.5967.253.2408.453.5319.588.8549.135.3229.201.6705.195 1.0208.01.3454-.055.6888-.19 1.0064-.136.3176-.338.6018-.593.833-.246.2422-.538.4332-.858.5619-.319.1288-.661.1928-1.006.1884h-21.816v13.6611h19.611c.349-.0098.695.0555 1.017.1915.321.1359.61.3392.847.5966.25.2429.448.5345.583.857.134.3223.202.6689.2 1.0187.01.3453-.055.6886-.191 1.0062-.135.3176-.337.602-.592.8332-.247.2421-.538.4331-.858.5618s-.662.1927-1.006.1885h-19.611v13.7335h21.816c.349-.0098.695.0553 1.017.1913.321.1359.61.3394.847.5968.253.2407.453.5318.588.8548.135.3229.201.6707.195 1.0209.01.3453-.055.6886-.19 1.0062-.136.3176-.338.602-.593.8332-.246.2421-.538.4332-.858.5618-.319.1288-.661.1927-1.006.1885h-24.649c-.367.0271-.736-.03-1.078-.1671-.343-.137-.65-.3505-.898-.6242z"/><path d="m151.224 49.8369-15.173-37.0409c-.261-.8138-.767-1.5254-1.449-2.0357s-1.505-.79375-2.354-.81092h-1.342c-.85.0175-1.674.30172-2.355.81282-.682.5112-1.188 1.2239-1.448 2.0385l-6.598 16.1357h-4.997c-.72.0041-1.41.2941-1.92.8069-.51.5129-.798 1.2073-.802 1.9325v.0379c.004.7252.292 1.4197.802 1.9326.51.5127 1.2.8027 1.92.8068h2.685l-6.301 15.3854c-.119.3378-.182.6929-.186 1.0513-.03.7595.238 1.5003.745 2.0633.26.2681.575.4773.922.6131.347.1359.719.1956 1.091.175.563-.0074 1.11-.1907 1.566-.5249.477-.357.85-.8366 1.081-1.3886l6.935-17.373h4.772c.721-.0041 1.411-.2941 1.92-.8069.51-.5129.798-1.2073.802-1.9325v-.0773c-.004-.7252-.292-1.4197-.802-1.9326-.509-.5127-1.199-.8027-1.92-.8068h-2.572l5.325-13.3206 14.428 36.2528c.23.552.604 1.0317 1.081 1.3887.456.3341 1.003.5174 1.566.5248.372.0207.744-.039 1.091-.1749s.662-.345.922-.6132c.507-.563.775-1.3038.745-2.0632.017-.361-.044-.7214-.18-1.0561z"/><path d="m105.89 49.8369-15.1734-37.0409c-.2606-.8138-.7671-1.5254-1.4488-2.0357s-1.5046-.79375-2.354-.81092h-1.3422c-.85.0175-1.6734.30172-2.3551.81282-.6818.5112-1.1879 1.2239-1.4477 2.0385l-6.5985 16.1357h-4.9962c-.7206.0041-1.4106.2941-1.9202.8069-.5096.5129-.7977 1.2073-.8019 1.9325v.0379c.0042.7252.2923 1.4197.8019 1.9326.5096.5127 1.1996.8027 1.9202.8068h2.6845l-6.3009 15.3838c-.1192.3378-.1821.6929-.1863 1.0514-.0296.7594.2381 1.5002.7455 2.0632.2602.2681.5744.4773.9216.6132.3471.1358.7191.1956 1.091.1749.5635-.0074 1.1108-.1907 1.5662-.5249.4773-.357.8506-.8366 1.0807-1.3886l6.9352-17.373h4.8098c.7206-.0041 1.4107-.2941 1.9203-.8068.5095-.5129.7977-1.2074.8018-1.9326v-.0757c-.0041-.7252-.2923-1.4197-.8018-1.9326-.5096-.5127-1.1997-.8027-1.9203-.8068h-2.5733l5.2938-13.3206 14.4281 36.2528c.23.552.603 1.0317 1.081 1.3887.455.3341 1.002.5174 1.566.5248.372.0207.744-.039 1.091-.1749s.661-.345.921-.6132c.508-.563.775-1.3038.746-2.0632.015-.3614-.048-.7218-.185-1.0561z"/></g></svg>