<svg fill="none" height="96" viewBox="0 0 96 96" width="96" xmlns="http://www.w3.org/2000/svg"><path clip-rule="evenodd" d="m48 22c-14.3594 0-26 11.6406-26 26s11.6406 26 26 26 26-11.6406 26-26-11.6406-26-26-26zm-24.8473 26c0-13.5304 10.8147-24.5348 24.2716-24.8408v4.4858l-17.1069 13.5471c-.0455.0361-.0848.0784-.117.1252-.0622.0903-.0994.1991-.1014.3165l-.0001.0102zm0 0 10.1006 8.5062c-.0132.0178-.0255.0365-.0368.0562l-2.9559 5.1257c-.1028.1783-.1027.398.0003.5762.1029.1782.2932.288.499.288h9.4314c.0701 0 .1372-.0125.1994-.0354l7.0336 5.9233v4.4006c-13.4569-.306-24.2716-11.3104-24.2716-24.8408zm8.6049 13.3997 2.3883-4.1418 4.9181 4.1418zm8.7651.1047c.0178.0126.0348.0261.0511.0405l6.8505 5.425v-4.9779c-.0002-.0052-.0002-.0104-.0002-.0156 0-.0053 0-.0105.0002-.0156v-6.3348l-16.3808-13.2782-6.6456 5.6924zm8.0542-.1044v-6.0533c0-.1896-.0915-.3578-.2328-.4628l-8.7974-6.9581 8.454-14.6621 16.2411 28.1363h-8.3991c-.0117-.0003-.0234-.0003-.035 0zm0 1.1527v4.4181l5.5897-4.4181zm7.4486 0-7.4486 5.8873v4.4008c13.4564-.3066 24.2704-11.3108 24.2704-24.8408s-10.814-24.5342-24.2704-24.8408v4.4864l17.1061 13.5465c.1382.1094.2187.2759.2186.4521l-.0002.0138v12.7833c0 .1757-.0802.3418-.2177.4511l-2.651 2.1072 2.7064 4.6886c.1029.1784.1029.398 0 .5763-.103.1784-.2932.2882-.4991.2882zm6.4246-6.5624 2.2986-1.8271v-11.3291l-6.7936 5.369zm-5.0774-8.7961-8.8732-15.3719c-.1029-.1784-.2933-.2883-.4992-.2883-.206.0001-.3963.1101-.4992.2885l-8.8682 15.3805-7.029-5.5594 16.3963-12.9844 16.3961 12.9843z" fill="#fff" fill-rule="evenodd"/></svg>