<svg fill="none" height="96" viewBox="0 0 96 96" width="96" xmlns="http://www.w3.org/2000/svg"><g fill="#fff"><path clip-rule="evenodd" d="m42.6965 24.6606-2.378-2.52c4.1113-.5291 14.9595.1493 25.461 7.0957.1366.9593.1072 1.9157.1072 1.9157l.7739.4184.0045.0066.0015-.0098.0156.0095c.4341.7445.8729 1.8545 1.1532 3.1606.3392 1.5803.4358 3.3996.0404 5.1394-.3984 1.7529-1.1546 3.1997-1.8951 4.2579-.5471.7819-1.0688 1.3286-1.4116 1.6278-1.3415.0284-3.8386.9271-4.5525 4.0428-2.1514 1.2297-5.5287 2.4587-9.9896 2.4587-4.2614 0-8.6082-1.2326-11.8759-3.6196-3.2544-2.3775-5.4401-5.8967-5.4401-10.5299 0-3.6856 1.6537-6.5646 3.751-8.6819 2.1043-2.1242 4.9807-3.8453 6.649-4.4166zm18.4278 6.0457c-.8268.9001-1.5998 1.3319-1.8205 1.449-4.8279-1.0733-6.5672-3.6836-6.5672-3.6836 4.5539-.0294 8.664 1.1026 11.6711 3.0176 0 0-1.6277-.5514-3.2834-.783z" fill-rule="evenodd"/><path d="m40.2513 25.3574c-10.3512 2.0822-18.2513 11.3919-18.2513 22.6496 0 14.2328 12.0305 25.993 26.8708 25.993 11.0816 0 20.306-6.7756 25.1292-15.8409-6.4145 1.5213-14.0731-1.1835-14.1221-7.0958-2.3089 1.1869-5.6338 2.2406-9.8505 2.2406-4.4443 0-9.0155-1.2821-12.4894-3.8198-3.4871-2.5474-5.8666-6.3629-5.8666-11.3697 0-4.0263 1.8145-7.1548 4.0523-9.4138 1.2946-1.2947 3.0696-2.5234 4.5276-3.3432z"/><path d="m68.8525 34.5191c-.1403-.6536-.3197-1.2716-.5236-1.8333 2.7828 2.0794 4.9499 4.9172 4.7693 8.8715-.26 5.6951-3.7002 7.9359-5.9027 8.3094 1.0572-1.774.1762-2.8943-.1762-3.2678-.1714-.1817-.5255-.4877-1.1332-.6786.3006-.3295.6249-.729.9471-1.1894.8023-1.1466 1.6233-2.7158 2.057-4.6237.4366-1.921.3251-3.8976-.0377-5.5881z"/></g></svg>