<svg fill="none" height="96" viewBox="0 0 96 96" width="96" xmlns="http://www.w3.org/2000/svg"><g fill="#fff"><path d="m68.4687 45.4978c-.5173-.1117-1.0563-.2194-1.6159-.3226-.1597-1.2992-.439-2.5591-.8262-3.7669 7.2715 1.1813 11.9734 3.0594 11.9734 5.1745 0 .0237-.0006.0472-.0017.0708-.1734 3.5428-13.5377 6.4031-29.9983 6.4031-16.5686 0-30-2.898-30-6.4729 0-.0219.0005-.0441.0015-.066.0963-2.1131 4.8858-3.984 12.2273-5.1505-.3896 1.2064-.6714 2.4646-.8339 3.7626-.6485.117-1.2702.2397-1.8636.3679-.7774.1676-1.4888.3409-2.1342.5166v.0009c-.6884.1876-1.3016.3781-1.8397.568 1.0424.368 2.3672.7381 3.9739 1.0848.5443.1174 1.1125.2304 1.7033.3385v.001c4.9646.9092 11.5165 1.4778 18.7654 1.4778 7.3675 0 14.0151-.5873 19.0081-1.5227v-.001c.5041-.0944.9913-.1924 1.4606-.2936 1.6074-.3469 2.9325-.7172 3.9752-1.0853-1.0427-.368-2.3678-.7383-3.9752-1.085z"/><path d="m70.6019 35.4181c.0007-.0167.001-.0336.001-.0505 0-1.9087-5.022-3.5618-12.3462-4.3676 1.7432 1.166 3.2917 2.6241 4.5836 4.3085.0948.0195.1889.0392.2821.0591-.0678.0144-.1358.0287-.2045.0429l.0007.0008c-3.7317.7745-8.939 1.2765-14.7815 1.2765-5.8567 0-11.0751-.5045-14.8087-1.2822l.0007-.0008c-.0595-.0123-.1183-.0247-.177-.0372.0808-.0173.1623-.0344.2445-.0513 1.2913-1.6856 2.84-3.1449 4.583-4.3122-7.3035.8073-12.308 2.4581-12.308 4.3635 0 2.3842 10.8765 4.2799 18.2075 4.8038 1.6403.1172 4.2088.1255 4.2088.1255.9066.0397 2.5579-.007 4.1916-.1207 7.3708-.5131 18.2141-2.3872 18.3224-4.7581z"/><path d="m25.6716 60.1083c0-1.2469 2.1437-2.3848 5.6726-3.2488.5632 1.1398 1.2284 2.2148 1.9832 3.2119-.0588.0123-.1171.0246-.1753.0369.08.0171.1607.0341.2421.0508.0053.0069.0107.0138.0159.0208h.0805c3.7219.7586 8.8743 1.2488 14.6465 1.2488 5.7725 0 10.9249-.4902 14.6468-1.2488h.0487c.0033-.0042.0066-.0087.0099-.0129.0942-.0194.1875-.039.2799-.0587-.0671-.0142-.1348-.0285-.2028-.0426.7546-.9974 1.4196-2.073 1.9823-3.2131 3.5459.8647 5.701 2.0055 5.701 3.2557 0 .024-.0008.0478-.0023.0716-.1733 2.6684-10.1642 4.8201-22.4635 4.8201-12.2992 0-22.2899-2.1517-22.4633-4.8201-.0016-.0238-.0022-.0476-.0022-.0716z"/></g></svg>