<svg fill="none" height="96" viewBox="0 0 96 96" width="96" xmlns="http://www.w3.org/2000/svg"><g fill="#fff"><path d="m74 60.3163c0-3.3159-5.5663-6.197-13.7498-7.6607v.0021c-3.5555.8925-7.7543 1.407-12.2503 1.407-4.4958 0-8.6948-.5145-12.2503-1.4091-8.1813 1.4637-13.7496 4.3448-13.7496 7.6607 0 4.7965 11.6415 8.6837 25.9999 8.6837 14.3586 0 26.0001-3.885 26.0001-8.6837z"/><path d="m68.8563 44.8038c0-2.7321-4.7885-5.0905-11.7389-6.2118-2.6716.6552-5.7873 1.0332-9.1175 1.0332-3.3301 0-6.4458-.3759-9.1173-1.0332-6.9506 1.1213-11.739 3.4818-11.739 6.2118 0 3.8114 9.3384 6.9026 20.8563 6.9026 11.518 0 20.8564-3.0912 20.8564-6.9026z"/><path d="m63.7147 32.2269c0-2.8875-6.9941-5.2269-15.6194-5.2269-8.6255 0-15.6195 2.3394-15.6195 5.2269 0 2.8854 6.994 5.2248 15.6195 5.2248 8.6253 0 15.6194-2.3394 15.6194-5.2248z"/></g></svg>