<svg fill="none" height="34" viewBox="0 0 64 34" width="64" xmlns="http://www.w3.org/2000/svg"><path clip-rule="evenodd" d="m21.644.15-3.625.342001-3.179.539999-2.904.759-2.458.89-1.973 1.004-1.632 1.16-1.097 1.239-.721 2.111h.002l-.556 4.289-1.288 5.312-2.1640002 5.651-.0489998 1.585.429001 1.282 1.013999 1.33 1.41 1.278 2.032 1.171 2.429.98 2.83.904 3.283.776 3.62.644 3.95.366 4.185.107 4.248.058 4.343-.279 4.338-.571 4.243-.714 4.014-1.03 3.917-1.201 3.426-1.376 3.09-1.638 2.556-1.738 2.098-1.996 1.411-1.989.89-2.177.089-.819h-.008l.163-1.493-.456-2.17-1.076-2.116-1.605-2.03-2.13-1.968-2.697-1.75-3.119-1.66-3.452-1.374-3.78-1.2-3.87-1.053-4.189-.683-4.096-.56-4.18-.2800003-4.006-.0629997zm22.748 16.9 4.187-.414.089.341-4.27.09zm-1.033-.563.03.041-.595.06zm5.845.088 4.248-.42.13.717-4.276.09zm-6.417-.631.018.015-.224.04zm11.282.15 4.168-.409.223 1.087-4.253.09zm-10.04.273 4.036-.719.234.396-4.206.416zm-2.082-.982.16.102-1.576.423zm16.91.237 4.173-.41.298 1.458-4.238.09zm-18.076-.77.38.166-3.033 1.126zm7.932.682 4.046-.722.438.75-4.221.418zm-5.207.216 3.74-1.01.35.362-4.008.713zm-6.617.21 2.552-1.618.552.205-2.975 1.45zm16.519-1.264 4.035-.719.559 1.108-4.128.41zm-17.762.95 2.214-1.793.812.245-2.585 1.638zm7.025-.53 3.403-1.263.566.415-3.728 1.003zm5.257-.556 3.78-1.016.62.718-3.999.712zm-13.627.833 1.824-1.939.975.218-2.242 1.815zm23.776-1.53 3.979-.709.736 1.458-4.132.41zm-25.343 1.32 1.459-2.06 1.207.204-1.84 1.953zm-17.84-1.744 1.85-.33.393 2.155-1.77.303zm26.615 1.058 3.094-1.507.794.455-3.403 1.264zm-10.545.5 1.095-2.168 1.445.195-1.473 2.081zm-13.604-1.974 1.919-.204.284 2.24-1.81.129zm2.536-.26 1.942-.16.09 2.268-1.747.143zm9.207 2.106.754-2.273 1.542.16-1.103 2.184zm-6.646-2.305 1.905-.088-.133 2.35-1.682.016zm4.578 2.229.422-2.32 1.764.079-.76 2.284zm-2.055-2.333h1.85l-.424 2.32-1.557.032zm27.386.905 3.811-1.024.868 1.08-4.013.716zm-5.603.228 3.464-1.286.919.747-3.739 1.007zm-6.672.334 2.716-1.722 1.06.454-3.106 1.517zm-1.656-.546 2.336-1.891 1.302.447-2.713 1.725zm-28.808-1.453 1.589-.519.485 2.14-1.628.507zm47.21.237 3.707-.997 1.127 1.43-3.925.699zm-11.561.498 3.09-1.508 1.214.734-3.432 1.275zm-8.657.273 1.924-2.043 1.507.398-2.337 1.886zm-24.803-1.697 1.85-.469.49 2.194-1.85.429zm39.092.82 3.516-1.307 1.24 1.092-3.773 1.014zm-16.316.505 1.542-2.18 1.707.352-1.929 2.047zm-20.325-1.93 1.961-.37.408 2.237-1.877.334zm29.177 1.172 2.725-1.728 1.507.728-3.071 1.497zm-11.09.443 1.15-2.28 1.95.303-1.548 2.183zm-15.514-2.082 2.069-.278.294 2.32-1.953.205zm13.22 1.83.766-2.3 2.024.193-1.148 2.274zm-22.78-1.773 1.238-.575.396 1.894-1.316.603zm12.244-.404 2.198-.189.093 2.353-1.996.162zm8.046 2.04.422-2.313 2.192.107-.759 2.287zm-5.229-2.266 2.19-.08-.133 2.341-1.965.09zm2.678 2.252.133-2.338 2.214.026-.421 2.312zm24.011-1.011 3.164-1.542 1.606 1.033-3.478 1.292zm6.051-.327 3.422-1.271 1.539 1.428-3.663.985zm-13.736.528 2.33-1.889 1.781.652-2.711 1.719zm-32.244-1.638 1.52-.624.461 2.034-1.576.516zm29.925.984 1.93-2.058 2.011.6-2.326 1.883zm-33.437-1.626.713-.625.298 1.787-.865.67zm5.618-.192 1.844-.546.48 2.15-1.854.47zm35.577 1.126 2.756-1.748 1.98.994-3.134 1.527zm-10.263.147 1.537-2.17 2.209.492-1.931 2.047zm16.324-.86 3.033-1.477 2.012 1.302-3.365 1.25zm-39.192-1.117 2.055-.469.411 2.27-1.987.374zm20.15 1.533 1.145-2.268 2.443.42-1.534 2.167zm-26.943-1.707 1.112-.67.421 2.017-1.215.564zm9.455-.416 2.219-.361.3 2.37-2.1.282zm27.922 1.426 2.34-1.895 2.262.856-2.723 1.726zm-13.21.405.781-2.348 2.488.283-1.149 2.265zm-11.883-2.269 2.46-.192.093 2.375-2.251.193zm8.958 2.107.44-2.41 2.628.17-.783 2.352zm-5.88-2.333 2.476-.087-.137 2.377-2.25.082zm2.963 2.283.137-2.382h2.595l-.438 2.407zm-16.65-2.184 1.467-.651.48 2.108-1.508.62zm41.612.848 2.672-1.695 2.398 1.273-3 1.462zm-8.717.268 1.912-2.03 2.531.781-2.325 1.882zm-36.04-1.53.509-.56.28 1.678-.655.575zm5.193-.47 1.84-.602.488 2.19-1.845.546zm27.857 1.297 1.508-2.13 2.705.629-1.899 2.016zm-25.42-2.072 2.158-.546.414 2.276-2.08.473zm34.112 1.3 2.302-1.863 2.7 1.079-2.65 1.679zm-40.691-1.16 1-.705.394 1.887-1.087.656zm28.791 1.358 1.132-2.24 2.923.55-1.508 2.128zm-19.447-2.163 2.38-.354.287 2.267-2.251.366zm16.219 1.774.76-2.282 2.953.34-1.128 2.234zm-13.224-2.197 2.708-.235.091 2.305-2.512.195zm9.872 1.957.429-2.35 3.05.244-.758 2.283zm-6.545-2.238 2.76-.137-.134 2.362-2.535.089zm3.247 2.213.137-2.367 2.968.018-.428 2.35zm-17.358-1.762 1.408-.716.458 2.025-1.457.647zm35.816 1.16 1.881-2 3.041.965-2.286 1.851zm-33.832-2.134 1.836-.663.473 2.123-1.842.603zm30.353 1.29 1.558-2.2 3.133.853-1.88 2zm-27.925-2.14 2.261-.588.398 2.178-2.182.546zm24.246 1.427 1.103-2.184 3.47.567-1.549 2.184zm-21.378-2.145 2.525-.426.285 2.257-2.412.36zm17.686 1.685.759-2.280001 3.39.461001-1.096 2.173zm-14.547-2.195 2.958-.28.091 2.305-2.762.24zm10.777 1.878.41-2.256 3.486.233-.756 2.276zm-7.2-2.203001 3.039-.123998-.13 2.288999-2.818.141zm3.53 2.153001.13-2.285001 3.326.053002-.411 2.251999zm37.827 14.38-.166 1.495-4.153-.233.086-1.174zm-4.854.1-.082 1.127-4.232-.238.05-.798zm-4.881.104-.049.75-4.205-.236.006-.425zm-4.866.1-.005.38-4.266-.24.002-.05zm-9.8.168.061-.12.018-.073-.093-.104-.226-.245-.3-.16-.625-.19-.822-.243-.885-.257-1.182-.247-1.255-.212-1.492-.17-1.686-.17-1.79-.105-2.001-.064-2.139.043-.006-.309v.308l-2.261.021-2.33.192-.025-.308.022.308-2.398.17-2.35.402-.197.042.129.042 2.132.574 2.155.574 2.153.425 2.167.34 2.015.236 2.004.148 1.817.128h4.551l1.286-.137.945-.112.93-.168.693-.137.632-.151.215-.149zm-24.19-2.073-.94.2-.833-.274-.204-.084-.347-1.536 1.85-.428zm-2.923-1.525.245 1.078-1.048-.43-.492-.245zm-7.158-5.889.203-.582.069.85-.23.318zm.4 1.87-.247-.382.195-.269zm1.637.469-.841.654.45.576.689.555zm2.5 3.293-1.48-.944-.03-.174 1.339-.614.384 1.838zm16.34 19.359.391-2.264h3.199l-.019 2.313zm-4.107-.101.73-2.294 3.142.117-.391 2.265zm8.316-2.184 3.228-.197.396 2.278-3.642.235zm-12.2 1.851 1.045-2.312 2.934.302-.735 2.31zm16.047-2.1 3.205-.342.822 2.138-3.631.478zm-19.629 1.5 1.263-2.251 2.725.45-1.05 2.323zm23.464-1.93 3.077-.483 1.27 2.022-3.525.593zm-26.705 1.189 1.428-2.188 2.44.546-1.264 2.252zm30.428-1.81 2.903-.693 1.683 1.872-3.31.851zm-33.24.945 1.523-2.128 2.09.63-1.432 2.193zm18.531-2.603 2.707.049-.018 2.31h-3.097zm18.269.77 2.613-.835 2.202 1.762-3.122.955zm-14.941-.726 2.711-.115.387 2.221-3.116.19zm-7.417 2.194.76-2.388 2.704.132-.41 2.372zm10.749-2.357 2.634-.276.833 2.163-3.083.33zm-27.589 1.792 1.599-2.115 1.72.698-1.528 2.137zm13.347.231 1.077-2.381 2.545.273-.764 2.403zm17.507-2.388 2.467-.389 1.318 2.098-2.946.462zm-20.817 1.867 1.287-2.296 2.458.351-1.078 2.385zm32.455-1.694 2.286-.865 2.6 1.575-2.664 1.069zm-44.508.894 1.584-2.063 1.457.765-1.6 2.12zm35.984-1.58 2.364-.491 1.736 1.931-2.78.663zm-26.969 1.725 1.49-2.281 2.196.512-1.292 2.305zm30.007-2.396 2.056-.596 2.171 1.737-2.487.795zm-32.704 1.614 1.606-2.244 1.953.574-1.497 2.293zm41.143-1.438 1.977-1 3.002 1.348-2.347 1.246zm-48.874.887 1.456-1.953 1.02.745-1.562 2.033zm24.465-.01.39-2.252 2.235.016-.018 2.28zm3.244-2.246 2.19-.09.394 2.265-2.604.11zm-6.484 2.098.725-2.28 2.28.152-.39 2.256zm-15.812-.19 1.619-2.144 1.69.595-1.604 2.238zm25.107-2.037 2.07-.16.83 2.157-2.51.264zm12.658.484 1.755-.653 2.604 1.577-2.176.823zm-25.059 1.434 1.032-2.284 2.168.25-.731 2.297zm15.106-2.154 1.872-.273 1.294 2.06-2.335.368zm-34.224 1.415 1.302-1.882.685.73-1.41 1.89zm16.074.32 1.293-2.307 2.145.35-1.04 2.3zm20.686-2.116 1.828-.3 1.697 1.887-2.237.465zm15.708.713 1.507-1.038 3.412 1.136-1.867 1.274zm-48.088.918 1.609-2.095 1.458.72-1.615 2.138zm42.225-1.494 1.476-.715 3.04 1.364-1.874.95zm-33.334 1.365 1.46-2.235 1.993.418-1.302 2.32zm25.987-1.98 1.42-.427 2.22 1.774-1.925.559zm-39.732 1.04 1.035-1.701.338.55-1.185 1.711zm11.189.217 1.562-2.184 1.823.513-1.46 2.235zm-7.893-.223 1.527-2.047 1.096.714-1.595 2.083zm38.566-1.684 1.27-.41 2.598 1.575-1.644.614zm7.347.165 1.16-.719 3.345 1.115-1.433.986zm5.788.171 1.233-1.132 3.75.85-1.508 1.439zm-54.965-.078.642-1.273.04.341-.69 1.136zm8.862.864 1.623-2.149 1.615.552-1.564 2.184zm17.541.137.406-2.349h1.746l-.018 2.364zm2.772-2.349h1.665l.394 2.265-2.076.088zm14.63.392.97-.435 3.015 1.356-1.37.664zm-12.34-.41 1.504-.068.834 2.164-1.947.152zm-7.88 2.198.75-2.357 1.85.148-.407 2.355zm10.027-2.32 1.296-.131 1.275 2.028-1.74.255zm-31.506 1.75 1.36-1.962.83.71-1.492 2zm18.752.274 1.048-2.32 1.796.195-.754 2.364zm14.718-2.252 1.221-.195 1.743 1.939-1.694.278zm15.323.44.867-.782 3.7.839-1.17 1.075zm-32.765 1.386 1.273-2.27 1.864.29-1.05 2.32zm-11.317-.204 1.587-2.07 1.485.643-1.622 2.147zm38.636-1.675.736-.427 3.39 1.13-1.078.667zm-7.948-.288.858-.188 2.176 1.745-1.29.389zm1.62-.371.761-.186 2.519 1.525-1.148.368zm-23.583 2.013 1.448-2.216 1.775.35-1.275 2.274zm41.099-1.17.789-1.055 3.974.555-.96 1.362zm-55.276.722 1.141-1.88.511.606-1.29 1.863zm45.405-1.788.502-.425 3.757.851-.803.726zm-6.167-.245.421-.182 2.993 1.345-.858.384zm-35.441 1.78 1.483-1.988 1.197.658-1.576 2.047zm7.94.05 1.559-2.179 1.687.459-1.451 2.224zm39.124-1.52.559-.703 3.945.55-.75 1.004zm-10.477-.842.289-.145 3.366 1.119-.647.376zm-40.599 1.148.781-1.55.191.526-.913 1.509zm9.73.477 1.593-2.108 1.562.477-1.557 2.175zm36.87-1.8.29-.35 4.035.564-.517.65zm-5.08-.414.105-.08 3.744.849-.434.368zm-38.85 1.807 1.329-1.92.972.692-1.455 1.951zm25.359.242.017-2.224h1.147l.386 2.224zm1.793-2.224h.933l.827 2.147-1.377.065zm1.598 0h.722l1.248 1.987-1.16.118zm-5.254-.109 1.26.089-.017 2.244h-1.645zm6.673.057.65-.069 1.668 1.855-1.087.173zm4.248-.088 2.027.91-.305.132zm3.458-.01.292.069-.028.021zm-2.022-.022 1.539.513-.189.095zm18.063 1.14.508-1.16 4.111.23-.605 1.492zm-22.343-1.176.237-.028 2.109 1.687-.714.157zm-10.867 2.267.738-2.32 1.432.105-.409 2.357zm11.922-2.436.163-.03 2.526 1.53-.624.152zm6.857-.044.003-.004 4.012.56-.246.298zm9.783.74.316-.784 4.18.235-.485 1.11zm-30.912 1.497 1.042-2.305 1.418.165-.74 2.326zm-13.381-.295 1.583-2.062 1.487.598-1.59 2.105zm39.585-1.858.198-.398 4.175.235-.296.733zm-28.654 1.792 1.279-2.28 1.576.246-1.047 2.314zm-16.881-.564 1.148-1.89.678.665-1.29 1.86zm40.828-1.885.01-.016 4.221.237-.172.345zm-26.323 1.999 1.47-2.252 1.542.304-1.283 2.289zm-10.33-.419 1.47-1.972 1.301.592-1.568 2.043zm8.023-.176 1.591-2.223 1.546.41-1.477 2.262zm-12.728-.807.836-1.658.41.576-1.027 1.69zm3.186-.048 1.302-1.885 1.129.654-1.443 1.935zm7.366.204 1.621-2.147 1.508.41-1.583 2.209zm-10.161-2.584.06.159-.52 1.033zm8.061 1.78 1.564-2.038 1.529.502-1.61 2.13zm-6.44-.493 1.121-1.846.853.704-1.27 1.833zm4.543-.35 1.484-1.99 1.377.566-1.55 2.019zm-5.405-.792.88-1.743.63.619-1.064 1.75zm3.695-.16 1.345-1.941 1.27.63-1.47 1.974zm-4.12-.853.635-1.644.233.405-.763 1.513zm2.73-.229 1.128-1.851 1.07.682-1.316 1.896zm-2.486-2.143v.01l-.016.04zm1.353 1.061.91-1.808.842.68-1.085 1.784zm-.68-1.067.678-1.754.444.569-.84 1.666zm-.39-1.155.381-1.57.249.386-.552 1.433z" fill="#fff" fill-rule="evenodd"/></svg>