<svg fill="none" height="96" viewBox="0 0 96 96" width="96" xmlns="http://www.w3.org/2000/svg"><g fill="#fff"><path d="m37.3492 50.281 11.4967-6.6151v-1.8713l-11.4967 6.6163z"/><path d="m37.3492 46.5395 11.4967-6.6164v-1.8709l-11.4967 6.616z"/><path d="m37.3492 42.7971 11.4967-6.616v-1.8713l-11.4967 6.6163z"/><path d="m48.8459 30.5675-11.4967 6.616v1.871l11.4967-6.6164z"/><path d="m37.3492 54.0237 11.4967-6.6164v-1.8704l-11.4967 6.6158z"/><path d="m48.846 56.7642c-2.1868 1.2579-4.3743 2.5161-6.5609 3.7752v1.8719l6.5609-3.7767z"/><path d="m42.2851 66.1531 6.5609-3.7752v-1.8713l-6.5609 3.7749z"/><path d="m42.2851 69.8942 6.5609-3.7758v-1.8704l-6.5609 3.7758z"/><path d="m63.6545 27.1488c-2.5107-1.8692-5.3709-3.2955-8.4607-4.1677-2.2601-.6408-4.6435-.9811-7.1056-.9811-14.3848 0-26.0882 11.6638-26.0882 26.0003 0 9.1849 4.8048 17.2731 12.0405 21.8985v-3.0895l-.0021-.0006v-12.6834l8.071 4.6432c2.2453-1.2924 4.4907-2.5842 6.7363-3.8763v-1.8713l-6.5608 3.7762-.1789.1022-1.6259-.935 8.3656-4.8143v-1.871l-9.9917 5.7499-5.6276-3.2387-7.2725 4.1841c-.906-2.4907-1.4024-5.175-1.4024-7.974 0-12.9358 10.5576-23.4576 23.5367-23.4576 1.6737 0 3.3069.1754 4.8804.5084 1.4263.3003 2.8045.7299 4.1235 1.2765.2092.0863.418.1779.6272.2722.3377.1501.669.3076.9982.4779.2219.1095.4436.2264.6601.3464.3396.1849.6746.3787 1.001.5795 4.998 3.0611 8.7667 7.931 10.3791 13.688l-7.9167-4.5568-10.2772 5.9148-.4085.234v27.7981c-1.1867.2252-2.0667.3192-3.3096.3579v-3.4486l-5.2313 2.9979-1.3295-.3302v2.6919c1.8668.4245 3.8087.6494 5.803.6494 5.829 0 11.2171-1.9146 15.5648-5.1467v-3.2738l-.0012.0009v-26.1114l7.5321 4.0124c-.0462-.0205.0431.0268 0 0l2.8164 1.5002c-.8491-7.2826-4.7271-13.6572-10.3455-17.8328z"/></g></svg>