<svg xmlns="http://www.w3.org/2000/svg" fill="none" viewBox="0 0 53 52"><g fill="#fff" clip-path="url(#a)"><path d="M26.5 0A25.919 25.919 0 0 0 8.115 7.614c-10.153 10.155-10.153 26.617 0 36.77A25.914 25.914 0 0 0 26.5 52V40.56c-8.041 0-14.56-6.518-14.56-14.56 0-4.02 1.63-7.66 4.264-10.296L26.5 26.001V0Zm0 52a25.92 25.92 0 0 0 18.385-7.614c10.153-10.155 10.154-26.617 0-36.77A25.92 25.92 0 0 0 26.5 0v11.44c8.041 0 14.56 6.518 14.56 14.56 0 4.02-1.63 7.661-4.264 10.296L26.5 26v26Z"/></g><defs><clipPath id="a"><path fill="#fff" d="M0 0h53v52H0z"/></clipPath></defs></svg>