<svg fill="none" height="96" viewBox="0 0 96 96" width="96" xmlns="http://www.w3.org/2000/svg" xmlns:xlink="http://www.w3.org/1999/xlink"><linearGradient id="a" gradientUnits="userSpaceOnUse" x1="48.0891" x2="48.0891" y1="22.0012" y2="74.0024"><stop offset="0" stop-color="#fff"/><stop offset="1" stop-color="#8295b2"/></linearGradient><linearGradient id="b" gradientUnits="userSpaceOnUse" x1="74.089" x2="74.089" y1="22.0012" y2="74.0024"><stop offset="0" stop-color="#8295b2"/><stop offset="1" stop-color="#fff"/></linearGradient><path d="m48.0002 22c-6.6541 0-13.308 2.5377-18.3849 7.6143-10.1536 10.1544-10.1538 26.617-.0002 36.7702 5.0767 5.0778 11.7307 7.6155 18.3847 7.6155l.0002-11.4398c-8.0413 0-14.56-6.5185-14.56-14.5596 0-4.0212 1.6296-7.6608 4.2645-10.2963l10.2955 10.2963z" fill="url(#a)"/><path d="m48 74c6.6539 0 13.3079-2.5377 18.3848-7.6143 10.1536-10.1544 10.1537-26.617.0002-36.7702-5.0767-5.0766-11.7306-7.6155-18.3846-7.6155l-.0003 11.4398c8.0412 0 14.56 6.5185 14.56 14.5608 0 4.0199-1.6297 7.6608-4.2645 10.2951l-10.2955-10.2951z" fill="url(#b)"/></svg>