<svg fill="none" height="52" viewBox="0 0 53 52" width="53" xmlns="http://www.w3.org/2000/svg" xmlns:xlink="http://www.w3.org/1999/xlink"><clipPath id="a"><path d="m0 0h53v52h-53z"/></clipPath><g clip-path="url(#a)" fill="#fff"><path d="m37.4657 2.4187c-3.332-1.552001-7.0476-2.4187-10.9657-2.4187-14.3594 0-26 11.6406-26 26 0 8.325 3.9126 15.7361 9.9993 20.4948l11.8922-11.8922-4.4941-4.4941-7.3533 7.3533c-2.3213-3.2259-3.6885-7.1841-3.6885-11.4618 0-10.8493 8.7951-19.6444 19.6444-19.6444 2.1193 0 4.1601.3355 6.0724.9565z"/><path d="m22.4393 17.4452-4.4941-4.494-4.494 4.494 4.494 4.4941z"/><path d="m26.5 30.4941 4.4941-4.4941-4.4941-4.4941-4.4941 4.4941z"/><path d="m30.6094 17.3976 4.4941 4.494 7.3533-7.3532c2.3213 3.2259 3.6885 7.1841 3.6885 11.4618 0 10.8493-8.7951 19.6444-19.6444 19.6444-2.1193 0-4.1601-.3355-6.0724-.9565l-4.8933 4.8934c3.332 1.552 7.0476 2.4187 10.9657 2.4187 14.3594 0 26-11.6406 26-26 0-8.325-3.9126-15.7361-9.9993-20.49483z"/><path d="m30.5605 34.5546 4.4941 4.4941 4.494-4.4941-4.494-4.4941z"/></g></svg>