<svg fill="none" height="96" viewBox="0 0 96 96" width="96" xmlns="http://www.w3.org/2000/svg"><g fill="#fff"><path d="m58.9657 24.4187c-3.332-1.552-7.0476-2.4187-10.9657-2.4187-14.3594 0-26 11.6406-26 26 0 8.325 3.9126 15.7361 9.9993 20.4948l11.8922-11.8922-4.4941-4.4941-7.3533 7.3533c-2.3213-3.2259-3.6885-7.1841-3.6885-11.4618 0-10.8493 8.7951-19.6444 19.6444-19.6444 2.1193 0 4.1601.3355 6.0724.9565z"/><path d="m43.9393 39.4452-4.4941-4.494-4.494 4.494 4.494 4.4941z"/><path d="m48 52.4941 4.4941-4.4941-4.4941-4.4941-4.4941 4.4941z"/><path d="m52.1085 39.3974 4.4941 4.494 7.3533-7.3532c2.3213 3.2259 3.6885 7.1841 3.6885 11.4618 0 10.8493-8.7951 19.6444-19.6444 19.6444-2.1193 0-4.1601-.3355-6.0724-.9565l-4.8933 4.8934c3.332 1.552 7.0476 2.4187 10.9657 2.4187 14.3594 0 26-11.6406 26-26 0-8.325-3.9126-15.7361-9.9993-20.4948z"/><path d="m52.0607 56.5548 4.4941 4.4941 4.494-4.4941-4.494-4.4941z"/></g></svg>