<svg fill="none" height="87" viewBox="0 0 78 87" width="78" xmlns="http://www.w3.org/2000/svg" xmlns:xlink="http://www.w3.org/1999/xlink"><linearGradient id="a"><stop offset=".58" stop-color="#a0a8d4"/><stop offset=".73" stop-color="#8791c7"/><stop offset=".91" stop-color="#6470b4"/></linearGradient><linearGradient id="b" gradientUnits="userSpaceOnUse" x1="38.7776" x2="7.53342" xlink:href="#a" y1="1.15661" y2="35.0274"/><linearGradient id="c" gradientUnits="userSpaceOnUse" x1="39.4492" x2="70.698" xlink:href="#a" y1="85.2786" y2="51.4142"/><clipPath id="d"><path d="m0 0h78v87h-78z"/></clipPath><g clip-path="url(#d)"><path d="m10.4293 35.0156c.8547 1.8208 2.9728 5.4252 2.9728 5.4252l24.3394-40.243534-23.782 16.573034c-1.4121.929-2.564 2.2296-3.3815 3.716-2.19244 4.5706-2.2296 9.8843-.1487 14.5293z" fill="url(#b)"/><path d="m.766865 48.2443c.557385 7.8035 4.421965 14.9752 10.627535 19.6945l26.2717 18.3195s-16.4244-23.7076-30.32203-47.2667c-1.41206-2.4897-2.34104-5.2023-2.78695-8.0264-.1858-1.2634-.1858-2.564 0-3.8646-.37159.6689-1.07762 2.0438-1.07762 2.0438-1.41206 2.8613-2.3782 5.9455-2.824113 9.104-.222956 3.3072-.222957 6.6887.111478 9.9959z" fill="#fff"/><path d="m67.8024 51.4404c-.8547-1.8208-2.9728-5.4253-2.9728-5.4253l-24.3394 40.2436 23.7449-16.5731c1.412-.929 2.564-2.2295 3.3815-3.7159 2.2295-4.6078 2.2667-9.9216.1858-14.5293z" fill="url(#c)"/><g fill="#fff"><path d="m77.4637 38.1742c-.5574-7.8035-4.422-14.9752-10.6276-19.6945l-26.2716-18.319544s16.4244 23.707644 30.322 47.266644c1.412 2.4897 2.341 5.2024 2.7869 8.0265.1858 1.2634.1858 2.564 0 3.8645.3716-.6688 1.0777-2.0437 1.0777-2.0437 1.412-2.8613 2.3781-5.9455 2.8241-9.1041.2229-3.3071.2229-6.6515-.1115-9.9958z"/><path d="m10.5769 20.4863c.8175-1.4864 1.9695-2.787 3.3815-3.716l23.7449-16.573034-24.3394 40.243534s-2.1181-3.6044-2.9728-5.4252c-2.08089-4.645-2.00657-9.9587.1858-14.5293zm-9.810035 27.758c.557385 7.8035 4.421965 14.9752 10.627535 19.6944l26.2717 18.3196s-16.4244-23.7077-30.32203-47.2667c-1.41206-2.4897-2.34104-5.2023-2.78695-8.0264-.1858-1.2634-.1858-2.564 0-3.8646-.37159.6689-1.07762 2.0438-1.07762 2.0438-1.41206 2.8613-2.3782 5.9455-2.824113 9.104-.222956 3.3072-.222957 6.6887.111478 9.9959zm66.998335 3.1957c-.8547-1.8208-2.9728-5.4253-2.9728-5.4253l-24.3022 40.2436 23.7448-16.5731c1.4121-.9289 2.564-2.2295 3.3815-3.7159 2.1924-4.5706 2.2668-9.8844.1487-14.5293zm9.6614-13.2287c-.5574-7.8035-4.422-14.9753-10.6276-19.6945l-26.2345-18.319534s16.4245 23.707634 30.3221 47.266634c1.412 2.4897 2.341 5.2024 2.7869 8.0265.1858 1.2634.1858 2.564 0 3.8645.3716-.6688 1.0776-2.0437 1.0776-2.0437 1.4121-2.8613 2.3782-5.9455 2.8241-9.1041.2602-3.3443.2602-6.6886-.0743-10.033z"/></g></g></svg>