<svg fill="none" height="87" viewBox="0 0 223 87" width="223" xmlns="http://www.w3.org/2000/svg" xmlns:xlink="http://www.w3.org/1999/xlink"><linearGradient id="a"><stop offset=".58" stop-color="#a0a8d4"/><stop offset=".73" stop-color="#8791c7"/><stop offset=".91" stop-color="#6470b4"/></linearGradient><linearGradient id="b" gradientUnits="userSpaceOnUse" x1="38.2766" x2="7.03245" xlink:href="#a" y1="1.15679" y2="35.0276"/><linearGradient id="c" gradientUnits="userSpaceOnUse" x1="38.9492" x2="70.198" xlink:href="#a" y1="85.2787" y2="51.4143"/><path d="m9.92835 35.0158c.85465 1.8208 2.97275 5.4252 2.97275 5.4252l24.3394-40.243551-23.782 16.573051c-1.4121.929-2.564 2.2296-3.3815 3.716-2.19241 4.5706-2.22957 9.8843-.14865 14.5293z" fill="url(#b)"/><path d="m.266865 48.2445c.55739 7.8035 4.421965 14.9752 10.627535 19.6945l26.2717 18.3195s-16.4244-23.7076-30.32203-47.2667c-1.41206-2.4897-2.34104-5.2023-2.78695-8.0264-.1858-1.2634-.1858-2.564 0-3.8646-.37159.6689-1.07762 2.0438-1.07762 2.0438-1.41206 2.8613-2.378201 5.9455-2.824113 9.104-.2229563 3.3072-.2229566 6.6887.111478 9.9959z" fill="#fff"/><path d="m67.3024 51.4405c-.8547-1.8208-2.9728-5.4253-2.9728-5.4253l-24.3394 40.2436 23.7449-16.5731c1.412-.929 2.564-2.2295 3.3815-3.7159 2.2295-4.6078 2.2667-9.9216.1858-14.5293z" fill="url(#c)"/><g fill="#fff"><path d="m76.9637 38.1742c-.5574-7.8035-4.422-14.9752-10.6276-19.6945l-26.2716-18.319544s16.4244 23.707644 30.322 47.266644c1.412 2.4897 2.341 5.2024 2.7869 8.0265.1858 1.2634.1858 2.564 0 3.8645.3716-.6688 1.0777-2.0437 1.0777-2.0437 1.412-2.8613 2.3781-5.9455 2.8241-9.1041.2229-3.3071.2229-6.6515-.1115-9.9958z"/><path d="m10.0769 20.4865c.8175-1.4864 1.9695-2.787 3.3815-3.716l23.7449-16.573051-24.3394 40.243551s-2.1181-3.6044-2.97276-5.4252c-2.08093-4.645-2.00661-9.9587.18576-14.5293zm-9.810035 27.758c.55739 7.8035 4.421965 14.9752 10.627535 19.6944l26.2717 18.3196s-16.4244-23.7077-30.32203-47.2667c-1.41206-2.4897-2.34104-5.2023-2.78695-8.0264-.1858-1.2634-.1858-2.564 0-3.8646-.37159.6689-1.07762 2.0438-1.07762 2.0438-1.41206 2.8613-2.378201 5.9455-2.824113 9.104-.2229563 3.3072-.2229566 6.6887.111478 9.9959zm66.998335 3.1957c-.8547-1.8208-2.9728-5.4253-2.9728-5.4253l-24.3022 40.2436 23.7448-16.5731c1.4121-.9289 2.564-2.2295 3.3815-3.7159 2.1924-4.5706 2.2668-9.8844.1487-14.5293zm9.6614-13.2287c-.5574-7.8035-4.422-14.9753-10.6276-19.6945l-26.2345-18.319551s16.4245 23.707651 30.3221 47.266651c1.412 2.4897 2.341 5.2024 2.7869 8.0265.1858 1.2634.1858 2.564 0 3.8645.3716-.6688 1.0776-2.0437 1.0776-2.0437 1.4121-2.8613 2.3782-5.9455 2.8241-9.1041.2602-3.3443.2602-6.6886-.0743-10.033z"/><path d="m102.121 65.895v-44.5169c0-.1115.111-.223.223-.223h28.278c.111 0 .223.1115.223.223v5.6853c0 .1115-.112.223-.223.223h-21.664v13.1172h18.468c.112 0 .223.1115.223.223v5.6111c0 .1114-.111.2229-.223.2229h-18.468v13.526h21.701c.111 0 .223.1115.223.223v5.6854c0 .1114-.112.2229-.223.2229h-28.278c-.149 0-.26-.0743-.26-.2229zm70.379.1114-20.697-31.5111v31.3997c0 .1114-.112.2229-.223.2229h-6.392c-.111 0-.223-.1115-.223-.2229v-44.4798c0-.1115.112-.2229.223-.2229h5.909c.074 0 .148.0371.185.1114l20.735 31.474v-31.3253c0-.1115.112-.223.223-.223h6.392c.111 0 .223.1115.223.223v44.4797c0 .1115-.112.223-.223.223h-5.909c-.111-.0372-.185-.0743-.223-.1487zm27.238-8.5095v2.1181c2.75.5946 5.537.929 8.324.9662 2.75-.0743 5.5-.3716 8.212-.9662v-10.0702l-23.15-8.1007c-.074-.0371-.149-.1115-.149-.2229v-18.5054c0-.1115.037-.1858.149-.223 4.831-1.3377 9.81-2.0809 14.826-2.118 5.017.0743 10.033.7803 14.901 2.118.112.0372.149.1115.149.223v6.986c0 .1114-.112.2229-.223.2229h-6.28c-.111 0-.223-.1115-.223-.2229v-2.1181c-2.75-.5946-5.537-.929-8.324-.9662-2.749.0372-5.499.3716-8.212.9662l.037 9.5128 23.076 8.0635c.075.0372.149.1115.149.223v19.0999c0 .1115-.037.1858-.149.223-4.83 1.3377-9.81 2.0809-14.826 2.118-5.017-.0743-10.033-.7803-14.901-2.118-.112-.0372-.149-.1115-.149-.223v-6.986c0-.1114.112-.2229.223-.2229h6.243c.111-.0372.26.0372.297.1486z"/></g></svg>