<svg fill="none" height="96" viewBox="0 0 96 96" width="96" xmlns="http://www.w3.org/2000/svg"><g fill="#fff"><path clip-rule="evenodd" d="m37.8792 71.9564c3.2067 1.3557 6.6115 2.0436 10.1208 2.0436s6.9141-.6861 10.1208-2.0436c3.0966-1.3098 5.8777-3.1846 8.2643-5.5713 2.3867-2.3885 4.2615-5.1677 5.5713-8.2643 1.3557-3.2067 2.0436-6.6115 2.0436-10.1208s-.6879-6.9141-2.0436-10.1208c-1.3098-3.0966-3.1846-5.8776-5.5713-8.2643-2.3885-2.3866-5.1677-4.2615-8.2643-5.5713-3.2067-1.3557-6.6115-2.0436-10.1208-2.0436s-6.9141.6879-10.1208 2.0436c-3.0966 1.3098-5.8758 3.1847-8.2643 5.5713-2.3866 2.3885-4.2615 5.1677-5.5713 8.2643-1.3557 3.2067-2.0436 6.6115-2.0436 10.1208s.6879 6.9141 2.0436 10.1208c1.3098 3.0966 3.1847 5.8777 5.5713 8.2643 2.3885 2.3867 5.1677 4.2615 8.2643 5.5713zm34.7431-23.9564c0 13.5985-11.0238 24.6223-24.6223 24.6223s-24.6223-11.0238-24.6223-24.6223 11.0238-24.6223 24.6223-24.6223 24.6223 11.0238 24.6223 24.6223z" fill-rule="evenodd"/><path d="m60.9697 48c0-2.638-.7925-5.0925-2.15-7.1434l4.0266-4.0267-3.6212-3.6212-4.0157 4.0156c-2.0619-1.385-4.5421-2.194-7.2076-2.194-2.638 0-5.0925.7925-7.1435 2.15l-4.0285-4.0267-3.6212 3.6213 4.0156 4.0156c-1.385 2.062-2.194 4.5422-2.194 7.2077 0 2.638.7925 5.0925 2.15 7.1434l-4.0267 4.0285 3.6213 3.6213 4.0157-4.0157c2.0619 1.3851 4.5421 2.1941 7.2076 2.1941 2.638 0 5.0925-.7925 7.1435-2.15l4.0285 4.0285 3.6212-3.6213-4.0157-4.0157c1.3851-2.0656 2.1941-4.5458 2.1941-7.2113zm-20.8158 0c0-4.3275 3.5204-7.8479 7.8479-7.8479s7.8479 3.5204 7.8479 7.8479-3.5204 7.8479-7.8479 7.8479-7.8479-3.5204-7.8479-7.8479z"/></g></svg>