<svg fill="none" height="96" viewBox="0 0 96 96" width="96" xmlns="http://www.w3.org/2000/svg"><g fill="#fff"><path d="m37.2843 51.6013c1.495.0007 2.9477-.4964 4.1287-1.4128l-9.4767-9.4812c-.7737.9996-1.2514 2.1961-1.3791 3.4537-.1276 1.2575.1 2.5256.657 3.6603.557 1.1346 1.4211 2.0903 2.4941 2.7585s2.3119 1.0221 3.576 1.0215z"/><path d="m65.469 44.8408c.0018-1.4966-.4954-2.9511-1.413-4.1335l-9.4755 9.4812c.9998.7717 2.1957 1.2479 3.4524 1.3745 1.2566.1267 2.5235-.1013 3.6571-.6581 1.1337-.5567 2.0886-1.42 2.7565-2.4918.668-1.0718 1.0222-2.3094 1.0225-3.5723z"/><path d="m70.2371 34.5296-4.1933 4.193c1.5299 1.8303 2.3193 4.1669 2.213 6.5499-.1064 2.3831-1.1009 4.64-2.7877 6.3268-1.6869 1.6867-3.944 2.6811-6.3272 2.7875-2.3832.1063-4.72-.6831-6.5504-2.2128l-4.5947 4.5943-4.5934-4.5943c-1.8304 1.5297-4.1671 2.3191-6.5503 2.2128-2.3833-.1064-4.6404-1.1008-6.3272-2.7875-1.6869-1.6868-2.6814-3.9437-2.7877-6.3268-.1064-2.383.683-4.7196 2.2129-6.5499l-4.1908-4.1905c-2.4663 4.0594-3.7672 8.7193-3.7603 13.4691 0 14.3578 11.6405 25.9988 25.9994 25.9988 14.3588 0 26.0006-11.641 26.0006-25.9988.0066-4.7509-1.2952-9.4118-3.7629-13.4716z"/><path d="m66.8085 30.0554c-2.4272-2.5457-5.3459-4.5722-8.5793-5.9568-3.2334-1.3847-6.7143-2.0986-10.2317-2.0986-3.5175 0-6.9984.7139-10.2318 2.0986-3.2334 1.3846-6.1521 3.4111-8.5793 5.9568-.6464.6759-1.2562 1.3859-1.827 2.1269l20.6374 20.6359 20.6374-20.6359c-.5703-.741-1.1797-1.4509-1.8257-2.1269zm-18.8117-4.6539c2.971-.0152 5.9151.5624 8.6601 1.6992 2.7449 1.1367 5.2354 2.8096 7.3257 4.9208l-15.9858 15.9846-15.9845-15.9846c4.2503-4.2741 9.9072-6.62 15.9845-6.62z"/></g></svg>