<svg fill="none" height="96" viewBox="0 0 96 96" width="96" xmlns="http://www.w3.org/2000/svg"><g clip-rule="evenodd" fill="#fff" fill-rule="evenodd"><path d="m48 74c14.3603 0 26-11.6405 26-26s-11.6397-26-26-26-26 11.6405-26 26 11.6397 26 26 26zm0-8.9256c10.5019 0 19.0154-8.4913 19.0154-18.9664 0-10.4752-8.5135-14.7939-19.0154-14.7939s-19.0154 4.3187-19.0154 14.7939c0 10.4751 8.5135 18.9664 19.0154 18.9664z"/><path d="m36.7472 49.1632c1.1149 0 2.1299-.4281 2.8891-1.1277.414.7393.8632 1.5245 1.3312 2.3097.9943 1.6686 2.0946 3.3852 3.1304 4.7009.5138.6537 1.0504 1.2593 1.5829 1.7145.4618.3947 1.2127.9398 2.1258.9398s1.6598-.5367 2.1278-.9272c.5408-.4511 1.092-1.0526 1.6245-1.7041 1.0712-1.3136 2.2214-3.0281 3.2635-4.6947.5138-.8228 1.0088-1.6435 1.4602-2.4141.7675.7456 1.8158 1.2029 2.9702 1.2029 2.3567 0 4.2682-1.9108 4.2682-4.2686 0-2.3577-1.9115-4.2686-4.2682-4.2686-1.9219 0-3.5464 1.2697-4.0809 3.0156-.1061.19-.2205.3968-.3432.6161-.6864 1.2237-1.6266 2.8506-2.6396 4.4732-1.0192 1.631-2.0883 3.2161-3.0368 4.3772-.4763.5847-.886 1.0149-1.2084 1.2843-.05.0418-.0936.0752-.1332.1045-.0332-.0251-.0707-.0564-.1123-.0919-.3099-.2652-.703-.6913-1.1627-1.2739-.911-1.157-1.9323-2.7399-2.9037-4.3709-.9651-1.6206-1.8553-3.2453-2.5064-4.4691-.0873-.165-.1726-.3237-.2496-.4741-.4784-1.8336-2.1465-3.1868-4.1309-3.1868-2.3566 0-4.2681 1.9108-4.2681 4.2686 0 2.3577 1.9115 4.2686 4.2681 4.2686z"/></g></svg>