<svg fill="none" height="96" width="96" viewBox="0 0 96 96" xmlns="http://www.w3.org/2000/svg"><g fill="#fff"><path d="M54.293 73.368C65.573 70.762 74 60.393 74 48c0-13.368-9.805-24.38-22.418-25.837l4.225 4.66c.595.729.648 1.63.147 2.475-.635 1.07-1.443 1.562-2.48 1.505-.552-.032-.908-.343-1.197-.594-.138-.121-.27-.235-.398-.294l-.019-.01-.008-.003a4.75 4.75 0 0 0-.241-.107 1.612 1.612 0 0 0-.052.177c-.246 1.046-.157 1.947.25 2.538.374.54 1.028.865 1.946.962.809.085 1.662.259 2.416.945.563.512.667 1.171.75 1.701l.003.018c.049.307.095.597.222.822.113.2.13.407.143.574v.001l.008.087a.679.679 0 0 0 .607-.178 30.199 30.199 0 0 1 1.658-1.366l.278-.218c1.175-.927 3.024-1.417 4.687-.012l.037.03c.749.633 1.522 1.288 2.069 2.197l.001.001c.11.184.442.737.246 1.29-.178.5-.668.717-1.023.837-.31.105-.612.15-.905.194-.195.029-.379.056-.554.1-1.042.256-1.384.629-1.526 1.659-.087.615-.223 1.25-.417 1.937-.211.746-.97 1.424-2.032 1.818-.847.314-2.022.46-2.78-.073-.548-.384-.682-.97-.369-1.61a4.43 4.43 0 0 1 .383-.609c.06-.085.121-.17.177-.257.318-.497.29-.878-.118-1.51-.36-.563-.79-.769-1.435-.693-.209.024-.4.182-.623.362l-.05.04c-.06.049-.118.096-.177.14-.747.56-1.906 1.179-3.353.102-.318-.237-.482-.288-.54-.299-.036.06-.118.26-.14.806-.037.88-.083 1.974-.957 2.851-1.134 1.138-2.994 1.303-4.322.382-.111-.076-.372-.29-.41-.618a.65.65 0 0 1 .159-.506c1.098-1.26 1.11-2.227.031-3.331-.754-.773-.42-2.28.38-3.112.91-.94 2.148-1.081 3.015-.344a.682.682 0 0 1 .045.043c.2.08.367.207.517.322.078.06.19.146.25.172.244-.161.278-.516.26-1.15-.043-1.521-.676-2.247-2.188-2.503-.147-.026-.299-.042-.46-.06l-.007-.001c-.484-.056-1.03-.12-1.526-.428-.858-.533-1.356-1.426-1.443-2.582a3.824 3.824 0 0 0-.151-.722c-.03-.108-.06-.215-.084-.321a.5.5 0 0 0-.021-.066c-.02-.05-.046-.085-.072-.095-.031-.012-.097-.003-.186.06-1.17.84-2.171 1.652-2.577 3.106-.328 1.174.204 1.878.877 2.77l.003.004.084.11.125.17c.112.152.227.297.35.453l.006.006c.313.397.637.806.88 1.297.198.398.373.864.18 1.292-.196.432-.656.596-1.123.71a8.468 8.468 0 0 1-.706.126l-.043.007c-.572.083-1.066.156-1.462.486-.588.49-.694 1.204-.816 2.03-.028.19-.056.377-.09.56-.174.95-.634 1.706-1.33 2.185-.7.481-1.6.634-2.536.433-1.708-.37-2.57-1.388-2.636-3.113-.006-.167-.08-.37-.157-.585a8.577 8.577 0 0 1-.108-.309c-.025-.08-.046-.144-.371-.05-.995.288-2.506 2.435-2.57 3.645-.034.656.236 1.207.653 1.834.238.36.502.72.76 1.071l.03.041.393.54c1.087 1.513 1.084 3.302-.01 4.785l-.1.134-.24.318c-.303.397-.589.772-.836 1.174-.115.186-.164.34-.139.435.03.107.183.234.42.352 1.876.928 5.183.363 6.679-1.14.658-.662.9-1.458 1.093-2.61.078-.467.09-.947.102-1.455v-.005c.022-.93.045-1.892.495-2.843.293-.616.65-.974 1.089-1.094.43-.116.89.005 1.405.372.283.2.542.42.794.633.569.482 1.107.936 1.836 1.113.706.173 1.27.08 1.95-.318.525-.309 1.035-.697 1.53-1.07l.037-.028c2.353-1.788 4.607-1.527 6.344.732.579.753.754 1.71.446 2.436-.25.592-.79.965-1.482 1.022-.113.01-.244.023-.364.049-1.09.236-1.647.962-1.703 2.222-.044.973.522 1.82 1.476 2.216.232.097.484.14.752.184l.004.001c.202.033.411.07.626.129 1.874.527 2.393.884 2.775 2.943.02.12.014.217.01.29a.32.32 0 0 1-.003.037c.137.73.278.828.286.832h.004c.031 0 .231-.012.81-.448.135-.1.27-.19.401-.276.205-.135.4-.264.548-.41 1.094-1.087 2.232-1.597 3.385-1.523 1.289.085 2.54.897 3.723 2.415.456.587.926 1.268.7 1.898-.205.577-.842.813-1.804 1.007-2.04.41-2.085.715-2.337 2.409a26.892 26.892 0 0 1-.057.38v.001c-.096.622-.387 2.511-2.247 2.888-1.121.227-2.74.349-3.842-1.206a2.27 2.27 0 0 1-.407-1.074 8.266 8.266 0 0 0-.196-.933 11.63 11.63 0 0 1-.18-.806.368.368 0 0 0-.023-.08.121.121 0 0 0-.037-.052.076.076 0 0 0-.033-.011h-.002c-.116.09-.233.178-.35.267l-.003.002c-1.075.82-2.09 1.596-2.417 3.002-.052.446.611 2.714 1.341 4.954z"/><path d="M50.054 22.035A24.989 24.989 0 0 0 48.732 22h-1.464C33.313 22 22 33.64 22 48s11.313 26 25.268 26h1.464c1.552 0 3.071-.144 4.546-.42-1.51-4.615-1.377-5.192-1.325-5.41.414-1.78 1.63-2.708 2.805-3.606l.365-.28c.274-.213.656-.26 1-.122.375.152.634.492.712.938.043.24.102.479.165.732l.008.03c.081.33.166.671.212 1.027.03.247.093.412.218.59.59.83 1.43 1.067 2.808.788.809-.163 1.236-.765 1.428-2.013.015-.094.028-.187.041-.276l.015-.1c.29-1.945.512-2.757 3.157-3.288.762-.153.972-.28 1.028-.334-.01-.07-.084-.292-.532-.87-.991-1.273-1.994-1.953-2.983-2.019-.85-.054-1.727.358-2.603 1.228-.22.217-.462.378-.697.533l-.012.007-.032.022a4.776 4.776 0 0 0-.314.218c-.56.42-1.211.82-1.805.578-.588-.237-.794-.959-.92-1.633-.02-.113-.014-.217-.01-.288v-.006a.259.259 0 0 1 .003-.037c-.293-1.568-.452-1.656-2.03-2.1-.162-.046-.336-.074-.52-.106-.298-.05-.635-.106-.974-.247-1.352-.56-2.185-1.836-2.121-3.25.078-1.734.974-2.875 2.522-3.21a3.92 3.92 0 0 1 .492-.066c.314-.026.522-.158.62-.39.156-.368.031-.911-.31-1.355-1.377-1.792-3.033-1.973-4.921-.538l-.037.027c-.517.394-1.054.8-1.631 1.14-.908.531-1.74.663-2.7.43-.962-.235-1.617-.788-2.251-1.324l-.003-.002c-.246-.208-.477-.404-.723-.579-.243-.17-.44-.248-.558-.218-.074.02-.227.115-.425.532-.352.745-.371 1.551-.392 2.407v.002c-.011.524-.025 1.064-.116 1.608-.183 1.091-.44 2.238-1.388 3.19-1.82 1.828-5.56 2.467-7.845 1.337-.525-.26-.849-.6-.965-1.015-.112-.399-.025-.833.258-1.294.274-.447.589-.86.894-1.26l.155-.204.176-.235c.825-1.12.827-2.368.002-3.515a71.33 71.33 0 0 0-.388-.53 29.454 29.454 0 0 1-.819-1.155c-.465-.697-.887-1.48-.834-2.49.08-1.53 1.81-4.172 3.32-4.608 1.189-.346 1.55.481 1.632.743a6.085 6.085 0 0 0 .091.265c.1.272.211.578.223.914.047 1.235.573 1.848 1.816 2.116.67.146 1.276.049 1.75-.277.462-.317.77-.835.89-1.498.032-.173.058-.349.085-.524.134-.912.287-1.947 1.186-2.695.617-.514 1.333-.62 1.964-.712l.035-.006c.22-.032.428-.063.628-.111.096-.023.172-.045.232-.064a1.32 1.32 0 0 0 .17-.066 1.74 1.74 0 0 0-.145-.356c-.194-.394-.472-.744-.766-1.115a19.423 19.423 0 0 1-.468-.61l-.106-.142-.002-.002c-.715-.947-1.527-2.023-1.055-3.714.498-1.786 1.693-2.76 2.978-3.682.36-.258.774-.324 1.139-.184.36.14.627.468.73.9.024.095.05.192.077.289.075.275.16.587.186.928.06.812.38 1.402.949 1.755.303.19.697.234 1.112.282l.028.003c.159.02.322.038.486.065 1.995.338 2.994 1.49 3.05 3.518.018.598.046 1.601-.775 2.1-.595.362-1.108-.03-1.382-.241l-.017-.013c-.103-.079-.215-.164-.282-.181a.625.625 0 0 1-.329-.226c-.45-.354-1.087-.238-1.6.294-.5.52-.642 1.35-.384 1.613 1.367 1.402 1.46 2.9.278 4.457.91.494 2.08.344 2.814-.392.541-.543.607-1.199.647-2.136.027-.65.133-1.435.72-1.726.565-.281 1.182.096 1.596.405.734.545 1.314.52 2.142-.1.065-.049.129-.1.192-.153.287-.235.645-.527 1.148-.586 1.028-.122 1.84.27 2.413 1.161.429.665.83 1.573.118 2.68-.065.1-.134.199-.204.297-.113.16-.22.312-.296.464a.617.617 0 0 0-.047.123c-.008.035-.006.051-.006.051s.013.03.084.08c.35.244 1.11.224 1.85-.05.72-.265 1.278-.713 1.392-1.115.18-.64.308-1.227.387-1.792.203-1.468.85-2.18 2.307-2.539.21-.052.417-.083.616-.113l.031-.005c.26-.04.507-.076.73-.151.31-.105.373-.19.38-.197l-.002-.006c-.004-.025-.02-.132-.156-.36-.457-.76-1.132-1.331-1.846-1.936l-.037-.03c-1.466-1.237-2.87-.388-3.406.035l-.279.218c-.538.423-1.095.86-1.603 1.32-.437.395-.96.533-1.557.41-.698-.144-.748-.786-.768-1.029a.964.964 0 0 0-.016-.144c-.217-.393-.284-.813-.343-1.183v-.004c-.08-.506-.143-.829-.416-1.077-.506-.46-1.1-.608-1.838-.685-1.228-.13-2.13-.603-2.682-1.404-.59-.858-.73-2.033-.41-3.4.071-.309.211-.74.59-.93.395-.198.785-.018 1.13.142l.009.004.019.009c.255.12.456.293.631.445l.005.005c.244.212.39.332.587.344.644.034 1.106-.262 1.542-.999.27-.453.254-.854-.048-1.23z"/></g></svg>
