<svg fill="none" height="96" viewBox="0 0 96 96" width="96" xmlns="http://www.w3.org/2000/svg"><g fill="#fff"><path d="m66.5635 16c.0257.0405-.0048.0958-.0416.1578l-.0056.0096c-.0109.0183-.0221.0371-.0324.0563-.0055.0102-.0107.0206-.0155.031-.0039.0084-.0074.0169-.0106.0254l-.0045.0129c-.0029.0094-.0054.0187-.0072.0281 0 .0171-.0314.0549-.0858.1078-.1031.1004-.2888.2551-.4982.4264-.0608.0496-.1235.1006-.1868.1522l-.0043.0034-.0034.0027-.0007.0005c-.4261.3463-.875.7111-.9113.8131-.0339.095.0681.1443.1778.1973.1183.0573.2457.119.2214.2471-.0237.1246-.818.8083-1.7833 1.639-.9485.8164-2.062 1.7748-2.7717 2.4845-1.1036.8148-1.8549 1.4567-2.4654 2.6914-4.0854 3.1111-8.1473 6.2715-12.0448 9.7777 4.3829 4.4327 8.0547 7.5721 10.5328 9.6907l.0011.0011.0037.0031.0009.0008.0252.0217c.6287.5375 1.1799 1.0087 1.6455 1.4184.0384.0404.0572.089.0579.1325.0004.0235-.0044.0454-.0143.0636-.013.024-.0347.0416-.0643.0481-.0047.0011-.0096.0018-.0147.0022-.0037.0004-.0076.0006-.0116.0006h-.0235c-.6574-.0495-1.5965-.1729-2.5357-.6915-.2213-.128-.4843-.2011-.7547-.2762-.3033-.0844-.6158-.1713-.8889-.3411-2.3844-1.4879-5.1562-3.5294-7.2876-5.0992l-.0007-.0005c-1.6881-1.2433-2.9742-2.1904-3.3478-2.3323-.0407.0234-.0924.0467-.1543.0745-.3305.1491-.9489.428-1.7005 1.5304-.1686.2417-.4071.4204-.6439.5977-.126.0943-.2515.1883-.3657.2913-2.4027 2.1581-4.5683 4.6156-6.7242 7.0624l-.0007.0008c-.8776.9959-1.7536 1.99-2.6434 2.9614-.4072.3445-.7977.9241-1.1943 1.5127-.6551.9723-1.3264 1.9688-2.1162 1.9688-.3288 0-.6575-.1728-1.0331-.568-2.6359-2.0198-2.0177-2.9738-.7296-4.9611.192-.2964.3989-.6156.6122-.9647 2.0387-3.7786 3.8505-7.3072 5.6556-10.8229 1.9577-3.8129 3.9077-7.6105 6.131-11.6956.1064-.182.2053-.3739.3047-.5667.2514-.4874.5057-.9808.8927-1.3346.1216-.1108.2683-.3599.4325-.6386.3115-.5286.6858-1.1639 1.0702-1.1639.0594 0 .1187.0176.1781.0379l.0332.0115c.1174.0741.3052.0988.4931.0988.1028 0 .2169-.0058.3339-.0118.1233-.0064.25-.0129.3704-.0129.4462 0 .8453.0741.9862.5186.0741.2219.1719.3652.2575.4907.2666.3909.4155.609-.6332 2.4969-.4749.8-1.044 1.741-1.6694 2.7749l-.0028.0048c-2.5589 4.231-6.0589 10.0182-7.9073 14.0844 2.5067-3.0671 5.5957-5.6111 8.6484-8.1252l.0007-.0005c1.4934-1.2299 2.9781-2.4527 4.3819-3.7261.3519-.1899.9388-.6515 1.5516-1.1334.9-.7076 1.8558-1.4591 2.205-1.4591h.1174c.4214 0 .8771-.6853 1.1325-1.0696.0435-.0654.0812-.122.1119-.1651.2114-.3209 3.4985-3.1604 5.8229-4.2222.0436-.0336.0865-.0675.1288-.1015.0886-.0713.1748-.1432.2598-.2142l.0011-.0008c.5289-.4411 1.0118-.8439 1.7704-.8439h.1644c2.0661-1.605 6.4567-4.2223 6.6211-4.2223z"/><path d="m70.16 43.1668c-.4897-.1452-1.1033-.3273-1.6476-.3273-.5166 0-.9627.1729-1.1505.6667-.2661 1.0536-.7201 2.0192-1.174 2.9849-.227.4829-.4539.9657-.6574 1.4595-.8403 1.6355-1.6605 3.2851-2.4821 4.9375l-.0027.0053c-.7155 1.4392-1.4322 2.8805-2.1641 4.3165-.0469-.4195-.094-.8397-.1878-1.2593-.047-.1975-.2348-.3456-.4227-.3456h-.0234c-4.7429.321-10.9883 2.5432-15.4964 4.2716.8707-1.6199 1.948-3.4489 2.9221-5.1028 1.4164-2.4047 2.6147-4.4392 2.6425-4.9219.025-.4337.1698-.5667.3032-.6892l.0031-.0029c.0234-.0216.0466-.0429.0687-.0656.0114-.0117.0226-.0239.0333-.0366.0084-.0098.0165-.0201.0243-.0308l.0077-.0107.0073-.011c.0215-.0328.0403-.0701.0553-.1143.0203-.0598.0336-.1324.0371-.2241.0238-.3121.1736-.4728.3219-.6319.1451-.1556.2889-.3097.3121-.6027.0469-.5925-.6105-2.8395-.8218-3.1358-.1643-.1975-1.2444-.2469-1.9253-.2469-.1098 0-.2069.0045-.2876.0096-.1091.0069-.1884.0151-.2289.0151-.326.0342-.6067 1.0441-.8578 1.9476l-.0004.0016c-.1106.3976-.2154.7744-.3158 1.0384-.6875 1.8872-3.3644 6.9003-5.9442 11.7314l-.0013.0026c-2.6177 4.9021-5.135 9.6164-5.3715 10.6858-.2313 1.0542-.6642 2.0214-1.0708 2.9297-.4599 1.0277-.8861 1.98-.9484 2.8974-.047.5433 0 .7408.0469.7408.062 0 .1632-.2408.2588-.4682.0855-.2034.1665-.396.2108-.396.1409.0247.0705.9629-.2583 1.3827-.0939.1235-.1173.2963-.1173.4691.0012.0287.0009.0573-.0006.0859-.0011.0193-.0028.0386-.005.0578l-.0024.0198-.0022.0156c-.0081.0552-.0204.1104-.0355.1655-.0321.1175-.0771.2348-.1219.3517l-.0003.0011c-.1179.3075-.2345.6115-.1139.9076.0992.2384.053.5129.0162.731-.0241.1433-.0441.2622-.0162.3307.0705.1481.2348.2963.3522.2963.0469 0 .0939-.0247.1174-.0741 1.6362-2.694 3.7727-6.8195 6.0574-11.2311l.0004-.0007c.9608-1.8553 1.9478-3.7611 2.9348-5.6323.1174-.2222.2347-.3211.3991-.3704.1174-.0494.2583-.0988.3992-.0988.0287 0 .0534 0 .076.0033.0327.0049.0605.0168.0883.0461.056.0589.0479.1741.0394.2945-.0094.1319-.0191.27.0545.3474.0235.0248.047.0248.0705.0248.1556 0 .5128-.1413.8628-.2798l.0012-.0005c.3359-.1328.6651-.2629.803-.2629h.0469c.046.0181.068.0392.0779.0621.0039.009.0059.0182.0067.0277.0014.0157-.0005.0319-.0023.0485-.003.0261-.006.0531.0033.0797.0044.0125.0115.0249.0227.0371.0127.0141.0308.0279.0561.0412h.0235c.2361 0 2.0083-.4438 3.9323-.9256l.0041-.001.0087-.0022c2.2807-.5712 4.7705-1.1947 5.1648-1.1947h.094c.6195 0 2.464-.322 3.1874-.4483l.1309-.0228c.06-.0105.1053-.0183.1331-.0228.0939 0 .2818-.0493.5166-.1234-.4029.7731-.8533 1.519-1.3048 2.2669-.6012.9957-1.2045 1.9949-1.7006 3.0665-.4933 1.0663-1.1572 2.1551-1.8064 3.2197-1.0194 1.6718-2.0025 3.2841-2.232 4.6568-.1644.9876 1.7844 3.037 2.841 3.037.2348 0 .4226-.0987.54-.3457.6224-1.2879 1.1504-2.5488 1.6702-3.7902l.0013-.0032c.6955-1.6611 1.3764-3.2876 2.2495-4.898 1.6811-3.1045 3.3144-6.2257 4.9463-9.3442 1.1716-2.2389 2.3425-4.4763 3.5297-6.7051.3771-.5999.6984-1.229 1.0197-1.8582.459-.8988.9181-1.7976 1.5396-2.6109.6574-.963.6339-2.8642-.1409-3.7778-.0549-.0158-.1122-.0327-.1715-.0502l-.0496-.0147z"/></g></svg>