<svg fill="none" height="96" viewBox="0 0 96 96" width="96" xmlns="http://www.w3.org/2000/svg"><g fill="#fff"><path d="m25.2852 33.8607c0-1.7699-.1123-3.4813-.2852-5.2513h8.1766l.2853 3.5899c.9162-1.2105 3.1461-4.1993 8.9199-4.1993 6.6381 0 8.5224 3.9238 9.0928 5.2513 2.4029-4.4749 6.2924-5.1929 9.2657-5.1929 5.8343 0 8.1853 3.3729 8.8076 4.4749 1.5472 2.4294 1.4262 5.8023 1.4262 8.2317v15.2863h-8.5224v-15.9458c0-2.9888-.4581-6.3032-4.8662-6.3032-5.0909 0-5.2033 4.5834-5.2033 8.7326v13.5164h-8.5224v-16.1128c0-2.1539-.0605-6.1362-4.7452-6.1362-5.3243 0-5.3243 4.4247-5.3243 6.3032v15.9458h-8.5051z"/><path d="m25.2852 62.1959h45.7148v6.8041h-45.7148z"/></g></svg>