<svg fill="none" height="80" viewBox="0 0 244 80" width="244" xmlns="http://www.w3.org/2000/svg"><g fill="#fff"><path d="m98.9437 11.9186v22.5916h-7.1607v-33.6352h7.3624l15.5816 21.7847v-21.7847h7.161v33.6352h-6.908z"/><path d="m126.806 22.3067c0-2.3533.538-4.4881 1.613-6.4043 1.076-1.9499 2.572-3.4963 4.488-4.6393 1.917-1.1431 4.085-1.71457 6.505-1.71457 2.387 0 4.505.57147 6.354 1.71457 1.849 1.1094 3.278 2.6894 4.287 4.7402 1.042 2.0171 1.563 4.3367 1.563 6.959v1.4119h-18.103c.201 1.6137.924 2.9584 2.168 4.0342s2.857 1.6137 4.841 1.6137c1.177 0 2.353-.2185 3.53-.6555 1.21-.4371 2.202-1.0254 2.975-1.765l2.824 4.135c-1.21 1.1094-2.706 1.9499-4.488 2.5214-1.748.5715-3.597.8573-5.547.8573-2.454 0-4.673-.5211-6.656-1.5633-1.984-1.0758-3.547-2.5718-4.69-4.488-1.11-1.9499-1.664-4.2023-1.664-6.7573zm12.606-7.665c-1.815 0-3.227.5547-4.235 1.6641-1.009 1.0758-1.597 2.3197-1.765 3.7317h12.001c-.1-1.3784-.655-2.6223-1.664-3.7317-.975-1.1094-2.42-1.6641-4.337-1.6641z"/><path d="m165.894 26.2905-5.598 8.2197h-7.11l8.623-12.5061-8.119-11.8504h7.161l5.043 7.5137 4.992-7.5137h7.161l-8.17 11.8504 8.724 12.5061h-7.16z"/><path d="m198.065 31.4341c-.941 1.0421-2.151 1.9162-3.631 2.6222-1.445.706-3.092 1.059-4.941 1.059-2.623 0-4.589-.6724-5.9-2.0171-1.312-1.3447-1.967-3.2274-1.967-5.6479v-17.2966h6.404v14.7752c0 1.6137.387 2.7735 1.16 3.4795.773.6724 1.883 1.0086 3.328 1.0086 1.143 0 2.202-.269 3.177-.8069s1.765-1.1934 2.37-1.9666v-16.4898h6.405v24.3565h-6.405z"/><path d="m211.481 26.8452c.942.874 2.219 1.6473 3.833 2.3196 1.614.6724 3.143 1.0086 4.589 1.0086 1.345 0 2.353-.2185 3.026-.6556.705-.437 1.058-1.0421 1.058-1.8154 0-.7732-.403-1.3615-1.21-1.7649s-2.034-.7732-3.681-1.1094c-1.95-.3698-3.564-.7733-4.841-1.2103-1.278-.437-2.387-1.1598-3.328-2.1684-.942-1.0421-1.412-2.4541-1.412-4.2359 0-1.3783.386-2.6558 1.16-3.8325.806-1.1766 1.966-2.1011 3.479-2.7735 1.513-.70597 3.295-1.05897 5.345-1.05897 3.766 0 7.027 1.10937 9.783 3.32827l-2.521 4.3871c-.773-.8068-1.815-1.4792-3.127-2.0171-1.277-.5379-2.639-.8068-4.084-.8068-1.177 0-2.118.2017-2.824.6051-.672.4035-1.009.9582-1.009 1.6641 0 .706.37 1.2439 1.11 1.6137.773.3362 1.95.6724 3.53 1.0086 1.95.3698 3.58.79 4.891 1.2607 1.311.4706 2.454 1.2438 3.429 2.3196s1.463 2.5382 1.463 4.3872c0 2.3197-.942 4.2023-2.824 5.6479-1.849 1.4456-4.421 2.1684-7.716 2.1684-2.118 0-4.152-.3362-6.101-1.0086-1.917-.6723-3.514-1.5968-4.791-2.7735z"/><path d="m121.031 54.5178-9.48 24.2052h-3.127l-9.4803-24.2052v24.2052h-7.1607v-33.6351h10.035l8.169 20.9778 8.17-20.9778h10.085v33.6351h-7.211z"/><path d="m151.21 75.6469c-.941 1.0422-2.151 1.9163-3.63 2.6223-1.446.7059-3.093 1.0589-4.942 1.0589-2.623 0-4.589-.6723-5.9-2.017-1.312-1.3448-1.967-3.2274-1.967-5.6479v-17.2967h6.404v14.7753c0 1.6137.387 2.7735 1.16 3.4795.773.6724 1.883 1.0085 3.328 1.0085 1.143 0 2.202-.2689 3.177-.8068s1.765-1.1935 2.37-1.9667v-16.4898h6.405v24.3565h-6.405z"/><path d="m172.143 79.3281c-2.253 0-3.967-.5715-5.144-1.7145-1.176-1.143-1.765-2.7903-1.765-4.9419v-12.7077h-4.034v-5.5975h4.034v-6.6564h6.455v6.6564h4.942v5.5975h-4.942v10.9932c0 .7732.202 1.4119.605 1.9162.404.5043.941.7564 1.614.7564.47 0 .907-.0672 1.311-.2017.403-.1345.706-.3026.908-.5043l1.361 4.8411c-1.176 1.0422-2.958 1.5632-5.345 1.5632z"/><path d="m197.452 75.6469c-.941 1.0422-2.152 1.9163-3.631 2.6223-1.445.7059-3.093 1.0589-4.942 1.0589-2.622 0-4.589-.6723-5.9-2.017-1.311-1.3448-1.966-3.2274-1.966-5.6479v-17.2967h6.404v14.7753c0 1.6137.386 2.7735 1.16 3.4795.773.6724 1.882 1.0085 3.328 1.0085 1.143 0 2.202-.2689 3.177-.8068s1.765-1.1935 2.37-1.9667v-16.4898h6.404v24.3565h-6.404z"/><path d="m224.839 76.2016c-.84.975-1.95 1.7482-3.328 2.3197-1.345.5379-2.807.8068-4.387.8068-1.379 0-2.723-.3025-4.034-.9077-1.278-.6051-2.337-1.5128-3.177-2.723-.841-1.2439-1.261-2.7231-1.261-4.4377 0-1.7817.42-3.2441 1.261-4.3871.84-1.1767 1.899-2.034 3.177-2.5719 1.277-.5378 2.622-.8068 4.034-.8068 1.647 0 3.143.2521 4.488.7564s2.42 1.2439 3.227 2.2188v-3.3786c0-1.2439-.487-2.2356-1.462-2.9752s-2.269-1.1094-3.883-1.1094c-2.656 0-5.026.9581-7.11 2.8743l-2.421-4.2863c1.446-1.2775 3.076-2.2356 4.892-2.8744 1.849-.6387 3.765-.9581 5.748-.9581 3.127 0 5.682.7228 7.665 2.1684 1.984 1.4456 2.975 3.7989 2.975 7.0598v15.7334h-6.404zm0-6.3538c-.504-.6724-1.227-1.1935-2.168-1.5633-.908-.3698-1.9-.5547-2.975-.5547-1.312 0-2.404.3362-3.278 1.0086-.874.6723-1.311 1.5632-1.311 2.6726s.437 1.9835 1.311 2.6223c.874.6387 1.966.9581 3.278.9581 1.075 0 2.067-.1849 2.975-.5547.941-.3698 1.664-.8909 2.168-1.5633z"/><path d="m237.596 45.0879h6.404v33.6351h-6.404z"/><path d="m69.9225 43.126c4.2725 0 7.7361 3.4636 7.7361 7.7361 0 4.2726-3.4636 7.7361-7.7361 7.7361s-7.7361-3.4635-7.7361-7.7361c0-4.2725 3.4636-7.7361 7.7361-7.7361z"/><path d="m35.4076 70.7975c0 4.2725-3.4636 7.7361-7.7361 7.7361-4.2726 0-7.7361-3.4636-7.7361-7.7361s3.4635-7.7361 7.7361-7.7361c4.2725 0 7.7361 3.4636 7.7361 7.7361z"/><path d="m7.7361 20.8103c4.2725 0 7.7361 3.4636 7.7361 7.7362 0 4.2725-3.4636 7.7361-7.7361 7.7361-4.27253 0-7.73610018-3.4636-7.7361-7.7361.00000018-4.2726 3.46357-7.7362 7.7361-7.7362z"/><path d="m57.7232 8.61111c0 4.27249-3.4635 7.73609-7.7361 7.73609-4.2725 0-7.7361-3.4636-7.7361-7.7361 0-4.27253 3.4636-7.7361 7.7361-7.7361 4.2726 0 7.7361 3.46357 7.7361 7.73611z"/><path clip-rule="evenodd" d="m15.9545 16.8295c-2.9691-2.9691-2.9691-7.78308 0-10.75222s7.7831-2.96914 10.7522 0l18.1312 18.13122c2.6198 2.6198 6.8674 2.6198 9.4872 0l7.379-7.379c2.9691-2.9692 7.7831-2.9692 10.7522 0 2.9692 2.9691 2.9692 7.7831 0 10.7522l-18.1312 18.1312c-2.6198 2.6198-2.6198 6.8674 0 9.4872l7.379 7.379c2.9691 2.9691 2.9692 7.7831 0 10.7522-2.9691 2.9692-7.7831 2.9692-10.7522 0l-18.1312-18.1312c-2.6198-2.6198-6.8674-2.6198-9.4872 0l-7.379 7.379c-2.9692 2.9692-7.78308 2.9691-10.75222 0s-2.96914-7.7831 0-10.7522l18.13122-18.1312c2.6198-2.6198 2.6198-6.8674 0-9.4872zm16.9838 16.9838c3.2535-3.2536 8.5285-3.2536 11.782 0 3.2536 3.2535 3.2536 8.5285 0 11.782-3.2535 3.2536-8.5285 3.2536-11.782 0-3.2536-3.2535-3.2536-8.5285 0-11.782z" fill-rule="evenodd"/></g></svg>