<svg fill="none" height="96" viewBox="0 0 96 96" width="96" xmlns="http://www.w3.org/2000/svg"><path clip-rule="evenodd" d="m53.2362 68.5897.0002 2.4103h18.7636v-6.7635h-9.266c5.5749-4.2239 9.1567-10.7899 9.1567-18.1637 0-12.7428-10.6962-23.0728-23.8908-23.0728s-23.8908 10.33-23.8908 23.0728c0 7.3738 3.5818 13.9398 9.1568 18.1637h-9.2659v6.7635h18.7636v-.1089l-.0001-8.9816c-6.8367-2.152-11.7818-8.4045-11.7818-15.7821 0-9.158 7.6193-16.5819 17.0182-16.5819 9.3988 0 17.0181 7.4239 17.0181 16.5819 0 7.3776-4.9451 13.6301-11.7818 15.7821z" fill="#fff" fill-rule="evenodd"/></svg>