<svg fill="none" height="96" viewBox="0 0 96 96" width="96" xmlns="http://www.w3.org/2000/svg"><g fill="#fff"><path d="m48.5 74h1.8083c4.0946-.2917 7.9236-1.5667 11.261-3.595h-13.0693c-12.136 0-21.9741-10.0311-21.9741-22.405s9.8381-22.4049 21.9741-22.4049 21.9741 10.031 21.9741 22.4049c0 1.2921-.1071 2.5574-.3124 3.7876h3.5694c.1772-1.2371.2689-2.5018.2689-3.7876 0-14.3594-11.4168-26-25.5-26s-25.5 11.6406-25.5 26c0 14.3595 11.4168 26 25.5 26z"/><path d="m48.5 66.5532h17.9544c1.0962-1.103 2.0952-2.3062 2.9826-3.5952h-20.937c-8.1022 0-14.6704-6.6968-14.6704-14.958 0-8.2611 6.5682-14.9581 14.6704-14.9581s14.6704 6.697 14.6704 14.9581c0 1.3103-.1648 2.5793-.474 3.7876h3.62c.2491-1.2236.3799-2.4907.3799-3.7876 0-10.2465-8.1468-18.5531-18.1963-18.5531-10.0496 0-18.1963 8.3066-18.1963 18.5531 0 10.2466 8.1467 18.5532 18.1963 18.5532z"/><path d="m71.6327 59.1062h-23.1327c-6.0158 0-10.8926-4.9724-10.8926-11.1062s4.8768-11.1062 10.8926-11.1062 10.8925 4.9724 10.8925 11.1062c0 1.329-.2295 2.605-.6503 3.7876h-3.879c.638-1.1112 1.0034-2.404 1.0034-3.7876 0-4.1482-3.2981-7.5111-7.3666-7.5111s-7.3666 3.3629-7.3666 7.5111c0 4.1483 3.2981 7.5112 7.3666 7.5112h24.4855c-.3653 1.2397-.8186 2.4406-1.3528 3.595z"/></g></svg>