<svg fill="none" height="58" viewBox="0 0 67 58" width="67" xmlns="http://www.w3.org/2000/svg" xmlns:xlink="http://www.w3.org/1999/xlink"><clipPath id="a"><path d="m0 0h67v58h-67z"/></clipPath><g clip-path="url(#a)" fill="#fff"><path d="m5.0865 11.6255-4.5865.915 4.5865.9151c1.96.391 3.4598 1.9725 3.7424 3.9463l1.0998 7.6792 1.0997-7.6792c.2827-1.9738 1.7824-3.5553 3.7424-3.9463l4.5865-.9151-4.5865-.915c-1.96-.391-3.4597-1.9725-3.7424-3.9463l-1.0997-7.6792-1.0998 7.6792c-.2826 1.9738-1.7824 3.5553-3.7424 3.9463z"/><path d="m14.5142 44.5444-4.58647.9151 4.58647.915c1.96.3911 3.4598 1.9725 3.7424 3.9463l1.0998 7.6792 1.0997-7.6792c.2827-1.9738 1.7824-3.5552 3.7424-3.9463l4.5865-.915-4.5865-.9151c-1.96-.391-3.4597-1.9725-3.7424-3.9463l-1.0997-7.6792-1.0998 7.6792c-.2826 1.9738-1.7824 3.5553-3.7424 3.9463z"/><path d="m28.252 24.3191-15.1797 2.3295 15.1797 2.3296c4.7456.7283 8.4694 4.4429 9.1995 9.1769l2.3354 15.1422 2.3353-15.1422c.7301-4.734 4.4539-8.4486 9.1995-9.1769l15.1797-2.3296-15.1797-2.3295c-4.7456-.7283-8.4694-4.4429-9.1995-9.1769l-2.3353-15.1422-2.3354 15.1422c-.7301 4.734-4.4539 8.4486-9.1995 9.1769z"/></g></svg>