<svg fill="none" height="96" viewBox="0 0 96 96" width="96" xmlns="http://www.w3.org/2000/svg"><path d="m61.0928 57.804 12.8085-7.4223c.6791-.3943 1.0987-1.1255 1.0987-1.9102v-14.8447c0-.7847-.4196-1.5159-1.0987-1.9102l-12.8085-7.4223c-.679-.3943-1.5219-.3905-2.1971 0l-12.8087 7.4223c-.6788.3943-1.0985 1.1255-1.0985 1.9102v26.5276l-8.9828 5.2022-8.9828-5.2022v-10.4081l8.9828-5.2021 5.9238 3.4335v-6.9822l-4.8253-2.7982c-.3319-.1913-.7131-.2947-1.0985-.2947-.3853 0-.7666.1034-1.0985.2947l-12.8087 7.4224c-.6789.3943-1.0985 1.1255-1.0985 1.9102v14.8448c0 .7847.4196 1.5157 1.0985 1.91l12.8087 7.4225c.6789.3904 1.5181.3904 2.197 0l12.8087-7.4225c.679-.3943 1.0984-1.1253 1.0984-1.91v-26.5315l.1602-.0919 8.819-5.1103 8.9828 5.2022v10.4082l-8.9828 5.2022-5.9163-3.4262v6.9824l4.8176 2.7905c.6791.3904 1.522.3904 2.1972 0z" fill="#fff"/></svg>