<svg fill="none" height="96" viewBox="0 0 96 96" width="96" xmlns="http://www.w3.org/2000/svg"><path clip-rule="evenodd" d="m40.5714 78 2.702-14.1851c1.0223.3314 2.0884.5582 3.1869.6683l-1.546 8.1168h8.6857l1.9045-9.9988c5.0543-2.8236 8.4955-8.4104 8.4955-14.8412 0-4.0495-1.3645-7.7643-3.6371-10.6653l2.6529-13.9275c.5091-2.6732-1.4381-5.1672-4.0344-5.1672h-3.6671l-2.6092 13.6982c-1.0227-.33-2.0891-.5551-3.1879-.6637l1.4542-7.6345h-8.6857l-1.8158 9.5331c-5.0404 2.8281-8.4699 8.407-8.4699 14.8269 0 4.0385 1.3572 7.7443 3.6187 10.6418l-2.7488 14.431c-.5091 2.6732 1.4381 5.1672 4.0344 5.1672zm7.4286-36.96c-3.5346 0-6.4 3.0086-6.4 6.72s2.8654 6.72 6.4 6.72 6.4-3.0086 6.4-6.72-2.8654-6.72-6.4-6.72z" fill="#fff" fill-rule="evenodd"/></svg>