<svg fill="none" height="96" viewBox="0 0 96 96" width="96" xmlns="http://www.w3.org/2000/svg"><path d="m63.1548 63h3.553c1.2124-1.1185 1.9869-2.8212 2.189-3.7894-2.189-.9349-3.1657-1.6193-4.3781-2.7879l-.1515.1503c.3873.7011.421 1.3521.421 1.853.0505 1.4022-.3031 2.4038-1.6334 4.574zm-20.56 0h2.812c0-4.2569-.8924-6.1599-2.6941-7.8627l-.2021.1169c.7409 1.5859.7409 3.0549.7409 4.14 0 1.3188-.2526 2.2536-.6736 3.6058zm4.5296 0h3.9402c.2021-2.1535 0-4.3236-.5893-6.3936-.5052-1.7362-1.4481-3.9898-3.1994-5.7259l.1179-.1169c2.2732 1.7361 3.132 3.2886 3.9908 4.7577 2.1553 0 4.2602 1.3188 6.6344 1.3188 1.5323 0 3.132-.2337 5.7083-1.4357-.7409-1.2854-1.246-2.4372-1.3639-4.574h.1515c1.566 6.3101 8.3689 7.3618 11.0125 7.8293 2.3574.3839 3.1657 2.1367 3.1657 3.8395 0 .1669 0 .3339-.0337.5008h2.2227c.0842-.5676.1179-1.1352.1179-1.7027 0-1.2354-.0842-2.4874-.6567-3.5224-2.1048-3.5223-3.8729-4.8411-3.8729-7.5455s2.0711-4.6408 2.189-4.7577c-1.2124-.2003-1.6333-1.3522-2.4584-2.5875-1.8018-2.7544-4.799-3.1718-6.365-3.1718s-2.4248.2004-3.9403.2004c-6.988-.0501-10.5073-7.9128-19.0277-7.9128-5.944 0-9.7327 4.6408-9.6486 8.8643l-.1178.0334c-.7072-.7679-1.9196-1.8196-3.3172-2.287 0 .2003.0336.4173.0336.651 0 3.7227-1.566 7.7458-5.3883 7.7458-1.4818 0-2.8458-.651-4.1087-1.903-.2526.434-.3704.9348-.3536 1.4356.0168.5509.1347 1.1018.3536 1.6193l-.0842.1169c-2.2732-.1169-3.7045-.768-5.0853-1.8196-.1515.9682-.1515 1.3855-.1515 2.5541 0 4.958 4.4959 9.7156 10.44 9.7156 5.944 0 10.3894-4.7242 10.3894-10.183h.2021c.2357 1.0516.421 2.1701.2357 3.4555 7.106 2.8212 8.8572 6.9779 8.8572 10.9677z" fill="#fff"/></svg>