<svg fill="none" height="96" viewBox="0 0 96 96" width="96" xmlns="http://www.w3.org/2000/svg"><path d="m71 24.0795-15.9098 6.5546h-14.8722l-15.218-6.6341 3.4586 21.5707-3.3049 11.6791 8.6466 5.3629c4.112 2.5424 7.7628 5.6807 10.914 9.4148l3.3818 3.9725 3.5355-4.2108c3.0359-3.615 6.5714-6.6738 10.4912-9.1765l8.4929-5.3629-3.0743-11.6791zm-10.5297 36.4278c-2.8822 1.867-5.5722 4.0122-7.9933 6.4354l-2.959-3.3369zm-13.9883 3.0985-2.8822 3.2972c-2.4594-2.4232-5.1495-4.5287-8.0317-6.356zm-2.8437-3.615-15.2949-4.2903 2.0751-7.3888zm-5.7645-27.4499-7.2631 9.812-2.2289-13.9434zm24.8254 14.4996-14.7184 13.2681-14.9875-13.2681zm-30.2439-2.741 8.147-10.9641h14.1036l9.0309 10.9641zm33.0109 3.8136 1.9983 7.5874-15.1796 4.3301zm2.1904-19.7434-2.2289 13.8243-7.9164-9.6531z" fill="#fff"/></svg>