<svg fill="none" height="96" viewBox="0 0 96 96" width="96" xmlns="http://www.w3.org/2000/svg"><path d="m76.6956 33-7.4783.0861h-.3477c-1.5653.086-2.9566.6881-4.0001 1.5483l-5.4782 4.2151s-.0869 0-.0869.086l-14.9566 11.4409v-6.2796c0-.7742-.6087-1.3764-1.3913-1.3764l-15.5652.172c-.7826 0-1.3913.6022-1.3913 1.3765l.087 10.2364v1.2904.8602.1721.6021.1721.172c0 .258.0869.5161.0869.6021 0 .2581.087.4301.1739.6882.1739.6022.3478 1.1182.6087 1.4623.1739.3441.3479.6022.6087.9463.5218.7742 1.1305 1.2903 1.6522 1.6344 1.4782 1.1183 3.7392 1.8925 6.2609 1.8925s4.8696-.7742 6.2608-1.9785c.1739-.086.3479-.2581.5217-.3441.4349-.3441 1.1305-1.0323 1.9131-1.8064.5217-.5162 1.0435-1.1183 1.3913-1.4624l13.913-14.4516c.087-.086.174-.1721.174-.2581l2.9565-3.0968 3.4782-3.5268.6957-.7742c1.2174-1.1183 2.7826-1.8065 4.6087-1.8065h3.2174 2.1739c.6957 0 1.2174-.6021 1.2174-1.2903 0-.6022-.6087-1.2043-1.3044-1.2043z" fill="#fff"/></svg>