<svg fill="none" height="96" viewBox="0 0 96 96" width="96" xmlns="http://www.w3.org/2000/svg"><g fill="#fff"><path d="m47.9997 27c1.1596 0 2.0998.9434 2.0998 2.1072v37.7856c0 1.1638-.9402 2.1072-2.0998 2.1072-1.1599 0-2.1001-.9434-2.1001-2.1072v-37.7856c0-1.1638.9402-2.1072 2.1001-2.1072z"/><path d="m40.6503 33.3071c0-1.1638-.9402-2.1072-2.0998-2.1072-1.1599 0-2.1001.9434-2.1001 2.1072v29.3858c0 1.1638.9402 2.1072 2.1001 2.1072 1.1596 0 2.0998-.9434 2.0998-2.1072z"/><path d="m29.1001 36.4499c1.1596 0 2.0998.9434 2.0998 2.1072v18.8858c0 1.1638-.9402 2.1072-2.0998 2.1072-1.1599 0-2.1001-.9434-2.1001-2.1072v-18.8858c0-1.1638.9402-2.1072 2.1001-2.1072z"/><path d="m59.5499 33.3071c0-1.1638-.9402-2.1072-2.0998-2.1072-1.1599 0-2.1001.9434-2.1001 2.1072v29.3858c0 1.1638.9402 2.1072 2.1001 2.1072 1.1596 0 2.0998-.9434 2.0998-2.1072z"/><path d="m66.9002 36.4499c1.1596 0 2.0998.9434 2.0998 2.1072v18.8858c0 1.1638-.9402 2.1072-2.0998 2.1072-1.1599 0-2.1001-.9434-2.1001-2.1072v-18.8858c0-1.1638.9402-2.1072 2.1001-2.1072z"/></g></svg>