<svg fill="none" height="96" viewBox="0 0 96 96" width="96" xmlns="http://www.w3.org/2000/svg"><g fill="#fff"><path d="m21 51.3815v.1107c.7032 1.035 1.4071 2.0712 2.095 3.1127.3239.4913.6434.985.9629 1.4786.5258.8123 1.0518 1.6249 1.5965 2.4259.1844.2462.4486.4293.7526.5216.5676.165 1.1482.2925 1.7288.4201.2176.0478.4366.0959.6535.1457.1091.0399.2254.0595.3424.0576 1.08-.1879 2.1578-.3824 3.2586-.581l.7884-.1421c-.1596-1.0197-.3148-2.013-.4722-3.02l-.3414-2.1845-2.5347 2.2977c-.115-.1161-.2292-.2312-.3427-.3456-.62-.6252-1.2178-1.2278-1.7946-1.8447-.1022-.151-.1407-.3328-.1078-.5093.1241-.9643.2561-1.9275.3882-2.8908.1011-.7381.2023-1.4764.3-2.2152-.0038-.1355.0472-.2673.1426-.3687.0953-.1014.2279-.1647.3709-.1772 1.0698-.2087 2.1372-.4271 3.2047-.6456 1.0674-.2184 2.1349-.4368 3.2047-.6455.1165-.016.2353-.009.3488.0203.1136.0293.2195.0805.3112.1502.8993.7884 1.7809 1.6001 2.6344 2.4361.0789.0919.1356.199.166.3138s.0337.2345.0099.3506c-1.5179 4.9594-3.0455 9.9162-4.5829 14.8705-.0818.2458-.1961.4809-.34.6998-.2869.449-.578.8962-.8692 1.3437-.332.5102-.6648 1.0217-.9914 1.5354-.0922.1777-.1672.3631-.2239.5537h7.1445c2.0845-3.8388 4.1553-7.6779 6.2125-11.5175.0722-.1478.1865-.2738.3302-.3638.1437-.0899.3111-.1403.4834-.1455l9.8-1.2314c.5759-.0723 1.1519-.1435 1.7279-.2148 1.6474-.2038 3.2948-.4075 4.9383-.6356.0979-.0307.2014-.0427.3043-.0353s.2032.034.2952.0783c.0919.0443.1736.1054.2403.1798.0668.0743.1172.1604.1485.2533 1.9524 3.8764 3.9232 7.7455 5.9123 11.6071.0512.0693.0874.1476.1065.2302.019.0826.0206.1679.0045.2511-.016.0831-.0493.1625-.0979.2334-.0486.071-.1116.1322-.1854.18-.261.2337-.4927.4993-.725.7655-.1088.1248-.218.2499-.3302.3718h7.0308c-.0295-.2248-.0559-.4501-.0823-.6755-.0587-.5005-.1175-1.0012-.2096-1.496-.9223-4.8819-1.8414-9.7652-2.7575-14.6501-.0408-.1559-.0196-.3207.0598-.4628.899-1.1516 1.4281-2.5231 1.5241-3.951.1841-1.5746.3084-3.1559.4057-4.7361.0539-.4336-.0285-.8726-.237-1.2623s-.5338-.7128-.9354-.9291c-.8472-.4905-1.6848-.997-2.5225-1.5036-1.0345-.6255-2.0692-1.2512-3.1225-1.8472-2.2373-1.2652-4.751-1.656-7.2576-2.0456-.4002-.0622-.8002-.1244-1.1988-.1901-1.8579-.3083-3.7226-.5822-5.5874-.8561-.8146-.1197-1.6294-.2394-2.4435-.362-.0707-.0107-.1399-.0299-.2252-.0535-.0463-.0128-.0973-.0269-.1558-.0417l2.3448-2.1504c-.1416-.0715-.2552-.1305-.3528-.1813-.1368-.0711-.2426-.126-.3507-.1764-.8898-.4113-1.7797-.8218-2.6695-1.2322-1.9846-.9153-3.9693-1.8308-5.9498-2.7542-.1313-.0723-.2813-.1087-.4333-.1052-.1519.0036-.2998.0469-.4273.1251-.8046.419-1.6125.8324-2.4204 1.2458-1.165.5961-2.3301 1.1923-3.4849 1.8049-.6285.3309-1.3242.5321-2.0411.5902-1.9227.1787-3.8427.3762-5.7599.5925-.2418.0362-.4623.1519-.6226.3266-1.7398 2.0383-3.4663 4.0872-5.1795 6.1469-.1552.2084-.2498.4516-.2744.7053-.5002 4.1222-1 8.2452-1.4995 12.369-.0321.1612-.0768.32-.1336.475z"/><path d="m57.7266 68.9304c.0592-.0933.1207-.1852.1843-.2757h-.2475c.1057-.1665.2085-.3348.3114-.5031.2453-.4015.4906-.8029.7731-1.1789.3064-.4025.4619-.89.442-1.3853-.0109-1.3263-.0106-2.6529-.0102-3.9797.0002-1.2537.0005-2.5089-.0086-3.7628-.0168-.1624.0179-.3259.0998-.4697.0818-.1437.2071-.2612.3598-.3376.4898-.282.9667-.5819 1.4636-.8944.1582-.0994.3193-.2007.4826-.3026l.0765.1092c.0959.1366.1788.2547.2599.378.22.3496.4402.6991.6604 1.0485.937 1.4869 1.8744 2.9744 2.7923 4.4716.0605.1045.1067.215.1379.3291.1431.2195.2055.4775.1772.734-.1407 1.1156-.2774 2.23-.4139 3.3438l-.0008.006c-.0943.7695-.1887 1.5388-.2843 2.3081-.0468.3688-.1288.4205-.5154.4242h-6.2754c-.156-.0127-.3112-.0337-.4647-.0627z"/><path d="m45.9385 58.3117c-.1292.1074-.2319.2405-.3006.39-.2119.4014-.421.8038-.6301 1.206-.4034.776-.8071 1.5526-1.2287 2.32-.1095.1855-.1771.3904-.1986.6018s.0035.4247.0736.6265c.4608 1.4495.8864 2.8953 1.3199 4.3707.0197.0643.0353.1202.0459.1695-.0583.0414-.1252.071-.1964.0867-.3403.1705-.6685.3618-.9825.5725h.4794l-.432.204.0273.1143c.1502.0184.3016.0258.453.0222h6.5526c.1093.0055.2188.0055.328 0 .0354.0016.0708-.0043.1034-.0173.0326-.0131.0617-.033.085-.0582s.0402-.0551.0495-.0874.0108-.0661.0042-.099c-.0032-.0263-.0071-.0525-.0115-.0786h.2091c-.0026-.1649-.016-.3295-.0399-.4928-.6776-3.2341-1.3584-6.4679-2.0423-9.7014-.0622-.2937-.1346-.5868-.209-.8877-.0322-.1302-.0648-.2619-.097-.3957-.2783.0664-.55.1288-.8165.1901-.6675.1535-1.3023.2994-1.9257.4799-.2557.0861-.4735.2495-.6201.4639z"/></g></svg>