<svg fill="none" height="96" viewBox="0 0 96 96" width="96" xmlns="http://www.w3.org/2000/svg"><g fill="#8295b2"><path d="m52.8189 24.1019 1.4062 3.2935c2.76 6.4666 7.9115 11.6175 14.3788 14.3772l3.2939 1.4062c.8618.3674 1.5616.8946 2.1022 1.5224-1.6407-11.76-10.9427-21.0623-22.7038-22.7012.6267.5389 1.1551 1.2399 1.5227 2.1019z"/><path d="m24.1021 43.1788 3.2939-1.4062c6.4674-2.7598 11.6186-7.9107 14.38-14.3772l1.4048-3.2935c.369-.862.8962-1.563 1.5228-2.1019-11.7612 1.6389-21.0632 10.9412-22.7036 22.7012.5402-.6278 1.2401-1.155 2.1021-1.5224z"/><path d="m71.8978 52.8193-3.2939 1.4061c-6.4673 2.7599-11.6188 7.9119-14.3788 14.3786l-1.4062 3.2921c-.3677.8618-.896 1.5633-1.5227 2.1033 11.7611-1.6401 21.0631-10.9426 22.7038-22.7027-.5406.6279-1.2404 1.1551-2.1022 1.5226z"/><path d="m43.1809 71.8961-1.4048-3.2921c-2.7615-6.4667-7.9127-11.6187-14.3801-14.3786l-3.2939-1.4061c-.862-.3676-1.562-.8947-2.1021-1.5226 1.6404 11.7601 10.9424 21.0626 22.7036 22.7027-.6266-.54-1.1538-1.2415-1.5227-2.1033z"/></g><path d="m36.3862 45.4955 1.5735-.6719c3.0888-1.3186 5.5499-3.7781 6.8685-6.8666l.6709-1.5734c.9407-2.2035 4.065-2.2035 5.0058 0l.6707 1.5734c1.3189 3.0885 3.7799 5.548 6.8687 6.8666l1.5735.6719c2.2036.9407 2.2036 4.0634 0 5.0041l-1.5735.6719c-3.0887 1.3185-5.5498 3.7782-6.8687 6.8679l-.6707 1.5721c-.9408 2.2033-4.0651 2.2033-5.0058 0l-.6709-1.5721c-1.3186-3.0897-3.7797-5.5494-6.8685-6.8679l-1.5735-.6719c-2.2038-.9407-2.2038-4.0634 0-5.0041z" fill="#fff"/></svg>