<svg fill="none" height="96" viewBox="0 0 96 96" width="96" xmlns="http://www.w3.org/2000/svg"><path d="m35.081 38.9221c-.3494-.3852-.7803-.5783-1.2929-.5783h-10.4742c-.094 0-.1703-.0284-.227-.0851-.0585-.0559-.0869-.119-.0869-.1867v-6.8002c0-.0677.0284-.13.0869-.1867.0567-.0558.133-.0851.227-.0851h11.0684c2.7932 0 5.2016 1.1 7.2269 3.2981l2.6904 3.1617-5.2389 6.1541zm19.3435-4.6579c2.0253-2.1761 4.4461-3.2642 7.2624-3.2642h11.0346c.0923 0 .1614.0229.2093.0677.0461.0458.0692.1135.0692.2041v6.8002c0 .0677-.0231.1308-.0692.1867-.0479.0567-.117.0851-.2093.0851h-10.4759c-.5126 0-.9418.1931-1.2911.5783l-7.7183 9.0441 7.7519 9.1118c.3494.3633.768.5444 1.2575.5444h10.4759c.0923 0 .1614.0284.2093.0852.0461.0567.0692.1308.0692.2205v6.8003c0 .0676-.0231.1308-.0692.1866-.0479.0567-.117.085-.2093.085h-11.0346c-2.8163 0-5.2247-1.0989-7.227-3.298l-6.4253-7.5479-6.4254 7.5479c-2.0253 2.1991-4.4461 3.298-7.2624 3.298h-11.0329c-.094 0-.1649-.0283-.211-.085-.0462-.0568-.0692-.13-.0692-.2215v-6.8001c0-.0678.023-.13.0692-.1868.0461-.0567.117-.085.211-.085h10.4742c.4895 0 .9187-.1923 1.2929-.5785l7.5763-8.9076z" fill="#fff"/></svg>