<svg fill="none" height="56" viewBox="0 0 49 56" width="49" xmlns="http://www.w3.org/2000/svg" xmlns:xlink="http://www.w3.org/1999/xlink"><clipPath id="a"><path d="m0 0h49v56h-49z"/></clipPath><g clip-path="url(#a)"><g fill="#fff"><path d="m15.5 15.9879 8.9943-15.811142 9.0056 15.811142-9.0056 5.2742z"/><path d="m8.00586 29.1808 4.50294-7.9171 11.9999 7.0246 12.0114-7.0246 4.5029 7.9171-16.5143 9.6675z"/><path d="m.5 42.3712 4.5028-7.9171 19.4971 11.418 19.52-11.418 4.4801 7.9171-.6515.1391c-6.7315 1.4491-16 6.8741-20.5714 12.067-.3472.3921-.772.7054-1.2465.9202-.4744.2145-.9883.3253-1.5078.3253s-1.0333-.1108-1.5077-.3253c-.4746-.2148-.8994-.5281-1.2465-.9202-4.5715-5.1929-13.8743-10.6179-20.5715-12.067z"/></g><path d="m24.4943 21.2621-8.9943-5.2742 8.9943-15.811142z" fill="#a9a9a9"/><path d="m24.5087 38.8483-16.50284-9.6675 4.50294-7.9171 11.9999 7.0246z" fill="#a9a9a9"/><path d="m24.4999 55.8178c-.5188-.0009-1.0319-.1117-1.5061-.3252-.4744-.2135-.8994-.5253-1.2481-.9153-4.5714-5.1929-13.8743-10.6179-20.5714-12.067l-.6743-.1391 4.5028-7.9171 19.4971 11.418z" fill="#a9a9a9"/></g></svg>