<svg fill="none" height="96" viewBox="0 0 96 96" width="96" xmlns="http://www.w3.org/2000/svg"><g clip-rule="evenodd" fill="#fff" fill-rule="evenodd"><path d="m48.6612 22c-.9152-.0009-1.8295.0504-2.7393.152-12.8848 1.3851-22.9219 12.4307-22.9219 25.8529 0 14.3561 11.4853 25.996 25.6612 25.9951h.0578c4.0834-.0027 8.1074-.9989 11.7328-2.904 1.0362-.5456.5882-2.1323-.5764-2.0984h-.047c-10.263.2637-19.478-4.1345-23.2308-12.2843-2.2532-4.8796-2.162-9.3967-1.114-12.9664.0091-.0346.0163-.0594.0253-.0933.5367-2.1991 1.5413-4.2278 3.0247-5.807.1139-.1392.2367-.2711.3686-.3928.0831-.0897.1726-.1722.2674-.2473.0344-.0384.0714-.0751.1084-.1088.0344-.0257.0588-.0523.0931-.078.0659-.0657.1391-.1262.2168-.1765 2.5296-2.0883 5.6944-3.2217 8.9557-3.2098 7.6549 0 13.865 6.0615 13.865 13.5412 0 2.5717-.7489 5.0875-2.152 7.2317 6.1199-2.1397 10.4971-7.8625 10.4962-14.5813 0-3.8242-1.4221-7.3223-3.7855-10.0304-.9901-1.0281-2.0635-1.972-3.209-2.8188l-.009-.0083c-4.3698-3.2289-9.6378-4.9675-15.0457-4.9675-.0144 0-.029 0-.0424 0z"/><path d="m70.6047 39.6733c0 6.7142-4.1683 12.438-10.0073 14.5804-1.6405.6087-3.3743.9181-5.1207.9145-5.6148 0-10.5112-3.132-13.1223-7.7927-.636-1.1354-1.1364-3.0652-1.4762-4.7076-.3198-1.5564-2.3209-1.962-3.2026-.6483-.3054.4495-.5321.9477-.6704 1.4759-.0171.076-.0406.1529-.0569.2279-.0063.0239-.009.0458-.0081.0687-.4192 1.7578-.5412 3.575-.3578 5.3741-.0018.0228 0 .0458.0082.0685.0804.8167.224 1.6242.4309 2.4179.2493 1.0437.5945 2.0608 1.0299 3.0404 3.191 7.2674 10.3407 11.7359 19.759 10.9597.9305-.0778 1.8557-.2125 2.7709-.4029 7.7704-1.6645 13.3716-8.8191 13.4186-17.2435v-.1567c.0027-1.0446-.0587-2.0883-.1853-3.1236-.6187-5.6378-3.0183-10.9229-6.8388-15.0666 2.3424 2.7969 3.6289 6.3453 3.6289 10.0139z"/></g></svg>