<svg fill="none" height="44" viewBox="0 0 37 44" width="37" xmlns="http://www.w3.org/2000/svg" xmlns:xlink="http://www.w3.org/1999/xlink"><clipPath id="a"><path d="m0 0h37v44h-37z"/></clipPath><g clip-path="url(#a)" fill="#fff"><path d="m34.3069 16.9165-5.4658 5.5644c.3037 1.0133.4555 2.0953.4555 3.1772 0 2.9368-1.1302 5.7018-3.1546 7.7799-2.0413 2.0781-4.7573 3.2116-7.642 3.2116s-5.6007-1.1507-7.642-3.2116c-2.0412-2.0781-3.1546-4.8431-3.1546-7.7799 0-1.0991.1518-2.1639.4555-3.1772l-5.4827-5.5644c-1.3833 2.5933-2.1762 5.5816-2.1762 8.7588 0 10.1156 8.0637 18.3248 18 18.3248s18-8.2092 18-18.3248c0-3.1772-.7929-6.1655-2.1931-8.7588z"/><path d="m14.89 29.3162h7.2034v-11.644l12.2643-12.4856-5.0947-5.1866-10.7629 10.9571-10.76282-10.9571-5.0947 5.1866 12.24742 12.4684z"/></g></svg>