<svg xmlns="http://www.w3.org/2000/svg" fill="currentColor" viewBox="0 0 638 620"><path fill="#000" d="m155.15 355.499 186.68 186.67c9.113 9.12 13.543 19.81 13.29 32.07-.253 12.26-4.937 22.947-14.05 32.06-9.12 8.454-19.81 12.807-32.07 13.06-12.26.254-22.95-4.176-32.07-13.29l-264-264c-4.473-4.48-7.743-9.453-9.81-14.92-2.067-5.46-3.1-11.176-3.1-17.15 0-5.973 1.033-11.69 3.1-17.15 2.067-5.466 5.337-10.44 9.81-14.92l264.24-264.23C285.783 5.086 296.307.78 308.74.78s23.21 4.307 32.33 12.92c9.113 9.114 13.67 19.927 13.67 32.44 0 12.514-4.557 23.33-13.67 32.45L155.15 264.5h436.48c12.767 0 23.543 4.39 32.33 13.17 8.78 8.787 13.17 19.564 13.17 32.33 0 12.767-4.39 23.544-13.17 32.33-8.787 8.78-19.563 13.17-32.33 13.17H155.15Z"/></svg>