<svg xmlns="http://www.w3.org/2000/svg" width="800" height="300" fill="none" viewBox="0 0 800 300"><g clip-path="url(#a)"><path fill="#0e0f2d" d="M0 0h800v300H0z"/><path fill="#1e2054" d="M643.524 91.75H800V300H643.524zm102.915-18.493 18.492 18.492h-18.492zm18.492 18.493 18.493-18.493v18.492z" opacity=".5"/><path fill="#000" d="M-268.484 158h313v74h-313z"/><mask id="b" width="315" height="74" x="-270" y="158" maskUnits="userSpaceOnUse" style="mask-type:alpha"><path fill="#3fc4ff" d="M-269.879 158H44.516v74H-269.88z"/></mask><g fill="#3c3f83" mask="url(#b)"><path d="M-10.981 213.478 7.51 231.971h-18.49zm0-18.492L7.51 213.478h-18.49zm0-18.493L7.51 194.986h-18.49zm0-18.493L7.51 176.493h-18.49zm18.492 55.478 18.493 18.493H7.511zm0-18.492 18.493 18.492H7.511zm0-18.493 18.493 18.493H7.511zm0-18.493 18.493 18.493H7.511zm18.493 55.478 18.493 18.493H26.004zm0-18.492 18.493 18.492H26.004zm0-18.493 18.493 18.493H26.004zm0-18.493 18.493 18.493H26.004z"/></g><path fill="#ae8d0b" d="M56.788 228h40v4h-40z"/><path fill="#ae8d0b" d="m65.056 246.32 20-34.641 3.464 2-20 34.64z"/><path fill="#ae8d0b" d="m65.056 246.32 20-34.641 3.464 2-20 34.64z"/><path fill="#ae8d0b" d="m88.52 246.32-20-34.641-3.464 2 20 34.641z"/><path fill="#ae8d0b" d="M74.788 250v-40h4v40z"/><path fill="#ae8d0b" d="m93.109 241.732-34.641-20 2-3.464 34.64 20z"/><path fill="#ae8d0b" d="m93.109 241.732-34.641-20 2-3.464 34.64 20z"/><path fill="#ae8d0b" d="m60.467 241.732 34.641-20-2-3.464-34.64 20z"/><path fill="#3c3f83" d="M-540.709 232h725v68h-725z"/><path fill="#000" d="m-459.854 232-68 68h-4.242l68-68zm19.928 0-68 68h-4.242l68-68zm19.928 0-68 68h-4.242l68-68zm19.928 0-68 68h-4.242l68-68zm19.927 0-68 68h-4.242l68-68zm19.928 0-68 68h-4.242l68-68zm19.928 0-68 68h-4.242l68-68zm19.928 0-68 68h-4.243l68-68zm19.927 0-68 68h-4.242l68-68zm19.928 0-68 68h-4.242l68-68zm19.928 0-68 68h-4.242l68-68zm19.928 0-68 68h-4.243l68-68zm19.927 0-68 68h-4.242l68-68zm19.928 0-68 68h-4.242l68-68zm19.928 0-68 68h-4.242l68-68zm19.927 0-68 68h-4.242l68-68zm19.928 0-68 68h-4.242l68-68zm19.928 0-68 68h-4.242l68-68zm19.928 0-68 68h-4.242l68-68zm19.927 0-68 68h-4.242l68-68zm19.928 0-68 68h-4.242l68-68zm19.928 0-68 68h-4.242l68-68zm19.928 0-68 68h-4.243l68-68zm19.927 0-68 68h-4.242l68-68zm20.08 0-68 68h-4.244l68-68zm19.776 0-68 68h-4.242l68-68zm19.777 0-68 68h-4.243l68-68zm19.777 0-68 68H5.65l68-68zm19.777 0-68 68h-4.243l68-68zm19.776 0-68 68h-4.242l68-68zm19.778 0-68 68H64.98l68-68zm19.776 0-68 68h-4.242l68-68zm19.777 0-68 68h-4.243l68-68zm7.513 12.264L128.555 300h-4.243l59.979-59.979zm0 19.777L148.332 300h-4.243l40.202-40.202zm0 19.776L168.108 300h-4.242l20.425-20.425zM-479.781 232l-60.928 60.928v-4.243L-484.023 232zm-19.928 0-41 41v-4.242L-503.951 232zm-19.928 0-21.072 21.072v-4.242l16.83-16.83z"/><path fill="#ae8d0b" d="M78.734 250.035h105.561v4H78.735V300h-4v-45.965H-513.71v-4H74.734V232h4z"/><path fill="#ae8d0b" d="M-201.332 264.965h364.458V300h-364.458z"/><mask id="c" width="366" height="36" x="-202" y="264" maskUnits="userSpaceOnUse" style="mask-type:alpha"><path fill="#004293" d="M-201.332 264.965h364.458V300h-364.458z"/></mask><g mask="url(#c)"><circle cx="14.619" cy="299.763" r="10.5" fill="#000"/><circle cx="146.619" cy="299.763" r="10.5" fill="#000"/><circle cx="14.619" cy="266.763" r="10.5" fill="#000"/><circle cx="146.619" cy="266.763" r="10.5" fill="#000"/><circle cx="113.619" cy="299.763" r="10.5" fill="#000"/><circle cx="113.619" cy="266.763" r="10.5" fill="#000"/><circle cx="80.619" cy="299.763" r="10.5" fill="#000"/><circle cx="80.619" cy="266.763" r="10.5" fill="#000"/><circle cx="47.619" cy="299.763" r="10.5" fill="#000"/><circle cx="47.619" cy="266.763" r="10.5" fill="#000"/><path fill="#3c3f83" d="M-7.881 283.263a9.95 9.95 0 0 0 6-6 9.95 9.95 0 0 0 6 6 9.95 9.95 0 0 0-6 6 9.95 9.95 0 0 0-6-6m33 0a9.95 9.95 0 0 0 6-6 9.95 9.95 0 0 0 6 6 9.95 9.95 0 0 0-6 6 9.95 9.95 0 0 0-6-6m33 0a9.95 9.95 0 0 0 6-6 9.95 9.95 0 0 0 6 6 9.95 9.95 0 0 0-6 6 9.95 9.95 0 0 0-6-6m33.001 0a9.95 9.95 0 0 0 6-6 9.95 9.95 0 0 0 5.999 6 9.95 9.95 0 0 0-6 6 9.95 9.95 0 0 0-6-6m33 0a9.95 9.95 0 0 0 6-6 9.95 9.95 0 0 0 6 6 9.95 9.95 0 0 0-6 6 9.95 9.95 0 0 0-6-6m33 0a9.95 9.95 0 0 0 6-6 9.95 9.95 0 0 0 6 6 9.95 9.95 0 0 0-6 6 9.95 9.95 0 0 0-6-6"/></g><path fill="#23191a" d="M509.484 300.573h21.661l-2.282-20.794h-23.711z"/><path fill="#1e2054" d="m438.44 229.529-16.462 16.463v28.158l8.664.434-2.599 25.992h20.794l4.332-20.794h4.332l-1.732 20.794h21.66l3.466-20.794h39.856l4.332 20.794h21.66l-7.797-71.047z"/><path fill="#2c2f6f" fill-rule="evenodd" d="M425.233 284.109a6.37 6.37 0 0 1-6.075-4.432l-4.318-13.57h-2.654a6.37 6.37 0 0 1-6.076-4.433l-2.565-8.063h9.623l-5.076-7.624h48.09l-5.076 7.624h9.623l-2.565 8.063a6.37 6.37 0 0 1-6.076 4.433h-2.654l-4.318 13.57a6.37 6.37 0 0 1-6.075 4.432zm-3.262-21.708c0 2.047 1.533 3.706 3.424 3.706s3.424-1.659 3.424-3.706-1.533-3.707-3.424-3.707-3.424 1.66-3.424 3.707m20.332 0c0 2.047-1.533 3.706-3.424 3.706s-3.424-1.659-3.424-3.706 1.533-3.707 3.424-3.707 3.424 1.66 3.424 3.707" clip-rule="evenodd"/><path fill="#2c2f6f" d="m493.02 211.332 37.016 5.742a10.13 10.13 0 0 1 8.514 8.902l.39 3.551h-30.731c-8.389 0-15.189-6.8-15.189-15.189zm27.73 68.449h-32.058l.641 3.036a10.37 10.37 0 0 0 10.147 8.227h10.482a10.37 10.37 0 0 0 10.146-8.227z"/><path fill="#2c2f6f" d="M499.088 290.176h4.332v3.052a2.14 2.14 0 0 1-2.146 2.146 2.19 2.19 0 0 1-2.186-2.186zm6.98 0h4.332v3.052a2.14 2.14 0 0 1-2.146 2.146 2.19 2.19 0 0 1-2.186-2.186z"/><path fill="#fff8f7" d="M298.762 198.234h25.923v12.421h-25.923z"/><path fill="#1e2054" d="m355.581 299.5-5.199-53.368-29.241-51.674H303.23l-29.24 51.674-5.199 53.368h21.697l10.849-19.269h21.698l10.848 19.269z"/><path fill="#23191a" d="M323.302 272.763h8.204l3.715 26.733h-14.852zm-22.341 0h-8.204l-3.715 26.733h14.852z"/><path fill="#fccaf2" d="M297.262 272.75h29.843l-.929 4.377a10.82 10.82 0 0 1-10.581 8.573h-6.823a10.82 10.82 0 0 1-10.582-8.573z"/><rect width="4.451" height="8.011" x="313.98" y="281.189" fill="#fccaf2" rx="2.225"/><rect width="4.451" height="8.011" x="305.969" y="281.189" fill="#fccaf2" rx="2.225"/><path fill="#2c2f6f" fill-rule="evenodd" d="M308.788 225.866a6.48 6.48 0 0 1-7.139-2.755l-7.816-12.193-2.61.699a6.485 6.485 0 0 1-7.139-2.754l-4.644-7.246 9.459-2.534-6.996-6.154 47.274-12.667-2.982 8.827 9.459-2.534-.399 8.597a6.48 6.48 0 0 1-4.806 5.954l-2.609.7-.673 14.468a6.48 6.48 0 0 1-4.805 5.954zm-8.921-20.468c.539 2.011 2.483 3.238 4.342 2.74 1.859-.499 2.929-2.532 2.39-4.543s-2.483-3.238-4.342-2.74c-1.859.499-2.929 2.533-2.39 4.543m19.987-5.355c.539 2.011-.531 4.045-2.39 4.543s-3.803-.728-4.342-2.739.532-4.045 2.391-4.543 3.802.728 4.341 2.739" clip-rule="evenodd"/><path fill="#1e2054" d="M235.121 246.486h52.347V300h-52.347z"/><path fill="#000" d="M287.468 246.486h95.291V300h-95.291z"/><path fill="#3c3f83" d="m382.76 246.486 20 28.292h-95.292l-20-28.292z"/><path fill="#ae8d0b" d="M328.947 274.778h12.332V300h-12.332zm-73.818-28.292h12.332V300h-12.332z"/><path fill="#3c3f83" d="m287.468 246.486-20 28.292h-52.347l20-28.292z"/><path fill="#2c2f6f" d="M687.392 192H577.304v108h110.088z"/><path stroke="#ae8d0b" stroke-width="4" d="M577.304 192v108m9.175-108v108m9.172-108v108m9.175-108v108m9.175-108v108m9.172-108v108m9.175-108v108m9.175-108v108m9.172-108v108m9.175-108v108m9.175-108v108m9.172-108v108m9.175-108v108"/><path fill="#2c2f6f" d="M612 224h188v76H612z"/><path stroke="#3c3f83" stroke-width="4" d="M612 261.994h188M744.992 300v-76"/><path fill="#ae8d0b" d="m749.799 236.901-4.888 3.319-4.912-3.358-3.254 4.982-5.783-1.196-1.126 5.889-5.777 1.149 1.173 5.898-4.886 3.319 3.293 5.01-3.253 4.983 4.913 3.359-1.126 5.889 5.785 1.196 1.173 5.897 5.776-1.149 3.294 5.01 4.886-3.317 4.913 3.357 3.253-4.982 5.786 1.195 1.125-5.889 5.776-1.148-1.173-5.898 4.887-3.319-3.295-5.008 3.255-4.985-4.915-3.36 1.127-5.888-5.785-1.196-1.173-5.898-5.775 1.149z"/></g><defs><clipPath id="a"><path fill="#fff" d="M0 0h800v300H0z"/></clipPath></defs></svg>