<svg fill="none" height="300" viewBox="0 0 1724 300" width="1724" xmlns="http://www.w3.org/2000/svg" xmlns:xlink="http://www.w3.org/1999/xlink"><clipPath id="a"><path d="m0 0h1724v300h-1724z"/></clipPath><g clip-path="url(#a)"><path d="m-27 158h182.906c32.269 0 63.344 12.173 86.993 34.079l43.101 39.921h-313z" fill="#000"/><path d="m61 133 9 25h-18z" fill="#000"/><path d="m-28 232h594.475c28.899 0 56.953 9.763 79.624 27.709l50.901 40.291h-725z" fill="#1e2054"/><path d="m-188.703 265h302.701c14.593 0 28.75 4.973 40.137 14.098l26.126 20.937h-368.964z" fill="#2c2f6f"/><path d="m460 207 9 25h-18z" fill="#1e2054"/><path d="m344.167 105h4.666l1.167 127h-7z" fill="#1e2054"/><path d="m348.867 55h2.185l4.565 40.1698c.518 4.5606-2.337 8.8272-6.75 10.0882z" fill="#1e2054"/><path d="m305.344 130.387-1.093-1.893 32.506-24.038c3.69-2.729 8.813-2.39 12.112.802z" fill="#1e2054"/><path d="m392.391 130.387-1.093 1.892-37.07-16.132c-4.209-1.831-6.477-6.437-5.362-10.889z" fill="#1e2054"/><path d="m497 180-16 44h32z" fill="#1e2054"/><path d="m0 0h4v8h-4z" fill="#1e2054" transform="matrix(-1 0 0 1 499 224)"/><path d="m104 106-16 44h32z" fill="#000"/><path d="m126 114-16 44h32z" fill="#000"/><path d="m0 0h4v8h-4z" fill="#000" transform="matrix(-1 0 0 1 106 150)"/><path d="m1360 275 9 25h-18z" fill="#2c2f6f"/><path d="m1378 248 16 44h-32z" fill="#2c2f6f"/><path d="m1376 292h4v8h-4z" fill="#2c2f6f"/><path d="m1316 267 9 25h-18z" fill="#2c2f6f"/><path d="m1314 292h4v8h-4z" fill="#2c2f6f"/><path d="m1585 224h139v76h-139z" fill="#1e2054"/><path d="m1536 257 49-33 49 33v43h-98z" fill="#2c2f6f"/><path d="m1556 273h58v28h-58z" fill="#1e2054"/><path d="m1469 219c0-14.912 12.09-27 27-27s27 12.088 27 27v81h-54z" fill="#2c2f6f"/><path d="m1199.08 300.574h21.66l-2.28-20.795h-23.71z" fill="#000"/><path d="m1128.04 229.529-16.46 16.462v28.159l8.66.433-2.6 25.993h20.8l4.33-20.794h4.33l-1.73 20.794h21.66l3.47-20.794h39.85l4.33 20.794h21.66l-7.79-71.047z" fill="#1e2054"/><path clip-rule="evenodd" d="m1114.83 284.109c-2.78 0-5.23-1.793-6.07-4.433l-4.32-13.569h-2.65c-2.78 0-5.24-1.794-6.08-4.433l-2.57-8.063h9.63l-5.08-7.625h48.09l-5.07 7.625h9.62l-2.57 8.063c-.84 2.639-3.29 4.433-6.07 4.433h-2.66l-4.31 13.569c-.84 2.64-3.3 4.433-6.08 4.433zm-3.26-21.709c0 2.047 1.53 3.707 3.42 3.707 1.9 0 3.43-1.66 3.43-3.707s-1.53-3.706-3.43-3.706c-1.89 0-3.42 1.659-3.42 3.706zm20.33 0c0 2.047-1.53 3.707-3.42 3.707s-3.43-1.66-3.43-3.707 1.54-3.706 3.43-3.706 3.42 1.659 3.42 3.706z" fill="#2c2f6f" fill-rule="evenodd"/><path d="m1182.62 211.332 37.02 5.742c4.52.702 8.01 4.351 8.51 8.902l.39 3.551h-30.73c-8.39 0-15.19-6.8-15.19-15.189z" fill="#2c2f6f"/><path d="m1210.35 279.781h-32.06l.64 3.036c1.02 4.796 5.25 8.228 10.15 8.228h10.48c4.9 0 9.14-3.432 10.15-8.228z" fill="#2c2f6f"/><path d="m1188.69 290.176h4.33v3.052c0 1.188-.96 2.146-2.15 2.146-1.2 0-2.18-.982-2.18-2.186z" fill="#2c2f6f"/><path d="m1195.67 290.176h4.33v3.052c0 1.188-.96 2.146-2.15 2.146-1.2 0-2.18-.982-2.18-2.186z" fill="#2c2f6f"/><g fill="#000"><path d="m1091 300v-14l10 14z"/><path d="m1083 300v-14l10 14z"/><path d="m1075 300v-14l10 14z"/><path d="m838 300v-14l10 14z"/><path d="m830 300v-14l10 14z"/><path d="m1440 300v-20l-14 20z"/><path d="m1429 300v-20l-14 20z"/><path d="m1418 300v-20l-14 20z"/></g><path d="m0 0h25.9229v12.4214h-25.9229z" fill="#1e2054" transform="matrix(-1 0 0 1 980.139 199.31)"/><path d="m923.319 300.576 5.199-53.368 29.241-51.674h17.911l29.24 51.674 5.2 53.368h-21.698l-10.849-19.269h-21.698l-10.849 19.269z" fill="#1e2054"/><path d="m955.599 273.84h-8.205l-3.714 26.733h14.851z" fill="#000"/><path d="m977.939 273.84h8.204l3.714 26.733h-14.851z" fill="#000"/><circle cx="3.56055" cy="3.56055" fill="#000" r="3.56055" transform="matrix(-1 0 0 1 970.254 247.062)"/><path d="m973.854 235.363c-.715-3.385-3.702-5.806-7.161-5.806-3.459 0-6.446 2.421-7.161 5.806l-3.224 15.26h20.77z" fill="#000"/><path d="m981.639 273.826h-29.843l.928 4.377c1.06 4.998 5.473 8.573 10.582 8.573h6.823c5.109 0 9.521-3.575 10.581-8.573z" fill="#2c2f6f"/><rect fill="#2c2f6f" height="8.01123" rx="2.22534" transform="matrix(-1 0 0 1 964.92 282.266)" width="4.45068"/><rect fill="#2c2f6f" height="8.01123" rx="2.22534" transform="matrix(-1 0 0 1 972.932 282.266)" width="4.45068"/><path clip-rule="evenodd" d="m970.112 226.942c2.73.731 5.618-.383 7.139-2.755l7.816-12.193 2.609.699c2.731.732 5.619-.383 7.139-2.754l4.645-7.246-9.46-2.534 6.997-6.154-47.274-12.667 2.982 8.827-9.459-2.534.399 8.597c.131 2.814 2.075 5.223 4.805 5.954l2.61.7.672 14.468c.131 2.814 2.075 5.223 4.806 5.954zm8.921-20.468c-.539 2.011-2.483 3.238-4.342 2.74s-2.929-2.532-2.39-4.543 2.482-3.238 4.341-2.74c1.859.499 2.93 2.533 2.391 4.543zm-19.988-5.355c-.538 2.011.532 4.045 2.391 4.543s3.803-.728 4.341-2.739c.539-2.011-.531-4.045-2.39-4.543s-3.803.728-4.342 2.739z" fill="#2c2f6f" fill-rule="evenodd"/><path d="m959.085 203.34c-.303-.957-.864-1.936-1.832-2.204l-54.424-15.085-.001.002 54.678 14.147c.972.251 1.947-.315 2.687-.992.862-.788 2.044-1.139 3.193-.831 1.144.306 1.99 1.195 2.345 2.302.309.961.879 1.944 1.855 2.206l3.165.848c.975.261 1.961-.305 2.709-.984.861-.78 2.037-1.127 3.181-.82 1.15.307 1.997 1.202 2.35 2.316.303.957.864 1.934 1.831 2.202l54.428 15.085-54.676-14.148c-.973-.251-1.948.316-2.689.994-.862.789-2.045 1.141-3.195.833-1.145-.307-1.991-1.197-2.345-2.304-.309-.963-.879-1.947-1.855-2.209l-3.161-.847c-.976-.261-1.962.306-2.711.985-.861.782-2.038 1.13-3.183.823-1.15-.308-1.998-1.204-2.35-2.319z" fill="#f2cd16"/></g></svg>