<svg xmlns="http://www.w3.org/2000/svg" fill="none" viewBox="0 0 1724 300"><g clip-path="url(#a)"><path fill="#000" d="M-27 158h182.906a128.02 128.02 0 0 1 86.993 34.079L286 232H-27z"/><path fill="#000" d="m61 133 9 25H52z"/><path fill="#1e2054" d="M-28 232h594.475c28.899 0 56.953 9.763 79.624 27.709L697 300H-28z"/><path fill="#2c2f6f" d="M-188.703 265h302.701a64.2 64.2 0 0 1 40.137 14.098l26.126 20.937h-368.964z"/><path fill="#1e2054" d="m460 207 9 25h-18zM344.167 105h4.666L350 232h-7zm4.7-50h2.185l4.565 40.17a9.39 9.39 0 0 1-6.75 10.088z"/><path fill="#1e2054" d="m305.344 130.387-1.093-1.893 32.506-24.038a9.39 9.39 0 0 1 12.112.802z"/><path fill="#1e2054" d="m392.391 130.387-1.093 1.892-37.07-16.132a9.39 9.39 0 0 1-5.362-10.889zM497 180l-16 44h32zm2 44h-4v8h4z"/><path fill="#000" d="m104 106-16 44h32z"/><path fill="#000" d="m126 114-16 44h32zm-20 36h-4v8h4z"/><path fill="#2c2f6f" d="m1360 275 9 25h-18z"/><path fill="#2c2f6f" d="m1378 248 16 44h-32zm-2 44h4v8h-4zm-60-25 9 25h-18zm-2 25h4v8h-4z"/><path fill="#1e2054" d="M1585 224h139v76h-139z"/><path fill="#2c2f6f" d="m1536 257 49-33 49 33v43h-98z"/><path fill="#1e2054" d="M1556 273h58v28h-58z"/><path fill="#2c2f6f" d="M1469 219c0-14.912 12.09-27 27-27s27 12.088 27 27v81h-54z"/><path fill="#000" d="M1091 300v-14l10 14z"/><path fill="#000" d="M1083 300v-14l10 14z"/><path fill="#000" d="M1075 300v-14l10 14zm-237 0v-14l10 14z"/><path fill="#000" d="M830 300v-14l10 14zm610 0v-20l-14 20z"/><path fill="#000" d="M1429 300v-20l-14 20z"/><path fill="#000" d="M1418 300v-20l-14 20z"/></g><defs><clipPath id="a"><path fill="#fff" d="M0 0h1724v300H0z"/></clipPath></defs></svg>