<svg xmlns="http://www.w3.org/2000/svg" width="375" height="300" fill="none" viewBox="0 0 375 300"><g clip-path="url(#a)"><path fill="#0e0f2d" d="M0 0h375v300H0z"/><path fill="#1e2054" d="M-144.611 145.396H61.697v157.038h-206.308zm311.972 29.631h92.114V300h-92.114zm92.114-83.277h156.476V300H259.475z" opacity=".5"/><path fill="#1e2054" d="m310.035 73.257 18.493 18.493h-18.493zm18.493 18.493 18.493-18.493v18.492zM19.73 125.076l-6.269 10.856v-12.536h-4v12.535l-6.267-10.855-3.464 2 6.267 10.856-10.856-6.267-2 3.463 10.855 6.268H-8.539v4h40v-4H18.926l10.856-6.268-2-3.463-10.857 6.267 6.269-10.856z" opacity=".5"/><path fill="#000" d="M316.052 299.997h21.661l-2.282-20.794H311.72z"/><path fill="#1e2054" d="m245.008 228.953-16.462 16.462v28.159l8.664.433L234.611 300h20.794l4.332-20.794h4.332L262.337 300h21.66l3.466-20.794h39.855L331.651 300h21.66l-7.798-71.047z"/><path fill="#2c2f6f" fill-rule="evenodd" d="M231.801 283.533a6.37 6.37 0 0 1-6.076-4.432l-4.317-13.57h-2.655a6.37 6.37 0 0 1-6.075-4.433l-2.565-8.063h9.622l-5.075-7.624h48.09l-5.076 7.624h9.623l-2.566 8.063a6.37 6.37 0 0 1-6.075 4.433h-2.654l-4.318 13.57a6.37 6.37 0 0 1-6.075 4.432zm-3.262-21.708c0 2.047 1.533 3.706 3.424 3.706s3.424-1.659 3.424-3.706-1.533-3.707-3.424-3.707-3.424 1.66-3.424 3.707m20.332 0c0 2.047-1.533 3.706-3.424 3.706s-3.424-1.659-3.424-3.706 1.533-3.707 3.424-3.707 3.424 1.66 3.424 3.707" clip-rule="evenodd"/><path fill="#2c2f6f" d="m299.588 210.756 37.016 5.742a10.13 10.13 0 0 1 8.514 8.901l.389 3.552h-30.73c-8.389 0-15.189-6.801-15.189-15.189zm27.73 68.449H295.26l.641 3.036a10.37 10.37 0 0 0 10.147 8.227h10.482a10.37 10.37 0 0 0 10.146-8.227z"/><path fill="#2c2f6f" d="M305.655 289.6h4.333v3.051a2.14 2.14 0 0 1-2.147 2.146 2.19 2.19 0 0 1-2.186-2.185zm6.98 0h4.333v3.051a2.14 2.14 0 0 1-2.147 2.146 2.19 2.19 0 0 1-2.186-2.185z"/><path fill="#fff8f7" d="M105.33 198.154h25.923v12.421H105.33z"/><path fill="#1e2054" d="m162.149 299.42-5.2-53.368-29.24-51.674-17.911.001-29.24 51.673-5.2 53.368h21.698l10.849-19.269h21.697l10.849 19.269z"/><path fill="#23191a" d="M129.87 272.684h8.204l3.714 26.733h-14.851zm-22.341 0h-8.204l-3.715 26.733h14.852z"/><path fill="#fccaf2" d="M103.83 272.67h29.843l-.929 4.377a10.82 10.82 0 0 1-10.581 8.573h-6.823a10.82 10.82 0 0 1-10.582-8.573z"/><rect width="4.451" height="8.011" x="120.548" y="281.11" fill="#fccaf2" rx="2.225"/><rect width="4.451" height="8.011" x="112.537" y="281.11" fill="#fccaf2" rx="2.225"/><path fill="#2c2f6f" fill-rule="evenodd" d="M115.356 225.786a6.48 6.48 0 0 1-7.139-2.755l-7.816-12.193-2.61.699a6.48 6.48 0 0 1-7.139-2.754l-4.644-7.245 9.46-2.535-6.997-6.153 47.274-12.667-2.983 8.827 9.46-2.535-.4 8.597a6.48 6.48 0 0 1-4.805 5.955l-2.609.699-.673 14.468a6.48 6.48 0 0 1-4.805 5.955zm-8.921-20.467c.539 2.011 2.482 3.237 4.341 2.739s2.93-2.532 2.391-4.543-2.483-3.237-4.342-2.739-2.929 2.532-2.39 4.543m19.987-5.356c.539 2.011-.531 4.045-2.39 4.543s-3.803-.728-4.342-2.739.532-4.045 2.39-4.543 3.803.728 4.342 2.739" clip-rule="evenodd"/><path fill="#1e2054" d="M41.689 246.407h52.347v53.514H41.689z"/><path fill="#000" d="M94.036 246.407h95.291v53.514H94.036z"/><path fill="#3c3f83" d="m189.328 246.407 20 28.292h-95.292l-20-28.292z"/><path fill="#ae8d0b" d="M135.515 274.699h12.332v25.222h-12.332zm-73.818-28.292h12.332v53.514H61.697z"/><path fill="#3c3f83" d="m94.036 246.407-20 28.292H21.689l20-28.292z"/></g><defs><clipPath id="a"><path fill="#fff" d="M0 0h375v300H0z"/></clipPath></defs></svg>