<svg fill="none" viewBox="0 0 60 60" xmlns="http://www.w3.org/2000/svg" xmlns:xlink="http://www.w3.org/1999/xlink"><radialGradient id="b" cx="0" cy="0" gradientTransform="matrix(0 -32.9123 49.2775 0 30 55.7243)" gradientUnits="userSpaceOnUse" r="1"><stop offset="0" stop-color="#4d1c00"/><stop offset="1" stop-color="#a33b00"/></radialGradient><radialGradient id="c" cx="0" cy="0" gradientTransform="matrix(-.52125164 -7.85964426 50.19084283 -3.32865693 28.9574 18.8822)" gradientUnits="userSpaceOnUse" r="1"><stop offset="0" stop-color="#6e2800"/><stop offset="1" stop-color="#a33b00"/></radialGradient><linearGradient id="a"><stop offset="0" stop-color="#f8bd28"/><stop offset="1" stop-color="#f8bd28" stop-opacity="0"/></linearGradient><radialGradient id="d" cx="0" cy="0" gradientTransform="matrix(0 8 -8.42102 0 30 29.7246)" gradientUnits="userSpaceOnUse" r="1" xlink:href="#a"/><linearGradient id="e" gradientUnits="userSpaceOnUse" x1="29.255" x2="29.255" y1="61.205" y2="35.853"><stop offset=".606" stop-color="#fff"/><stop offset="1" stop-color="#f8bd28"/></linearGradient><radialGradient id="f" cx="0" cy="0" gradientTransform="matrix(0 14 -14.7368 0 43.6842 25.7246)" gradientUnits="userSpaceOnUse" r="1" xlink:href="#a"/><radialGradient id="g" cx="0" cy="0" gradientTransform="matrix(0 14 -14.7368 0 16.3158 25.7246)" gradientUnits="userSpaceOnUse" r="1" xlink:href="#a"/><path d="M26.01 1.172c.189-.802 1.022-1.31 1.869-1.139l4.52.913c.728.147 1.25.759 1.25 1.467v6.154h-9.383z" fill="#1fc396"/><path d="M1.862 26.27C3.19 16.156 12.226 8.566 22.938 8.566h14.124c10.712 0 19.748 7.59 21.076 17.704l.885 6.737c1.585 12.063-8.3 22.717-21.076 22.717H22.053C9.277 55.724-.608 45.07.977 33.007z" fill="url(#b)"/><path d="M51.391 13.682c-3.809-3.196-8.82-5.116-14.26-5.116H22.87c-7.268 0-13.77 3.427-17.663 8.743z" fill="url(#c)"/><path clip-rule="evenodd" d="M4.775 17.023c3.988-5.447 10.65-8.957 18.094-8.957h14.262c5.572 0 10.706 1.967 14.609 5.241 3.856 3.235 6.51 7.748 7.193 12.9l.894 6.737c1.64 12.366-8.59 23.28-21.803 23.28H21.976C8.764 56.224-1.467 45.31.173 32.944l.894-6.736a19.94 19.94 0 0 1 3.708-9.185zm18.948 37.934c-5.878-2.505-9.716-8.411-8.857-14.893l2.893-21.811c.066-.495.164-.98.292-1.451l-7.02.551a19 19 0 0 0-3.707 8.98L6.43 33.07c-1.413 10.654 6.442 20.189 17.293 21.887zM9.677 17.459a19.919 19.919 0 0 0-3.398 8.749l-.893 6.737c-1.336 10.067 5.197 19.172 14.8 22.209C8.481 54.224-.268 44.265 1.217 33.069l.894-6.736A18.966 18.966 0 0 1 5.5 17.788zm2.225-1.178 6.483-.509c1.054-2.777 3.183-5.04 5.89-6.38-4.93.857-9.289 3.348-12.373 6.89zm7.267.433a10.14 10.14 0 0 0-.365 1.664l-2.893 21.81C14.852 48.169 21.455 55.225 30 55.225s15.148-7.056 14.09-15.035l-2.894-21.811a10.159 10.159 0 0 0-1.037-3.312zm20.43-2.608L19.55 15.681c1.694-3.915 5.769-6.615 10.45-6.615 4.023 0 7.598 1.995 9.599 5.04zm1.678.872c.48 1.019.81 2.118.963 3.275l2.893 21.81c.86 6.483-2.978 12.389-8.856 14.894C47.128 53.259 54.983 43.724 53.57 33.07l-.894-6.737c-.614-4.633-2.904-8.724-6.253-11.76zm4.06-1.322-4.571.359c-1.172-1.973-2.931-3.578-5.042-4.622a21.458 21.458 0 0 1 9.613 4.263zm2.464.81c3.163 3.116 5.314 7.178 5.92 11.742l.893 6.737c1.336 10.067-5.197 19.172-14.8 22.209 11.705-.93 20.454-10.888 18.969-22.085l-.894-6.736c-.64-4.828-3.098-9.065-6.68-12.135zm2.263-1.182-3.263.257A22.31 22.31 0 0 0 38.9 9.136c4.175.331 8.026 1.822 11.164 4.148zm-39.597 3.11-4.149.326c3.506-4.267 8.813-7.11 14.782-7.584-4.268 1.349-7.973 3.901-10.633 7.258z" fill="#ae3f00" fill-rule="evenodd"/><path d="M30 25.725c-1.77 0-3.54 2.826-4.059 5.509-.157.814.555 1.49 1.427 1.49h5.264c.872 0 1.584-.676 1.427-1.49-.52-2.683-2.29-5.51-4.059-5.51z" fill="#f8bd28"/><path d="M21.579 29.725c0-4.419 3.77-8 8.421-8s8.421 3.581 8.421 8-3.77 8-8.421 8-8.421-3.582-8.421-8z" fill="url(#d)" fill-opacity=".5"/><path d="M30 48.725c9.427 0 17.645-4.672 21.968-11.59.4-.64-.121-1.41-.922-1.41H8.954c-.801 0-1.321.77-.921 1.41 4.323 6.918 12.54 11.59 21.967 11.59z" fill="#f8bd28"/><path d="M18.653 58.35c-1.187-.13-2.003-1.154-1.772-2.226L21.224 36h17.723L36.05 58.345c-.133 1.029-1.153 1.764-2.278 1.642z" fill="url(#e)"/><g fill="#08162c"><path d="m35.526 42.15-5.939-.67.45-3.608 1.055.118-.313 2.507 1.425.16.251-2.01 1.038.117-.251 2.01 1.376.155.334-2.673 1.045.118z"/><path d="m35.42 42.999-.165 1.323-2.192 1.036-.08.648 2.034.23-.138 1.101-5.943-.669.266-2.134c.17-1.362 1.087-1.873 2.227-1.744.947.106 1.485.611 1.649 1.358l.016.002zm-5.3 2.685 1.825.205.098-.784c.086-.69-.231-1.1-.783-1.162s-.956.258-1.037.91z"/><path d="m34.284 52.106-5.939-.669.45-3.608 1.054.118-.313 2.507 1.426.16.25-2.01 1.038.117-.25 2.01 1.376.155.334-2.673 1.045.118z"/><path d="m33.561 57.9-5.938-.67.14-1.12 2.573.289.288-2.309-2.573-.29.14-1.125 5.939.669-.14 1.125-2.316-.26-.289 2.308 2.316.26z"/><path d="m28.132 41.942-5.939-.668.14-1.122 4.894.551.312-2.507 1.046.118z"/><path d="m27.57 46.444-5.938-.67.14-1.12 4.893.55.313-2.506 1.045.117z"/><path d="M27.207 49.92c-.17 1.358-1.187 2.176-2.808 1.994l-3.484-.392.14-1.122 3.406.384c.854.096 1.555-.246 1.648-.987.085-.683-.41-1.239-1.357-1.345l-3.406-.384.14-1.117 3.483.392c1.544.174 2.42 1.126 2.238 2.577z"/><path d="m26.244 57.075-5.939-.668.26-2.088c.172-1.37 1.087-1.869 2.227-1.74 1.303.146 1.824 1.043 1.67 2.285l-.11.88 2.03.23zm-2.934-1.447.093-.741c.087-.703-.233-1.093-.78-1.155-.551-.062-.955.25-1.036.903l-.099.788z"/></g><path d="M28.947 25.725c0-7.732 6.598-14 14.737-14s14.737 6.268 14.737 14-6.598 14-14.737 14-14.737-6.268-14.737-14z" fill="url(#f)" fill-opacity=".5"/><path d="M1.579 25.725c0-7.732 6.598-14 14.737-14s14.737 6.268 14.737 14-6.598 14-14.737 14c-8.14 0-14.737-6.268-14.737-14z" fill="url(#g)" fill-opacity=".5"/><g fill="#f8bd28"><path d="M51.053 26.725c0 3.866-3.3 6-7.369 6-4.07 0-7.368-2.134-7.368-6s3.299-8 7.368-8c4.07 0 7.369 4.134 7.369 8z"/><path d="M23.684 26.725c0 3.866-3.299 6-7.368 6-4.07 0-7.368-2.134-7.368-6s3.298-8 7.368-8 7.368 4.134 7.368 8z"/></g></svg>