<svg xmlns="http://www.w3.org/2000/svg" fill="none" viewBox="0 0 35 22"><path fill="currentColor" d="M22.255.02c-2.852.74-5.212 2.241-7.062 4.542-.941 1.17-1.642 2.475-2.162 3.955-.063-.145-.097-.213-.124-.285-1.639-4.227-4.643-6.945-8.992-8.18-.228-.065-.392-.071-.576.145C.566 3.454-.531 7.184.24 11.407c.532 2.916 1.958 5.36 4.177 7.323 2.33 2.064 5.07 3.167 8.17 3.263 3.528.11 6.628-1.048 9.236-3.448 2.506-2.305 3.914-5.182 4.176-8.57.288-3.734-.879-7.012-3.347-9.826-.117-.133-.216-.178-.398-.13Zm4.84 3.624c1.04 2.872 1.229 5.768.581 8.724h6.644V3.644h-7.225Z"/></svg>