<svg fill="none" xmlns="http://www.w3.org/2000/svg" viewBox="0 0 9 11"><path d="M1.552 10.896a1.01 1.01 0 0 1-.744-.31A1.02 1.02 0 0 1 .5 9.84V4.799c0-.29.103-.54.31-.746.207-.207.456-.31.746-.31h.278V2.566c0-.716.248-1.322.744-1.82A2.463 2.463 0 0 1 4.391 0c.713 0 1.316.249 1.81.746.494.498.741 1.104.741 1.82v1.177h.278c.29 0 .54.103.746.31.207.207.31.455.31.746v5.04c0 .291-.103.54-.31.747-.207.207-.456.31-.746.31H1.552Zm.004-1.056H7.22V4.799H1.556v5.04Zm1.335-6.097h2.995V2.56c0-.415-.145-.77-.435-1.064a1.434 1.434 0 0 0-1.061-.44 1.44 1.44 0 0 0-1.063.439 1.459 1.459 0 0 0-.436 1.068v1.179Z" fill="currentColor"/></svg>