<svg fill="none" xmlns="http://www.w3.org/2000/svg" viewBox="0 0 10 11"><path d="M1.486 9.564h5.235V4.916H1.486v4.648Zm-.003 1.186c-.327 0-.605-.116-.836-.348A1.145 1.145 0 0 1 .3 9.564V4.916c0-.327.116-.606.349-.838.232-.232.511-.349.837-.349H4.2v-.987c0-.696.24-1.286.717-1.768A2.374 2.374 0 0 1 6.67.25c.69 0 1.274.241 1.75.724.477.482.715 1.07.715 1.765H7.948c0-.361-.123-.67-.37-.923a1.22 1.22 0 0 0-.91-.38c-.36 0-.663.127-.911.38a1.271 1.271 0 0 0-.372.923v.99h1.336c.327 0 .606.117.838.349.232.232.349.511.349.838v4.648c0 .326-.117.605-.35.838a1.143 1.143 0 0 1-.837.348H1.483Z" fill="currentColor" /></svg>