<svg width="18" height="16" viewBox="0 0 18 16" fill="none" xmlns="http://www.w3.org/2000/svg">
<path d="M14.447 15.632C13.453 15.632 12.612 15.288 11.925 14.602C11.238 13.914 10.895 13.074 10.895 12.079C10.895 11.084 11.238 10.243 11.925 9.557C12.612 8.87 13.453 8.527 14.447 8.527C15.442 8.527 16.283 8.87 16.97 9.557C17.657 10.243 18 11.084 18 12.079C18 13.074 17.657 13.914 16.97 14.601C16.283 15.288 15.442 15.631 14.447 15.631V15.632ZM14.447 13.737C14.905 13.737 15.297 13.575 15.62 13.251C15.943 12.928 16.105 12.537 16.105 12.079C16.105 11.621 15.943 11.23 15.62 10.907C15.4681 10.7501 15.2856 10.6261 15.0838 10.5425C14.8821 10.4589 14.6654 10.4176 14.447 10.421C13.99 10.421 13.599 10.583 13.275 10.907C13.1182 11.0588 12.9942 11.2411 12.9106 11.4427C12.827 11.6442 12.7856 11.8608 12.789 12.079C12.789 12.537 12.951 12.928 13.275 13.251C13.599 13.575 13.989 13.737 14.447 13.737ZM1.421 13.027V11.132H9V13.026H1.421V13.027ZM3.553 7.105C2.558 7.105 1.717 6.762 1.03 6.075C0.343 5.388 0 4.547 0 3.553C0 2.558 0.343 1.717 1.03 1.03C1.717 0.343 2.558 0 3.553 0C4.547 0 5.388 0.343 6.075 1.03C6.762 1.717 7.105 2.558 7.105 3.553C7.105 4.547 6.762 5.388 6.075 6.075C5.388 6.762 4.547 7.105 3.553 7.105ZM3.553 5.211C4.011 5.211 4.401 5.049 4.725 4.725C5.049 4.401 5.211 4.011 5.211 3.553C5.211 3.095 5.049 2.703 4.725 2.38C4.57313 2.2234 4.39079 2.09957 4.18921 2.01616C3.98764 1.93274 3.77112 1.89151 3.553 1.895C3.33474 1.89155 3.11808 1.9328 2.91635 2.0162C2.71462 2.09961 2.53209 2.22342 2.38 2.38C2.22327 2.53199 2.09937 2.71449 2.01596 2.91625C1.93254 3.118 1.89137 3.33471 1.895 3.553C1.895 4.011 2.057 4.401 2.38 4.725C2.704 5.049 3.095 5.211 3.553 5.211ZM9 4.5V2.605H16.579V4.5H9Z" fill="currentColor"/>
</svg>
