<svg xmlns="http://www.w3.org/2000/svg" fill="none" viewBox="0 0 16 18"><path fill="currentColor" d="M7.17 18a1.72 1.72 0 0 1-1.265-.529 1.737 1.737 0 0 1-.527-1.271h3.586c0 .495-.176.919-.527 1.271A1.723 1.723 0 0 1 7.171 18ZM0 15.3v-1.8h1.793V7.2c0-1.26.377-2.378 1.131-3.353a5.096 5.096 0 0 1 2.947-1.89c-.15.33-.265.675-.347 1.036-.082.36-.138.727-.168 1.102a3.74 3.74 0 0 0-1.278 1.283A3.436 3.436 0 0 0 3.585 7.2v6.3h7.171v-2.745a6.011 6.011 0 0 0 1.793 0V13.5h1.793v1.8H0ZM10.756 9l-.269-1.35a6.343 6.343 0 0 1-.504-.236 3.899 3.899 0 0 1-.482-.304l-1.3.405-.896-1.53 1.031-.9a3.858 3.858 0 0 1 0-1.17l-1.03-.9.896-1.53 1.3.405a3.92 3.92 0 0 1 .481-.304c.157-.082.325-.161.504-.236l.27-1.35h1.792l.269 1.35c.18.075.347.154.504.236.157.083.318.184.482.304l1.3-.405.896 1.53-1.03.9a3.854 3.854 0 0 1 0 1.17l1.03.9-.896 1.53-1.3-.405c-.164.12-.325.221-.482.304a6.325 6.325 0 0 1-.504.236L12.549 9h-1.793Zm.897-2.7a1.72 1.72 0 0 0 1.266-.529 1.74 1.74 0 0 0 .526-1.271c0-.495-.175-.919-.526-1.271a1.723 1.723 0 0 0-1.266-.529 1.72 1.72 0 0 0-1.266.529A1.737 1.737 0 0 0 9.86 4.5c0 .495.176.919.527 1.271.35.353.773.529 1.266.529Z"/></svg>