<svg xmlns="http://www.w3.org/2000/svg" fill="none" viewBox="0 0 28 28"><path fill="#fff" d="M28 14c0 7.732-6.268 14-14 14S0 21.732 0 14 6.268 0 14 0s14 6.268 14 14Z"/><path fill="#05A1E6" fill-rule="evenodd" d="M28 14c0 7.732-6.268 14-14 14S0 21.732 0 14 6.268 0 14 0s14 6.268 14 14Zm-13.498-3.665c-1.362.567-4.084 1.739-8.165 3.517-.663.264-1.01.522-1.041.774-.054.426.48.594 1.206.822l.307.097c.714.233 1.676.505 2.176.515.453.01.96-.177 1.518-.56 3.813-2.575 5.782-3.876 5.905-3.904.087-.02.208-.044.29.028.082.073.074.211.065.248-.053.225-2.147 2.172-3.23 3.18-.339.314-.578.537-.627.588-.11.114-.222.222-.33.325-.663.64-1.162 1.12.028 1.905.572.376 1.03.688 1.486.999.498.34.995.678 1.639 1.1.163.107.32.218.472.327.58.413 1.101.785 1.745.726.374-.035.76-.386.957-1.436.464-2.479 1.376-7.851 1.586-10.065a2.47 2.47 0 0 0-.023-.551.59.59 0 0 0-.2-.38c-.167-.135-.426-.164-.542-.162-.526.01-1.334.29-5.222 1.907Z" clip-rule="evenodd"/></svg>