<svg width="400" height="400" viewBox="0 0 400 400" fill="none" xmlns="http://www.w3.org/2000/svg">
  <path d="M400 200C400 89.5431 310.457 0 200 0C89.5431 0 0 89.5431 0 200C0 310.457 89.5431 400 200 400C310.457 400 400 310.457 400 200Z" fill="#F2CD16"/>
  <path d="M148.659 298.081C153.915 301.927 160.26 304.001 166.774 304H233.227C239.741 304.001 246.085 301.927 251.342 298.081C256.599 294.234 260.494 288.814 262.464 282.605L283.242 217.111H296.017C309.384 217.111 321.213 208.456 325.254 195.716L337.6 156.8H291.291L315.716 120H231.645L200.383 216.711C200.356 216.795 200.302 216.868 200.231 216.92C200.16 216.972 200.074 217 199.985 217C199.897 217 199.811 216.972 199.74 216.92C199.668 216.868 199.615 216.795 199.588 216.711L168.326 120H84.2839L108.71 156.8H62.3999L74.7469 195.716C76.7169 201.925 80.6123 207.345 85.8689 211.192C91.1255 215.038 97.4702 217.111 103.984 217.111H116.758L137.537 282.605C139.507 288.814 143.402 294.234 148.659 298.081Z" fill="#544003"/>
</svg>
