<svg xmlns="http://www.w3.org/2000/svg" fill="none" viewBox="0 0 92 99"><path fill="currentColor" fill-rule="evenodd" d="M56.885 98.817c4.461 0 8.41-2.88 9.758-7.12L73.578 69.9h4.264c4.462 0 8.41-2.88 9.759-7.12l4.12-12.952H76.266l8.152-12.247H7.304l8.153 12.247H0L4.12 62.78a10.234 10.234 0 0 0 9.76 7.12h4.263l6.936 21.797a10.235 10.235 0 0 0 9.758 7.12h22.047Zm5.239-34.87c0 3.287-2.463 5.953-5.5 5.953-3.038 0-5.5-2.666-5.5-5.954s2.462-5.953 5.5-5.953c3.037 0 5.5 2.665 5.5 5.953Zm-32.526 0c0 3.287 2.462 5.953 5.5 5.953 3.037 0 5.5-2.666 5.5-5.954s-2.463-5.953-5.5-5.953c-3.038 0-5.5 2.665-5.5 5.953Z" clip-rule="evenodd"/><path fill="currentColor" fill-rule="evenodd" d="M27.57 18.792C27.57 8.414 35.982 0 46.36 0c10.38 0 18.793 8.414 18.793 18.792v6.48h-9.072v-6.48c0-5.368-4.352-9.72-9.72-9.72-5.369 0-9.72 4.352-9.72 9.72v18.792h-9.073V18.792Z" clip-rule="evenodd"/></svg>