<svg xmlns="http://www.w3.org/2000/svg" fill="none" viewBox="0 0 92 99"><path fill="currentColor" fill-rule="evenodd" d="M34.793 98.938a10.221 10.221 0 0 1-9.746-7.112L18.12 70.057h-4.258a10.221 10.221 0 0 1-9.746-7.111L0 50.01h15.437L7.295 37.779h77.148L76.3 50.011h15.437l-4.116 12.935a10.221 10.221 0 0 1-9.746 7.111h-4.259l-6.926 21.77a10.222 10.222 0 0 1-9.746 7.11H34.793ZM29.56 64.11c0 3.284 2.46 5.946 5.493 5.946 3.034 0 5.493-2.662 5.493-5.946s-2.46-5.946-5.493-5.946c-3.034 0-5.493 2.662-5.493 5.946Zm32.618 0c0 3.284-2.46 5.946-5.493 5.946-3.034 0-5.493-2.662-5.493-5.946s2.459-5.946 5.493-5.946c3.033 0 5.493 2.662 5.493 5.946Z" clip-rule="evenodd"/><path fill="currentColor" d="M34.22 15.866 22.57 0v24.593h46.597V0L57.518 15.866 45.868 0 34.22 15.866Z"/></svg>