<svg xmlns="http://www.w3.org/2000/svg" fill="none" viewBox="0 0 90 83"><path fill="currentColor" fill-rule="evenodd" d="M31.69.952C14.188.952 0 15.155 0 32.675s14.188 31.723 31.69 31.723v18.075L74.562 59.95C83.805 54.397 90 44.215 90 32.675 90 15.27 75.905.952 58.518.952H31.69Zm20.228 13 .77 6.51 6.394-2.63L66 29.072l-5.625 3.88L66 36.832l-6.918 11.24-6.394-2.63-.77 6.51H38.082l-.77-6.51-6.394 2.63L24 36.832l5.625-3.88L24 29.072l6.918-11.24 6.394 2.63.77-6.51h13.836Zm-17.158 19 5.207-8.794H50.38l5.207 8.794-5.207 8.795H39.967l-5.207-8.795Zm10.414 3.931c2.3 0 4.165-1.76 4.165-3.93 0-2.172-1.865-3.932-4.165-3.932s-4.166 1.76-4.166 3.931c0 2.171 1.865 3.931 4.166 3.931Z" clip-rule="evenodd"/></svg>