<svg fill="none" height="104" viewBox="0 0 136 104" width="136" xmlns="http://www.w3.org/2000/svg"><g fill="#23191a"><path d="m89.5 93c25.681 0 46.5-20.8188 46.5-46.5s-20.819-46.5-46.5-46.5c-16.0637 0-30.2249 8.14541-38.5787 20.5312h53.3427l-11.2597 16.8673h21.3477l-5.692 17.8374c-1.863 5.8391-7.315 9.8063-13.4772 9.8063h-5.8887l-8.6516 27.1152c2.8674.553 5.8286.8426 8.8575.8426z"/><path d="m73.4747 56.8428c0 4.5284-3.4009 8.1994-7.596 8.1994-4.1952 0-7.5961-3.671-7.5961-8.1994s3.4009-8.1994 7.5961-8.1994c4.1951 0 7.596 3.671 7.596 8.1994z"/><path clip-rule="evenodd" d="m43.1727 42.4766h-35.84896l8.17416 12.2798h-15.4979l4.13182 12.986c1.35255 4.251 5.31094 7.1393 9.78448 7.1393h4.2752l6.9536 21.8548c1.3526 4.2505 5.311 7.1395 9.7845 7.1395h22.2395c4.4735 0 8.4319-2.889 9.7845-7.1395l2.6134-8.2139c-15.707-7.4642-26.5659-23.4753-26.5659-42.0226 0-1.3555.058-2.6974.1716-4.0234zm-7.9818 32.4051c-3.0457 0-5.5147-2.6726-5.5147-5.9694s2.469-5.9694 5.5147-5.9694c3.0456 0 5.5146 2.6726 5.5146 5.9694s-2.469 5.9694-5.5146 5.9694z" fill-rule="evenodd"/></g></svg>