<svg fill="none" height="78" viewBox="0 0 170 78" width="170" xmlns="http://www.w3.org/2000/svg"><g fill="#23191a"><path clip-rule="evenodd" d="m47.155 8h37.8432 37.8428l-7.988 11.999h15.145l-4.037 12.691c-1.322 4.1542-5.19 6.9767-9.562 6.9767h-4.178l-6.795 21.3566c-1.322 4.1543-5.19 6.9767-9.5616 6.9767h-21.7324c-4.3716 0-8.24-2.8224-9.5616-6.9767l-6.7953-21.3566h-4.1775c-4.3719 0-8.2401-2.8225-9.5617-6.9767l-4.0377-12.691h15.1448zm53.843 25.8334c0 3.2217-2.4124 5.8333-5.3886 5.8333s-5.3891-2.6116-5.3891-5.8333c0-3.2218 2.4129-5.8334 5.3891-5.8334s5.3886 2.6116 5.3886 5.8334zm-31.9998 0c0 3.2217 2.4129 5.8333 5.3891 5.8333s5.389-2.6116 5.389-5.8333c0-3.2218-2.4128-5.8334-5.389-5.8334s-5.3891 2.6116-5.3891 5.8334z" fill-rule="evenodd"/><path d="m122.998 0v8.00348h28.661l-8.256 12.40192h15.653l-4.173 13.1171c-1.366 4.2937-5.364 7.2109-9.883 7.2109h-4.318l-7.023 22.0737c-1.366 4.2938-5.365 7.211-9.883 7.211h-.778v7.9819h1.597c7.65-.3386 14.344-5.4021 16.687-12.7676l5.271-16.5642c7.342-.6191 13.685-5.5916 15.953-12.7203l7.49-23.5425h-11.657l8.256-12.40191527h-36.05v-.00348473z"/><path d="m46.9982 0v8.00348h-28.6607l8.2562 12.40192h-15.6533l4.1733 13.1171c1.366 4.2937 5.3639 7.2109 9.8826 7.2109h4.3178l7.0235 22.0737c1.366 4.2938 5.3643 7.211 9.8827 7.211h.7779v7.9819h-1.5964c-7.6508-.3386-14.3445-5.4021-16.6877-12.7676l-5.2705-16.5642c-7.3424-.6191-13.68547-5.5916-15.9534-12.7203l-7.49017711-23.5425h11.65727711l-8.25615-12.40191527h36.05025v-.00348473z"/></g></svg>