<svg xmlns="http://www.w3.org/2000/svg" fill="none" viewBox="0 0 92 129"><path fill="currentColor" d="M48.922 0h-6.447v13.12h6.447V0Z"/><path fill="currentColor" fill-rule="evenodd" d="M30.477 67.944H7.267l8.113 12.185H0l4.1 12.888a10.183 10.183 0 0 0 9.71 7.085h4.243l6.9 21.688a10.183 10.183 0 0 0 9.71 7.085h22.07c4.44 0 8.369-2.866 9.71-7.085l6.901-21.688h4.243c4.44 0 8.368-2.867 9.71-7.085l4.1-12.888h-15.38l8.112-12.186H60.973l5.437-17.086c4.454-14.001-5.994-28.29-20.685-28.29-14.692 0-25.14 14.289-20.685 28.29l5.437 17.087Zm0 0h11.998V52.227h6.447v15.717h12.05L57.04 80.302H34.41l-3.932-12.36Zm25.997 32.158c3.023 0 5.473-2.652 5.473-5.924 0-3.272-2.45-5.924-5.473-5.924-3.022 0-5.472 2.652-5.472 5.924 0 3.272 2.45 5.924 5.472 5.924Zm-21.551 0c-3.023 0-5.473-2.652-5.473-5.924 0-3.272 2.45-5.924 5.473-5.924 3.022 0 5.473 2.652 5.473 5.924 0 3.272-2.45 5.924-5.473 5.924Z" clip-rule="evenodd"/><path fill="currentColor" d="m11.276 15.593 4.56-4.559 9.397 9.397-4.559 4.559-9.398-9.397ZM.242 42.233v6.448h13.12v-6.448H.241Zm77.794 6.447v-6.447h13.12v6.448h-13.12ZM66.164 20.434l4.559 4.558 9.398-9.396-4.56-4.562-9.397 9.4Z"/></svg>