<svg xmlns="http://www.w3.org/2000/svg" fill="none" viewBox="0 0 86 61"><path fill="currentColor" d="M58.316 30.3c0 3.257-2.44 5.899-5.45 5.899-3.01 0-5.45-2.642-5.45-5.9 0-3.258 2.44-5.899 5.45-5.899 3.01 0 5.45 2.641 5.45 5.9Zm-25.998 5.899c-3.01 0-5.45-2.642-5.45-5.9 0-3.258 2.44-5.899 5.45-5.899 3.01 0 5.45 2.641 5.45 5.9 0 3.257-2.44 5.899-5.45 5.899Z"/><path fill="currentColor" fill-rule="evenodd" d="M77.325 11.456 85.285 0H.525l7.96 11.456A30.371 30.371 0 0 0 1.81 30.5c0 16.845 13.656 30.5 30.5 30.5H53.5C70.345 61 84 47.345 84 30.5a30.372 30.372 0 0 0-6.675-19.044Zm-21.5 36.26c8.066-1.792 14.69-8.82 14.69-17.216 0-9.644-7.732-17.486-17.336-17.658a5.089 5.089 0 0 0-.214 0H32.204c-.072-.001-.143-.002-.215 0-9.604.172-17.336 8.014-17.336 17.658 0 8.408 7.12 15.443 15.332 17.223 2.467.535 4.858 1.67 6.298 3.744L42.905 61l6.623-9.533c1.44-2.073 3.832-3.204 6.296-3.751Z" clip-rule="evenodd"/></svg>