<svg fill="none" height="241" viewBox="0 0 405 241" width="405" xmlns="http://www.w3.org/2000/svg" xmlns:xlink="http://www.w3.org/1999/xlink"><clipPath id="a"><path d="m0 .9375h405v240h-405z"/></clipPath><g clip-path="url(#a)"><path clip-rule="evenodd" d="m197.847 241.218c41.481 0 75.109-33.628 75.109-75.109s-33.628-75.109-75.109-75.109c-41.48 0-75.109 33.628-75.109 75.109s33.629 75.109 75.109 75.109z" fill="#ed60e9" fill-rule="evenodd"/><path d="m166.252 132.927 9.898-9.927 21.35 21.412 21.35-21.412 9.898 9.927-24.248 24.322v22.967h-14v-22.967z" fill="#490072"/><path d="m218.396 171.69c.068.73.104 1.465.104 2.208 0 11.633-9.401 21.061-21 21.061s-21-9.428-21-21.061c0-1.023.066-2.032.191-3.025.164-1.275.427-2.52.78-3.724l-10.697-10.728c-2.726 5.375-4.274 11.383-4.274 17.477 0 19.388 15.671 35.102 35 35.102s35-15.714 35-35.102c0-6.094-1.548-12.102-4.271-17.477l-10.7 10.728c.427 1.462.722 2.981.867 4.541z" fill="#490072"/><path clip-rule="evenodd" d="m329.5 241.218c41.48 0 75.109-33.628 75.109-75.109s-33.629-75.109-75.109-75.109c-41.481 0-75.109 33.628-75.109 75.109s33.628 75.109 75.109 75.109z" fill="#fccaf2" fill-rule="evenodd"/><path clip-rule="evenodd" d="m317.27 207.037c-4.919 0-9.272-3.176-10.759-7.85l-7.646-24.032h-4.701c-4.919 0-9.272-3.175-10.759-7.85l-4.544-14.279h17.042l-8.989-13.503h85.165l-8.988 13.503h17.041l-4.543 14.279c-1.488 4.675-5.84 7.85-10.759 7.85h-4.701l-7.646 24.032c-1.488 4.674-5.84 7.85-10.759 7.85zm-5.777-38.445c0 3.625 2.715 6.563 6.064 6.563s6.064-2.938 6.064-6.563c0-3.626-2.715-6.564-6.064-6.564s-6.064 2.938-6.064 6.564zm36.007 0c0 3.625-2.715 6.563-6.063 6.563-3.349 0-6.064-2.938-6.064-6.563 0-3.626 2.715-6.564 6.064-6.564 3.348 0 6.063 2.938 6.063 6.564z" fill="#490072" fill-rule="evenodd"/><path d="m260.5 66.5 15.767-5.7333 5.733-15.7667 5.733 15.7667 15.767 5.7333-15.767 5.7333-5.733 15.7667-5.733-15.7667z" fill="#ec4612"/><path d="m231.5 103.5 8.433-3.067 3.067-8.433 3.067 8.433 8.433 3.067-8.433 3.067-3.067 8.433-3.067-8.433z" fill="#fccaf2"/></g></svg>