<svg fill="none" viewBox="0 0 376 200" xmlns="http://www.w3.org/2000/svg"><path d="m0 100c0-55.228 44.772-100 100-100h44v200h-44c-55.228 0-100-44.772-100-100z" fill="#a91808"/><path d="m44 100c0-55.228 44.772-100 100-100h44v200h-44c-55.228 0-100-44.772-100-100z" fill="#f2cd16"/><path d="m88 100c0-55.228 44.772-100 100-100h88v200h-88c-55.228 0-100-44.772-100-100z" fill="#710408"/><path d="m132 100c0-55.228 44.75-100 99.953-100h44.047v200h-44.047c-55.203 0-99.953-44.772-99.953-100z" fill="#3fc4ff"/><circle cx="276" cy="100" fill="#ec4612" r="100"/><path d="m286.217 40.27v22.532h-17.393v-22.532zm0 96.584v22.532h-17.393v-22.532zm-24.376-23.586c0 3.426.702 6.369 2.108 8.828 1.405 2.46 3.338 4.349 5.798 5.666 2.547 1.23 5.49 1.845 8.828 1.845 2.811 0 5.183-.483 7.115-1.449 2.021-1.055 3.514-2.372 4.48-3.953 1.054-1.582 1.581-3.251 1.581-5.007 0-2.548-.922-4.744-2.767-6.589-1.757-1.932-4.304-3.294-7.642-4.084l-10.937-2.636c-7.73-1.844-13.835-5.138-18.315-9.882s-6.72-10.41-6.72-16.998c0-5.358 1.493-10.145 4.48-14.362 3.075-4.217 7.072-7.467 11.991-9.75 4.919-2.372 10.146-3.558 15.68-3.558 5.973 0 11.288 1.405 15.943 4.216 4.656 2.723 8.258 6.457 10.805 11.2 2.547 4.656 3.821 9.839 3.821 15.549h-18.71c0-3.778-1.186-6.852-3.558-9.224-2.284-2.46-5.315-3.69-9.092-3.69-2.459 0-4.612.484-6.456 1.45-1.757.966-3.119 2.196-4.085 3.69-.878 1.493-1.318 3.03-1.318 4.611 0 1.933.659 3.69 1.977 5.27 1.317 1.494 3.47 2.592 6.456 3.295l10.673 2.635c9.224 2.284 16.076 5.754 20.556 10.41 4.567 4.655 6.851 10.672 6.851 18.051 0 5.71-1.405 10.761-4.216 15.153s-6.72 7.818-11.727 10.278c-4.919 2.372-10.498 3.558-16.734 3.558-6.589 0-12.606-1.406-18.052-4.217s-9.795-6.808-13.045-11.991c-3.25-5.27-4.875-11.375-4.875-18.315z" fill="#f2cd16"/></svg>