<svg width="336" height="172" viewBox="0 0 336 172" fill="none" xmlns="http://www.w3.org/2000/svg">
<g clip-path="url(#clip0_2205_5829)">
<rect x="128" y="46" width="80" height="80" rx="40" fill="#3FC4FF"/>
<path d="M137.524 126C137.524 109.169 151.169 95.5242 168.001 95.5242C184.832 95.5242 198.477 109.169 198.477 126H137.524Z" fill="#012F7A"/>
<rect x="154.667" y="55.5242" width="26.6667" height="33.3333" rx="13.3333" fill="#012F7A"/>
</g>
<ellipse cx="40" cy="39.9135" rx="40" ry="39.9135" transform="matrix(4.37114e-08 1 1 -4.37114e-08 208 92)" fill="#005EB7"/>
<ellipse cx="40" cy="39.9135" rx="40" ry="39.9135" transform="matrix(4.37114e-08 1 1 -4.37114e-08 256.173 92)" fill="#3FC4FF"/>
<path d="M272.001 100.098C262.384 107.401 256.173 118.972 256.173 131.997C256.173 145.021 262.384 156.592 272.001 163.895C281.617 156.592 287.828 145.021 287.828 131.997C287.828 118.972 281.617 107.401 272.001 100.098Z" fill="#F2CD16"/>
<ellipse cx="88.0865" cy="40" rx="40" ry="39.9135" transform="rotate(90 88.0865 40)" fill="#F2CD16"/>
<ellipse cx="39.9136" cy="40" rx="40" ry="39.9135" transform="rotate(90 39.9136 40)" fill="#012F7A"/>
<path d="M63.9994 8.09766C73.6156 15.4014 79.8271 26.972 79.8271 39.9965C79.8271 53.021 73.6156 64.5916 63.9994 71.8954C54.3831 64.5916 48.1716 53.021 48.1716 39.9965C48.1716 26.972 54.3831 15.4014 63.9994 8.09766Z" fill="#00A1FF"/>
<ellipse cx="40" cy="39.9135" rx="40" ry="39.9135" transform="matrix(4.37114e-08 1 1 -4.37114e-08 0 92)" fill="#00A1FF"/>
<ellipse cx="40" cy="39.9135" rx="40" ry="39.9135" transform="matrix(4.37114e-08 1 1 -4.37114e-08 48.1729 92)" fill="#012F7A"/>
<path d="M64.0006 100.098C54.3844 107.401 48.1729 118.972 48.1729 131.997C48.1729 145.021 54.3844 156.592 64.0006 163.895C73.6169 156.592 79.8284 145.021 79.8284 131.997C79.8284 118.972 73.6169 107.401 64.0006 100.098Z" fill="#3FC4FF"/>
<ellipse cx="296.086" cy="40" rx="40" ry="39.9135" transform="rotate(90 296.086 40)" fill="#012F7A"/>
<ellipse cx="247.914" cy="40" rx="40" ry="39.9135" transform="rotate(90 247.914 40)" fill="#005EB7"/>
<path d="M271.999 8.09766C281.616 15.4014 287.827 26.972 287.827 39.9965C287.827 53.021 281.616 64.5916 271.999 71.8954C262.383 64.5916 256.172 53.021 256.172 39.9965C256.172 26.972 262.383 15.4014 271.999 8.09766Z" fill="#3FC4FF"/>
<defs>
<clipPath id="clip0_2205_5829">
<rect x="128" y="46" width="80" height="80" rx="40" fill="white"/>
</clipPath>
</defs>
</svg>
