<svg width="593" height="593" viewBox="0 0 593 593" fill="none" xmlns="http://www.w3.org/2000/svg">
<g clip-path="url(#clip0_2054_31776)">
<rect width="593" height="593" fill="#BCEC79"/>
<circle cx="593" r="532" fill="#6FC025"/>
<path d="M40.5054 418L42.3673 420.182L30.8764 430.014L29.0145 427.832L40.5054 418ZM41.1745 428.531C41.1745 430.451 40.6994 432.216 39.7491 433.825C38.7988 435.435 37.5091 436.705 35.88 437.636C34.2509 438.567 32.4667 439.032 30.5273 439.032C28.5879 439.032 26.8036 438.567 25.1745 437.636C23.5454 436.705 22.2557 435.435 21.3054 433.825C20.3551 432.216 19.88 430.451 19.88 428.531C19.88 426.611 20.3551 424.856 21.3054 423.265C22.2557 421.656 23.5454 420.385 25.1745 419.454C26.8036 418.523 28.5879 418.058 30.5273 418.058C32.4667 418.058 34.2509 418.523 35.88 419.454C37.5091 420.385 38.7988 421.656 39.7491 423.265C40.6994 424.856 41.1745 426.611 41.1745 428.531ZM38.1491 428.531C38.1491 427.154 37.8097 425.903 37.1309 424.778C36.4327 423.634 35.5115 422.732 34.3673 422.072C33.2036 421.413 31.9236 421.083 30.5273 421.083C29.1309 421.083 27.8606 421.413 26.7164 422.072C25.5527 422.732 24.6315 423.634 23.9527 424.778C23.2545 425.903 22.9054 427.154 22.9054 428.531C22.9054 429.908 23.2545 431.168 23.9527 432.312C24.6315 433.437 25.5527 434.339 26.7164 435.018C27.8606 435.677 29.1309 436.007 30.5273 436.007C31.9236 436.007 33.2036 435.677 34.3673 435.018C35.5115 434.339 36.4327 433.437 37.1309 432.312C37.8097 431.168 38.1491 429.908 38.1491 428.531ZM41.1745 408.984C41.1745 410.089 40.9321 411.059 40.4473 411.893C39.9624 412.727 39.2545 413.377 38.3236 413.842C37.3927 414.288 36.2776 414.511 34.9782 414.511L25.9891 414.511L25.9891 411.486L34.8327 411.486C35.8218 411.486 36.6267 411.166 37.2473 410.526C37.8679 409.866 38.1782 409.061 38.1782 408.111C38.1782 407.471 38.0327 406.889 37.7418 406.366C37.4315 405.842 37.0145 405.435 36.4909 405.144C35.9479 404.834 35.3564 404.678 34.7164 404.678L25.9891 404.678L25.9891 401.653L41 401.653L41 404.62L38.9054 404.62C39.6036 405.047 40.1564 405.658 40.5636 406.453C40.9709 407.229 41.1745 408.072 41.1745 408.984ZM25.9891 383.605L41 383.605L41 386.63L38.76 386.63C39.5357 387.193 40.137 387.871 40.5636 388.667C40.9709 389.462 41.1745 390.364 41.1745 391.372C41.1745 392.574 40.8351 393.68 40.1564 394.688C39.4776 395.697 38.5564 396.492 37.3927 397.074C36.2097 397.656 34.9103 397.947 33.4945 397.947C32.0788 397.947 30.7891 397.656 29.6254 397.074C28.4424 396.492 27.5115 395.697 26.8327 394.688C26.1539 393.68 25.8145 392.574 25.8145 391.372C25.8145 390.364 26.0376 389.452 26.4836 388.637C26.9103 387.823 27.5018 387.154 28.2582 386.63L25.9891 386.63L25.9891 383.605ZM38.2073 390.761C38.2073 389.966 37.9939 389.258 37.5673 388.637C37.1406 387.997 36.5685 387.503 35.8509 387.154C35.1333 386.805 34.3479 386.63 33.4945 386.63C32.6412 386.63 31.8557 386.805 31.1382 387.154C30.4206 387.503 29.8582 387.997 29.4509 388.637C29.0242 389.258 28.8109 389.966 28.8109 390.761C28.8109 391.537 29.0242 392.245 29.4509 392.885C29.8582 393.525 30.4206 394.029 31.1382 394.397C31.8557 394.747 32.6412 394.921 33.4945 394.921C34.3479 394.921 35.1333 394.747 35.8509 394.397C36.5685 394.029 37.1406 393.525 37.5673 392.885C37.9939 392.245 38.2073 391.537 38.2073 390.761ZM25.8145 371.687C25.8145 370.581 26.057 369.612 26.5418 368.778C27.0267 367.944 27.7345 367.304 28.6654 366.858C29.5964 366.392 30.7115 366.16 32.0109 366.16L41 366.16L41 369.185L32.1564 369.185C31.1673 369.185 30.3624 369.515 29.7418 370.174C29.1212 370.814 28.8109 371.609 28.8109 372.56C28.8109 373.2 28.966 373.781 29.2764 374.305C29.5673 374.829 29.9842 375.246 30.5273 375.556C31.0509 375.847 31.6327 375.992 32.2727 375.992L41 375.992L41 379.018L25.9891 379.018L25.9891 376.05L28.0836 376.05C27.3854 375.624 26.8327 375.023 26.4254 374.247C26.0182 373.452 25.8145 372.598 25.8145 371.687ZM38.3527 356.218C38.3527 355.636 38.2945 355.045 38.1782 354.444L40.8545 354.444C41.0679 355.064 41.1745 355.821 41.1745 356.713C41.1745 357.663 41.0194 358.478 40.7091 359.156C40.3988 359.816 39.9139 360.33 39.2545 360.698C38.5757 361.047 37.7127 361.222 36.6654 361.222L28.6364 361.222L28.6364 363.782L25.9891 363.782L25.9891 361.222L21.7418 361.222L21.7418 358.196L25.9891 358.196L25.9891 354.356L28.6364 354.356L28.6364 358.196L36.6073 358.196C37.2085 358.196 37.6545 358.022 37.9454 357.673C38.217 357.324 38.3527 356.839 38.3527 356.218ZM23.8654 349.459C23.8654 350.06 23.6521 350.574 23.2254 351.001C22.7988 351.427 22.2848 351.641 21.6836 351.641C21.063 351.641 20.5491 351.427 20.1418 351.001C19.7151 350.574 19.5018 350.06 19.5018 349.459C19.5018 348.838 19.7151 348.315 20.1418 347.888C20.5491 347.442 21.063 347.219 21.6836 347.219C22.2848 347.219 22.7988 347.442 23.2254 347.888C23.6521 348.334 23.8654 348.858 23.8654 349.459ZM41 351.001L25.9891 351.001L25.9891 347.975L41 347.975L41 351.001ZM38.3527 337.406C38.3527 336.824 38.2945 336.232 38.1782 335.631L40.8545 335.631C41.0679 336.252 41.1745 337.008 41.1745 337.9C41.1745 338.851 41.0194 339.665 40.7091 340.344C40.3988 341.003 39.9139 341.517 39.2545 341.886C38.5757 342.235 37.7127 342.409 36.6654 342.409L28.6364 342.409L28.6364 344.969L25.9891 344.969L25.9891 342.409L21.7418 342.409L21.7418 339.384L25.9891 339.384L25.9891 335.544L28.6364 335.544L28.6364 339.384L36.6073 339.384C37.2085 339.384 37.6545 339.209 37.9454 338.86C38.217 338.511 38.3527 338.026 38.3527 337.406ZM40.7091 319.446C42.1442 319.446 43.4242 319.746 44.5491 320.348C45.6933 320.949 46.5757 321.783 47.1964 322.849C47.8364 323.897 48.1564 325.099 48.1564 326.457C48.1564 327.853 47.8751 329.065 47.3127 330.093C46.7697 331.101 46.0424 331.887 45.1309 332.449C44.2388 333.012 43.2788 333.322 42.2509 333.38L42.2509 330.209C43.2206 330.093 43.9673 329.715 44.4909 329.075C45.0339 328.415 45.3054 327.523 45.3054 326.398C45.3054 325.196 44.8982 324.246 44.0836 323.548C43.2691 322.83 42.183 322.471 40.8254 322.471L38.9636 322.471C39.6036 322.995 40.137 323.654 40.5636 324.449C40.9709 325.244 41.1745 326.088 41.1745 326.98C41.1745 328.066 40.903 329.017 40.36 329.831C39.817 330.626 39.0897 331.247 38.1782 331.693C37.2473 332.12 36.2097 332.333 35.0654 332.333L25.9891 332.333L25.9891 329.308L34.7164 329.308C35.337 329.308 35.9188 329.162 36.4618 328.871C36.9854 328.561 37.4024 328.144 37.7127 327.62C38.023 327.097 38.1782 326.524 38.1782 325.904C38.1782 325.283 38.023 324.711 37.7127 324.188C37.383 323.664 36.9564 323.247 36.4327 322.937C35.9091 322.626 35.337 322.471 34.7164 322.471L25.9891 322.471L25.9891 319.446L40.7091 319.446ZM41.1745 299.702C41.1745 301.06 40.8351 302.291 40.1564 303.397C39.4582 304.502 38.5273 305.375 37.3636 306.015C36.1806 306.655 34.8909 306.975 33.4945 306.975C32.0982 306.975 30.8182 306.655 29.6545 306.015C28.4715 305.375 27.5406 304.502 26.8618 303.397C26.1636 302.291 25.8145 301.06 25.8145 299.702L25.8145 299.673C25.8145 298.316 26.1636 297.084 26.8618 295.979C27.5406 294.873 28.4715 294 29.6545 293.36C30.8182 292.72 32.0982 292.4 33.4945 292.4C34.8909 292.4 36.1806 292.72 37.3636 293.36C38.5273 294 39.4582 294.873 40.1564 295.979C40.8351 297.084 41.1745 298.316 41.1745 299.673L41.1745 299.702ZM38.2073 299.673C38.2073 298.859 37.9939 298.131 37.5673 297.491C37.1406 296.851 36.5685 296.347 35.8509 295.979C35.1333 295.61 34.3479 295.426 33.4945 295.426C32.6606 295.426 31.8848 295.61 31.1673 295.979C30.4497 296.347 29.8776 296.861 29.4509 297.52C29.0048 298.16 28.7818 298.878 28.7818 299.673L28.7818 299.702C28.7818 300.497 28.9951 301.225 29.4218 301.884C29.8485 302.524 30.4206 303.028 31.1382 303.397C31.8557 303.765 32.6412 303.95 33.4945 303.95C34.3479 303.95 35.1333 303.765 35.8509 303.397C36.5685 303.028 37.1406 302.524 37.5673 301.884C37.9939 301.225 38.2073 300.497 38.2073 299.702L38.2073 299.673ZM25.9891 290.151L25.9891 280.842L28.6363 280.842L28.6363 290.151L25.9891 290.151ZM22.9636 280.958C22.7891 281.52 22.7018 282.063 22.7018 282.587C22.7018 283.227 22.8473 283.741 23.1382 284.129C23.4291 284.517 23.9139 284.711 24.5927 284.711L41 284.711L41 287.736L24.68 287.736C23.7297 287.736 22.8957 287.552 22.1782 287.183C21.4412 286.796 20.8788 286.262 20.4909 285.583C20.0836 284.885 19.88 284.08 19.88 283.169C19.88 282.742 19.9091 282.354 19.9673 282.005C20.006 281.637 20.0739 281.317 20.1709 281.045L20.2 280.958L22.9636 280.958ZM30.1782 257.166C30.6242 256.042 31.3224 255.169 32.2727 254.548C33.223 253.928 34.2606 253.627 35.3854 253.646C36.3939 253.646 37.3345 253.928 38.2073 254.49C39.0606 255.033 39.7394 255.77 40.2436 256.701C40.7479 257.612 41 258.582 41 259.61L41 268.803L20.0545 268.803L20.0545 260.454C20.0545 259.387 20.3067 258.398 20.8109 257.486C21.3151 256.555 22.0036 255.818 22.8763 255.275C23.7297 254.732 24.6606 254.461 25.6691 254.461C26.6194 254.461 27.4921 254.713 28.2873 255.217C29.0824 255.702 29.703 256.352 30.1491 257.166L30.1782 257.166ZM23.08 265.777L28.84 265.777L28.84 260.337C28.84 259.814 28.7139 259.338 28.4618 258.912C28.1903 258.466 27.8412 258.117 27.4145 257.865C26.9685 257.612 26.503 257.486 26.0182 257.486C25.4945 257.486 25.0097 257.622 24.5636 257.894C24.0982 258.146 23.7394 258.505 23.4873 258.97C23.2157 259.416 23.08 259.911 23.08 260.454L23.08 265.777ZM37.9745 259.61C37.9745 259.086 37.8388 258.602 37.5673 258.155C37.2957 257.69 36.9273 257.331 36.4618 257.079C35.9963 256.808 35.4921 256.672 34.9491 256.672C34.406 256.672 33.9018 256.808 33.4363 257.079C32.9515 257.331 32.5733 257.69 32.3018 258.155C32.0303 258.602 31.8945 259.086 31.8945 259.61L31.8945 265.777L37.9745 265.777L37.9745 259.61ZM38.3527 235.451C38.3527 234.869 38.2945 234.278 38.1782 233.677L40.8545 233.677C41.0679 234.297 41.1745 235.054 41.1745 235.946C41.1745 236.896 41.0194 237.711 40.7091 238.389C40.3988 239.049 39.9139 239.563 39.2545 239.931C38.5757 240.28 37.7127 240.455 36.6654 240.455L28.6363 240.455L28.6363 243.015L25.9891 243.015L25.9891 240.455L21.7418 240.455L21.7418 237.429L25.9891 237.429L25.9891 233.589L28.6363 233.589L28.6363 237.429L36.6073 237.429C37.2085 237.429 37.6545 237.255 37.9454 236.906C38.217 236.557 38.3527 236.072 38.3527 235.451ZM41.1745 224.288C41.1745 225.645 40.8351 226.877 40.1563 227.982C39.4582 229.088 38.5273 229.96 37.3636 230.6C36.1806 231.24 34.8909 231.56 33.4945 231.56C32.0982 231.56 30.8182 231.24 29.6545 230.6C28.4715 229.96 27.5406 229.088 26.8618 227.982C26.1636 226.877 25.8145 225.645 25.8145 224.288L25.8145 224.258C25.8145 222.901 26.1636 221.669 26.8618 220.564C27.5406 219.458 28.4715 218.586 29.6545 217.946C30.8182 217.306 32.0982 216.986 33.4945 216.986C34.8909 216.986 36.1806 217.306 37.3636 217.946C38.5273 218.586 39.4582 219.458 40.1563 220.564C40.8351 221.669 41.1745 222.901 41.1745 224.258L41.1745 224.288ZM38.2073 224.258C38.2073 223.444 37.9939 222.717 37.5673 222.077C37.1406 221.437 36.5685 220.932 35.8509 220.564C35.1333 220.195 34.3479 220.011 33.4945 220.011C32.6606 220.011 31.8848 220.195 31.1673 220.564C30.4497 220.932 29.8776 221.446 29.4509 222.106C29.0048 222.746 28.7818 223.463 28.7818 224.258L28.7818 224.288C28.7818 225.083 28.9951 225.81 29.4218 226.469C29.8485 227.109 30.4206 227.614 31.1382 227.982C31.8557 228.351 32.6412 228.535 33.4945 228.535C34.3479 228.535 35.1333 228.351 35.8509 227.982C36.5685 227.614 37.1406 227.109 37.5673 226.469C37.9939 225.81 38.2073 225.083 38.2073 224.288L38.2073 224.258ZM20.0545 210.399L41 210.399L41 213.453L20.0545 213.453L20.0545 210.399ZM31.6327 206.297L41 199.839L41 203.359L32.2145 209.439L31.6327 206.297ZM25.9891 200.42L32.7963 206.646L33.8436 207.81L37.3054 211.039L34.8327 212.29L25.9891 204.231L25.9891 200.42ZM34.4254 195.857C35.6085 195.721 36.5782 195.294 37.3345 194.577C38.0715 193.84 38.44 192.86 38.44 191.638C38.44 190.979 38.3236 190.417 38.0909 189.951C37.8582 189.466 37.5673 189.078 37.2182 188.788C36.8691 188.497 36.5297 188.293 36.2 188.177L36.2 185.064C36.8012 185.161 37.4897 185.452 38.2654 185.937C39.0218 186.402 39.7006 187.12 40.3018 188.089C40.8836 189.04 41.1745 190.223 41.1745 191.638C41.1745 193.054 40.8448 194.324 40.1854 195.449C39.5066 196.555 38.5854 197.418 37.4218 198.038C36.2388 198.659 34.9297 198.969 33.4945 198.969C32.0788 198.969 30.7891 198.659 29.6254 198.038C28.4424 197.418 27.5115 196.555 26.8327 195.449C26.1539 194.344 25.8145 193.122 25.8145 191.784C25.8145 190.484 26.1539 189.301 26.8327 188.235C27.5115 187.149 28.4327 186.305 29.5963 185.704C30.7406 185.103 31.9818 184.802 33.32 184.802C33.6303 184.802 33.9988 184.821 34.4254 184.86L34.4254 195.857ZM28.5491 191.784C28.5491 192.87 28.8885 193.762 29.5673 194.46C30.2266 195.139 31.0897 195.575 32.1563 195.769L32.1563 187.886C31.4776 188.002 30.8666 188.225 30.3236 188.555C29.7806 188.884 29.3539 189.331 29.0436 189.893C28.7139 190.436 28.5491 191.066 28.5491 191.784ZM25.8145 174.016C25.8145 172.911 26.057 171.941 26.5418 171.107C27.0266 170.273 27.7345 169.633 28.6654 169.187C29.5963 168.722 30.7115 168.489 32.0109 168.489L41 168.489L41 171.515L32.1563 171.515C31.1673 171.515 30.3624 171.844 29.7418 172.504C29.1212 173.144 28.8109 173.939 28.8109 174.889C28.8109 175.529 28.966 176.111 29.2763 176.635C29.5673 177.158 29.9842 177.575 30.5273 177.885C31.0509 178.176 31.6327 178.322 32.2727 178.322L41 178.322L41 181.347L25.9891 181.347L25.9891 178.38L28.0836 178.38C27.3854 177.953 26.8327 177.352 26.4254 176.576C26.0182 175.781 25.8145 174.928 25.8145 174.016ZM36.0545 162.076C36.52 162.057 36.937 161.94 37.3054 161.727C37.6739 161.494 37.9648 161.184 38.1782 160.796C38.3915 160.389 38.4982 159.923 38.4982 159.4C38.4982 158.682 38.3333 158.1 38.0036 157.654C37.6545 157.208 37.2085 156.985 36.6654 156.985C36.1418 156.985 35.7345 157.179 35.4436 157.567C35.1527 157.935 34.9103 158.537 34.7163 159.37L34.3091 161.058C34.0182 162.241 33.543 163.162 32.8836 163.821C32.2048 164.461 31.2836 164.781 30.12 164.781C29.3054 164.781 28.5685 164.558 27.9091 164.112C27.2497 163.647 26.7357 163.017 26.3673 162.221C25.9988 161.407 25.8145 160.495 25.8145 159.487C25.8145 158.459 26.0569 157.557 26.5418 156.781C27.0073 156.006 27.6085 155.404 28.3454 154.978C29.0824 154.551 29.8388 154.338 30.6145 154.338L30.6145 157.189C29.9551 157.227 29.4218 157.47 29.0145 157.916C28.5879 158.343 28.3745 158.886 28.3745 159.545C28.3745 160.185 28.5394 160.718 28.8691 161.145C29.1988 161.552 29.606 161.756 30.0909 161.756C30.5369 161.756 30.886 161.63 31.1382 161.378C31.3903 161.126 31.5842 160.718 31.72 160.156L32.1273 158.294C32.4376 156.859 32.9806 155.783 33.7563 155.065C34.5127 154.347 35.4339 153.989 36.52 153.989C37.4315 153.989 38.2363 154.221 38.9345 154.687C39.6327 155.133 40.1854 155.783 40.5927 156.636C40.9806 157.47 41.1745 158.44 41.1745 159.545C41.1745 160.709 40.9224 161.717 40.4182 162.57C39.9139 163.404 39.2739 164.044 38.4982 164.49C37.703 164.917 36.8885 165.14 36.0545 165.16L36.0545 162.076Z" fill="#194D06"/>
<path d="M174.034 572.505L171.852 574.367L162.02 562.876L164.202 561.015L174.034 572.505ZM163.503 573.175C161.583 573.175 159.819 572.699 158.209 571.749C156.599 570.799 155.329 569.509 154.398 567.88C153.467 566.251 153.002 564.467 153.002 562.527C153.002 560.588 153.467 558.804 154.398 557.175C155.329 555.545 156.599 554.256 158.209 553.305C159.819 552.355 161.583 551.88 163.503 551.88C165.423 551.88 167.179 552.355 168.769 553.305C170.379 554.256 171.649 555.545 172.58 557.175C173.511 558.804 173.976 560.588 173.976 562.527C173.976 564.467 173.511 566.251 172.58 567.88C171.649 569.509 170.379 570.799 168.769 571.749C167.179 572.699 165.423 573.175 163.503 573.175ZM163.503 570.149C164.88 570.149 166.131 569.81 167.256 569.131C168.4 568.433 169.302 567.512 169.962 566.367C170.621 565.204 170.951 563.924 170.951 562.527C170.951 561.131 170.621 559.861 169.962 558.716C169.302 557.553 168.4 556.632 167.256 555.953C166.131 555.255 164.88 554.905 163.503 554.905C162.126 554.905 160.866 555.255 159.722 555.953C158.597 556.632 157.695 557.553 157.016 558.716C156.357 559.861 156.027 561.131 156.027 562.527C156.027 563.924 156.357 565.204 157.016 566.367C157.695 567.512 158.597 568.433 159.722 569.131C160.866 569.81 162.126 570.149 163.503 570.149ZM183.05 573.175C181.945 573.175 180.975 572.932 180.141 572.447C179.307 571.962 178.657 571.255 178.192 570.324C177.746 569.393 177.523 568.278 177.523 566.978V557.989H180.548V566.833C180.548 567.822 180.868 568.627 181.508 569.247C182.168 569.868 182.973 570.178 183.923 570.178C184.563 570.178 185.145 570.033 185.668 569.742C186.192 569.432 186.599 569.015 186.89 568.491C187.201 567.948 187.356 567.356 187.356 566.716V557.989H190.381V573H187.414V570.905C186.987 571.604 186.376 572.156 185.581 572.564C184.805 572.971 183.962 573.175 183.05 573.175ZM208.429 557.989V573H205.404V570.76C204.841 571.536 204.163 572.137 203.367 572.564C202.572 572.971 201.671 573.175 200.662 573.175C199.46 573.175 198.354 572.835 197.346 572.156C196.337 571.478 195.542 570.556 194.96 569.393C194.378 568.21 194.087 566.91 194.087 565.495C194.087 564.079 194.378 562.789 194.96 561.625C195.542 560.442 196.337 559.512 197.346 558.833C198.354 558.154 199.46 557.815 200.662 557.815C201.671 557.815 202.582 558.038 203.397 558.484C204.211 558.91 204.88 559.502 205.404 560.258V557.989H208.429ZM201.273 570.207C202.068 570.207 202.776 569.994 203.397 569.567C204.037 569.141 204.531 568.568 204.88 567.851C205.229 567.133 205.404 566.348 205.404 565.495C205.404 564.641 205.229 563.856 204.88 563.138C204.531 562.421 204.037 561.858 203.397 561.451C202.776 561.024 202.068 560.811 201.273 560.811C200.497 560.811 199.789 561.024 199.149 561.451C198.509 561.858 198.005 562.421 197.637 563.138C197.287 563.856 197.113 564.641 197.113 565.495C197.113 566.348 197.287 567.133 197.637 567.851C198.005 568.568 198.509 569.141 199.149 569.567C199.789 569.994 200.497 570.207 201.273 570.207ZM220.347 557.815C221.453 557.815 222.422 558.057 223.256 558.542C224.09 559.027 224.73 559.735 225.176 560.665C225.642 561.596 225.875 562.712 225.875 564.011V573H222.849V564.156C222.849 563.167 222.519 562.362 221.86 561.742C221.22 561.121 220.425 560.811 219.475 560.811C218.835 560.811 218.253 560.966 217.729 561.276C217.205 561.567 216.788 561.984 216.478 562.527C216.187 563.051 216.042 563.633 216.042 564.273V573H213.016V557.989H215.984V560.084C216.41 559.385 217.012 558.833 217.787 558.425C218.582 558.018 219.436 557.815 220.347 557.815ZM235.816 570.353C236.398 570.353 236.989 570.295 237.59 570.178V572.855C236.97 573.068 236.213 573.175 235.321 573.175C234.371 573.175 233.557 573.019 232.878 572.709C232.218 572.399 231.704 571.914 231.336 571.255C230.987 570.576 230.812 569.713 230.812 568.665V560.636H228.252V557.989H230.812V553.742H233.838V557.989H237.678V560.636H233.838V568.607C233.838 569.208 234.012 569.655 234.361 569.945C234.71 570.217 235.195 570.353 235.816 570.353ZM242.575 555.865C241.974 555.865 241.46 555.652 241.033 555.225C240.607 554.799 240.393 554.285 240.393 553.684C240.393 553.063 240.607 552.549 241.033 552.142C241.46 551.715 241.974 551.502 242.575 551.502C243.196 551.502 243.719 551.715 244.146 552.142C244.592 552.549 244.815 553.063 244.815 553.684C244.815 554.285 244.592 554.799 244.146 555.225C243.7 555.652 243.176 555.865 242.575 555.865ZM241.033 573V557.989H244.059V573H241.033ZM254.628 570.353C255.21 570.353 255.802 570.295 256.403 570.178V572.855C255.782 573.068 255.026 573.175 254.134 573.175C253.184 573.175 252.369 573.019 251.69 572.709C251.031 572.399 250.517 571.914 250.148 571.255C249.799 570.576 249.625 569.713 249.625 568.665V560.636H247.065V557.989H249.625V553.742H252.65V557.989H256.49V560.636H252.65V568.607C252.65 569.208 252.825 569.655 253.174 569.945C253.523 570.217 254.008 570.353 254.628 570.353ZM272.588 572.709C272.588 574.144 272.288 575.424 271.687 576.549C271.085 577.693 270.251 578.576 269.185 579.196C268.138 579.836 266.935 580.156 265.577 580.156C264.181 580.156 262.969 579.875 261.941 579.313C260.933 578.77 260.147 578.042 259.585 577.131C259.022 576.239 258.712 575.279 258.654 574.251H261.825C261.941 575.221 262.319 575.967 262.959 576.491C263.619 577.034 264.511 577.305 265.636 577.305C266.838 577.305 267.788 576.898 268.487 576.084C269.204 575.269 269.563 574.183 269.563 572.825V570.964C269.039 571.604 268.38 572.137 267.585 572.564C266.79 572.971 265.946 573.175 265.054 573.175C263.968 573.175 263.017 572.903 262.203 572.36C261.408 571.817 260.787 571.09 260.341 570.178C259.914 569.247 259.701 568.21 259.701 567.065V557.989H262.727V566.716C262.727 567.337 262.872 567.919 263.163 568.462C263.473 568.985 263.89 569.402 264.414 569.713C264.937 570.023 265.51 570.178 266.13 570.178C266.751 570.178 267.323 570.023 267.847 569.713C268.37 569.383 268.787 568.956 269.097 568.433C269.408 567.909 269.563 567.337 269.563 566.716V557.989H272.588V572.709ZM292.332 573.175C290.974 573.175 289.743 572.835 288.637 572.156C287.532 571.458 286.659 570.527 286.019 569.364C285.379 568.181 285.059 566.891 285.059 565.495C285.059 564.098 285.379 562.818 286.019 561.655C286.659 560.472 287.532 559.541 288.637 558.862C289.743 558.164 290.974 557.815 292.332 557.815H292.361C293.718 557.815 294.95 558.164 296.055 558.862C297.161 559.541 298.034 560.472 298.674 561.655C299.314 562.818 299.634 564.098 299.634 565.495C299.634 566.891 299.314 568.181 298.674 569.364C298.034 570.527 297.161 571.458 296.055 572.156C294.95 572.835 293.718 573.175 292.361 573.175H292.332ZM292.361 570.207C293.175 570.207 293.903 569.994 294.543 569.567C295.183 569.141 295.687 568.568 296.055 567.851C296.424 567.133 296.608 566.348 296.608 565.495C296.608 564.661 296.424 563.885 296.055 563.167C295.687 562.45 295.173 561.878 294.514 561.451C293.874 561.005 293.156 560.782 292.361 560.782H292.332C291.537 560.782 290.809 560.995 290.15 561.422C289.51 561.848 289.006 562.421 288.637 563.138C288.269 563.856 288.085 564.641 288.085 565.495C288.085 566.348 288.269 567.133 288.637 567.851C289.006 568.568 289.51 569.141 290.15 569.567C290.809 569.994 291.537 570.207 292.332 570.207H292.361ZM301.883 557.989H311.193V560.636H301.883V557.989ZM311.076 554.964C310.514 554.789 309.971 554.702 309.447 554.702C308.807 554.702 308.293 554.847 307.905 555.138C307.517 555.429 307.323 555.914 307.323 556.593V573H304.298V556.68C304.298 555.73 304.482 554.896 304.851 554.178C305.239 553.441 305.772 552.879 306.451 552.491C307.149 552.084 307.954 551.88 308.865 551.88C309.292 551.88 309.68 551.909 310.029 551.967C310.397 552.006 310.717 552.074 310.989 552.171L311.076 552.2V554.964ZM325.355 567.269V564.418H336.41V567.269H325.355ZM337.777 573L332.977 560.811C332.802 560.384 332.628 559.967 332.453 559.56C332.298 559.153 332.153 558.745 332.017 558.338C331.862 557.95 331.707 557.562 331.551 557.175C331.416 556.787 331.28 556.389 331.144 555.982H331.115C331.018 556.215 330.921 556.447 330.824 556.68C330.747 556.913 330.669 557.145 330.591 557.378C330.378 557.941 330.155 558.513 329.922 559.095C329.709 559.657 329.486 560.229 329.253 560.811L324.453 573H321.195L329.428 552.055H332.802L341.064 573H337.777ZM358.515 570.353C359.097 570.353 359.688 570.295 360.289 570.178V572.855C359.669 573.068 358.912 573.175 358.02 573.175C357.07 573.175 356.255 573.019 355.577 572.709C354.917 572.399 354.403 571.914 354.035 571.255C353.686 570.576 353.511 569.713 353.511 568.665V560.636H350.951V557.989H353.511V553.742H356.537V557.989H360.377V560.636H356.537V568.607C356.537 569.208 356.711 569.655 357.06 569.945C357.409 570.217 357.894 570.353 358.515 570.353ZM369.678 573.175C368.321 573.175 367.089 572.835 365.984 572.156C364.878 571.458 364.006 570.527 363.366 569.364C362.726 568.181 362.406 566.891 362.406 565.495C362.406 564.098 362.726 562.818 363.366 561.655C364.006 560.472 364.878 559.541 365.984 558.862C367.089 558.164 368.321 557.815 369.678 557.815H369.707C371.065 557.815 372.297 558.164 373.402 558.862C374.507 559.541 375.38 560.472 376.02 561.655C376.66 562.818 376.98 564.098 376.98 565.495C376.98 566.891 376.66 568.181 376.02 569.364C375.38 570.527 374.507 571.458 373.402 572.156C372.297 572.835 371.065 573.175 369.707 573.175H369.678ZM369.707 570.207C370.522 570.207 371.249 569.994 371.889 569.567C372.529 569.141 373.034 568.568 373.402 567.851C373.771 567.133 373.955 566.348 373.955 565.495C373.955 564.661 373.771 563.885 373.402 563.167C373.034 562.45 372.52 561.878 371.86 561.451C371.22 561.005 370.503 560.782 369.707 560.782H369.678C368.883 560.782 368.156 560.995 367.497 561.422C366.857 561.848 366.352 562.421 365.984 563.138C365.615 563.856 365.431 564.641 365.431 565.495C365.431 566.348 365.615 567.133 365.984 567.851C366.352 568.568 366.857 569.141 367.497 569.567C368.156 569.994 368.883 570.207 369.678 570.207H369.707ZM383.567 552.055V573H380.513V552.055H383.567ZM387.669 563.633L394.127 573H390.607L384.527 564.215L387.669 563.633ZM393.545 557.989L387.32 564.796L386.156 565.844L382.927 569.305L381.676 566.833L389.735 557.989H393.545ZM398.109 566.425C398.245 567.608 398.672 568.578 399.389 569.335C400.126 570.072 401.106 570.44 402.328 570.44C402.987 570.44 403.549 570.324 404.015 570.091C404.5 569.858 404.888 569.567 405.178 569.218C405.469 568.869 405.673 568.53 405.789 568.2H408.902C408.805 568.801 408.514 569.49 408.029 570.265C407.564 571.022 406.846 571.701 405.877 572.302C404.926 572.884 403.743 573.175 402.328 573.175C400.912 573.175 399.641 572.845 398.517 572.185C397.411 571.507 396.548 570.585 395.928 569.422C395.307 568.239 394.997 566.93 394.997 565.495C394.997 564.079 395.307 562.789 395.928 561.625C396.548 560.442 397.411 559.512 398.517 558.833C399.622 558.154 400.844 557.815 402.182 557.815C403.481 557.815 404.664 558.154 405.731 558.833C406.817 559.512 407.661 560.433 408.262 561.596C408.863 562.741 409.164 563.982 409.164 565.32C409.164 565.63 409.144 565.999 409.106 566.425H398.109ZM402.182 560.549C401.096 560.549 400.204 560.888 399.506 561.567C398.827 562.227 398.391 563.09 398.197 564.156H406.08C405.964 563.478 405.741 562.867 405.411 562.324C405.081 561.781 404.635 561.354 404.073 561.044C403.53 560.714 402.9 560.549 402.182 560.549ZM419.95 557.815C421.055 557.815 422.025 558.057 422.859 558.542C423.693 559.027 424.333 559.735 424.779 560.665C425.244 561.596 425.477 562.712 425.477 564.011V573H422.451V564.156C422.451 563.167 422.122 562.362 421.462 561.742C420.822 561.121 420.027 560.811 419.077 560.811C418.437 560.811 417.855 560.966 417.331 561.276C416.808 561.567 416.391 561.984 416.08 562.527C415.79 563.051 415.644 563.633 415.644 564.273V573H412.619V557.989H415.586V560.084C416.013 559.385 416.614 558.833 417.39 558.425C418.185 558.018 419.038 557.815 419.95 557.815ZM431.89 568.055C431.909 568.52 432.026 568.937 432.239 569.305C432.472 569.674 432.782 569.965 433.17 570.178C433.577 570.392 434.043 570.498 434.566 570.498C435.284 570.498 435.866 570.333 436.312 570.004C436.758 569.655 436.981 569.208 436.981 568.665C436.981 568.142 436.787 567.735 436.399 567.444C436.031 567.153 435.429 566.91 434.595 566.716L432.908 566.309C431.725 566.018 430.804 565.543 430.145 564.884C429.505 564.205 429.185 563.284 429.185 562.12C429.185 561.305 429.408 560.568 429.854 559.909C430.319 559.25 430.949 558.736 431.745 558.367C432.559 557.999 433.471 557.815 434.479 557.815C435.507 557.815 436.409 558.057 437.185 558.542C437.96 559.007 438.562 559.608 438.988 560.345C439.415 561.082 439.628 561.839 439.628 562.615H436.777C436.738 561.955 436.496 561.422 436.05 561.015C435.623 560.588 435.08 560.375 434.421 560.375C433.781 560.375 433.248 560.539 432.821 560.869C432.414 561.199 432.21 561.606 432.21 562.091C432.21 562.537 432.336 562.886 432.588 563.138C432.84 563.39 433.248 563.584 433.81 563.72L435.672 564.127C437.107 564.438 438.183 564.981 438.901 565.756C439.618 566.513 439.977 567.434 439.977 568.52C439.977 569.432 439.745 570.236 439.279 570.935C438.833 571.633 438.183 572.185 437.33 572.593C436.496 572.981 435.526 573.175 434.421 573.175C433.257 573.175 432.249 572.922 431.395 572.418C430.562 571.914 429.922 571.274 429.475 570.498C429.049 569.703 428.826 568.888 428.806 568.055H431.89Z" fill="#194D06"/>
<path d="M238.382 299.989C238.402 300.842 238.586 301.589 238.935 302.229C239.303 302.869 239.798 303.364 240.419 303.713C241.039 304.062 241.776 304.236 242.629 304.236C243.405 304.236 244.074 304.091 244.637 303.8C245.199 303.49 245.616 303.102 245.888 302.636C246.179 302.171 246.324 301.667 246.324 301.124C246.324 300.367 246.072 299.727 245.568 299.204C245.063 298.68 244.355 298.292 243.444 298.04L240.971 297.371C239.303 296.905 238.033 296.178 237.16 295.189C236.307 294.2 235.88 293.036 235.88 291.698C235.88 290.632 236.162 289.662 236.724 288.789C237.306 287.897 238.091 287.189 239.08 286.665C240.089 286.142 241.223 285.88 242.484 285.88C243.783 285.88 244.918 286.19 245.888 286.811C246.877 287.432 247.623 288.236 248.128 289.225C248.651 290.195 248.913 291.223 248.913 292.309H245.888C245.868 291.301 245.529 290.467 244.869 289.807C244.229 289.148 243.405 288.818 242.397 288.818C241.699 288.818 241.088 288.954 240.564 289.225C240.04 289.497 239.643 289.856 239.371 290.302C239.1 290.728 238.964 291.184 238.964 291.669C238.964 292.29 239.158 292.852 239.546 293.356C239.953 293.841 240.612 294.21 241.524 294.462L243.968 295.131C245.771 295.596 247.129 296.333 248.04 297.342C248.971 298.331 249.437 299.582 249.437 301.095C249.437 302.219 249.155 303.247 248.593 304.178C248.05 305.09 247.265 305.817 246.237 306.36C245.209 306.903 244.006 307.175 242.629 307.175C241.291 307.175 240.069 306.884 238.964 306.302C237.859 305.701 236.976 304.857 236.317 303.771C235.657 302.685 235.308 301.424 235.269 299.989H238.382ZM268.371 286.055V299.378C268.371 300.775 268.012 302.074 267.294 303.276C266.596 304.479 265.646 305.429 264.443 306.127C263.26 306.825 261.971 307.175 260.574 307.175C259.158 307.175 257.849 306.825 256.647 306.127C255.464 305.429 254.523 304.479 253.825 303.276C253.127 302.074 252.778 300.775 252.778 299.378V286.055H255.803V299.378C255.803 300.232 256.017 301.027 256.443 301.764C256.87 302.481 257.442 303.063 258.16 303.509C258.897 303.936 259.701 304.149 260.574 304.149C261.428 304.149 262.213 303.936 262.931 303.509C263.668 303.063 264.249 302.481 264.676 301.764C265.122 301.027 265.345 300.232 265.345 299.378V286.055H268.371ZM273.03 286.055H276.055V307H273.03V286.055ZM287.895 307H284.491L280.186 298.476L282.63 296.644L287.895 307ZM281.233 286.055C282.358 286.055 283.415 286.365 284.404 286.985C285.413 287.587 286.208 288.392 286.79 289.4C287.371 290.408 287.662 291.475 287.662 292.6C287.662 293.744 287.371 294.821 286.79 295.829C286.208 296.818 285.422 297.623 284.433 298.244C283.444 298.845 282.378 299.145 281.233 299.145H273.03V296.12H281.233C281.854 296.12 282.426 295.965 282.95 295.655C283.473 295.325 283.881 294.888 284.171 294.345C284.482 293.802 284.637 293.221 284.637 292.6C284.637 291.999 284.482 291.427 284.171 290.884C283.881 290.321 283.473 289.885 282.95 289.575C282.426 289.245 281.854 289.08 281.233 289.08H273.03V286.055H281.233ZM291.257 286.055H294.282V307H291.257V286.055ZM299.402 286.055C300.605 286.055 301.701 286.375 302.69 287.015C303.698 287.635 304.484 288.45 305.046 289.458C305.628 290.447 305.919 291.495 305.919 292.6C305.919 293.705 305.638 294.762 305.075 295.771C304.513 296.76 303.727 297.575 302.719 298.215C301.73 298.835 300.624 299.145 299.402 299.145H291.257V296.12H299.373C300.033 296.12 300.624 295.965 301.148 295.655C301.691 295.325 302.108 294.888 302.399 294.345C302.709 293.802 302.864 293.221 302.864 292.6C302.864 291.979 302.709 291.398 302.399 290.855C302.108 290.312 301.691 289.885 301.148 289.575C300.624 289.245 300.033 289.08 299.373 289.08H291.257V286.055H299.402ZM309.342 286.055H312.368V307H309.342V286.055ZM309.342 303.975H321.793V307H309.342V303.975ZM340.229 286.055V299.378C340.229 300.775 339.87 302.074 339.152 303.276C338.454 304.479 337.504 305.429 336.301 306.127C335.118 306.825 333.829 307.175 332.432 307.175C331.016 307.175 329.707 306.825 328.505 306.127C327.322 305.429 326.381 304.479 325.683 303.276C324.985 302.074 324.636 300.775 324.636 299.378V286.055H327.661V299.378C327.661 300.232 327.875 301.027 328.301 301.764C328.728 302.481 329.3 303.063 330.018 303.509C330.755 303.936 331.559 304.149 332.432 304.149C333.285 304.149 334.071 303.936 334.789 303.509C335.525 303.063 336.107 302.481 336.534 301.764C336.98 301.027 337.203 300.232 337.203 299.378V286.055H340.229ZM346.837 299.989C346.856 300.842 347.04 301.589 347.389 302.229C347.758 302.869 348.252 303.364 348.873 303.713C349.494 304.062 350.231 304.236 351.084 304.236C351.86 304.236 352.529 304.091 353.091 303.8C353.654 303.49 354.071 303.102 354.342 302.636C354.633 302.171 354.779 301.667 354.779 301.124C354.779 300.367 354.526 299.727 354.022 299.204C353.518 298.68 352.81 298.292 351.899 298.04L349.426 297.371C347.758 296.905 346.488 296.178 345.615 295.189C344.762 294.2 344.335 293.036 344.335 291.698C344.335 290.632 344.616 289.662 345.179 288.789C345.76 287.897 346.546 287.189 347.535 286.665C348.543 286.142 349.678 285.88 350.939 285.88C352.238 285.88 353.372 286.19 354.342 286.811C355.331 287.432 356.078 288.236 356.582 289.225C357.106 290.195 357.368 291.223 357.368 292.309H354.342C354.323 291.301 353.983 290.467 353.324 289.807C352.684 289.148 351.86 288.818 350.851 288.818C350.153 288.818 349.542 288.954 349.019 289.225C348.495 289.497 348.097 289.856 347.826 290.302C347.554 290.728 347.419 291.184 347.419 291.669C347.419 292.29 347.612 292.852 348 293.356C348.408 293.841 349.067 294.21 349.979 294.462L352.422 295.131C354.226 295.596 355.583 296.333 356.495 297.342C357.426 298.331 357.891 299.582 357.891 301.095C357.891 302.219 357.61 303.247 357.048 304.178C356.505 305.09 355.719 305.817 354.691 306.36C353.663 306.903 352.461 307.175 351.084 307.175C349.746 307.175 348.524 306.884 347.419 306.302C346.313 305.701 345.431 304.857 344.771 303.771C344.112 302.685 343.763 301.424 343.724 299.989H346.837Z" fill="#DCF8A7"/>
<path d="M131 563H31V463" stroke="white" stroke-width="6"/>
<path d="M553 563H463" stroke="white" stroke-width="6"/>
<path d="M571 563L564.914 556.893L564.914 556.893L558.827 550.786L558.827 550.827L553 545L553 581L558.827 575.173L558.827 575.215L564.937 569.084L564.937 569.084L571 563Z" fill="white"/>
<path d="M31 41L31 131" stroke="white" stroke-width="6"/>
<path d="M30.9997 23L24.8926 29.0863L24.8932 29.0863L18.786 35.1727L18.8273 35.1727L13 41L49 41L43.1727 35.1727L43.2146 35.1727L37.0842 29.0632L37.0837 29.0632L30.9997 23Z" fill="white"/>
<path d="M100 202L285 126.199L593 0L466.801 308L391 493" stroke="#BCEC79" stroke-width="6"/>
<path d="M208.442 157.681L184.999 147.76L191.76 164.442L198.521 181.124L208.442 157.681Z" fill="#BCEC79"/>
<path d="M435.443 384.761L445.364 408.204L428.682 401.443L412 394.682L435.443 384.761Z" fill="#BCEC79"/>
<circle cx="593" r="319" fill="#194D06"/>
<path d="M431.13 77.0545L425.224 98H422.141L418.621 85.4618C418.543 85.1709 418.465 84.8703 418.388 84.56C418.33 84.2497 418.252 83.9297 418.155 83.6C418.078 83.2897 418 82.9891 417.922 82.6982C417.845 82.3879 417.767 82.0776 417.69 81.7673H417.661C417.583 82.0582 417.505 82.3588 417.428 82.6691C417.35 82.96 417.273 83.2703 417.195 83.6C417.118 83.9103 417.03 84.2303 416.933 84.56C416.856 84.8703 416.778 85.1709 416.701 85.4618L413.181 98H410.097L404.221 77.0545H407.275L410.766 89.5927C410.844 89.8836 410.921 90.1842 410.999 90.4945C411.076 90.7855 411.154 91.0861 411.231 91.3964C411.309 91.7261 411.387 92.0461 411.464 92.3564C411.542 92.6667 411.6 92.9673 411.639 93.2582H411.668C411.745 92.9091 411.833 92.56 411.93 92.2109C412.027 91.8424 412.124 91.4739 412.221 91.1055C412.279 90.8339 412.337 90.5721 412.395 90.32C412.473 90.0679 412.541 89.8255 412.599 89.5927L416.119 77.0545H419.202L422.751 89.5927C422.81 89.8061 422.868 90.0194 422.926 90.2327C422.984 90.4461 423.033 90.6691 423.071 90.9018C423.285 91.6582 423.488 92.4436 423.682 93.2582H423.711C423.731 93.1224 423.75 92.9867 423.77 92.8509C423.808 92.6958 423.857 92.5406 423.915 92.3855C424.206 91.0861 424.429 90.1552 424.584 89.5927L428.075 77.0545H431.13ZM437.084 98H434.058V77.0545H437.084V98ZM459.251 77.0545V98H455.905L447.411 85.4618C447.391 85.423 447.362 85.3842 447.324 85.3455C447.304 85.3067 447.285 85.2679 447.265 85.2291C446.916 84.6861 446.557 84.1333 446.189 83.5709C445.84 83.0085 445.481 82.4073 445.113 81.7673H445.084C445.084 82.0582 445.084 82.3588 445.084 82.6691C445.084 82.9794 445.084 83.2897 445.084 83.6C445.084 83.9297 445.084 84.2497 445.084 84.56C445.084 84.8703 445.084 85.1709 445.084 85.4618V98H442.058V77.0545L445.433 77.0545L453.898 89.5927C453.937 89.6897 453.985 89.7867 454.044 89.8836C454.102 89.9612 454.16 90.0388 454.218 90.1164C454.8 90.9697 455.459 92.0364 456.196 93.3164H456.225C456.225 93.0255 456.225 92.7248 456.225 92.4145C456.225 92.0848 456.225 91.7648 456.225 91.4545V89.5927V77.0545H459.251ZM481.427 77.0545V98H478.081L469.587 85.4618C469.568 85.423 469.538 85.3842 469.5 85.3455C469.48 85.3067 469.461 85.2679 469.441 85.2291C469.092 84.6861 468.734 84.1333 468.365 83.5709C468.016 83.0085 467.657 82.4073 467.289 81.7673H467.26C467.26 82.0582 467.26 82.3588 467.26 82.6691C467.26 82.9794 467.26 83.2897 467.26 83.6C467.26 83.9297 467.26 84.2497 467.26 84.56C467.26 84.8703 467.26 85.1709 467.26 85.4618V98H464.234V77.0545H467.609L476.074 89.5927C476.113 89.6897 476.161 89.7867 476.22 89.8836C476.278 89.9612 476.336 90.0388 476.394 90.1164C476.976 90.9697 477.635 92.0364 478.372 93.3164H478.401C478.401 93.0255 478.401 92.7248 478.401 92.4145C478.401 92.0848 478.401 91.7648 478.401 91.4545V89.5927V77.0545H481.427ZM489.436 98H486.41V77.0545H489.436V98ZM511.603 77.0545V98H508.258L499.763 85.4618C499.744 85.423 499.715 85.3842 499.676 85.3455C499.656 85.3067 499.637 85.2679 499.618 85.2291C499.269 84.6861 498.91 84.1333 498.541 83.5709C498.192 83.0085 497.833 82.4073 497.465 81.7673H497.436C497.436 82.0582 497.436 82.3588 497.436 82.6691C497.436 82.9794 497.436 83.2897 497.436 83.6C497.436 83.9297 497.436 84.2497 497.436 84.56C497.436 84.8703 497.436 85.1709 497.436 85.4618V98H494.41V77.0545H497.785L506.25 89.5927C506.289 89.6897 506.338 89.7867 506.396 89.8836C506.454 89.9612 506.512 90.0388 506.57 90.1164C507.152 90.9697 507.812 92.0364 508.549 93.3164H508.578C508.578 93.0255 508.578 92.7248 508.578 92.4145C508.578 92.0848 508.578 91.7648 508.578 91.4545V89.5927V77.0545H511.603ZM535.613 98H532.645L532.616 96.6327C532.616 96.5358 532.616 96.4388 532.616 96.3418C532.616 96.2255 532.616 96.1188 532.616 96.0218C532.616 95.7309 532.616 95.44 532.616 95.1491C532.616 94.8582 532.626 94.577 532.645 94.3055H532.616C532.015 95.4109 531.123 96.3321 529.94 97.0691C528.757 97.8061 527.293 98.1745 525.547 98.1745C523.705 98.1745 522.008 97.7188 520.456 96.8073C518.924 95.8764 517.712 94.5964 516.82 92.9673C515.928 91.3382 515.482 89.5345 515.482 87.5564C515.482 85.52 515.967 83.697 516.936 82.0873C517.925 80.4582 519.225 79.1879 520.834 78.2764C522.464 77.3455 524.19 76.88 526.013 76.88C527.525 76.88 528.931 77.1903 530.231 77.8109C531.55 78.4121 532.645 79.2364 533.518 80.2836C534.391 81.3115 534.953 82.4655 535.205 83.7455H531.889C531.501 82.5818 530.745 81.6509 529.62 80.9527C528.514 80.2545 527.293 79.9055 525.954 79.9055C524.674 79.9055 523.462 80.2255 522.318 80.8655C521.193 81.5055 520.272 82.4073 519.554 83.5709C518.856 84.7345 518.507 86.063 518.507 87.5564C518.507 89.0303 518.827 90.3588 519.467 91.5418C520.127 92.7055 521.019 93.6073 522.144 94.2473C523.268 94.8873 524.51 95.2073 525.867 95.2073C527.36 95.2073 528.611 94.897 529.62 94.2764C530.648 93.6364 531.394 92.8897 531.86 92.0364C532.345 91.183 532.587 90.4267 532.587 89.7673V89.7382H524.384V86.8873L535.613 86.8873V98ZM460.229 121.178C461.353 121.624 462.226 122.322 462.847 123.273C463.467 124.223 463.768 125.261 463.749 126.385C463.749 127.394 463.467 128.335 462.905 129.207C462.362 130.061 461.625 130.739 460.694 131.244C459.782 131.748 458.813 132 457.785 132H448.592V111.055H456.941C458.008 111.055 458.997 111.307 459.909 111.811C460.839 112.315 461.576 113.004 462.119 113.876C462.662 114.73 462.934 115.661 462.934 116.669C462.934 117.619 462.682 118.492 462.178 119.287C461.693 120.082 461.043 120.703 460.229 121.149V121.178ZM451.618 114.08V119.84H457.058C457.581 119.84 458.056 119.714 458.483 119.462C458.929 119.19 459.278 118.841 459.53 118.415C459.782 117.968 459.909 117.503 459.909 117.018C459.909 116.495 459.773 116.01 459.501 115.564C459.249 115.098 458.89 114.739 458.425 114.487C457.979 114.216 457.484 114.08 456.941 114.08H451.618ZM457.785 128.975C458.309 128.975 458.793 128.839 459.239 128.567C459.705 128.296 460.064 127.927 460.316 127.462C460.587 126.996 460.723 126.492 460.723 125.949C460.723 125.406 460.587 124.902 460.316 124.436C460.064 123.952 459.705 123.573 459.239 123.302C458.793 123.03 458.309 122.895 457.785 122.895H451.618V128.975H457.785ZM470.441 132H467.416V111.055H470.441V132ZM483.038 111.055C484.88 111.055 486.606 111.51 488.216 112.422C489.826 113.314 491.106 114.555 492.056 116.145C493.026 117.736 493.511 119.53 493.511 121.527C493.511 123.525 493.026 125.319 492.056 126.909C491.106 128.499 489.826 129.75 488.216 130.662C486.626 131.554 484.9 132 483.038 132H475.416V111.055H483.038ZM483.038 128.975C484.395 128.975 485.637 128.645 486.761 127.985C487.906 127.307 488.808 126.405 489.467 125.28C490.146 124.136 490.485 122.885 490.485 121.527C490.485 120.17 490.146 118.928 489.467 117.804C488.808 116.659 487.906 115.758 486.761 115.098C485.637 114.419 484.395 114.08 483.038 114.08H478.441V128.975H483.038Z" fill="white"/>
<path d="M471 162L471 239" stroke="white" stroke-width="6"/>
<circle cx="470.5" cy="295.5" r="57.5" fill="#65D9FF"/>
<circle cx="470.5" cy="295.5" r="27.5" fill="#012F7A"/>
</g>
<defs>
<clipPath id="clip0_2054_31776">
<rect width="593" height="593" fill="white"/>
</clipPath>
</defs>
</svg>
