<svg fill="none" viewBox="0 0 572 236" xmlns="http://www.w3.org/2000/svg"><path d="m262.308 148.156v-60.217h-27.308v60.217z" fill="#f2cd16"/><path d="m290 202v-168h-28v168z" fill="#ec4612"/><path d="m572.105 236v-236l-282.105 34.056v167.89z" fill="#fdc99f"/><path d="m572.105 236v-236l-33.105 3.99v228.022z" fill="#fff"/><path clip-rule="evenodd" d="m510.55 35.998-193.549 23.32v118.232l193.549 23.319v-164.87z" fill="#ec4612" fill-rule="evenodd"/><g fill="#fff"><path clip-rule="evenodd" d="m433.036 86.445-1.907-16.445h-34.258l-1.907 16.445-15.835-6.642-17.129 28.394 13.928 9.803-13.928 9.803 17.129 28.394 15.835-6.642 1.907 16.445h34.258l1.907-16.445 15.835 6.642 17.129-28.394-13.928-9.803 13.928-9.803-17.129-28.394zm-31.499 9.337-12.892 22.218 12.892 22.218h25.785l12.893-22.218-12.893-22.218z" fill-rule="evenodd"/><path d="m424.744 118c0 5.485-4.618 9.931-10.314 9.931-5.697 0-10.314-4.446-10.314-9.931s4.617-9.931 10.314-9.931c5.696 0 10.314 4.446 10.314 9.931zm-256.744 37c0-37.003 29.997-67 67-67v148h-67zm-168 72.568c0-61.585 66.668-100.075 120.002-69.281l47.998 27.713v50h-168z"/></g></svg>