<svg width="259" height="107" viewBox="0 0 259 107" fill="none" xmlns="http://www.w3.org/2000/svg">
<g clip-path="url(#clip0_2054_11782)">
<rect x="77.9629" y="25.0647" width="137.376" height="81.408" fill="#F2CD16"/>
<path d="M96.6796 36.4125C98.0667 30.562 103.285 26.4317 109.289 26.4317H185.71C191.714 26.4317 196.931 30.562 198.319 36.4125L215.026 106.473H241.627L223.537 30.4152C219.375 12.8635 203.722 0.472656 185.71 0.472656H109.289C91.2766 0.472656 75.6229 12.8635 71.4617 30.4152L53.3711 106.473H79.9718L96.6796 36.4125Z" fill="#710408"/>
<path d="M113.417 80.9962H180.832V93.9831H113.417V80.9962Z" fill="#710408"/>
<path d="M183.423 44.6316L170.459 68.008L152.309 68.008L165.273 44.6316L183.423 44.6316Z" fill="#EC4612"/>
<path d="M110.82 44.6316L123.784 68.008L141.934 68.008L128.97 44.6316L110.82 44.6316Z" fill="#EC4612"/>
</g>
<defs>
<clipPath id="clip0_2054_11782">
<rect width="258" height="106" fill="white" transform="translate(0.5 0.472656)"/>
</clipPath>
</defs>
</svg>
