<svg width="297" height="177" viewBox="0 0 297 177" fill="none" xmlns="http://www.w3.org/2000/svg">
<g clip-path="url(#clip0_2054_10923)">
<rect width="297" height="176" transform="translate(0 0.527344)" fill="#194D06"/>
<rect x="73" y="88.5273" width="224" height="88" fill="#00A1FF"/>
<path d="M73 70.5273H297V88.5273H73V70.5273Z" fill="#9BD955"/>
<path d="M125.016 15.5273H133.501L189 70.5273H180.515L125.016 15.5273Z" fill="white"/>
<path d="M81.002 15.5273H89.4872L145 70.5273H136.515L81.002 15.5273Z" fill="white"/>
<path d="M184.5 105.527C169.312 105.527 157 117.84 157 133.027C157 148.215 169.312 160.527 184.5 160.527C199.688 160.527 212 148.215 212 133.027C212 117.84 199.688 105.527 184.5 105.527Z" fill="#65D9FF"/>
<path d="M184.5 118.727C176.603 118.727 170.2 125.13 170.2 133.027C170.2 140.925 176.603 147.327 184.5 147.327C192.398 147.327 198.8 140.925 198.8 133.027C198.8 125.13 192.398 118.727 184.5 118.727Z" fill="#012F7A"/>
<path d="M240 117.527C231.163 117.527 224 124.691 224 133.527C224 142.364 231.163 149.527 240 149.527C248.837 149.527 256 142.364 256 133.527C256 124.691 248.837 117.527 240 117.527Z" fill="#65D9FF"/>
<path d="M240 125.207C235.405 125.207 231.68 128.932 231.68 133.527C231.68 138.122 235.405 141.847 240 141.847C244.595 141.847 248.32 138.122 248.32 133.527C248.32 128.932 244.595 125.207 240 125.207Z" fill="#012F7A"/>
<path d="M134 122.527C127.925 122.527 123 127.452 123 133.527C123 139.602 127.925 144.527 134 144.527C140.075 144.527 145 139.602 145 133.527C145 127.452 140.075 122.527 134 122.527Z" fill="#65D9FF"/>
<path d="M133.999 127.805C130.84 127.805 128.279 130.366 128.279 133.525C128.279 136.684 130.84 139.245 133.999 139.245C137.158 139.245 139.719 136.684 139.719 133.525C139.719 130.366 137.158 127.805 133.999 127.805Z" fill="#012F7A"/>
<path d="M220 14.5273L224.75 19.2611H224.75L229.5 23.995H229.468L234 28.5273H206L210.532 23.995H210.5L215.268 19.2432H215.268L220 14.5273Z" fill="white"/>
<path d="M217 17.5273H223V70.5273H217V17.5273Z" fill="white"/>
<path d="M186 14.5273L190.75 19.2611H190.75L195.5 23.995H195.468L200 28.5273H172L176.532 23.995H176.5L181.268 19.2432H181.268L186 14.5273Z" fill="white"/>
<path d="M183 17.5273H189V70.5273H183V17.5273Z" fill="white"/>
</g>
<defs>
<clipPath id="clip0_2054_10923">
<rect width="297" height="176" fill="white" transform="translate(0 0.527344)"/>
</clipPath>
</defs>
</svg>
