<svg width="470" height="344" viewBox="0 0 470 344" fill="none" xmlns="http://www.w3.org/2000/svg">
<path fill-rule="evenodd" clip-rule="evenodd" d="M78.3349 62.6265L96.7878 75.6981C113.31 87.4018 133.999 95.1429 156.67 95.1429V157.22C128.364 157.22 101.629 150.297 78.3349 138.054C55.0409 150.297 28.3059 157.22 0 157.22V95.1429C22.6705 95.1429 43.3603 87.4018 59.8822 75.6981L78.3349 62.6265Z" fill="white"/>
<path fill-rule="evenodd" clip-rule="evenodd" d="M234.999 0.549805L253.452 13.6214C269.974 25.3252 290.663 33.0662 313.334 33.0662V95.1429C285.028 95.1429 258.293 88.2201 234.999 75.9776C211.705 88.2201 184.97 95.1429 156.664 95.1429V33.0662C179.335 33.0662 200.024 25.3252 216.546 13.6214L234.999 0.549805Z" fill="#00A1FF"/>
<path fill-rule="evenodd" clip-rule="evenodd" d="M234.999 248.857L253.452 261.929C269.974 273.632 290.663 281.373 313.334 281.373V343.45C285.028 343.45 258.293 336.527 234.999 324.285C211.705 336.527 184.97 343.45 156.664 343.45V281.373C179.335 281.373 200.024 273.632 216.546 261.929L234.999 248.857Z" fill="#6FC025"/>
<path fill-rule="evenodd" clip-rule="evenodd" d="M78.3349 186.78L96.7878 199.852C113.31 211.556 133.999 219.297 156.67 219.297V281.373C128.364 281.373 101.629 274.451 78.3349 262.208C55.0409 274.451 28.3059 281.373 0 281.373V219.297C22.6705 219.297 43.3603 211.556 59.8822 199.852L78.3349 186.78Z" fill="#00A1FF"/>
<path fill-rule="evenodd" clip-rule="evenodd" d="M391.669 186.78L410.122 199.852C426.644 211.556 447.333 219.297 470.004 219.297V281.373C441.698 281.373 414.963 274.451 391.669 262.208C368.375 274.451 341.64 281.373 313.334 281.373V219.297C336.004 219.297 356.694 211.556 373.216 199.852L391.669 186.78Z" fill="white"/>
<path fill-rule="evenodd" clip-rule="evenodd" d="M391.669 62.6279L410.122 75.6995C426.644 87.4033 447.333 95.1443 470.004 95.1443V157.221C441.698 157.221 414.963 150.298 391.669 138.056C368.375 150.298 341.64 157.221 313.334 157.221V95.1443C336.004 95.1443 356.694 87.4033 373.216 75.6995L391.669 62.6279Z" fill="#408A13"/>
<path fill-rule="evenodd" clip-rule="evenodd" d="M253.915 239.989C261.525 239.989 268.259 235.122 270.559 227.959L282.388 191.132H289.661C297.271 191.132 304.004 186.265 306.305 179.102L313.334 157.22L286.97 157.22L300.876 136.527H169.123L183.028 157.22L156.664 157.22L163.693 179.102C165.994 186.265 172.727 191.132 180.337 191.132H187.61L199.439 227.959C201.74 235.122 208.473 239.989 216.083 239.989H253.915ZM262.851 181.073C262.851 186.628 258.651 191.132 253.47 191.132C248.289 191.132 244.089 186.628 244.089 181.073C244.089 175.518 248.289 171.014 253.47 171.014C258.651 171.014 262.851 175.518 262.851 181.073ZM207.147 181.073C207.147 186.628 211.347 191.132 216.528 191.132C221.709 191.132 225.909 186.628 225.909 181.073C225.909 175.518 221.709 171.014 216.528 171.014C211.347 171.014 207.147 175.518 207.147 181.073Z" fill="#194D06"/>
</svg>
