<svg width="297" height="177" viewBox="0 0 297 177" fill="none" xmlns="http://www.w3.org/2000/svg">
<g clip-path="url(#clip0_2054_10859)">
<path d="M185 21.5273C147.997 21.5273 118 51.5249 118 88.5273C118 125.53 147.997 155.527 185 155.527C222.003 155.527 252 125.53 252 88.5273C252 51.5249 222.003 21.5273 185 21.5273Z" fill="#9BD955"/>
<path d="M184.998 51.4805C164.538 51.4805 147.951 68.0673 147.951 88.5275C147.951 108.988 164.538 125.575 184.998 125.575C205.458 125.575 222.045 108.988 222.045 88.5275C222.045 68.0673 205.458 51.4805 184.998 51.4805Z" fill="#55A51A"/>
<rect x="73" y="88.5273" width="224" height="88" fill="#00A1FF"/>
<path d="M118 88.5273C118 125.53 147.997 155.527 185 155.527C222.003 155.527 252 125.53 252 88.5273H118Z" fill="#65D9FF"/>
<path d="M147.951 88.5274C147.951 88.5273 147.951 88.5274 147.951 88.5274C147.951 108.988 164.538 125.575 184.998 125.575C205.458 125.575 222.045 108.988 222.045 88.5275C222.045 88.5275 222.045 88.5276 222.045 88.5275L147.951 88.5274Z" fill="#012F7A"/>
<path d="M185 110.527L192.465 103.089H192.464L199.928 95.6496H199.878L207 88.5273H163L170.122 95.6496H170.071L177.564 103.117H177.564L185 110.527Z" fill="white"/>
<path d="M182 89.5273H188V36.5273H182V89.5273Z" fill="white"/>
</g>
<defs>
<clipPath id="clip0_2054_10859">
<rect width="297" height="176" fill="white" transform="translate(0 0.527344)"/>
</clipPath>
</defs>
</svg>
