<svg width="259" height="107" viewBox="0 0 259 107" fill="none" xmlns="http://www.w3.org/2000/svg">
<path d="M186.147 88.7668L179.794 82.4138L172.735 89.4727L168.5 85.2374L175.559 78.1785L169.206 71.8256L222.853 18.1785L229.206 24.5315L236.265 17.4727L240.5 21.708L233.441 28.7668L239.794 35.1197L186.147 88.7668Z" fill="#F2CD16"/>
<path d="M168.5 21.708L172.735 17.4727L179.794 24.5315L186.147 18.1785L239.794 71.8256L233.441 78.1785L240.5 85.2374L236.265 89.4727L229.206 82.4138L222.853 88.7668L169.206 35.1197L175.559 28.7668L168.5 21.708Z" fill="#EC4612"/>
<path d="M93.1471 88.7668L86.7941 82.4138L79.7353 89.4727L75.5 85.2374L82.5588 78.1785L76.2059 71.8256L129.853 18.1785L136.206 24.5315L143.265 17.4727L147.5 21.708L140.441 28.7668L146.794 35.1197L93.1471 88.7668Z" fill="#65D9FF"/>
<path d="M75.5 21.708L79.7353 17.4727L86.7941 24.5315L93.1471 18.1785L146.794 71.8256L140.441 78.1785L147.5 85.2374L143.265 89.4727L136.206 82.4138L129.853 88.7668L76.2059 35.1197L82.5588 28.7668L75.5 21.708Z" fill="#EC4612"/>
</svg>
