<svg width="593" height="593" viewBox="0 0 593 593" fill="none" xmlns="http://www.w3.org/2000/svg">
<rect width="593" height="593" fill="#6FC025"/>
<path d="M0 297L593 297" stroke="#194D06" stroke-width="6"/>
<path d="M0 149L593 149" stroke="#194D06" stroke-width="6"/>
<path d="M0 445L593 445" stroke="#194D06" stroke-width="6"/>
<path fill-rule="evenodd" clip-rule="evenodd" d="M445.143 393.538L127.419 553.203C102.275 565.839 71.8622 560.935 51.9638 541.037C32.0657 521.138 27.1622 490.726 39.7978 465.582L199.463 147.858C255.479 36.3912 404.16 12.4177 492.372 100.629C580.583 188.84 556.61 337.522 445.143 393.538Z" fill="#EFFBD3"/>
<circle cx="98.67" cy="494.328" r="34.1915" fill="#65D9FF"/>
<circle cx="98.6693" cy="494.327" r="20.1126" fill="#012F7A"/>
<path d="M99.8196 485.431V488.939H97.0347V485.431H99.8196ZM99.8196 500.471V503.979H97.0347V500.471H99.8196ZM95.9166 496.798C95.9166 497.331 96.0291 497.79 96.2541 498.173C96.4792 498.556 96.7886 498.85 97.1824 499.055C97.5903 499.246 98.0615 499.342 98.5959 499.342C99.046 499.342 99.4258 499.267 99.7352 499.116C100.059 498.952 100.298 498.747 100.453 498.501C100.621 498.255 100.706 497.995 100.706 497.721C100.706 497.325 100.558 496.983 100.263 496.695C99.9813 496.394 99.5735 496.182 99.039 496.059L97.2879 495.649C96.0502 495.362 95.0727 494.849 94.3553 494.11C93.638 493.371 93.2794 492.489 93.2794 491.463C93.2794 490.629 93.5185 489.883 93.9967 489.227C94.489 488.57 95.1289 488.064 95.9166 487.708C96.7042 487.339 97.5411 487.154 98.4272 487.154C99.3836 487.154 100.235 487.373 100.98 487.811C101.725 488.235 102.302 488.816 102.71 489.555C103.118 490.28 103.322 491.087 103.322 491.976H100.326C100.326 491.388 100.136 490.909 99.7563 490.54C99.3906 490.157 98.9054 489.965 98.3006 489.965C97.9068 489.965 97.5622 490.04 97.2668 490.191C96.9855 490.341 96.7675 490.533 96.6128 490.765C96.4721 490.998 96.4018 491.237 96.4018 491.484C96.4018 491.785 96.5073 492.058 96.7183 492.304C96.9292 492.537 97.2738 492.708 97.752 492.817L99.4609 493.228C100.938 493.583 102.035 494.124 102.752 494.849C103.484 495.574 103.849 496.511 103.849 497.66C103.849 498.549 103.624 499.335 103.174 500.019C102.724 500.703 102.098 501.237 101.296 501.62C100.509 501.989 99.6157 502.174 98.617 502.174C97.5622 502.174 96.5987 501.955 95.7267 501.517C94.8547 501.079 94.1584 500.457 93.638 499.65C93.1176 498.829 92.8574 497.879 92.8574 496.798H95.9166Z" fill="white"/>
<path d="M214.182 379.24L155.373 438.049" stroke="#194D06" stroke-width="5.54457"/>
<path d="M225.942 367.478L217.975 367.465L217.975 367.465L210.007 367.452L210.034 367.479L202.419 367.479L225.942 391.002L225.942 383.387L225.97 383.414L225.956 375.416L225.956 375.416L225.942 367.478Z" fill="#194D06"/>
<circle cx="362.96" cy="230.042" r="151.551" fill="#65D9FF"/>
<circle cx="362.959" cy="230.04" r="89.1479" fill="#012F7A"/>
<path d="M342.273 212.528V219.131H337.032V212.528H342.273ZM342.273 240.83V247.432H337.032V240.83H342.273ZM334.928 233.918C334.928 234.922 335.14 235.785 335.564 236.505C335.987 237.226 336.569 237.779 337.31 238.166C338.078 238.526 338.965 238.706 339.97 238.706C340.817 238.706 341.532 238.565 342.114 238.281C342.723 237.973 343.173 237.586 343.464 237.123C343.781 236.66 343.94 236.171 343.94 235.656C343.94 234.909 343.662 234.266 343.107 233.725C342.577 233.159 341.81 232.76 340.804 232.528L337.509 231.756C335.18 231.216 333.34 230.25 331.991 228.86C330.641 227.471 329.966 225.81 329.966 223.88C329.966 222.31 330.416 220.907 331.316 219.671C332.242 218.436 333.446 217.483 334.928 216.814C336.411 216.119 337.985 215.772 339.653 215.772C341.452 215.772 343.054 216.183 344.456 217.007C345.859 217.805 346.944 218.899 347.712 220.289C348.479 221.653 348.863 223.172 348.863 224.845H343.226C343.226 223.738 342.868 222.837 342.154 222.142C341.466 221.422 340.553 221.061 339.414 221.061C338.673 221.061 338.025 221.203 337.469 221.486C336.94 221.769 336.53 222.129 336.238 222.567C335.974 223.005 335.841 223.455 335.841 223.918C335.841 224.485 336.04 224.999 336.437 225.463C336.834 225.9 337.482 226.222 338.382 226.428L341.598 227.2C344.377 227.87 346.441 228.886 347.791 230.25C349.167 231.615 349.856 233.378 349.856 235.54C349.856 237.213 349.432 238.693 348.585 239.98C347.738 241.267 346.56 242.271 345.052 242.992C343.57 243.687 341.889 244.034 340.01 244.034C338.025 244.034 336.212 243.623 334.571 242.799C332.93 241.975 331.62 240.804 330.641 239.285C329.662 237.741 329.172 235.952 329.172 233.918H334.928Z" fill="white"/>
<path d="M366.015 212.528V219.131H361.102V212.528H366.015ZM366.015 240.83V247.432H361.102V240.83H366.015ZM359.129 233.918C359.129 234.922 359.328 235.785 359.725 236.505C360.122 237.226 360.668 237.779 361.362 238.166C362.082 238.526 362.913 238.706 363.856 238.706C364.65 238.706 365.32 238.565 365.866 238.281C366.436 237.973 366.858 237.586 367.131 237.123C367.429 236.66 367.578 236.171 367.578 235.656C367.578 234.909 367.317 234.266 366.796 233.725C366.3 233.159 365.58 232.76 364.638 232.528L361.548 231.756C359.365 231.216 357.64 230.25 356.375 228.86C355.11 227.471 354.477 225.81 354.477 223.88C354.477 222.31 354.899 220.907 355.742 219.671C356.611 218.436 357.74 217.483 359.129 216.814C360.519 216.119 361.995 215.772 363.558 215.772C365.245 215.772 366.747 216.183 368.062 217.007C369.377 217.805 370.394 218.899 371.114 220.289C371.833 221.653 372.193 223.172 372.193 224.845H366.908C366.908 223.738 366.573 222.837 365.903 222.142C365.258 221.422 364.402 221.061 363.335 221.061C362.64 221.061 362.032 221.203 361.511 221.486C361.015 221.769 360.63 222.129 360.357 222.567C360.109 223.005 359.985 223.455 359.985 223.918C359.985 224.485 360.171 224.999 360.543 225.463C360.916 225.9 361.524 226.222 362.367 226.428L365.382 227.2C367.987 227.87 369.923 228.886 371.188 230.25C372.478 231.615 373.123 233.378 373.123 235.54C373.123 237.213 372.726 238.693 371.932 239.98C371.138 241.267 370.034 242.271 368.62 242.992C367.23 243.687 365.655 244.034 363.893 244.034C362.032 244.034 360.333 243.623 358.794 242.799C357.256 241.975 356.028 240.804 355.11 239.285C354.191 237.741 353.732 235.952 353.732 233.918H359.129Z" fill="white"/>
<path d="M389.285 212.528V219.131H384.372V212.528H389.285ZM389.285 240.83V247.432H384.372V240.83H389.285ZM382.4 233.918C382.4 234.922 382.598 235.785 382.995 236.505C383.392 237.226 383.938 237.779 384.633 238.166C385.352 238.526 386.184 238.706 387.126 238.706C387.92 238.706 388.59 238.565 389.136 238.281C389.707 237.973 390.129 237.586 390.402 237.123C390.699 236.66 390.848 236.171 390.848 235.656C390.848 234.909 390.588 234.266 390.067 233.725C389.57 233.159 388.851 232.76 387.908 232.528L384.819 231.756C382.635 231.216 380.911 230.25 379.645 228.86C378.38 227.471 377.747 225.81 377.747 223.88C377.747 222.31 378.169 220.907 379.013 219.671C379.881 218.436 381.01 217.483 382.4 216.814C383.789 216.119 385.265 215.772 386.829 215.772C388.516 215.772 390.017 216.183 391.332 217.007C392.647 217.805 393.665 218.899 394.384 220.289C395.104 221.653 395.463 223.172 395.463 224.845H390.178C390.178 223.738 389.843 222.837 389.173 222.142C388.528 221.422 387.672 221.061 386.605 221.061C385.911 221.061 385.303 221.203 384.782 221.486C384.285 221.769 383.901 222.129 383.628 222.567C383.38 223.005 383.256 223.455 383.256 223.918C383.256 224.485 383.442 224.999 383.814 225.463C384.186 225.9 384.794 226.222 385.638 226.428L388.652 227.2C391.258 227.87 393.193 228.886 394.459 230.25C395.749 231.615 396.394 233.378 396.394 235.54C396.394 237.213 395.997 238.693 395.203 239.98C394.409 241.267 393.305 242.271 391.89 242.992C390.501 243.687 388.925 244.034 387.164 244.034C385.303 244.034 383.603 243.623 382.065 242.799C380.526 241.975 379.298 240.804 378.38 239.285C377.462 237.741 377.003 235.952 377.003 233.918H382.4Z" fill="white"/>
</svg>
