<svg fill="none" height="594" viewBox="0 0 593 594" width="593" xmlns="http://www.w3.org/2000/svg"><path d="m0 .9375h593v593h-593z" fill="#f996ee"/><path d="m39 435.875c0-65.722 53.2781-119 119-119h53v238h-53c-65.7219 0-119-53.278-119-119z" fill="#66018e"/><path d="m94 435.875c0-65.722 53.278-119 119-119h53v238h-53c-65.722 0-119-53.278-119-119z" fill="#ed60e9"/><path d="m150 435.875c0-65.722 53.278-119 119-119h53v238h-53c-65.722 0-119-53.278-119-119z" fill="#23191a"/><path d="m205 435.875c0-65.722 53.278-119 119-119h105v238h-105c-65.722 0-119-53.278-119-119z" fill="#ec4612"/><path d="m261 435.875c0-65.722 53.452-119 119.388-119h52.612v238h-52.612c-65.936 0-119.388-53.278-119.388-119z" fill="#fdd7f5"/><path d="m554 435.875c0 65.722-53.278 119-119 119s-119-53.278-119-119 53.278-119 119-119 119 53.278 119 119z" fill="#490072"/><path d="m395.207 385.727h49.77c27.487 0 49.77 22.282 49.77 49.77 0 27.487-22.283 49.77-49.77 49.77h-49.77z" fill="#fccaf2"/><path d="m554 158.875c0-65.7219-53.278-119-119-119h-53v238h53c65.722 0 119-53.278 119-119z" fill="#23191a"/><path d="m499 158.875c0-65.7219-53.278-119-119-119h-58v238h58c65.722 0 119-53.278 119-119z" fill="#fdd7f5"/><path d="m443 158.875c0-65.7219-53.278-119-119-119h-54v238h54c65.722 0 119-53.278 119-119z" fill="#490072"/><path d="m388 158.875c0-65.7219-53.278-119-119-119h-104v238h104c65.722 0 119-53.278 119-119z" fill="#ed60e9"/><path d="m332 158.875c0-65.7219-51.898-119-115.918-119h-58.082v238h58.082c64.02 0 115.918-53.278 115.918-119z" fill="#490072"/><path d="m277 158.875c0 65.722-53.278 119-119 119-65.7219 0-119-53.278-119-119 0-65.7219 53.2781-119 119-119 65.722 0 119 53.2781 119 119z" fill="#ec4612"/><path d="m206.344 159-48.344-70.6562-48.344 70.6562 48.344 70.656z" fill="#fccaf2"/></svg>