<svg fill="none" viewBox="0 0 444 237" xmlns="http://www.w3.org/2000/svg"><path d="m0 118.07c0-65.17 52.83-118 118-118h52v236h-52c-65.17 0-118-52.83-118-118z" fill="#005eb7"/><path d="m52 118.07c0-65.17 52.83-118 118-118h52v236h-52c-65.17 0-118-52.83-118-118z" fill="#00a1ff"/><path d="m104 118.07c0-65.17 52.83-118 118-118h104v236h-104c-65.17 0-118-52.83-118-118z" fill="#ccf8ff"/><path d="m156 118.07c0-65.17 52.83-118 118-118h52v236h-52c-65.17 0-118-52.83-118-118z" fill="#f2cd16"/><circle cx="326" cy="118.07" fill="#012f7a" r="118"/><path clip-rule="evenodd" d="m308.51 175.889c-7.237 0-13.641-4.664-15.829-11.53l-11.25-35.294h-6.917c-7.237 0-13.641-4.664-15.829-11.529l-6.685-20.972h25.073l-13.224-19.832h125.302l-13.224 19.832h25.073l-6.685 20.972c-2.188 6.865-8.592 11.529-15.829 11.529h-6.917l-11.25 35.294c-2.188 6.866-8.592 11.53-15.829 11.53zm-8.499-56.464c0 5.324 3.995 9.64 8.922 9.64s8.922-4.316 8.922-9.64-3.995-9.64-8.922-9.64-8.922 4.316-8.922 9.64zm52.978 0c0 5.324-3.994 9.64-8.922 9.64-4.927 0-8.922-4.316-8.922-9.64s3.995-9.64 8.922-9.64c4.928 0 8.922 4.316 8.922 9.64z" fill="#65d9ff" fill-rule="evenodd"/><path d="m375 26.07 19.067-6.933 6.933-19.067 6.933 19.067 19.067 6.933-19.067 6.934-6.933 19.066-6.933-19.066z" fill="#fff"/></svg>