<svg width="406" height="240" viewBox="0 0 406 240" fill="none" xmlns="http://www.w3.org/2000/svg">
  <g clip-path="url(#clip0_2054_25510)">
    <g clip-path="url(#clip1_2054_25510)">
      <rect width="328" height="186" transform="translate(77.5 54.0625)" fill="#F996EE"/>
      <rect x="77.5" y="140.062" width="328" height="100" fill="#66018E"/>
      <path d="M363.769 69.5425V79.9538H355.661V69.5425H363.769ZM363.769 114.171V124.582H355.661V114.171H363.769ZM352.406 103.273C352.406 104.856 352.734 106.216 353.389 107.352C354.044 108.489 354.945 109.361 356.091 109.97C357.279 110.538 358.65 110.822 360.206 110.822C361.517 110.822 362.622 110.599 363.523 110.153C364.465 109.666 365.161 109.057 365.611 108.326C366.103 107.596 366.348 106.824 366.348 106.013C366.348 104.835 365.918 103.821 365.059 102.968C364.24 102.075 363.052 101.446 361.496 101.081L356.398 99.8632C352.795 99.0108 349.949 97.4887 347.861 95.2968C345.773 93.105 344.728 90.4869 344.728 87.4427C344.728 84.9667 345.425 82.7545 346.817 80.8062C348.25 78.8579 350.113 77.3561 352.406 76.3007C354.699 75.2048 357.135 74.6568 359.715 74.6568C362.499 74.6568 364.977 75.3063 367.147 76.6052C369.317 77.8634 370.996 79.5885 372.183 81.7804C373.371 83.9316 373.964 86.3265 373.964 88.9648H365.243C365.243 87.2194 364.69 85.7988 363.584 84.7029C362.52 83.5663 361.107 82.9981 359.346 82.9981C358.2 82.9981 357.197 83.2213 356.337 83.6678C355.518 84.1143 354.883 84.6826 354.433 85.3726C354.023 86.0626 353.819 86.7729 353.819 87.5036C353.819 88.3965 354.126 89.2083 354.74 89.939C355.354 90.629 356.357 91.1364 357.75 91.4611L362.725 92.6788C367.024 93.7341 370.218 95.3374 372.306 97.4887C374.435 99.64 375.5 102.42 375.5 105.83C375.5 108.468 374.845 110.802 373.535 112.832C372.224 114.861 370.402 116.444 368.068 117.581C365.775 118.677 363.175 119.225 360.268 119.225C357.197 119.225 354.392 118.575 351.853 117.276C349.314 115.977 347.288 114.131 345.773 111.736C344.258 109.3 343.5 106.479 343.5 103.273H352.406Z" fill="#EC4612"/>
      <path fill-rule="evenodd" clip-rule="evenodd" d="M77.5 54.0625H174.5C190.516 54.0625 203.5 67.0462 203.5 83.0625V99.0138L271.279 68.7802C291.121 59.9292 313.5 74.4508 313.5 96.1781V140.062H283.5L283.5 96.1781L215.721 126.412C195.878 135.263 173.5 120.741 173.5 99.0138V84.0625H77.5V54.0625Z" fill="#FCCAF2"/>
      <path d="M313.5 204.062H337.5L298.5 240.062L259.5 204.062H283.5V160.062H313.5V204.062Z" fill="#F996EE"/>
      <rect x="307.5" y="147.062" width="6" height="6" fill="#EC4612"/>
      <rect x="319.5" y="147.062" width="6" height="6" fill="#EC4612"/>
      <rect x="331.5" y="147.062" width="6" height="6" fill="#EC4612"/>
      <rect x="295.5" y="147.062" width="6" height="6" fill="#EC4612"/>
      <rect x="283.5" y="147.062" width="6" height="6" fill="#EC4612"/>
      <rect x="271.5" y="147.062" width="6" height="6" fill="#EC4612"/>
      <rect x="259.5" y="147.062" width="6" height="6" fill="#EC4612"/>
    </g>
  </g>
  <defs>
    <clipPath id="clip0_2054_25510">
      <rect width="405" height="240" fill="white" transform="translate(0.5)"/>
    </clipPath>
    <clipPath id="clip1_2054_25510">
      <rect width="328" height="186" fill="white" transform="translate(77.5 54.0625)"/>
    </clipPath>
  </defs>
</svg>
