<svg xmlns="http://www.w3.org/2000/svg" fill="none" viewBox="0 0 446 236"><path fill="#D438DC" fill-rule="evenodd" d="M312.51 168.159c-7.237 0-13.641-4.665-15.829-11.53l-11.25-35.294h-6.917c-7.237 0-13.641-4.665-15.829-11.53L256 88.833h25.073l-13.224-19.831h125.302l-13.224 19.831H405l-6.685 20.972c-2.188 6.865-8.592 11.53-15.829 11.53h-6.917l-11.25 35.294c-2.188 6.865-8.592 11.53-15.829 11.53h-35.98Zm-8.499-56.465c0 5.325 3.995 9.641 8.922 9.641 4.927 0 8.922-4.316 8.922-9.641 0-5.324-3.995-9.64-8.922-9.64-4.927 0-8.922 4.316-8.922 9.64Zm52.978 0c0 5.325-3.994 9.641-8.922 9.641-4.927 0-8.922-4.316-8.922-9.641 0-5.324 3.995-9.64 8.922-9.64 4.928 0 8.922 4.316 8.922 9.64Z" clip-rule="evenodd"/><rect width="24" height="38" x="60" y="8" stroke="#EC4612" stroke-width="16" rx="12"/><rect width="24" height="38" x="110" y="8" stroke="#ED60E9" stroke-width="16" rx="12"/><path stroke="#8702AA" stroke-width="16" d="M312 20v14c0 6.627-5.373 12-12 12s-12-5.373-12-12V20c0-6.627 5.373-12 12-12s12 5.373 12 12Zm-128 0v14c0 6.627-5.373 12-12 12s-12-5.373-12-12V20c0-6.627 5.373-12 12-12s12 5.373 12 12Zm204 0v14c0 6.627-5.373 12-12 12s-12-5.373-12-12V20c0-6.627 5.373-12 12-12s12 5.373 12 12Zm50 0v14c0 6.627-5.373 12-12 12s-12-5.373-12-12V20c0-6.627 5.373-12 12-12s12 5.373 12 12Z"/><path fill="#8702AA" d="M330 2h16v50h-16V2Zm-76 0h16v50h-16V2Zm-26 0h16v50h-16V2Zm-26 0h16v50h-16V2ZM26 2h16v50H26V2ZM0 2h16v50H0V2Z"/><rect width="24" height="38" x="-8" y="8" stroke="#ED60E9" stroke-width="16" rx="12" transform="matrix(-1 0 0 1 50 122)"/><path stroke="#8702AA" stroke-width="16" d="M236 142v14c0 6.627-5.373 12-12 12s-12-5.373-12-12v-14c0-6.627 5.373-12 12-12s12 5.373 12 12Zm-126 14v-14c0-6.627 5.373-12 12-12s12 5.373 12 12v14c0 6.627-5.373 12-12 12s-12-5.373-12-12Z"/><rect width="24" height="38" x="414" y="130" stroke="#EC4612" stroke-width="16" rx="12"/><path fill="#8702AA" d="M0 124h16v50H0v-50Zm152 0h16v50h-16v-50Zm-76 0h16v50H76v-50Zm102 0h16v50h-16v-50Z"/><path stroke="#8702AA" stroke-width="16" d="M210 81v14c0 6.627-5.373 12-12 12s-12-5.373-12-12V81c0-6.627 5.373-12 12-12s12 5.373 12 12Zm-50 0v14c0 6.627-5.373 12-12 12s-12-5.373-12-12V81c0-6.627 5.373-12 12-12s12 5.373 12 12Zm-76 0v14c0 6.627-5.373 12-12 12s-12-5.373-12-12V81c0-6.627 5.373-12 12-12s12 5.373 12 12Z"/><path fill="#8702AA" d="M228 63h16v50h-16V63Zm-126 0h16v50h-16V63Zm-76 0h16v50H26V63Z"/><path fill="#EC4612" d="M0 63h16v50H0V63Z"/><path fill="#8702AA" d="M418 63h16v50h-16V63Z"/><rect width="24" height="38" x="212" y="190" stroke="#ED60E9" stroke-width="16" rx="12"/><path stroke="#8702AA" stroke-width="16" d="M388 202v14c0 6.627-5.373 12-12 12s-12-5.373-12-12v-14c0-6.627 5.373-12 12-12s12 5.373 12 12Zm50 0v14c0 6.627-5.373 12-12 12s-12-5.373-12-12v-14c0-6.627 5.373-12 12-12s12 5.373 12 12Zm-100 0v14c0 6.627-5.373 12-12 12s-12-5.373-12-12v-14c0-6.627 5.373-12 12-12s12 5.373 12 12Zm-152 0v14c0 6.627-5.373 12-12 12s-12-5.373-12-12v-14c0-6.627 5.373-12 12-12s12 5.373 12 12Zm-128 0v14c0 6.627-5.373 12-12 12s-12-5.373-12-12v-14c0-6.627 5.373-12 12-12s12 5.373 12 12Z"/><path fill="#EC4612" d="M280 184h16v50h-16z"/><path fill="#ED60E9" d="M254 184h16v50h-16z"/><path fill="#8702AA" d="M0 184h16v50H0v-50Zm128 0h16v50h-16v-50Zm-26 0h16v50h-16v-50Zm-26 0h16v50H76v-50Z"/></svg>