<svg width="328" height="172" viewBox="0 0 328 172" fill="none" xmlns="http://www.w3.org/2000/svg">
<rect y="0.0625" width="82" height="171.938" fill="#012F7A"/>
<rect x="82" y="0.0625" width="82" height="171.938" fill="#8702AA"/>
<rect x="82" width="82" height="157.943" fill="#005EB7"/>
<rect x="164" y="0.0625" width="82" height="171.938" fill="#012F7A"/>
<rect x="246" y="0.0625" width="82" height="171.938" fill="#005EB7"/>
<path d="M246 172V83.6876L260.954 83.6877C266.116 83.6877 271.16 82.155 275.439 79.2863L328 44.0464V172L246 172Z" fill="#00A1FF"/>
<path d="M164 171.999L164 84.071C165.458 83.8183 166.947 83.6882 168.453 83.6882L246 83.6889V172L164 171.999Z" fill="#3FC4FF"/>
<path d="M82 171.999V127.626L96.3064 133.078C107.423 137.313 120.014 133.471 126.821 123.768L147.209 94.7073C151.19 89.0325 157.26 85.2395 164 84.071V172L82 171.999Z" fill="#00A1FF"/>
<ellipse cx="164.5" cy="84.0319" rx="17.9935" ry="18" transform="rotate(-90 164.5 84.0319)" fill="#F2CD16"/>
<ellipse cx="246" cy="84.0319" rx="17.9935" ry="18" transform="rotate(-90 246 84.0319)" fill="#F2CD16"/>
<path d="M82 172V127.623L1.09139e-10 96.3831L0 172L82 172Z" fill="#3FC4FF"/>
<ellipse cx="82" cy="127.016" rx="17.9935" ry="18" transform="rotate(-90 82 127.016)" fill="#F2CD16"/>
<path d="M-1.57361e-06 78.0341C9.94112 78.0341 18 86.09 18 96.0275C18 105.965 9.94113 114.021 0 114.021C0 114.021 -1.13907e-06 87.9716 -1.57361e-06 78.0341Z" fill="#F2CD16"/>
<path d="M328 26.0531C318.059 26.0531 310 34.1091 310 44.0466C310 53.9841 318.059 62.04 328 62.04C328 62.04 328 35.9906 328 26.0531Z" fill="#F2CD16"/>
</svg>
