<svg width="593" height="593" viewBox="0 0 593 593" fill="none" xmlns="http://www.w3.org/2000/svg">
<g clip-path="url(#clip0_2054_31796)">
<rect width="593" height="593" fill="#194D06"/>
<path d="M122 -225L209 -138M122 -225H296M122 -225V-51M209 -138L296 -51M209 -138L296 -225M209 -138L122 -51M296 -51V-225M296 -51H122M296 -51L209 36M296 -51V123M296 -51L383 -138M296 -51H470M296 -51L383 36M296 -225L383 -138M296 -225H470M122 -51L209 36M122 -51V123M209 36L296 123M209 36L122 123M296 123H122M296 123L383 36M296 123H470M383 -138L470 -51M383 -138L470 -225M470 -51V-225M470 -51L383 36M470 -51V123M383 36L470 123" stroke="#6FC025" stroke-width="6"/>
<path d="M122 471L209 558M122 471H296M122 471V645M209 558L296 645M209 558L296 471M209 558L122 645M296 645V471M296 645H122M296 645L209 732M296 645V819M296 645L383 558M296 645H470M296 645L383 732M296 471L383 558M296 471H470M122 645L209 732M122 645V819M209 732L296 819M209 732L122 819M296 819H122M296 819L383 732M296 819H470M383 558L470 645M383 558L470 471M470 645V471M470 645L383 732M470 645V819M383 732L470 819" stroke="#6FC025" stroke-width="6"/>
<path d="M-226 -51L-139 36M-226 -51H-52M-226 -51V123M-139 36L-52 123M-139 36L-52 -51M-139 36L-226 123M-52 123V-51M-52 123H-226M-52 123L-139 210M-52 123V297M-52 123L35 36M-52 123H122M-52 123L35 210M-52 -51L35 36M-52 -51H122M-226 123L-139 210M-226 123V297M-139 210L-52 297M-139 210L-226 297M-52 297H-226M-52 297L35 210M-52 297H122M35 36L122 123M35 36L122 -51M122 123V-51M122 123L35 210M122 123V297M35 210L122 297" stroke="#6FC025" stroke-width="6"/>
<path d="M470 -51L557 36M470 -51H644M470 -51V123M557 36L644 123M557 36L644 -51M557 36L470 123M644 123V-51M644 123H470M644 123L557 210M644 123V297M644 123L731 36M644 123H818M644 123L731 210M644 -51L731 36M644 -51H818M470 123L557 210M470 123V297M557 210L644 297M557 210L470 297M644 297H470M644 297L731 210M644 297H818M731 36L818 123M731 36L818 -51M818 123V-51M818 123L731 210M818 123V297M731 210L818 297" stroke="#6FC025" stroke-width="6"/>
<path d="M-226 297L-139 384M-226 297H-52M-226 297V471M-139 384L-52 471M-139 384L-52 297M-139 384L-226 471M-52 471V297M-52 471H-226M-52 471L-139 558M-52 471V645M-52 471L35 384M-52 471H122M-52 471L35 558M-52 297L35 384M-52 297H122M-226 471L-139 558M-226 471V645M-139 558L-52 645M-139 558L-226 645M-52 645H-226M-52 645L35 558M-52 645H122M35 384L122 471M35 384L122 297M122 471V297M122 471L35 558M122 471V645M35 558L122 645" stroke="#6FC025" stroke-width="6"/>
<path d="M470 297L557 384M470 297H644M470 297V471M557 384L644 471M557 384L644 297M557 384L470 471M644 471V297M644 471H470M644 471L557 558M644 471V645M644 471L731 384M644 471H818M644 471L731 558M644 297L731 384M644 297H818M470 471L557 558M470 471V645M557 558L644 645M557 558L470 645M644 645H470M644 645L731 558M644 645H818M731 384L818 471M731 384L818 297M818 471V297M818 471L731 558M818 471V645M731 558L818 645" stroke="#6FC025" stroke-width="6"/>
<path d="M122 123L209 210M122 123H296M122 123V297M209 210L296 297M209 210L296 123M209 210L122 297M296 297V123M296 297H122M296 297L209 384M296 297V471M296 297L383 210M296 297H470M296 297L383 384M296 123L383 210M296 123H470M122 297L209 384M122 297V471M209 384L296 471M209 384L122 471M296 471H122M296 471L383 384M296 471H470M383 210L470 297M383 210L470 123M470 297V123M470 297L383 384M470 297V471M383 384L470 471" stroke="white" stroke-width="6"/>
<circle cx="122.5" cy="123" r="55" fill="#65D9FF"/>
<circle cx="122.499" cy="122.997" r="32.3529" fill="#012F7A"/>
<circle cx="470.5" cy="123" r="55" fill="#65D9FF"/>
<circle cx="470.499" cy="122.997" r="32.3529" fill="#012F7A"/>
<circle cx="296.5" cy="123" r="55" fill="#65D9FF"/>
<circle cx="296.499" cy="122.997" r="32.3529" fill="#012F7A"/>
<circle cx="122" cy="297" r="55" fill="#65D9FF"/>
<circle cx="121.999" cy="296.997" r="32.3529" fill="#012F7A"/>
<circle cx="122.5" cy="471" r="55" fill="#65D9FF"/>
<circle cx="122.499" cy="470.997" r="32.3529" fill="#012F7A"/>
<circle cx="470.5" cy="471" r="55" fill="#65D9FF"/>
<circle cx="470.499" cy="470.997" r="32.3529" fill="#012F7A"/>
<circle cx="296.5" cy="471" r="55" fill="#65D9FF"/>
<circle cx="296.499" cy="470.997" r="32.3529" fill="#012F7A"/>
<circle cx="470" cy="297" r="55" fill="#65D9FF"/>
<circle cx="469.999" cy="296.997" r="32.3529" fill="#012F7A"/>
<circle cx="296" cy="297" r="55" fill="#65D9FF"/>
<circle cx="295.999" cy="296.997" r="32.3529" fill="#012F7A"/>
</g>
<defs>
<clipPath id="clip0_2054_31796">
<rect width="593" height="593" fill="white"/>
</clipPath>
</defs>
</svg>
