<svg width="259" height="107" viewBox="0 0 259 107" fill="none" xmlns="http://www.w3.org/2000/svg">
<g clip-path="url(#clip0_2054_11793)">
<path fill-rule="evenodd" clip-rule="evenodd" d="M126.519 0.474366C111.958 0.344553 98.2089 7.65181 98.2089 7.65181C98.2089 7.65181 84.3548 15.9834 79.2946 28.469C79.0332 29.6821 51.5887 82.5394 51.5887 82.5394C16.8001 72.5509 -0.0178751 92.7922 0.512143 100.605C8.91637 121.542 50.0153 106.647 54.1176 101.801C56.3898 100.59 57.8515 102.04 57.8515 102.04C57.8515 102.04 67.9171 108.693 69.0532 109.217C70.1893 109.741 75.9196 108.979 75.9196 108.979C78.9681 108.748 83.6527 104.617 86.6165 102.003C87.9854 100.796 88.9872 99.9131 89.2913 99.887C89.7793 99.8886 90.3003 100.926 90.997 102.313C92.4209 105.148 94.5785 109.444 98.6866 109.337C106.028 110.746 113.986 102.519 113.986 102.519C115.034 101.046 115.431 102.16 115.431 102.16C115.273 110.623 121.754 109.749 124.362 109.397C124.535 109.374 124.691 109.353 124.826 109.337C128.268 107.946 134.078 103.3 139.019 99.3492C144.488 94.9759 148.891 91.455 147.836 94.1446C147.137 95.53 141.692 105.627 141.692 105.627C141.081 108.318 143.018 108.141 143.018 108.141L155.786 108.02C157.277 107.136 162.953 95.7263 165.992 89.6182C167.406 86.7766 168.249 85.0824 167.834 86.1293C171.86 78.8928 180.965 76.3202 180.965 76.3202C181.84 76.0605 181.448 77.2761 181.448 77.2761L166.51 106.703C166.248 107.482 167.715 108.259 167.715 108.259L180.725 108.02C182.475 107.853 193.374 85.6501 193.374 85.6501C196.341 80.0163 206.867 76.7993 206.867 76.7993C208.788 76.4571 207.469 78.3547 207.469 78.3547L197.23 99.6486C195.673 109.316 203.854 109.883 207.347 109.458C210.844 108.948 216.526 106.991 227.704 98.6904C229.977 96.9627 230.476 98.7022 230.476 99.0491C230.571 110.938 243.726 109.576 243.726 109.576C247.66 110.541 263.622 110.168 276.975 83.736C272.637 99.6832 280.01 105.32 281.954 106.807C282.199 106.993 282.357 107.115 282.396 107.182C282.745 107.789 288.098 109.644 290.106 109.217C310.47 111.008 319.017 79.549 319.017 79.549C320.043 76.432 319.199 72.9067 318.649 71.5336C311.994 52.1633 286.208 66.8132 282.629 75.4799C281.512 75.7753 280.843 75.7058 280.258 75.6452C280.039 75.6224 279.832 75.601 279.618 75.6003C279.877 69.0058 278.995 64.8943 274.8 62.8008C272.528 61.5806 263.237 62.8008 263.237 62.8008L279.016 31.5774C279.801 30.6239 278.294 29.6633 278.294 29.6633H264.078C263.467 30.0102 262.752 30.8599 262.752 30.8599C262.752 30.8599 235.892 82.5181 234.321 85.2914C232.75 88.0646 213.121 98.4496 213.121 98.4496C213.191 97.6786 215.3 93.6498 217.816 88.8428C221.523 81.7607 226.114 72.9895 226.373 70.4574C226.889 59.4375 214.207 62.9212 214.207 62.9212C214.207 62.9212 207.024 67.6558 200.474 70.9365C199.067 58.8687 188.426 63.0416 188.426 63.0416L176.381 70.8185L178.548 65.1964L179.031 63.0416L164.573 62.6828C162.916 63.8936 159.995 70.4597 159.995 70.4597L155.418 78.8338L134.818 94.265C132.81 95.3861 133.853 92.7096 133.853 92.7096C133.853 92.7096 147.762 65.6213 148.066 65.4325C149.202 64.7409 148.309 63.0416 148.309 63.0416L134.333 62.9212C134.333 62.9212 131.966 66.9147 131.443 67.3466C124.795 58.0402 102.853 61.8166 91.0881 89.3581C89.5836 91.199 88.4214 92.4877 87.5943 92.8276C73.7972 108.844 65.9111 92.948 65.9111 92.948L90.608 46.173C90.608 46.173 101.843 21.2089 108.919 14.1117C126.825 2.10056 131.928 13.3942 131.928 13.3942C133.475 16.9535 138.193 29.8072 113.857 36.0028C110.666 36.3167 111.688 37.7966 111.688 37.7966C118.77 43.8057 127.469 43.1803 127.469 43.1803C136.035 44.8513 159.244 32.1698 150.84 11.8388C144.292 3.32788 135.253 0.554613 126.519 0.474366ZM125.072 68.4229C129.156 68.5149 128.443 73.3746 127.722 74.2857C128.16 75.7608 120.613 88.3998 120.613 88.3998C111.884 99.2238 107.724 97.2506 107.724 97.2506C107.724 97.2506 104.732 96.8376 107.002 91.0314C107.734 89.8107 108.674 88.0033 109.765 85.9051L109.766 85.9035C112.313 81.0038 115.684 74.5187 119.168 70.2143C121.79 68.876 123.71 68.3898 125.072 68.4205V68.4229ZM264.21 74.0449C264.21 74.0449 266.323 70.153 262.04 69.6195C261.961 69.621 259.729 69.6814 257.586 71.8924L246.503 93.4247C246.503 93.4247 243.254 98.7281 245.177 100.123C245.177 100.123 248.652 101.723 252.405 97.1326L264.21 74.0449ZM307.817 74.1653C308.164 70.3063 306.412 69.551 304.565 69.8602C302.721 70.1694 300.874 71.4911 300.831 72.0128C300.743 73.0536 288.422 95.9383 288.422 95.9383C286.155 103.22 294.939 99.9672 295.289 97.9705C297.036 95.6315 305.637 78.7583 307.817 74.1653ZM27.1355 88.6405C34.3371 88.4682 40.8684 90.7931 40.8684 90.7931C40.8684 90.7931 39.1833 96.3703 23.2804 98.9287C22.6247 98.8892 21.9963 98.8534 21.3954 98.8191C15.1098 98.4606 11.8384 98.2741 11.8363 95.8203C15.5036 90.4013 21.5334 88.7751 27.1355 88.6429V88.6405Z" fill="#F2CD16"/>
</g>
<defs>
<clipPath id="clip0_2054_11793">
<rect width="258" height="106" fill="white" transform="translate(0.5 0.472656)"/>
</clipPath>
</defs>
</svg>
