<svg width="297" height="177" viewBox="0 0 297 177" fill="none" xmlns="http://www.w3.org/2000/svg">
<g clip-path="url(#clip0_2054_10889)">
<path d="M208.529 28.5C175.902 28.5 148.529 56.0855 148.529 88.9651C148.529 121.845 175.902 148.5 208.529 148.5C241.157 148.5 268.529 121.845 268.529 88.9651C268.529 56.0855 241.157 28.5 208.529 28.5Z" fill="#00A1FF"/>
<path d="M144.529 24.5273L272.529 152.527M144.529 24.5273H272.529M144.529 24.5273V152.527M272.529 152.527V24.5273M272.529 152.527H144.529M272.529 24.5273L144.529 152.527" stroke="white" stroke-width="6"/>
<path d="M208.529 56.0508C190.856 56.0508 176.529 70.378 176.529 88.0508C176.529 105.724 190.856 120.051 208.529 120.051C226.202 120.051 240.529 105.724 240.529 88.0508C240.529 70.378 226.202 56.0508 208.529 56.0508Z" fill="white"/>
<path d="M195.244 77.1196V81.2448H191.97V77.1196H195.244ZM195.244 94.8022V98.9273H191.97V94.8022H195.244ZM190.655 90.4841C190.655 91.1113 190.788 91.6501 191.052 92.1004C191.317 92.5507 191.68 92.8964 192.143 93.1377C192.623 93.3628 193.177 93.4754 193.805 93.4754C194.335 93.4754 194.781 93.3869 195.145 93.21C195.525 93.0171 195.806 92.7758 195.988 92.4863C196.187 92.1969 196.286 91.8913 196.286 91.5696C196.286 91.1032 196.112 90.7012 195.765 90.3635C195.434 90.0096 194.955 89.7604 194.326 89.6156L192.268 89.1332C190.812 88.7954 189.663 88.1923 188.82 87.3239C187.976 86.4554 187.555 85.4181 187.555 84.212C187.555 83.2309 187.836 82.3544 188.398 81.5825C188.977 80.8105 189.729 80.2155 190.655 79.7973C191.581 79.3631 192.565 79.146 193.607 79.146C194.731 79.146 195.732 79.4033 196.608 79.918C197.485 80.4165 198.163 81.1 198.642 81.9685C199.122 82.8208 199.362 83.7697 199.362 84.815H195.839C195.839 84.1235 195.616 83.5606 195.17 83.1264C194.74 82.6761 194.169 82.4509 193.458 82.4509C192.995 82.4509 192.59 82.5394 192.243 82.7163C191.912 82.8932 191.656 83.1184 191.474 83.3918C191.308 83.6652 191.226 83.9466 191.226 84.2361C191.226 84.5899 191.35 84.9115 191.598 85.201C191.846 85.4744 192.251 85.6754 192.813 85.8041L194.822 86.2866C196.559 86.7047 197.848 87.34 198.692 88.1923C199.552 89.0447 199.982 90.1463 199.982 91.4973C199.982 92.5426 199.717 93.4674 199.188 94.2715C198.659 95.0756 197.923 95.7028 196.98 96.1531C196.054 96.5873 195.004 96.8045 193.83 96.8045C192.59 96.8045 191.457 96.5471 190.432 96.0325C189.407 95.5179 188.588 94.7861 187.976 93.8373C187.365 92.8723 187.059 91.7546 187.059 90.4841H190.655Z" fill="#224D22"/>
<path d="M210.078 77.1196V81.2448H207.009V77.1196H210.078ZM210.078 94.8022V98.9273H207.009V94.8022H210.078ZM205.776 90.4841C205.776 91.1113 205.9 91.6501 206.148 92.1004C206.396 92.5507 206.737 92.8964 207.171 93.1377C207.621 93.3628 208.14 93.4754 208.729 93.4754C209.225 93.4754 209.644 93.3869 209.985 93.21C210.342 93.0171 210.605 92.7758 210.776 92.4863C210.962 92.1969 211.055 91.8913 211.055 91.5696C211.055 91.1032 210.892 90.7012 210.566 90.3635C210.256 90.0096 209.807 89.7604 209.218 89.6156L207.288 89.1332C205.923 88.7954 204.846 88.1923 204.055 87.3239C203.265 86.4554 202.869 85.4181 202.869 84.212C202.869 83.2309 203.133 82.3544 203.66 81.5825C204.203 80.8105 204.908 80.2155 205.776 79.7973C206.644 79.3631 207.567 79.146 208.543 79.146C209.598 79.146 210.535 79.4033 211.357 79.918C212.179 80.4165 212.814 81.1 213.264 81.9685C213.714 82.8208 213.938 83.7697 213.938 84.815H210.636C210.636 84.1235 210.427 83.5606 210.008 83.1264C209.605 82.6761 209.07 82.4509 208.404 82.4509C207.97 82.4509 207.59 82.5394 207.264 82.7163C206.954 82.8932 206.714 83.1184 206.544 83.3918C206.388 83.6652 206.311 83.9466 206.311 84.2361C206.311 84.5899 206.427 84.9115 206.66 85.201C206.892 85.4744 207.272 85.6754 207.799 85.8041L209.683 86.2866C211.311 86.7047 212.52 87.34 213.31 88.1923C214.117 89.0447 214.52 90.1463 214.52 91.4973C214.52 92.5426 214.272 93.4674 213.776 94.2715C213.279 95.0756 212.59 95.7028 211.706 96.1531C210.838 96.5873 209.853 96.8045 208.753 96.8045C207.59 96.8045 206.528 96.5471 205.567 96.0325C204.606 95.5179 203.838 94.7861 203.265 93.8373C202.691 92.8723 202.404 91.7546 202.404 90.4841H205.776Z" fill="#224D22"/>
<path d="M224.617 77.1196V81.2448H221.548V77.1196H224.617ZM224.617 94.8022V98.9273H221.548V94.8022H224.617ZM220.315 90.4841C220.315 91.1113 220.439 91.6501 220.687 92.1004C220.935 92.5507 221.276 92.8964 221.71 93.1377C222.16 93.3628 222.679 93.4754 223.268 93.4754C223.765 93.4754 224.183 93.3869 224.524 93.21C224.881 93.0171 225.144 92.7758 225.315 92.4863C225.501 92.1969 225.594 91.8913 225.594 91.5696C225.594 91.1032 225.431 90.7012 225.106 90.3635C224.795 90.0096 224.346 89.7604 223.757 89.6156L221.827 89.1332C220.462 88.7954 219.385 88.1923 218.594 87.3239C217.804 86.4554 217.408 85.4181 217.408 84.212C217.408 83.2309 217.672 82.3544 218.199 81.5825C218.742 80.8105 219.447 80.2155 220.315 79.7973C221.183 79.3631 222.106 79.146 223.082 79.146C224.137 79.146 225.075 79.4033 225.896 79.918C226.718 80.4165 227.353 81.1 227.803 81.9685C228.253 82.8208 228.477 83.7697 228.477 84.815H225.175C225.175 84.1235 224.966 83.5606 224.547 83.1264C224.144 82.6761 223.61 82.4509 222.943 82.4509C222.509 82.4509 222.129 82.5394 221.803 82.7163C221.493 82.8932 221.253 83.1184 221.083 83.3918C220.928 83.6652 220.85 83.9466 220.85 84.2361C220.85 84.5899 220.966 84.9115 221.199 85.201C221.431 85.4744 221.811 85.6754 222.338 85.8041L224.222 86.2866C225.85 86.7047 227.059 87.34 227.85 88.1923C228.656 89.0447 229.059 90.1463 229.059 91.4973C229.059 92.5426 228.811 93.4674 228.315 94.2715C227.819 95.0756 227.129 95.7028 226.245 96.1531C225.377 96.5873 224.392 96.8045 223.292 96.8045C222.129 96.8045 221.067 96.5471 220.106 96.0325C219.145 95.5179 218.377 94.7861 217.804 93.8373C217.23 92.8723 216.943 91.7546 216.943 90.4841H220.315Z" fill="#224D22"/>
<path d="M209 0.527344C195.745 0.527344 185 11.2727 185 24.5273C185 37.7819 195.745 48.5273 209 48.5273C222.255 48.5273 233 37.7819 233 24.5273C233 11.2727 222.255 0.527344 209 0.527344Z" fill="#9BD955"/>
<path d="M209.001 11.084C201.578 11.084 195.561 17.1014 195.561 24.524C195.561 31.9466 201.578 37.964 209.001 37.964C216.423 37.964 222.441 31.9466 222.441 24.524C222.441 17.1014 216.423 11.084 209.001 11.084Z" fill="#55A51A"/>
<path d="M296.529 88.0547C296.529 74.7998 285.784 64.0547 272.529 64.0547C259.275 64.0547 248.529 74.7998 248.529 88.0547C248.529 101.31 259.275 112.055 272.529 112.055C285.784 112.055 296.529 101.31 296.529 88.0547Z" fill="#9BD955"/>
<path d="M285.973 88.0552C285.973 80.6326 279.955 74.6152 272.533 74.6152C265.11 74.6152 259.093 80.6326 259.093 88.0552C259.093 95.4778 265.11 101.495 272.533 101.495C279.955 101.495 285.973 95.4778 285.973 88.0552Z" fill="#55A51A"/>
<path d="M272.529 11.5273C265.35 11.5273 259.529 17.3478 259.529 24.5273C259.529 31.7069 265.35 37.5273 272.529 37.5273C279.709 37.5273 285.529 31.7069 285.529 24.5273C285.529 17.3478 279.709 11.5273 272.529 11.5273Z" fill="#9BD955"/>
<path d="M272.528 17.2446C268.507 17.2446 265.248 20.5041 265.248 24.5246C265.248 28.5452 268.507 31.8046 272.528 31.8046C276.549 31.8046 279.808 28.5452 279.808 24.5246C279.808 20.5041 276.549 17.2446 272.528 17.2446Z" fill="#55A51A"/>
<path d="M145.529 11.5273C138.35 11.5273 132.529 17.3478 132.529 24.5273C132.529 31.7069 138.35 37.5273 145.529 37.5273C152.709 37.5273 158.529 31.7069 158.529 24.5273C158.529 17.3478 152.709 11.5273 145.529 11.5273Z" fill="#9BD955"/>
<path d="M145.528 17.2446C141.507 17.2446 138.248 20.5041 138.248 24.5246C138.248 28.5452 141.507 31.8046 145.528 31.8046C149.549 31.8046 152.808 28.5452 152.808 24.5246C152.808 20.5041 149.549 17.2446 145.528 17.2446Z" fill="#55A51A"/>
<path d="M272.529 139.527C265.35 139.527 259.529 145.348 259.529 152.527C259.529 159.707 265.35 165.527 272.529 165.527C279.709 165.527 285.529 159.707 285.529 152.527C285.529 145.348 279.709 139.527 272.529 139.527Z" fill="#9BD955"/>
<path d="M272.528 145.244C268.507 145.244 265.248 148.504 265.248 152.524C265.248 156.545 268.507 159.804 272.528 159.804C276.549 159.804 279.808 156.545 279.808 152.524C279.808 148.504 276.549 145.244 272.528 145.244Z" fill="#55A51A"/>
<path d="M144.529 139.527C137.35 139.527 131.529 145.348 131.529 152.527C131.529 159.707 137.35 165.527 144.529 165.527C151.709 165.527 157.529 159.707 157.529 152.527C157.529 145.348 151.709 139.527 144.529 139.527Z" fill="#9BD955"/>
<path d="M144.528 145.244C140.507 145.244 137.248 148.504 137.248 152.524C137.248 156.545 140.507 159.804 144.528 159.804C148.549 159.804 151.808 156.545 151.808 152.524C151.808 148.504 148.549 145.244 144.528 145.244Z" fill="#55A51A"/>
<path d="M209 128.527C195.745 128.527 185 139.273 185 152.527C185 165.782 195.745 176.527 209 176.527C222.255 176.527 233 165.782 233 152.527C233 139.273 222.255 128.527 209 128.527Z" fill="#9BD955"/>
<path d="M209.001 139.084C201.578 139.084 195.561 145.101 195.561 152.524C195.561 159.947 201.578 165.964 209.001 165.964C216.423 165.964 222.441 159.947 222.441 152.524C222.441 145.101 216.423 139.084 209.001 139.084Z" fill="#55A51A"/>
<path d="M168.529 88.0547C168.529 74.7998 157.784 64.0547 144.529 64.0547C131.275 64.0547 120.529 74.7998 120.529 88.0547C120.529 101.31 131.275 112.055 144.529 112.055C157.784 112.055 168.529 101.31 168.529 88.0547Z" fill="#9BD955"/>
<path d="M157.973 88.0552C157.973 80.6326 151.955 74.6152 144.533 74.6152C137.11 74.6152 131.093 80.6326 131.093 88.0552C131.093 95.4778 137.11 101.495 144.533 101.495C151.955 101.495 157.973 95.4778 157.973 88.0552Z" fill="#55A51A"/>
</g>
<defs>
<clipPath id="clip0_2054_10889">
<rect width="297" height="176" fill="white" transform="translate(0 0.527344)"/>
</clipPath>
</defs>
</svg>
