<svg fill="none" viewBox="0 0 350 351" xmlns="http://www.w3.org/2000/svg"><path d="m187.41 21.544h-24.822v50.508h24.822zm-144.93 60.03 17.552-17.55 36.18 36.176-17.551 17.551zm-42.48 102.558v24.823h50.507v-24.823zm299.491 24.823v-24.823h50.507v24.823zm-45.706-108.745 17.553 17.55 36.181-36.176-17.553-17.56z" fill="#6fc025"/><path d="m233.672 282.542 20.931-65.78c17.148-53.902-23.074-108.909-79.633-108.909s-96.783 55.007-79.633 108.909l20.93 65.78h46.191v-60.505h24.823v60.505z" fill="#f2cd16"/><path clip-rule="evenodd" d="m116 282.204h46.425v-60.457h24.949v60.457h46.626l-15.216 47.543h-87.568z" fill="#fdf3a1" fill-rule="evenodd"/></svg>