<svg width="593" height="593" viewBox="0 0 593 593" fill="none" xmlns="http://www.w3.org/2000/svg">
<rect width="593" height="593" fill="#194D06"/>
<rect width="593" height="297" fill="#2B6F0B"/>
<path d="M126 297C126 390.888 202.112 467 296 467C389.888 467 466 390.888 466 297H126Z" fill="#99ECFF"/>
<path d="M126 297C126 203.112 202.112 127 296 127C389.888 127 466 203.112 466 297H126Z" fill="#6FC025"/>
<path d="M202 297C202 348.915 244.085 391 296 391C347.915 391 390 348.915 390 297H202Z" fill="#00A1FF"/>
<path d="M202 297C202 245.085 244.085 203 296 203C347.915 203 390 245.085 390 297H202Z" fill="#1E5C06"/>
<path d="M273.373 553.66C263.155 543.476 261.053 527.73 268.244 515.238L296.009 467L323.76 515.238C330.947 527.731 328.842 543.475 318.626 553.658C306.13 566.113 285.869 566.114 273.373 553.66Z" fill="#99ECFF"/>
<path d="M296 297L306.179 286.856H306.178L316.357 276.712H316.288L326 267H266L275.712 276.712H275.642L285.86 286.895H285.861L296 297Z" fill="white"/>
<path d="M290 267H302V184H290V267Z" fill="white"/>
<path d="M202 297L212.179 286.856H212.178L222.357 276.712H222.288L232 267H172L181.712 276.712H181.642L191.86 286.895H191.861L202 297Z" fill="white"/>
<path d="M196 267H208V184H196V267Z" fill="white"/>
<path d="M390 297L400.179 286.856H400.178L410.357 276.712H410.288L420 267H360L369.712 276.712H369.642L379.86 286.895H379.861L390 297Z" fill="white"/>
<path d="M384 267H396V184H384V267Z" fill="white"/>
</svg>
