<svg width="255" height="198" viewBox="0 0 255 198" fill="none" xmlns="http://www.w3.org/2000/svg">
<path d="M151.239 197.797C108.294 197.797 73.4805 162.983 73.4805 120.038L73.4805 93.5478L228.997 93.5478L228.997 120.038C228.997 162.983 194.184 197.797 151.239 197.797Z" fill="white"/>
<circle cx="151.239" cy="93.7585" r="77.7585" fill="#012F7A"/>
<path d="M182.828 93.8405L151.239 47.6714L119.649 93.8405L151.239 140.01L182.828 93.8405Z" fill="#CCF8FF"/>
<path d="M26 94L32.9333 113.067L52 120L32.9333 126.933L26 146L19.0667 126.933L1.1365e-06 120L19.0667 113.067L26 94Z" fill="white"/>
<path d="M240 6.55671e-07L244 11L255 15L244 19L240 30L236 19L225 15L236 11L240 6.55671e-07Z" fill="white"/>
</svg>
