<svg fill="none" viewBox="0 0 530 232" xmlns="http://www.w3.org/2000/svg"><g clip-rule="evenodd" fill-rule="evenodd"><path d="m476.996 42-12.485 8.844c-11.178 7.919-25.176 13.156-40.515 13.156v42c19.151 0 37.24-4.684 53-12.967 15.76 8.283 33.849 12.967 53 12.967v-42c-15.338 0-29.337-5.237-40.515-13.156z" fill="#408a13"/><path d="m53 42-12.485 8.844c-11.178 7.919-25.177 13.156-40.515 13.156v42c19.151 0 37.24-4.684 53-12.967 15.76 8.283 33.849 12.967 53 12.967v-42c-15.338 0-29.337-5.237-40.515-13.156z" fill="#1e5c06"/><path d="m371 0-12.485 8.844c-11.178 7.919-25.177 13.156-40.515 13.156v42c19.151 0 37.24-4.684 53-12.967 15.76 8.283 33.849 12.967 53 12.967v-42c-15.338 0-29.337-5.237-40.515-13.156z" fill="#408a13"/><path d="m371 168-12.485 8.844c-11.178 7.919-25.177 13.156-40.515 13.156v42c19.151 0 37.24-4.684 53-12.967 15.76 8.283 33.849 12.967 53 12.967v-42c-15.338 0-29.337-5.237-40.515-13.156z" fill="#1e5c06"/><path d="m159 168-12.485 8.844c-11.178 7.919-25.177 13.156-40.515 13.156v42c19.151 0 37.24-4.684 53-12.967 15.76 8.283 33.849 12.967 53 12.967v-42c-15.338 0-29.337-5.237-40.515-13.156z" fill="#00a1ff"/><path d="m159 84-12.485 8.844c-11.178 7.919-25.177 13.156-40.515 13.156v42c19.151 0 37.24-4.684 53-12.967 15.76 8.283 33.849 12.967 53 12.967v-42c-15.338 0-29.337-5.237-40.515-13.156z" fill="#408a13"/><path d="m159 0-12.485 8.844c-11.178 7.919-25.177 13.156-40.515 13.156v42c19.151 0 37.24-4.684 53-12.967 15.76 8.283 33.849 12.967 53 12.967v-42c-15.338 0-29.337-5.237-40.515-13.156z" fill="#1e5c06"/><path d="m476.996 126-12.485 8.844c-11.178 7.919-25.176 13.156-40.515 13.156v42c19.151 0 37.24-4.684 53-12.967 15.76 8.283 33.849 12.967 53 12.967v-42c-15.338 0-29.337-5.237-40.515-13.156z" fill="#00a1ff"/><path d="m53 126-12.485 8.844c-11.178 7.919-25.177 13.156-40.515 13.156v42c19.151 0 37.24-4.684 53-12.967 15.76 8.283 33.849 12.967 53 12.967v-42c-15.338 0-29.337-5.237-40.515-13.156z" fill="#1e5c06"/><path d="m265 126-12.485 8.844c-11.178 7.919-25.177 13.156-40.515 13.156v42c19.151 0 37.24-4.684 53-12.967 15.76 8.283 33.849 12.967 53 12.967v-42c-15.338 0-29.337-5.237-40.515-13.156z" fill="#408a13"/><path d="m265 42-12.485 8.844c-11.178 7.919-25.177 13.156-40.515 13.156v42c19.151 0 37.24-4.684 53-12.967 15.76 8.283 33.849 12.967 53 12.967v-42c-15.338 0-29.337-5.237-40.515-13.156z" fill="#00a1ff"/><path d="m358.202 162c-5.149 0-9.705-3.293-11.261-8.139l-8.004-24.917h-4.92c-5.149 0-9.705-3.292-11.262-8.139l-4.755-14.805h17.837l-9.408-14h89.142l-9.408 14h17.837l-4.755 14.805c-1.557 4.847-6.113 8.139-11.262 8.139h-4.92l-8.004 24.917c-1.556 4.846-6.112 8.139-11.261 8.139zm-6.046-39.861c0 3.758 2.841 6.805 6.347 6.805 3.505 0 6.347-3.047 6.347-6.805 0-3.759-2.842-6.806-6.347-6.806-3.506 0-6.347 3.047-6.347 6.806zm37.689 0c0 3.758-2.842 6.805-6.348 6.805-3.505 0-6.347-3.047-6.347-6.805 0-3.759 2.842-6.806 6.347-6.806 3.506 0 6.348 3.047 6.348 6.806z" fill="#bcec79"/></g></svg>