<svg fill="none" height="594" viewBox="0 0 593 594" width="593" xmlns="http://www.w3.org/2000/svg" xmlns:xlink="http://www.w3.org/1999/xlink"><clipPath id="a"><path d="m0 .9375h593v593h-593z"/></clipPath><g clip-path="url(#a)"><path d="m0 0h593v593h-593z" fill="#490072" transform="translate(0 .9375)"/><path d="m96.0686 498.056c-55.6141-55.614-55.6141-145.782 0-201.396l201.3964-201.3969c55.614-55.6141 145.783-55.6142 201.397 0 55.614 55.6139 55.614 145.7829 0 201.3969l-201.397 201.396c-55.614 55.614-145.782 55.614-201.3964 0z" fill="#f996ee"/><path d="m260.605 232.818c-20.356-75.97 24.728-154.0579 100.698-174.4141 75.971-20.3562 154.059 24.728 174.415 100.6981 20.356 75.971-24.728 154.059-100.698 174.415-75.971 20.356-154.059-24.728-174.415-100.699z" fill="#fdd7f5"/><path d="m456.907 137.219c-55.614-55.6142-55.614-145.78246 0-201.3966 55.614-55.6144 145.782-55.6144 201.396 0 55.614 55.61414 55.614 145.7824 0 201.3966-55.614 55.614-145.782 55.614-201.396 0z" fill="#8702aa"/><path d="m416.355 54.7083c30.169 3.8632 59.338 17.3802 82.508 40.551 23.171 23.1707 36.688 52.3397 40.551 82.5087-30.169-3.863-59.337-17.38-82.508-40.551s-36.688-52.3398-40.551-82.5087z" fill="#ed60e9"/><path d="m389.973 110.811 8.32 31.049-24.015 6.435-8.32-31.05zm35.663 133.093 8.319 31.05-24.015 6.434-8.319-31.049zm-42.366-23.483c1.264 4.721 3.321 8.516 6.17 11.386 2.849 2.869 6.215 4.757 10.097 5.662 3.972.753 8.262.511 12.871-.724 3.881-1.04 6.977-2.583 9.289-4.629 2.4-2.201 3.976-4.569 4.726-7.105.872-2.569.983-5.064.335-7.485-.941-3.51-3.025-6.195-6.254-8.055-3.139-2.013-7.159-2.947-12.06-2.801l-16.073.414c-11.355.318-21.001-1.962-28.938-6.842-7.937-4.879-13.122-11.858-15.555-20.936-1.978-7.385-1.684-14.534.883-21.45 2.688-6.947 7.007-12.905 12.955-17.872 5.917-5.088 12.696-8.656 20.337-10.704 8.247-2.21 16.104-2.239 23.57-.088 7.434 2.03 13.786 5.842 19.054 11.436 5.237 5.474 8.909 12.144 11.017 20.013l-25.834 6.922c-1.395-5.205-4.167-9.003-8.318-11.394-4.062-2.545-8.7-3.118-13.915-1.721-3.397.91-6.19 2.372-8.38 4.386-2.069 1.982-3.495 4.18-4.278 6.596-.661 2.383-.7 4.663-.116 6.842.713 2.663 2.272 4.841 4.675 6.532 2.371 1.57 5.748 2.287 10.131 2.151l15.71-.317c13.578-.266 24.32 1.981 32.225 6.739 8.026 4.726 13.401 12.173 16.125 22.341 2.109 7.868 2.033 15.348-.226 22.441-2.26 7.092-6.392 13.259-12.397 18.501-5.917 5.088-13.181 8.786-21.792 11.094-9.097 2.437-17.924 2.727-26.482.868s-16.037-5.758-22.438-11.697c-6.434-6.061-10.932-13.872-13.495-23.435z" fill="#ec4612"/><path d="m127.146 397.356c0-38.451 31.171-69.622 69.622-69.622 38.452 0 69.623 31.171 69.623 69.622 0 38.452-31.171 69.623-69.623 69.623-38.451 0-69.622-31.171-69.622-69.623z" fill="#fff"/><path clip-rule="evenodd" d="m192.302 403.355 31.347-31.347 13.463 13.463-44.81 44.81-30.531-30.531 13.463-13.463z" fill="#66018e" fill-rule="evenodd"/></g></svg>