<svg fill="none" height="241" viewBox="0 0 405 241" width="405" xmlns="http://www.w3.org/2000/svg" xmlns:xlink="http://www.w3.org/1999/xlink"><clipPath id="a"><path d="m0 .9375h405v240h-405z"/></clipPath><g clip-path="url(#a)"><path d="m77 69h82v171.938h-82z" fill="#66018e"/><path d="m159 69h82v171.938h-82z" fill="#8702aa"/><path d="m159 68.9375h82v157.943h-82z" fill="#8702aa"/><path d="m241 69h82v171.938h-82z" fill="#66018e"/><path d="m323 69h82v171.938h-82z" fill="#8702aa"/><path d="m323 240.937v-88.312h14.954c5.162 0 10.206-1.532 14.485-4.401l52.561-35.24v127.954z" fill="#ed60e9"/><path d="m241 240.937v-87.928c1.458-.253 2.947-.383 4.453-.383h77.547v88.312z" fill="#fccaf2"/><path d="m159 240.937v-44.374l14.306 5.453c11.117 4.235 23.708.393 30.515-9.311l20.388-29.06c3.981-5.675 10.051-9.468 16.791-10.636v87.929z" fill="#ed60e9"/><ellipse cx="241.5" cy="152.969" fill="#ec4612" rx="17.9935" ry="18" transform="matrix(0 -1 1 0 88.531 394.469)"/><ellipse cx="323" cy="152.969" fill="#ec4612" rx="17.9935" ry="18" transform="matrix(0 -1 1 0 170.031 475.969)"/><path d="m159 240.937v-44.377l-82-31.24v75.617z" fill="#fccaf2"/><g fill="#ec4612"><ellipse cx="159" cy="195.954" rx="17.9935" ry="18" transform="matrix(0 -1 1 0 -36.954 354.954)"/><path d="m77 146.972c9.9411 0 18 8.056 18 17.993 0 9.938-8.0589 17.994-18 17.994 0 0 0-26.05 0-35.987z"/><path d="m405 94.9906c-9.941 0-18 8.0564-18 17.9934 0 9.938 8.059 17.993 18 17.993 0 0 0-26.049 0-35.9864z"/></g></g></svg>