<svg xmlns="http://www.w3.org/2000/svg" fill="none" viewBox="0 0 224 200"><path fill="#00A1FF" d="M0 0h224v60.794c0 67.015-46.628 124.969-112 139.205C46.628 185.763 0 127.809 0 60.794V0Z"/><path fill="#99ECFF" d="M224 60.794V0H112v199.999c65.372-14.236 112-72.19 112-139.205Z"/><path fill="#F2CD16" d="m112 129-60-15.978 21.725-46.1c-4.425-4.1-6.483-10.434-4.808-16.647l2.917-10.819c2.416-8.962 11.685-14.28 20.703-11.88L112 32.76V129Z"/><path fill="#CCF8FF" d="M112 0h56v81h-56z"/><path fill="#012F7A" d="m112.003 51 43.41 11.632c8.964 2.402 14.283 11.615 11.881 20.579l-2.899 10.82c-1.665 6.215-6.604 10.678-12.465 12.03l-4.351 50.727-35.576-9.532V51Z"/></svg>
