<svg width="297" height="177" viewBox="0 0 297 177" fill="none" xmlns="http://www.w3.org/2000/svg">
<g clip-path="url(#clip0_2054_10868)">
<rect x="94" y="0.527344" width="176" height="176" rx="88" fill="#00A1FF"/>
<path d="M182 38.5273C154.386 38.5273 132 60.9136 132 88.5273C132 116.141 154.386 138.527 182 138.527C209.614 138.527 232 116.141 232 88.5273C232 60.9136 209.614 38.5273 182 38.5273Z" fill="#9BD955"/>
<path d="M94 121.527L182 88.5273" stroke="white" stroke-width="6"/>
<path d="M270 33.5273L182 88.5273" stroke="white" stroke-width="6"/>
<path d="M243 149.527L182 88.5273" stroke="white" stroke-width="6"/>
<path d="M94 89.5273C76.3268 89.5273 62 103.855 62 121.527C62 139.2 76.3268 153.527 94 153.527C111.673 153.527 126 139.2 126 121.527C126 103.855 111.673 89.5273 94 89.5273Z" fill="white"/>
<path d="M80.7147 110.596V114.721H77.4406V110.596H80.7147ZM80.7147 128.279V132.404H77.4406V128.279H80.7147ZM76.1259 123.961C76.1259 124.588 76.2582 125.127 76.5228 125.577C76.7874 126.027 77.1512 126.373 77.6142 126.614C78.0937 126.839 78.6477 126.952 79.2761 126.952C79.8052 126.952 80.2517 126.864 80.6155 126.687C80.9959 126.494 81.277 126.252 81.4589 125.963C81.6573 125.673 81.7565 125.368 81.7565 125.046C81.7565 124.58 81.5829 124.178 81.2356 123.84C80.9049 123.486 80.4254 123.237 79.797 123.092L77.7382 122.61C76.283 122.272 75.1338 121.669 74.2904 120.8C73.4471 119.932 73.0254 118.895 73.0254 117.689C73.0254 116.707 73.3065 115.831 73.8687 115.059C74.4475 114.287 75.1999 113.692 76.1259 113.274C77.052 112.84 78.0359 112.623 79.0777 112.623C80.2021 112.623 81.2026 112.88 82.079 113.395C82.9554 113.893 83.6334 114.577 84.1129 115.445C84.5925 116.297 84.8323 117.246 84.8323 118.292H81.31C81.31 117.6 81.0868 117.037 80.6403 116.603C80.2104 116.153 79.6399 115.927 78.9288 115.927C78.4658 115.927 78.0607 116.016 77.7134 116.193C77.3827 116.37 77.1264 116.595 76.9445 116.868C76.7791 117.142 76.6964 117.423 76.6964 117.713C76.6964 118.066 76.8205 118.388 77.0685 118.678C77.3165 118.951 77.7217 119.152 78.2839 119.281L80.2931 119.763C82.0294 120.181 83.3192 120.817 84.1625 121.669C85.0224 122.521 85.4524 123.623 85.4524 124.974C85.4524 126.019 85.1878 126.944 84.6586 127.748C84.1295 128.552 83.3936 129.179 82.451 129.63C81.525 130.064 80.475 130.281 79.3009 130.281C78.0607 130.281 76.9279 130.024 75.9027 129.509C74.8774 128.994 74.0589 128.263 73.4471 127.314C72.8352 126.349 72.5293 125.231 72.5293 123.961H76.1259Z" fill="#224D22"/>
<path d="M95.5489 110.596V114.721H92.4793V110.596H95.5489ZM95.5489 128.279V132.404H92.4793V128.279H95.5489ZM91.2468 123.961C91.2468 124.588 91.3709 125.127 91.6189 125.577C91.867 126.027 92.208 126.373 92.6421 126.614C93.0917 126.839 93.611 126.952 94.2001 126.952C94.6962 126.952 95.1148 126.864 95.4558 126.687C95.8124 126.494 96.0759 126.252 96.2465 125.963C96.4325 125.673 96.5255 125.368 96.5255 125.046C96.5255 124.58 96.3627 124.178 96.0372 123.84C95.7271 123.486 95.2776 123.237 94.6885 123.092L92.7584 122.61C91.3941 122.272 90.3167 121.669 89.526 120.8C88.7354 119.932 88.3401 118.895 88.3401 117.689C88.3401 116.707 88.6036 115.831 89.1307 115.059C89.6733 114.287 90.3787 113.692 91.2468 113.274C92.115 112.84 93.0374 112.623 94.0141 112.623C95.0683 112.623 96.0062 112.88 96.8278 113.395C97.6495 113.893 98.2851 114.577 98.7347 115.445C99.1842 116.297 99.409 117.246 99.409 118.292H96.107C96.107 117.6 95.8977 117.037 95.4791 116.603C95.076 116.153 94.5412 115.927 93.8746 115.927C93.4405 115.927 93.0607 116.016 92.7351 116.193C92.4251 116.37 92.1848 116.595 92.0142 116.868C91.8592 117.142 91.7817 117.423 91.7817 117.713C91.7817 118.066 91.898 118.388 92.1305 118.678C92.363 118.951 92.7429 119.152 93.27 119.281L95.1535 119.763C96.7813 120.181 97.9905 120.817 98.7812 121.669C99.5873 122.521 99.9904 123.623 99.9904 124.974C99.9904 126.019 99.7423 126.944 99.2463 127.748C98.7502 128.552 98.0603 129.179 97.1766 129.63C96.3085 130.064 95.3241 130.281 94.2234 130.281C93.0607 130.281 91.9987 130.024 91.0376 129.509C90.0764 128.994 89.309 128.263 88.7354 127.314C88.1618 126.349 87.875 125.231 87.875 123.961H91.2468Z" fill="#224D22"/>
<path d="M110.088 110.596V114.721H107.018V110.596H110.088ZM110.088 128.279V132.404H107.018V128.279H110.088ZM105.786 123.961C105.786 124.588 105.91 125.127 106.158 125.577C106.406 126.027 106.747 126.373 107.181 126.614C107.631 126.839 108.15 126.952 108.739 126.952C109.235 126.952 109.654 126.864 109.995 126.687C110.351 126.494 110.615 126.252 110.786 125.963C110.972 125.673 111.065 125.368 111.065 125.046C111.065 124.58 110.902 124.178 110.576 123.84C110.266 123.486 109.817 123.237 109.228 123.092L107.297 122.61C105.933 122.272 104.856 121.669 104.065 120.8C103.274 119.932 102.879 118.895 102.879 117.689C102.879 116.707 103.143 115.831 103.67 115.059C104.212 114.287 104.918 113.692 105.786 113.274C106.654 112.84 107.576 112.623 108.553 112.623C109.607 112.623 110.545 112.88 111.367 113.395C112.189 113.893 112.824 114.577 113.274 115.445C113.723 116.297 113.948 117.246 113.948 118.292H110.646C110.646 117.6 110.437 117.037 110.018 116.603C109.615 116.153 109.08 115.927 108.414 115.927C107.98 115.927 107.6 116.016 107.274 116.193C106.964 116.37 106.724 116.595 106.553 116.868C106.398 117.142 106.321 117.423 106.321 117.713C106.321 118.066 106.437 118.388 106.67 118.678C106.902 118.951 107.282 119.152 107.809 119.281L109.693 119.763C111.32 120.181 112.53 120.817 113.32 121.669C114.126 122.521 114.529 123.623 114.529 124.974C114.529 126.019 114.281 126.944 113.785 127.748C113.289 128.552 112.599 129.179 111.716 129.63C110.848 130.064 109.863 130.281 108.762 130.281C107.6 130.281 106.538 130.024 105.577 129.509C104.615 128.994 103.848 128.263 103.274 127.314C102.701 126.349 102.414 125.231 102.414 123.961H105.786Z" fill="#224D22"/>
<path d="M182 60.5273C166.536 60.5273 154 73.0636 154 88.5273C154 103.991 166.536 116.527 182 116.527C197.464 116.527 210 103.991 210 88.5273C210 73.0636 197.464 60.5273 182 60.5273Z" fill="#55A51A"/>
<path d="M270 6.52734C255.088 6.52734 243 18.6159 243 33.5273C243 48.4388 255.088 60.5273 270 60.5273C284.912 60.5273 297 48.4388 297 33.5273C297 18.6159 284.912 6.52734 270 6.52734Z" fill="#2B6F0B"/>
<path d="M264.203 23V27.1251H261.134V23H264.203ZM264.203 40.6826V44.8077H261.134V40.6826H264.203ZM259.901 36.3644C259.901 36.9917 260.025 37.5304 260.273 37.9807C260.521 38.431 260.862 38.7768 261.296 39.018C261.746 39.2432 262.265 39.3558 262.854 39.3558C263.35 39.3558 263.769 39.2673 264.11 39.0904C264.467 38.8974 264.73 38.6562 264.901 38.3667C265.087 38.0772 265.18 37.7717 265.18 37.45C265.18 36.9836 265.017 36.5816 264.691 36.2438C264.381 35.89 263.932 35.6407 263.343 35.496L261.413 35.0135C260.048 34.6758 258.971 34.0727 258.18 33.2043C257.39 32.3358 256.994 31.2985 256.994 30.0923C256.994 29.1113 257.258 28.2348 257.785 27.4629C258.328 26.6909 259.033 26.0959 259.901 25.6777C260.769 25.2435 261.692 25.0264 262.668 25.0264C263.723 25.0264 264.66 25.2837 265.482 25.7983C266.304 26.2969 266.939 26.9804 267.389 27.8488C267.839 28.7012 268.063 29.6501 268.063 30.6954H264.761C264.761 30.0039 264.552 29.441 264.133 29.0068C263.73 28.5565 263.195 28.3313 262.529 28.3313C262.095 28.3313 261.715 28.4198 261.389 28.5967C261.079 28.7736 260.839 28.9987 260.669 29.2721C260.513 29.5455 260.436 29.827 260.436 30.1164C260.436 30.4703 260.552 30.7919 260.785 31.0814C261.017 31.3548 261.397 31.5558 261.924 31.6845L263.808 32.167C265.436 32.5851 266.645 33.2203 267.435 34.0727C268.242 34.9251 268.645 36.0267 268.645 37.3776C268.645 38.423 268.397 39.3477 267.901 40.1518C267.404 40.956 266.715 41.5832 265.831 42.0335C264.963 42.4677 263.978 42.6848 262.878 42.6848C261.715 42.6848 260.653 42.4275 259.692 41.9129C258.731 41.3982 257.963 40.6665 257.39 39.7176C256.816 38.7527 256.529 37.635 256.529 36.3644H259.901Z" fill="#9BD955"/>
<path d="M278.742 23V27.1251H275.673V23H278.742ZM278.742 40.6826V44.8077H275.673V40.6826H278.742ZM274.44 36.3644C274.44 36.9917 274.564 37.5304 274.812 37.9807C275.06 38.431 275.401 38.7768 275.835 39.018C276.285 39.2432 276.804 39.3558 277.393 39.3558C277.89 39.3558 278.308 39.2673 278.649 39.0904C279.006 38.8974 279.269 38.6562 279.44 38.3667C279.626 38.0772 279.719 37.7717 279.719 37.45C279.719 36.9836 279.556 36.5816 279.231 36.2438C278.92 35.89 278.471 35.6407 277.882 35.496L275.952 35.0135C274.587 34.6758 273.51 34.0727 272.719 33.2043C271.929 32.3358 271.533 31.2985 271.533 30.0923C271.533 29.1113 271.797 28.2348 272.324 27.4629C272.867 26.6909 273.572 26.0959 274.44 25.6777C275.308 25.2435 276.231 25.0264 277.207 25.0264C278.262 25.0264 279.2 25.2837 280.021 25.7983C280.843 26.2969 281.478 26.9804 281.928 27.8488C282.378 28.7012 282.602 29.6501 282.602 30.6954H279.3C279.3 30.0039 279.091 29.441 278.672 29.0068C278.269 28.5565 277.735 28.3313 277.068 28.3313C276.634 28.3313 276.254 28.4198 275.928 28.5967C275.618 28.7736 275.378 28.9987 275.208 29.2721C275.053 29.5455 274.975 29.827 274.975 30.1164C274.975 30.4703 275.091 30.7919 275.324 31.0814C275.556 31.3548 275.936 31.5558 276.463 31.6845L278.347 32.167C279.975 32.5851 281.184 33.2203 281.975 34.0727C282.781 34.9251 283.184 36.0267 283.184 37.3776C283.184 38.423 282.936 39.3477 282.44 40.1518C281.944 40.956 281.254 41.5832 280.37 42.0335C279.502 42.4677 278.517 42.6848 277.417 42.6848C276.254 42.6848 275.192 42.4275 274.231 41.9129C273.27 41.3982 272.502 40.6665 271.929 39.7176C271.355 38.7527 271.068 37.635 271.068 36.3644H274.44Z" fill="#9BD955"/>
<path d="M243 132.527C233.611 132.527 226 140.139 226 149.527C226 158.916 233.611 166.527 243 166.527C252.389 166.527 260 158.916 260 149.527C260 140.139 252.389 132.527 243 132.527Z" fill="#9BD955"/>
<path d="M244.203 139V143.125H241.134V139H244.203ZM244.203 156.683V160.808H241.134V156.683H244.203ZM239.901 152.364C239.901 152.992 240.025 153.53 240.273 153.981C240.521 154.431 240.862 154.777 241.296 155.018C241.746 155.243 242.265 155.356 242.854 155.356C243.35 155.356 243.769 155.267 244.11 155.09C244.467 154.897 244.73 154.656 244.901 154.367C245.087 154.077 245.18 153.772 245.18 153.45C245.18 152.984 245.017 152.582 244.691 152.244C244.381 151.89 243.932 151.641 243.343 151.496L241.413 151.014C240.048 150.676 238.971 150.073 238.18 149.204C237.39 148.336 236.994 147.299 236.994 146.092C236.994 145.111 237.258 144.235 237.785 143.463C238.328 142.691 239.033 142.096 239.901 141.678C240.769 141.243 241.692 141.026 242.668 141.026C243.723 141.026 244.66 141.284 245.482 141.798C246.304 142.297 246.939 142.98 247.389 143.849C247.839 144.701 248.063 145.65 248.063 146.695H244.761C244.761 146.004 244.552 145.441 244.133 145.007C243.73 144.556 243.195 144.331 242.529 144.331C242.095 144.331 241.715 144.42 241.389 144.597C241.079 144.774 240.839 144.999 240.669 145.272C240.513 145.546 240.436 145.827 240.436 146.116C240.436 146.47 240.552 146.792 240.785 147.081C241.017 147.355 241.397 147.556 241.924 147.684L243.808 148.167C245.436 148.585 246.645 149.22 247.435 150.073C248.242 150.925 248.645 152.027 248.645 153.378C248.645 154.423 248.397 155.348 247.901 156.152C247.404 156.956 246.715 157.583 245.831 158.033C244.963 158.468 243.978 158.685 242.878 158.685C241.715 158.685 240.653 158.428 239.692 157.913C238.731 157.398 237.963 156.666 237.39 155.718C236.816 154.753 236.529 153.635 236.529 152.364H239.901Z" fill="#2B6F0B"/>
</g>
<defs>
<clipPath id="clip0_2054_10868">
<rect width="297" height="176" fill="white" transform="translate(0 0.527344)"/>
</clipPath>
</defs>
</svg>
