<svg fill="none" height="128" viewBox="0 0 404 128" width="404" xmlns="http://www.w3.org/2000/svg"><path d="m403.999 12.3077c0-6.79736-5.51-12.3077-12.308-12.3077h-115.692c-6.797 0-12.308 5.51034-12.308 12.3077v103.3843c0 6.798 5.511 12.308 12.308 12.308h115.692c6.798 0 12.308-5.51 12.308-12.308z" fill="#fccaf2"/><path d="m271.078 29.5403c0-2.719 2.204-4.9231 4.923-4.9231h115.693c2.718 0 4.923 2.2041 4.923 4.9231v20.923c0 2.719-2.205 4.9231-4.923 4.9231h-115.693c-2.719 0-4.923-2.2041-4.923-4.9231z" fill="#f996ee"/><path d="m271.078 67.6926c0-2.7189 2.204-4.9231 4.923-4.9231h115.693c2.718 0 4.923 2.2042 4.923 4.9231v20.9231c0 2.7189-2.205 4.9231-4.923 4.9231h-115.693c-2.719 0-4.923-2.2042-4.923-4.9231z" fill="#f996ee"/><path d="m271.078 105.845c0-2.719 2.204-4.923 4.923-4.923h115.693c2.718 0 4.923 2.204 4.923 4.923v9.846c0 2.719-2.205 4.923-4.923 4.923h-115.693c-2.719 0-4.923-2.204-4.923-4.923z" fill="#ec4612"/><path d="m342.461 32h46.769v16h-46.769z" fill="#ed60e9"/><path d="m342.461 70.1523h46.769v16h-46.769z" fill="#ed60e9"/><circle cx="286.461" cy="40.0003" fill="#490072" r="9.23077"/><circle cx="286.461" cy="78.1526" fill="#490072" r="9.23077"/><g fill="#f996ee"><path d="m386.77 12.3059c0-2.71895 2.204-4.92309 4.923-4.92309s4.923 2.20414 4.923 4.92309c0 2.7189-2.204 4.9231-4.923 4.9231s-4.923-2.2042-4.923-4.9231z"/><path d="m342.461 8.61719h40.6154v7.38462h-40.6154z"/></g></svg>