<svg xmlns="http://www.w3.org/2000/svg" fill="none" viewBox="0 0 601 116"><path fill="currentColor" d="M69.8 93h-7.1l-8.5-7.8v-4l8.8-8.4V59.5L74.5 52l13.1 9.9L69.8 93ZM40.4 72l1.3-12.5-4.3-11.2h25.4l-4.2 11.2L59.8 72H40.4Zm5.8 13.2-8.5 7.9h-7.2L12.6 61.9l13.2-9.8 11.6 7.4v13.3l8.8 8.4v4Zm-15.8-60h39.3l4.7 20H25.8l4.6-20ZM50.1.3.2 29.1v57.6l49.9 28.8L100 86.7V29.1L50.1.3Z"/><path fill="currentColor" d="M156 84.6c-13.2 0-22.9-10.3-22.9-23s9.8-23.3 23-23.3c8.4 0 13.6 3.1 17.7 7.6l-6.3 6.8c-3.1-3.3-6.4-5.5-11.5-5.5-7.4 0-12.8 6.4-12.8 14.2 0 8 5.5 14.4 13.3 14.4 4.8 0 8.3-2.3 11.5-5.5l6.1 6.1c-4.4 4.7-9.5 8.2-18.1 8.2Zm37.4 0h-10.2V38.4h10.2v10.8c2.8-6.6 7.9-11.2 15.7-10.8v10.8h-.6c-8.9 0-15.1 5.8-15.1 17.6v17.8Zm69-46.4L239.9 97h-10.3l4.9-12.4-19.3-46.4h10.9l13.1 34.3 12.6-34.3h10.6Zm30 8.9c-6.9 0-12.9 5.6-12.9 14.3 0 8.7 6.1 14.3 12.9 14.3 7 0 12.7-5.5 12.7-14.3s-5.8-14.3-12.7-14.3Zm2.3 37.4c-7.3 0-11.9-3.7-15-7.8V97h-10.2V38.2h10.2v8.3c3.3-4.6 7.9-8.3 15-8.3 10.5 0 20.7 8.3 20.7 23.1s-10.1 23.2-20.7 23.2Zm43-36.6v21.8c0 3.9 2 5.5 5.5 5.5h4v9.1h-7c-7.4 0-12.7-3.3-12.7-13V47.9h-5.6v-8.7h5.6V27h10.2v12.2h9.5v8.7h-9.5Zm41.6-.8c-8.2 0-13.4 6.4-13.4 14.2 0 7.9 5.6 14.4 13.5 14.4 8.2 0 13.4-6.4 13.4-14.2.2-7.9-5.5-14.4-13.5-14.4Zm0 37.5c-13.5 0-23.5-10.3-23.5-23 0-12.8 10.1-23.3 23.7-23.3s23.6 10.3 23.6 23.1c0 12.6-10 23.2-23.8 23.2Zm121.1-37.5c-8.2 0-13.4 6.4-13.4 14.2 0 7.9 5.6 14.4 13.5 14.4 8.2 0 13.4-6.4 13.4-14.2.1-7.9-5.5-14.4-13.5-14.4Zm0 37.5c-13.5 0-23.5-10.3-23.5-23 0-12.8 10.1-23.3 23.7-23.3s23.6 10.3 23.6 23.1c0 12.6-10.1 23.2-23.8 23.2Zm84.2-46.4c9.7 0 15.6 6.1 15.6 17v29.3H590V58.3c0-7.1-3.3-10.8-9-10.8-5.5 0-9.5 3.9-9.5 11v26.1h-10.2V58.3c0-6.9-3.4-10.8-9-10.8s-9.5 4.2-9.5 11.1v26h-10.2V38.3h10.2v7.6c2.9-3.9 6.7-7.6 13.5-7.6 6.4 0 10.8 3.1 13.2 7.8 3.7-4.8 8.4-7.9 15.1-7.9Zm-162.8 37v5.2l-.3.5-4.5 2.5h-.6l-4.4-2.5-.3-.5v-5.2l.3-.5 4.4-2.5h.6l4.5 2.5.3.5Zm30.9 9.3c-13.2-.3-22.7-10.8-22.5-23.5.2-12.7 10.2-23.1 23.5-22.8 8.4.2 13.6 3.4 17.6 8l-6.4 6.7c-3-3.3-6.3-5.7-11.4-5.8-7.4-.1-12.9 6.1-13 14-.2 8 5.2 14.5 13 14.6 4.8.1 8.4-2.1 11.6-5.3l6 6.2c-4.5 4.7-9.7 8.1-18.4 7.9Z"/></svg>