<svg xmlns="http://www.w3.org/2000/svg" fill="none" viewBox="0 0 364 358"><path fill="currentColor" d="M11.36 316.398h2.065c2.158 0 3.814-.491 4.967-1.471 1.154-.981 1.73-2.39 1.73-4.229 0-1.838-.576-3.248-1.73-4.229-1.153-.98-2.81-1.47-4.967-1.47H11.36v11.399Zm24.055 25.556H21.797L11.36 324.181v17.773H.42v-46.21h17.023c2.344 0 4.39.388 6.14 1.165 1.748.735 3.181 1.757 4.297 3.064a12.727 12.727 0 0 1 2.567 4.535c.596 1.716.893 3.555.893 5.516 0 3.514-.781 6.374-2.344 8.58-1.525 2.165-3.795 3.636-6.809 4.413l13.228 18.937Zm9-15.812c0 1.022.167 1.982.502 2.881a7.855 7.855 0 0 0 1.34 2.267 6.51 6.51 0 0 0 2.065 1.532 6.322 6.322 0 0 0 2.623.552 5.81 5.81 0 0 0 2.51-.552 5.78 5.78 0 0 0 2.066-1.532 7.227 7.227 0 0 0 1.396-2.267 6.86 6.86 0 0 0 .558-2.758c0-.981-.186-1.9-.558-2.758a7.088 7.088 0 0 0-1.396-2.329 5.793 5.793 0 0 0-2.065-1.532 5.817 5.817 0 0 0-2.511-.552c-.93 0-1.805.184-2.623.552a6.524 6.524 0 0 0-2.065 1.532 7.874 7.874 0 0 0-1.34 2.268c-.335.817-.502 1.716-.502 2.696Zm12.725-15.628h10.158v31.44H57.14v-3.493c-2.158 2.982-5.08 4.474-8.762 4.474-2.084 0-4-.409-5.75-1.226a14.318 14.318 0 0 1-4.576-3.555c-1.302-1.511-2.325-3.289-3.07-5.332-.706-2.042-1.06-4.269-1.06-6.68 0-2.247.354-4.371 1.06-6.374.708-2.042 1.694-3.82 2.959-5.331a13.71 13.71 0 0 1 4.52-3.555c1.749-.899 3.684-1.348 5.805-1.348 3.572 0 6.53 1.368 8.874 4.106v-3.126Zm36.51 15.812c0-.98-.167-1.9-.502-2.758a7.088 7.088 0 0 0-1.396-2.329 6.54 6.54 0 0 0-2.065-1.532 5.461 5.461 0 0 0-2.567-.613 5.81 5.81 0 0 0-2.51.552 6.524 6.524 0 0 0-2.066 1.532c-.559.654-1.024 1.43-1.396 2.329a7.514 7.514 0 0 0-.502 2.758c0 .98.167 1.9.502 2.758.335.858.8 1.614 1.396 2.267a8.034 8.034 0 0 0 2.065 1.532 6.19 6.19 0 0 0 2.567.552 5.917 5.917 0 0 0 4.521-2.084 7.242 7.242 0 0 0 1.395-2.267 6.71 6.71 0 0 0 .558-2.697Zm-12.725-35.239v22.553c2.381-2.738 5.358-4.106 8.93-4.106 2.121 0 4.055.449 5.804 1.348a12.994 12.994 0 0 1 4.521 3.555c1.265 1.47 2.251 3.227 2.958 5.27.707 2.002 1.06 4.147 1.06 6.435 0 2.329-.372 4.515-1.116 6.558-.707 2.043-1.711 3.82-3.014 5.332a14.895 14.895 0 0 1-4.632 3.616c-1.749.858-3.646 1.287-5.693 1.287-3.72 0-6.66-1.492-8.818-4.474v3.493H70.823v-50.867h10.102Zm48.51 35.239c0-.98-.168-1.9-.503-2.758a7.103 7.103 0 0 0-1.395-2.329 6.55 6.55 0 0 0-2.065-1.532 5.461 5.461 0 0 0-2.567-.613c-.893 0-1.73.184-2.512.552a6.535 6.535 0 0 0-2.065 1.532c-.558.654-1.023 1.43-1.395 2.329a7.514 7.514 0 0 0-.502 2.758c0 .98.167 1.9.502 2.758.335.858.8 1.614 1.395 2.267a8.051 8.051 0 0 0 2.065 1.532 6.196 6.196 0 0 0 2.567.552c.893 0 1.731-.184 2.512-.552a5.923 5.923 0 0 0 2.009-1.532 7.206 7.206 0 0 0 1.395-2.267 6.693 6.693 0 0 0 .559-2.697Zm-12.725-35.239v22.553c2.381-2.738 5.358-4.106 8.929-4.106 2.121 0 4.056.449 5.805 1.348a12.984 12.984 0 0 1 4.52 3.555c1.266 1.47 2.252 3.227 2.958 5.27.707 2.002 1.061 4.147 1.061 6.435 0 2.329-.372 4.515-1.116 6.558-.707 2.043-1.712 3.82-3.014 5.332a14.899 14.899 0 0 1-4.632 3.616c-1.749.858-3.647 1.287-5.693 1.287-3.721 0-6.66-1.492-8.818-4.474v3.493h-10.102v-50.867h10.102Z"/><path fill="currentColor" d="m151.247 337.664-13.841-27.15h11.72l7.646 16.119 7.423-16.119h11.609l-22.994 47.129h-11.33l9.767-19.979Zm48.295-41.92 7.255 29.847 8.93-29.847h8.707l8.929 29.847 7.256-29.847h11.441l-12.557 46.21H228.34l-8.26-26.782-8.26 26.782h-11.162l-12.558-46.21h11.442Zm60.125 30.398c0 1.022.168 1.982.503 2.881a7.853 7.853 0 0 0 1.339 2.267 6.52 6.52 0 0 0 2.065 1.532 6.325 6.325 0 0 0 2.623.552c.893 0 1.73-.184 2.512-.552a5.79 5.79 0 0 0 2.065-1.532 7.242 7.242 0 0 0 1.395-2.267 6.86 6.86 0 0 0 .558-2.758c0-.981-.186-1.9-.558-2.758a7.103 7.103 0 0 0-1.395-2.329 5.801 5.801 0 0 0-2.065-1.532 5.825 5.825 0 0 0-2.512-.552c-.93 0-1.804.184-2.623.552a6.535 6.535 0 0 0-2.065 1.532 7.871 7.871 0 0 0-1.339 2.268c-.335.817-.503 1.716-.503 2.696Zm12.725-15.628h10.158v31.44h-10.158v-3.493c-2.158 2.982-5.078 4.474-8.762 4.474-2.084 0-4-.409-5.749-1.226a14.314 14.314 0 0 1-4.576-3.555c-1.302-1.511-2.326-3.289-3.07-5.332-.707-2.042-1.06-4.269-1.06-6.68 0-2.247.353-4.371 1.06-6.374.707-2.042 1.693-3.82 2.958-5.331a13.71 13.71 0 0 1 4.521-3.555c1.749-.899 3.684-1.348 5.804-1.348 3.572 0 6.53 1.368 8.874 4.106v-3.126Zm23.786-19.427v50.867h-10.102v-50.867h10.102Zm13.656 0v50.867h-10.102v-50.867h10.102Zm24.484 30.581c-.335-1.552-1.024-2.798-2.066-3.738-1.041-.94-2.306-1.41-3.795-1.41-1.562 0-2.846.45-3.851 1.349-.967.898-1.581 2.165-1.841 3.799h11.553Zm-11.832 6.435c0 4.781 2.046 7.171 6.139 7.171 2.195 0 3.851-.981 4.967-2.942h9.767c-1.972 7.191-6.902 10.786-14.79 10.786-2.419 0-4.632-.388-6.642-1.164-2.009-.817-3.739-1.961-5.19-3.432-1.414-1.471-2.512-3.228-3.293-5.271-.781-2.042-1.172-4.33-1.172-6.864 0-2.614.372-4.964 1.116-7.048.744-2.124 1.805-3.922 3.182-5.393 1.376-1.471 3.032-2.594 4.967-3.37 1.972-.818 4.186-1.226 6.641-1.226 2.419 0 4.595.408 6.53 1.226 1.935.776 3.572 1.92 4.912 3.432 1.339 1.511 2.362 3.37 3.069 5.577.707 2.165 1.061 4.617 1.061 7.354v1.164h-21.264Zm35.345-8.335v22.186h-10.102v-22.186h-3.349v-9.254h3.349v-9.438h10.102v9.438h5.748v9.254h-5.748Z"/><path fill="currentColor" fill-rule="evenodd" d="M227.257 17.963c54.334 30.015 111.208 102.059 99.703 127.846-7.501 16.814-41.186 16.22-81.268 11.202-3.207 5.651-11.615 16-23.331 27.963 6.667 3.13 12.072 6.905 16.742 11.22 8.774 8.108 12.443 20.746 5.886 24.244-3.891 2.076-11.305-.164-20.72-3.008-8.215-2.482-17.954-5.425-28.205-6.361-11.937-1.09-22.529-1.209-33.753-1.336-13.54-.153-28-.316-46.857-2.205-32.845-3.291-49.718-14.039-54.269-40.793-1.722.354-5.55 1.104-7.007 1.104-10.287 0-18.627-8.368-18.627-18.69 0-10.322 8.34-18.69 18.627-18.69 2.69 0 5.247.572 7.557 1.602 9.505-31.088 34.097-51.67 63.689-60.401 43.911-12.955 81.334 3.128 98.384 21.805 5.448-9.832 14.712-17.52 24.543-21.805-11.274-5.461-23.926-10.73-36.352-15.905l-.007-.003-.008-.003c-7.806-3.252-15.523-6.466-22.753-9.667-10.356-4.585-19.715-9.144-26.91-13.75-12.222-7.822-18.202-15.777-12.227-24.218 7.228-10.21 42.915-13.404 77.163 9.849Zm-64.45 95.596c6.807 3.548 12.499 8.315 16.881 14.228 8.573 11.568 10.12 32.831 4.6 47.996 3.98.373 7.714.843 11.223 1.406 3.392-12.808 2.835-27.316-2.869-37.465-7.218-12.844-15.663-21.688-29.835-26.165Z" clip-rule="evenodd"/><path fill="currentColor" d="M125.543 209.559c-9.895 10.833-18.317 18.093-24.563 23.478-7.508 6.472-11.872 10.234-11.872 14.234 0 10.507 28.811 7.66 39.63 3.743 17.284-6.258 34.996-16.936 51.279-29.012-.57.423-1.142.844-1.716 1.263a4498.1 4498.1 0 0 1-23.444-6.089l-.254-.066c-8.529-2.231-17.822-4.662-29.06-7.551Z"/></svg>