<svg xmlns="http://www.w3.org/2000/svg" fill="none" viewBox="0 0 960 213"><path fill="currentColor" fill-rule="evenodd" d="M3.72 4.707c23.98 29.398 50.308 66.33 54.567 72.304l.49.686c2.27 3.169 4.144 5.525 5.567 7.314 3.16 3.972 4.097 5.15 2.212 6.233-1.52.873-3.09 1.161-4.655 1.161-1.77 0-3.765-.86-5.217-2.252-1.027-.984-8.051-11.289-17.617-26.28-7.319-11.471-13.444-20.987-13.61-21.146-.387-.369-.38-.356 12.864 23.58 8.316 15.03 14.005 26.138 14.005 26.848 0 1.446-.39 2.206-2.156 4.194-2.943 3.317-4.258 7.043-5.208 14.754-1.065 8.644-4.058 14.751-12.354 25.201-4.857 6.118-5.651 7.239-6.877 9.705-1.543 3.105-1.968 4.844-2.14 8.765-.181 4.146.173 6.824 1.427 10.787 1.098 3.47 2.243 5.762 5.173 10.344 2.528 3.955 3.983 6.894 3.983 8.044 0 .915.173.916 4.09.023 9.375-2.139 16.987-5.899 21.268-10.508 2.65-2.853 3.272-4.428 3.292-8.337.013-2.557-.076-3.092-.76-4.563-1.114-2.395-3.142-4.385-7.61-7.471-5.857-4.044-8.358-7.299-9.05-11.776-.566-3.673.092-6.265 3.331-13.123 3.353-7.099 4.184-10.124 4.746-17.28.363-4.623.866-6.446 2.181-7.909 1.372-1.526 2.606-2.043 6-2.512 5.534-.763 9.057-2.21 11.953-4.905 2.513-2.338 3.564-4.592 3.726-7.984l.122-2.57-1.404-1.654C70.975 78.392.315 0 .002 0-.065 0 1.608 2.118 3.72 4.707Zm33.308 155.758c1.15-2.057.54-4.7-1.384-5.992-1.817-1.22-4.64-.645-4.64.945 0 .485.266.838.865 1.15 1.008.524 1.082 1.113.288 2.317-.803 1.22-.738 2.292.183 3.02 1.485 1.175 3.587.529 4.688-1.44ZM71.63 48.325c-2.268-.356-2.364-.398-1.297-.563 2.046-.318 6.876.115 10.205.914 7.771 1.866 14.842 6.646 22.39 15.134l2.005 2.255 2.869-.465c12.085-1.962 24.379-.403 34.662 4.395 2.829 1.32 7.289 3.948 7.846 4.623.177.215.504 1.6.724 3.079.764 5.114.382 9.033-1.167 11.961-.842 1.593-.889 2.098-.323 3.462.452 1.088 1.713 1.893 2.962 1.891 2.555-.003 5.305-4.176 6.58-9.981l.506-2.306 1.003 1.147c5.5 6.295 9.821 14.88 10.563 20.99l.193 1.593-.924-1.448c-1.592-2.492-3.19-4.189-5.238-5.557-3.69-2.467-7.593-3.306-17.927-3.856-9.334-.497-14.616-1.303-19.854-3.028-8.913-2.935-13.405-6.844-23.992-20.873-4.702-6.231-7.608-9.68-10.5-12.455-6.569-6.31-13.023-9.618-21.286-10.913Zm80.785 13.913c.235-4.176.796-6.93 1.923-9.445.446-.996.864-1.81.928-1.81.065 0-.129.734-.431 1.632-.819 2.441-.954 5.78-.389 9.664.716 4.93 1.124 5.64 6.281 10.964 2.419 2.498 5.233 5.647 6.253 7l1.855 2.458-1.855-1.757c-2.268-2.149-7.484-6.34-8.636-6.938-.773-.402-.888-.395-1.364.084-.439.441-.532 1.105-.593 4.24-.095 4.888-.754 8.026-2.346 11.162-.861 1.697-.997 1.335-.218-.58.582-1.43.641-2.059.637-6.79-.009-9.507-1.127-11.792-7.68-15.707-1.659-.992-4.395-2.423-6.078-3.18-1.682-.756-3.019-1.415-2.971-1.464.186-.187 6.577 1.697 9.149 2.697 3.826 1.486 4.457 1.679 4.922 1.5.311-.12.462-1.037.613-3.73Zm-83.216-7.299c-.617 7.34 2.232 17.158 6.837 23.562 3.57 4.964 9.104 8.822 13.189 9.194 2.675.244 3.479-.602 2.269-2.387-1.68-2.478-3.747-6.294-4.294-7.928-.34-1.015-1.078-4.013-1.64-6.662-1.921-9.045-3.81-12.568-8.17-15.243-1.59-.975-4.984-2.251-6.952-2.614l-1.048-.193-.191 2.271Zm77.631 71.222c-21.521-8.752-29.101-16.349-29.101-29.167 0-1.887.065-3.43.143-3.43.079 0 .911.623 1.85 1.384 4.364 3.535 9.251 5.045 22.78 7.039 7.96 1.173 12.44 2.12 16.573 3.505 13.135 4.4 21.262 13.329 23.2 25.492.563 3.534.233 10.161-.68 13.654-.721 2.759-2.921 7.731-3.504 7.922-.162.053-.321-.573-.362-1.425-.221-4.567-2.506-9.013-6.343-12.344-4.363-3.787-10.225-6.801-24.556-12.63Zm-16.148-.963c.302.909.77 2.978 1.039 4.599 1.724 10.362-3.661 18.734-14.136 21.978-1.109.343-5.477 1.207-9.707 1.918-8.563 1.44-12.384 2.46-16.224 4.328-2.722 1.325-6.019 3.309-5.823 3.506.063.064.685-.086 1.38-.333 4.843-1.717 10.23-2.606 18.417-3.036 3.249-.17 6.944-.442 8.212-.603 7.293-.928 12.348-3.166 16.279-7.207 2.187-2.249 3.491-4.344 4.542-7.298.666-1.873.756-2.57.761-5.89.006-3.383-.075-4.002-.797-6.083-.945-2.728-2.06-4.775-3.472-6.376l-1.02-1.156.549 1.653Zm10.905 22.296c-2.86-6.209-3.516-12.203-1.95-17.793.168-.598.437-1.087.6-1.087.162 0 .836.369 1.499.819 1.317.896 3.96 2.405 11 6.282 8.786 4.838 13.795 8.584 17.201 12.865 2.983 3.748 4.829 8.017 5.717 13.223.504 2.949.209 10.045-.54 13.014-2.362 9.363-7.852 16.717-15.682 21.009-1.147.628-2.177 1.144-2.289 1.147-.111.002.307-1.071.929-2.386 2.634-5.562 2.934-10.972.943-16.993-1.22-3.687-3.706-8.186-8.726-15.79-5.836-8.84-7.267-11.193-8.702-14.31Zm-53.86 20.364c-9.051 1.485-18.988 6.323-26.974 13.134l-2.377 2.028 2.089.33c10.904 1.719 13.84 3.244 21.404 11.114 4.352 4.528 5.822 5.536 9.433 6.467 5.302 1.367 10.529-1.145 12.322-5.923.801-2.135.694-5.67-.225-7.446-2.186-4.226-8.555-5.592-11.635-2.496-2.565 2.579-1.817 6.464 1.373 7.132.73.154.71.121-.186-.288-1.396-.638-2.003-1.522-2.01-2.929-.018-3.299 3.72-5.151 7.196-3.567 2.546 1.161 3.557 2.677 3.557 5.335 0 4.093-3.449 7.177-7.462 6.673-2.146-.27-4.77-1.656-6.176-3.263-3.54-4.042-2.161-10.422 2.781-12.87 3.763-1.863 8.764-1.404 12.643 1.161 4.456 2.948 6.351 5.642 10.189 14.484 1.25 2.879 2.858 6.12 3.573 7.201 3.636 5.498 7.992 8.194 13.239 8.194 2.894 0 5.071-.534 7.81-1.915 2.035-1.027 4.92-2.978 4.712-3.187-.059-.059-.903.206-1.876.589-5.729 2.257-11.553 2.102-14.935-.399-2.13-1.574-3.848-4.71-4.731-8.632-.153-.679-.657-3.677-1.121-6.663-1.176-7.568-2.305-10.97-4.938-14.874-2.694-3.994-7.873-7.346-13.663-8.843-3.613-.934-10.11-1.188-14.012-.547ZM75.05 109.345c.782-2.916 3.307-5.697 5.905-6.503 1.652-.512 5.066-.185 6.671.639 3.112 1.598 5.37 5.237 4.88 7.864-.598 3.203-5.74 5.766-11.656 5.808-3.022.021-4.138-.389-5.291-1.945-.715-.964-.985-4.084-.508-5.863Zm11.782-4.722c1.552.957 1.95 2.372 1.039 3.681-.629.902-2.574 1.759-3.996 1.759-2.136 0-4.466-1.532-4.466-2.935 0-2.819 4.468-4.328 7.423-2.505Zm463.701 8.071c-4.827-16.053 3.133-29.368 20.114-33.646 4.871-1.228 26.924-.674 30.702.772 1.387.529 1.991 2.562 2.004 6.74.009 3.29.369 7.287.796 8.88.651 2.416.271 2.892-2.279 2.853-2.305-.036-3.699-1.387-5.646-5.475-3.11-6.53-6.875-8.606-15.647-8.63-11.201-.033-19.396 7.508-18.061 16.619.869 5.929 6.793 11.763 20.087 19.783 12.649 7.629 20.031 13.903 22.973 19.524 7.866 15.028 1.149 31.11-16.377 39.213-8.996 4.159-24.073 4.589-34.672.989l-6.788-2.306v-10.846c0-9.822.234-10.848 2.472-10.848 1.873 0 2.683 1.238 3.34 5.116 1.635 9.643 8.963 15.497 19.4 15.497 10.224 0 17.372-5.586 20.109-15.715 1.166-4.315.966-5.906-1.347-10.666-2.772-5.707-7.546-9.494-23.757-18.846-8.995-5.19-15.356-12.129-17.423-19.008ZM232.752 85.456c-2.212 0-3.074-.723-3.074-2.577 0-2.454.862-2.576 18.195-2.576 16.088 0 18.148.242 17.778 2.088-.23 1.15-2.454 2.743-4.943 3.543l-4.525 1.455-.387 32.853c-.258 21.922.105 34.568 1.093 38.006 2.935 10.225 11.887 16.105 24.519 16.105 8.794 0 13.931-2.056 20.386-8.162 6.941-6.564 8.048-12.801 8.026-45.217-.021-31.975-.578-34.614-7.445-35.277-3.125-.303-4.172-1.03-4.172-2.899 0-2.33 1.032-2.495 15.515-2.495 14.653 0 15.515.143 15.515 2.576 0 1.588-.868 2.585-2.262 2.596-5.989.053-6.099.623-6.904 35.684-.837 36.411-1.618 40.721-8.997 49.64-2.128 2.573-7.203 6.309-11.277 8.303-6.639 3.249-8.75 3.623-20.337 3.601-10.681-.022-14.053-.538-19.394-2.969-7.797-3.549-12.866-8.142-16.604-15.044-2.609-4.818-2.833-7.425-3.437-40.068-.691-37.365-1.026-39.166-7.269-39.166Zm120.986 0c-2.955 0-3.818-.582-3.818-2.577 0-2.415.827-2.57 13.253-2.47l13.252.105 6.341 7.302c3.486 4.016 14.849 16.579 25.251 27.917 10.402 11.337 22.343 24.526 26.536 29.309 4.194 4.784 8.142 8.697 8.773 8.697.647 0 .971-13.512.739-31.034l-.407-31.034-3.628-3.107c-1.995-1.71-5.049-3.108-6.788-3.108-2.313 0-3.16-.7-3.16-2.613 0-2.516.661-2.6 17.778-2.254 14.554.293 17.778.7 17.778 2.238 0 1.096-1.8 2.246-4.323 2.76-2.376.485-4.994 1.552-5.818 2.371-1.061 1.058-1.603 14.734-1.865 47.163l-.371 45.673h-3.747c-3.226 0-7.066-3.63-27.597-26.089-13.117-14.35-28.427-31.404-34.023-37.898-5.597-6.495-10.613-11.858-11.145-11.917-1.501-.168-1.138 57.858.397 63.366 1.197 4.292 2.019 5.031 7.104 6.387 4.095 1.091 5.751 2.198 5.751 3.842 0 2.111-1.56 2.309-18.101 2.309-16.836 0-18.101-.168-18.101-2.415 0-1.645 1.218-2.658 3.821-3.177 7.894-1.573 8.418-4.07 8.862-42.24.248-21.378-.117-36.336-.964-39.468-1.488-5.507-5.196-8.038-11.78-8.038Zm135.572 0c-2.769 0-3.632-.612-3.632-2.577 0-2.462.863-2.576 19.394-2.576 18.532 0 19.394.114 19.394 2.576 0 1.89-.862 2.577-3.232 2.577-1.778 0-4.419 1.183-5.87 2.629-2.561 2.552-2.627 3.82-2.263 43.265.356 38.505.507 40.733 2.885 42.464 1.381 1.005 3.853 1.827 5.495 1.827 2.123 0 2.985.744 2.985 2.577 0 2.462-.862 2.576-19.394 2.576-18.091 0-19.394-.162-19.394-2.411 0-1.814 1.27-2.614 5.123-3.229 7.65-1.219 8.042-3.715 7.565-48.254-.382-35.668-.546-37.892-2.915-39.617-1.38-1.005-4.143-1.827-6.141-1.827Zm135.283 0c-1.768 0-3.113-.98-3.532-2.577-.653-2.491-.039-2.576 18.598-2.576 18.41 0 19.272.114 19.272 2.576 0 1.98-.862 2.577-3.721 2.577-8.139 0-7.957 1.474 4.362 35.167 6.27 17.151 12.358 33.443 13.528 36.204l2.127 5.021 9.875-26.279c11.625-30.933 13.135-36.653 11.161-42.295-1.376-3.932-6.726-7.818-10.762-7.818-1.142 0-2.004-1.108-2.004-2.577 0-2.466.862-2.576 20.04-2.576s20.041.11 20.041 2.576c0 1.834-.863 2.577-2.986 2.577-5.435 0-7.832 2.889-7.051 8.5.804 5.778 23.041 67.867 23.973 66.938 1.518-1.511 26.144-68.35 26.144-70.956 0-3.121-2.191-4.482-7.217-4.482-2.264 0-3.126-.71-3.126-2.577 0-2.433.862-2.576 15.515-2.576 13.161 0 15.515.304 15.515 2 0 1.1-1.612 2.56-3.582 3.243-4.433 1.54-5.546 3.297-11.105 17.532a366185.93 366185.93 0 0 1-16.982 43.473 44931.76 44931.76 0 0 0-13.201 33.82c-.363.942-2.5 1.712-4.752 1.712h-4.093l-9.287-24.157a16523.073 16523.073 0 0 1-13.41-34.977c-3.885-10.199-4.211-10.642-5.673-7.731-.854 1.701-6.99 17.469-13.638 35.041l-12.086 31.95-4.512-.385-4.511-.385-17.205-44.992c-9.611-25.137-18.451-46.317-20.031-47.992-1.555-1.65-4.113-2.999-5.684-2.999Zm258.525.546c-.217-.489-.215-2.248-.215-2.248s-.05-.634.217-.973c.265-.337.359-.346 1.309-.436l.01-.001c3.49-.332 10.495-.891 16.34-1.146.538-.023 1.138-.05 1.79-.08h.012c6.433-.293 17.945-.683 25.857-.288 15.179.759 25.976 8.096 29.656 20.222 3.679 12.125 1.734 23.507-3.282 30.752-5.015 7.245-13.448 13.483-27.467 13.077-11.571-.335-14.668-2.502-17.142-4.233-.523-.366-1.018-.713-1.56-1.018v15.463c.123 10.546.21 15.611 1.027 17.486 1.1 2.524 3.587 4.079 8.434 5.271 0 0 2.192.514 2.757 1.062.566.548.566 1.765.566 1.765s.116 1.138-.339 1.718c-.455.58-1.332.464-1.332.464l-21.46-.173-12.938-.034s-1.359.261-1.868-.286c-.509-.547-.462-1.686-.462-1.686s.112-1.227.707-1.776c.594-.549 2.802-1.164 2.802-1.164 4.991-1.401 7.154-2.883 8.285-5.675.911-2.25.918-6.425.908-40.488-.009-32.303-.055-38.329-.796-40.062-1.097-2.565-3.842-3.245-7.749-4.212h-.002a128.06 128.06 0 0 1-2.458-.627s-1.39-.184-1.607-.674Zm62.486 26.359c0 5.297-.093 13.59-5.733 18.891-5.639 5.301-16.742 6.752-24.279 5.276-2.375-.465-3.734-1.182-4.781-1.735l-.104-.055-1.93-1.016-.112-18.611c-.07-11.661.052-19.258.327-20.344.251-6.15 9.32-6.914 13.753-6.686 18.958 0 22.305 15.974 22.859 24.28ZM822.876 81.294l-1.624.618-5.062 2.615-3.645 9.1c-2.005 5.006-5.672 14.194-8.149 20.419a5982.3 5982.3 0 0 1-10.628 26.562c-.923 2.287-3.708 9.251-6.189 15.476-2.482 6.224-4.962 12.148-5.512 13.164l-.291.544c-1.387 2.607-3.798 7.137-8.054 7.822 0 0-2.341.23-3.208 1.086-.867.857-.783 1.557-.783 1.557v1.079s.079.523.57.783c.491.261 1.156.276 1.156.276l15.571-.177h16.095s1.138.133 1.577-.231c.438-.364.56-.904.56-.904v-1.136s-.224-1.232-.861-1.713c-.637-.48-3.027-.809-3.027-.809-6.442-.847-7.551-5.72-6.756-10.102.39-2.153 2.98-10.117 5.896-18.135l1.008-2.771 16.863-.129c9.275-.071 17.283-.023 17.796.107.732.185 1.757 2.266 4.765 9.678 4.559 11.23 4.923 12.598 3.914 14.699-.061.128-.127.269-.197.421-.947 2.032-2.787 5.98-7.42 6.382 0 0-2.459.085-3.07.82-.612.736-.48 1.582-.48 1.582v1.124s.164.659.48.92c.315.261.85.195.85.195l15.307-.11 21.517-.001s.843.09 1.073-.234c.23-.325.277-.707.277-.707v-1.493s-.094-.794-.507-1.232c-.413-.437-3.204-.899-3.204-.899-3.564-.575-5.339-3.517-6.662-5.708-.337-.559-.644-1.069-.945-1.478-.612-.835-2.801-5.411-4.514-9.812s-5.579-14.343-8.591-22.092c-3.012-7.749-7.214-18.559-9.339-24.021a45027.465 45027.465 0 0 1-10.219-26.31l-.001-.002c-1.885-4.864-2.646-6.827-2.854-7.093-.678-.862-2.777 0-2.777 0s-.257.1-.706.27Zm-.295 29.321a661.975 661.975 0 0 1-2.656-6.582c-1.42-3.579-1.96-4.403-2.399-3.664-.129.216-1.023 2.662-1.986 5.436-6.241 17.96-9.067 26.047-9.633 27.571-.356.958-.647 1.945-.647 2.194 0 .286 5.076.453 13.771.453 7.575 0 13.772-.094 13.772-.209 0-.115-.676-1.829-1.502-3.811-.826-1.981-2.847-6.929-4.492-10.994a2656.188 2656.188 0 0 0-4.228-10.394Z" clip-rule="evenodd"/></svg>