<svg fill="none" height="79" viewBox="0 0 79 79" width="79" xmlns="http://www.w3.org/2000/svg" xmlns:xlink="http://www.w3.org/1999/xlink"><clipPath id="a"><path d="m0 0h79v79h-79z"/></clipPath><g clip-path="url(#a)" fill="currentColor"><path d="m70.4216 43.126c4.2725 0 7.7361 3.4636 7.7361 7.7361 0 4.2726-3.4636 7.7361-7.7361 7.7361s-7.7361-3.4635-7.7361-7.7361c0-4.2725 3.4636-7.7361 7.7361-7.7361z"/><path d="m35.9077 70.7976c0 4.2725-3.4636 7.7361-7.7361 7.7361-4.2726 0-7.7361-3.4636-7.7361-7.7361s3.4635-7.7361 7.7361-7.7361c4.2725 0 7.7361 3.4636 7.7361 7.7361z"/><path d="m8.2361 20.8101c4.2725 0 7.7361 3.4636 7.7361 7.7362 0 4.2725-3.4636 7.7361-7.7361 7.7361-4.27253 0-7.7361-3.4636-7.7361-7.7361 0-4.2726 3.46357-7.7362 7.7361-7.7362z"/><path d="m58.2242 8.61111c0 4.27249-3.4635 7.73609-7.7361 7.73609-4.2725 0-7.7361-3.4636-7.7361-7.7361 0-4.27253 3.4636-7.7361 7.7361-7.7361 4.2726 0 7.7361 3.46357 7.7361 7.73611z"/><path clip-rule="evenodd" d="m16.4537 16.8297c-2.9691-2.9691-2.9691-7.78312 0-10.75226s7.7831-2.96914 10.7522 0l18.1312 18.13126c2.6198 2.6198 6.8674 2.6198 9.4872 0l7.379-7.379c2.9691-2.9692 7.7831-2.9692 10.7522 0 2.9692 2.9691 2.9692 7.7831 0 10.7522l-18.1312 18.1312c-2.6198 2.6198-2.6198 6.8674 0 9.4872l7.379 7.379c2.9691 2.9691 2.9692 7.7831 0 10.7522-2.9691 2.9692-7.7831 2.9692-10.7522 0l-18.1312-18.1312c-2.6198-2.6198-6.8674-2.6198-9.4872 0l-7.379 7.379c-2.9692 2.9692-7.7831 2.9691-10.75224 0s-2.96914-7.7831 0-10.7522l18.13124-18.1312c2.6198-2.6198 2.6198-6.8674 0-9.4872zm16.9838 16.9838c3.2535-3.2536 8.5285-3.2536 11.782 0 3.2536 3.2535 3.2536 8.5285 0 11.782-3.2535 3.2536-8.5285 3.2536-11.782 0-3.2536-3.2535-3.2536-8.5285 0-11.782z" fill-rule="evenodd"/></g></svg>
