<svg xmlns="http://www.w3.org/2000/svg" fill="none" viewBox="0 0 180 52"><path fill="currentColor" d="M12.124 15.095c0-1.636 1.351-2.963 3.02-2.963h22.204c1.668 0 3.02-1.326 3.02-2.963V3.69c0-1.636-1.352-2.962-3.02-2.962H13.856c-1.668 0-3.02 1.326-3.02 2.962v4.223c0 1.637-1.35 2.963-3.019 2.963H3.52C1.852 10.875.5 12.2.5 13.838v9.246c0 1.637 1.357 2.897 3.025 2.897H9.11c1.668 0 3.02-1.326 3.02-2.963l-.006-7.923Zm76.865 9.354c-1.843-.726-4.094-1.332-6.753-1.817h-.057c-2.583-.447-4.521-.858-5.813-1.231-1.292-.372-2.308-.875-3.049-1.51-.741-.632-1.11-1.508-1.11-2.627 0-1.64.627-2.889 1.88-3.746 1.254-.857 2.906-1.286 4.957-1.286 2.242 0 4.055.559 5.443 1.677 1.245 1.005 2.008 2.281 2.288 3.827a.654.654 0 0 0 .64.539l6.305.047a.646.646 0 0 0 .658-.701 11.822 11.822 0 0 0-2.084-5.641c-1.31-1.882-3.115-3.346-5.414-4.39-2.298-1.044-4.91-1.566-7.836-1.566-2.773 0-5.27.504-7.493 1.51-2.222 1.007-3.95 2.404-5.186 4.194-1.235 1.79-1.852 3.803-1.852 6.039 0 2.46.55 4.437 1.652 5.927 1.102 1.491 2.545 2.619 4.33 3.383 1.786.764 3.932 1.37 6.44 1.817l.284.056c2.658.485 4.645.914 5.956 1.286 1.31.374 2.345.895 3.105 1.566.76.67 1.14 1.584 1.14 2.74 0 1.641-.684 2.926-2.052 3.858-1.367.932-3.135 1.398-5.3 1.398-2.584 0-4.673-.643-6.268-1.93-1.453-1.17-2.307-2.672-2.563-4.506a.652.652 0 0 0-.639-.562l-6.298-.093a.647.647 0 0 0-.663.686c.178 2.255.897 4.288 2.156 6.098 1.387 1.995 3.295 3.56 5.727 4.697 2.431 1.138 5.224 1.705 8.377 1.705 2.925 0 5.547-.52 7.865-1.565 2.316-1.044 4.131-2.489 5.442-4.334 1.311-1.845 1.966-3.923 1.966-6.235 0-2.46-.57-4.445-1.71-5.956-1.138-1.51-2.63-2.628-4.472-3.355v.001Z"/><path fill="currentColor" fill-rule="evenodd" d="M127.714 39.518h-.985c-.569 0-1.017-.148-1.339-.448-.323-.297-.484-.783-.484-1.453V26.936c0-3.392-1.102-5.974-3.305-7.744-2.203-1.77-4.798-2.673-8.863-2.673-3.838 0-6.836.819-9.191 2.42-2.147 1.462-3.441 3.464-3.884 6.009a.649.649 0 0 0 .644.758h5.792c.29 0 .55-.187.627-.462.265-.942.848-1.71 1.749-2.305 1.045-.69 2.285-1.035 3.92-1.035 3.081 0 5.272 1.864 5.272 4.64v.869a.647.647 0 0 1-.654.642h-5.246c-4.254 0-7.484.82-9.687 2.46-2.203 1.641-3.305 3.971-3.305 6.99 0 2.61 1.007 4.66 3.021 6.15 1.51 1.118 3.316 1.763 5.175 2.046 1.421.216 2.88.295 4.304.071 1.491-.234 2.703-.837 3.915-1.697 1.09-.772 1.998-1.761 2.828-2.968.404-.682 1.465-.408 1.465.38v.949c-.001 1.723 1.422 3.12 3.178 3.12h5.053a.648.648 0 0 0 .654-.642v-4.755a.648.648 0 0 0-.654-.642v.001Zm-10.045-5.76c0 1.38-.295 2.582-.884 3.607-1.234 2.149-3.442 3.27-5.927 3.27-1.445 0-2.603-.334-3.476-1.005-.875-.67-1.311-1.566-1.311-2.684 0-1.267.484-2.246 1.453-2.936.968-.688 2.345-1.034 4.131-1.034h5.359c.362 0 .655.287.655.642v.14Z" clip-rule="evenodd"/><path fill="currentColor" d="M141.29 6.434h7.536c.361 0 .654.287.654.642v4.81a.648.648 0 0 1-.654.642h-6.245c-.722 0-1.309.575-1.309 1.284v2.79c0 .354.293.641.655.641h6.842c.362 0 .654.287.654.642v4.81a.647.647 0 0 1-.654.642h-6.842a.648.648 0 0 0-.655.643v20.937a.647.647 0 0 1-.654.642h-5.872a.647.647 0 0 1-.654-.642V23.98a.648.648 0 0 0-.654-.642h-4.304a.648.648 0 0 1-.654-.642v-4.81c0-.355.293-.642.654-.642h4.304a.648.648 0 0 0 .654-.642v-3.103c0-3.901 3.223-7.064 7.198-7.064Z"/><path fill="currentColor" fill-rule="evenodd" d="M177.592 23.022c-1.272-2.087-3.011-3.69-5.214-4.81-2.203-1.117-4.749-1.693-7.636-1.693-2.886 0-5.376.622-7.579 1.833-2.204 1.212-3.913 2.927-5.128 5.144-1.216 2.22-1.824 4.818-1.824 7.801 0 2.983.627 5.471 1.88 7.689 1.255 2.218 3.049 3.923 5.385 5.116 2.336 1.193 5.081 1.79 8.235 1.79 2.431 0 4.606-.438 6.525-1.314 1.918-.875 3.466-2.078 4.643-3.606a11.204 11.204 0 0 0 2.065-4.297.647.647 0 0 0-.637-.792h-5.899c-.283 0-.53.18-.621.443a5.483 5.483 0 0 1-2.201 2.856c-1.179.783-2.641 1.174-4.388 1.174-1.444 0-2.707-.298-3.789-.894a6.583 6.583 0 0 1-2.564-2.516 7.749 7.749 0 0 1-.612-1.343 9.306 9.306 0 0 1-.383-1.535 16.425 16.425 0 0 1-.079-.55.646.646 0 0 1 .651-.71h20.342c.33 0 .613-.24.65-.563.028-.236.048-.477.058-.724.019-.447.028-.857.028-1.23 0-2.757-.636-5.18-1.909-7.268l.001-.001Zm-6.112 4.92h-12.741a.645.645 0 0 1-.64-.781 6.699 6.699 0 0 1 1.057-2.379 6.334 6.334 0 0 1 2.508-2.096c1.026-.485 2.146-.728 3.362-.728 1.975 0 3.609.523 4.901 1.566 1.109.896 1.839 2.107 2.193 3.634a.647.647 0 0 1-.64.784Z" clip-rule="evenodd"/><path fill="currentColor" d="M43.402 25.982h5.584c1.668 0 3.02 1.292 3.02 2.929v9.237c0 1.636-1.352 2.963-3.02 2.963h-4.317c-1.668 0-3.02 1.16-3.02 2.797v4.397c0 1.636-1.332 2.963-3 2.963H15.145c-1.668 0-3.02-1.327-3.02-2.963v-5.48c0-1.637 1.352-2.963 3.02-2.963h22.218c1.668 0 3.02-1.326 3.02-2.963v-7.954c0-1.636 1.351-2.963 3.019-2.963Zm-14.414-5.758h-5.364c-1.747 0-3.166 1.392-3.166 3.107v5.264c0 1.714 1.418 3.107 3.166 3.107h5.364c1.748 0 3.167-1.392 3.167-3.107v-5.264c0-1.714-1.418-3.107-3.167-3.107Z"/></svg>