<svg xmlns="http://www.w3.org/2000/svg" fill="none" viewBox="0 0 226 64"><path fill="currentColor" d="M50.786 25.297c-.516-4.54-8.621-9.99-21.696-14.578a5.934 5.934 0 0 0-.904-.079c-.546 0-1.1.105-1.381.46-.422.532-.313 1.584-.14 1.973 1.973 4.416 4.593 10.903 5.248 17.5 2.978-.123 8.053-.347 12.725-.939 6.532-.872 6.242-3.48 6.148-4.341v.004Z"/><path fill="currentColor" d="M59.78 19.926c-1.868-2.65-7.97-7.324-10.564-8.851-2.191-1.288-12.45-6.749-22.611-9.93-1.483-.457-4.22-1.149-7.232-1.149-2.462 0-5.109.46-7.405 1.886C6.69 5.161 2.1 14.2.806 23.871-.636 34.56-.953 54.482 7.025 61.346c2.782 2.396 6.306 2.946 10.774 1.68 3.72-1.055 8.117-5.471 9.548-12.949l.165-.857.072-.026c1.363-5.371 1.78-10.36 1.434-16.977v-.011c-.346-6.602-3.08-13.392-5.105-17.92-.5-1.127-.771-3.391.524-5.03.756-.959 2.288-1.992 5.293-1.468l.12.023.117.041c18.824 6.583 23.337 12.939 23.812 17.115.32 2.912-.938 6.599-8.75 7.64-4.777.605-9.9.837-12.935.961.192 5.4-.162 9.93-1.145 14.48 1.1-.381 2.15-.752 3.178-1.119 6.31-2.23 11.29-3.993 19.053-5.412l.147-.026c2.266-.374 8.282-1.366 9.848-7.377 1.743-6.516.31-8.915-3.392-14.188h-.003ZM18.39 49.119c-1.25 2.485-2.74 2.964-3.516 3.032h-.064l-.064.003c-.78 0-2.304-.367-3.716-2.81-1.19-2-1.89-4.742-1.968-7.707-.08-2.949.459-5.726 1.513-7.818 1.25-2.485 2.74-2.964 3.52-3.032h.124c.78-.003 2.304.36 3.716 2.803 1.156 2.021 1.852 4.75 1.969 7.688v.019c.079 2.949-.46 5.726-1.514 7.818v.004Z"/><path fill="currentColor" d="M15.318 35.08c-.455-.786-.843-1.13-1.046-1.254-.207.135-.588.51-1.005 1.332-.825 1.64-1.261 3.971-1.197 6.404.063 2.425.632 4.716 1.562 6.277.463.804.854 1.152 1.058 1.276.207-.135.587-.51 1.005-1.333.824-1.635 1.257-3.967 1.197-6.392-.098-2.429-.67-4.727-1.574-6.306v-.004Zm209.985-12.909h-16.28v7.084h14.608v5.808h-14.608v7.084h16.28V48h-22.132V16.32h22.132v5.852Zm-25.876-5.851L188.207 48h-5.852l-11.22-31.68h6.204l5.72 16.72 2.2 6.82h.044l2.2-6.82 5.676-16.72h6.248Zm-41.933 20.415h-5.104V48h-5.852V16.32h12.98c1.672 0 3.271.484 4.796 1.452a10.75 10.75 0 0 1 3.74 3.784 9.533 9.533 0 0 1 1.408 5.016c0 1.936-.557 3.74-1.672 5.412-1.085 1.672-2.493 2.933-4.224 3.784L169.77 48h-6.6l-5.676-11.264Zm-5.104-5.808h7.128c1.115 0 2.068-.425 2.86-1.276.821-.88 1.232-1.907 1.232-3.08s-.411-2.2-1.232-3.08c-.792-.88-1.745-1.32-2.86-1.32h-7.128v8.756ZM140.195 16.32v19.535c0 2.23-.557 4.298-1.672 6.204a12.427 12.427 0 0 1-4.532 4.532c-1.877 1.115-3.945 1.672-6.204 1.672-2.258 0-4.341-.557-6.248-1.672a12.443 12.443 0 0 1-4.532-4.532 12.085 12.085 0 0 1-1.672-6.204V16.32h5.852v19.536a6.55 6.55 0 0 0 .88 3.3 6.595 6.595 0 0 0 2.376 2.376 6.628 6.628 0 0 0 3.344.88c1.203 0 2.303-.293 3.3-.88a6.58 6.58 0 0 0 2.376-2.376 6.54 6.54 0 0 0 .88-3.3V16.32h5.852ZM96.732 48.264c-2.904 0-5.588-.72-8.052-2.157-2.435-1.437-4.371-3.388-5.808-5.852-1.438-2.493-2.156-5.192-2.156-8.096 0-2.903.718-5.587 2.156-8.051 1.437-2.494 3.373-4.46 5.808-5.896 2.464-1.438 5.148-2.157 8.052-2.157 2.552 0 4.825.573 6.82 1.716 2.024 1.115 3.652 2.567 4.884 4.357 1.232 1.76 2.024 3.578 2.376 5.456h-6.072c-.47-1.643-1.482-2.992-3.036-4.049-1.526-1.085-3.183-1.628-4.972-1.628-1.848 0-3.55.47-5.104 1.409a10.15 10.15 0 0 0-3.696 3.696c-.91 1.554-1.364 3.27-1.364 5.148 0 1.877.454 3.593 1.364 5.148a10.498 10.498 0 0 0 3.696 3.74c1.554.909 3.256 1.363 5.104 1.363 1.877 0 3.549-.498 5.016-1.495 1.496-.998 2.508-2.347 3.036-4.048h6.072c-.352 2.053-1.159 3.945-2.42 5.675-1.232 1.731-2.86 3.124-4.884 4.18-1.995 1.027-4.268 1.54-6.82 1.54Z"/></svg>
