<svg fill="none" height="20" viewBox="0 0 16 20" width="16" xmlns="http://www.w3.org/2000/svg"><path d="m4 18h8v-3c0-1.1-.3917-2.0417-1.175-2.825s-1.725-1.175-2.825-1.175-2.04167.3917-2.825 1.175-1.175 1.725-1.175 2.825zm-4 2v-2h2v-3c0-1.0167.23767-1.971.713-2.863.47467-.8913 1.137-1.6037 1.987-2.137-.85-.53333-1.51233-1.246-1.987-2.138-.47533-.89133-.713-1.84533-.713-2.862v-3h-2v-2h16v2h-2v3c0 1.01667-.2373 1.97067-.712 2.862-.4753.892-1.138 1.60467-1.988 2.138.85.5333 1.5127 1.2457 1.988 2.137.4747.892.712 1.8463.712 2.863v3h2v2z" fill="#1c1b1f"/></svg>