<svg fill="none" height="36" viewBox="0 0 36 36" width="36" xmlns="http://www.w3.org/2000/svg"><path d="m19.7588 0v.036054 3.605406c7.9216.97346 13.5335 8.16624 12.5591 16.08014-.8301 6.5618-5.9908 11.7716-12.5591 12.5468v3.6054c9.9246-.9915 17.1424-9.7887 16.15-19.7035-.812-8.56289-7.6149-15.323029-16.15-16.1703zm-3.6089.0540811c-3.5187.3425139-6.87497 1.6945389-9.61775 3.9659489l2.58038 2.668c2.02097-1.62243 4.45697-2.668 7.03737-3.02854zm-12.16204 6.5077589c-2.27362 2.74011-3.626968 6.07516-3.98786 9.60846h3.60892c.34285-2.5599 1.35335-4.9935 2.95932-7.03059zm-3.9698154 13.21386c.3608924 3.5333 1.7503254 6.8683 3.9878554 9.6084l2.56234-2.5779c-1.58793-2.037-2.61647-4.4707-2.94127-7.0305zm9.0944854 9.6805-2.58038 2.4697c2.72473 2.2714 6.08105 3.6955 9.61775 4.0741v-3.6054c-2.5623-.3245-4.9983-1.352-7.03737-2.9384zm9.74407-20.49676v9.46416l8.1201 4.8133-1.3534 2.2173-9.4734-5.6785v-10.81626z" fill="#cae9ff"/></svg>