<svg width="18" height="16" viewBox="0 0 18 16" fill="none" xmlns="http://www.w3.org/2000/svg">
<path fill-rule="evenodd" clip-rule="evenodd" d="M0.5 1.25C0.5 0.697715 0.947715 0.25 1.5 0.25H6C7.06087 0.25 8.07828 0.671427 8.82843 1.42157C9.57857 2.17172 10 3.18913 10 4.25V14.75C10 15.3023 9.55229 15.75 9 15.75C8.44772 15.75 8 15.3023 8 14.75C8 14.4185 7.8683 14.1005 7.63388 13.8661C7.39946 13.6317 7.08152 13.5 6.75 13.5H1.5C0.947715 13.5 0.5 13.0523 0.5 12.5V1.25ZM8 11.75V4.25C8 3.71957 7.78929 3.21086 7.41421 2.83579C7.03914 2.46071 6.53043 2.25 6 2.25H2.5V11.5H6.75C7.18329 11.5 7.60765 11.5865 8 11.75Z" fill="#C5D9ED"/>
<path fill-rule="evenodd" clip-rule="evenodd" d="M9.17157 1.42157C9.92172 0.671427 10.9391 0.25 12 0.25H16.5C17.0523 0.25 17.5 0.697715 17.5 1.25V12.5C17.5 13.0523 17.0523 13.5 16.5 13.5H11.25C10.9185 13.5 10.6005 13.6317 10.3661 13.8661C10.1317 14.1005 10 14.4185 10 14.75C10 15.3023 9.55229 15.75 9 15.75C8.44772 15.75 8 15.3023 8 14.75V4.25C8 3.18913 8.42143 2.17172 9.17157 1.42157ZM10 11.75C10.3923 11.5865 10.8167 11.5 11.25 11.5H15.5V2.25H12C11.4696 2.25 10.9609 2.46071 10.5858 2.83579C10.2107 3.21086 10 3.71957 10 4.25V11.75Z" fill="#C5D9ED"/>
</svg>
