<svg fill="none" height="600" viewBox="0 0 600 600" width="600" xmlns="http://www.w3.org/2000/svg"><g fill="#04795b"><path d="m176.651 341.446c17.915 0 34.454-5.97 47.777-16.303l-109.339-109.3c-10.336 13.089-16.309 29.621-16.309 47.762-.229 42.939 34.686 77.841 77.871 77.841z"/><path d="m501.912 263.374c0-17.91-5.972-34.442-16.309-47.76l-109.34 109.299c13.094 10.333 29.633 16.303 47.78 16.303 42.954.229 77.869-34.672 77.869-77.842z"/><path d="m557.042 144.662-48.469 48.451c16.08 19.287 25.728 43.627 25.728 70.723 0 60.849-49.386 110.217-110.259 110.217-26.876 0-51.454-9.644-70.749-25.718l-53.062 53.043-53.063-53.043c-19.294 16.074-43.644 25.718-70.749 25.718-60.872 0-110.259-49.368-110.259-110.217 0-26.866 9.648-51.436 25.728-70.723l-24.808-24.8-23.661-23.651c-27.563 45.465-43.414 98.508-43.414 155.454 0 165.785 134.377 299.884 299.996 299.884 165.617 0 299.994-134.328 299.994-299.884.462-57.175-15.389-110.218-42.953-155.454z"/><path d="m517.302 92.997c-54.44-57.176-131.621-92.997-217.071-92.997-85.451 0-162.402 35.821-217.072 92.997-7.351 7.807-14.471 16.074-21.134 24.569l237.976 237.886 237.974-238.115c-5.972-8.268-13.093-16.762-20.673-24.34zm-217.071-53.961c70.29 0 135.526 27.095 184.453 76.463l-184.453 184.386-184.455-184.386c49.158-49.368 114.165-76.463 184.455-76.463z"/></g></svg>