<svg xmlns="http://www.w3.org/2000/svg" fill="none" viewBox="0 0 528 698"><path fill="#3fc4ff" fill-opacity=".5" d="m292.634 77.996-51.082 15.716L209 697.996h312z"/><path fill="#005eb7" d="m328.821 57.64-16.516-10.253a26.44 26.44 0 0 0-18.985-3.493l-32.616 6.332 3.861 19.888z"/><path fill="#005eb7" d="m200.309 82.593 11.481-15.69a26.44 26.44 0 0 1 16.299-10.341l32.616-6.331 3.86 19.888z"/><path fill="#012f7a" d="m200.308 82.595 16.516 10.254a26.44 26.44 0 0 0 18.985 3.493l32.615-6.331h.001l32.615-6.33a26.44 26.44 0 0 0 16.299-10.343L328.82 57.65l-64.256 12.473v-.001z"/><path fill="#fbe872" d="M280.489 32.397c-3.936-10.972-15.287-17.431-26.729-15.21-11.443 2.221-19.553 12.458-19.097 24.105l.543 13.894 49.977-9.702z"/><path fill="#fff8f7" d="m516.245 551.241 2.755-6.245 2.755 6.245 6.245 2.755-6.245 2.755-2.755 6.245-2.755-6.245-6.245-2.755zM425.184 68.18 431 54.996l5.816 13.184L450 73.996l-13.184 5.816L431 92.996l-5.816-13.184L412 73.996zM7.633 477.629 11 469.996l3.367 7.633L22 480.996l-7.633 3.367L11 491.996l-3.367-7.633L0 480.996z"/></svg>