<svg fill="none" height="64" viewBox="0 0 64 64" width="64" xmlns="http://www.w3.org/2000/svg"><path d="m46.5264 52c-.9399 2.977-3.6903 4.9998-6.7989 5h-15.455c-3.1086-.0002-5.859-2.023-6.7989-5l-1.5761-5h32.205z" fill="#65d9ff"/><path d="m51.4111 36.5-3.3086 10.5h-32.205l-3.3086-10.5z" fill="#007cdb"/><g fill="#004293"><path d="m64 22.5-2.8193 8.9004c-.94 2.9769-3.6904 5.0995-6.7989 5.0996h-14.8818c2.1165 0 3.832-1.9411 3.832-4.25s-1.7155-4.25-3.832-4.25-3.832 1.9411-3.832 4.25 1.7155 4.25 3.832 4.25h-15c2.1165 0 3.832-1.9411 3.832-4.25s-1.7155-4.25-3.832-4.25-3.832 1.9411-3.832 4.25 1.7155 4.25 3.832 4.25h-14.88184c-3.10849-.0001-5.85887-2.1227-6.79882-5.0996l-2.81934-8.9004z"/><path d="m53.2568 22.5h-42.5136l-5.7432-8.5h54z"/></g></svg>