<svg width="35" height="24" viewBox="0 0 35 24" fill="none" xmlns="http://www.w3.org/2000/svg">
  <path fill-rule="evenodd" clip-rule="evenodd" d="M13.2742 24C11.5741 24 10.0698 22.871 9.55583 21.2094L6.91327 12.6667H5.28858C3.5885 12.6667 2.08421 11.5377 1.5702 9.87605L0 4.8L5.88963 4.8L2.78322 0H32.2168L29.1104 4.8L35 4.8L33.4298 9.87605C32.9158 11.5377 31.4115 12.6667 29.7114 12.6667H28.0867L25.4442 21.2094C24.9302 22.871 23.4259 24 21.7258 24H13.2742ZM11.2778 10.3333C11.2778 11.622 12.2161 12.6667 13.3735 12.6667C14.5309 12.6667 15.4692 11.622 15.4692 10.3333C15.4692 9.04467 14.5309 8 13.3735 8C12.2161 8 11.2778 9.04467 11.2778 10.3333ZM23.7222 10.3333C23.7222 11.622 22.784 12.6667 21.6265 12.6667C20.4691 12.6667 19.5308 11.622 19.5308 10.3333C19.5308 9.04467 20.4691 8 21.6265 8C22.784 8 23.7222 9.04467 23.7222 10.3333Z" fill="url(#paint0_linear_6_59)"/>
  <defs>
    <linearGradient id="paint0_linear_6_59" x1="1" y1="2.5" x2="35" y2="24" gradientUnits="userSpaceOnUse">
      <stop stop-color="#C6CACF"/>
      <stop offset="1" stop-color="#8490A5"/>
    </linearGradient>
  </defs>
</svg>
