<svg width="243" height="218" viewBox="0 0 243 218" fill="none" xmlns="http://www.w3.org/2000/svg">
  <path fill-rule="evenodd" clip-rule="evenodd" d="M148.913 254C129.969 254 113.207 241.581 107.479 223.303L78.0336 129.333H59.9298C40.9862 129.333 24.2241 116.915 18.4966 98.6366L1 42.8L66.6273 42.8L32.013 -10H359.987L325.373 42.8L391 42.8L373.503 98.6366C367.776 116.915 351.014 129.333 332.07 129.333H313.966L284.521 223.303C278.793 241.581 262.031 254 243.087 254H148.913ZM126.667 103.667C126.667 117.842 137.122 129.333 150.019 129.333C162.916 129.333 173.371 117.842 173.371 103.667C173.371 89.4914 162.916 78 150.019 78C137.122 78 126.667 89.4914 126.667 103.667ZM265.334 103.667C265.334 117.842 254.878 129.333 241.981 129.333C229.084 129.333 218.629 117.842 218.629 103.667C218.629 89.4914 229.084 78 241.981 78C254.878 78 265.334 89.4914 265.334 103.667Z" stroke="url(#paint0_linear_6_62)" stroke-opacity="0.1"/>
  <defs>
    <linearGradient id="paint0_linear_6_62" x1="141" y1="189" x2="141" y2="-10" gradientUnits="userSpaceOnUse">
      <stop stop-color="#052B65" stop-opacity="0.6"/>
      <stop offset="1" stop-color="#052B65"/>
    </linearGradient>
  </defs>
</svg>
