<svg width="246" height="156" viewBox="0 0 246 156" fill="none" xmlns="http://www.w3.org/2000/svg">

  <g filter="url(#filter0_dd_8_59)" data-figma-bg-blur-radius="100">
    <rect x="20" y="12" width="206" height="116" rx="9" fill="url(#paint0_linear_8_59)"/>
    <rect x="20.5" y="12.5" width="205" height="115" rx="8.5" stroke="#DADEE4"/>
  </g>
  <path fill-rule="evenodd" clip-rule="evenodd"
        d="M199.648 114.858C198.797 114.858 198.043 114.3 197.786 113.479L196.462 109.258H195.649C194.797 109.258 194.044 108.701 193.786 107.88L193 105.372L195.95 105.372L194.394 103H209.135L207.579 105.372L210.529 105.372L209.743 107.88C209.485 108.701 208.732 109.258 207.88 109.258H207.067L205.743 113.479C205.486 114.3 204.732 114.858 203.881 114.858H199.648ZM198.648 108.106C198.648 108.742 199.118 109.258 199.698 109.258C200.278 109.258 200.748 108.742 200.748 108.106C200.748 107.469 200.278 106.953 199.698 106.953C199.118 106.953 198.648 107.469 198.648 108.106ZM204.881 108.106C204.881 108.742 204.411 109.258 203.831 109.258C203.252 109.258 202.782 108.742 202.782 108.106C202.782 107.469 203.252 106.953 203.831 106.953C204.411 106.953 204.881 107.469 204.881 108.106Z"
        fill="url(#paint1_linear_8_59)"/>
  <rect x="47.5" y="35.5" width="69.6286" height="69.6286" rx="34.8143" fill="#DADEE4" stroke="#D0D5DD"/>
  <path
    d="M72.2752 56.4572V60.3143H68.457V62.8857H72.2752V66.7429H74.8207V62.8857H78.6388V60.3143H74.8207V56.4572H72.2752ZM79.9116 60.3143V64.1714H76.0934V68.0286H72.2752V80.8857C72.2752 82.3 73.4079 83.4572 74.8207 83.4572H92.6388C94.0516 83.4572 95.1843 82.3129 95.1843 80.8857V79.6H83.7298C82.3298 79.6 81.1843 78.4557 81.1843 77.0286V66.7429C81.1843 65.3286 82.317 64.1714 83.7298 64.1714H95.1843V62.8857C95.1843 61.4714 94.0516 60.3143 92.6388 60.3143H79.9116ZM83.7298 66.7429V77.0286H96.457V66.7429H83.7298ZM88.8207 69.9572C89.877 69.9572 90.7298 70.8186 90.7298 71.8857C90.7298 72.9529 89.877 73.8143 88.8207 73.8143C87.7643 73.8143 86.9116 72.9529 86.9116 71.8857C86.9116 70.8186 87.7643 69.9572 88.8207 69.9572Z"
    fill="#052B65" fill-opacity="0.7"/>
  <rect x="140.457" y="79" width="58.8571" height="5.88571" fill="#DADEE4"/>
  <rect x="140.457" y="67.2286" width="41.2" height="5.88571" fill="#DADEE4"/>
  <rect x="140.457" y="55.4572" width="50.0286" height="5.88571" fill="#DADEE4"/>
  <defs>
    <filter id="filter0_dd_8_59" x="-80" y="-88" width="406" height="316" filterUnits="userSpaceOnUse"
            color-interpolation-filters="sRGB">
      <feFlood flood-opacity="0" result="BackgroundImageFix"/>
      <feColorMatrix in="SourceAlpha" type="matrix" values="0 0 0 0 0 0 0 0 0 0 0 0 0 0 0 0 0 0 127 0"
                     result="hardAlpha"/>
      <feMorphology radius="4" operator="erode" in="SourceAlpha" result="effect1_dropShadow_8_59"/>
      <feOffset dy="8"/>
      <feGaussianBlur stdDeviation="12"/>
      <feColorMatrix type="matrix" values="0 0 0 0 0.0941176 0 0 0 0 0.152941 0 0 0 0 0.294118 0 0 0 0.08 0"/>
      <feBlend mode="normal" in2="BackgroundImageFix" result="effect1_dropShadow_8_59"/>
      <feColorMatrix in="SourceAlpha" type="matrix" values="0 0 0 0 0 0 0 0 0 0 0 0 0 0 0 0 0 0 127 0"
                     result="hardAlpha"/>
      <feMorphology radius="6" operator="erode" in="SourceAlpha" result="effect2_dropShadow_8_59"/>
      <feOffset dy="6"/>
      <feGaussianBlur stdDeviation="6"/>
      <feColorMatrix type="matrix" values="0 0 0 0 0.0941176 0 0 0 0 0.152941 0 0 0 0 0.294118 0 0 0 0.12 0"/>
      <feBlend mode="normal" in2="effect1_dropShadow_8_59" result="effect2_dropShadow_8_59"/>
      <feBlend mode="normal" in="SourceGraphic" in2="effect2_dropShadow_8_59" result="shape"/>
    </filter>
    <clipPath id="bgblur_0_8_59_clip_path" transform="translate(80 88)">
      <rect x="20" y="12" width="206" height="116" rx="9"/>
    </clipPath>
    <linearGradient id="paint0_linear_8_59" x1="20" y1="70" x2="226" y2="70" gradientUnits="userSpaceOnUse">
      <stop stop-color="#F2F2F2" stop-opacity="0.6"/>
      <stop offset="1" stop-color="#F2F2F2"/>
    </linearGradient>
    <linearGradient id="paint1_linear_8_59" x1="193.501" y1="104.235" x2="210.396" y2="115.065"
                    gradientUnits="userSpaceOnUse">
      <stop stop-color="#C6CACF"/>
      <stop offset="1" stop-color="#8490A5"/>
    </linearGradient>
  </defs>
</svg>
