<svg xmlns="http://www.w3.org/2000/svg" fill="none" viewBox="0 0 170 58">
  <g fill="#fff" clip-path="url(#a)">
    <path d="m63.125 18.865-10.397-1.696 7.94-3.314 1.791-7.157-2.095-3.715L50.13-.004l5.21 7.457.031.044-4.06 1.014-10.038-6.884-8.517 1.011-8.517-1.011L14.2 8.511l-4.06-1.014.03-.044 5.212-7.457L5.147 2.983 3.035 6.698l1.789 7.157 7.939 3.314-10.397 1.696-2.369 6.381 7.127 3.44 6.735-2.37.969 7.176 4.43 10.301 2.155 5.59 10.43 7.314.887.621v.013h.008l.008-.006.01.006h.006v-.013l.887-.621 10.43-7.315 2.155-5.589 4.427-10.3.968-7.178 6.734 2.371 7.127-3.44-2.365-6.381ZM5.838 3.87l6.967-2.033-3.78 5.41-4.61-.852 1.423-2.525ZM4.304 7.44l4.06.75-2.857 4.049-1.203-4.8Zm9.473 17.802L7.2 27.555 1.32 24.718 3.148 19.8l10.629-1.735v7.177Zm0-8.789-7.693-3.211 3.404-4.824 4.282 1.07.007 6.965Zm29.3 2.802-.993 3.32H23.416l-.992-3.32L32.746 4.38l10.33 14.876Zm-9.92 13.574h-6.721l-2.693-9.207H41.75l-2.693 9.207h-5.9Zm5.588 1.044-3.338 8.825-2.654 2.178-2.655-2.178-3.338-8.825h11.985ZM14.819 15.247V9.354l9.679-6.637 7.483.888.05.005-.023.022-10.52 15.075-6.67-3.46Zm5.413 28.152-4.378-10.188L14.877 26l7.869-2.056 2.737 9.364-2.216 4.62-2.985 5.605-.05-.133Zm.55 1.426 3.116-5.848 8.03 6.588-.271.22-9.497 2.632-1.378-3.592Zm11.966 11.226-9.692-6.797 9.692-2.686 9.691 2.686-9.69 6.797Zm10.582-7.636-9.496-2.631-.271-.22 8.03-6.59 3.115 5.85-1.378 3.59Zm6.315-15.207-4.378 10.188-.052.133-2.985-5.606-2.222-4.616 2.738-9.365 7.87 2.056-.971 7.21Zm1.03-17.961-6.67 3.46-10.52-15.075-.021-.022.05-.005 7.482-.888 9.68 6.637v5.893Zm9.316-3.01-2.856-4.05 4.06-.749-1.204 4.799Zm-7.3-10.398 6.968 2.034 1.424 2.525-4.61.851-3.782-5.41Zm-.967 7.649 4.29-1.07 3.403 4.825-7.693 3.211V9.488Zm6.578 18.068-6.578-2.313v-7.178L62.353 19.8l1.827 4.918-5.878 2.838ZM99.589 24.336c-.033 3.149-.13 4.216-.586 5.189-.845 1.849-2.602 2.724-5.984 2.952-1.333.13-3.935.162-8.26.162-6.245 0-8.261-.292-10.014-1.427-2.147-1.362-2.765-3.633-2.765-10.055 0-5.71.65-7.753 2.927-9.05 1.952-1.136 4.033-1.429 10.115-1.429 8.097 0 9.854.163 11.708 1.071 1.756.876 2.57 2.79 2.57 5.969v.713h-6.31c-.13-2.367-.619-2.563-6.343-2.563-5.398 0-6.374.13-7.186.844-.782.714-.944 1.59-.944 5.093 0 5.19.488 5.58 6.83 5.58 4.91 0 5.626-.033 6.537-.422.943-.39 1.301-1.07 1.301-2.627h6.404ZM120.752 17.195c1.788.324 3.22 1.266 3.804 2.53.423.941.553 2.077.553 4.574 0 4.704-.389 6.001-2.178 7.071-1.042.65-1.919.877-3.936 1.071a79.127 79.127 0 0 1-5.041.194c-5.04 0-7.285-.388-8.716-1.491-1.463-1.103-1.789-2.34-1.789-6.52 0-4.41.586-5.94 2.635-6.877 1.533-.682 4.032-.974 8.131-.974 2.503.004 4.975.162 6.537.422Zm-11.676 7.46c0 3.439.586 3.861 5.301 3.861 4.521 0 5.106-.422 5.106-3.73 0-3.504-.52-3.892-5.302-3.892-4.422 0-5.105.518-5.105 3.762ZM131.493 10.999l6.31 16.478L143.396 11h7.968l5.432 16.478L163.301 11H170l-8.976 21.636h-8.842l-4.813-15.567-5.041 15.567h-8.781L124.796 11h6.697ZM72.08 39.902h5.061c1.28 0 1.608.04 2.025.247.665.327.913.93.913 2.178 0 1.247-.229 1.91-.774 2.25-.387.237-.834.306-1.985.306h-3.235v1.62H72.08v-6.601Zm4.932 3.375c.824 0 1.062-.18 1.062-.802 0-.791-.198-.97-1.062-.97h-2.927v1.772h2.927ZM83.989 39.902h5.706c.953 0 1.4.06 1.786.237.576.27.844.871.844 1.9 0 .713-.13 1.189-.417 1.495-.228.238-.536.337-1.43.466.15.01.279.02.328.02.695.039.953.118 1.152.36.198.24.277.524.277 1.088v1.04h-2.044v-.822c0-.376-.07-.584-.248-.713-.159-.109-.317-.128-.863-.128h-3.087v1.662H83.99v-6.605Zm5.15 3.33c.973 0 1.161-.12 1.161-.773 0-.426-.04-.604-.168-.742-.15-.159-.318-.188-.923-.188h-3.216v1.702h3.146ZM103.611 39.934c1.022.188 1.518.713 1.657 1.772.04.267.059.801.059 1.603 0 1.594-.168 2.237-.734 2.7-.397.336-.953.495-1.915.534-.361.02-1.241.03-1.886.03-1.578 0-2.382-.03-2.778-.109-.735-.128-1.161-.406-1.41-.89-.248-.486-.317-.97-.317-2.416 0-1.108.02-1.386.139-1.83.188-.704.575-1.08 1.32-1.297.555-.159 1.16-.198 2.907-.198 1.903.002 2.489.022 2.958.101Zm-4.942 1.752c-.271.208-.348.535-.348 1.485 0 .97.08 1.326.328 1.53.27.217.595.257 2.113.257 1.737 0 2.094-.06 2.323-.376.188-.238.238-.574.238-1.455 0-1.663-.03-1.683-2.511-1.683-1.481.005-1.888.054-2.146.242h.003ZM111.934 41.537h-2.947v-1.635h7.909v1.633h-2.947v4.969h-2.015v-4.967ZM127.879 39.934c1.022.188 1.518.713 1.657 1.772.039.267.058.801.059 1.603 0 1.594-.169 2.237-.735 2.7-.397.336-.952.495-1.915.534-.361.02-1.24.03-1.885.03-1.578 0-2.382-.03-2.779-.109-.734-.128-1.161-.406-1.409-.89-.248-.486-.318-.97-.318-2.416 0-1.108.02-1.386.139-1.83.189-.704.576-1.08 1.32-1.297.556-.159 1.161-.198 2.908-.198 1.908.002 2.493.022 2.958.101Zm-4.943 1.752c-.271.208-.347.535-.347 1.485 0 .97.079 1.326.327 1.53.271.217.595.257 2.114.257 1.736 0 2.094-.06 2.323-.376.188-.238.237-.574.237-1.455 0-1.663-.03-1.683-2.511-1.683-1.475.005-1.882.054-2.14.242h-.003ZM141.953 44.022c-.01.96-.04 1.286-.181 1.583-.258.564-.794.832-1.826.9-.407.04-1.2.05-2.52.05-1.906 0-2.521-.09-3.057-.436-.655-.416-.843-1.109-.843-3.068 0-1.742.198-2.366.893-2.762.595-.346 1.23-.436 3.086-.436 2.471 0 3.007.05 3.573.327.536.27.784.851.784 1.821v.218h-1.926c-.039-.72-.188-.782-1.935-.782-1.647 0-1.945.04-2.193.258-.248.217-.288.484-.288 1.553 0 1.584.149 1.703 2.084 1.703 1.499 0 1.714-.01 1.995-.129.281-.119.397-.326.397-.801h1.957ZM153.196 39.934c1.022.188 1.519.713 1.658 1.772.039.267.059.801.059 1.603 0 1.594-.169 2.237-.734 2.7-.397.336-.953.495-1.916.534-.36.02-1.24.03-1.885.03-1.578 0-2.382-.03-2.779-.109-.734-.128-1.161-.406-1.409-.89-.248-.486-.317-.97-.317-2.416 0-1.108.019-1.386.138-1.83.189-.704.576-1.08 1.32-1.297.556-.159 1.161-.198 2.908-.198 1.908.002 2.491.022 2.957.101Zm-4.942 1.752c-.27.208-.347.535-.347 1.485 0 .97.079 1.326.327 1.53.271.217.596.257 2.114.257 1.737 0 2.094-.06 2.322-.376.189-.238.239-.574.239-1.455 0-1.663-.03-1.683-2.511-1.683-1.479.005-1.886.054-2.144.242ZM158.982 39.902h2.014v4.969h4.556v1.633h-6.57v-6.602Z"/>
  </g>
  <defs>
    <clipPath id="a">
      <path fill="#fff" d="M0 0h170v57.337H0z"/>
    </clipPath>
  </defs>
</svg>