<svg fill="none" height="42" viewBox="0 0 44 42" width="44" xmlns="http://www.w3.org/2000/svg" xmlns:xlink="http://www.w3.org/1999/xlink"><linearGradient id="a"><stop offset="0" stop-color="#ffe7e0"/><stop offset=".34375" stop-color="#f8dbf4"/><stop offset=".6875" stop-color="#c4ddff"/><stop offset="1" stop-color="#cae9ff"/></linearGradient><linearGradient id="b" gradientUnits="userSpaceOnUse" x1="8" x2="27.7498" xlink:href="#a" y1="18" y2="1.22387"/><linearGradient id="c" gradientUnits="userSpaceOnUse" x1="8" x2="32.3465" xlink:href="#a" y1="29" y2="12.156"/><linearGradient id="d" gradientUnits="userSpaceOnUse" x1=".000001" x2="30.5757" xlink:href="#a" y1="18" y2="1.02486"/><linearGradient id="e" gradientUnits="userSpaceOnUse" x1="2" x2="29.356" xlink:href="#a" y1="18" y2="2.62255"/><path d="m18 20h24v4h-24zm-10-12h12v4h-12zm16 0h8v4h-8zm-16 16h6v4h-6z" fill="url(#b)"/><path d="m30 16c-1.0609 0-2.0783.4214-2.8284 1.1716-.7502.7501-1.1716 1.7675-1.1716 2.8284s.4214 2.0783 1.1716 2.8284c.7501.7502 1.7675 1.1716 2.8284 1.1716s2.0783-.4214 2.8284-1.1716c.7502-.7501 1.1716-1.7675 1.1716-2.8284s-.4214-2.0783-1.1716-2.8284c-.7501-.7502-1.7675-1.1716-2.8284-1.1716zm-22 0h6v4h-6zm20 20c0 3.314-2.686 6-6 6s-6-2.686-6-6zm-6-8.514 2.838 8.514h3.162l-4-12h-4l-4 12h3.162zm22 8.514c0 3.314-2.686 6-6 6s-6-2.686-6-6zm-6-8.514 2.838 8.514h3.162l-4-12h-4l-4 12h3.162z" fill="url(#c)"/><path d="m36 0h-32c-2.206 0-4 1.794-4 4v28c0 2.206 1.794 4 4 4h8v-.65l1.116-3.35h-9.116v-28h32v10.78c.33.382.636.782.89 1.22h3.11v-12c0-2.206-1.794-4-4-4z" fill="url(#d)"/><path d="m2 2v32h10.45l1.55-4.648v-13.352h9.11c1.386-2.382 3.936-4 6.89-4s5.504 1.618 6.89 4h1.11v-14z" fill="url(#e)" opacity=".3"/></svg>