<svg fill="none" height="84" viewBox="0 0 84 84" width="84" xmlns="http://www.w3.org/2000/svg" xmlns:xlink="http://www.w3.org/1999/xlink"><linearGradient id="a" gradientUnits="userSpaceOnUse" x1=".000003" x2="67.2179" y1="42" y2="8.41347"><stop offset="0" stop-color="#ffe7e0"/><stop offset=".109375" stop-color="#f8dbf4"/><stop offset=".526042" stop-color="#c4ddff"/><stop offset="1" stop-color="#cae9ff"/></linearGradient><path clip-rule="evenodd" d="m84 42c0-23.1924-18.8076-42-42-42s-42 18.8076-42 42 18.8076 42 42 42 42-18.8076 42-42zm-55.5492-13.1796c0 3.2424 6.384 5.88 14.2548 5.88s14.2548-2.6376 14.2548-5.88-6.384-5.88-14.2548-5.88-14.2548 2.6376-14.2548 5.88zm14.322 17.2032c-10.1808 0-18.438-3.192-18.438-7.1316 0-2.184 2.5452-4.1412 6.5352-5.4432 2.8476 1.4868 7.1148 2.436 11.9028 2.436s9.0552-.9492 11.9028-2.436c3.9984 1.3104 6.5352 3.2592 6.5352 5.4432.0084 3.9396-8.2488 7.1316-18.438 7.1316zm-.1428 13.5324c-13.4316 0-24.318-3.8808-24.318-9.0804 0-2.7132 2.9652-5.1576 7.7112-6.8796 3.7044 2.3772 9.9204 3.5952 16.968 3.5952 6.8796 0 12.9612-1.4868 16.6992-3.7632 4.4772 1.7052 7.2576 4.0824 7.2576 6.7032 0 5.208-10.8864 9.4248-24.318 9.4248z" fill="url(#a)" fill-rule="evenodd"/></svg>