<svg fill="none" height="20" viewBox="0 0 20 20" width="20" xmlns="http://www.w3.org/2000/svg" xmlns:xlink="http://www.w3.org/1999/xlink"><linearGradient id="a" gradientUnits="userSpaceOnUse" x1="9.995" x2="9.995" y1="14.5825" y2="4.9975"><stop offset="0" stop-color="#071b3b"/><stop offset="1" stop-color="#052b65"/></linearGradient><path d="m10 20c5.5228 0 10-4.4772 10-10 0-5.52285-4.4772-10-10-10-5.52285 0-10 4.47715-10 10 0 5.5228 4.47715 10 10 10z" fill="#cae9ff"/><path d="m7.29 14.29-3.59-3.59c-.39-.39-.39-1.02 0-1.41s1.02-.39 1.41 0l2.89 2.88 6.88-6.88c.39-.39 1.02-.39 1.41 0s.39 1.02 0 1.41l-7.59 7.59c-.38.39-1.02.39-1.41 0z" fill="url(#a)"/></svg>