<svg fill="none" height="20" viewBox="0 0 20 20" width="20" xmlns="http://www.w3.org/2000/svg"><path d="m10.95 9.55 3 3c.1833.1833.275.4167.275.7s-.0917.5167-.275.7-.4167.275-.7.275-.5167-.0917-.7-.275l-3.3-3.3c-.1-.1-.175-.2125-.225-.3375s-.075-.2542-.075-.3875v-3.975c0-.28333.09583-.52083.2875-.7125s.42917-.2875.7125-.2875c.2833 0 .5208.09583.7125.2875s.2875.42917.2875.7125zm-10.15 4.475c-.216667-.4833-.391667-.9833-.525-1.5s-.225-1.0417-.275-1.575h2.025c.05.35.12083.7.2125 1.05s.20417.6917.3375 1.025zm-.8-5.075c.05-.53333.141667-1.0625.275-1.5875s.316667-1.02917.55-1.5125l1.75 1c-.13333.33333-.24583.675-.3375 1.025s-.1625.70833-.2125 1.075zm4.125 9.15c-.45-.3333-.86667-.6958-1.25-1.0875s-.74167-.8125-1.075-1.2625l1.75-1c.23333.3.47917.5792.7375.8375s.5375.5042.8375.7375zm-.55-12.975-1.775-1c.33333-.45.69167-.86667 1.075-1.25s.8-.74167 1.25-1.075l1 1.775c-.28333.23333-.55417.47917-.8125.7375s-.50417.52917-.7375.8125zm5.375 14.775c-.53333-.05-1.0625-.1417-1.5875-.275s-1.02917-.3167-1.5125-.55l1-1.75c.33333.1333.675.2458 1.025.3375s.70833.1625 1.075.2125zm-2.1-17.325-1-1.75c.48333-.233333.9875-.416667 1.5125-.55s1.05417-.225 1.5875-.275v2.025c-.36667.05-.725.12083-1.075.2125s-.69167.20417-1.025.3375zm4.1 17.325v-2.025c.3667-.05.725-.1208 1.075-.2125s.6917-.2042 1.025-.3375l1 1.75c-.4833.2333-.9875.4167-1.5125.55s-1.0542.225-1.5875.275zm2.1-17.325c-.3333-.13333-.675-.24583-1.025-.3375s-.7083-.1625-1.075-.2125v-2.025c.5333.05 1.0625.141667 1.5875.275s1.0292.316667 1.5125.55zm2.725 15.525-1-1.775c.2833-.2333.5542-.4792.8125-.7375s.5042-.5292.7375-.8125l1.775 1c-.3333.45-.6917.8708-1.075 1.2625s-.8.7458-1.25 1.0625zm.55-12.975c-.2333-.28333-.4792-.55417-.7375-.8125s-.5292-.50417-.8125-.7375l1-1.775c.45.31667.8667.66667 1.25 1.05s.7333.8 1.05 1.25zm1.55 3.825c-.05-.36667-.1208-.725-.2125-1.075s-.2042-.69167-.3375-1.025l1.75-1.025c.2167.5.3958 1.0125.5375 1.5375s.2375 1.05417.2875 1.5875zm1.2 5.1-1.75-1c.1333-.3333.2458-.675.3375-1.025s.1625-.7083.2125-1.075h2.025c-.05.5333-.1417 1.0625-.275 1.5875s-.3167 1.0292-.55 1.5125z" fill="#8295b2"/></svg>