<svg fill="none" height="39" viewBox="0 0 50 39" width="50" xmlns="http://www.w3.org/2000/svg" xmlns:xlink="http://www.w3.org/1999/xlink"><linearGradient id="a"><stop offset="0" stop-color="#ffe7e0"/><stop offset=".344" stop-color="#f8dbf4"/><stop offset=".688" stop-color="#c4ddff"/><stop offset="1" stop-color="#cae9ff"/></linearGradient><linearGradient id="b" gradientUnits="userSpaceOnUse" x1="1.66701" x2="33.787" xlink:href="#a" y1="19.532" y2="-2.084"/><linearGradient id="c" gradientUnits="userSpaceOnUse" x1="14.593" x2="23.937" xlink:href="#a" y1="20" y2="9.61"/><linearGradient id="d" gradientUnits="userSpaceOnUse" x1="28.491" x2="34.629" xlink:href="#a" y1="20.028" y2="17.728"/><linearGradient id="e" gradientUnits="userSpaceOnUse" x1=".166998" x2="34.79" xlink:href="#a" y1="19.532" y2="-3.291"/><linearGradient id="f" gradientUnits="userSpaceOnUse" x1="13.333" x2="14.232" xlink:href="#a" y1="30.5" y2="26.01"/><clipPath id="g"><path d="m0 0h50v39h-50z"/></clipPath><g clip-path="url(#g)"><path d="m32 31.667 2.518 4.77c.152.288.497.417.819.417.012 0 .02 0 .033-.003 1.834-.058 9.881-1.423 12.83-6.63.089-.1534.1352-.3277.134-.505 0-10.043-4.273-21.658-6.466-23.688-2.107-1.703-4.702-2.907-6.701-3.668-.3534-.13502-.7343-.18211-1.11-.13721-.3756.0449-.7347.18044-1.0464.39495-.3116.21451-.5664.50156-.7425.83643-.176.33486-.268.70751-.2681 1.08583 0 .38722-.1538.75857-.4276 1.03238-.2738.2738-.6452.42762-1.0324.42762h-11.081c-.3868 0-.7577-.15358-1.0313-.42698s-.4274-.64424-.4277-1.03102c0-.768-.378-1.487-1.01-1.923-.3114-.21488-.6705-.35059-1.0462-.39537-.3757-.04479-.7566.00271-1.1098.13837-2.007.768-4.615 1.984-6.75299 3.71-2.141 1.986-6.414 13.604-6.414 23.646-.001.1768.04489.3507.133.504 2.951 5.21 10.99999 6.573 12.82999 6.632.0112.002.0226.0026.034.002.324 0 .667-.13.819-.418l2.517-4.771z" fill="url(#b)" opacity=".3"/><path d="m18.093 24.639c-1.934 0-3.5-2.084-3.5-4.658 0-2.573 1.566-4.657 3.5-4.657 1.942-.257 3.458 2.084 3.5 4.657 0 2.574-1.565 4.658-3.5 4.658z" fill="url(#c)"/><path d="m31.99 24.695c1.934 0 3.5-2.09 3.5-4.667s-1.566-4.667-3.5-4.667-3.5 2.09-3.5 4.667 1.568 4.667 3.5 4.667z" fill="url(#d)"/><g clip-rule="evenodd" fill-rule="evenodd"><path d="m32.16 1.383c.5115-.35227 1.1009-.575001 1.7176-.649033.6166-.074033 1.242.002849 1.8224.224031 2.065.786002 4.827 2.057002 7.11 3.904002l.04.031.037.034c.785.727 1.566 2.079 2.278 3.616.743 1.606 1.506 3.629 2.193 5.888 1.371 4.508 2.476 10.074 2.476 15.285.0009.4386-.1136.8697-.332 1.25-1.728 3.045-4.86 4.853-7.599 5.902-2.714 1.039-5.308 1.435-6.431 1.48-.074.007-.125.006-.134.006-.612 0-1.633-.239-2.148-1.22l-2.517-4.767 2.654-1.4 2.304 4.365c.956-.084 3.016-.43 5.2-1.266 2.436-.933 4.763-2.377 6.002-4.478-.018-4.796-1.043-10.004-2.345-14.284-.655-2.154-1.371-4.043-2.046-5.5-.684-1.478-1.246-2.332-1.563-2.646-1.923-1.542-4.327-2.666-6.246-3.396-.1262-.048-.2622-.06471-.3963-.04868-.1341.01602-.2623.06429-.3737.14068l-.004.002c-.1107.07627-.2012.17827-.2637.29725-.0625.11897-.0952.25134-.0953.38575.0001.3888-.0763.77381-.225 1.13305s-.3667.68566-.6416.96063-.6012.49309-.9604.64191c-.3592.14881-.7442.22541-1.133.22541h-11.081c-.7846 0-1.5371-.31161-2.092-.86632-.5549-.5547-.8667-1.30708-.867-2.09168-.0002-.13541-.0332-.26875-.0963-.38858-.063-.11983-.1542-.22258-.2657-.29942-.1107-.0762-.2383-.1243-.3718-.14015-.1334-.01586-.2687.00101-.3942.04915h-.002c-1.925.737-4.345 1.873-6.3 3.438-.303.303-.855 1.146-1.532 2.619-.668 1.451-1.38 3.337-2.032 5.49-1.296 4.275-2.321 9.484-2.339 14.28 1.24 2.103 3.567 3.546 6.005 4.48 2.182.835 4.242 1.18 5.197 1.265l2.304-4.368 2.654 1.4-2.518 4.772c-.513.97-1.521 1.217-2.145 1.217h-.002c-.009 0-.06 0-.135-.005-1.124-.046-3.716-.442-6.428-1.48-2.74-1.05-5.874-2.858-7.602002-5.905-.21714-.38-.330918-.8103-.33-1.248 0-5.21 1.104002-10.777 2.468002-15.279.684-2.256 1.442-4.274 2.177-5.873.703-1.528 1.475-2.876 2.25-3.594l.037-.034.04-.032c2.311-1.869 5.085-3.151 7.158-3.946002.5807-.222612 1.2069-.300342 1.8245-.226463.6175.07388 1.2077.297145 1.7195.650465.5058.34865.9204.81365 1.2091 1.35588.2887.54224.443 1.14586.4499 1.76012h11c.0062-.61465.1603-1.21877.4492-1.7613.2889-.54254.7042-1.00754 1.2108-1.3557z" fill="url(#e)"/><path d="m11.92 28.83c.1334-.3747.4102-.6811.7695-.8518.3593-.1706.7717-.1916 1.1465-.0582 4.287 1.524 7.642 2.247 10.998 2.247 3.362 0 6.833-.726 11.352-2.255.3768-.1274.7889-.0999 1.1455.0764.3566.1764.6285.4872.756.8641.1274.3769.0999.7889-.0765 1.1455s-.4872.6286-.864.756c-4.678 1.582-8.496 2.413-12.312 2.413-3.821 0-7.534-.832-12.004-2.42-.1857-.066-.3565-.1679-.5028-.2999-.1462-.132-.265-.2915-.3496-.4694s-.1333-.3708-.1434-.5675c-.0101-.1968.0187-.3946.0848-.5802z" fill="url(#f)"/></g></g></svg>