<svg fill="none" height="99" viewBox="0 0 67 99" width="67" xmlns="http://www.w3.org/2000/svg" xmlns:xlink="http://www.w3.org/1999/xlink"><linearGradient id="a"><stop offset="0" stop-color="#ffe7e0"/><stop offset=".34375" stop-color="#f8dbf4"/><stop offset=".6875" stop-color="#c4ddff"/><stop offset="1" stop-color="#cae9ff"/></linearGradient><linearGradient id="b" gradientUnits="userSpaceOnUse" x1="7.36841" x2="14.107" xlink:href="#a" y1="17.2105" y2="13.8435"/><linearGradient id="c" gradientUnits="userSpaceOnUse" x1="43.1579" x2="49.8965" xlink:href="#a" y1="8.21053" y2="4.84346"/><linearGradient id="d" gradientUnits="userSpaceOnUse" x1="31.5789" x2="38.3176" xlink:href="#a" y1="25.2105" y2="21.8435"/><linearGradient id="e" gradientUnits="userSpaceOnUse" x1="23.158" x2="29.8966" xlink:href="#a" y1="4.21053" y2=".843455"/><linearGradient id="f" gradientUnits="userSpaceOnUse" x1="11.579" x2="18.3176" xlink:href="#a" y1="34.6846" y2="31.3176"/><linearGradient id="g" gradientUnits="userSpaceOnUse" x1=".000002" x2="51.9347" xlink:href="#a" y1="67.4208" y2="40.235"/><circle cx="11.5789" cy="17.2105" fill="url(#b)" r="4.21053"/><circle cx="47.3684" cy="8.21053" fill="url(#c)" r="4.21053"/><circle cx="35.7894" cy="25.2105" fill="url(#d)" r="4.21053"/><circle cx="27.3685" cy="4.21053" fill="url(#e)" r="4.21053"/><circle cx="15.7895" cy="34.6846" fill="url(#f)" r="4.21053"/><path clip-rule="evenodd" d="m0 35.8418v6.015h3.00752l15.03758 24.9237v23.1966h7.7831c-.7699-1.8977-1.5064-3.9127-1.7681-6.015v-18.9086l-13.9567-23.1967h33.9344l-13.9626 23.1967v.0235c2.9955-3.4015 6.9292-5.9468 11.4074-7.231l9.6452-15.9892h3.0075v-6.015h-3.0075-48.12028zm48.1203 27.0677c-9.9304 0-18.0451 8.1147-18.0451 18.0451s8.1147 18.0451 18.0451 18.0451 18.0451-8.1147 18.0451-18.0451-8.1147-18.0451-18.0451-18.0451zm11.8623 9.8094c-.2225-1.6064-5.2233-.6639-6.5603-.4119-.1066.0201-.1898.0358-.2456.0455-.0387.0066-.0749-.0267-.067-.0656.0768-.3886.1324-1.4394-.6048-1.6669-.4712-.1455-.7821.1231-.9665.394-.0825.1215-.3297.647-.4832 1.0118-.0828.197-.2755.4848-.4873.4796-.8884-.2792-1.7807-.4188-2.6731-.4188-.8922 0-1.7847.1396-2.6731.4188-.2117.0052-.4045-.2826-.4874-.4796-.1535-.3648-.4005-.8903-.4831-1.0118-.1844-.2709-.4951-.5395-.9665-.394-.7372.2275-.6817 1.2783-.6047 1.6669.0077.0389-.0284.0722-.0672.0656-.0556-.0097-.1387-.0254-.2451-.0454-1.3362-.2519-6.3381-1.1947-6.5609.4118-.228 1.6451 1.8326 3.9138 3.9888 4.9334.1138.0539.2149.128.3161.2022.0838.0615.1678.1231.2591.1733.3394.1864.5418.6518.4921 1.0716v5.8778c1.7002-1.2076 4.1994-1.959 7.0319-1.959 2.8326 0 5.3318.7515 7.032 1.959v-5.8778c-.0498-.4198.1525-.8852.4919-1.0716.0916-.0503.1757-.1119.2596-.1735l.0001-.0001c.101-.0741.2019-.1481.3156-.2019 2.1561-1.0196 4.217-3.2883 3.9886-4.9334zm-14.1015 5.0573c.7397.5121.9765.8895.952 1.0383-.0274.1481-.3777.4208-1.2463.6468-.6082.1544-1.241.212-1.867.173-.1471-.0093-.2946-.0341-.4311-.0903-.249-.1022-.4596-.2782-.6161-.5101-.2115-.3028-.3122-.64-.2477-1.0044.0629-.3649.2716-.6469.5729-.8582.2257-.164.4832-.2566.7519-.2667.1472-.0054.2943.022.4355.0642.6016.1794 1.1767.4522 1.6959.8074zm7.236 1.2577c-.1565.2319-.3671.4078-.6161.5101-.1366.0562-.2841.081-.4312.0903-.626.039-1.2589-.0186-1.8669-.173-.8687-.226-1.219-.4988-1.2464-.647-.0244-.1488.2123-.526.952-1.0382.5192-.3551 1.0944-.6279 1.6959-.8073.1413-.0422.2884-.0696.4356-.0642.2687.0101.5262.1027.7518.2667.3013.2113.5102.4934.573.8583.0645.3644-.0362.7015-.2477 1.0043zm-5.2223 4.9622c-4.6267 0-8.3773 2.1805-8.3773 4.8704 0 2.69 3.7506 4.8705 8.3773 4.8705 4.6268 0 8.3775-2.1806 8.3775-4.8705s-3.7508-4.8704-8.3775-4.8704zm-3.9651 5.3682c-.7168.3532-1.3843 0-1.5124-.8009-.1402-.858 1.005-2.8973 1.2685-1.3553.1507.8822.5991.5539.9565.2921.2673-.1958.4838-.3543.4869.0586-.0394.7791-.5002 1.4732-1.1995 1.8055zm9.4425-.8009c-.1282.8009-.7957 1.1541-1.5124.8009-.6993-.3323-1.1603-1.0264-1.1993-1.8055.003-.4128.2194-.2544.4866-.0586.3574.2617.8058.5901.9566-.2921.2635-1.542 1.4086.4973 1.2685 1.3553z" fill="url(#g)" fill-rule="evenodd"/></svg>