<svg fill="none" height="36" viewBox="0 0 34 36" width="34" xmlns="http://www.w3.org/2000/svg" xmlns:xlink="http://www.w3.org/1999/xlink"><linearGradient id="a"><stop offset="0" stop-color="#ffe7e0"/><stop offset=".34375" stop-color="#f8dbf4"/><stop offset=".6875" stop-color="#c4ddff"/><stop offset="1" stop-color="#cae9ff"/></linearGradient><linearGradient id="b" gradientUnits="userSpaceOnUse" x1="5.75" x2="20.6642" xlink:href="#a" y1="23.25" y2="17.0399"/><linearGradient id="c" gradientUnits="userSpaceOnUse" x1=".500001" x2="2.14913" xlink:href="#a" y1="33.75" y2="27.1579"/><linearGradient id="d" gradientUnits="userSpaceOnUse" x1="4" x2="23.098" xlink:href="#a" y1="17.125" y2="11.0981"/><linearGradient id="e" gradientUnits="userSpaceOnUse" x1="5.75" x2="26.6372" xlink:href="#a" y1="16.5124" y2="4.32363"/><linearGradient id="f" gradientUnits="userSpaceOnUse" x1="28.5" x2="31.7944" xlink:href="#a" y1="11" y2="10.177"/><path d="m5.75 12.75h17.5v21h-17.5z" fill="url(#b)" opacity=".2"/><path d="m.5 32h28v3.5h-28z" fill="url(#c)"/><path d="m25 33.75h-3.5v-28c0-1.05-.7-1.75-1.75-1.75h-10.5c-1.05 0-1.75.7-1.75 1.75v28h-3.5v-28c0-2.975 2.275-5.25 5.25-5.25h10.5c2.975 0 5.25 2.275 5.25 5.25z" fill="url(#d)"/><path d="m28.5 28.4999h-5.25v-3.5h5.25c1.05 0 1.75-.7 1.75-1.75v-11.55l-4.725-4.725 2.45-2.45 5.775 5.775v12.95c0 2.975-2.275 5.25-5.25 5.25zm-22.75-17.5h17.5v3.5h-17.5z" fill="url(#e)"/><path d="m28.5 7.5v5.25c0 1.05.7 1.75 1.75 1.75h1.75v-3.5z" fill="url(#f)"/></svg>