<svg fill="none" viewBox="0 0 48 48" xmlns="http://www.w3.org/2000/svg" xmlns:xlink="http://www.w3.org/1999/xlink"><linearGradient id="a"><stop offset="0" stop-color="#ffe7e0"/><stop offset=".344" stop-color="#f8dbf4"/><stop offset=".688" stop-color="#c4ddff"/><stop offset="1" stop-color="#cae9ff"/></linearGradient><linearGradient id="b" gradientUnits="userSpaceOnUse" x1=".667" x2="38.01" xlink:href="#a" y1="24" y2="5.341"/><linearGradient id="c" gradientUnits="userSpaceOnUse" x1=".761" x2="37.589" xlink:href="#a" y1="23.359" y2="4.415"/><path d="m24 .667a23.333 23.333 0 1 0 0 46.666 23.333 23.333 0 0 0 0-46.666z" fill="url(#b)" opacity=".3"/><path d="m21.433.9c-10.733 1.167-19.366 9.8-20.533 20.3-1.167 10.967 5.133 20.767 14.7 24.5.7.233 1.4-.233 1.4-1.167v-3.733s-.933.233-2.1.233c-3.267 0-4.667-2.8-4.9-4.433-.233-.933-.7-1.633-1.4-2.333-.7-.234-.933-.234-.933-.467 0-.467.7-.467.933-.467 1.4 0 2.567 1.634 3.033 2.334 1.167 1.866 2.567 2.333 3.267 2.333.933 0 1.633-.233 2.1-.467.233-1.633.933-3.266 2.333-4.2-5.366-1.166-9.333-4.2-9.333-9.333 0-2.567 1.167-5.133 2.8-7-.233-.467-.467-1.633-.467-3.267 0-.933 0-2.333.7-3.733 0 0 3.267 0 6.534 3.033 1.166-.466 2.8-.7 4.433-.7s3.267.234 4.667.7c3.033-3.033 6.533-3.033 6.533-3.033.467 1.4.467 2.8.467 3.733 0 1.867-.234 2.8-.467 3.267 1.633 1.867 2.8 4.2 2.8 7 0 5.133-3.967 8.167-9.333 9.333 1.4 1.167 2.333 3.267 2.333 5.367v6.067c0 .7.7 1.4 1.633 1.166 8.634-3.5 14.7-11.9 14.7-21.7 0-14-11.9-24.966-25.9-23.333z" fill="url(#c)"/></svg>