<svg fill="none" viewBox="0 0 20 22" xmlns="http://www.w3.org/2000/svg"><path d="m11.467 12.413v8.287a.3.3 0 0 0 .6 0v-15.076l1.543.998h.001l.005.004.02.013.08.05a58.624 58.624 0 0 0 1.273.792c.786.475 1.67.982 2.23 1.225.252.11.481.16.687.16.56 0 .79-.205.909-.371l-2.882-2.161-.093-.07-.075-.09-2.774-3.33a4.203 4.203 0 0 0 -3.227-1.51h-6.23a2.467 2.467 0 0 0 -2.468 2.466v7.072c0 .38.29.698.672.73l9.728.811zm0 0-.917-.076-8.81-.735z" fill="#ED6834" fill-opacity=".3" stroke="#ED6834" stroke-width="2"/></svg>