<svg fill="none" height="22" viewBox="0 0 22 22" width="22" xmlns="http://www.w3.org/2000/svg" xmlns:xlink="http://www.w3.org/1999/xlink"><linearGradient id="a"><stop offset="0" stop-color="#ffe7e0"/><stop offset=".34375" stop-color="#f8dbf4"/><stop offset=".6875" stop-color="#c4ddff"/><stop offset="1" stop-color="#cae9ff"/></linearGradient><linearGradient id="b" gradientUnits="userSpaceOnUse" x1="7" x2="14.0668" xlink:href="#a" y1="10.5" y2="7.93197"/><linearGradient id="c" gradientUnits="userSpaceOnUse" x1="6" x2="14.8005" xlink:href="#a" y1="10.233" y2="6.98391"/><linearGradient id="d" gradientUnits="userSpaceOnUse" x1="0" x2="12.7239" xlink:href="#a" y1="6.60758" y2="-3.01427"/><linearGradient id="e" gradientUnits="userSpaceOnUse" x1="2" x2="14.8223" xlink:href="#a" y1="15.3216" y2="5.72812"/><path d="m11 16c-2.243 0-4-1.721-4-3.918 0-1.832 2.168-4.951 4-7.082 1.832 2.131 4 5.25 4 7.082 0 2.197-1.757 3.918-4 3.918z" fill="url(#b)" opacity=".3"/><g clip-rule="evenodd" fill-rule="evenodd"><path d="m11 3.466.7583.88207c.9412 1.09481 1.9772 2.45255 2.7844 3.78761.4037.66759.7607 1.34672 1.0192 1.99712.2541.6392.4381 1.3119.4381 1.9492 0 2.7687-2.2243 4.918-5 4.918-2.77566 0-5-2.1493-5-4.918 0-.6373.18404-1.31.4381-1.9492.25854-.6504.61551-1.32953 1.01917-1.99712.80723-1.33506 1.84323-2.6928 2.78443-3.78761zm-2.70335 7.4056c-.20969.5275-.29665.9316-.29665 1.2104 0 1.6253 1.2897 2.918 3 2.918s3-1.2927 3-2.918c0-.2788-.087-.6829-.2966-1.2104-.2053-.5163-.5048-1.0936-.8721-1.7011-.5292-.87517-1.1773-1.77736-1.8313-2.60079-.654.82343-1.3021 1.72562-1.8313 2.60079-.36731.6075-.66684 1.1848-.87205 1.7011z" fill="url(#c)"/><path d="m2 11c0-4.97072 4.02928-9 9-9 2.1436 0 4.1117.74855 5.6577 2h-1.6577v2h5v-5h-2v1.51435c-1.9011-1.56996-4.3404-2.51435-7-2.51435-6.07528 0-11 4.92472-11 11 0 .7578.07689 1.4988.22324 2.2152l1.95952-.4004c-.11965-.5856-.18276-1.1926-.18276-1.8148z" fill="url(#d)"/><path d="m19.7931 9.0708c.1356.6196.2069 1.2649.2069 1.9292 0 4.9707-4.0293 9-9 9-2.14275 0-4.11088-.7486-5.65715-2h1.65715v-2h-5v5h2v-1.5148c1.90133 1.5701 4.34058 2.5148 7 2.5148 6.0753 0 11-4.9247 11-11 0-.8078-.0867-1.5965-.2531-2.35681z" fill="url(#e)"/></g></svg>