<svg fill="none" height="20" viewBox="0 0 16 20" width="16" xmlns="http://www.w3.org/2000/svg" xmlns:xlink="http://www.w3.org/1999/xlink"><linearGradient id="a"><stop offset="0" stop-color="#ffe7e0"/><stop offset=".34375" stop-color="#f8dbf4"/><stop offset=".6875" stop-color="#c4ddff"/><stop offset="1" stop-color="#cae9ff"/></linearGradient><linearGradient id="b" gradientUnits="userSpaceOnUse" x1="1" x2="13.163" xlink:href="#a" y1="10" y2="5.27311"/><linearGradient id="c" gradientUnits="userSpaceOnUse" x1="0" x2="13.7956" xlink:href="#a" y1="10" y2="4.48543"/><linearGradient id="d" gradientUnits="userSpaceOnUse" x1="4" x2="10.8978" xlink:href="#a" y1="10" y2="7.24271"/><path d="m2 1h12c.6 0 1 .4 1 1v16c0 .6-.4 1-1 1h-12c-.6 0-1-.4-1-1v-16c0-.6.4-1 1-1z" fill="url(#b)" opacity=".3"/><path d="m14 20h-12c-1.1 0-2-.9-2-2v-16c0-1.1.9-2 2-2h12c1.1 0 2 .9 2 2v16c0 1.1-.9 2-2 2zm-12-18v16h12v-16z" fill="url(#c)"/><path d="m8 5h4v2h-4zm-4 0h2v2h-2zm4 4h4v2h-4zm-4 0h2v2h-2zm4 4h4v2h-4zm-4 0h2v2h-2z" fill="url(#d)"/></svg>