<svg fill="none" height="40" viewBox="0 0 40 40" width="40" xmlns="http://www.w3.org/2000/svg" xmlns:xlink="http://www.w3.org/1999/xlink"><linearGradient id="a"><stop offset="0" stop-color="#ffe7e0"/><stop offset=".34375" stop-color="#f8dbf4"/><stop offset=".6875" stop-color="#c4ddff"/><stop offset="1" stop-color="#cae9ff"/></linearGradient><linearGradient id="b" gradientUnits="userSpaceOnUse" x1="4.828" x2="30.4169" xlink:href="#a" y1="19.586" y2="8.55521"/><linearGradient id="c" gradientUnits="userSpaceOnUse" x1=".000001" x2="32.0085" xlink:href="#a" y1="20" y2="4.00641"/><linearGradient id="d" gradientUnits="userSpaceOnUse" x1="14.324" x2="25.1368" xlink:href="#a" y1="15.9" y2="13.4854"/><path d="m4.828 22h1.172 2v-2-16c0-1.102.898-2 2-2h20c1.102 0 2 .898 2 2v16 2h2 1.172l-15.172 15.172z" fill="url(#b)" opacity=".3"/><path d="m30 4v16 4h.344l-10.344 10.344-10.344-10.344h.344v-4-16zm0-4h-20c-2.21 0-4 1.79-4 4v16h-6l20 20 20-20h-6v-16c0-2.21-1.79-4-4-4z" fill="url(#c)"/><path d="m25.65 20.572c0 4.656-3.824 5.284-4.5 5.368v2.66h-2.004v-2.66c-.624-.086-4.822-.546-4.822-6.33h3.78c0 3.416 1.762 3.274 2.03 3.274.294 0 1.736-.054 1.736-2.286 0-4.458-6.918-2.48-6.918-9.162 0-4.57999 3.796-5.29399 4.474-5.37999v-2.856h2.016v2.912c.642.122 4.234.942 4.234 6.19599h-3.78c0-2.74599-1.166-3.17799-1.656-3.17799-.268 0-1.51.07-1.51 2.32399.002 3.934 6.92 2.708 6.92 9.118z" fill="url(#d)"/></svg>