<svg fill="none" height="36" viewBox="0 0 36 36" width="36" xmlns="http://www.w3.org/2000/svg" xmlns:xlink="http://www.w3.org/1999/xlink"><linearGradient id="a"><stop offset="0" stop-color="#ffe7e0"/><stop offset=".34375" stop-color="#f8dbf4"/><stop offset=".6875" stop-color="#c4ddff"/><stop offset="1" stop-color="#cae9ff"/></linearGradient><linearGradient id="b" gradientUnits="userSpaceOnUse" x1="5.75" x2="24.036" xlink:href="#a" y1="23.25" y2="12.5903"/><linearGradient id="c" gradientUnits="userSpaceOnUse" x1="11" x2="23.9447" xlink:href="#a" y1="12.75" y2="9.054"/><linearGradient id="d" gradientUnits="userSpaceOnUse" x1="16.25" x2="19.6555" xlink:href="#a" y1="9.25" y2="8.6828"/><linearGradient id="e" gradientUnits="userSpaceOnUse" x1="4" x2="25.1146" xlink:href="#a" y1="23.25" y2="11.1926"/><linearGradient id="f" gradientUnits="userSpaceOnUse" x1=".5" x2="7.5075" xlink:href="#a" y1="29.375" y2="15.3694"/><path d="m28.5 33.75h-21c-1.05 0-1.75-.7-1.75-1.75v-14c0-2.975 2.275-5.25 5.25-5.25h14c2.975 0 5.25 2.275 5.25 5.25v14c0 1.05-.7 1.75-1.75 1.75z" fill="url(#b)" opacity=".3"/><path d="m18 .5c-.9283 0-1.8185.36875-2.4749 1.02513-.6564.65637-1.0251 1.54661-1.0251 2.47487s.3687 1.8185 1.0251 2.47487c.6564.65643 1.5466 1.02513 2.4749 1.02513s1.8185-.3687 2.4749-1.02513c.6564-.65637 1.0251-1.54661 1.0251-2.47487s-.3687-1.8185-1.0251-2.47487c-.6564-.65638-1.5466-1.02513-2.4749-1.02513zm-4.375 19.25c-.6962 0-1.3639.2766-1.8562.7688-.4922.4923-.7688 1.16-.7688 1.8562s.2766 1.3639.7688 1.8562c.4923.4922 1.16.7688 1.8562.7688s1.3639-.2766 1.8562-.7688c.4922-.4923.7688-1.16.7688-1.8562s-.2766-1.3639-.7688-1.8562c-.4923-.4922-1.16-.7688-1.8562-.7688zm8.75 0c-.6962 0-1.3639.2766-1.8562.7688-.4922.4923-.7688 1.16-.7688 1.8562s.2766 1.3639.7688 1.8562c.4923.4922 1.16.7688 1.8562.7688s1.3639-.2766 1.8562-.7688c.4922-.4923.7688-1.16.7688-1.8562s-.2766-1.3639-.7688-1.8562c-.4923-.4922-1.16-.7688-1.8562-.7688z" fill="url(#c)"/><path d="m16.25 4h3.5v10.5h-3.5z" fill="url(#d)"/><path d="m28.5 35.5h-21c-1.925 0-3.5-1.575-3.5-3.5v-14c0-3.85 3.15-7 7-7h14c3.85 0 7 3.15 7 7v14c0 1.925-1.575 3.5-3.5 3.5zm0-3.5v1.75zm-17.5-17.5c-1.925 0-3.5 1.575-3.5 3.5v14h21v-14c0-1.925-1.575-3.5-3.5-3.5z" fill="url(#e)"/><path d="m12.75 28.5h10.5v5.25h-10.5zm-12.25-3.5h5.25v3.5h-5.25zm29.75 0h5.25v3.5h-5.25z" fill="url(#f)"/></svg>