<svg fill="none" height="140" viewBox="0 0 129 140" width="129" xmlns="http://www.w3.org/2000/svg" xmlns:xlink="http://www.w3.org/1999/xlink"><linearGradient id="a"><stop offset="0" stop-color="#ffe7e0"/><stop offset=".34375" stop-color="#f8dbf4"/><stop offset=".6875" stop-color="#c4ddff"/><stop offset="1" stop-color="#cae9ff"/></linearGradient><linearGradient id="b" gradientUnits="userSpaceOnUse" x1=".000004" x2="105.945" xlink:href="#a" y1="70" y2="21.5682"/><linearGradient id="c" gradientUnits="userSpaceOnUse" x1="44" x2="76.9345" xlink:href="#a" y1="70" y2="52.7209"/><g clip-rule="evenodd" fill-rule="evenodd"><g fill="url(#b)"><path d="m54.8936 9.13043c0-5.00655 4.1323-9.13043 9.149-9.13043s9.1489 4.12388 9.1489 9.13043c0 3.93567-2.5698 7.28957-6.0993 8.55977v12.7446c.0057.4033-.0689.8037-.2196 1.1779-.1507.3743-.3745.7149-.6582 1.0021-.1451.1468-.3043.2782-.4751.3923-.2459-.0047-.4923-.0071-.7393-.0071-.8513 0-1.6958.0284-2.5327.0842-.2172-.1308-.4177-.2883-.5966-.4694-.2837-.2872-.5075-.6278-.6581-1.0021-.1507-.3742-.2254-.7746-.2197-1.1779v-12.7446c-3.5294-1.2702-6.0993-4.6241-6.0993-8.55977zm12.1986 0c0-1.71691-1.3292-3.04347-3.0496-3.04347s-3.0497 1.32656-3.0497 3.04347c0 1.65307 1.2438 2.91407 2.871 3.00777.0436-.0029.0873-.0049.131-.0059.0735-.0007.147.0013.2204.0059 1.6302-.0908 2.8769-1.3526 2.8769-3.00777z"/><path d="m34.8309 48.3643-16.7296-9.9701c.1286-.6052.1966-1.2315.1966-1.8725 0-5.0065-4.1323-9.1304-9.14896-9.1304-5.0167 0-9.14894 4.1239-9.14894 9.1304 0 5.0066 4.13224 9.1305 9.14894 9.1305 2.17226 0 4.15306-.8032 5.72996-2.0865l16.812 10.0237c.9011-1.8325 1.9531-3.5794 3.14-5.2251zm-22.6323-11.8426c0-1.7169-1.3293-3.0434-3.04966-3.0434-1.7204 0-3.04965 1.3265-3.04965 3.0434 0 1.717 1.32925 3.0435 3.04965 3.0435 1.72036 0 3.04966-1.3265 3.04966-3.0435z"/><path d="m61.0705 105.797c-.0545.235-.081.479-.0776.725v15.788c-3.5294 1.27-6.0993 4.624-6.0993 8.56 0 5.006 4.1323 9.13 9.149 9.13s9.1489-4.124 9.1489-9.13c0-3.936-2.5698-7.29-6.0993-8.56v-15.788c.0027-.194-.0132-.387-.0472-.577-.677.037-1.3588.055-2.045.055-1.3273 0-2.6383-.069-3.9295-.203zm3.1508 22.065c-.1171.006-.2344.006-.3515 0-1.6302.091-2.8769 1.352-2.8769 3.008 0 1.716 1.3293 3.043 3.0497 3.043s3.0496-1.327 3.0496-3.043c0-1.654-1.2438-2.915-2.8709-3.008z"/><path d="m94.6434 91.3464c.0274.0878.0589.1746.0944.26.2522.6069.6944 1.1161 1.2605 1.4515l13.9917 8.5301c-.131.611-.203 1.243-.203 1.89 0 5.007 4.132 9.131 9.149 9.131s9.149-4.124 9.149-9.131c0-5.0063-4.132-9.1302-9.149-9.1302-2.164 0-4.138.7994-5.712 2.0746l-14.045-8.5598c-.5198-.3257-1.126-.4873-1.7392-.4637-.0651.0025-.1298.007-.1943.0136-.7829 1.3686-1.6527 2.6823-2.6021 3.9339zm27.3426 12.1316c0-1.717-1.329-3.043-3.05-3.043-1.72 0-3.049 1.326-3.049 3.043s1.329 3.044 3.049 3.044c1.721 0 3.05-1.327 3.05-3.044z"/><path d="m97.8634 52.7134 15.3426-9.1477c1.577 1.2833 3.558 2.0865 5.73 2.0865 5.017 0 9.149-4.1239 9.149-9.1305 0-5.0065-4.132-9.1304-9.149-9.1304s-9.149 4.1239-9.149 9.1304c0 .641.068 1.2673.197 1.8725l-15.4019 9.1788c1.2318 1.6146 2.3309 3.3334 3.2813 5.1404zm24.1226-16.1917c0-1.7169-1.329-3.0434-3.05-3.0434-1.72 0-3.049 1.3265-3.049 3.0434 0 1.717 1.329 3.0435 3.049 3.0435 1.721 0 3.05-1.3265 3.05-3.0435z"/><path d="m28.9061 87.8626c.4919-.3098 1.0623-.4727 1.644-.4696.6672.0043 1.3145.2268 1.8429.6334.5283.4066.9085.9749 1.0822 1.6178s.1314 1.3249-.1204 1.9415c-.2519.6166-.6994 1.1337-1.274 1.4722l-13.9854 8.5301c.1312.611.2025 1.243.2025 1.89 0 5.007-4.1323 9.131-9.14896 9.131-5.0167 0-9.14894-4.124-9.14894-9.131 0-5.0063 4.13224-9.1302 9.14894-9.1302 2.16466 0 4.13776.7994 5.71216 2.0746zm-16.7075 15.6154c0-1.717-1.3293-3.043-3.04966-3.043-1.7204 0-3.04965 1.326-3.04965 3.043s1.32925 3.044 3.04965 3.044c1.72036 0 3.04966-1.327 3.04966-3.044z"/></g><path d="m74.5891 52.9846c2.3193-.4352 10.9947-2.0632 11.3808.7114.3962 2.8416-3.179 6.7603-6.9195 8.5214-.1972.0929-.3722.2208-.5476.3489-.1456.1063-.2915.2129-.4504.2996-.5887.3221-.9397 1.126-.8533 1.851v10.1526c-2.9495-2.0858-7.2851-3.3837-12.199-3.3837-4.9138 0-9.2493 1.2979-12.1988 3.3836v-10.1525c.0863-.725-.2649-1.5289-.8537-1.851-.1584-.0866-.304-.193-.4495-.2992-.1756-.1282-.351-.2563-.5484-.3493-3.7405-1.7612-7.3153-5.6798-6.9196-8.5214.3865-2.7749 9.0637-1.1463 11.3817-.7113.1845.0347.3287.0617.4252.0784.0673.0116.1299-.0461.1165-.1132-.1336-.6712-.2299-2.4862 1.0491-2.8791.8177-.2515 1.3567.2124 1.6766.6804.1433.21.5719 1.1176.8382 1.7476.1437.3403.4782.8375.8454.8285 1.5413-.4823 3.0895-.7235 4.6373-.7235 1.548 0 3.0961.2412 4.6372.7235.3674.009.7018-.4882.8454-.8285.2663-.63.6951-1.5376.8382-1.7476.32-.468.8593-.9319 1.6768-.6804 1.2788.3929 1.1824 2.2079 1.0491 2.8791-.0136.0671.049.1248.1163.1132.0967-.0167.2411-.0438.426-.0785zm-11.4309 11.2402c.0426-.2571-.3682-.9088-1.6515-1.7935-.9006-.6135-1.8984-1.0846-2.9419-1.3945-.245-.0729-.5002-.1202-.7556-.1109-.4661.0174-.9127.1774-1.3043.4607-.5227.3649-.8848.852-.994 1.4822-.1119.6295.0629 1.212.4297 1.735.2716.4005.6369.7045 1.0689.8811.2368.0971.4927.1398.748.1559 1.0859.0674 2.1836-.032 3.2387-.2988 1.5068-.3904 2.1145-.8614 2.162-1.1172zm9.8326 1.2601c.432-.1766.7973-.4806 1.0688-.8811.3669-.523.5416-1.1052.4297-1.7347-.109-.6302-.4713-1.1176-.9939-1.4826-.3914-.2832-.8382-.4432-1.3043-.4606-.2554-.0093-.5106.038-.7556.1109-1.0436.3098-2.0413.781-2.942 1.3945-1.2832.8847-1.694 1.5362-1.6517 1.7932.0476.2559.6553.7271 2.1623 1.1175 1.0548.2668 2.1528.3662 3.2387.2988.2552-.0161.5112-.0588.748-.1559z" fill="url(#c)"/><path d="m50.4673 81.5874c0-4.6462 6.5064-8.4126 14.5328-8.4126 8.0263 0 14.5331 3.7665 14.5331 8.4126 0 4.6462-6.5066 8.4126-14.5331 8.4126-8.0264 0-14.5328-3.7663-14.5328-8.4126zm5.0306-.5236c.2221 1.3834 1.38 1.9934 2.6237 1.3834 1.213-.574 2.0125-1.7728 2.0807-3.1185-.0054-.7132-.3809-.4394-.8446-.1013-.6201.4521-1.3979 1.0192-1.6593-.5045-.457-2.6635-2.4439.8589-2.2005 2.3409zm16.3806 1.3834c1.2433.61 2.4013 0 2.6236-1.3834.2431-1.482-1.7434-5.0044-2.2005-2.3409-.2616 1.5238-1.0395.9566-1.6594.5044-.4636-.3381-.839-.6118-.8442.1014.0676 1.3457.8673 2.5445 2.0805 3.1185z" fill="url(#c)"/></g></svg>