<svg fill="none" height="54" viewBox="0 0 53 54" width="53" xmlns="http://www.w3.org/2000/svg" xmlns:xlink="http://www.w3.org/1999/xlink"><linearGradient id="a" gradientUnits="userSpaceOnUse" x1=".369814" x2="41.8195" y1="27.0093" y2="6.45201"><stop offset="0" stop-color="#ffe7e0"/><stop offset=".34375" stop-color="#f8dbf4"/><stop offset=".6875" stop-color="#c4ddff"/><stop offset="1" stop-color="#cae9ff"/></linearGradient><path d="m22 43h-9.585l-4.41497-4.415v-3.585c0-.2653-.10536-.5196-.2929-.7071-.18753-.1876-.44189-.2929-.7071-.2929-.26522 0-.51957.1053-.70711.2929-.18754.1875-.29289.4418-.29289.7071v4c.00111.2648.1072.5183.295.705l4.99997 5c.1867.1878.4402.2938.705.295h10c.2652 0 .5196-.1054.7071-.2929.1876-.1876.2929-.4419.2929-.7071 0-.2653-.1053-.5196-.2929-.7071-.1875-.1876-.4419-.2929-.7071-.2929zm2.5-32h11.085l4.415 4.415v3.585c0 .2652.1054.5195.2929.7071.1876.1875.4419.2929.7071.2929s.5196-.1054.7071-.2929c.1876-.1876.2929-.4419.2929-.7071v-4c-.0011-.2648-.1072-.5184-.295-.705l-5-5.00004c-.1866-.18779-.4402-.29388-.705-.295h-11.5c-.2652 0-.5195.10536-.7071.2929-.1875.18753-.2929.44189-.2929.7071 0 .26524.1054.51954.2929.70714.1876.1875.4419.2929.7071.2929zm2.025 18c.1497-.0864.2745-.2101.3621-.3591s.1351-.3181.1379-.4909c0-6.16-1.57-7-6.115-8.5-.59-.19-1.245-.41-1.955-.66-.2657-.5869-.3643-1.2357-.285-1.875.4664-.5416.8336-1.1611 1.085-1.83.276-1.2259.4151-2.4785.415-3.735.04-.8.085-1.71004.16-2.63504.0234-.31.0484-.595.075-.855.21-2.56.295-3.56-1.725-5.56-2.02-1.999998-7.64-1.999998-9.92497-.05-2 1.715-1.915 3-1.755 5.295 0 .345.05.72.07 1.135.03.54.05 1.085.07 1.61504.07 1.86.135 3.61.5 4.79.2468.6783.61629 1.3054 1.09 1.85.08531.6229.04794 1.2564-.11 1.865-.72.255-1.39.475-2 .67-4.445 1.445-6.250004 2.28-6.250004 8.455-.003626.1751.038804.3481.123042.5016.084238.1536.207331.2823.356958.3734.205004.125 5.025004 3.05 12.854974 3.05 7.83 0 12.62-2.935 12.82-3.05zm-16.96497-14.32c-.295-.925-.355-2.545-.42-4.265 0-.38-.035-.76504-.05-1.15004.60252-.28789 1.15467-.67115 1.63497-1.135 2.3998.93242 4.9684 1.35143 7.54 1.23-.05.74004-.09 1.44504-.12 2.08504-.0036 1.0863-.1124 2.1697-.325 3.235-.3382.7269-.8194 1.3782-1.415 1.915-.165.15-.32.3-.47.445-.86.825-1.32 1.22-2.245 1.22s-1.385-.395-2.25-1.22c-.15-.145-.305-.295-.47-.445-.601-.5307-1.08169-1.1836-1.40997-1.915zm.49997-10.71504c.74-.64 2.275-.965 3.76-.965s2.84.3 3.445.905c1.25 1.25 1.335 1.525 1.17 3.425-3.71.395-7.5-1.275-7.545-1.295-.198-.08951-.4198-.11207-.6318-.06425-.2121.04781-.40272.1634-.54317.32925-.22949.25796-.48408.49245-.76.7-.1-1.66-.015-2.08 1.10497-3.035zm-2.80997 17.62004c.735-.24 1.57-.5 2.5-.85.24451-.0877.44537-.267.55997-.5.1657-.3776.2849-.7738.355-1.18.8101.7858 1.8964 1.2222 3.025 1.215.5802.0002 1.1546-.1146 1.6902-.3377.5355-.2232 1.0215-.5502 1.4298-.9623.1261.4958.3303.9684.605 1.4.1202.1772.2962.3092.5.375.875.32 1.665.58 2.36.81 3.77 1.245 4.675 1.54 4.74 6-3.5216 1.6885-7.3847 2.5439-11.29 2.5-3.9152.0468-7.78862-.8087-11.31997-2.5.055-4.41 1.095-4.74 4.845-5.97zm38.63497 19.06c-.59-.19-1.245-.41-1.955-.66-.2657-.5869-.3643-1.2357-.285-1.875.4664-.5416.8336-1.1611 1.085-1.83.276-1.2259.4152-2.4785.415-3.735.04-.8.085-1.71.16-2.635.0267-.31.0517-.595.075-.855.235-2.575.32-3.535-1.7-5.56s-7.64-2-9.925-.05c-2 1.715-1.915 3-1.755 5.295 0 .345.05.72.07 1.135.03.54.05 1.085.07 1.615.07 1.86.135 3.61.5 4.79.2468.6783.6163 1.3054 1.09 1.85.086.6245.0486 1.2598-.11 1.87-.72.255-1.39.5-2 .67-4.445 1.445-6.25 2.28-6.25 8.455-.0003.1699.0427.3371.1249.4859.0822.1487.201.274.3451.3641.205.125 5 3.05 12.855 3.05s12.62-2.925 12.82-3.05c.1497-.0864.2745-.2101.3621-.3591s.1351-.3181.1379-.4909c-.015-6.125-1.585-6.98-6.13-8.48zm-11.325-4.965c-.295-.925-.355-2.545-.42-4.265 0-.38-.035-.765-.05-1.15.6025-.2879 1.1546-.6712 1.635-1.135 2.4004.9301 4.9685 1.349 7.54 1.23-.05.74-.09 1.445-.12 2.085-.0036 1.0863-.1124 2.1697-.325 3.235-.3382.7269-.8194 1.3782-1.415 1.915-.165.15-.32.3-.47.445-.86.825-1.32 1.22-2.245 1.22s-1.385-.395-2.25-1.22c-.15-.145-.305-.295-.47-.445-.601-.5307-1.0817-1.1836-1.41-1.915zm.5-10.715c.74-.64 2.275-.965 3.76-.965s2.84.3 3.445.905c1.25 1.25 1.335 1.5 1.17 3.425-3.71.395-7.5-1.28-7.545-1.295-.198-.0896-.4198-.1121-.6318-.0643-.2121.0478-.4027.1634-.5432.3293-.2295.2579-.484.4924-.76.7-.1-1.66-.015-2.08 1.105-3.035zm3.645 26.075c-3.9152.0468-7.7886-.8087-11.32-2.5.075-4.405 1.09-4.735 4.865-5.965.735-.24 1.57-.5 2.5-.85.2445-.0877.4454-.267.56-.5.1657-.3776.2849-.7738.355-1.18.8039.7798 1.8801 1.2156 3 1.215.5802.0002 1.1546-.1146 1.6902-.3377.5355-.2232 1.0215-.5502 1.4298-.9623.1261.4958.3303.9684.605 1.4.1202.1772.2962.3092.5.375.875.32 1.665.58 2.36.81 3.77 1.245 4.675 1.54 4.74 6-3.5205 1.6861-7.3817 2.5397-11.285 2.495z" fill="url(#a)"/></svg>