<svg fill="none" height="44" viewBox="0 0 42 44" width="42" xmlns="http://www.w3.org/2000/svg" xmlns:xlink="http://www.w3.org/1999/xlink"><linearGradient id="a"><stop offset="0" stop-color="#ffe7e0"/><stop offset=".34375" stop-color="#f8dbf4"/><stop offset=".6875" stop-color="#c4ddff"/><stop offset="1" stop-color="#cae9ff"/></linearGradient><linearGradient id="b" gradientUnits="userSpaceOnUse" x1="30.25" x2="37.8362" xlink:href="#a" y1="14" y2="8.55106"/><linearGradient id="c" gradientUnits="userSpaceOnUse" x1="11.782" x2="25.7866" xlink:href="#a" y1="7.00001" y2="-6.64333"/><linearGradient id="d" gradientUnits="userSpaceOnUse" x1=".464001" x2="7.81525" xlink:href="#a" y1="9.55103" y2="5.85055"/><linearGradient id="e" gradientUnits="userSpaceOnUse" x1=".004303" x2="10.0359" xlink:href="#a" y1="21.355" y2="19.6142"/><linearGradient id="f" gradientUnits="userSpaceOnUse" x1="12.482" x2="19.3786" xlink:href="#a" y1="37.856" y2="35.6691"/><linearGradient id="g" gradientUnits="userSpaceOnUse" x1="15.656" x2="32.3382" xlink:href="#a" y1="30.9968" y2="19.7668"/><path d="m30.25 14 8.25 4 3.25-8z" fill="url(#b)"/><path d="m20 4.00002c6.7 0 12.442 4.144 14.822 9.99998h4.256c-2.554-8.10598-10.14-13.99997931-19.078-13.99997931-2.77-.004-5.57.57200031-8.218 1.76799931l2.018 3.496c2.008-.846 4.114-1.268 6.2-1.264z" fill="url(#c)"/><path d="m9.678 14.124-.66-9.14597-8.553999 1.186z" fill="url(#d)"/><path d="m6.144 28c-3.35-5.802-2.632-12.848 1.25-17.836l-2.13-3.68597c-5.742001 6.26597-7.054 15.78197-2.584 23.52197 1.382 2.402 3.28 4.538 5.64 6.232l2.018-3.496c-1.736-1.314-3.154-2.928-4.194-4.736z" fill="url(#e)"/><path d="m20.072 31.876-7.59 5.146 5.304 6.814z" fill="url(#f)"/><path d="m33.856 28c-3.35 5.802-9.81 8.704-16.072 7.836l-2.128 3.686c8.296 1.84 17.194-1.78 21.664-9.522 1.39-2.398 2.29-5.11 2.578-8h-4.038c-.27 2.16-.958 4.196-2.004 6z" fill="url(#g)"/></svg>