<svg fill="none" height="105" viewBox="0 0 105 105" width="105" xmlns="http://www.w3.org/2000/svg"><g fill="#ed6834"><path d="m70 74.375h-21.875c-9.625 0-17.5-7.875-17.5-17.5v-17.5c0-9.625 7.875-17.5 17.5-17.5h21.875v8.75h-21.875c-4.8125 0-8.75 3.9375-8.75 8.75v17.5c0 4.8125 3.9375 8.75 8.75 8.75h21.875z"/><path d="m70 70h-21.875c-7.4375 0-13.125-5.6875-13.125-13.125v-17.5c0-7.4375 5.6875-13.125 13.125-13.125h21.875" opacity=".3"/><path d="m65.625 13.125h8.75v70h-8.75zm-43.75 78.75h-8.75v-35c0-7.4375 5.6875-13.125 13.125-13.125h8.75v8.75h-8.75c-2.625 0-4.375 1.75-4.375 4.375z"/><path d="m70 30.625h21.875v8.75h-21.875zm0 26.25h21.875v8.75h-21.875z"/></g></svg>