<svg fill="none" height="42" viewBox="0 0 42 42" width="42" xmlns="http://www.w3.org/2000/svg"><g fill="#ED6834"><path d="m35 19.25h-1.75v-8.75c0-1.05-.7-1.75-1.75-1.75h-8.75v-1.75c0-1.925-1.575-3.5-3.5-3.5s-3.5 1.575-3.5 3.5v1.75h-8.75c-1.05 0-1.75.7-1.75 1.75v8.75h1.75c1.925 0 3.5 1.575 3.5 3.5s-1.575 3.5-3.5 3.5h-1.75v8.75c0 1.05.7 1.75 1.75 1.75h8.75v-1.75c0-1.925 1.575-3.5 3.5-3.5s3.5 1.575 3.5 3.5v1.75h8.75c1.05 0 1.75-.7 1.75-1.75v-8.75h1.75c1.925 0 3.5-1.575 3.5-3.5s-1.575-3.5-3.5-3.5z" opacity=".2"/><path d="m31.5 38.5h-10.5v-3.5c0-1.05-.7-1.75-1.75-1.75s-1.75.7-1.75 1.75v3.5h-10.5c-1.925 0-3.5-1.575-3.5-3.5v-10.5h3.5c1.05 0 1.75-.7 1.75-1.75s-.7-1.75-1.75-1.75h-3.5v-10.5c0-1.925 1.575-3.5 3.5-3.5h7c0-2.975 2.275-5.25 5.25-5.25s5.25 2.275 5.25 5.25h7c1.925 0 3.5 1.575 3.5 3.5v7c2.975 0 5.25 2.275 5.25 5.25s-2.275 5.25-5.25 5.25v7c0 1.925-1.575 3.5-3.5 3.5zm-7-3.5h7v-10.5h3.5c1.05 0 1.75-.7 1.75-1.75s-.7-1.75-1.75-1.75h-3.5v-10.5h-10.5v-3.5c0-1.05-.7-1.75-1.75-1.75s-1.75.7-1.75 1.75v3.5h-10.5v7c2.975 0 5.25 2.275 5.25 5.25s-2.275 5.25-5.25 5.25v7h7c0-2.975 2.275-5.25 5.25-5.25s5.25 2.275 5.25 5.25z"/></g></svg>