<svg fill="none" height="42" viewBox="0 0 42 42" width="42" xmlns="http://www.w3.org/2000/svg"><g fill="#ED6834"><path d="m8.75 26.25c-2.975 0-5.25-2.275-5.25-5.25s2.275-5.25 5.25-5.25 5.25 2.275 5.25 5.25-2.275 5.25-5.25 5.25zm0-7c-1.05 0-1.75.7-1.75 1.75s.7 1.75 1.75 1.75 1.75-.7 1.75-1.75-.7-1.75-1.75-1.75zm24.5 17.5c-2.975 0-5.25-2.275-5.25-5.25s2.275-5.25 5.25-5.25 5.25 2.275 5.25 5.25-2.275 5.25-5.25 5.25zm0-7c-1.05 0-1.75.7-1.75 1.75s.7 1.75 1.75 1.75 1.75-.7 1.75-1.75-.7-1.75-1.75-1.75zm0-14c-2.975 0-5.25-2.275-5.25-5.25s2.275-5.25 5.25-5.25 5.25 2.275 5.25 5.25-2.275 5.25-5.25 5.25zm0-7c-1.05 0-1.75.7-1.75 1.75s.7 1.75 1.75 1.75 1.75-.7 1.75-1.75-.7-1.75-1.75-1.75z"/><path d="m8.75 17.5c-.92826 0-1.8185.3687-2.47487 1.0251-.65638.6564-1.02513 1.5466-1.02513 2.4749s.36875 1.8185 1.02513 2.4749c.65637.6563 1.54661 1.0251 2.47487 1.0251s1.8185-.3688 2.4749-1.0251c.6564-.6564 1.0251-1.5466 1.0251-2.4749s-.3687-1.8185-1.0251-2.4749-1.54664-1.0251-2.4749-1.0251zm24.5 10.5c-.9283 0-1.8185.3687-2.4749 1.0251s-1.0251 1.5466-1.0251 2.4749.3687 1.8185 1.0251 2.4749c.6564.6563 1.5466 1.0251 2.4749 1.0251s1.8185-.3688 2.4749-1.0251c.6564-.6564 1.0251-1.5466 1.0251-2.4749s-.3687-1.8185-1.0251-2.4749-1.5466-1.0251-2.4749-1.0251zm0-21c-.9283 0-1.8185.36875-2.4749 1.02513-.6564.65637-1.0251 1.54661-1.0251 2.47487 0 .9283.3687 1.8185 1.0251 2.4749.6564.6563 1.5466 1.0251 2.4749 1.0251s1.8185-.3688 2.4749-1.0251c.6564-.6564 1.0251-1.5466 1.0251-2.4749 0-.92826-.3687-1.8185-1.0251-2.47487-.6564-.65638-1.5466-1.02513-2.4749-1.02513z" opacity=".2"/><path d="m23.45 22.75h-11.2v-3.5h9.8l8.225-7.875 2.45 2.45z"/><path d="m21.4957 22.22 2.424-2.5248 8.7104 8.3627-2.4239 2.5247z"/></g></svg>