<svg fill="none" viewBox="0 0 84 81" xmlns="http://www.w3.org/2000/svg" xmlns:xlink="http://www.w3.org/1999/xlink"><linearGradient id="a" gradientUnits="userSpaceOnUse" x1="0" x2="66.157" y1="40.409" y2="6.051"><stop offset="0" stop-color="#ffe7e0"/><stop offset=".109" stop-color="#f8dbf4"/><stop offset=".526" stop-color="#c4ddff"/><stop offset="1" stop-color="#cae9ff"/></linearGradient><g fill="url(#a)"><path d="M79.077 40.385H69.97c-2.72 0-4.924 2.12-4.924 4.738V57.84c0 2.618-2.205 4.738-4.925 4.738H23.884c-2.72 0-4.925 2.121-4.925 4.738v8.763c0 2.617 2.204 4.738 4.925 4.738h38.333c2.72 0 4.894-2.12 4.894-4.738v-7.03c0-2.618 2.204-4.474 4.924-4.474h7.04c2.72 0 4.925-2.12 4.925-4.738v-14.77c0-2.617-2.202-4.683-4.923-4.683z"/><path d="M18.957 22.977c0-2.618 2.205-4.738 4.925-4.738h36.214c2.72 0 4.924-2.121 4.924-4.738V4.738C65.02 2.12 62.816 0 60.096 0H21.783c-2.72 0-4.925 2.12-4.925 4.738v6.752c0 2.617-2.204 4.738-4.924 4.738h-7.01c-2.72 0-4.924 2.12-4.924 4.738v14.786c0 2.617 2.213 4.631 4.934 4.631h9.108c2.72 0 4.924-2.12 4.924-4.738z"/><path d="M37.714 31.173h8.749c2.851 0 5.164 2.228 5.164 4.969v8.417c0 2.743-2.315 4.968-5.164 4.968h-8.75c-2.85 0-5.163-2.227-5.163-4.968v-8.417c0-2.743 2.315-4.969 5.164-4.969z"/></g></svg>