<svg fill="none" height="32" viewBox="0 0 39 32" width="39" xmlns="http://www.w3.org/2000/svg" xmlns:xlink="http://www.w3.org/1999/xlink"><linearGradient id="a"><stop offset="0" stop-color="#ffe7e0"/><stop offset=".34375" stop-color="#f8dbf4"/><stop offset=".6875" stop-color="#c4ddff"/><stop offset="1" stop-color="#cae9ff"/></linearGradient><linearGradient id="b" gradientUnits="userSpaceOnUse" x1=".75" x2="28.493" xlink:href="#a" y1="16" y2="-.557671"/><linearGradient id="c" gradientUnits="userSpaceOnUse" x1="32.2182" x2="34.5946" xlink:href="#a" y1="3.76014" y2=".087999"/><linearGradient id="d" gradientUnits="userSpaceOnUse" x1="34.3217" x2="34.3852" xlink:href="#a" y1="11.5352" y2="8.19491"/><linearGradient id="e" gradientUnits="userSpaceOnUse" x1="8.07166" x2="8.1352" xlink:href="#a" y1="4.53519" y2="1.19491"/><linearGradient id="f" gradientUnits="userSpaceOnUse" x1="5.96883" x2="8.34524" xlink:href="#a" y1="10.7606" y2="7.08841"/><linearGradient id="g" gradientUnits="userSpaceOnUse" x1="2.5" x2="22.6234" xlink:href="#a" y1="15.125" y2="5.7403"/><path d="m36.275 20.025-12.6 6.3-1.05-.35.875-2.275c.875-1.75 0-3.85-1.75-4.725l-10.325-4.55c-.525 0-1.225-.175-1.925-.175-.525 0-1.05.175-1.4.175l-7.35 1.75v12.6l7-2.275 14.35 5.075c.525.175.875.175 1.4.175.7 0 1.4-.175 2.1-.525l12.775-6.825zm-15.925 2.275-.875 2.275-.875 1.925-9.625-3.325-1.225-.35-1.05.35-2.45.7v-5.075l4.55-1.05h.175.175.35c.175 0 .35 0 .525.175zm1.4-22.05c-3.85 0-7 3.15-7 7s3.15 7 7 7 7-3.15 7-7-3.15-7-7-7zm0 10.5c-1.925 0-3.5-1.575-3.5-3.5s1.575-3.5 3.5-3.5 3.5 1.575 3.5 3.5-1.575 3.5-3.5 3.5z" fill="url(#b)"/><path d="m31.6643 2.10009 5.3122-1.77227 1.1077 3.3201-5.3122 1.77227z" fill="url(#c)"/><path d="m31.6653 10.6498 1.1067-3.32039 5.3127 1.7707-1.1067 3.32039z" fill="url(#d)"/><path d="m5.41531 3.64984 1.10669-3.320433 5.3127 1.770703-1.1067 3.32039z" fill="url(#e)"/><path d="m5.41499 9.10051 5.31221-1.7722 1.1076 3.32009-5.31214 1.7722z" fill="url(#f)"/><path d="m21.75 2c-.6894 0-1.3721.1358-2.0091.39963-.6369.26384-1.2157.65055-1.7032 1.13806s-.8742 1.06626-1.1381 1.70321c-.2638.637-.3996 1.3197-.3996 2.0091s.1358 1.3721.3996 2.0091c.2639.6369.6506 1.2157 1.1381 1.7032s1.0663.8742 1.7032 1.1381c.637.2638 1.3197.3996 2.0091.3996s1.3721-.1358 2.0091-.3996c.6369-.2639 1.2157-.6506 1.7032-1.1381s.8742-1.0663 1.1381-1.7032c.2638-.637.3996-1.3197.3996-2.0091s-.1358-1.3721-.3996-2.0091c-.2639-.63695-.6506-1.2157-1.1381-1.70321s-1.0663-.87422-1.7032-1.13806c-.637-.26383-1.3197-.39963-2.0091-.39963zm-19.25 15.75 7-1.75 12.25 5.25-3.5 7-10.5-3.5-5.25 1.75z" fill="url(#g)" opacity=".3"/></svg>