<svg viewBox="0 0 84 84" fill="none" xmlns="http://www.w3.org/2000/svg"><path fill-rule="evenodd" clip-rule="evenodd" d="m75.193 7.023-3.718 22.308-13.22-15.56 16.938-6.748Zm-3.718 31.81 3.305 12.256-25.337 7.023 22.032-19.28Zm-55.082-6.06L30.026 15.01h23.548l15.01 17.764h-52.19Zm50.538 4.27L42.42 58.525 17.357 37.043h49.574ZM25.482 13.77 13.364 29.607 9.646 7.023l15.836 6.748Zm9.64 44.341L9.507 51.09l3.443-11.98L35.12 58.11Zm4.681 5.784-4.82 5.233c-4.13-3.856-8.537-7.298-13.357-10.328l18.177 5.095Zm23.41-5.095c-4.82 3.03-9.226 6.472-13.357 10.328l-4.958-5.37L63.213 58.8ZM80.702 0 54.125 10.603H29.338L4 0l5.784 34.84-5.509 18.865 14.46 8.675c6.885 4.131 12.944 9.227 18.176 15.148L42.557 84l5.922-6.748c5.095-5.783 11.016-10.74 17.488-14.872l14.046-8.813-5.095-18.728L80.702 0Z" fill="url(#a)"/><defs><linearGradient id="a" x1="4" y1="42" x2="67.486" y2="13.034" gradientUnits="userSpaceOnUse"><stop stop-color="#FFE7E0"/><stop offset=".109" stop-color="#F8DBF4"/><stop offset=".526" stop-color="#C4DDFF"/><stop offset="1" stop-color="#CAE9FF"/></linearGradient></defs></svg>