<svg fill="none" height="40" viewBox="0 0 32 40" width="32" xmlns="http://www.w3.org/2000/svg" xmlns:xlink="http://www.w3.org/1999/xlink"><linearGradient id="a"><stop offset="0" stop-color="#ffe7e0"/><stop offset=".34375" stop-color="#f8dbf4"/><stop offset=".6875" stop-color="#c4ddff"/><stop offset="1" stop-color="#cae9ff"/></linearGradient><linearGradient id="b" gradientUnits="userSpaceOnUse" x1=".25" x2="27.2392" xlink:href="#a" y1="20" y2="8.96632"/><linearGradient id="c" gradientUnits="userSpaceOnUse" x1="2" x2="26.1424" xlink:href="#a" y1="20" y2="10.3495"/><path d="m16 .75-15.75 7v10.5c0 13.7025 11.2682 20.1005 15.75 21 4.4818-.8995 15.75-7.2975 15.75-21v-10.5zm12.25 17.5c0 10.7345-8.3738 16.1945-12.25 17.3898-3.8762-1.1953-12.25-6.6553-12.25-17.3898v-8.225l12.25-5.44425 12.25 5.44425z" fill="url(#b)"/><path d="m30 18.25c0 10.7345-9.569 18.0547-14 19.25-4.431-1.1953-14-8.5155-14-19.25v-8.225l14-7.525 14 7.525z" fill="url(#c)" opacity=".3"/></svg>