<svg fill="none" height="22" viewBox="0 0 18 22" width="18" xmlns="http://www.w3.org/2000/svg" xmlns:xlink="http://www.w3.org/1999/xlink"><linearGradient id="a"><stop offset="0" stop-color="#ffe7e0"/><stop offset=".34375" stop-color="#f8dbf4"/><stop offset=".6875" stop-color="#c4ddff"/><stop offset="1" stop-color="#cae9ff"/></linearGradient><linearGradient id="b" gradientUnits="userSpaceOnUse" x1=".000001" x2="15.4224" xlink:href="#a" y1="11" y2="4.69504"/><linearGradient id="c" gradientUnits="userSpaceOnUse" x1="3.815" x2="11.7475" xlink:href="#a" y1="11.1039" y2="5.86617"/><linearGradient id="d" gradientUnits="userSpaceOnUse" x1="1" x2="14.7956" xlink:href="#a" y1="11" y2="5.48543"/><path d="m9 0-9 4v6c0 7.83 6.439 11.486 9 12 2.561-.514 9-4.17 9-12 0-2 0-6 0-6zm7 10c0 6.134-4.785 9.254-7 9.937-2.215-.683-7-3.803-7-9.937v-4.7l7-3.111 7 3.111z" fill="url(#b)"/><path d="m8 15.4139-4.185-4.185 1.414-1.41396 2.771 2.77096 5.792-5.79195 1.414 1.414z" fill="url(#c)"/><path d="m17 10c0 6.134-5.468 10.317-8 11-2.532-.683-8-4.866-8-11v-4.7l8-4.3 8 4.3z" fill="url(#d)" opacity=".3"/></svg>