<svg fill="none" height="24" viewBox="0 0 24 24" width="24" xmlns="http://www.w3.org/2000/svg" xmlns:xlink="http://www.w3.org/1999/xlink"><linearGradient id="a"><stop offset="0" stop-color="#ffe7e0"/><stop offset=".34375" stop-color="#f8dbf4"/><stop offset=".6875" stop-color="#c4ddff"/><stop offset="1" stop-color="#cae9ff"/></linearGradient><linearGradient id="b" gradientUnits="userSpaceOnUse" x1="21" x2="22.9209" xlink:href="#a" y1="12" y2="10.5603"/><linearGradient id="c" gradientUnits="userSpaceOnUse" x1="0" x2="1.92092" xlink:href="#a" y1="12" y2="10.5603"/><linearGradient id="d" gradientUnits="userSpaceOnUse" x1="11" x2="12.8002" xlink:href="#a" y1="1.5" y2=".900321"/><linearGradient id="e" gradientUnits="userSpaceOnUse" x1="17.6569" x2="20.4858" xlink:href="#a" y1="19.4245" y2="18.011"/><linearGradient id="f" gradientUnits="userSpaceOnUse" x1="2.80789" x2="5.63682" xlink:href="#a" y1="4.5755" y2="3.16198"/><linearGradient id="g" gradientUnits="userSpaceOnUse" x1="17.6569" x2="20.4858" xlink:href="#a" y1="4.5755" y2="3.16198"/><linearGradient id="h" gradientUnits="userSpaceOnUse" x1="2.80789" x2="5.63682" xlink:href="#a" y1="19.4245" y2="18.011"/><linearGradient id="i" gradientUnits="userSpaceOnUse" x1="5" x2="16.203" xlink:href="#a" y1="12" y2="6.40224"/><linearGradient id="j" gradientUnits="userSpaceOnUse" x1="9" x2="10.6004" xlink:href="#a" y1="11" y2="10.2003"/><linearGradient id="k" gradientUnits="userSpaceOnUse" x1="13" x2="14.6004" xlink:href="#a" y1="11" y2="10.2003"/><linearGradient id="l" gradientUnits="userSpaceOnUse" x1="10" x2="12.0013" xlink:href="#a" y1="14" y2="12"/><linearGradient id="m" gradientUnits="userSpaceOnUse" x1="11" x2="12.8002" xlink:href="#a" y1="22.5" y2="21.9003"/><linearGradient id="n" gradientUnits="userSpaceOnUse" x1="6" x2="15.6026" xlink:href="#a" y1="12" y2="7.20192"/><g clip-rule="evenodd" fill-rule="evenodd"><path d="m21 11h3v2h-3z" fill="url(#b)"/><path d="m0 11h3v2h-3z" fill="url(#c)"/><path d="m13 0v3h-2v-3z" fill="url(#d)"/><path d="m19.0711 17.6569 2.121 2.121-1.4142 1.4142-2.121-2.121z" fill="url(#e)"/><path d="m4.22211 2.80789 2.121 2.121-1.41422 1.41422-2.121-2.121z" fill="url(#f)"/><path d="m17.6569 4.92889 2.121-2.121 1.4142 1.41422-2.121 2.121z" fill="url(#g)"/><path d="m2.80789 19.7779 2.121-2.121 1.41422 1.4142-2.121 2.121z" fill="url(#h)"/><path d="m12 7c-2.76142 0-5 2.23858-5 5 0 2.7614 2.23858 5 5 5 2.7614 0 5-2.2386 5-5 0-2.76142-2.2386-5-5-5zm-7 5c0-3.86599 3.13401-7 7-7 3.866 0 7 3.13401 7 7 0 3.866-3.134 7-7 7-3.86599 0-7-3.134-7-7z" fill="url(#i)"/></g><path d="m10 12c.5523 0 1-.4477 1-1s-.4477-1-1-1c-.55228 0-1 .4477-1 1s.44772 1 1 1z" fill="url(#j)"/><path d="m14 12c.5523 0 1-.4477 1-1s-.4477-1-1-1-1 .4477-1 1 .4477 1 1 1z" fill="url(#k)"/><path d="m12 15c1.105 0 2-.895 2-2h-4c0 1.105.895 2 2 2z" fill="url(#l)"/><path clip-rule="evenodd" d="m13 21v3h-2v-3z" fill="url(#m)" fill-rule="evenodd"/><path d="m12 18c3.3137 0 6-2.6863 6-6 0-3.31371-2.6863-6-6-6-3.31371 0-6 2.68629-6 6 0 3.3137 2.68629 6 6 6z" fill="url(#n)" opacity=".3"/></svg>