<svg viewBox="0 0 84 84" fill="none" xmlns="http://www.w3.org/2000/svg"><path fill-rule="evenodd" clip-rule="evenodd" d="M0 56.604V42C0 18.804 18.804 0 42 0 53.44 0 63.814 4.575 71.389 11.995l-8.929 5.58A31.733 31.733 0 0 0 42 10.137c-17.597 0-31.862 14.265-31.862 31.862h10.138L0 56.604Zm21.386 9.692A31.734 31.734 0 0 0 42 73.862c17.597 0 31.862-14.265 31.862-31.862H63.725l20.274-14.845L84 42c0 23.196-18.804 42-42 42-11.512 0-21.942-4.632-29.529-12.134l8.915-5.57ZM58.112 55.94H46.526L42 49.827l-4.525 6.113H25.89L36.385 42.24l-10.497-14.18H36.75L42 34.913l5.25-6.852h10.863L47.616 42.24 58.112 55.94Z" fill="url(#a)"/><defs><linearGradient id="a" x1="0" y1="42" x2="67.218" y2="8.413" gradientUnits="userSpaceOnUse"><stop stop-color="#FFE7E0"/><stop offset=".109" stop-color="#F8DBF4"/><stop offset=".526" stop-color="#C4DDFF"/><stop offset="1" stop-color="#CAE9FF"/></linearGradient></defs></svg>