<svg fill="none" height="42" viewBox="0 0 42 42" width="42" xmlns="http://www.w3.org/2000/svg"><g fill="#ED6834"><path d="m5.25 8.75h31.5v21h-31.5z" opacity=".2"/><path d="m35 7h-28c-1.93025 0-3.5 1.56975-3.5 3.5v17.5c0 1.9302 1.56975 3.5 3.5 3.5h28c1.9302 0 3.5-1.5698 3.5-3.5v-17.5c0-1.93025-1.5698-3.5-3.5-3.5zm-28 21v-17.5h28l.0017 17.5zm-7 3.5h42v3.5h-42z"/><path d="m23.6251 13.2754-6.2755 6.2755-2.7755-2.7755-2.4745 2.4745 5.25 5.25 8.75-8.75z"/><path d="m21.1503 15.75 2.4748-2.4749 6.1254 6.1252-2.4748 2.4749z"/></g></svg>