<svg fill="none" viewBox="0 0 18 18" xmlns="http://www.w3.org/2000/svg" xmlns:xlink="http://www.w3.org/1999/xlink"><linearGradient id="a"><stop offset="0" stop-color="#ffe7e0"/><stop offset=".344" stop-color="#f8dbf4"/><stop offset=".688" stop-color="#c4ddff"/><stop offset="1" stop-color="#cae9ff"/></linearGradient><linearGradient id="b" gradientUnits="userSpaceOnUse" x1="1" x2="13.803" xlink:href="#a" y1="9" y2="2.603"/><linearGradient id="c" gradientUnits="userSpaceOnUse" x1="0" x2="14.404" xlink:href="#a" y1="9" y2="1.803"/><linearGradient id="d" gradientUnits="userSpaceOnUse" x1="3.702" x2="12.081" xlink:href="#a" y1="9" y2="4.464"/><g clip-rule="evenodd" fill-rule="evenodd"><path d="M17 3v12c0 1.1-.9 2-2 2H3a2 2 0 0 1-2-2V3c0-1.11.89-2 2-2h12a2 2 0 0 1 2 2z" fill="url(#b)" opacity=".3"/><path d="M3 2a1 1 0 0 0-1 1v12a1 1 0 0 0 1 1h12a1 1 0 0 0 1-1V3a1 1 0 0 0-1-1zM0 3a3 3 0 0 1 3-3h12a3 3 0 0 1 3 3v12a3 3 0 0 1-3 3H3a3 3 0 0 1-3-3z" fill="url(#c)"/><path d="M10.35 8.01 13.775 4h-1.311L9.759 7.16 7.552 4h-3.85l3.94 5.633L3.907 14h1.333l3-3.516L10.699 14h3.839zM5.567 4.988h1.487l5.63 8.024h-1.496z" fill="url(#d)"/></g></svg>