<svg fill="none" height="84" viewBox="0 0 84 84" width="84" xmlns="http://www.w3.org/2000/svg" xmlns:xlink="http://www.w3.org/1999/xlink"><linearGradient id="a" gradientUnits="userSpaceOnUse" x1=".000003" x2="67.2179" y1="42" y2="8.41347"><stop offset="0" stop-color="#ffe7e0"/><stop offset=".109375" stop-color="#f8dbf4"/><stop offset=".526042" stop-color="#c4ddff"/><stop offset="1" stop-color="#cae9ff"/></linearGradient><path clip-rule="evenodd" d="m80.808 25.956c2.1 5.04 3.192 10.584 3.192 16.044s-1.092 11.088-3.192 16.128-5.208 9.744-9.072 13.608c-3.948 3.864-8.652 6.972-13.692 9.072s-10.584 3.192-16.044 3.192-11.088-1.092-16.128-3.192-9.744-5.208-13.608-9.072c-3.864-3.948-6.972-8.652-9.072-13.692s-3.192-10.584-3.192-16.044 1.092-10.92 3.192-16.044 5.208-9.744 9.072-13.692c3.948-3.864 8.652-6.972 13.692-9.072s10.584-3.192 16.044-3.192 10.92 1.092 16.044 3.192 9.744 5.208 13.692 9.072c3.864 3.948 6.972 8.652 9.072 13.692zm-43.428 14.9519v-4.536c-3.444-1.68-5.88-5.292-5.88-9.408 0-5.796 4.704-10.5 10.5-10.5 6.552 0 11.256 4.704 11.256 10.5 0 1.428-.336 2.856-1.008 4.536l-1.848-6.048-3.696 1.176 3.276 12.516 12.768-4.704-1.596-3.696-4.788 1.596c.84-1.848 1.008-3.276 1.008-5.46 0-8.148-6.552-14.7-15.456-14.7-8.148 0-14.7 6.552-14.7 14.7.084 6.552 4.284 12.096 10.164 14.028zm6.804-17.892v37.968h-4.368v-37.968zm2.436 24.612v-4.536c5.88 1.932 10.08 7.476 10.164 14.028 0 8.148-6.552 14.7-14.7 14.7-8.904 0-15.456-6.552-15.456-14.7 0-2.184.168-3.612 1.008-5.46l-4.788 1.596-1.596-3.696 12.768-4.704 3.276 12.516-3.696 1.176-1.848-6.048c-.672 1.68-1.008 3.108-1.008 4.536 0 5.796 4.704 10.5 11.256 10.5 5.796 0 10.5-4.704 10.5-10.5 0-4.116-2.436-7.728-5.88-9.408z" fill="url(#a)" fill-rule="evenodd"/></svg>