<svg width="159" height="220" fill="none" xmlns="http://www.w3.org/2000/svg"><path d="M0 23.158C0 10.368 10.418 0 23.268 0h112.464C148.582 0 159 10.368 159 23.158V110H0V23.158Z" fill="#EC4612"/><path d="M0 196.842C0 209.632 10.418 220 23.268 220h112.464c12.85 0 23.268-10.368 23.268-23.158V110H0v86.842Z" fill="#3FC4FF"/><path d="M41.883 23.544 79.5 54.517l37.617-30.973V110H41.883V23.544Z" fill="#CCF8FF"/><path d="M41.883 196.456 79.5 169.728l37.617 26.728V110H41.883v86.456Z" fill="#710408"/><path fill-rule="evenodd" clip-rule="evenodd" d="M70.416 63.491c-3.654 0-6.887-2.351-7.992-5.812l-5.68-17.79H53.25c-3.654 0-6.888-2.352-7.993-5.812l-3.375-10.572h12.66l-6.677-9.996h63.268l-6.677 9.996h12.66l-3.375 10.572c-1.105 3.46-4.339 5.811-7.993 5.811h-3.492l-5.68 17.791c-1.105 3.461-4.34 5.812-7.993 5.812H70.416ZM66.125 35.03c0 2.684 2.017 4.86 4.505 4.86s4.505-2.176 4.505-4.86-2.017-4.86-4.505-4.86-4.505 2.176-4.505 4.86Zm26.75 0c0 2.684-2.017 4.86-4.505 4.86s-4.505-2.176-4.505-4.86 2.017-4.86 4.505-4.86 4.505 2.176 4.505 4.86Z" fill="#710408"/><path fill-rule="evenodd" clip-rule="evenodd" d="M70.416 156.509c-3.654 0-6.887 2.351-7.992 5.811l-5.68 17.792H53.25c-3.654 0-6.888 2.351-7.993 5.811l-3.375 10.572h12.66l-6.677 9.996h63.268l-6.677-9.996h12.66l-3.375-10.572c-1.105-3.46-4.339-5.811-7.993-5.811h-3.492l-5.68-17.792c-1.105-3.46-4.34-5.811-7.993-5.811H70.416Zm-4.291 28.462c0-2.684 2.017-4.859 4.505-4.859s4.505 2.175 4.505 4.859-2.017 4.859-4.505 4.859-4.505-2.175-4.505-4.859Zm26.75 0c0-2.684-2.017-4.859-4.505-4.859s-4.505 2.175-4.505 4.859 2.017 4.859 4.505 4.859 4.505-2.175 4.505-4.859Z" fill="#CCF8FF"/><path d="M99.084 84.333V110H60.11V84.333h38.974Z" fill="#3FC4FF"/><path d="M99.084 110v25.474H60.11V110h38.974Z" fill="#EC4612"/><path d="m77.665 114.783 12.116-12.507-3.64-3.76-8.476 8.75-4.36-4.5-3.64 3.761 8 8.256Z" fill="#710408"/><path d="m20.942 110 5.545-2.007 2.017-5.519 2.016 5.519L36.066 110l-5.546 2.007-2.016 5.519-2.017-5.519L20.942 110ZM85.123 125.825l3.128-1.133 1.138-3.113 1.138 3.113 3.128 1.133-3.128 1.132-1.138 3.113-1.138-3.113-3.128-1.132ZM126.037 84.237l8.887-3.216 3.231-8.846 3.232 8.846 8.887 3.216-8.887 3.216-3.232 8.845-3.231-8.845-8.887-3.216Z" fill="#fff"/></svg> 