<svg width="10" height="10" viewBox="0 0 10 10" fill="none" xmlns="http://www.w3.org/2000/svg">
  <path
    d="M0 10V7.63889L7.33333 0.319444C7.44444 0.217593 7.56713 0.138889 7.70139 0.0833333C7.83565 0.0277778 7.97685 0 8.125 0C8.27315 0 8.41667 0.0277778 8.55556 0.0833333C8.69444 0.138889 8.81481 0.222222 8.91667 0.333333L9.68056 1.11111C9.79167 1.21296 9.87269 1.33333 9.92361 1.47222C9.97454 1.61111 10 1.75 10 1.88889C10 2.03704 9.97454 2.17824 9.92361 2.3125C9.87269 2.44676 9.79167 2.56944 9.68056 2.68056L2.36111 10H0ZM8.11111 2.66667L8.88889 1.88889L8.11111 1.11111L7.33333 1.88889L8.11111 2.66667Z"
    fill="#c2c4c5d9" fill-opacity="1" />
</svg>
