<svg xmlns="http://www.w3.org/2000/svg" fill="none" viewBox="0 0 10 10"><path fill="currentColor" d="M1.123 10c-.47 0-.805-.21-1.003-.632-.199-.421-.15-.812.145-1.174l3.074-3.75V1.111h-.554a.535.535 0 0 1-.395-.16.538.538 0 0 1-.159-.395c0-.158.053-.29.16-.396A.535.535 0 0 1 2.784 0h4.43c.157 0 .289.053.395.16a.537.537 0 0 1 .159.396.534.534 0 0 1-.16.395.535.535 0 0 1-.394.16H6.66v3.333l3.074 3.75c.295.362.344.753.145 1.174-.198.421-.533.632-1.003.632H1.123Zm1.108-1.667h5.538L5.886 6.111H4.114L2.23 8.333Zm-1.108.556h7.754L5.554 4.833V1.111H4.446v3.722L1.123 8.89Z"/></svg>