<svg xmlns="http://www.w3.org/2000/svg" fill="none" viewBox="0 0 10 16"><path fill="#052B65" fill-opacity=".4" d="M1.615 15.23c-.444 0-.824-.158-1.14-.474A1.555 1.555 0 0 1 0 13.616c0-.445.158-.825.474-1.141A1.556 1.556 0 0 1 1.615 12c.445 0 .825.158 1.141.475.317.316.475.696.475 1.14 0 .445-.158.825-.475 1.141a1.556 1.556 0 0 1-1.14.475Zm6 0c-.444 0-.824-.158-1.14-.474A1.555 1.555 0 0 1 6 13.616c0-.445.158-.825.474-1.141A1.556 1.556 0 0 1 7.615 12c.445 0 .825.158 1.141.475.317.316.475.696.475 1.14 0 .445-.158.825-.475 1.141a1.556 1.556 0 0 1-1.14.475Zm-6-6a1.55 1.55 0 0 1-1.14-.474A1.556 1.556 0 0 1 0 7.616c0-.445.158-.825.474-1.141A1.556 1.556 0 0 1 1.615 6c.445 0 .825.158 1.141.474.317.317.475.697.475 1.141 0 .445-.158.825-.475 1.141a1.556 1.556 0 0 1-1.14.475Zm6 0a1.55 1.55 0 0 1-1.14-.474A1.556 1.556 0 0 1 6 7.616c0-.445.158-.825.474-1.141A1.556 1.556 0 0 1 7.615 6c.445 0 .825.158 1.141.474.317.317.475.697.475 1.141 0 .445-.158.825-.475 1.141a1.556 1.556 0 0 1-1.14.475Zm-6-6a1.55 1.55 0 0 1-1.14-.474A1.556 1.556 0 0 1 0 1.616C0 1.17.158.79.474.474A1.556 1.556 0 0 1 1.615 0c.445 0 .825.158 1.141.475.317.316.475.696.475 1.14 0 .445-.158.825-.475 1.141a1.556 1.556 0 0 1-1.14.475Zm6 0a1.55 1.55 0 0 1-1.14-.474A1.556 1.556 0 0 1 6 1.616c0-.445.158-.825.474-1.141A1.556 1.556 0 0 1 7.615 0c.445 0 .825.158 1.141.475.317.316.475.696.475 1.14 0 .445-.158.825-.475 1.141a1.556 1.556 0 0 1-1.14.475Z"/></svg>