<svg xmlns="http://www.w3.org/2000/svg" fill="none" viewBox="0 0 192 199"><path fill="currentColor" fill-rule="evenodd" d="M25.708 178.998c16.598 12.582 40.353 19.587 69.844 19.609h.148c29.49-.022 53.245-7.027 69.844-19.609 16.797-12.733 25.708-30.803 25.708-51.25 0-19.701-8.892-33.907-18.952-43.51-7.884-7.525-16.585-12.344-22.643-15.117 1.37-4.162 3.079-9.61 4.608-15.238 2.047-7.53 4.054-16.366 4.054-22.84 0-7.663-1.688-15.36-6.239-21.34C147.272 3.385 140.033 0 131.325 0c-6.806 0-12.584 2.499-17.107 6.81-4.324 4.12-7.202 9.593-9.189 15.298-3.492 10.024-4.851 22.618-5.233 35.187h-8.34c-.382-12.569-1.742-25.163-5.233-35.187-1.987-5.705-4.865-11.177-9.19-15.298C72.51 2.5 66.734 0 59.927 0 51.218 0 43.98 3.385 39.171 9.703c-4.55 5.98-6.239 13.677-6.239 21.34 0 6.474 2.008 15.31 4.054 22.84 1.53 5.628 3.239 11.076 4.608 15.238-6.058 2.773-14.758 7.592-22.642 15.118C8.892 93.84 0 108.047 0 127.748c0 20.447 8.91 38.517 25.708 51.25Zm36.647-46.323c5.666 0 10.258-5.061 10.258-14.779s-4.592-14.779-10.258-14.779c-5.665 0-10.257 5.061-10.257 14.779s4.592 14.779 10.257 14.779Zm66.676 0c5.665 0 10.257-5.061 10.257-14.779s-4.592-14.779-10.257-14.779c-5.666 0-10.258 5.061-10.258 14.779s4.592 14.779 10.258 14.779Z" clip-rule="evenodd"/></svg>