<svg xmlns="http://www.w3.org/2000/svg" fill="none" viewBox="0 0 38 41"><path fill="currentColor" d="M14.702 9.722c-.46-.067-.479-.075-.263-.106.414-.06 1.392.022 2.066.173 1.574.354 3.005 1.26 4.533 2.87l.406.427.581-.088c2.447-.372 4.936-.076 7.018.833.573.25 1.476.749 1.588.877.036.04.102.303.147.584.155.97.077 1.713-.236 2.268-.17.302-.18.398-.066.656.092.206.347.359.6.359.517 0 1.074-.792 1.332-1.893l.103-.437.203.217c1.113 1.194 1.988 2.822 2.138 3.98l.04.302-.188-.274c-.322-.473-.645-.794-1.06-1.054-.747-.468-1.537-.627-3.63-.731-1.89-.094-2.959-.247-4.02-.574-1.804-.557-2.713-1.298-4.857-3.958-.952-1.181-1.54-1.835-2.126-2.362-1.33-1.196-2.636-1.823-4.31-2.069Z"/><path fill="currentColor" d="M31.058 12.36c.047-.791.16-1.313.389-1.79.09-.19.175-.344.188-.344.013 0-.026.14-.087.31-.166.463-.193 1.096-.08 1.832.146.935.228 1.07 1.273 2.08.49.473 1.059 1.07 1.266 1.326l.375.467-.375-.333c-.46-.408-1.516-1.202-1.75-1.316-.155-.076-.179-.075-.275.016-.09.084-.108.21-.12.804-.02.927-.153 1.522-.475 2.116-.174.322-.202.253-.044-.11.118-.27.13-.39.129-1.287-.002-1.803-.228-2.236-1.555-2.979-.336-.188-.89-.459-1.23-.602-.341-.144-.612-.269-.602-.278.037-.035 1.331.322 1.852.511.774.282.902.319.996.285.064-.023.094-.197.125-.707Zm-15.464 3.084c-.933-1.214-1.51-3.076-1.385-4.467l.04-.431.211.037c.399.068 1.086.31 1.408.495.883.507 1.265 1.175 1.654 2.89.114.503.263 1.071.332 1.264.11.31.53 1.033.87 1.503.244.338.082.499-.46.453-.827-.071-1.947-.802-2.67-1.744Zm14.333 9.037c-4.357-1.66-5.892-3.1-5.892-5.53 0-.358.013-.65.029-.65s.184.117.375.262c.883.67 1.873.956 4.612 1.334 1.611.223 2.518.402 3.355.665 2.66.834 4.305 2.527 4.697 4.833.114.67.047 1.927-.138 2.59-.146.523-.59 1.466-.709 1.502-.033.01-.065-.109-.073-.27-.045-.866-.508-1.71-1.284-2.341-.884-.718-2.07-1.29-4.972-2.395Zm-3.059.689c-.055-.307-.15-.7-.21-.872l-.112-.313.207.22c.286.303.512.69.703 1.208.146.395.162.512.161 1.153 0 .63-.02.762-.154 1.117a3.51 3.51 0 0 1-.92 1.384c-.796.766-1.819 1.19-3.295 1.367a34.81 34.81 0 0 1-1.663.114c-1.657.082-2.748.25-3.729.576-.14.047-.266.075-.28.063-.039-.038.629-.414 1.18-.665.777-.354 1.55-.547 3.285-.82.856-.136 1.74-.3 1.965-.364 2.12-.616 3.21-2.203 2.862-4.168Z"/><path fill="currentColor" d="M28.865 28.526c-.579-1.177-.711-2.314-.394-3.374.034-.113.088-.206.12-.206.034 0 .17.07.304.155.267.17.802.457 2.228 1.192 1.778.917 2.792 1.627 3.482 2.439.604.71.978 1.52 1.158 2.507.102.56.042 1.905-.11 2.468-.478 1.775-1.59 3.17-3.175 3.983-.232.12-.44.217-.463.218-.023 0 .062-.203.188-.453.533-1.054.594-2.08.19-3.222-.246-.699-.75-1.552-1.766-2.993-1.181-1.677-1.471-2.123-1.762-2.714ZM12.5 34.878c1.616-1.292 3.628-2.21 5.46-2.49.79-.122 2.106-.074 2.837.103 1.173.284 2.221.92 2.767 1.677.533.74.762 1.385 1 2.82.093.566.196 1.135.227 1.263.178.744.526 1.339.957 1.637.685.474 1.864.504 3.024.076.197-.073.368-.123.38-.112.042.04-.542.41-.954.604-.555.262-.995.364-1.581.364-1.063 0-1.945-.512-2.68-1.554-.145-.205-.471-.82-.724-1.366-.777-1.676-1.16-2.187-2.063-2.746-.785-.486-1.798-.573-2.56-.22-1 .464-1.28 1.674-.563 2.44.285.305.816.568 1.25.619.813.096 1.511-.49 1.511-1.265 0-.504-.204-.792-.72-1.012-.704-.3-1.46.05-1.457.676.002.267.125.435.407.556.182.077.186.084.038.054-.646-.126-.797-.863-.278-1.352.624-.587 1.913-.328 2.356.474.186.336.207 1.006.045 1.411-.363.906-1.421 1.383-2.495 1.123-.73-.176-1.028-.367-1.91-1.226-1.53-1.492-2.125-1.781-4.333-2.107l-.423-.063.481-.384Z"/><path fill="currentColor" fill-rule="evenodd" d="M.952 1.452c5.114 5.871 12.998 15.013 13.39 15.525.323.422.201.802-.352 1.1-.308.165-.941.333-1.258.333-.358 0-.762-.163-1.056-.427-.208-.186-1.047-1.372-2.984-4.214-1.482-2.175-2.722-3.98-2.755-4.01-.079-.07-.077-.067 2.604 4.472 1.684 2.85 2.252 3.857 2.252 3.992 0 .274-.079.418-.436.795-.596.629-.862 1.335-1.055 2.797-.215 1.64-.821 2.797-2.5 4.779-.984 1.16-1.145 1.372-1.393 1.84-.313.589-.399.919-.433 1.662-.037.786.035 1.294.288 2.045.223.658.455 1.093 1.048 1.962.512.75.806 1.307.806 1.525 0 .173.035.173.828.004 1.898-.405 3.44-1.118 4.306-1.992.537-.541.663-.84.667-1.581.002-.485-.016-.586-.154-.865-.226-.454-.636-.832-1.541-1.417-1.186-.767-1.692-1.384-1.832-2.233-.115-.696.018-1.188.674-2.488.68-1.346.848-1.92.961-3.276.074-.877.176-1.223.442-1.5.277-.29.527-.387 1.215-.476 1.12-.145 1.833-.42 2.42-.93.508-.444.721-.87.754-1.514l.025-.488-.285-.313C14.57 15.423.263.559.2.559c-.014 0 .325.402.752.893Zm6.744 29.533a.834.834 0 0 0-.28-1.136c-.368-.231-.94-.122-.94.18 0 .091.054.158.176.218.204.099.219.21.058.439-.163.231-.15.434.037.573.3.222.726.1.95-.274ZM16.59 20.06c-.526.152-1.037.68-1.196 1.233-.096.337-.042.928.103 1.111.234.295.46.373 1.071.369 1.198-.008 2.24-.494 2.36-1.101.1-.498-.358-1.188-.988-1.491-.325-.157-1.016-.219-1.35-.122Zm1.4 1.035c.184-.248.104-.516-.21-.698-.599-.345-1.503-.06-1.503.475 0 .266.471.557.904.557.288 0 .682-.163.809-.334Z" clip-rule="evenodd"/></svg>