<svg xmlns="http://www.w3.org/2000/svg" fill="none" viewBox="0 0 24 22"><path fill="currentColor" d="M12.94 9.462c2.4 1.6 4.8 2.1 5.5 1.1.7-1-.7-3.1-3-4.7-2.4-1.6-4.8-2.1-5.5-1.1-.7 1 .7 3.1 3 4.7Z"/><path fill="currentColor" fill-rule="evenodd" d="M17.04 3.464c5.2 3.4 8 8.2 6.5 10.5l-4.6 6.8-.048-.033c-1.658 2.215-7.002 1.297-12.051-2.267C1.823 14.922-1.065 10.413.366 7.982L.34 7.964l4.6-6.7c1.6-2.3 7-1.4 12.1 2.2Zm-5.2 7.798c4.7 3.3 9.6 4.3 11 2.3 1.3-2-1.5-6.2-6.2-9.5s-9.6-4.3-11-2.3c-1.4 2 1.4 6.2 6.2 9.5Zm-7.3-7.699c0-.1-.1-.2-.2-.1a.559.559 0 0 1-.11.082c-.052.033-.09.056-.09.118.026.08.053.154.078.222.068.185.122.332.122.478 0 .1.1.2.2.1.1 0 .2-.1.1-.2 0-.2 0-.4-.1-.7Zm.501 1.6c0-.1-.1-.2-.2-.1s-.1.1-.1.2c1.1 2.5 3.4 5.2 6.4 7.2.067.067.134.044.2.022.034-.011.067-.022.1-.022.067-.067.045-.133.023-.2a.322.322 0 0 1-.023-.1c-3.1-2-5.3-4.6-6.4-7Zm11.9 9.9c0-.1.1-.1.2-.1.15.05.324.1.5.15.174.05.35.1.5.15.1 0 .1.1.1.2s-.1.1-.2.1c-.15-.05-.325-.1-.5-.15-.175-.05-.35-.1-.5-.15-.1 0-.1-.1-.1-.2Zm1.8.5c0-.1.1-.2.2-.2.8.1 1.6.2 2.4.1.1 0 .2.1.2.2s-.1.2-.2.2c-.7.1-1.6 0-2.4-.1-.1 0-.2-.1-.2-.2Z" clip-rule="evenodd"/></svg>