<svg xmlns="http://www.w3.org/2000/svg" fill="none" viewBox="0 0 57 38"><path fill="#996815" fill-rule="evenodd" d="M21.618 38a6.35 6.35 0 0 1-6.056-4.419L11.26 20.056H8.613a6.351 6.351 0 0 1-6.056-4.419L0 7.6h9.592L4.532 0h47.935l-5.059 7.6H57l-2.557 8.037a6.351 6.351 0 0 1-6.056 4.419h-2.646L41.438 33.58A6.35 6.35 0 0 1 35.382 38H21.618Z" clip-rule="evenodd"/><path fill="#FAEFDD" fill-rule="evenodd" d="m31.856 16.019 8.862-3.464 1.404 3.69-8.862 3.464-1.404-3.69Zm-4.934 0-8.863-3.464-1.404 3.69 8.863 3.464 1.404-3.69Z" clip-rule="evenodd"/></svg>