<svg xmlns="http://www.w3.org/2000/svg" fill="none" viewBox="0 0 385 204"><path fill="#00A1FF" fill-rule="evenodd" d="M269.768 145.159c-6.248 0-11.776-4.026-13.665-9.953l-9.711-30.467h-5.971c-6.247 0-11.775-4.026-13.664-9.952l-5.771-18.104h21.644l-11.416-17.119h108.165l-11.415 17.12h21.643l-5.77 18.103c-1.889 5.926-7.417 9.952-13.665 9.952h-5.97l-9.711 30.467c-1.889 5.927-7.417 9.953-13.665 9.953h-31.058Zm-7.337-48.741c0 4.596 3.448 8.321 7.701 8.321 4.254 0 7.702-3.725 7.702-8.321s-3.448-8.322-7.702-8.322c-4.253 0-7.701 3.726-7.701 8.322Zm45.732 0c0 4.596-3.448 8.321-7.702 8.321-4.253 0-7.701-3.725-7.701-8.321s3.448-8.322 7.701-8.322c4.254 0 7.702 3.726 7.702 8.322ZM262.422 29.35V17.265a3.453 3.453 0 0 0-6.906 0V29.35a3.453 3.453 0 0 0 6.906 0ZM258.969 0c-9.535 0-17.265 7.73-17.265 17.265V29.35c0 9.535 7.73 17.264 17.265 17.264s17.264-7.73 17.264-17.264V17.265C276.233 7.73 268.504 0 258.969 0ZM151.928 29.35V17.265a3.452 3.452 0 1 0-6.905 0V29.35a3.453 3.453 0 0 0 6.905 0ZM148.476 0c-9.535 0-17.265 7.73-17.265 17.265V29.35c0 9.535 7.73 17.264 17.265 17.264 9.534 0 17.264-7.73 17.264-17.264V17.265C165.74 7.73 158.01 0 148.476 0Z" clip-rule="evenodd"/><path fill="#F2CD16" fill-rule="evenodd" d="M65.605 29.35V17.265a3.453 3.453 0 1 0-6.906 0V29.35a3.453 3.453 0 1 0 6.906 0ZM62.152 0c-9.535 0-17.264 7.73-17.264 17.265V29.35c0 9.535 7.73 17.264 17.264 17.264 9.535 0 17.265-7.73 17.265-17.264V17.265C79.417 7.73 71.687 0 62.152 0Z" clip-rule="evenodd"/><path fill="#CCF8FF" fill-rule="evenodd" d="M108.767 29.35V17.265a3.453 3.453 0 0 0-6.906 0V29.35a3.453 3.453 0 0 0 6.906 0ZM105.314 0c-9.535 0-17.265 7.73-17.265 17.265V29.35c0 9.535 7.73 17.264 17.265 17.264s17.264-7.73 17.264-17.264V17.265C122.578 7.73 114.849 0 105.314 0Z" clip-rule="evenodd"/><path fill="#00A1FF" fill-rule="evenodd" d="M328.027 29.35V17.265a3.453 3.453 0 0 0-6.906 0V29.35a3.453 3.453 0 0 0 6.906 0ZM324.574 0c-9.535 0-17.264 7.73-17.264 17.265V29.35c0 9.535 7.729 17.264 17.264 17.264s17.265-7.73 17.265-17.264V17.265C341.839 7.73 334.109 0 324.574 0Zm46.614 29.35V17.265a3.453 3.453 0 0 0-6.906 0V29.35a3.453 3.453 0 0 0 6.906 0ZM367.735 0c-9.535 0-17.264 7.73-17.264 17.265V29.35c0 9.535 7.729 17.264 17.264 17.264S385 38.884 385 29.35V17.265C385 7.73 377.27 0 367.735 0Z" clip-rule="evenodd"/><path fill="#00A1FF" d="M284.865 1.726h13.812v43.162h-13.812V1.726Zm-65.605 0h13.812v43.162H219.26V1.726Zm-22.444 0h13.812v43.162h-13.812V1.726Zm-22.444 0h13.812v43.162h-13.812V1.726Zm-151.928 0h13.811v43.162H22.444V1.726ZM0 1.726h13.812v43.162H0V1.726Z"/><path fill="#00A1FF" fill-rule="evenodd" d="M196.816 134.664v-12.086a3.452 3.452 0 0 0-6.906 0v12.086a3.453 3.453 0 0 0 6.906 0Zm-3.453-29.35c-9.535 0-17.264 7.73-17.264 17.264v12.086c0 9.535 7.729 17.264 17.264 17.264s17.265-7.729 17.265-17.264v-12.086c0-9.534-7.73-17.264-17.265-17.264Z" clip-rule="evenodd"/><path fill="#CCF8FF" fill-rule="evenodd" d="M36.256 134.664v-12.086a3.452 3.452 0 0 1 6.905 0v12.086a3.453 3.453 0 1 1-6.905 0Zm3.453-29.35c9.534 0 17.264 7.73 17.264 17.264v12.086c0 9.535-7.73 17.264-17.264 17.264-9.535 0-17.265-7.729-17.265-17.264v-12.086c0-9.534 7.73-17.264 17.265-17.264Z" clip-rule="evenodd"/><path fill="#00A1FF" fill-rule="evenodd" d="M101.861 134.664v-12.086a3.452 3.452 0 0 1 6.906 0v12.086a3.453 3.453 0 0 1-6.906 0Zm3.453-29.35c9.535 0 17.265 7.73 17.265 17.264v12.086c0 9.535-7.73 17.264-17.265 17.264s-17.264-7.729-17.264-17.264v-12.086c0-9.534 7.73-17.264 17.264-17.264Z" clip-rule="evenodd"/><path fill="#F2CD16" fill-rule="evenodd" d="M371.188 134.664v-12.086a3.452 3.452 0 0 0-6.906 0v12.086a3.453 3.453 0 0 0 6.906 0Zm-3.453-29.35c-9.535 0-17.264 7.73-17.264 17.264v12.086c0 9.535 7.729 17.264 17.264 17.264S385 144.199 385 134.664v-12.086c0-9.534-7.73-17.264-17.265-17.264Z" clip-rule="evenodd"/><path fill="#00A1FF" d="M0 107.04h13.812v43.162H0V107.04Zm131.211 0h13.812v43.162h-13.812V107.04Zm-65.605 0h13.811v43.162H65.606V107.04Zm88.049 0h13.811v43.162h-13.811V107.04Z"/><path fill="#00A1FF" fill-rule="evenodd" d="M174.372 82.007V69.92a3.453 3.453 0 0 0-6.906 0v12.086a3.453 3.453 0 0 0 6.906 0Zm-3.453-29.35c-9.535 0-17.264 7.73-17.264 17.264v12.086c0 9.535 7.729 17.264 17.264 17.264s17.265-7.73 17.265-17.264V69.92c0-9.534-7.73-17.264-17.265-17.264Zm-39.708 29.35V69.92a3.453 3.453 0 0 0-6.906 0v12.086a3.453 3.453 0 0 0 6.906 0Zm-3.453-29.35c-9.535 0-17.265 7.73-17.265 17.264v12.086c0 9.535 7.73 17.264 17.265 17.264s17.264-7.73 17.264-17.264V69.92c0-9.534-7.729-17.264-17.264-17.264Zm-62.153 29.35V69.92a3.453 3.453 0 1 0-6.906 0v12.086a3.453 3.453 0 1 0 6.906 0Zm-3.453-29.35c-9.535 0-17.264 7.73-17.264 17.264v12.086c0 9.535 7.73 17.264 17.264 17.264 9.535 0 17.265-7.73 17.265-17.264V69.92c0-9.534-7.73-17.264-17.265-17.264Z" clip-rule="evenodd"/><path fill="#00A1FF" d="M196.816 54.383h13.812v43.162h-13.812V54.383Zm-108.766 0h13.811v43.162H88.049V54.383Zm-65.606 0h13.811v43.162H22.444V54.383Z"/><path fill="#F2CD16" d="M0 54.383h13.812v43.162H0V54.383Z"/><path fill="#00A1FF" d="M360.83 54.383h13.811v43.162H360.83V54.383Z"/><path fill="#00A1FF" fill-rule="evenodd" d="M328.027 186.457v-12.085a3.453 3.453 0 0 0-6.906 0v12.085a3.453 3.453 0 0 0 6.906 0Zm-3.453-29.349c-9.535 0-17.264 7.729-17.264 17.264v12.085c0 9.535 7.729 17.265 17.264 17.265s17.265-7.73 17.265-17.265v-12.085c0-9.535-7.73-17.264-17.265-17.264Zm46.614 29.349v-12.085a3.453 3.453 0 0 0-6.906 0v12.085a3.453 3.453 0 0 0 6.906 0Zm-3.453-29.349c-9.535 0-17.264 7.729-17.264 17.264v12.085c0 9.535 7.729 17.265 17.264 17.265S385 195.992 385 186.457v-12.085c0-9.535-7.73-17.264-17.265-17.264Zm-82.87 29.349v-12.085a3.452 3.452 0 1 0-6.905 0v12.085a3.453 3.453 0 0 0 6.905 0Zm-3.452-29.349c-9.535 0-17.265 7.729-17.265 17.264v12.085c0 9.535 7.73 17.265 17.265 17.265 9.534 0 17.264-7.73 17.264-17.265v-12.085c0-9.535-7.73-17.264-17.264-17.264Zm-127.759 29.349v-12.085a3.452 3.452 0 1 0-6.905 0v12.085a3.453 3.453 0 0 0 6.905 0Zm-3.452-29.349c-9.535 0-17.265 7.729-17.265 17.264v12.085c0 9.535 7.73 17.265 17.265 17.265s17.264-7.73 17.264-17.265v-12.085c0-9.535-7.729-17.264-17.264-17.264Z" clip-rule="evenodd"/><path fill="#CCF8FF" fill-rule="evenodd" d="M196.816 186.457v-12.085a3.453 3.453 0 0 0-6.906 0v12.085a3.453 3.453 0 0 0 6.906 0Zm-3.453-29.349c-9.535 0-17.264 7.729-17.264 17.264v12.085c0 9.535 7.729 17.265 17.264 17.265s17.265-7.73 17.265-17.265v-12.085c0-9.535-7.73-17.264-17.265-17.264Z" clip-rule="evenodd"/><path fill="#00A1FF" fill-rule="evenodd" d="M43.161 186.457v-12.085a3.453 3.453 0 1 0-6.906 0v12.085a3.453 3.453 0 1 0 6.906 0Zm-3.453-29.349c-9.534 0-17.264 7.729-17.264 17.264v12.085c0 9.535 7.73 17.265 17.264 17.265 9.535 0 17.265-7.73 17.265-17.265v-12.085c0-9.535-7.73-17.264-17.265-17.264Z" clip-rule="evenodd"/><path fill="#00A1FF" d="M0 158.834h13.812v43.162H0v-43.162Z"/><path fill="#F2CD16" d="M241.704 158.834h13.812v43.162h-13.812v-43.162Z"/><path fill="#CCF8FF" d="M219.26 158.834h13.812v43.162H219.26v-43.162Z"/><path fill="#00A1FF" d="M110.493 158.834h13.812v43.162h-13.812v-43.162Zm-22.443 0h13.811v43.162H88.049v-43.162Zm-22.444 0h13.811v43.162H65.606v-43.162Z"/></svg>
