<svg xmlns="http://www.w3.org/2000/svg" fill="none" viewBox="0 0 791 900"><g clip-path="url(#a)"><path fill="#CCF8FF" d="M0 90C0 40.294 40.294 0 90 0h611c49.706 0 90 40.294 90 90v720c0 49.706-40.294 90-90 90H90c-49.706 0-90-40.294-90-90V90Z"/><path fill="#544003" d="M476.001 1298c-118.741 0-215-96.26-215-215V596h430v487c0 118.74-96.259 215-215 215Z"/><path fill="#544003" d="M476.001 921.5c-118.741 0-215-96.259-215-215V596h430v110.5c0 118.741-96.259 215-215 215Z"/><circle cx="476" cy="596" r="215" fill="#F2CD16"/><path fill="#544003" d="M80.001 1590c-118.741 0-215-96.26-215-215V888h430v487c0 118.74-96.259 215-215 215Z"/><circle cx="80" cy="888" r="215" fill="#F2CD16"/><path fill="#544003" d="M328.421 609.143c-114.695-30.733-182.76-148.625-152.028-263.32l22.259-83.07L614 374.045l-22.258 83.07c-30.733 114.695-148.625 182.76-263.321 152.028Z"/><path fill="#F2CD16" d="M198.651 262.754c30.732-114.695 148.625-182.76 263.32-152.028s182.76 148.625 152.028 263.32c-30.733 114.695-148.625 182.76-263.32 152.028-114.695-30.733-182.761-148.625-152.028-263.32Z"/><path fill="#544003" fill-rule="evenodd" d="M347.313 410.256a30.671 30.671 0 0 1-22.704-28.232l-3.119-68.641-12.339-3.306a30.674 30.674 0 0 1-22.704-28.233l-1.853-40.786 44.731 11.986-14.068-41.868 223.546 59.899-33.117 29.225 44.731 11.985-21.998 34.395a30.672 30.672 0 0 1-33.778 13.099l-12.34-3.306-37.021 57.884a30.672 30.672 0 0 1-33.778 13.099l-64.189-17.2Zm11.955-105.27c-2.557 9.543 2.497 19.189 11.287 21.544 8.791 2.356 17.99-3.471 20.547-13.014 2.557-9.543-2.496-19.189-11.287-21.544-8.79-2.356-17.99 3.471-20.547 13.014Zm94.515 25.325c-2.557 9.543-11.756 15.37-20.547 13.015-8.79-2.356-13.844-12.002-11.286-21.545 2.557-9.543 11.756-15.37 20.546-13.014 8.791 2.355 13.844 12.001 11.287 21.544Z" clip-rule="evenodd"/><path fill="#65D9FF" d="m199 129-52.8 19.2L127 201l-19.2-52.8L55 129l52.8-19.2L127 57l19.2 52.8L199 129Zm562 275.5-33.367 12.133L715.5 450l-12.133-33.367L670 404.5l33.367-12.133L715.5 359l12.133 33.367L761 404.5ZM199 611l-21.267 7.733L170 640l-7.733-21.267L141 611l21.267-7.733L170 582l7.733 21.267L199 611Z"/></g><defs><clipPath id="a"><path fill="#fff" d="M0 90C0 40.294 40.294 0 90 0h611c49.706 0 90 40.294 90 90v720c0 49.706-40.294 90-90 90H90c-49.706 0-90-40.294-90-90V90Z"/></clipPath></defs></svg>