<svg xmlns="http://www.w3.org/2000/svg" fill="none" viewBox="0 0 791 900"><g clip-path="url(#a)"><path fill="#CCF8FF" d="M0 90C0 40.294 40.294 0 90 0h611c49.706 0 90 40.294 90 90v720c0 49.706-40.294 90-90 90H90c-49.706 0-90-40.294-90-90V90Z"/><path fill="#F2CD16" d="M80.6 482c-8 0-14.9-2.9-20.7-8.7-5.8-5.8-8.7-12.7-8.7-20.7 0-8.2 2.8-15.1 8.4-20.7 5.8-5.8 12.8-8.7 21-8.7 8.8 0 15.9 2.9 21.3 8.7 5.4 5.6 8.1 12.5 8.1 20.7 0 8.4-2.9 15.4-8.7 21-5.8 5.6-12.7 8.4-20.7 8.4Zm384.045 75h-43.2V396.8h-.3c-.2 1.2-.5 2.4-.9 3.6-.2 1.2-.5 2.4-.9 3.6-1.8 7-3.7 13.6-5.7 19.8-2 6-4 11.8-6 17.4l-40.2 115.8h-43.8l-40.2-115.8c-1.4-3.8-2.7-7.7-3.9-11.7-1.2-4-2.5-8.1-3.9-12.3-1-3.2-1.9-6.3-2.7-9.3l-2.4-9.6h-.3V557h-43.2V341h64.5l34.8 100.2c1.6 4.6 3.2 9.5 4.8 14.7 1.8 5.2 3.5 10.4 5.1 15.6l4.8 15.6c1.6 5 3.1 9.9 4.5 14.7h.3c1.4-4.8 2.8-9.7 4.2-14.7 1.6-5.2 3.2-10.5 4.8-15.9 1.6-5.2 3.2-10.3 4.8-15.3 1.6-5.2 3.2-10.1 4.8-14.7l35.1-100.2h65.1v216Zm139.65 1.8c-19.8 0-38.1-4.9-54.9-14.7-16.8-10-30.2-23.4-40.2-40.2-9.8-16.8-14.7-35.1-14.7-54.9 0-19.8 4.9-38.1 14.7-54.9 10-16.8 23.4-30.1 40.2-39.9 16.8-10 35.1-15 54.9-15 19.8 0 38.1 5 54.9 15 16.8 9.8 30.1 23.1 39.9 39.9 10 16.8 15 35.1 15 54.9 0 19.8-5 38.1-15 54.9-9.8 16.8-23.1 30.2-39.9 40.2-16.8 9.8-35.1 14.7-54.9 14.7Zm0-43.2c12.2 0 23.3-3 33.3-9 10.2-6 18.3-14 24.3-24 6-10.2 9-21.4 9-33.6 0-12.2-3-23.3-9-33.3-6-10.2-14.1-18.3-24.3-24.3-10-6-21.1-9-33.3-9-12.2 0-23.4 3-33.6 9-10 6-18 14.1-24 24.3-6 10-9 21.1-9 33.3 0 12.2 3 23.4 9 33.6 6 10 14 18 24 24 10.2 6 21.4 9 33.6 9Zm238.699 43.2c-19.8 0-38.1-4.9-54.9-14.7-16.8-10-30.2-23.4-40.2-40.2-9.8-16.8-14.7-35.1-14.7-54.9 0-19.8 4.9-38.1 14.7-54.9 10-16.8 23.4-30.1 40.2-39.9 16.8-10 35.1-15 54.9-15 19.8 0 38.1 5 54.9 15 16.8 9.8 30.1 23.1 39.9 39.9 10 16.8 15 35.1 15 54.9 0 19.8-5 38.1-15 54.9-9.8 16.8-23.1 30.2-39.9 40.2-16.8 9.8-35.1 14.7-54.9 14.7Zm0-43.2c12.2 0 23.3-3 33.3-9 10.2-6 18.3-14 24.3-24 6-10.2 9-21.4 9-33.6 0-12.2-3-23.3-9-33.3-6-10.2-14.1-18.3-24.3-24.3-10-6-21.1-9-33.3-9-12.2 0-23.4 3-33.6 9-10 6-18 14.1-24 24.3-6 10-9 21.1-9 33.3 0 12.2 3 23.4 9 33.6 6 10 14 18 24 24 10.2 6 21.4 9 33.6 9Zm238.696 43.2c-19.8 0-38.1-4.9-54.9-14.7-16.8-10-30.197-23.4-40.197-40.2-9.8-16.8-14.7-35.1-14.7-54.9 0-19.8 4.9-38.1 14.7-54.9 10-16.8 23.397-30.1 40.197-39.9 16.8-10 35.1-15 54.9-15 19.8 0 38.1 5 54.9 15 16.8 9.8 30.1 23.1 39.9 39.9 10 16.8 15 35.1 15 54.9 0 19.8-5 38.1-15 54.9-9.8 16.8-23.1 30.2-39.9 40.2-16.8 9.8-35.1 14.7-54.9 14.7Zm0-43.2c12.2 0 23.3-3 33.3-9 10.2-6 18.3-14 24.3-24 6-10.2 9-21.4 9-33.6 0-12.2-3-23.3-9-33.3-6-10.2-14.1-18.3-24.3-24.3-10-6-21.1-9-33.3-9-12.2 0-23.4 3-33.6 9-10 6-18 14.1-24 24.3-6 10-9 21.1-9 33.3 0 12.2 3 23.4 9 33.6 6 10 14 18 24 24 10.2 6 21.4 9 33.6 9Z"/><path fill="#00A1FF" d="M285.5 307h-43.2V146.8h-.3c-.2 1.2-.5 2.4-.9 3.6-.2 1.2-.5 2.4-.9 3.6-1.8 7-3.7 13.6-5.7 19.8-2 6-4 11.8-6 17.4L188.3 307h-43.8l-40.2-115.8c-1.4-3.8-2.7-7.7-3.9-11.7-1.2-4-2.5-8.1-3.9-12.3-1-3.2-1.9-6.3-2.7-9.3l-2.4-9.6h-.3V307H47.9V91h64.5l34.8 100.2c1.6 4.6 3.2 9.5 4.8 14.7 1.8 5.2 3.5 10.4 5.1 15.6l4.8 15.6c1.6 5 3.1 9.9 4.5 14.7h.3c1.4-4.8 2.8-9.7 4.2-14.7 1.6-5.2 3.2-10.5 4.8-15.9 1.6-5.2 3.2-10.3 4.8-15.3 1.6-5.2 3.2-10.1 4.8-14.7L220.4 91h65.1v216Zm139.65 1.8c-19.8 0-38.1-4.9-54.9-14.7-16.8-10-30.2-23.4-40.2-40.2-9.8-16.8-14.7-35.1-14.7-54.9 0-19.8 4.9-38.1 14.7-54.9 10-16.8 23.4-30.1 40.2-39.9 16.8-10 35.1-15 54.9-15 19.8 0 38.1 5 54.9 15 16.8 9.8 30.1 23.1 39.9 39.9 10 16.8 15 35.1 15 54.9 0 19.8-5 38.1-15 54.9-9.8 16.8-23.1 30.2-39.9 40.2-16.8 9.8-35.1 14.7-54.9 14.7Zm0-43.2c12.2 0 23.3-3 33.3-9 10.2-6 18.3-14 24.3-24 6-10.2 9-21.4 9-33.6 0-12.2-3-23.3-9-33.3-6-10.2-14.1-18.3-24.3-24.3-10-6-21.1-9-33.3-9-12.2 0-23.4 3-33.6 9-10 6-18 14.1-24 24.3-6 10-9 21.1-9 33.3 0 12.2 3 23.4 9 33.6 6 10 14 18 24 24 10.2 6 21.4 9 33.6 9Zm238.699 43.2c-19.8 0-38.1-4.9-54.9-14.7-16.8-10-30.2-23.4-40.2-40.2-9.8-16.8-14.7-35.1-14.7-54.9 0-19.8 4.9-38.1 14.7-54.9 10-16.8 23.4-30.1 40.2-39.9 16.8-10 35.1-15 54.9-15 19.8 0 38.1 5 54.9 15 16.8 9.8 30.1 23.1 39.9 39.9 10 16.8 15 35.1 15 54.9 0 19.8-5 38.1-15 54.9-9.8 16.8-23.1 30.2-39.9 40.2-16.8 9.8-35.1 14.7-54.9 14.7Zm0-43.2c12.2 0 23.3-3 33.3-9 10.2-6 18.3-14 24.3-24 6-10.2 9-21.4 9-33.6 0-12.2-3-23.3-9-33.3-6-10.2-14.1-18.3-24.3-24.3-10-6-21.1-9-33.3-9-12.2 0-23.4 3-33.6 9-10 6-18 14.1-24 24.3-6 10-9 21.1-9 33.3 0 12.2 3 23.4 9 33.6 6 10 14 18 24 24 10.2 6 21.4 9 33.6 9Zm238.699 43.2c-19.8 0-38.1-4.9-54.9-14.7-16.8-10-30.2-23.4-40.2-40.2-9.8-16.8-14.7-35.1-14.7-54.9 0-19.8 4.9-38.1 14.7-54.9 10-16.8 23.4-30.1 40.2-39.9 16.8-10 35.1-15 54.9-15 19.8 0 38.1 5 54.9 15 16.8 9.8 30.1 23.1 39.9 39.9 10.002 16.8 15.002 35.1 15.002 54.9 0 19.8-5 38.1-15.002 54.9-9.8 16.8-23.1 30.2-39.9 40.2-16.8 9.8-35.1 14.7-54.9 14.7Zm0-43.2c12.2 0 23.3-3 33.3-9 10.2-6 18.3-14 24.3-24 6-10.2 9-21.4 9-33.6 0-12.2-3-23.3-9-33.3-6-10.2-14.1-18.3-24.3-24.3-10-6-21.1-9-33.3-9-12.2 0-23.4 3-33.6 9-10 6-18 14.1-24 24.3-6 10-9 21.1-9 33.3 0 12.2 3 23.4 9 33.6 6 10 14 18 24 24 10.2 6 21.4 9 33.6 9Z"/><path fill="#012F7A" d="M145.5 57h-43.2v-160.2h-.3c-.2 1.2-.5 2.4-.9 3.6-.2 1.2-.5 2.4-.9 3.6-1.8 7-3.7 13.6-5.7 19.8-2 6-4 11.8-6 17.4L48.3 57H4.5L-35.7-58.8c-1.4-3.8-2.7-7.7-3.9-11.7-1.2-4-2.5-8.1-3.9-12.3-1-3.2-1.9-6.3-2.7-9.3l-2.4-9.6h-.3V57h-43.2v-216h64.5L7.2-58.8c1.6 4.6 3.2 9.5 4.8 14.7 1.8 5.2 3.5 10.4 5.1 15.6l4.8 15.6c1.6 5 3.1 9.9 4.5 14.7h.3c1.4-4.8 2.8-9.7 4.2-14.7 1.6-5.2 3.2-10.5 4.8-15.9 1.6-5.2 3.2-10.3 4.8-15.3 1.6-5.2 3.2-10.1 4.8-14.7L80.4-159h65.1V57Zm139.65 1.8c-19.8 0-38.1-4.9-54.9-14.7-16.8-10-30.2-23.4-40.2-40.2-9.8-16.8-14.7-35.1-14.7-54.9 0-19.8 4.9-38.1 14.7-54.9 10-16.8 23.4-30.1 40.2-39.9 16.8-10 35.1-15 54.9-15 19.8 0 38.1 5 54.9 15 16.8 9.8 30.1 23.1 39.9 39.9 10 16.8 15 35.1 15 54.9 0 19.8-5 38.1-15 54.9-9.8 16.8-23.1 30.2-39.9 40.2-16.8 9.8-35.1 14.7-54.9 14.7Zm0-43.2c12.2 0 23.3-3 33.3-9 10.2-6 18.3-14 24.3-24 6-10.2 9-21.4 9-33.6 0-12.2-3-23.3-9-33.3-6-10.2-14.1-18.3-24.3-24.3-10-6-21.1-9-33.3-9-12.2 0-23.4 3-33.6 9-10 6-18 14.1-24 24.3-6 10-9 21.1-9 33.3 0 12.2 3 23.4 9 33.6 6 10 14 18 24 24 10.2 6 21.4 9 33.6 9Zm238.699 43.2c-19.8 0-38.1-4.9-54.9-14.7-16.8-10-30.2-23.4-40.2-40.2-9.8-16.8-14.7-35.1-14.7-54.9 0-19.8 4.9-38.1 14.7-54.9 10-16.8 23.4-30.1 40.2-39.9 16.8-10 35.1-15 54.9-15 19.8 0 38.1 5 54.9 15 16.8 9.8 30.1 23.1 39.9 39.9 10 16.8 15 35.1 15 54.9 0 19.8-5 38.1-15 54.9-9.8 16.8-23.1 30.2-39.9 40.2-16.8 9.8-35.1 14.7-54.9 14.7Zm0-43.2c12.2 0 23.3-3 33.3-9 10.2-6 18.3-14 24.3-24 6-10.2 9-21.4 9-33.6 0-12.2-3-23.3-9-33.3-6-10.2-14.1-18.3-24.3-24.3-10-6-21.1-9-33.3-9-12.2 0-23.4 3-33.6 9-10 6-18 14.1-24 24.3-6 10-9 21.1-9 33.3 0 12.2 3 23.4 9 33.6 6 10 14 18 24 24 10.2 6 21.4 9 33.6 9Zm238.699 43.2c-19.8 0-38.1-4.9-54.9-14.7-16.8-10-30.2-23.4-40.2-40.2-9.8-16.8-14.7-35.1-14.7-54.9 0-19.8 4.9-38.1 14.7-54.9 10-16.8 23.4-30.1 40.2-39.9 16.8-10 35.1-15 54.9-15 19.8 0 38.1 5 54.9 15 16.8 9.8 30.1 23.1 39.9 39.9 10 16.8 15 35.1 15 54.9 0 19.8-5 38.1-15 54.9-9.8 16.8-23.1 30.2-39.9 40.2-16.8 9.8-35.1 14.7-54.9 14.7Zm0-43.2c12.2 0 23.3-3 33.3-9 10.2-6 18.3-14 24.3-24 6-10.2 9-21.4 9-33.6 0-12.2-3-23.3-9-33.3-6-10.2-14.1-18.3-24.3-24.3-10-6-21.1-9-33.3-9-12.2 0-23.4 3-33.6 9-10 6-18 14.1-24 24.3-6 10-9 21.1-9 33.3 0 12.2 3 23.4 9 33.6 6 10 14 18 24 24 10.2 6 21.4 9 33.6 9Z"/><path fill="#00A1FF" d="M47.9 1058.8c-19.8 0-38.1-4.9-54.9-14.7-16.8-10-30.2-23.4-40.2-40.2-9.8-16.8-14.7-35.1-14.7-54.9 0-19.8 4.9-38.1 14.7-54.9 10-16.8 23.4-30.1 40.2-39.9 16.8-10 35.1-15 54.9-15 19.8 0 38.1 5 54.9 15 16.8 9.8 30.1 23.1 39.9 39.9 10 16.8 15 35.1 15 54.9 0 19.8-5 38.1-15 54.9-9.8 16.8-23.1 30.2-39.9 40.2-16.8 9.8-35.1 14.7-54.9 14.7Zm0-43.2c12.2 0 23.3-3 33.3-9 10.2-6 18.3-14 24.3-24 6-10.2 9-21.4 9-33.6 0-12.2-3-23.3-9-33.3-6-10.2-14.1-18.3-24.3-24.3-10-6-21.1-9-33.3-9-12.2 0-23.4 3-33.6 9-10 6-18 14.1-24 24.3-6 10-9 21.1-9 33.3 0 12.2 3 23.4 9 33.6 6 10 14 18 24 24 10.2 6 21.4 9 33.6 9Zm238.699 43.2c-19.8 0-38.1-4.9-54.9-14.7-16.8-10-30.2-23.4-40.2-40.2-9.8-16.8-14.7-35.1-14.7-54.9 0-19.8 4.9-38.1 14.7-54.9 10-16.8 23.4-30.1 40.2-39.9 16.8-10 35.1-15 54.9-15 19.8 0 38.1 5 54.9 15 16.8 9.8 30.1 23.1 39.9 39.9 10 16.8 15 35.1 15 54.9 0 19.8-5 38.1-15 54.9-9.8 16.8-23.1 30.2-39.9 40.2-16.8 9.8-35.1 14.7-54.9 14.7Zm0-43.2c12.2 0 23.3-3 33.3-9 10.2-6 18.3-14 24.3-24 6-10.2 9-21.4 9-33.6 0-12.2-3-23.3-9-33.3-6-10.2-14.1-18.3-24.3-24.3-10-6-21.1-9-33.3-9-12.2 0-23.4 3-33.6 9-10 6-18 14.1-24 24.3-6 10-9 21.1-9 33.3 0 12.2 3 23.4 9 33.6 6 10 14 18 24 24 10.2 6 21.4 9 33.6 9Zm245.29-33.6c-8 0-14.9-2.9-20.7-8.7-5.8-5.8-8.7-12.7-8.7-20.7 0-8.2 2.8-15.1 8.4-20.7 5.8-5.8 12.8-8.7 21-8.7 8.8 0 15.9 2.9 21.3 8.7 5.4 5.6 8.1 12.5 8.1 20.7 0 8.4-2.9 15.4-8.7 21-5.8 5.6-12.7 8.4-20.7 8.4Zm384.045 75h-43.2V896.8h-.3c-.2 1.2-.5 2.4-.9 3.6-.2 1.2-.5 2.4-.9 3.6-1.8 7-3.7 13.6-5.7 19.8-2 6-4 11.8-6 17.4l-40.2 115.8h-43.8l-40.2-115.8c-1.4-3.8-2.7-7.7-3.9-11.7-1.2-4-2.5-8.1-3.9-12.3-1-3.2-1.9-6.3-2.7-9.3l-2.4-9.6h-.3V1057h-43.2V841h64.5l34.8 100.2c1.6 4.6 3.2 9.5 4.8 14.7 1.8 5.2 3.5 10.4 5.1 15.6l4.8 15.6c1.6 5 3.1 9.9 4.5 14.7h.3c1.4-4.8 2.8-9.7 4.2-14.7 1.6-5.2 3.2-10.5 4.8-15.9 1.6-5.2 3.2-10.3 4.8-15.3 1.6-5.2 3.2-10.1 4.8-14.7l35.1-100.2h65.1v216Zm139.646 1.8c-19.8 0-38.1-4.9-54.9-14.7-16.796-10-30.196-23.4-40.196-40.2-9.8-16.8-14.7-35.1-14.7-54.9 0-19.8 4.9-38.1 14.7-54.9 10-16.8 23.4-30.1 40.196-39.9 16.8-10 35.1-15 54.9-15 19.8 0 38.1 5 54.9 15 16.8 9.8 30.1 23.1 39.9 39.9 10 16.8 15 35.1 15 54.9 0 19.8-5 38.1-15 54.9-9.8 16.8-23.1 30.2-39.9 40.2-16.8 9.8-35.1 14.7-54.9 14.7Zm0-43.2c12.2 0 23.3-3 33.3-9 10.2-6 18.3-14 24.3-24 6-10.2 9-21.4 9-33.6 0-12.2-3-23.3-9-33.3-6-10.2-14.1-18.3-24.3-24.3-10-6-21.1-9-33.3-9-12.2 0-23.4 3-33.6 9-10 6-18 14.1-23.996 24.3-6 10-9 21.1-9 33.3 0 12.2 3 23.4 9 33.6 5.996 10 13.996 18 23.996 24 10.2 6 21.4 9 33.6 9Zm238.7 43.2c-19.8 0-38.1-4.9-54.9-14.7-16.8-10-30.2-23.4-40.2-40.2-9.8-16.8-14.7-35.1-14.7-54.9 0-19.8 4.9-38.1 14.7-54.9 10-16.8 23.4-30.1 40.2-39.9 16.8-10 35.1-15 54.9-15 19.8 0 38.1 5 54.9 15 16.8 9.8 30.1 23.1 39.9 39.9 10 16.8 15 35.1 15 54.9 0 19.8-5 38.1-15 54.9-9.8 16.8-23.1 30.2-39.9 40.2-16.8 9.8-35.1 14.7-54.9 14.7Zm0-43.2c12.2 0 23.3-3 33.3-9 10.2-6 18.3-14 24.3-24 6-10.2 9-21.4 9-33.6 0-12.2-3-23.3-9-33.3-6-10.2-14.1-18.3-24.3-24.3-10-6-21.1-9-33.3-9-12.2 0-23.4 3-33.6 9-10 6-18 14.1-24 24.3-6 10-9 21.1-9 33.3 0 12.2 3 23.4 9 33.6 6 10 14 18 24 24 10.2 6 21.4 9 33.6 9Zm238.7 43.2c-19.8 0-38.1-4.9-54.9-14.7-16.8-10-30.2-23.4-40.2-40.2-9.8-16.8-14.7-35.1-14.7-54.9 0-19.8 4.9-38.1 14.7-54.9 10-16.8 23.4-30.1 40.2-39.9 16.8-10 35.1-15 54.9-15 19.8 0 38.1 5 54.9 15 16.8 9.8 30.1 23.1 39.9 39.9 10 16.8 15 35.1 15 54.9 0 19.8-5 38.1-15 54.9-9.8 16.8-23.1 30.2-39.9 40.2-16.8 9.8-35.1 14.7-54.9 14.7Zm0-43.2c12.2 0 23.3-3 33.3-9 10.2-6 18.3-14 24.3-24 6-10.2 9-21.4 9-33.6 0-12.2-3-23.3-9-33.3-6-10.2-14.1-18.3-24.3-24.3-10-6-21.1-9-33.3-9-12.2 0-23.4 3-33.6 9-10 6-18 14.1-24 24.3-6 10-9 21.1-9 33.3 0 12.2 3 23.4 9 33.6 6 10 14 18 24 24 10.2 6 21.4 9 33.6 9Z"/><path fill="#012F7A" d="M-65.5 807h-43.2V646.8h-.3c-.2 1.2-.5 2.4-.9 3.6-.2 1.2-.5 2.4-.9 3.6-1.8 7-3.7 13.6-5.7 19.8-2 6-4 11.8-6 17.4L-162.7 807h-43.8l-40.2-115.8c-1.4-3.8-2.7-7.7-3.9-11.7-1.2-4-2.5-8.1-3.9-12.3-1-3.2-1.9-6.3-2.7-9.3l-2.4-9.6h-.3V807h-43.2V591h64.5l34.8 100.2c1.6 4.6 3.2 9.5 4.8 14.7 1.8 5.2 3.5 10.4 5.1 15.6l4.8 15.6c1.6 5 3.1 9.9 4.5 14.7h.3c1.4-4.8 2.8-9.7 4.2-14.7 1.6-5.2 3.2-10.5 4.8-15.9 1.6-5.2 3.2-10.3 4.8-15.3 1.6-5.2 3.2-10.1 4.8-14.7l35.1-100.2h65.1v216Zm139.65 1.8c-19.8 0-38.1-4.9-54.9-14.7-16.8-10-30.2-23.4-40.2-40.2-9.8-16.8-14.7-35.1-14.7-54.9 0-19.8 4.9-38.1 14.7-54.9 10-16.8 23.4-30.1 40.2-39.9 16.8-10 35.1-15 54.9-15 19.8 0 38.1 5 54.9 15 16.8 9.8 30.1 23.1 39.9 39.9 10 16.8 15 35.1 15 54.9 0 19.8-5 38.1-15 54.9-9.8 16.8-23.1 30.2-39.9 40.2-16.8 9.8-35.1 14.7-54.9 14.7Zm0-43.2c12.2 0 23.3-3 33.3-9 10.2-6 18.3-14 24.3-24 6-10.2 9-21.4 9-33.6 0-12.2-3-23.3-9-33.3-6-10.2-14.1-18.3-24.3-24.3-10-6-21.1-9-33.3-9-12.2 0-23.4 3-33.6 9-10 6-18 14.1-24 24.3-6 10-9 21.1-9 33.3 0 12.2 3 23.4 9 33.6 6 10 14 18 24 24 10.2 6 21.4 9 33.6 9Zm238.699 43.2c-19.8 0-38.1-4.9-54.9-14.7-16.8-10-30.2-23.4-40.2-40.2-9.8-16.8-14.7-35.1-14.7-54.9 0-19.8 4.9-38.1 14.7-54.9 10-16.8 23.4-30.1 40.2-39.9 16.8-10 35.1-15 54.9-15 19.8 0 38.1 5 54.9 15 16.8 9.8 30.1 23.1 39.9 39.9 10 16.8 15 35.1 15 54.9 0 19.8-5 38.1-15 54.9-9.8 16.8-23.1 30.2-39.9 40.2-16.8 9.8-35.1 14.7-54.9 14.7Zm0-43.2c12.2 0 23.3-3 33.3-9 10.2-6 18.3-14 24.3-24 6-10.2 9-21.4 9-33.6 0-12.2-3-23.3-9-33.3-6-10.2-14.1-18.3-24.3-24.3-10-6-21.1-9-33.3-9-12.2 0-23.4 3-33.6 9-10 6-18 14.1-24 24.3-6 10-9 21.1-9 33.3 0 12.2 3 23.4 9 33.6 6 10 14 18 24 24 10.2 6 21.4 9 33.6 9Zm238.699 43.2c-19.8 0-38.1-4.9-54.9-14.7-16.8-10-30.2-23.4-40.2-40.2-9.8-16.8-14.7-35.1-14.7-54.9 0-19.8 4.9-38.1 14.7-54.9 10-16.8 23.4-30.1 40.2-39.9 16.8-10 35.1-15 54.9-15 19.8 0 38.1 5 54.9 15 16.8 9.8 30.1 23.1 39.9 39.9 10 16.8 15 35.1 15 54.9 0 19.8-5 38.1-15 54.9-9.8 16.8-23.1 30.2-39.9 40.2-16.8 9.8-35.1 14.7-54.9 14.7Zm0-43.2c12.2 0 23.3-3 33.3-9 10.2-6 18.3-14 24.3-24 6-10.2 9-21.4 9-33.6 0-12.2-3-23.3-9-33.3-6-10.2-14.1-18.3-24.3-24.3-10-6-21.1-9-33.3-9-12.2 0-23.4 3-33.6 9-10 6-18 14.1-24 24.3-6 10-9 21.1-9 33.3 0 12.2 3 23.4 9 33.6 6 10 14 18 24 24 10.2 6 21.4 9 33.6 9Zm245.29-33.6c-8 0-14.9-2.9-20.7-8.7-5.8-5.8-8.7-12.7-8.7-20.7 0-8.2 2.8-15.1 8.4-20.7 5.8-5.8 12.8-8.7 21-8.7 8.8 0 15.9 2.9 21.3 8.7 5.4 5.6 8.1 12.5 8.1 20.7 0 8.4-2.9 15.4-8.7 21-5.8 5.6-12.7 8.4-20.7 8.4Z"/></g><defs><clipPath id="a"><path fill="#fff" d="M0 90C0 40.294 40.294 0 90 0h611c49.706 0 90 40.294 90 90v720c0 49.706-40.294 90-90 90H90c-49.706 0-90-40.294-90-90V90Z"/></clipPath></defs></svg>