<svg xmlns="http://www.w3.org/2000/svg" fill="none" viewBox="0 0 443 228"><g clip-path="url(#a)"><path fill="#DB971E" d="M0 101h443v127H0V101Z"/><path fill="#996815" d="M316.269 30.48v10.411h-8.108V30.48h8.108Zm0 44.629V85.52h-8.108V75.109h8.108ZM304.906 64.21c0 1.583.328 2.943.983 4.08a6.68 6.68 0 0 0 2.702 2.618c1.188.568 2.559.852 4.115.852 1.311 0 2.416-.223 3.317-.67.942-.487 1.638-1.096 2.088-1.826.492-.73.737-1.502.737-2.314 0-1.177-.43-2.192-1.289-3.044-.819-.893-2.007-1.522-3.563-1.888l-5.098-1.217c-3.603-.853-6.449-2.375-8.537-4.567-2.088-2.192-3.133-4.81-3.133-7.854 0-2.476.697-4.688 2.089-6.636 1.433-1.949 3.296-3.45 5.589-4.506a16.737 16.737 0 0 1 7.309-1.644c2.784 0 5.262.65 7.432 1.949 2.17 1.258 3.849 2.983 5.036 5.175 1.188 2.151 1.781 4.546 1.781 7.184h-8.721c0-1.745-.553-3.166-1.659-4.262-1.064-1.136-2.477-1.704-4.238-1.704-1.146 0-2.149.223-3.009.67-.819.446-1.454 1.014-1.904 1.704-.41.69-.614 1.4-.614 2.131 0 .893.307 1.705.921 2.435.614.69 1.617 1.198 3.01 1.523l4.975 1.217c4.299 1.056 7.493 2.659 9.581 4.81 2.129 2.151 3.194 4.932 3.194 8.341 0 2.639-.655 4.973-1.965 7.002-1.311 2.03-3.133 3.613-5.467 4.75-2.293 1.095-4.893 1.643-7.8 1.643-3.071 0-5.876-.65-8.415-1.948-2.539-1.3-4.565-3.146-6.08-5.54-1.515-2.436-2.273-5.257-2.273-8.464h8.906Z"/><path fill="#DB971E" fill-rule="evenodd" d="M-.5 15H127c16.016 0 29 12.984 29 29v15.951l67.779-30.233C243.621 20.867 266 35.388 266 57.116V101h-30V57.116l-67.779 30.233C148.378 96.2 126 81.68 126 59.951V45H-.5V15Z" clip-rule="evenodd"/><path fill="#996815" d="M266 166h24l-39 36-39-36h24v-44h30v44Zm-6-57h6v6h-6v-6Zm12 0h6v6h-6v-6Zm12 0h6v6h-6v-6Zm-36 0h6v6h-6v-6Zm-12 0h6v6h-6v-6Zm-12 0h6v6h-6v-6Zm-12 0h6v6h-6v-6Z"/></g><defs><clipPath id="a"><path fill="#fff" d="M0 0h443v228H0z"/></clipPath></defs></svg>