<svg xmlns="http://www.w3.org/2000/svg" fill="none" viewBox="0 0 443 246"><g clip-path="url(#a)"><mask id="b" width="443" height="246" x="0" y="0" maskUnits="userSpaceOnUse" style="mask-type:luminance"><path fill="#fff" d="M0 0h443v246H0V0Z"/></mask><g mask="url(#b)"><path fill="#fff" d="m57 33 33.875 25.906L124.75 33l33.875 25.906L192.5 33l33.875 25.906L260.25 33l33.875 25.906L328 33v213H57V33Z"/><path fill="#FAEFDD" d="M140 94h106v21H140V94Zm50 53h91v21h-91v-21Zm0 39h91v21h-91v-21Zm-85 39h176v21H105v-21Z"/><path fill="#E5D0AC" d="M105 177c0-16.569 13.431-30 30-30h12v60h-12c-16.569 0-30-13.431-30-30Z"/><path fill="#FAEFDD" d="M117 177c0 16.569 13.431 30 30 30 16.569 0 30-13.431 30-30 0-16.569-13.431-30-30-30-16.569 0-30 13.431-30 30Z"/></g></g><defs><clipPath id="a"><path fill="#fff" d="M0 0h443v246H0z"/></clipPath></defs></svg>