<svg fill="none" height="21" viewBox="0 0 21 21" width="21" xmlns="http://www.w3.org/2000/svg"><path d="m11.925 9.0502-4.25-4.25 1.425-1.4 2.825 2.825 5.675-5.650005 1.4 1.400005zm1.075 11.45-7-1.95v1.45h-6v-11h7.95l6.2 2.3c.55.2.996.55 1.338 1.05.3413.5.512 1.05.512 1.65h2c.8333 0 1.5417.275 2.125.825s.875 1.275.875 2.175v1zm-11-2.5h2v-7h-2zm10.95.4 5.95-1.85c-.05-.1833-.1627-.321-.338-.413-.1747-.0913-.362-.137-.562-.137h-4.8c-.5167 0-.9833-.0333-1.4-.1s-.8667-.1833-1.35-.35l-1.725-.6.575-1.9 2 .65c.3.1.65.175 1.05.225s.95.075 1.65.075c0-.1833-.054-.3583-.162-.525-.1087-.1667-.238-.275-.388-.325l-5.85-2.15h-1.6v5.5z" fill="#1c1b1f"/></svg>