<svg xmlns="http://www.w3.org/2000/svg" fill="none" viewBox="0 0 22 22"><path fill="currentColor" d="M11 17.485c1.8 0 3.332-.63 4.593-1.891 1.26-1.261 1.891-2.793 1.891-4.594 0-1.527-.47-2.876-1.413-4.048-.942-1.172-2.154-1.929-3.636-2.27a.996.996 0 0 0-.809.244.97.97 0 0 0-.345.765v5.417l-3.825 3.826a.975.975 0 0 0-.306.804.985.985 0 0 0 .412.736c.502.36 1.048.619 1.639.776a6.98 6.98 0 0 0 1.798.235Zm.001 4.23c-1.482 0-2.874-.282-4.178-.844a10.823 10.823 0 0 1-3.403-2.29 10.82 10.82 0 0 1-2.29-3.401 10.428 10.428 0 0 1-.845-4.178c0-1.482.281-2.875.844-4.179a10.823 10.823 0 0 1 2.29-3.402 10.818 10.818 0 0 1 3.4-2.291 10.427 10.427 0 0 1 4.179-.844c1.481 0 2.874.281 4.178.843a10.822 10.822 0 0 1 3.403 2.29 10.816 10.816 0 0 1 2.29 3.401c.563 1.304.845 2.696.845 4.178 0 1.482-.281 2.875-.844 4.179a10.824 10.824 0 0 1-2.29 3.403 10.82 10.82 0 0 1-3.4 2.29 10.429 10.429 0 0 1-4.179.844ZM11 20.022c2.52 0 4.653-.874 6.4-2.623 1.749-1.748 2.623-3.881 2.623-6.4 0-2.519-.874-4.652-2.622-6.4-1.748-1.748-3.882-2.623-6.4-2.623-2.52 0-4.653.875-6.4 2.623C2.849 6.348 1.976 8.48 1.976 11c0 2.519.874 4.652 2.622 6.4 1.748 1.749 3.882 2.623 6.4 2.623Z"/></svg>