<svg xmlns="http://www.w3.org/2000/svg" width="64" height="64" fill="none" viewBox="0 0 64 64"><path fill="#55a51a" d="M61.18 31.4c-.94 2.977-3.69 5.1-6.798 5.1h-2.97L48.101 47l-1.576 5c-.94 2.977-3.69 5-6.799 5H24.274a7.14 7.14 0 0 1-6.8-5l-1.575-5-3.31-10.5h-2.97c-3.108 0-5.859-2.123-6.799-5.1L0 22.5h10.743L5 14h54l-5.743 8.5H64zM24.5 28c-2.116 0-3.832 1.941-3.832 4.25s1.716 4.25 3.832 4.25 3.832-1.941 3.832-4.25S26.616 28 24.5 28m15 0c-2.117 0-3.832 1.941-3.832 4.25s1.715 4.25 3.832 4.25 3.832-1.941 3.832-4.25S41.617 28 39.5 28"/></svg>