<svg height="1152pt" preserveAspectRatio="xMidYMid meet" viewBox="0 0 1152 1152" width="1152pt" xmlns="http://www.w3.org/2000/svg"><path d="m936 9573c76-118 90-139 94-143 14-14 80-121 80-130 0-5 3-10 8-10 4 0 20-21 37-48 16-26 33-51 38-57 26-33 357-538 357-545 0-4 4-10 8-12 5-1 49-64 97-138 49-74 93-136 97-138s8-8 8-13 34-58 75-119 75-115 75-120c0-6 5-10 10-10 6 0 10-6 10-13 0-10-186-12-952-12-524 0-958-1-965-3-11-4-11-11 4-49 3-10 7-22 8-28 1-5 10-32 20-60 9-27 19-61 22-75 2-13 8-29 13-35s11-22 13-35c2-14 7-32 10-40s33-103 67-210 72-226 85-265c13-38 26-81 29-95 6-29 64-205 76-235 5-11 12-31 15-45 14-51 128-408 157-490 17-47 44-112 60-145 106-213 324-441 523-545 33-17 65-36 72-42s13-7 13-3 6 3 13-3c21-17 181-70 263-87 117-24 172-27 497-28 325 0 309 3 321-58 2-13 11-42 19-64 14-37 71-214 72-225 1-3 21-66 45-140s44-137 45-140c1-8 26-83 32-100 3-8 7-20 9-27 3-15 123-393 131-413 3-8 5-19 4-24-1-4 3-13 8-20 5-6 12-23 15-36 4-24 11-46 24-80 3-8 6-17 7-20 4-12 29-96 31-105 2-5 10-30 19-55s19-53 21-63c9-37 46-158 61-197 4-8 7-17 8-20 0-3 9-32 20-65 10-33 19-63 21-67 1-5 2-9 4-10 1-2 3-10 5-18s13-44 25-80c33-101 81-253 85-273 2-9 7-23 12-30 4-6 8-17 9-24 2-13 31-107 41-133 7-18 10-28 17-55 2-11 18-61 35-112s31-99 31-108c0-8 5-15 10-15 6 0 10-6 10-14s10-36 22-63c12-26 22-50 22-53 1-3 4-9 8-15 3-5 15-26 26-46 42-75 47-84 53-89 3-3 20-26 37-51 61-90 295-309 331-309 4 0 16-9 26-20s20-18 23-15c3 2 17-3 31-13 59-39 221-106 277-115 10-1 24-5 29-9 6-3 29-9 53-13 23-4 54-9 70-13 15-3 713-7 1552-8 1307-3 1537-1 1610 12 47 8 96 16 110 18 74 12 261 89 348 143 29 18 55 33 58 33 8 0 88 63 92 72 2 5 8 8 12 8 15 0 164 152 212 215 66 87 133 208 172 308 19 48 32 87 29 87s-1 6 4 12c9 11 14 26 29 83 1 6 14 46 29 90s28 85 29 90c1 6 4 15 8 20 3 6 9 26 13 45s10 40 13 45c4 6 7 15 8 20 2 10 26 86 124 390 29 88 53 165 54 170 2 6 19 62 39 125s37 118 37 123c0 4 7 21 15 37s15 31 14 32c-2 4 42 149 77 253 15 44 28 87 29 95s8 29 14 45c7 17 14 37 16 45s10 35 18 60c30 90 69 215 71 225 1 6 7 24 13 40 6 17 37 111 68 210s68 214 81 255 24 78 24 82c1 4 7 23 16 43 8 19 12 35 10 35-3 0 2 12 9 28l15 27 314 2c173 0 334 4 358 8 24 3 59 8 78 11 19 2 43 7 52 10s27 7 40 9c48 9 183 58 190 69 4 6 8 8 8 4 0-12 116 50 210 111 88 57 271 231 305 289 11 17 23 32 27 32s8 7 8 15 3 15 8 15c4 0 12 9 17 19 96 184 118 230 130 277 2 7 20 63 40 125 21 63 38 119 40 124 1 6 5 17 8 25 18 48 51 156 49 163-1 4 5 21 13 37 9 16 15 31 14 32-1 2 7 32 19 68s22 70 23 75c1 6 7 26 14 45 8 19 39 116 70 215s58 186 60 193c3 7 5 14 5 17s6 21 14 40 12 35 9 35 0 7 7 15 9 15 5 15-2 7 5 15 10 15 7 15 4 28 17 63c12 34 23 65 24 69 3 11 8 24 33 103 12 39 22 76 22 83 0 6 4 12 9 12s6 5 3 10c-4 6-1 18 6 26 9 11 9 18 2 22-6 4-441 7-967 7s-956 2-956 5 16 29 35 57c19 29 35 57 35 62s4 11 8 13 53 71 107 153c54 83 102 152 107 153 4 2 8 8 8 14 0 5 11 24 25 42s25 38 25 44 4 12 8 14c5 2 36 46 70 98s68 104 76 115c41 57 306 460 306 466 0 4 3 9 8 11 6 2 75 104 176 261l18 27h-4842-4842zm3533-2539c25-2 53-5 61-7 113-28 168-52 250-111 65-47 157-140 165-167 4-10 11-19 16-19s9-7 9-15 3-15 8-15c4 0 13-15 21-32 8-18 22-51 32-73 25-57 51-153 45-164-4-5-2-12 3-16 13-7 12-211-1-267-5-23-11-51-13-61-19-92-97-235-171-314-19-19-34-40-34-44 0-5-4-9-10-9-5 0-19-8-29-17-78-71-170-114-316-149-29-7-164-7-200 0-70 13-81 16-110 27-135 52-215 109-317 227-16 18-28 36-28 40 0 5-9 17-20 27s-17 21-15 25c3 4-3 18-13 31-19 25-43 85-63 159-18 65-20 83-23 197-2 81 2 121 20 195 23 90 81 228 97 228 4 0 7 7 7 15s5 15 10 15c6 0 10 5 10 11s6 16 13 24c7 7 24 26 38 42 100 119 320 226 453 219 20-1 36 2 36 7 0 4 5 5 11 1 6-3 32-8 58-10zm2723 0c114-9 242-65 343-148 139-114 224-264 261-456 14-74 11-233-6-300-6-25-13-56-16-70-3-13-10-30-16-37s-8-13-4-13c11 0-61-135-99-185-88-115-200-199-320-240-72-24-183-44-222-39-10 1-43 5-73 8-79 8-175 40-249 83-69 41-201 159-201 180 0 7-4 13-8 13-5 0-27 33-50 73-42 74-78 169-88 233-3 20-8 46-10 58-12 63-3 217 18 291 7 22 12 42 13 45 12 54 55 142 108 219 36 53 143 158 168 166 11 4 19 10 19 14 0 7 32 25 55 31 6 1 22 11 37 21 14 10 34 19 43 19s24 4 34 10c23 12 73 21 128 24 24 2 46 5 49 9 4 4 11 4 15 1 5-3 37-7 71-10z" transform="matrix(.1 0 0 -.1 0 1152)"/></svg>