<svg width="150" height="150" viewBox="0 0 150 150" fill="none" xmlns="http://www.w3.org/2000/svg">
<circle cx="75" cy="75" r="75" fill="#F2CD16"/>
<path fill-rule="evenodd" clip-rule="evenodd" d="M103.018 22.4678C115.292 22.4678 125.243 32.4183 125.243 44.693C125.243 56.9676 115.292 66.9182 103.018 66.9182C95.6622 66.9182 89.1501 63.3426 85.1076 57.8478L65.5105 67.3286C66.2505 69.7554 66.649 72.3312 66.649 75.0001C66.649 77.6677 66.2498 80.2419 65.5105 82.6676L85.1076 92.1505C89.1502 86.6564 95.6628 83.082 103.018 83.082C115.292 83.082 125.243 93.0326 125.243 105.307C125.243 117.582 115.292 127.532 103.018 127.532C90.7429 127.532 80.7924 117.582 80.7924 105.307C80.7924 103.273 81.0674 101.3 81.5816 99.4234L61.9846 89.9406C57.2432 96.783 49.3378 101.266 40.3829 101.266C25.8765 101.266 14.1167 89.5065 14.1167 75.0001C14.1167 60.4937 25.8765 48.7339 40.3829 48.7339C49.3367 48.7339 57.243 53.2148 61.9846 60.0557L81.5816 50.5749C81.0678 48.6988 80.7924 46.7261 80.7924 44.693C80.7924 32.4183 90.7429 22.4678 103.018 22.4678ZM103.018 91.1639C97.4213 91.1639 92.5759 94.4136 90.2811 99.1471C89.3808 101.004 88.8742 103.091 88.8742 105.307C88.8742 113.118 95.2064 119.451 103.018 119.451C110.829 119.451 117.161 113.118 117.161 105.307C117.161 97.4961 110.829 91.1639 103.018 91.1639ZM103.018 30.5497C95.2064 30.5497 88.8742 36.8818 88.8742 44.693C88.8742 46.9091 89.3808 48.996 90.2811 50.8531C92.5759 55.5866 97.4213 58.8363 103.018 58.8363C110.829 58.8363 117.161 52.5041 117.161 44.693C117.161 36.8818 110.829 30.5497 103.018 30.5497Z" fill="#544003"/>
<path d="M43.0239 56.7528L43.0213 60.4859C43.7977 60.7016 44.5273 61.0184 45.2098 61.437C46.6156 62.2723 47.7028 63.4169 48.4713 64.8707C49.2398 66.2976 49.6235 67.8856 49.6223 69.6349L43.9702 69.6308C43.971 68.4736 43.6134 67.5314 42.8974 66.8043C42.208 66.0503 41.2929 65.6728 40.1518 65.672C39.4088 65.6715 38.7585 65.819 38.2011 66.1146C37.6702 66.4103 37.2586 66.7867 36.9664 67.244C36.7007 67.7013 36.5677 68.1722 36.5674 68.6566C36.5669 69.2487 36.7656 69.7871 37.1633 70.2718C37.561 70.7296 38.2109 71.0665 39.113 71.2824L42.3365 72.0921C45.1222 72.7938 47.1913 73.8583 48.5436 75.2856C49.9224 76.7129 50.6111 78.5569 50.6095 80.8175C50.6083 82.5667 50.1826 84.1139 49.3325 85.4589C48.4824 86.8038 47.3008 87.8526 45.7877 88.605C44.9256 89.0258 43.9966 89.324 43.0009 89.5003L42.9983 93.2452L37.7442 93.2414L37.7469 89.3344C36.8854 89.1189 36.063 88.8061 35.2798 88.3955C33.6352 87.5331 32.3225 86.3077 31.3418 84.7192C30.3611 83.1038 29.8716 81.233 29.8731 79.107L35.6445 79.1112C35.6438 80.1608 35.8555 81.0625 36.2795 81.8163C36.7036 82.5701 37.2869 83.1492 38.0296 83.5534C38.7989 83.9307 39.6878 84.1198 40.6961 84.1205C41.5452 84.1211 42.2618 83.9736 42.8457 83.678C43.4563 83.3555 43.9077 82.9521 44.2 82.4679C44.5187 81.9837 44.6783 81.4725 44.6787 80.9343C44.6792 80.1538 44.401 79.4808 43.8442 78.9153C43.3139 78.3229 42.5447 77.9051 41.5365 77.6622L38.2333 76.8525C35.8986 76.2857 34.0551 75.2751 32.7028 73.8209C31.3505 72.3667 30.675 70.6304 30.6765 68.612C30.6776 66.9704 31.1298 65.504 32.0329 64.2129C32.9626 62.9218 34.1707 61.9269 35.6572 61.2283C36.3409 60.8946 37.0443 60.6379 37.7672 60.4579L37.7699 56.749L43.0239 56.7528Z" fill="#FEF9D0"/>
</svg>
