<svg width="70" height="70" viewBox="0 0 70 70" fill="none" xmlns="http://www.w3.org/2000/svg">
  <circle cx="35" cy="35" r="35" fill="#3FC4FF" fill-opacity="0.3"/>
  <path d="M35 50.1316C39.2032 50.1316 42.7759 48.6604 45.7182 45.7182C48.6604 42.7759 50.1316 39.2032 50.1316 35C50.1316 31.4373 49.0325 28.2887 46.8345 25.5542C44.6365 22.8197 41.8084 21.0544 38.3503 20.2581C37.6283 20.1704 36.999 20.3602 36.4626 20.8275C35.9262 21.2947 35.658 21.8893 35.658 22.6114V35.253L26.7308 44.1802C26.1944 44.7166 25.9565 45.3416 26.0173 46.0552C26.078 46.7687 26.3985 47.3414 26.9788 47.7733C28.1495 48.6134 29.4244 49.2164 30.8035 49.5825C32.1827 49.9485 33.5815 50.1316 35 50.1316ZM35.0044 60C31.5467 60 28.2966 59.3439 25.2541 58.0316C22.2116 56.7193 19.5651 54.9384 17.3145 52.6888C15.0639 50.4392 13.2821 47.7938 11.9693 44.7527C10.6564 41.7116 10 38.4621 10 35.0044C10 31.5467 10.6561 28.2966 11.9684 25.2541C13.2807 22.2116 15.0616 19.5651 17.3112 17.3145C19.5608 15.0639 22.2062 13.2821 25.2473 11.9693C28.2884 10.6564 31.5379 10 34.9956 10C38.4533 10 41.7034 10.6561 44.7459 11.9684C47.7884 13.2807 50.4349 15.0616 52.6855 17.3112C54.9361 19.5608 56.7179 22.2062 58.0307 25.2473C59.3436 28.2885 60 31.5379 60 34.9956C60 38.4533 59.3439 41.7034 58.0316 44.7459C56.7193 47.7884 54.9384 50.4349 52.6888 52.6855C50.4392 54.9361 47.7938 56.7179 44.7527 58.0307C41.7116 59.3436 38.4621 60 35.0044 60ZM35 56.0527C40.8772 56.0527 45.8553 54.0132 49.9342 49.9342C54.0132 45.8553 56.0527 40.8772 56.0527 35C56.0527 29.1228 54.0132 24.1447 49.9342 20.0658C45.8553 15.9868 40.8772 13.9473 35 13.9473C29.1228 13.9473 24.1447 15.9868 20.0658 20.0658C15.9868 24.1447 13.9473 29.1228 13.9473 35C13.9473 40.8772 15.9868 45.8553 20.0658 49.9342C24.1447 54.0132 29.1228 56.0527 35 56.0527Z" fill="#00A1FF"/>
</svg>
