<svg width="70" height="70" viewBox="0 0 70 70" fill="none" xmlns="http://www.w3.org/2000/svg">
  <circle cx="35" cy="35" r="35" fill="#DB971E" fill-opacity="0.2"/>
  <path d="M35 39.4444C33.7778 39.4444 32.7315 39.0093 31.8611 38.1389C30.9907 37.2685 30.5556 36.2222 30.5556 35C30.5556 33.7778 30.9907 32.7315 31.8611 31.8611C32.7315 30.9907 33.7778 30.5556 35 30.5556C36.2222 30.5556 37.2685 30.9907 38.1389 31.8611C39.0093 32.7315 39.4444 33.7778 39.4444 35C39.4444 36.2222 39.0093 37.2685 38.1389 38.1389C37.2685 39.0093 36.2222 39.4444 35 39.4444ZM35 55C29.8519 55 25.3889 53.3056 21.6111 49.9167C17.8333 46.5278 15.6667 42.2963 15.1111 37.2222H19.6667C20.1852 41.0741 21.8981 44.2593 24.8056 46.7778C27.713 49.2963 31.1111 50.5556 35 50.5556C39.3333 50.5556 43.0093 49.0463 46.0278 46.0278C49.0463 43.0093 50.5556 39.3333 50.5556 35C50.5556 30.6667 49.0463 26.9907 46.0278 23.9722C43.0093 20.9537 39.3333 19.4444 35 19.4444C32.4444 19.4444 30.0556 20.037 27.8333 21.2222C25.6111 22.4074 23.7407 24.037 22.2222 26.1111H28.3333V30.5556H15V17.2222H19.4444V22.4444C21.3333 20.0741 23.6389 18.2407 26.3611 16.9444C29.0833 15.6481 31.963 15 35 15C37.7778 15 40.3796 15.5278 42.8056 16.5833C45.2315 17.6389 47.3426 19.0648 49.1389 20.8611C50.9352 22.6574 52.3611 24.7685 53.4167 27.1944C54.4722 29.6204 55 32.2222 55 35C55 37.7778 54.4722 40.3796 53.4167 42.8056C52.3611 45.2315 50.9352 47.3426 49.1389 49.1389C47.3426 50.9352 45.2315 52.3611 42.8056 53.4167C40.3796 54.4722 37.7778 55 35 55Z" fill="#DB971E"/>
</svg>
