<svg xmlns="http://www.w3.org/2000/svg" fill="none" viewBox="0 0 11 12"><path fill="#6C80A3" d="M1.8 12c-.5 0-.925-.175-1.275-.525A1.736 1.736 0 0 1 0 10.2V8.4h1.8V0l.9.9.9-.9.9.9.9-.9.9.9.9-.9.9.9L9 0l.9.9.9-.9v10.2c0 .5-.175.925-.525 1.275C9.925 11.825 9.5 12 9 12H1.8ZM9 10.8a.58.58 0 0 0 .428-.173.58.58 0 0 0 .172-.427V1.8H3v6.6h5.4v1.8c0 .17.057.313.172.428A.58.58 0 0 0 9 10.8ZM3.6 4.2V3h3.6v1.2H3.6Zm0 1.8V4.8h3.6V6H3.6Zm4.8-1.8a.58.58 0 0 1-.428-.173A.58.58 0 0 1 7.8 3.6a.58.58 0 0 1 .173-.428A.58.58 0 0 1 8.4 3a.58.58 0 0 1 .428.172A.58.58 0 0 1 9 3.6a.58.58 0 0 1-.172.427.58.58 0 0 1-.428.173Zm0 1.8a.58.58 0 0 1-.428-.173A.58.58 0 0 1 7.8 5.4a.58.58 0 0 1 .173-.428A.58.58 0 0 1 8.4 4.8a.58.58 0 0 1 .428.173A.58.58 0 0 1 9 5.4a.58.58 0 0 1-.172.427A.58.58 0 0 1 8.4 6Zm-6.6 4.8h5.4V9.6h-6v.6c0 .17.058.313.173.428a.58.58 0 0 0 .427.172Z"/></svg>