<svg xmlns="http://www.w3.org/2000/svg" fill="none" viewBox="0 0 33 33"><path fill="#007B28" fill-rule="evenodd" d="M16.5 33C25.613 33 33 25.613 33 16.5S25.613 0 16.5 0 0 7.387 0 16.5 7.387 33 16.5 33Zm-2.31-11.19c1.338 1.339 2.972 2.008 4.9 2.008 1.93 0 3.563-.67 4.902-2.008S26 18.838 26 16.91c0-1.93-.67-3.563-2.008-4.902C22.653 10.669 21.02 10 19.091 10c-1.929 0-3.563.67-4.901 2.008-1.339 1.339-2.008 2.972-2.008 4.901 0 1.929.67 3.563 2.008 4.901Zm-5.743-.67a6.82 6.82 0 0 0 3.735 2.462V21.79a5.016 5.016 0 0 1-2.505-1.879 5.063 5.063 0 0 1-.95-3c0-1.11.317-2.11.95-3.002a5.017 5.017 0 0 1 2.505-1.878v-1.814a6.819 6.819 0 0 0-3.735 2.461C7.482 13.915 7 15.326 7 16.91c0 1.583.482 2.994 1.447 4.232Zm14.314-.56c-1.007 1.007-2.23 1.51-3.67 1.51s-2.663-.503-3.67-1.51c-1.008-1.008-1.512-2.231-1.512-3.67 0-1.44.504-2.664 1.511-3.671 1.008-1.008 2.231-1.512 3.67-1.512 1.44 0 2.664.504 3.671 1.512 1.008 1.007 1.512 2.23 1.512 3.67s-.504 2.663-1.512 3.67Z" clip-rule="evenodd"/></svg>