<svg fill="none" height="36" viewBox="0 0 40 36" width="40" xmlns="http://www.w3.org/2000/svg"><path d="m24.7582-.0000004h-10.1344c-.3387 0-.61.2811784-.6174.6306834-.2047 9.824217-5.18406 19.148517-13.754507 25.753017-.2720976.2096-.3340876.6035-.135159.8872l5.929496 8.4631c.20173.288.59476.353.87143.1414 5.35884-4.1026 9.66924-9.0518 12.77334-14.5374 3.1041 5.4856 7.4147 10.4348 12.7736 14.5374.2764.2116.6695.1466.8715-.1414l5.9295-8.4631c.1986-.2837.1366-.6776-.1352-.8872-8.5707-6.6045-13.55-15.9288-13.7545-25.753017-.0074-.349505-.279-.6306834-.6177-.6306834z" fill="#ff875b"/></svg>