<svg width="432" height="64" viewBox="0 0 432 64" fill="none" xmlns="http://www.w3.org/2000/svg">
<path d="M432 56.0001H423.908V20.5041L408.88 56.0001H401.808L386.916 20.6401V56.0001H378.96V7.78809H389.84L405.48 44.5761L420.916 7.78809H432V56.0001Z" fill="#F6F2E7"/>
<path d="M367.387 56.0001H359.295V20.5041L344.267 56.0001H337.195L322.303 20.6401V56.0001H314.347V7.78809H325.227L340.867 44.5761L356.303 7.78809H367.387V56.0001Z" fill="#F6F2E7"/>
<path d="M298.983 56.0001L294.427 43.8961H274.027L269.539 56.0001H260.903L279.671 7.78809H289.123L307.891 56.0001H298.983ZM284.227 16.6281L276.883 36.3481H291.571L284.227 16.6281Z" fill="#F6F2E7"/>
<path d="M224.615 43.2841L234.067 7.78809H242.499L228.967 56.0001H220.535L208.839 19.5521L197.143 56.0001H188.779L175.111 7.78809H183.679L193.335 43.0121L204.623 7.78809H213.123L224.615 43.2841Z" fill="#F6F2E7"/>
<path d="M157.22 49.948C162.116 49.948 166.468 46.344 166.468 39.408C166.468 32.54 162.116 29.004 157.22 29.004C152.392 29.004 147.972 32.54 147.972 39.408C147.972 46.276 152.392 49.948 157.22 49.948ZM157.22 21.864C167.148 21.864 174.424 29.276 174.424 39.408C174.424 49.608 167.148 57.02 157.22 57.02C147.36 57.02 140.084 49.608 140.084 39.408C140.084 29.276 147.36 21.864 157.22 21.864Z" fill="#F6F2E7"/>
<path d="M112.393 57.0201C99.4048 57.0201 88.0488 47.6361 88.0488 31.9281C88.0488 16.2201 99.8128 6.76807 112.325 6.76807C124.565 6.76807 131.841 13.9761 134.017 22.4081L126.333 24.9921C124.905 19.1441 120.417 14.4521 112.325 14.4521C104.369 14.4521 96.4128 20.2321 96.4128 31.9281C96.4128 43.2161 104.165 49.2001 112.393 49.2001C120.485 49.2001 125.109 44.0321 126.741 38.5921L134.221 41.0401C132.045 49.2001 124.701 57.0201 112.393 57.0201Z" fill="#F6F2E7"/>
<path d="M64 0H52.2842C48.041 0 43.9707 1.68579 40.9707 4.68628L28.6865 16.9705C24.1855 21.4714 18.0811 24 11.7158 24H0V40H11.7158C15.959 40 20.0293 38.3142 23.0293 35.3137L35.3135 23.0295C39.8145 18.5286 45.9189 16 52.2842 16H64V0Z" fill="#F6F2E7"/>
<path d="M64 24H52.2842C48.041 24 43.9707 25.6858 40.9707 28.6863L28.6865 40.9705C24.1855 45.4714 18.0811 48 11.7158 48H0V64H11.7158C15.959 64 20.0293 62.3142 23.0293 59.3137L35.3135 47.0295C39.8145 42.5286 45.9189 40 52.2842 40H64V24Z" fill="#F6F2E7"/>
<path d="M64 48H52.2842C48.041 48 43.9707 49.6858 40.9707 52.6863L29.6572 64H64V48Z" fill="#F6F2E7"/>
<path d="M0 16H11.7158C15.959 16 20.0293 14.3142 23.0293 11.3137L34.3428 0H0V16Z" fill="#F6F2E7"/>
</svg>
