<svg width="156" height="58" viewBox="0 0 156 58" fill="none" xmlns="http://www.w3.org/2000/svg">
<linearGradient id="a" gradientUnits="userSpaceOnUse" x1="87" x2="406.558" y1="440" y2="103.193">
  <stop offset="0" stop-color="#ffe7e0"></stop>
  <stop offset="0.3438" stop-color="#f8dbf4"></stop>
  <stop offset="0.6875" stop-color="#c4ddff"></stop>
  <stop offset="1" stop-color="#cae9ff"></stop>
</linearGradient>
<circle cx="134.668" cy="30.909" fill="#052b65" r="21.096" style=""></circle>
<g fill="url(#a)" transform="matrix(0.082409, 0, 0, 0.082409, 113.571068, 9.813292)" style="">
  <path d="m255.639 305.398c-64.456 0-116.705 30.131-116.705 67.302 0 37.17 52.249 67.3 116.705 67.3s116.704-30.131 116.704-67.3c0-37.17-52.251-67.302-116.704-67.302zm-56.034 75.948c-11.83 5.782-22.847 0-24.96-13.111-2.316-14.046 16.585-47.428 20.935-22.185 4.347 25.241 23.699-10.056 23.818 5.741-.647 12.754-8.254 24.115-19.793 29.555zm144.104-13.111c-2.112 13.111-13.129 18.893-24.956 13.111-11.542-5.44-19.149-16.801-19.793-29.555.118-15.797 19.468 19.5 23.818-5.741 4.347-25.243 23.245 8.139 20.931 22.185z"></path>
  <path d="m424.031 149.568c-3.348-23.966-84.293-6.874-94.812-5.063-.54.092-1.045-.369-.934-.905 1.07-5.371 1.845-19.89-8.425-23.034-6.566-2.011-10.895 1.7-13.465 5.444-1.15 1.68-4.593 8.94-6.732 13.981-1.152 2.721-3.836 6.699-6.788 6.627-12.377-3.858-24.808-5.788-37.236-5.788-12.431 0-24.862 1.93-37.239 5.788-2.952.072-5.638-3.906-6.791-6.627-2.138-5.041-5.581-12.301-6.732-13.981-2.568-3.744-6.896-7.455-13.462-5.444-10.27 3.144-9.498 17.663-8.425 23.034.108.536-.396.997-.934.905-10.519-1.811-91.4642-18.903-94.8145 5.063-3.1779 22.732 25.5285 54.082 55.5655 68.171 2.9 1.36 5.206 3.658 8.015 5.188 4.727 2.577 7.548 9.008 6.855 14.808v83.713l10.967-6.3c16.716-9.59 34.165-14.077 47.597-16.74h.476c10.733-2.384 21.689-3.61 32.684-3.662h12.473c10.992.052 21.949 1.278 32.684 3.662h.474c13.434 2.663 30.881 7.15 47.601 16.74l10.967 6.3v-83.713c-.695-5.8 2.123-12.231 6.85-14.808 2.815-1.53 5.115-3.828 8.015-5.188 30.037-14.09 58.746-45.439 55.566-68.171zm-176.204 85.823c-.464 2.484-6.387 7.057-21.072 10.847-10.283 2.591-20.982 3.556-31.566 2.902-2.488-.157-4.981-.572-7.29-1.514-4.212-1.716-7.77-4.667-10.418-8.555-3.575-5.078-5.278-10.731-4.187-16.843 1.063-6.119 4.593-10.851 9.688-14.395 3.816-2.75 8.167-4.304 12.712-4.473 2.488-.09 4.976.369 7.364 1.078 10.169 3.007 19.896 7.583 28.673 13.539 12.506 8.59 16.51 14.918 16.096 17.414zm85.967 3.68c-2.645 3.888-6.206 6.839-10.419 8.555-2.305.942-4.801 1.357-7.287 1.514-10.584.654-21.285-.312-31.568-2.902-14.688-3.79-20.606-8.363-21.069-10.847-.415-2.497 3.587-8.824 16.095-17.414 8.777-5.957 18.501-10.532 28.673-13.539 2.388-.709 4.874-1.168 7.365-1.078 4.541.169 8.898 1.723 12.711 4.473 5.095 3.544 8.626 8.273 9.686 14.392 1.091 6.112-.613 11.768-4.187 16.846z"></path>
</g>
<path d="M71.8163 30.1843C71.4258 30.5748 71.4258 31.208 71.8163 31.5985L78.1803 37.9625C78.5708 38.353 79.204 38.353 79.5945 37.9625C79.985 37.5719 79.985 36.9388 79.5945 36.5482L73.9377 30.8914L79.5945 25.2345C79.985 24.844 79.985 24.2108 79.5945 23.8203C79.204 23.4298 78.5708 23.4298 78.1803 23.8203L71.8163 30.1843ZM101.298 31.5985C101.689 31.208 101.689 30.5748 101.298 30.1843L94.9344 23.8203C94.5439 23.4298 93.9107 23.4298 93.5202 23.8203C93.1297 24.2108 93.1297 24.844 93.5202 25.2345L99.1771 30.8914L93.5202 36.5482C93.1297 36.9388 93.1297 37.5719 93.5202 37.9625C93.9107 38.353 94.5439 38.353 94.9344 37.9625L101.298 31.5985ZM72.5234 31.8914H100.591V29.8914H72.5234V31.8914Z" fill="#A2B8D1"/>
<path d="M71.5058 30.1842C71.1153 30.5747 71.1153 31.2079 71.5058 31.5984L77.8697 37.9624C78.2603 38.3529 78.8934 38.3529 79.284 37.9624C79.6745 37.5718 79.6745 36.9387 79.284 36.5482L73.6271 30.8913L79.284 25.2344C79.6745 24.8439 79.6745 24.2108 79.284 23.8202C78.8934 23.4297 78.2603 23.4297 77.8697 23.8202L71.5058 30.1842ZM100.988 31.5984C101.378 31.2079 101.378 30.5747 100.988 30.1842L94.6239 23.8202C94.2333 23.4297 93.6002 23.4297 93.2097 23.8202C92.8191 24.2108 92.8191 24.8439 93.2097 25.2344L98.8665 30.8913L93.2097 36.5482C92.8191 36.9387 92.8191 37.5718 93.2097 37.9624C93.6002 38.3529 94.2333 38.3529 94.6239 37.9624L100.988 31.5984ZM72.2129 31.8913H100.281V29.8913H72.2129V31.8913Z" fill="#A2B8D1"/>
<g filter="url(#filter0_i_5263_1087)">
<circle cx="30.1543" cy="40.6632" r="16.5391" fill="#2B4266"/>
</g>
<path d="M30.4823 33.1335C31.1431 33.176 31.7974 33.2893 32.434 33.4716C32.7746 32.8285 33.0598 32.1575 33.2865 31.466C33.356 31.2641 33.4911 31.0913 33.6702 30.9751C33.8494 30.859 34.0623 30.8061 34.275 30.825C34.4876 30.844 34.6879 30.9335 34.8437 31.0795C34.9995 31.2255 35.102 31.4194 35.1348 31.6304C35.2133 32.1392 35.2447 32.6541 35.2287 33.1687C39.017 32.3819 41.8376 31.7196 41.7366 33.1546L41.7225 33.2063C40.8747 35.5384 39.1837 37.4031 37.0841 38.3238C36.8779 38.3952 36.7023 38.535 36.5865 38.72C36.4707 38.905 36.4217 39.124 36.4477 39.3407C36.4735 41.3769 36.4477 43.3591 36.4477 45.3742C34.4648 44.5128 32.326 44.0683 30.1641 44.0683C28.0022 44.0683 25.8633 44.5128 23.8805 45.3742C23.8805 43.3591 23.864 41.3816 23.8805 39.3407C23.9064 39.124 23.8574 38.905 23.7416 38.72C23.6259 38.535 23.4502 38.3952 23.244 38.3238C21.1444 37.4031 19.4534 35.5384 18.6056 33.2063L18.5915 33.1546C18.4905 31.7196 21.3111 32.3819 25.0994 33.1687C25.0834 32.6541 25.1148 32.1392 25.1933 31.6304C25.2261 31.4194 25.3286 31.2255 25.4844 31.0795C25.6403 30.9335 25.8405 30.844 26.0532 30.825C26.2658 30.8061 26.4787 30.859 26.6579 30.9751C26.837 31.0913 26.9721 31.2641 27.0416 31.466C27.2683 32.1575 27.5535 32.8285 27.8942 33.4716C28.5307 33.2893 29.185 33.176 29.8458 33.1335H30.4823Z" fill="#193151"/>
<path d="M30.2306 33.8287C31.0919 33.8632 31.9438 34.0214 32.76 34.2984C33.2597 33.4774 33.6602 32.5999 33.9531 31.6844C33.968 31.6294 34.0024 31.5816 34.05 31.55C34.0975 31.5185 34.1549 31.5053 34.2114 31.513C34.2706 31.5128 34.3277 31.535 34.3712 31.575C34.4147 31.6151 34.4416 31.6701 34.4463 31.7291C34.5504 32.4858 34.5615 33.2525 34.4792 34.0119C34.9301 33.9438 35.0428 33.9273 35.6394 33.7935C39.4393 32.9574 40.6841 32.9245 41.0246 33.0678C40.2308 35.1674 38.6972 36.8419 36.7972 37.6709C36.4647 37.7974 36.1822 38.0283 35.992 38.3289C35.8019 38.6296 35.7144 38.9838 35.7427 39.3384C35.7638 41.0294 35.7427 42.6851 35.7427 44.3479C32.1435 43.0108 28.1838 43.0108 24.5847 44.3479C24.5847 42.6851 24.5729 41.0294 24.5847 39.3384C24.613 38.9838 24.5255 38.6296 24.3353 38.3289C24.1452 38.0283 23.8627 37.7974 23.5302 37.6709C21.6372 36.8419 20.1036 35.1674 19.3027 33.0678C19.6433 32.9245 20.888 32.9574 24.688 33.7935C25.2845 33.9273 25.3926 33.9438 25.8482 34.0119C25.7659 33.2525 25.7769 32.4858 25.8811 31.7291C25.8858 31.6701 25.9126 31.6151 25.9562 31.575C25.9997 31.535 26.0568 31.5128 26.1159 31.513C26.1725 31.5053 26.2299 31.5185 26.2774 31.55C26.3249 31.5816 26.3594 31.6294 26.3743 31.6844C26.6671 32.5999 27.0676 33.4774 27.5673 34.2984C28.3836 34.0214 29.2355 33.8632 30.0967 33.8287H30.2306Z" fill="#BFD5EB"/>
<path d="M27.02 40.3086C26.7015 40.3049 26.3972 40.1759 26.173 39.9496C25.9489 39.7232 25.8229 39.4177 25.8223 39.0991C25.8265 38.9476 25.8607 38.7985 25.9228 38.6603C25.9848 38.522 26.0736 38.3974 26.1839 38.2935C26.4085 38.0791 26.7072 37.9596 27.0177 37.9601C27.4941 37.992 27.961 38.1089 28.3963 38.3053C28.8824 38.5167 29.2888 38.8102 29.2864 39.1343C29.2841 39.4584 28.8778 39.7497 28.3916 39.961C27.9579 40.1551 27.4938 40.2727 27.02 40.3086V40.3086Z" fill="#FFD700"/>
<path d="M27.0088 40.6276C26.6059 40.6215 26.2217 40.4568 25.9395 40.1693C25.6573 39.8817 25.4997 39.4946 25.501 39.0917C25.5069 38.8973 25.5515 38.706 25.6322 38.5289C25.7128 38.3519 25.8279 38.1927 25.9707 38.0607C26.2536 37.7893 26.6309 37.6385 27.0229 37.6403V37.6403C27.5421 37.6726 28.0513 37.7983 28.5259 38.0113C29.2305 38.3213 29.611 38.7159 29.611 39.134C29.611 39.552 29.2329 39.9442 28.5212 40.2542C28.0485 40.4659 27.542 40.5923 27.0252 40.6276H27.0111H27.0088ZM27.0088 38.2791C26.7809 38.279 26.562 38.3674 26.3981 38.5257C26.3178 38.5999 26.2531 38.6895 26.208 38.7891C26.1628 38.8888 26.138 38.9964 26.1351 39.1058C26.1347 39.2206 26.1572 39.3343 26.2011 39.4403C26.2451 39.5463 26.3096 39.6426 26.3911 39.7235C26.4719 39.8064 26.5682 39.8725 26.6746 39.918C26.781 39.9636 26.8954 39.9876 27.0111 39.9888V39.9888C27.4411 39.9522 27.8619 39.8434 28.2559 39.6671C28.7725 39.4322 28.9604 39.2256 28.9604 39.1316C28.9604 39.0377 28.7749 38.8216 28.2559 38.5985C27.8607 38.4215 27.4381 38.3134 27.0064 38.2791H27.0088Z" fill="#193151"/>
<path d="M21.3324 34.1692L24.2681 34.8503C24.2996 34.8572 24.328 34.8739 24.3492 34.8982C24.3704 34.9224 24.3832 34.9528 24.3859 34.9849C24.3885 35.017 24.3808 35.049 24.3638 35.0764C24.3468 35.1037 24.3215 35.1249 24.2916 35.1368C23.7068 35.3717 22.6476 35.724 22.1474 35.3482C21.4217 34.808 21.1962 34.5074 21.1516 34.343C21.1464 34.3185 21.1476 34.293 21.155 34.2691C21.1624 34.2451 21.1758 34.2234 21.1939 34.206C21.212 34.1887 21.2342 34.1762 21.2584 34.1697C21.2826 34.1633 21.3081 34.1631 21.3324 34.1692V34.1692Z" fill="#193151"/>
<path d="M33.325 40.3086C33.6439 40.3061 33.9489 40.1775 34.1733 39.9509C34.3978 39.7243 34.5234 39.418 34.5227 39.0991C34.5185 38.9476 34.4843 38.7985 34.4222 38.6603C34.3602 38.522 34.2714 38.3974 34.1611 38.2935C33.9365 38.0791 33.6378 37.9596 33.3273 37.9601C32.8509 37.992 32.384 38.1089 31.9487 38.3053C31.4626 38.5167 31.0563 38.8102 31.0586 39.1343C31.061 39.4584 31.4673 39.7497 31.9534 39.961C32.3871 40.1551 32.8512 40.2727 33.325 40.3086Z" fill="#FFD700"/>
<path d="M33.3376 40.6276C33.7404 40.6215 34.1246 40.4568 34.4068 40.1693C34.6891 39.8817 34.8466 39.4946 34.8453 39.0917C34.8394 38.8973 34.7948 38.706 34.7142 38.5289C34.6335 38.3519 34.5184 38.1927 34.3756 38.0607C34.0928 37.7893 33.7155 37.6385 33.3235 37.6403V37.6403C32.8042 37.6726 32.295 37.7983 31.8204 38.0113C31.1158 38.3213 30.7354 38.7159 30.7354 39.134C30.7354 39.552 31.1135 39.9442 31.8251 40.2542C32.2979 40.4659 32.8043 40.5923 33.3211 40.6276H33.3352H33.3376ZM33.3376 38.2791C33.5654 38.279 33.7843 38.3674 33.9482 38.5257C34.0285 38.5999 34.0932 38.6895 34.1384 38.7891C34.1835 38.8888 34.2083 38.9964 34.2112 39.1058C34.2116 39.2206 34.1891 39.3343 34.1452 39.4403C34.1013 39.5463 34.0367 39.6426 33.9552 39.7235C33.8745 39.8064 33.7781 39.8725 33.6717 39.918C33.5653 39.9636 33.451 39.9876 33.3352 39.9888V39.9888C32.9052 39.9522 32.4844 39.8434 32.0905 39.6671C31.5738 39.4322 31.3859 39.2256 31.3859 39.1316C31.3859 39.0377 31.5714 38.8216 32.0905 38.5985C32.4857 38.4215 32.9083 38.3134 33.3399 38.2791H33.3376Z" fill="#193151"/>
<path d="M39.013 34.1692L36.0772 34.8503C36.0458 34.8572 36.0174 34.8739 35.9962 34.8982C35.975 34.9224 35.9621 34.9528 35.9595 34.9849C35.9569 35.017 35.9646 35.049 35.9816 35.0764C35.9985 35.1037 36.0238 35.1249 36.0538 35.1368C36.6386 35.3717 37.6978 35.724 38.198 35.3482C38.9237 34.808 39.1492 34.5074 39.1938 34.343C39.1989 34.3185 39.1977 34.293 39.1903 34.2691C39.1829 34.2451 39.1696 34.2234 39.1515 34.206C39.1334 34.1887 39.1112 34.1762 39.087 34.1697C39.0628 34.1633 39.0373 34.1631 39.013 34.1692V34.1692Z" fill="#193151"/>
<path d="M37.0931 45.8416C35.8883 44.5405 34.3101 43.9627 32.6309 43.6199C31.8438 43.4464 31.0388 43.3676 30.233 43.385H30.1179C29.3121 43.3676 28.5071 43.4464 27.72 43.6199C26.0384 43.9534 24.4602 44.5405 23.2577 45.8416C22.2831 46.8985 22.0083 48.216 22.626 49.3175C23.024 50.0839 23.617 50.7319 24.3451 51.1963C25.7138 51.9845 27.2353 52.4706 28.8074 52.6219C29.2414 52.6736 29.6785 52.6964 30.1155 52.69H30.2306C30.6677 52.6964 31.1047 52.6736 31.5388 52.6219C33.1109 52.4706 34.6324 51.9845 36.001 51.1963C36.7292 50.7319 37.3222 50.0839 37.7202 49.3175C38.3426 48.216 38.0678 46.8985 37.0931 45.8416Z" fill="#9AB6CC"/>
<path d="M36.4265 45.694C35.3438 44.7076 33.9276 44.2637 32.4175 44.0124C31.6974 43.8715 30.9646 43.8053 30.2309 43.8151H30.1253C29.3903 43.8019 28.656 43.8649 27.934 44.003C26.4239 44.2543 25.0077 44.7076 23.925 45.6846C23.049 46.4831 22.8048 47.4812 23.3567 48.315C23.7369 48.9189 24.27 49.4115 24.902 49.7429C26.1609 50.3478 27.521 50.7141 28.9134 50.8233C29.3286 50.8638 29.7457 50.881 30.1628 50.8749H30.1934C30.6105 50.881 31.0276 50.8638 31.4428 50.8233C32.8352 50.7141 34.1953 50.3478 35.4542 49.7429C36.0862 49.4115 36.6193 48.9189 36.9995 48.315C37.5467 47.4789 37.3025 46.4808 36.4265 45.694Z" fill="#BFD5EB"/>
<path d="M27.1174 48.472C26.434 48.8055 25.7975 48.472 25.6754 47.7157C25.5415 46.9055 26.6336 44.9796 26.8849 46.4358C27.1362 47.8919 28.2541 45.8557 28.2612 46.7669C28.2428 47.1281 28.1267 47.4774 27.9253 47.7778C27.7238 48.0781 27.4446 48.318 27.1174 48.472Z" fill="#193151"/>
<path d="M37.3754 45.5809C35.9405 44.0309 34.0217 43.5024 32.7041 43.2324H32.6736C31.9841 43.0794 31.2802 43.0007 30.574 42.9975V42.9975H29.7731C29.0669 43.0007 28.363 43.0794 27.6735 43.2324H27.643C26.3254 43.493 24.4066 44.0215 22.9717 45.5809C21.8632 46.7787 21.6025 48.2841 22.2859 49.5054C22.7137 50.3349 23.355 51.0353 24.1436 51.5345C25.4471 52.319 26.9149 52.7887 28.7609 53.0118C29.1731 53.0621 29.588 53.0872 30.0033 53.0869H30.3438C30.7591 53.0872 31.174 53.0621 31.5862 53.0118C33.4322 52.7887 34.9 52.319 36.2035 51.5345C36.9921 51.0353 37.6334 50.3349 38.0612 49.5054C38.7447 48.2771 38.484 46.7787 37.3754 45.5809ZM37.3895 49.1296C37.0257 49.8411 36.4794 50.4433 35.8066 50.8746C34.5994 51.6003 33.2232 52.0489 31.4923 52.2485C31.0738 52.2984 30.6525 52.3204 30.2311 52.3143H30.116C29.6946 52.3204 29.2733 52.2984 28.8548 52.2485C27.1192 52.0371 25.7477 51.6003 24.5405 50.8746C23.8677 50.4433 23.3215 49.8411 22.9576 49.1296C22.4339 48.1902 22.6499 47.0629 23.5377 46.1046C24.5264 45.0337 25.8393 44.3831 27.7933 43.9909H27.8215C28.5882 43.8196 29.3728 43.7407 30.1583 43.7561H30.1888C30.9744 43.7407 31.7589 43.8196 32.5256 43.9909H32.5538C34.5078 44.3761 35.8207 45.0267 36.8094 46.1046C37.6972 47.0629 37.9133 48.1949 37.3895 49.1296V49.1296Z" fill="#193151"/>
<path d="M33.2287 48.472C33.9121 48.8055 34.5486 48.472 34.6707 47.7157C34.8046 46.9055 33.7125 44.9796 33.4612 46.4358C33.2099 47.8919 32.092 45.8557 32.085 46.7669C32.1033 47.1281 32.2194 47.4774 32.4208 47.7778C32.6223 48.0781 32.9015 48.318 33.2287 48.472Z" fill="#193151"/>
<g filter="url(#filter1_i_5263_1087)">
<circle cx="17.3984" cy="16.7452" r="16.5391" transform="rotate(-90 17.3984 16.7452)" fill="#2B4266"/>
</g>
<path d="M17.7323 9.21564C18.3931 9.25814 19.0474 9.37152 19.684 9.55383C20.0246 8.9107 20.3098 8.2397 20.5365 7.54814C20.606 7.34626 20.7411 7.17346 20.9202 7.0573C21.0994 6.94114 21.3123 6.88832 21.525 6.90723C21.7376 6.92615 21.9379 7.01573 22.0937 7.16169C22.2495 7.30764 22.352 7.50156 22.3848 7.71255C22.4633 8.22135 22.4947 8.73629 22.4787 9.25085C26.267 8.46408 29.0876 7.80179 28.9866 9.23676L28.9725 9.28844C28.1247 11.6206 26.4337 13.4853 24.3341 14.406C24.1279 14.4773 23.9523 14.6172 23.8365 14.8022C23.7207 14.9872 23.6717 15.2062 23.6977 15.4229C23.7235 17.4591 23.6977 19.4413 23.6977 21.4564C21.7148 20.595 19.576 20.1505 17.4141 20.1505C15.2522 20.1505 13.1133 20.595 11.1305 21.4564C11.1305 19.4413 11.114 17.4638 11.1305 15.4229C11.1564 15.2062 11.1074 14.9872 10.9916 14.8022C10.8759 14.6172 10.7002 14.4773 10.494 14.406C8.39439 13.4853 6.70342 11.6206 5.85559 9.28844L5.8415 9.23676C5.74051 7.80179 8.56113 8.46408 12.3494 9.25085C12.3334 8.73629 12.3648 8.22135 12.4433 7.71255C12.4761 7.50156 12.5786 7.30764 12.7344 7.16169C12.8903 7.01573 13.0905 6.92615 13.3032 6.90723C13.5158 6.88832 13.7287 6.94114 13.9079 7.0573C14.087 7.17346 14.2221 7.34626 14.2916 7.54814C14.5183 8.2397 14.8035 8.9107 15.1442 9.55383C15.7807 9.37152 16.435 9.25814 17.0958 9.21564H17.7323Z" fill="#193151"/>
<path d="M17.4816 9.91047C18.3429 9.94501 19.1947 10.1032 20.011 10.3802C20.5107 9.55915 20.9112 8.68169 21.2041 7.76623C21.219 7.71115 21.2534 7.66338 21.3009 7.63183C21.3485 7.60028 21.4059 7.58711 21.4624 7.59479C21.5216 7.5946 21.5786 7.61676 21.6222 7.65681C21.6657 7.69687 21.6925 7.75188 21.6973 7.81085C21.8014 8.56759 21.8124 9.33424 21.7301 10.0937C22.1811 10.0256 22.2938 10.0091 22.8903 9.87525C26.6903 9.03916 27.9351 9.00628 28.2756 9.14954C27.4818 11.2492 25.9482 12.9237 24.0482 13.7527C23.7157 13.8792 23.4331 14.11 23.243 14.4107C23.0529 14.7114 22.9654 15.0656 22.9937 15.4202C23.0148 17.1112 22.9937 18.7669 22.9937 20.4297C19.3945 19.0925 15.4348 19.0925 11.8356 20.4297C11.8356 18.7669 11.8239 17.1112 11.8356 15.4202C11.8639 15.0656 11.7765 14.7114 11.5863 14.4107C11.3962 14.11 11.1136 13.8792 10.7811 13.7527C8.88819 12.9237 7.35457 11.2492 6.55371 9.14954C6.89425 9.00628 8.13899 9.03916 11.939 9.87525C12.5355 10.0091 12.6435 10.0256 13.0992 10.0937C13.0169 9.33424 13.0279 8.56759 13.132 7.81085C13.1368 7.75188 13.1636 7.69687 13.2071 7.65681C13.2507 7.61676 13.3077 7.5946 13.3669 7.59479C13.4234 7.58711 13.4808 7.60028 13.5284 7.63183C13.5759 7.66338 13.6104 7.71115 13.6252 7.76623C13.9181 8.68169 14.3186 9.55915 14.8183 10.3802C15.6346 10.1032 16.4864 9.94501 17.3477 9.91047H17.4816Z" fill="#BFD5EB"/>
<path d="M14.27 16.3905C13.9515 16.3868 13.6472 16.2578 13.423 16.0314C13.1989 15.8051 13.0729 15.4996 13.0723 15.181C13.0765 15.0295 13.1107 14.8804 13.1728 14.7421C13.2348 14.6039 13.3236 14.4793 13.4339 14.3754C13.6585 14.161 13.9572 14.0415 14.2677 14.0419C14.7441 14.0739 15.211 14.1908 15.6463 14.3872C16.1324 14.5985 16.5388 14.8921 16.5364 15.2162C16.5341 15.5403 16.1278 15.8315 15.6416 16.0429C15.2079 16.237 14.7438 16.3546 14.27 16.3905V16.3905Z" fill="#FFD700"/>
<path d="M14.2597 16.7097C13.8569 16.7036 13.4727 16.5389 13.1905 16.2513C12.9082 15.9638 12.7507 15.5767 12.752 15.1738C12.7579 14.9794 12.8025 14.788 12.8832 14.611C12.9638 14.434 13.0789 14.2748 13.2217 14.1428C13.5045 13.8714 13.8818 13.7206 14.2738 13.7224V13.7224C14.7931 13.7547 15.3023 13.8804 15.7769 14.0934C16.4815 14.4034 16.862 14.798 16.862 15.2161C16.862 15.6341 16.4838 16.0263 15.7722 16.3363C15.2994 16.548 14.793 16.6744 14.2762 16.7097H14.2621H14.2597ZM14.2597 14.3612C14.0319 14.3611 13.813 14.4495 13.6491 14.6078C13.5688 14.682 13.5041 14.7716 13.4589 14.8712C13.4138 14.9708 13.389 15.0785 13.3861 15.1879C13.3857 15.3026 13.4082 15.4163 13.4521 15.5224C13.4961 15.6284 13.5606 15.7247 13.6421 15.8055C13.7228 15.8884 13.8192 15.9546 13.9256 16.0001C14.032 16.0457 14.1464 16.0697 14.2621 16.0709V16.0709C14.6921 16.0343 15.1129 15.9255 15.5068 15.7492C16.0235 15.5143 16.2114 15.3076 16.2114 15.2137C16.2114 15.1198 16.0259 14.9037 15.5068 14.6806C15.1116 14.5036 14.6891 14.3955 14.2574 14.3612H14.2597Z" fill="#193151"/>
<path d="M8.58143 10.2512L11.5171 10.9323C11.5486 10.9391 11.577 10.9559 11.5982 10.9801C11.6194 11.0044 11.6323 11.0348 11.6349 11.0668C11.6375 11.0989 11.6298 11.131 11.6128 11.1584C11.5959 11.1857 11.5705 11.2069 11.5406 11.2188C10.9558 11.4536 9.89663 11.8059 9.39638 11.4302C8.67068 10.89 8.44522 10.5894 8.40059 10.425C8.39546 10.4004 8.39665 10.375 8.40405 10.351C8.41145 10.3271 8.42482 10.3054 8.4429 10.288C8.46097 10.2706 8.48317 10.2581 8.50741 10.2517C8.53164 10.2453 8.55711 10.2451 8.58143 10.2512V10.2512Z" fill="#193151"/>
<path d="M20.5759 16.3905C20.8949 16.388 21.1999 16.2594 21.4243 16.0328C21.6487 15.8062 21.7743 15.4999 21.7737 15.181C21.7694 15.0295 21.7353 14.8804 21.6732 14.7421C21.6112 14.6039 21.5224 14.4793 21.412 14.3754C21.1875 14.161 20.8888 14.0415 20.5783 14.0419C20.1019 14.0739 19.635 14.1908 19.1997 14.3872C18.7135 14.5985 18.3072 14.8921 18.3096 15.2162C18.3119 15.5403 18.7182 15.8315 19.2044 16.0429C19.6381 16.237 20.1021 16.3546 20.5759 16.3905Z" fill="#FFD700"/>
<path d="M20.5876 16.7097C20.9904 16.7036 21.3746 16.5389 21.6568 16.2513C21.9391 15.9638 22.0966 15.5767 22.0953 15.1738C22.0894 14.9794 22.0448 14.788 21.9642 14.611C21.8835 14.434 21.7684 14.2748 21.6256 14.1428C21.3428 13.8714 20.9655 13.7206 20.5735 13.7224V13.7224C20.0542 13.7547 19.545 13.8804 19.0704 14.0934C18.3658 14.4034 17.9854 14.798 17.9854 15.2161C17.9854 15.6341 18.3635 16.0263 19.0751 16.3363C19.5479 16.548 20.0543 16.6744 20.5711 16.7097H20.5852H20.5876ZM20.5876 14.3612C20.8154 14.3611 21.0343 14.4495 21.1982 14.6078C21.2785 14.682 21.3432 14.7716 21.3884 14.8712C21.4335 14.9708 21.4583 15.0785 21.4612 15.1879C21.4616 15.3026 21.4391 15.4163 21.3952 15.5224C21.3513 15.6284 21.2867 15.7247 21.2052 15.8055C21.1245 15.8884 21.0281 15.9546 20.9217 16.0001C20.8153 16.0457 20.701 16.0697 20.5852 16.0709V16.0709C20.1552 16.0343 19.7344 15.9255 19.3405 15.7492C18.8238 15.5143 18.6359 15.3076 18.6359 15.2137C18.6359 15.1198 18.8214 14.9037 19.3405 14.6806C19.7357 14.5036 20.1583 14.3955 20.5899 14.3612H20.5876Z" fill="#193151"/>
<path d="M26.263 10.2512L23.3272 10.9323C23.2958 10.9391 23.2674 10.9559 23.2462 10.9801C23.225 11.0044 23.2121 11.0348 23.2095 11.0668C23.2069 11.0989 23.2146 11.131 23.2316 11.1584C23.2485 11.1857 23.2738 11.2069 23.3038 11.2188C23.8886 11.4536 24.9478 11.8059 25.448 11.4302C26.1737 10.89 26.3992 10.5894 26.4438 10.425C26.4489 10.4004 26.4477 10.375 26.4403 10.351C26.4329 10.3271 26.4196 10.3054 26.4015 10.288C26.3834 10.2706 26.3612 10.2581 26.337 10.2517C26.3128 10.2453 26.2873 10.2451 26.263 10.2512V10.2512Z" fill="#193151"/>
<path d="M24.3431 21.9236C23.1383 20.6225 21.5601 20.0447 19.8809 19.7019C19.0938 19.5284 18.2888 19.4496 17.483 19.467H17.3679C16.5621 19.4496 15.7571 19.5284 14.97 19.7019C13.2884 20.0354 11.7102 20.6225 10.5077 21.9236C9.53307 22.9805 9.25829 24.298 9.87596 25.3995C10.274 26.1659 10.867 26.8139 11.5951 27.2783C12.9638 28.0665 14.4853 28.5526 16.0574 28.7039C16.4914 28.7556 16.9285 28.7784 17.3655 28.772H17.4806C17.9177 28.7784 18.3547 28.7556 18.7888 28.7039C20.3609 28.5526 21.8824 28.0665 23.251 27.2783C23.9792 26.8139 24.5722 26.1659 24.9702 25.3995C25.5926 24.298 25.3178 22.9805 24.3431 21.9236Z" fill="#9AB6CC"/>
<path d="M23.6774 21.7757C22.5947 20.7893 21.1786 20.3455 19.6684 20.0942C18.9483 19.9532 18.2156 19.8871 17.4819 19.8969H17.3762C16.6413 19.8837 15.907 19.9466 15.185 20.0848C13.6749 20.3361 12.2587 20.7893 11.176 21.7664C10.3 22.5649 10.0558 23.563 10.6077 24.3967C10.9879 25.0007 11.521 25.4933 12.153 25.8247C13.4119 26.4296 14.772 26.7959 16.1644 26.905C16.5796 26.9455 16.9967 26.9628 17.4138 26.9567H17.4443C17.8615 26.9628 18.2786 26.9455 18.6938 26.905C20.0862 26.7959 21.4463 26.4296 22.7051 25.8247C23.3371 25.4933 23.8703 25.0007 24.2505 24.3967C24.7977 23.5606 24.5535 22.5625 23.6774 21.7757Z" fill="#BFD5EB"/>
<path d="M14.3684 24.554C13.6849 24.8875 13.0485 24.554 12.9264 23.7978C12.7925 22.9875 13.8846 21.0617 14.1359 22.5178C14.3872 23.9739 15.5051 21.9377 15.5121 22.8489C15.4938 23.2101 15.3777 23.5595 15.1763 23.8598C14.9748 24.1601 14.6956 24.4 14.3684 24.554Z" fill="#193151"/>
<path d="M24.6264 21.6629C23.1914 20.1128 21.2727 19.5844 19.9551 19.3143H19.9246C19.2351 19.1614 18.5312 19.0826 17.825 19.0794V19.0794H17.0241C16.3179 19.0826 15.614 19.1614 14.9245 19.3143H14.894C13.5764 19.575 11.6576 20.1034 10.2227 21.6629C9.11413 22.8606 8.85344 24.3661 9.53687 25.5873C9.96469 26.4168 10.606 27.1173 11.3946 27.6165C12.698 28.4009 14.1659 28.8706 16.0119 29.0937C16.4241 29.144 16.839 29.1691 17.2543 29.1689H17.5948C18.0101 29.1691 18.425 29.144 18.8372 29.0937C20.6832 28.8706 22.151 28.4009 23.4545 27.6165C24.2431 27.1173 24.8844 26.4168 25.3122 25.5873C25.9956 24.359 25.7349 22.8606 24.6264 21.6629ZM24.6405 25.2115C24.2766 25.9231 23.7304 26.5252 23.0576 26.9565C21.8504 27.6822 20.4741 28.1308 18.7433 28.3304C18.3248 28.3803 17.9035 28.4023 17.4821 28.3962H17.367C16.9456 28.4023 16.5243 28.3803 16.1058 28.3304C14.3702 28.1191 12.9987 27.6822 11.7915 26.9565C11.1187 26.5252 10.5724 25.9231 10.2086 25.2115C9.68483 24.2721 9.9009 23.1448 10.7887 22.1866C11.7774 21.1156 13.0903 20.4651 15.0443 20.0729H15.0724C15.8392 19.9015 16.6237 19.8226 17.4093 19.838H17.4398C18.2253 19.8226 19.0099 19.9015 19.7766 20.0729H19.8048C21.7588 20.458 23.0717 21.1086 24.0604 22.1866C24.9482 23.1448 25.1642 24.2768 24.6405 25.2115V25.2115Z" fill="#193151"/>
<path d="M20.4797 24.554C21.1631 24.8875 21.7996 24.554 21.9217 23.7978C22.0556 22.9875 20.9635 21.0617 20.7122 22.5178C20.4609 23.9739 19.343 21.9377 19.3359 22.8489C19.3543 23.2101 19.4704 23.5595 19.6718 23.8598C19.8733 24.1601 20.1525 24.4 20.4797 24.554Z" fill="#193151"/>
<g filter="url(#filter2_i_5263_1087)">
<circle cx="46.6934" cy="16.7452" r="16.5391" fill="#2B4266"/>
<path d="M47.0214 9.2156C47.6821 9.25811 48.3365 9.37149 48.973 9.5538C49.3136 8.91067 49.5989 8.23967 49.8255 7.54811C49.8951 7.34623 50.0302 7.17343 50.2093 7.05727C50.3885 6.94111 50.6013 6.88829 50.814 6.9072C51.0267 6.92612 51.2269 7.0157 51.3828 7.16165C51.5386 7.30761 51.6411 7.50153 51.6739 7.71252C51.7523 8.22131 51.7838 8.73626 51.7678 9.25082C55.556 8.46405 58.3767 7.80176 58.2757 9.23673L58.2616 9.28841C57.4138 11.6205 55.7228 13.4853 53.6232 14.4059C53.4169 14.4773 53.2413 14.6171 53.1255 14.8021C53.0098 14.9871 52.9608 15.2062 52.9867 15.4229C53.0125 17.4591 52.9867 19.4413 52.9867 21.4563C51.0038 20.595 48.865 20.1505 46.7031 20.1505C44.5412 20.1505 42.4024 20.595 40.4195 21.4563C40.4195 19.4413 40.4031 17.4638 40.4195 15.4229C40.4455 15.2062 40.3965 14.9871 40.2807 14.8021C40.1649 14.6171 39.9893 14.4773 39.7831 14.4059C37.6834 13.4853 35.9925 11.6205 35.1446 9.28841L35.1306 9.23673C35.0296 7.80176 37.8502 8.46405 41.6384 9.25082C41.6225 8.73626 41.6539 8.22131 41.7324 7.71252C41.7652 7.50153 41.8677 7.30761 42.0235 7.16165C42.1793 7.0157 42.3795 6.92612 42.5922 6.9072C42.8049 6.88829 43.0178 6.94111 43.1969 7.05727C43.3761 7.17343 43.5112 7.34623 43.5807 7.54811C43.8074 8.23967 44.0926 8.91067 44.4332 9.5538C45.0698 9.37149 45.7241 9.25811 46.3849 9.2156H47.0214Z" fill="#193151"/>
<path d="M46.7697 9.91047C47.631 9.94501 48.4828 10.1032 49.2991 10.3802C49.7988 9.55915 50.1993 8.68169 50.4922 7.76623C50.507 7.71115 50.5415 7.66338 50.589 7.63183C50.6366 7.60028 50.694 7.58711 50.7505 7.59479C50.8097 7.5946 50.8667 7.61676 50.9103 7.65681C50.9538 7.69687 50.9806 7.75188 50.9854 7.81085C51.0895 8.56759 51.1005 9.33424 51.0182 10.0937C51.4692 10.0256 51.5819 10.0091 52.1784 9.87525C55.9784 9.03916 57.2232 9.00628 57.5637 9.14954C56.7699 11.2492 55.2363 12.9237 53.3363 13.7527C53.0038 13.8792 52.7212 14.11 52.5311 14.4107C52.3409 14.7114 52.2535 15.0656 52.2818 15.4202C52.3029 17.1112 52.2818 18.7669 52.2818 20.4297C48.6826 19.0925 44.7229 19.0925 41.1237 20.4297C41.1237 18.7669 41.112 17.1112 41.1237 15.4202C41.152 15.0656 41.0645 14.7114 40.8744 14.4107C40.6843 14.11 40.4017 13.8792 40.0692 13.7527C38.1763 12.9237 36.6427 11.2492 35.8418 9.14954C36.1823 9.00628 37.4271 9.03916 41.2271 9.87525C41.8236 10.0091 41.9316 10.0256 42.3873 10.0937C42.305 9.33424 42.316 8.56759 42.4201 7.81085C42.4249 7.75188 42.4517 7.69687 42.4952 7.65681C42.5388 7.61676 42.5958 7.5946 42.655 7.59479C42.7115 7.58711 42.7689 7.60028 42.8165 7.63183C42.864 7.66338 42.8984 7.71115 42.9133 7.76623C43.2062 8.68169 43.6067 9.55915 44.1064 10.3802C44.9227 10.1032 45.7745 9.94501 46.6358 9.91047H46.7697Z" fill="#BFD5EB"/>
<path d="M43.5601 16.3905C43.2415 16.3868 42.9372 16.2578 42.7131 16.0314C42.4889 15.8051 42.3629 15.4995 42.3623 15.181C42.3666 15.0295 42.4007 14.8803 42.4628 14.7421C42.5249 14.6039 42.6136 14.4792 42.724 14.3754C42.9485 14.1609 43.2472 14.0415 43.5577 14.0419C44.0342 14.0739 44.5011 14.1908 44.9363 14.3871C45.4225 14.5985 45.8288 14.8921 45.8264 15.2162C45.8241 15.5403 45.4178 15.8315 44.9316 16.0429C44.4979 16.237 44.0339 16.3546 43.5601 16.3905V16.3905Z" fill="#FFD700"/>
<path d="M43.5488 16.7097C43.146 16.7036 42.7618 16.5389 42.4795 16.2513C42.1973 15.9638 42.0397 15.5767 42.041 15.1738C42.047 14.9794 42.0916 14.788 42.1722 14.611C42.2529 14.434 42.3679 14.2748 42.5107 14.1428C42.7936 13.8714 43.1709 13.7206 43.5629 13.7224V13.7224C44.0822 13.7547 44.5913 13.8804 45.066 14.0934C45.7705 14.4034 46.151 14.798 46.151 15.2161C46.151 15.6341 45.7729 16.0263 45.0613 16.3363C44.5885 16.548 44.082 16.6744 43.5652 16.7097H43.5512H43.5488ZM43.5488 14.3612C43.321 14.3611 43.102 14.4495 42.9382 14.6078C42.8578 14.682 42.7932 14.7716 42.748 14.8712C42.7028 14.9708 42.6781 15.0785 42.6751 15.1879C42.6748 15.3026 42.6972 15.4163 42.7412 15.5224C42.7851 15.6284 42.8497 15.7247 42.9311 15.8055C43.0119 15.8884 43.1082 15.9546 43.2147 16.0001C43.3211 16.0457 43.4354 16.0697 43.5512 16.0709V16.0709C43.9812 16.0343 44.402 15.9255 44.7959 15.7492C45.3126 15.5143 45.5005 15.3076 45.5005 15.2137C45.5005 15.1198 45.3149 14.9037 44.7959 14.6806C44.4007 14.5036 43.9781 14.3955 43.5465 14.3612H43.5488Z" fill="#193151"/>
<path d="M37.8724 10.2512L40.8082 10.9322C40.8396 10.9391 40.868 10.9559 40.8892 10.9801C40.9104 11.0043 40.9233 11.0347 40.9259 11.0668C40.9285 11.0989 40.9208 11.131 40.9038 11.1583C40.8869 11.1857 40.8616 11.2069 40.8316 11.2188C40.2468 11.4536 39.1876 11.8059 38.6874 11.4301C37.9617 10.89 37.7362 10.5893 37.6916 10.4249C37.6865 10.4004 37.6877 10.375 37.6951 10.351C37.7025 10.3271 37.7158 10.3054 37.7339 10.288C37.752 10.2706 37.7742 10.2581 37.7984 10.2517C37.8227 10.2452 37.8481 10.2451 37.8724 10.2512V10.2512Z" fill="#193151"/>
<path d="M49.865 16.3905C50.1839 16.388 50.4889 16.2594 50.7134 16.0328C50.9378 15.8061 51.0634 15.4999 51.0628 15.181C51.0585 15.0295 51.0243 14.8803 50.9623 14.7421C50.9002 14.6039 50.8115 14.4792 50.7011 14.3754C50.4765 14.1609 50.1779 14.0415 49.8674 14.0419C49.3909 14.0739 48.924 14.1908 48.4888 14.3871C48.0026 14.5985 47.5963 14.8921 47.5986 15.2162C47.601 15.5403 48.0073 15.8315 48.4934 16.0429C48.9272 16.237 49.3912 16.3546 49.865 16.3905Z" fill="#FFD700"/>
<path d="M49.8766 16.7097C50.2795 16.7036 50.6637 16.5389 50.9459 16.2513C51.2281 15.9638 51.3857 15.5767 51.3844 15.1738C51.3785 14.9794 51.3339 14.788 51.2532 14.611C51.1726 14.434 51.0575 14.2748 50.9147 14.1428C50.6318 13.8714 50.2545 13.7206 49.8625 13.7224V13.7224C49.3433 13.7547 48.8341 13.8804 48.3595 14.0934C47.6549 14.4034 47.2744 14.798 47.2744 15.2161C47.2744 15.6341 47.6525 16.0263 48.3642 16.3363C48.8369 16.548 49.3434 16.6744 49.8602 16.7097H49.8743H49.8766ZM49.8766 14.3612C50.1045 14.3611 50.3234 14.4495 50.4873 14.6078C50.5676 14.682 50.6323 14.7716 50.6774 14.8712C50.7226 14.9708 50.7474 15.0785 50.7503 15.1879C50.7507 15.3026 50.7282 15.4163 50.6843 15.5224C50.6403 15.6284 50.5757 15.7247 50.4943 15.8055C50.4135 15.8884 50.3172 15.9546 50.2108 16.0001C50.1044 16.0457 49.99 16.0697 49.8743 16.0709V16.0709C49.4443 16.0343 49.0235 15.9255 48.6295 15.7492C48.1129 15.5143 47.925 15.3076 47.925 15.2137C47.925 15.1198 48.1105 14.9037 48.6295 14.6806C49.0247 14.5036 49.4473 14.3955 49.879 14.3612H49.8766Z" fill="#193151"/>
<path d="M55.552 10.2512L52.6163 10.9322C52.5849 10.9391 52.5564 10.9559 52.5352 10.9801C52.514 11.0043 52.5012 11.0347 52.4985 11.0668C52.4959 11.0989 52.5037 11.131 52.5206 11.1583C52.5376 11.1857 52.5629 11.2069 52.5928 11.2188C53.1776 11.4536 54.2368 11.8059 54.7371 11.4301C55.4628 10.89 55.6882 10.5893 55.7329 10.4249C55.738 10.4004 55.7368 10.375 55.7294 10.351C55.722 10.3271 55.7086 10.3054 55.6906 10.288C55.6725 10.2706 55.6503 10.2581 55.626 10.2517C55.6018 10.2452 55.5763 10.2451 55.552 10.2512V10.2512Z" fill="#193151"/>
<path d="M53.6332 21.9236C52.4284 20.6225 50.8501 20.0447 49.1709 19.7019C48.3838 19.5284 47.5788 19.4496 46.773 19.467H46.6579C45.8521 19.4496 45.0471 19.5284 44.26 19.7019C42.5785 20.0354 41.0002 20.6225 39.7978 21.9236C38.8231 22.9805 38.5483 24.298 39.166 25.3995C39.564 26.1659 40.157 26.8139 40.8852 27.2783C42.2538 28.0665 43.7753 28.5526 45.3474 28.7039C45.7815 28.7556 46.2185 28.7784 46.6556 28.772H46.7707C47.2077 28.7784 47.6448 28.7556 48.0788 28.7039C49.6509 28.5526 51.1724 28.0665 52.5411 27.2783C53.2692 26.8139 53.8622 26.1659 54.2602 25.3995C54.8826 24.298 54.6078 22.9805 53.6332 21.9236Z" fill="#9AB6CC"/>
<path d="M52.9655 21.7757C51.8828 20.7893 50.4666 20.3455 48.9565 20.0942C48.2364 19.9532 47.5037 19.8871 46.77 19.8969H46.6643C45.9294 19.8837 45.1951 19.9466 44.4731 20.0848C42.963 20.3361 41.5468 20.7893 40.4641 21.7664C39.5881 22.5649 39.3438 23.563 39.8958 24.3967C40.2759 25.0007 40.8091 25.4933 41.4411 25.8247C42.7 26.4296 44.0601 26.7959 45.4525 26.905C45.8677 26.9455 46.2848 26.9628 46.7019 26.9567H46.7324C47.1495 26.9628 47.5667 26.9455 47.9819 26.905C49.3743 26.7959 50.7343 26.4296 51.9932 25.8247C52.6252 25.4933 53.1584 25.0007 53.5386 24.3967C54.0858 23.5606 53.8415 22.5625 52.9655 21.7757Z" fill="#BFD5EB"/>
<path d="M43.6565 24.554C42.973 24.8875 42.3366 24.554 42.2145 23.7977C42.0806 22.9875 43.1727 21.0616 43.424 22.5178C43.6753 23.9739 44.7932 21.9377 44.8002 22.8489C44.7819 23.2101 44.6658 23.5594 44.4643 23.8598C44.2629 24.1601 43.9837 24.4 43.6565 24.554Z" fill="#193151"/>
<path d="M53.9145 21.6628C52.4795 20.1128 50.5607 19.5843 49.2432 19.3143H49.2127C48.5232 19.1613 47.8193 19.0826 47.113 19.0794V19.0794H46.3122C45.6059 19.0826 44.9021 19.1613 44.2126 19.3143H44.182C42.8645 19.575 40.9457 20.1034 39.5107 21.6628C38.4022 22.8606 38.1415 24.366 38.825 25.5873C39.2528 26.4168 39.894 27.1172 40.6827 27.6164C41.9861 28.4009 43.454 28.8706 45.3 29.0937C45.7122 29.144 46.1271 29.1691 46.5423 29.1688H46.8829C47.2982 29.1691 47.7131 29.144 48.1253 29.0937C49.9713 28.8706 51.4391 28.4009 52.7426 27.6164C53.5312 27.1172 54.1725 26.4168 54.6003 25.5873C55.2837 24.359 55.023 22.8606 53.9145 21.6628ZM53.9286 25.2115C53.5647 25.923 53.0185 26.5252 52.3457 26.9565C51.1385 27.6822 49.7622 28.1308 48.0313 28.3304C47.6129 28.3803 47.1915 28.4023 46.7702 28.3962H46.6551C46.2337 28.4023 45.8124 28.3803 45.3939 28.3304C43.6583 28.119 42.2867 27.6822 41.0796 26.9565C40.4068 26.5252 39.8605 25.923 39.4966 25.2115C38.9729 24.2721 39.189 23.1448 40.0767 22.1866C41.0655 21.1156 42.3783 20.4651 44.3323 20.0728H44.3605C45.1273 19.9015 45.9118 19.8226 46.6974 19.838H46.7279C47.5134 19.8226 48.2979 19.9015 49.0647 20.0728H49.0929C51.0469 20.458 52.3597 21.1086 53.3485 22.1866C54.2363 23.1448 54.4523 24.2768 53.9286 25.2115V25.2115Z" fill="#193151"/>
<path d="M49.7678 24.554C50.4512 24.8875 51.0877 24.554 51.2098 23.7977C51.3437 22.9875 50.2516 21.0616 50.0003 22.5178C49.749 23.9739 48.6311 21.9377 48.624 22.8489C48.6424 23.2101 48.7585 23.5594 48.9599 23.8598C49.1613 24.1601 49.4406 24.4 49.7678 24.554Z" fill="#193151"/>
</g>
<defs>
<filter id="filter0_i_5263_1087" x="13.6152" y="24.1242" width="33.0781" height="37.0781" filterUnits="userSpaceOnUse" color-interpolation-filters="sRGB">
<feFlood flood-opacity="0" result="BackgroundImageFix"/>
<feBlend mode="normal" in="SourceGraphic" in2="BackgroundImageFix" result="shape"/>
<feColorMatrix in="SourceAlpha" type="matrix" values="0 0 0 0 0 0 0 0 0 0 0 0 0 0 0 0 0 0 127 0" result="hardAlpha"/>
<feOffset dy="4"/>
<feGaussianBlur stdDeviation="2"/>
<feComposite in2="hardAlpha" operator="arithmetic" k2="-1" k3="1"/>
<feColorMatrix type="matrix" values="0 0 0 0 0 0 0 0 0 0 0 0 0 0 0 0 0 0 0.25 0"/>
<feBlend mode="normal" in2="shape" result="effect1_innerShadow_5263_1087"/>
</filter>
<filter id="filter1_i_5263_1087" x="0.859375" y="0.206146" width="33.0781" height="37.0781" filterUnits="userSpaceOnUse" color-interpolation-filters="sRGB">
<feFlood flood-opacity="0" result="BackgroundImageFix"/>
<feBlend mode="normal" in="SourceGraphic" in2="BackgroundImageFix" result="shape"/>
<feColorMatrix in="SourceAlpha" type="matrix" values="0 0 0 0 0 0 0 0 0 0 0 0 0 0 0 0 0 0 127 0" result="hardAlpha"/>
<feOffset dy="5"/>
<feGaussianBlur stdDeviation="2"/>
<feComposite in2="hardAlpha" operator="arithmetic" k2="-1" k3="1"/>
<feColorMatrix type="matrix" values="0 0 0 0 0 0 0 0 0 0 0 0 0 0 0 0 0 0 0.25 0"/>
<feBlend mode="normal" in2="shape" result="effect1_innerShadow_5263_1087"/>
</filter>
<filter id="filter2_i_5263_1087" x="30.1543" y="0.206116" width="37.0781" height="37.0781" filterUnits="userSpaceOnUse" color-interpolation-filters="sRGB">
<feFlood flood-opacity="0" result="BackgroundImageFix"/>
<feBlend mode="normal" in="SourceGraphic" in2="BackgroundImageFix" result="shape"/>
<feColorMatrix in="SourceAlpha" type="matrix" values="0 0 0 0 0 0 0 0 0 0 0 0 0 0 0 0 0 0 127 0" result="hardAlpha"/>
<feOffset dx="6" dy="4"/>
<feGaussianBlur stdDeviation="2"/>
<feComposite in2="hardAlpha" operator="arithmetic" k2="-1" k3="1"/>
<feColorMatrix type="matrix" values="0 0 0 0 0 0 0 0 0 0 0 0 0 0 0 0 0 0 0.25 0"/>
<feBlend mode="normal" in2="shape" result="effect1_innerShadow_5263_1087"/>
</filter>
<linearGradient id="paint0_linear_5263_1087" x1="114.854" y1="37.1857" x2="154.059" y2="23.0607" gradientUnits="userSpaceOnUse">
<stop stop-color="#36373D"/>
<stop offset="0.359375" stop-color="#101015"/>
<stop offset="1" stop-color="#0E0501"/>
</linearGradient>
<linearGradient id="paint1_linear_5263_1087" x1="120.023" y1="32.3178" x2="150.597" y2="32.3178" gradientUnits="userSpaceOnUse">
<stop offset="0.442708" stop-color="white"/>
<stop offset="0.505208" stop-color="#8D9ACA"/>
<stop offset="1" stop-color="#FF784A"/>
</linearGradient>
</defs>
</svg>
