<svg xmlns="http://www.w3.org/2000/svg" width="64" height="64" fill="none" viewBox="0 0 64 64"><path fill="#65d9ff" d="M46.526 52c-.94 2.977-3.69 5-6.799 5H24.274a7.14 7.14 0 0 1-6.8-5l-1.575-5h32.204zm4.885-15.5L48.102 47H15.898l-3.31-10.5zM64 22.5l-2.82 8.9c-.94 2.977-3.69 5.1-6.798 5.1H39.5c2.117 0 3.832-1.941 3.832-4.25S41.617 28 39.5 28s-3.832 1.941-3.832 4.25 1.715 4.25 3.832 4.25h-15c2.116 0 3.832-1.941 3.832-4.25S26.616 28 24.5 28s-3.832 1.941-3.832 4.25 1.716 4.25 3.832 4.25H9.618c-3.108 0-5.859-2.123-6.799-5.1L0 22.5zm-10.743 0H10.743L5 14h54z"/></svg>