<svg xmlns="http://www.w3.org/2000/svg" viewBox="920.616 175.862 94.82 129.31" fill="none" style="max-height:500px"
     width="94.82" height="129.31">
  <g clip-path="url(#a)">
    <path fill="#fff8f7"
          d="m923.319 300.576 5.199-53.368 29.241-51.674h17.911l29.24 51.674 5.2 53.368h-21.698l-10.849-19.269h-21.698l-10.849 19.269z"/>
    <path fill="#23191a" d="M955.599 273.839h-8.205l-3.714 26.733h14.851zm22.34 0h8.204l3.714 26.733h-14.851z"/>
    <circle transform="matrix(-1 0 0 1 970.254 247.062)" r="3.561" fill="#23191a" cy="3.561" cx="3.561"/>
    <path fill="#f2cd16" d="M973.854 235.363a7.318 7.318 0 0 0-14.322 0l-3.224 15.26h20.77z"/>
    <path fill="#fccaf2"
          d="M981.639 273.826h-29.843l.928 4.377a10.82 10.82 0 0 0 10.582 8.573h6.823c5.109 0 9.521-3.575 10.581-8.573z"/>
    <rect width="4.451" transform="matrix(-1 0 0 1 964.92 282.266)" rx="2.225" height="8.011" fill="#fccaf2"/>
    <rect width="4.451" transform="matrix(-1 0 0 1 972.932 282.266)" rx="2.225" height="8.011" fill="#fccaf2"/>
    <path fill-rule="evenodd" fill="#23191a"
          d="M970.112 226.942a6.485 6.485 0 0 0 7.139-2.755l7.816-12.193 2.609.699a6.48 6.48 0 0 0 7.139-2.754l4.645-7.246-9.46-2.534 6.997-6.154-47.274-12.667 2.982 8.827-9.459-2.534.399 8.597a6.485 6.485 0 0 0 4.805 5.955l2.61.699.672 14.468a6.48 6.48 0 0 0 4.806 5.954zm8.921-20.468c-.539 2.011-2.483 3.238-4.342 2.74s-2.929-2.532-2.39-4.543 2.482-3.238 4.341-2.74c1.859.499 2.93 2.533 2.391 4.543m-19.988-5.355c-.538 2.011.532 4.045 2.391 4.543s3.803-.728 4.341-2.739-.531-4.045-2.39-4.543-3.803.728-4.342 2.739"
          clip-rule="evenodd"/>
  </g>
</svg>
