<svg xmlns="http://www.w3.org/2000/svg" fill="none" viewBox="0 0 48 48"><path fill="url(#a)" d="M48 24c0 13.255-10.745 24-24 24S0 37.255 0 24 10.745 0 24 0s24 10.745 24 24Z"/><g clip-path="url(#b)"><path fill="url(#c)" d="m39.217 20.775-5.164-.845 3.943-1.65.89-3.558-1.04-1.848-5.086-1.487 2.59 3.711h-.003l.015.022-2.018.504-4.985-3.424-4.23.503-4.231-.503-4.986 3.425-2.018-.505.015-.021h-.002l2.589-3.712-5.086 1.487-1.04 1.848.89 3.559 3.943 1.649-5.162.845-1.178 3.175 3.54 1.712 3.346-1.18.481 3.573 2.199 5.126 1.07 2.78 5.182 3.64.44.307v.006l.004.003.004-.004.005.004.003-.003v-.006l.44-.308 5.181-3.64 1.071-2.78 2.199-5.126.48-3.573 3.346 1.18 3.54-1.712-1.177-3.174Zm-28.456-7.46 3.46-1.013-1.877 2.692-2.29-.423.707-1.257Zm-.762 1.775 2.016.374-1.418 2.014L10 15.09Zm4.703 8.858-3.267 1.151-2.918-1.412.907-2.447 5.28-.863-.002 3.57Zm0-4.373-3.822-1.598 1.69-2.402 2.13.532.002 3.468Zm9.426 14.144-1.318-1.083-1.66-4.391h5.956l-1.66 4.392-1.318 1.082Zm.204-5.996h-3.339l-1.337-4.581H28.6l-1.337 4.582h-2.93Zm0-5.102h-4.839L19 20.97l5.128-7.402 5.127 7.402-.493 1.652h-4.43Zm-9.109-3.646v-2.933l4.808-3.303 3.717.442.024.004-.01.01-5.226 7.501-3.313-1.72Zm2.688 14.009-2.174-5.07-.486-3.59 3.91-1.022 1.359 4.66-1.1 2.298-1.483 2.79-.026-.066Zm.274.71 1.548-2.911 3.99 3.278-.134.11-4.716 1.308-.688-1.785Zm5.943 5.585-4.814-3.382 4.814-1.337 4.814 1.337-4.814 3.382Zm5.255-3.8-4.716-1.309-.134-.11 3.99-3.278 1.548 2.911-.688 1.786Zm3.135-7.565-2.174 5.07-.026.066-1.483-2.79-1.1-2.299 1.36-4.66 3.909 1.024-.486 3.589Zm.515-8.939-3.311 1.721-5.227-7.501-.01-.01.024-.004 3.716-.441 4.808 3.302v2.933Zm4.627-1.497-1.418-2.015 2.016-.373-.598 2.388Zm-3.625-5.174 3.46 1.012.708 1.255-2.29.424-1.878-2.691Zm-.48 3.806 2.13-.532 1.69 2.402-3.822 1.598.002-3.468Zm3.267 8.991-3.268-1.151v-3.573l5.28.863.907 2.447-2.92 1.414Z"/></g><defs><linearGradient id="a" x1="1.097" x2="46.011" y1="31.2" y2="15.634" gradientUnits="userSpaceOnUse"><stop stop-color="#36373D"/><stop offset=".359" stop-color="#101015"/><stop offset="1" stop-color="#0E0501"/></linearGradient><linearGradient id="c" x1="7.863" x2="40.394" y1="25.653" y2="25.653" gradientUnits="userSpaceOnUse"><stop offset=".443" stop-color="#fff"/><stop offset=".505" stop-color="#8D9ACA"/><stop offset="1" stop-color="#FF784A"/></linearGradient><clipPath id="b"><path fill="#fff" d="M0 0h32.531v28.531H0z" transform="translate(8 11.25)"/></clipPath></defs></svg>