<svg height="1em" viewBox="0 0 512 512" width="1em" xmlns="http://www.w3.org/2000/svg"><path d="m475.22 206.52c-10.34-48.65-37.76-92.93-77.22-124.68a227.4 227.4 0 0 0 -142.18-49.84c-60.92 0-117.82 23.47-160.36 66.09-41.11 41.24-63.64 95.69-63.46 153.28a215.66 215.66 0 0 0 35.65 118.76l4.35 6.05-24 103.82 114.8-28.56s2.3.77 4 1.42 16.33 6.26 31.85 10.6c12.9 3.6 39.74 9 60.77 9 59.65 0 115.35-23.1 156.83-65.06 41.11-41.63 63.75-96.98 63.75-155.91a213.5 213.5 0 0 0 -4.78-44.97zm-315.22 81.48a32 32 0 1 1 32-32 32 32 0 0 1 -32 32zm96 0a32 32 0 1 1 32-32 32 32 0 0 1 -32 32zm96 0a32 32 0 1 1 32-32 32 32 0 0 1 -32 32z"/></svg>