<svg xmlns="http://www.w3.org/2000/svg" fill="none" viewBox="0 0 120 186"><path fill="#F0EBDE" d="M0 158.831c0 14.942 12.113 27.056 27.056 27.056 14.942 0 27.056-12.114 27.056-27.056 0-14.943-12.114-27.056-27.056-27.056C12.113 131.775 0 143.888 0 158.831Z"/><path fill="#133629" d="m12.102 143.855 14.97 14.966 14.97-14.966c-3.97-4.008-9.265-6.206-14.97-6.206-5.704 0-10.98 2.199-14.97 6.206Zm14.954 19.475L7.738 144.021c.54-.69 1.118-1.36 1.716-1.993 4.438-4.64 10.684-7.548 17.62-7.548a24.283 24.283 0 0 1 17.62 7.548 16.66 16.66 0 0 1 1.679 1.975L27.056 163.33Zm16.93-13.177a8.888 8.888 0 0 1 2.087 5.74c0 4.938-4.01 8.945-8.949 8.945a8.93 8.93 0 0 1-5.742-2.087l-4.308 4.305-4.307-4.305a8.892 8.892 0 0 1-5.741 2.087c-4.94 0-8.95-4.007-8.95-8.945 0-2.181.782-4.176 2.087-5.74l-3.934-3.931a24.209 24.209 0 0 0-3.523 12.617c0 13.456 10.905 24.341 24.35 24.341 13.445 0 24.35-10.903 24.35-24.341a23.771 23.771 0 0 0-3.487-12.617l-3.932 3.931h-.002Zm-6.863 12.022c3.487.018 6.321-2.815 6.321-6.319a6.289 6.289 0 0 0-1.323-3.876l-8.876 8.871a6.211 6.211 0 0 0 3.878 1.324Zm-26.401-6.299c0-1.473.485-2.814 1.323-3.875l8.876 8.871a6.288 6.288 0 0 1-3.878 1.323c-3.505-.002-6.34-2.833-6.321-6.319Z"/><path fill="#0052FF" d="M92.943 185.887c14.943 0 27.056-12.114 27.056-27.056 0-14.943-12.113-27.056-27.056-27.056-14.942 0-27.056 12.113-27.056 27.056 0 14.942 12.114 27.056 27.056 27.056Z"/><path fill="#fff" d="M93.063 177.632c10.487 0 18.987-8.486 18.987-18.954s-8.5-18.954-18.987-18.954c-9.949 0-18.11 7.638-18.921 17.361h25.097v3.186H74.142c.81 9.723 8.972 17.361 18.921 17.361Z"/><path fill="#6C00F6" d="M92.933 65.887c14.95 0 27.067 12.115 27.067 27.062C120 107.896 107.883 120 92.944 120c-14.95 0-27.057-12.115-27.057-27.051-.01-14.947 12.107-27.062 27.046-27.062Z"/><path fill="#fff" d="m100.194 77.908-9.415 5.421v16.919l-5.195 3.019-5.227-3.022v-6.04l5.227-2.992 3.36 1.954V88.28l-3.39-1.93-9.412 5.483v10.844l9.445 5.452 9.412-5.452V85.76l5.227-3.021 5.224 3.021v6.014l-5.224 3.048-3.39-1.971v4.863l3.358 1.941 9.506-5.42V83.328l-9.506-5.42Zm9.408-68.625H76.214V39.65h33.388V9.283Z"/><path fill="#E84142" fill-rule="evenodd" d="M119.946 27.057c0 14.923-12.097 27.02-27.02 27.02s-27.02-12.097-27.02-27.02S78.003.037 92.926.037s27.02 12.097 27.02 27.02ZM85.269 37.81h-5.244c-1.102 0-1.646 0-1.978-.213a1.333 1.333 0 0 1-.604-1.042c-.02-.392.252-.87.797-1.825l12.948-22.823c.55-.969.83-1.454 1.181-1.633.379-.192.83-.192 1.208 0 .352.18.63.664 1.182 1.633l2.675 4.67c.595 1.04.897 1.567 1.029 2.12a3.942 3.942 0 0 1 0 1.846c-.133.558-.432 1.089-1.036 2.144L90.626 34.71l-.018.03c-.599 1.049-.902 1.58-1.323 1.98a3.96 3.96 0 0 1-1.613.937c-.55.153-1.168.153-2.403.153Zm13.243 0h7.514c1.108 0 1.666 0 1.998-.22.358-.232.584-.623.604-1.048.019-.379-.247-.838-.769-1.739a7.064 7.064 0 0 1-.054-.093l-3.764-6.439-.043-.072c-.529-.895-.796-1.346-1.138-1.521a1.323 1.323 0 0 0-1.202 0c-.345.18-.624.65-1.175 1.6l-3.75 6.438-.013.023c-.549.947-.823 1.42-.804 1.81.027.424.246.816.605 1.048.325.212.882.212 1.99.212Z" clip-rule="evenodd"/><path fill="#627EEA" d="M27.056 54.112c14.943 0 27.056-12.113 27.056-27.056C54.112 12.113 41.999 0 27.056 0 12.113 0 0 12.113 0 27.056c0 14.943 12.113 27.056 27.056 27.056Z"/><path fill="#C0CBF6" d="m27.164 8.117-.259.863v25.048l.26.254 11.833-6.873L27.164 8.117Z"/><path fill="#fff" d="M27.166 8.117 15.332 27.409l11.834 6.873V8.117Z"/><path fill="#C0CBF6" d="m27.164 36.48-.146.175v8.922l.146.418 11.842-16.384-11.842 6.87Z"/><path fill="#fff" d="M27.166 45.995V36.48l-11.834-6.87 11.834 16.385Z"/><path fill="#8197EE" d="m27.164 34.295 11.834-6.872-11.834-5.285v12.157Z"/><path fill="#C0CBF6" d="m15.332 27.422 11.834 6.873V22.138l-11.834 5.284Z"/><path fill="#fff" d="M54.113 92.944c0 14.942-12.114 27.056-27.057 27.056C12.114 120 0 107.886 0 92.944 0 78 12.114 65.886 27.056 65.886c14.943 0 27.057 12.114 27.057 27.056Z"/><path fill="#1B4ADD" d="M27.146 76.34a.53.53 0 0 1 .262.07l13.921 8.112a.522.522 0 0 1 .258.453l-.05 16.126a.525.525 0 0 1-.263.453l-13.977 8.02a.534.534 0 0 1-.526 0l-13.916-8.112a.522.522 0 0 1-.258-.453l.051-16.127c0-.185.101-.36.263-.453l13.976-8.02a.507.507 0 0 1 .259-.069Zm.008-2.357a2.9 2.9 0 0 0-1.44.38L11.738 82.38a2.877 2.877 0 0 0-1.445 2.492l-.05 16.126a2.878 2.878 0 0 0 1.43 2.501l13.92 8.112a2.868 2.868 0 0 0 2.876.014l13.977-8.019a2.877 2.877 0 0 0 1.444-2.491l.051-16.127a2.877 2.877 0 0 0-1.43-2.5l-13.92-8.113a2.848 2.848 0 0 0-1.437-.393Z"/><path fill="#1B4ADD" d="M29.975 82.775h-2.04a.365.365 0 0 0-.342.24l-6.564 18.012a.183.183 0 0 0 .171.245h2.04c.152 0 .29-.097.342-.24l6.563-18.013a.183.183 0 0 0-.17-.244Zm-3.568 0h-2.04a.365.365 0 0 0-.342.24l-6.563 18.012a.183.183 0 0 0 .17.245h2.04a.365.365 0 0 0 .342-.24l6.564-18.013a.183.183 0 0 0-.171-.244Zm2.64 6.983c-.06-.161-.286-.161-.342 0l-1.061 2.913a.384.384 0 0 0 0 .25l2.953 8.111c.051.144.19.24.342.24h2.04a.183.183 0 0 0 .17-.245l-4.102-11.269Zm7.676 11.269-5.89-16.163c-.06-.162-.286-.162-.342 0l-1.061 2.912a.383.383 0 0 0 0 .25l4.74 13.011c.05.144.19.241.341.241h2.04a.19.19 0 0 0 .172-.251Z"/></svg>