<svg fill="none" height="21" viewBox="0 0 21 21" width="21" xmlns="http://www.w3.org/2000/svg"><path d="m8.5 9c.41667 0 .77067-.146 1.062-.438.292-.29133.438-.64533.438-1.062s-.146-.77067-.438-1.062c-.29133-.292-.64533-.438-1.062-.438s-.77067.146-1.062.438c-.292.29133-.438.64533-.438 1.062s.146.77067.438 1.062c.29133.292.64533.438 1.062.438zm-2 5c.41667 0 .77067-.146 1.062-.438.292-.2913.438-.6453.438-1.062s-.146-.7707-.438-1.062c-.29133-.292-.64533-.438-1.062-.438s-.77067.146-1.062.438c-.292.2913-.438.6453-.438 1.062s.146.7707.438 1.062c.29133.292.64533.438 1.062.438zm6.5 1c.2833 0 .521-.096.713-.288.1913-.1913.287-.4287.287-.712s-.0957-.521-.287-.713c-.192-.1913-.4297-.287-.713-.287s-.5207.0957-.712.287c-.192.192-.288.4297-.288.713s.096.5207.288.712c.1913.192.4287.288.712.288zm-3 6c-1.38333 0-2.68333-.2627-3.9-.788-1.21667-.5247-2.275-1.237-3.175-2.137s-1.61233-1.9583-2.137-3.175c-.525333-1.2167-.788-2.5167-.788-3.9 0-1.35.279333-2.66267.838-3.938.558-1.27467 1.333-2.39533 2.325-3.362.99133-.96667 2.17033-1.7 3.537-2.2s2.86667-.649999 4.5-.45c.25.03333.4417.13733.575.312.1333.17533.2083.413.225.713.0333 1.06667.4293 1.979 1.188 2.737.758.75867 1.662 1.15467 2.712 1.188.35.01667.6167.11667.8.3s.2833.46667.3.85c.0333.7.246 1.275.638 1.725.3913.45.937.79167 1.637 1.025.2333.08333.4123.204.537.362.1253.1587.188.3547.188.588.0333 1.3833-.2083 2.6917-.725 3.925s-1.225 2.3123-2.125 3.237c-.9.9253-1.9667 1.6547-3.2 2.188s-2.55.8-3.95.8zm0-2c2.0333 0 3.8377-.7 5.413-2.1 1.5747-1.4 2.437-3.1833 2.587-5.35-.8333-.3667-1.4873-.8667-1.962-1.5-.4753-.63333-.7963-1.34167-.963-2.125-1.2833-.18333-2.3833-.73333-3.3-1.65s-1.4833-2.01667-1.7-3.3c-1.33333-.03333-2.50433.20833-3.513.725-1.008.51667-1.84933 1.179-2.524 1.987-.67533.80867-1.18367 1.688-1.525 2.638-.342.95-.513 1.8417-.513 2.675 0 2.2167.77933 4.1043 2.338 5.663 1.558 1.558 3.44533 2.337 5.662 2.337z" fill="#000"/></svg>