<svg width="294" height="294" viewBox="0 0 294 294" fill="none" xmlns="http://www.w3.org/2000/svg">
<path d="M61.0547 139.822C61.0544 138.182 61.3782 136.558 62.0074 135.044C62.6365 133.529 63.5587 132.154 64.721 130.997C65.8833 129.84 67.2627 128.924 68.78 128.301C70.2974 127.679 71.9227 127.362 73.5627 127.37L94.2997 127.438C97.6062 127.438 100.777 128.752 103.115 131.09C105.453 133.428 106.767 136.599 106.767 139.905V218.319C109.103 217.627 112.099 216.889 115.381 216.119C117.66 215.583 119.69 214.292 121.144 212.457C122.598 210.622 123.389 208.35 123.39 206.009V108.743C123.39 107.106 123.712 105.484 124.338 103.971C124.965 102.458 125.883 101.084 127.041 99.9259C128.199 98.7679 129.573 97.8493 131.086 97.2226C132.599 96.5958 134.22 96.2732 135.858 96.2731H156.636C159.942 96.2736 163.113 97.5873 165.451 99.9252C167.789 102.263 169.102 105.434 169.103 108.74V199.019C169.103 199.019 174.303 196.913 179.372 194.774C181.254 193.978 182.86 192.645 183.99 190.942C185.12 189.239 185.723 187.241 185.725 185.197V77.5701C185.725 75.9329 186.047 74.3118 186.673 72.7992C187.3 71.2867 188.218 69.9123 189.376 68.7546C190.533 67.5969 191.907 66.6786 193.42 66.0521C194.932 65.4255 196.554 65.1031 198.191 65.1031H218.969C222.275 65.1031 225.446 66.4165 227.785 68.7545C230.123 71.0925 231.436 74.2635 231.437 77.5701V166.195C249.451 153.14 267.708 137.437 282.196 118.556C284.298 115.815 285.689 112.597 286.244 109.188C286.8 105.779 286.503 102.285 285.381 99.0191C275.578 70.4503 257.19 45.6067 232.732 27.8851C208.273 10.1636 178.938 0.429239 148.737 0.0130677C67.2977 -1.08093 -0.00729532 65.3981 0.000704677 146.847C-0.0792585 172.62 6.64746 197.958 19.5007 220.297C21.2733 223.353 23.881 225.839 27.0176 227.464C30.1541 229.089 33.6893 229.785 37.2077 229.47C41.1387 229.124 46.0327 228.635 51.8507 227.952C54.383 227.664 56.7209 226.454 58.4191 224.554C60.1173 222.653 61.0571 220.195 61.0597 217.646V139.822" fill="#86B2DC"/>
<path d="M60.6026 265.58C82.5045 281.513 108.387 291.077 135.387 293.213C162.387 295.349 189.452 289.975 213.587 277.684C237.722 265.394 257.986 246.666 272.138 223.574C286.291 200.481 293.779 173.923 293.775 146.839C293.775 143.458 293.618 140.115 293.392 136.79C239.75 216.79 140.706 254.19 60.6016 265.583" fill="#86B2DC"/>
</svg>