<svg xmlns="http://www.w3.org/2000/svg" fill="none" viewBox="0 0 112 170"><path fill="#17335d" fill-rule="evenodd" d="M111.702 50.813c-.28-1.27-1.326-1.625-2.334-1.98-4.984-1.719-9.986-3.325-14.933-5.156-6.795-2.54-13.552-5.23-20.31-7.884-8.082-3.175-16.146-6.333-24.266-9.602a78.086 78.086 0 0 1-22.83-13.32A51.999 51.999 0 0 1 16.707.915C16.5.58 16.053.411 15.493 0a4.58 4.58 0 0 0 1.195 3.96 81.638 81.638 0 0 0 7.187 8.575 62.852 62.852 0 0 0 14.933 10.76 22.042 22.042 0 0 1 4.443 2.56 9.16 9.16 0 0 1-2.632 8.238l-1.867-.672a108.346 108.346 0 0 1-14.224-7.062 62.356 62.356 0 0 1-7.261-4.371 147.047 147.047 0 0 0-14.598-9.34c-.634-.356-1.288-.692-1.866-1.028 5.19 5.604 11.386 9.826 17.36 14.291.491.33 1.01.617 1.549.86 4.76 2.577 9.52 5.174 14.317 7.659a14.936 14.936 0 0 1 4.76 3.736 4.634 4.634 0 0 1 .934 4.801 4.988 4.988 0 0 1-1.96 3.082 67.745 67.745 0 0 1-14.336-2.559c-2.016-.579-4.032-1.196-6.067-1.737a15.4 15.4 0 0 0-2.632-.187c.5.433 1.024.838 1.568 1.214a39.175 39.175 0 0 0 11.443 4.39c2.053.467 4.088.953 6.104 1.476.856.374 1.743.674 2.65.897a34.98 34.98 0 0 1 12.657 3.736c2.407 1.214 4.89 2.298 7.298 3.55a37.87 37.87 0 0 1 14.933 14.515 133.419 133.419 0 0 1 6.496 13.077 46.096 46.096 0 0 1 3.566 13.077c.672 5.006.99 10.05 1.568 15.076a11.982 11.982 0 0 1-.43 5.081 26.884 26.884 0 0 0-1.213 5.399 27.376 27.376 0 0 1-1.55 6.426c-1.997 5.81-4.087 11.583-6.028 17.393-1.55 4.67-2.95 9.34-4.406 14.067a21.476 21.476 0 0 0-.821 2.839 2.114 2.114 0 0 0 1.12 2.559c1.12-1.868 2.37-3.642 3.378-5.604a14.077 14.077 0 0 1 5.432-5.604 15.299 15.299 0 0 1 10.491-1.588 10.389 10.389 0 0 1 6.347 2.802c3.472 3.736 7.037 7.267 7.466 12.89 0 .112.131.206.318.486 1.232-.318 1.232-1.252 1.306-2.093.262-3.736.486-7.341.729-11.003 0-1.606.223-3.213.298-4.801.373-7.024.971-14.048 1.064-21.091.093-7.043.187-14.048.691-21.054 1.176-16.626 2.277-33.253 3.453-49.88a23.086 23.086 0 0 1 1.232-6.892 4.115 4.115 0 0 0-.186-2.093Zm-3.734 2.223a17.532 17.532 0 0 1-3.547 8.762 20.929 20.929 0 0 0-7.914-8.313c4.275-.355 7.914-1.364 11.498-.449h-.037Zm-19.525.243a21.33 21.33 0 0 1 10.528 4.54 10.313 10.313 0 0 1 2.893 12.834c-.933 2.26-1.867 4.52-2.819 6.762a19.85 19.85 0 0 1-1.325 2.037c-.355-.897-.635-1.401-.784-1.868a31.273 31.273 0 0 0-11.2-17.748c-2.352-1.868-4.61-3.736-6.907-5.604-.336-.299-.615-.673-1.213-1.345a89.65 89.65 0 0 1 10.827.392Zm-13.365-3.363c-.187 0-.355-.261-.673-.504.206-.598.392-1.252.654-2.092 4.947.71 9.706 2.017 14.56 2.877l1.026.261v.206l-.952-.467c-.261.205-.522.616-.746.597a2731.18 2731.18 0 0 1-13.87-.915v.038Zm10.005-5.604c.148-.415.322-.821.522-1.214a75.863 75.863 0 0 1 19.078 6.744 97.587 97.587 0 0 1-20.086-3.55c.187-.934.3-1.513.486-2.092v.112Zm-10.976-6.165a299.3 299.3 0 0 1 7.15 2.84c1.978.86 2.183 1.532 1.343 3.736a4.846 4.846 0 0 1-.728 1.028 68.403 68.403 0 0 1-8.81-1.869 25.73 25.73 0 0 0 0-3.325c-.145-.799-.37-1.581-.672-2.335.709-.878 1.25-.374 1.717-.187v.112ZM73.06 47.34a2.15 2.15 0 0 1-2.426 2.054c-2.09 0-4.163-.112-6.272-.186-.635-1.607-1.214-3.046-1.867-4.484a24.66 24.66 0 0 1 10.565 2.503v.113ZM61.488 32.99c1.867.766 3.883 1.644 5.843 2.41a5.43 5.43 0 0 1 3.304 3.512c.84 2.373.448 3.568-2.539 3.606a1.024 1.024 0 0 1-.336 0l-1.699-.411-10.397-2.71 4.088-6.78c.59.068 1.17.193 1.736.373Zm-15.68-5.866s.336-.205.485-.15c3.062 1.215 6.104 2.43 9.128 3.737 1.438.598 1.699 1.382 1.064 2.896a7.62 7.62 0 0 1-2.65 3.362 3.9 3.9 0 0 1-3.939.598c-2.035-.84-4.2-1.364-6.16-2.354a446.894 446.894 0 0 1 2.072-8.089Zm1.568 17.56a9.327 9.327 0 0 1-6.067 1.589c.4-1.446.687-2.92.86-4.41a26.668 26.668 0 0 0-.467-4.128l6.514 2.298c.112.84.261 1.663.299 2.503a2.242 2.242 0 0 1-1.139 2.074v.075Zm.859 2.803a18.15 18.15 0 0 0 2.053-3.213 13.6 13.6 0 0 0 .467-3.326c.56 0 .99.15 1.418.262 2.128.598 4.275 1.102 6.347 1.868s2.39 2.503 3.005 4.203c0 .262-.336.841-.653 1.103-.303.179-.663.239-1.008.168l-11.63-1.065ZM52.155 51c1.25 0 1.867-.168 2.37-.13 5.209.448 10.416.952 15.606 1.363a7.927 7.927 0 0 1 4.256 1.401c1.866 1.401 3.882 2.69 5.768 4.129 1.885 1.438 3.266 2.765 4.928 4.09a26.638 26.638 0 0 1 6.85 8.725 49.012 49.012 0 0 1 3.902 12.591 5.422 5.422 0 0 1-.336 2.859c-.878 2.41-1.867 4.744-2.894 7.08-.858.168-1.045-.467-1.138-1.065a50.458 50.458 0 0 0-4.331-11.601c-2.987-6.725-7.69-11.994-12.488-17.168a31.34 31.34 0 0 0-9.912-6.744c-3.92-1.925-7.915-3.569-12.581-5.605V51Zm28.858 35.793a107.52 107.52 0 0 0-9.128-18.326 35.067 35.067 0 0 0-6.197-6.987 8.76 8.76 0 0 1-2.819-3.157c.997.273 1.97.623 2.912 1.046a38.481 38.481 0 0 1 12.656 11.415c.617.896 1.307 1.737 1.998 2.559a53.313 53.313 0 0 1 6.87 12.367c1.492 3.157 1.866 6.594 3.098 9.789.382 1.05.382 2.2 0 3.25-1.382 3.942-2.744 7.884-4.144 11.826 0 .299-.448.485-.84.878a20.362 20.362 0 0 1-.952-6.24c-.579-6.314-1.12-12.703-3.454-18.494v.074Zm22.401 70.653c0 1.065-.374 1.868-1.494 2.13-7.093-10.219-18.387-10.518-27.123-4.558a4.951 4.951 0 0 1 0-1.383c1.867-5.698 3.883-11.358 5.806-17.056a9.192 9.192 0 0 1 3.733-4.689 18.93 18.93 0 0 1 7.467-3.848 10.937 10.937 0 0 1 8.157 2.372 3.287 3.287 0 0 1 1.064 1.868 66.337 66.337 0 0 1 2.315 13.077c.254 4 .254 8.012 0 12.012l.075.075Zm1.269-22.922a5.956 5.956 0 0 1-.411 1.607 36.794 36.794 0 0 1-1.101-3.979 6.396 6.396 0 0 0-3.902-4.839 12.61 12.61 0 0 0-14.13 1.345 7.447 7.447 0 0 1-1.325.691 1.195 1.195 0 0 1-.187-1.55c1.605-4.764 3.266-9.509 4.872-14.273a5.923 5.923 0 0 1 2.053-2.895 32.385 32.385 0 0 0 2.987-2.522 5.591 5.591 0 0 1 5.6-1.308 6.739 6.739 0 0 1 5.282 5.885c.236 1.231.336 2.483.299 3.736-.463 5.999-.5 12.023-.112 18.027l.075.075Zm.784-27.686c0 .225-.224.411-.523.935A8.81 8.81 0 0 0 98 104.559a6.868 6.868 0 0 0-6.944 3.737 8.833 8.833 0 0 1 0-1.869c1.419-3.885 2.856-7.79 4.35-11.657a4.205 4.205 0 0 1 1.25-1.7 31.56 31.56 0 0 1 4.088-2.783 5.038 5.038 0 0 1 2.651-.56 2.556 2.556 0 0 1 2.632 2.41c.213 1.076.326 2.17.336 3.269a447.053 447.053 0 0 0-.971 11.358l.075.074Zm1.176-18.68a19.991 19.991 0 0 0-4.312-.599c-1.361.236-2.69.63-3.957 1.177-.504-.317-.224-.84 0-1.233.746-2.073 1.474-4.147 2.352-6.146 1.269-2.895 1.866-3.213 5.469-2.914a16.624 16.624 0 0 1 .373 9.583l.075.131Zm.821-11.957c-.747 0-1.53.13-2.314.13s-1.363-.13-2.035-.205a3.114 3.114 0 0 1 0-.84l4.89-13.283c.224.243.486.393.486.56a89.065 89.065 0 0 1-1.101 13.507l.074.131Z" clip-rule="evenodd"/><path fill="#17335d" d="M12.955 152.906s0-4.334-2.744-3.325c-2.744 1.009-1.083 3.979-1.083 3.979s-3.117 6.501 4.032 7.94c.037 0 4.368-3.456-.205-8.594Z"/><path fill="#17335d" d="M8.885 153.897a38.005 38.005 0 0 0-5.506-3.736 4.294 4.294 0 0 0-2.968.541L0 149.955a5.277 5.277 0 0 1 3.733-.616 41.337 41.337 0 0 1 5.75 3.904l-.598.654ZM.915 157.577l-.822-.243c0-.168 1.195-4.128 3.566-4.203 1.875.147 3.705.648 5.394 1.476l-.373.784a13.884 13.884 0 0 0-4.984-1.401c-1.475.056-2.501 2.616-2.781 3.587Z"/><path fill="#17335d" d="m1.754 163.013-.82-.28c.242-.71 2.37-6.949 5.188-6.856 2.39 0 2.968.598 3.006 1.027l-.84.113a.259.259 0 0 0 0 .13s-.336-.355-2.222-.411c-1.885-.056-3.472 3.83-4.312 6.277Z"/><path fill="#17335d" d="M4.182 165.236c0-.205-.504-4.932 2.706-5.81l2.875-.784.224.822-2.875.803c-2.501.672-2.072 4.838-2.072 4.876l-.858.093ZM13.552 153.467h-.859c.822-7.211 5.171-8.762 5.358-8.818l.28.822c-.168-.037-4.032 1.364-4.779 7.996Z"/><path fill="#17335d" d="m13.59 155.279-.766-.411a28.923 28.923 0 0 1 3.397-5.231c1.55-1.55 5.507 1.457 6.272 2.074l-.541.672c-1.68-1.345-4.368-2.877-5.134-2.129a28.573 28.573 0 0 0-3.229 5.025Z"/><path fill="#17335d" d="M22.381 156.699c-1.456-1.233-4.218-3.008-5.394-2.466-1.25.649-2.4 1.473-3.416 2.447l-.616-.654a14.965 14.965 0 0 1 3.733-2.615c2.053-.953 5.88 2.242 6.31 2.597l-.617.691Z"/><path fill="#17335d" d="M21.709 159.445c-.15-.149-3.733-3.437-7.467-1.252l-.429-.747c4.181-2.522 8.4 1.326 8.456 1.364l-.56.635ZM10.566 18.027a2.968 2.968 0 0 1-.411.337v136.168h.933L11 18.5l-.434-.473Z"/></svg>