<svg xmlns="http://www.w3.org/2000/svg" fill="none" viewBox="0 0 33 33"><path fill="#0D5ED9" fill-rule="evenodd" d="M16.5 33C25.613 33 33 25.613 33 16.5S25.613 0 16.5 0 0 7.387 0 16.5 7.387 33 16.5 33Zm-4.39-9.14c1.074 1.093 2.384 1.64 3.928 1.64 1.545 0 2.855-.547 3.928-1.64 1.074-1.092 1.61-2.415 1.61-3.966v-3.27a2.599 2.599 0 0 0 1.393-.952c.354-.469.531-1 .531-1.595s-.177-1.126-.53-1.592a2.687 2.687 0 0 0-1.393-.964V8.25a.726.726 0 0 0-.216-.534.725.725 0 0 0-.534-.216.726.726 0 0 0-.534.216.725.725 0 0 0-.216.534v3.271a2.688 2.688 0 0 0-1.392.964 2.563 2.563 0 0 0-.531 1.592c0 .595.178 1.124.535 1.587.358.464.82.783 1.388.96v3.27a4 4 0 0 1-1.18 2.897c-.786.806-1.74 1.209-2.858 1.209-1.12 0-2.073-.403-2.86-1.209A4 4 0 0 1 12 19.894V18.21l1.202 1.23a.725.725 0 0 0 .53.223.727.727 0 0 0 .737-.75.68.68 0 0 0-.207-.507l-2.989-3.017c-.147-.154-.313-.194-.497-.118-.184.075-.276.218-.276.429v4.194c0 1.552.537 2.874 1.61 3.967Zm9.55-8.95c-.227.227-.505.34-.833.34-.328 0-.606-.113-.833-.34a1.133 1.133 0 0 1-.34-.833c0-.328.113-.606.34-.833.227-.227.505-.34.833-.34.328 0 .606.113.833.34.227.227.34.505.34.833 0 .328-.113.606-.34.833Z" clip-rule="evenodd"/></svg>