<svg xmlns="http://www.w3.org/2000/svg" fill="none" viewBox="0 0 18 18"><path fill="currentColor" d="M9 10.905c-.525 0-.973-.187-1.346-.56A1.834 1.834 0 0 1 7.094 9c0-.524.187-.972.56-1.345.373-.373.821-.56 1.345-.56s.972.187 1.345.56c.373.373.56.821.56 1.345s-.187.972-.56 1.345c-.373.373-.821.56-1.345.56Zm0 6.666c-2.207 0-4.12-.726-5.739-2.178C1.642 13.94.713 12.127.475 9.953h1.953c.222 1.65.956 3.015 2.202 4.095 1.246 1.079 2.702 1.619 4.37 1.619 1.856 0 3.432-.647 4.725-1.94 1.294-1.294 1.94-2.87 1.94-4.727 0-1.857-.646-3.433-1.94-4.726C12.432 2.98 10.856 2.334 9 2.334a6.428 6.428 0 0 0-3.071.761A7.078 7.078 0 0 0 3.523 5.19h2.619v1.905H.428V1.381h1.905v2.238a8.316 8.316 0 0 1 2.964-2.357A8.506 8.506 0 0 1 8.999.429c1.19 0 2.306.226 3.345.678A8.713 8.713 0 0 1 15.06 2.94a8.72 8.72 0 0 1 1.833 2.715A8.292 8.292 0 0 1 17.571 9c0 1.19-.227 2.306-.679 3.345a8.714 8.714 0 0 1-1.833 2.714 8.713 8.713 0 0 1-2.715 1.834A8.292 8.292 0 0 1 9 17.57Z"/></svg>