<svg xmlns="http://www.w3.org/2000/svg" fill="none" viewBox="0 0 33 34"><path fill="#BCEC79" d="M26.194 13.864c-.264-2.34-4.42-5.15-11.121-7.516a3.02 3.02 0 0 0-.464-.04c-.28 0-.563.053-.708.237-.216.274-.16.816-.071 1.017 1.01 2.277 2.354 5.621 2.69 9.024 1.526-.064 4.128-.18 6.523-.485 3.348-.45 3.2-1.795 3.151-2.238v.002Z"/><path fill="#BCEC79" d="M30.805 11.095c-.957-1.367-4.086-3.777-5.415-4.564-1.123-.664-6.382-3.48-11.59-5.12-.761-.236-2.164-.593-3.708-.593-1.262 0-2.619.238-3.796.973C3.59 3.481 1.238 8.142.574 13.129c-.74 5.511-.901 15.784 3.188 19.323 1.426 1.235 3.233 1.519 5.523.867 1.907-.545 4.161-2.822 4.894-6.678l.085-.442.037-.013c.698-2.77.913-5.342.735-8.754v-.006c-.177-3.404-1.579-6.904-2.617-9.24-.256-.58-.395-1.748.268-2.593.388-.494 1.174-1.027 2.714-.757l.062.012.06.021c9.649 3.395 11.962 6.671 12.206 8.825.164 1.502-.48 3.402-4.485 3.939-2.45.313-5.076.432-6.631.496.098 2.785-.083 5.12-.587 7.466.564-.197 1.102-.387 1.629-.577 3.234-1.15 5.787-2.059 9.767-2.79l.075-.014c1.162-.193 4.246-.704 5.048-3.803.894-3.36.159-4.597-1.738-7.316h-.002ZM9.588 26.147c-.64 1.282-1.405 1.529-1.802 1.564h-.033l-.033.001c-.4 0-1.18-.189-1.905-1.449-.61-1.03-.968-2.445-1.009-3.973-.04-1.521.236-2.953.776-4.032.64-1.281 1.405-1.528 1.804-1.563h.064c.4-.002 1.181.185 1.905 1.445.592 1.043.95 2.45 1.009 3.964v.01c.04 1.52-.235 2.953-.776 4.031v.002Z"/><path fill="#BCEC79" d="M8.013 18.91c-.233-.406-.432-.584-.536-.647-.106.069-.301.262-.516.687-.422.845-.646 2.047-.613 3.302.033 1.25.324 2.431.8 3.236.238.415.439.594.543.658.106-.07.301-.263.515-.687.423-.843.645-2.046.614-3.296-.05-1.253-.344-2.438-.807-3.252v-.002Zm23.979 10.21a.343.343 0 0 1-.346-.347c0-.194.152-.347.346-.347.2 0 .356.153.356.347a.351.351 0 0 1-.356.346Zm.236 2.72h-.48v-2.384h.48v2.384Zm-.926-2.383v.42h-.614v1.964h-.48v-1.964h-.384v-.42h.383v-.208c0-.462.292-.763.726-.763.152 0 .263.023.351.051v.44a.945.945 0 0 0-.259-.042c-.185 0-.337.074-.337.3v.222h.614Zm-2.198 2.413a.363.363 0 0 1-.365-.366c0-.203.157-.36.365-.36.213 0 .36.162.36.36a.359.359 0 0 1-.36.365Zm-2.56-1.073c.041.356.263.638.67.638a.563.563 0 0 0 .55-.356h.494c-.037.226-.31.79-1.044.79-.689 0-1.165-.527-1.165-1.22 0-.679.485-1.22 1.141-1.22.638 0 1.11.541 1.11 1.193 0 .064-.005.124-.01.175h-1.746Zm.646-.933c-.355 0-.573.25-.633.573h1.253c-.051-.319-.264-.573-.62-.573Zm-1.858-.409h.513l-.947 2.384h-.494l-.952-2.384h.513l.42 1.077c.083.217.185.48.263.72h.005c.083-.24.18-.503.263-.72l.416-1.077Zm-2.327-.025c.111 0 .176.009.231.014v.48a1.48 1.48 0 0 0-.25-.023c-.36 0-.614.203-.614.66v1.28h-.48v-2.384h.48v.314a.706.706 0 0 1 .633-.341Zm-2.959 2.437c-.527 0-.878-.356-.878-.984v-1.428h.48v1.405c0 .314.236.531.536.531a.539.539 0 0 0 .545-.55v-1.386h.48v2.384h-.47v-.332a.817.817 0 0 1-.693.36Zm-2.833.001a1.672 1.672 0 0 1-1.668-1.69c0-.934.735-1.692 1.668-1.692a1.5 1.5 0 0 1 1.465 1.137h-.508c-.125-.384-.555-.656-.957-.656-.67 0-1.187.54-1.187 1.21 0 .67.517 1.21 1.187 1.21.44 0 .823-.249.97-.66h.509c-.153.642-.703 1.141-1.479 1.141Z"/></svg>