<svg height="16" viewBox="0 0 16 16" width="16"><g fill="none"><path d="m0 0h16v16h-16z" fill="#f7df1e"/><path d="m.207 6.37 1.224-.74c.237.418.452.773.967.773.494 0 .806-.194.806-.945v-5.113h1.503v5.135c0 1.557-.913 2.266-2.244 2.266-1.203-.001-1.903-.624-2.256-1.376m5.317-.16 1.224-.71c.322.527.741.913 1.482.913.623 0 1.02-.311 1.02-.74 0-.516-.407-.699-1.095-1l-.376-.16c-1.084-.463-1.804-1.043-1.804-2.268 0-1.127.86-1.987 2.202-1.987.956 0 1.643.333 2.137 1.203l-1.17.752c-.258-.462-.538-.644-.967-.644-.44 0-.72.279-.72.644 0 .451.28.634.924.913l.376.161c1.278.548 1.997 1.106 1.997 2.363 0 1.353-1.063 2.094-2.491 2.094-1.397 0-2.299-.666-2.739-1.536" fill="#000" transform="translate(4 7)"/></g></svg>