<svg fill="none" height="22" viewBox="0 0 22 22" width="22" xmlns="http://www.w3.org/2000/svg"><path d="m0 0h22v22h-22z" fill="#f7df1e"/><path d="m5.78462 18.3837 1.683-1.0175c.32588.5748.6215 1.0629 1.32963 1.0629.67925 0 1.10825-.2667 1.10825-1.2994v-7.0303h2.0666v7.0606c0 2.1409-1.2554 3.1157-3.08548 3.1157-1.65412-.0013-2.61662-.858-3.102-1.892zm7.31088-.22 1.683-.9762c.4427.7246 1.0189 1.2554 2.0377 1.2554.8567 0 1.4026-.4277 1.4026-1.0175 0-.7095-.5597-.9612-1.5057-1.375l-.517-.22c-1.4905-.6367-2.4805-1.4341-2.4805-3.1185 0-1.5496 1.1825-2.73215 3.0278-2.73215 1.3145 0 2.2591.45785 2.9383 1.65415l-1.6087 1.034c-.3548-.6353-.7397-.8855-1.3296-.8855-.605 0-.99.3836-.99.8855 0 .6201.385.8717 1.2705 1.2554l.517.2213c1.7572.7535 2.7458 1.5208 2.7458 3.2491 0 1.8604-1.4616 2.8793-3.4251 2.8793-1.9209 0-3.1611-.9158-3.7661-2.112" fill="#000"/></svg>