<svg fill="none" viewBox="0 0 570 642" xmlns="http://www.w3.org/2000/svg"><g fill="#fff"><path d="m286.083 39.75c1.56 0 3.04.39 4.44 1.17l235.08 136.79c2.73 1.56 4.36 4.52 4.36 7.64l-.86 271.95c0 3.12-1.71 6.08-4.44 7.64l-236.02 135.23c-1.33.78-2.88 1.17-4.44 1.17s-3.04-.39-4.44-1.17l-235-136.79c-2.73-1.56-4.36-4.52-4.36-7.64l.86-271.95c0-3.12 1.71-6.08 4.44-7.64l236.01-135.23a8.534 8.534 0 0 1 4.36-1.17m.16-39.75c-8.42 0-16.76 2.1-24.32 6.39l-236.02 135.23c-15.04 8.65-24.4 24.63-24.4 42.01l-.86 271.95a48.465 48.465 0 0 0 24.16 42.17l235.08 136.79c7.48 4.36 15.9 6.55 24.24 6.63s16.76-2.1 24.32-6.39l236.02-135.23c15.04-8.65 24.4-24.63 24.4-42.01l.86-271.95a48.465 48.465 0 0 0 -24.16-42.17l-235.07-136.79c-7.48-4.36-15.82-6.63-24.24-6.63h-.01z"/><path d="m333.861 148.25h-34.45c-2.57 0-4.91 1.64-5.77 4.05l-110.84 303.75c-.7 2.03.78 4.13 2.88 4.13h34.45c2.57 0 4.91-1.64 5.77-4.05l110.84-303.75c.7-2.03-.78-4.13-2.88-4.13zm-60.25 0h-34.45c-2.57 0-4.91 1.64-5.77 4.05l-110.84 303.75c-.7 2.03.78 4.13 2.88 4.13h34.45c2.57 0 4.91-1.64 5.77-4.05l110.84-303.75c.7-2.03-.78-4.13-2.88-4.13zm44.58 117.77c-1.01-2.73-4.83-2.73-5.77 0l-17.93 49.11a6.461 6.461 0 0 0 0 4.21l49.88 136.79c.86 2.42 3.2 4.05 5.77 4.05h34.45c2.1 0 3.59-2.1 2.88-4.13l-69.29-190.03zm129.62 190.03-99.46-272.57c-1.01-2.73-4.83-2.73-5.77 0l-17.93 49.11a6.461 6.461 0 0 0 0 4.21l80.05 219.42c.86 2.42 3.2 4.05 5.77 4.05h34.45c2.1-.08 3.59-2.18 2.88-4.21z"/></g></svg>