<svg fill="none" height="500" viewBox="0 0 500 500" width="500" xmlns="http://www.w3.org/2000/svg" xmlns:xlink="http://www.w3.org/1999/xlink"><clipPath id="a"><path d="m0 0h500v500h-500z"/></clipPath><g clip-path="url(#a)"><path d="m0 250c0 138.071 111.929 250 250 250s250-111.929 250-250-111.929-250-250-250-250 111.929-250 250z" fill="#f0ebde"/><path d="m111.82 111.62 138.33 138.29 138.33-138.29c-36.69-37.03-85.62-57.34-138.33-57.34s-101.46 20.32-138.33 57.34zm138.18 179.95-178.5-178.41c4.99-6.38 10.33-12.57 15.86-18.42 41-42.87 98.72-69.74 162.81-69.74s121.96 26.87 162.81 69.74c5.68 5.68 11.03 12.06 15.51 18.25zm156.43-121.75c12.06 14.47 19.29 32.72 19.29 53.03 0 45.63-37.05 82.66-82.69 82.66-20.15 0-38.59-7.23-53.06-19.29l-39.8 39.78-39.8-39.78c-14.47 12.06-32.74 19.29-53.05 19.29-45.65 0-82.7-37.03-82.7-82.66 0-20.15 7.23-38.58 19.29-53.03l-18.61-18.59-17.74-17.74c-20.68 34.09-32.56 73.86-32.56 116.59 0 124.33 100.77 224.91 225 224.91s225-100.75 225-224.91c.34-42.87-11.55-82.66-32.22-116.59l-36.34 36.33zm-63.41 111.08c32.22.17 58.41-26.01 58.41-58.39 0-13.42-4.48-25.82-12.23-35.81l-82.01 81.97c9.82 7.75 22.22 12.23 35.83 12.23zm-243.95-58.2c0-13.61 4.48-26 12.23-35.81l82.01 81.97c-9.99 7.75-22.39 12.23-35.83 12.23-32.39-.02-58.58-26.18-58.41-58.39z" fill="#133629"/></g></svg>