<svg fill="none" height="21" viewBox="0 0 42 21" width="42" xmlns="http://www.w3.org/2000/svg"><path d="m11.5769 14.0385c-2.03075 0-3.69229-1.5231-3.69229-3.3847 0-1.86149 1.66154-3.38457 3.69229-3.38457 2.0308 0 3.6923 1.52308 3.6923 3.38457 0 1.8616-1.6615 3.3847-3.6923 3.3847zm10.3385-6.76927c-1.4769-3.89231-5.5385-6.76923-10.3385-6.76923-6.09228 0-11.0769 4.56923-11.0769 10.1538 0 5.5847 4.98462 10.1539 11.0769 10.1539 4.8 0 8.8616-2.8769 10.3385-6.7692h6.2769v6.7692h7.3846v-6.7692h5.5385v-6.76927z" fill="#000"/></svg>