<svg fill="none" height="20" viewBox="0 0 16 20" width="16" xmlns="http://www.w3.org/2000/svg"><path d="m8 12c.55 0 1.021-.196 1.413-.588.39133-.3913.587-.862.587-1.412s-.19567-1.021-.587-1.413c-.392-.39133-.863-.587-1.413-.587s-1.02067.19567-1.412.587c-.392.392-.588.863-.588 1.413s.196 1.0207.588 1.412c.39133.392.862.588 1.412.588zm0 5.9c.68333-.1833 1.36267-.521 2.038-1.013.6747-.4913 1.262-1.037 1.762-1.637l-1.8-1.8c-.3.1833-.62067.321-.962.413-.342.0913-.688.137-1.038.137-1.1 0-2.04167-.3917-2.825-1.175s-1.175-1.725-1.175-2.825.39167-2.04167 1.175-2.825 1.725-1.175 2.825-1.175 2.0417.39167 2.825 1.175 1.175 1.725 1.175 2.825c0 .3667-.0457.7207-.137 1.062-.092.342-.2297.6713-.413.988l1.5 1.5c.3333-.6833.5917-1.4.775-2.15s.275-1.51666.275-2.3v-4.725l-6-2.25-6 2.25v4.725c0 2.0167.56667 3.85 1.7 5.5s2.56667 2.75 4.3 3.3zm0 1.95c-.18333 0-.354-.0127-.512-.038-.15867-.0247-.30467-.062-.438-.112-2.06667-.7667-3.75833-2.1333-5.075-4.1-1.316667-1.9667-1.975-4.1333-1.975-6.5v-4.725c0-.41667.121-.79167.363-1.125.241333-.33333.553667-.575.937-.725l6-2.249998c.23333-.083334.46667-.125.7-.125s.46667.041666.7.125l6 2.249998c.3833.15.696.39167.938.725.2413.33333.362.70833.362 1.125v4.725c0 2.3667-.6583 4.5333-1.975 6.5s-3.0083 3.3333-5.075 4.1c-.13333.05-.27933.0873-.438.112-.158.0253-.32867.038-.512.038z" fill="#000"/></svg>