<svg xmlns="http://www.w3.org/2000/svg" fill="none" viewBox="0 0 57 38"><path fill="#004718" fill-rule="evenodd" d="M21.618 38a6.35 6.35 0 0 1-6.056-4.419L11.26 20.056H8.613a6.351 6.351 0 0 1-6.056-4.419L0 7.6h9.592L4.532 0h47.935l-5.059 7.6H57l-2.557 8.037a6.351 6.351 0 0 1-6.056 4.419h-2.646L41.438 33.58A6.35 6.35 0 0 1 35.382 38H21.618Z" clip-rule="evenodd"/><path fill="#D9EBDF" d="M16.583 15.498c.762 3.163 4.217 4.694 6.09 5.386a.254.254 0 0 0 .29-.086c1.31-1.642 3.615-4.89 2.853-8.052-.831-3.452-4.464-1.906-4.718.955-1.505-2.337-5.346-1.654-4.515 1.797Zm23.834 0c-.762 3.163-4.217 4.694-6.09 5.386a.254.254 0 0 1-.29-.086c-1.31-1.642-3.615-4.89-2.853-8.052.831-3.452 4.464-1.906 4.718.955 1.505-2.337 5.346-1.654 4.515 1.797Z"/></svg>