<svg xmlns="http://www.w3.org/2000/svg" fill="none" viewBox="0 0 443 246"><path fill="#F0DEDE" d="M0 0h443v246H0z"/><path fill="#fff" d="m57 33 33.875 25.906L124.75 33l33.875 25.906L192.5 33l33.875 25.906L260.25 33l33.875 25.906L328 33v213H57V33Z"/><path fill="#F0DEDE" d="M140 94h106v21H140zm50 53h91v21h-91zm0 39h91v21h-91zm-85 39h176v21H105z"/><path fill="#D4C3C2" d="M105 177c0-16.569 13.431-30 30-30h12v60h-12c-16.569 0-30-13.431-30-30Z"/><circle cx="147" cy="177" r="30" fill="#F0DEDE" transform="rotate(90 147 177)"/><circle cx="328" cy="166" r="55" fill="#D41300" transform="rotate(90 328 166)"/><path fill="#fff" d="m305.6 194-5.6-5.6 22.4-22.4-22.4-22.4 5.6-5.6 22.4 22.4 22.4-22.4 5.6 5.6-22.4 22.4 22.4 22.4-5.6 5.6-22.4-22.4-22.4 22.4Z"/></svg>