<svg xmlns="http://www.w3.org/2000/svg" viewBox="0 0 214.68 193.1"><path fill="#00a1ff" d="m191.3 78.27-4.51 1.99-2.96 6.71-2.96-6.71-.22-.1c-2.96.96-6.12 1.49-9.41 1.49-16.81 0-30.44-13.63-30.44-30.44 0-6.18 1.85-11.93 5.02-16.74-21.49-13-46.69-20.48-73.64-20.48S21.17 21.16 0 33.62V173.1l41.77-53.75v.39L53.11 89.6l-4.05 1.08c-4.66 1.25-9.61-.65-12.22-4.72l-7.95-12.41 16.18-4.34L33.1 58.67 113.98 37l-5.1 15.11 16.18-4.34-.68 14.72c-.23 4.83-3.55 8.95-8.22 10.19l-4.47 1.2v.08l32.83 86.92v-59.83h40.82v11.67l-14.06 3.11h.57l27.96 77.26h10.09c3.1-11.68 4.75-23.95 4.75-36.6 0-28.89-8.61-55.77-23.38-78.23zm-55.76-3.83-1.48 3.35-1.48-3.35-3.35-1.48 3.35-1.48 1.48-3.35 1.48 3.35 3.35 1.48z"/><path fill="#ffedec" d="m171.31 115.85 14.06-3.11v-11.67h-40.83v16.19-1.41z"/><path fill="#23191a" d="M171.31 115.85h-26.77v45.05L111.7 73.98l-1.14 24.69c-.23 4.83-3.55 8.95-8.22 10.19l-23.22 6.22c-4.66 1.25-9.61-.65-12.22-4.72L53.52 89.48l-.42.11-11.34 30.14v73.37h158.06l-27.96-77.26h-.57z"/><path fill="#ffedec" d="M41.77 119.34 0 173.09v20.01h41.77zm25.13-8.98c2.61 4.06 7.55 5.97 12.22 4.72l23.22-6.22c4.67-1.25 7.99-5.37 8.22-10.19l1.14-24.69v-.08l4.47-1.2c4.67-1.25 7.99-5.37 8.22-10.19l.68-14.72-16.18 4.34 5.1-15.11-80.88 21.67 11.97 10.54-16.18 4.34 7.95 12.41c2.61 4.06 7.55 5.97 12.22 4.72l4.05-1.08.42-.11 13.38 20.88zm25.6-42.5c1.61-4.45 8.56-5.14 8.6.78.03 4.26-3.25 7.67-6.09 9.9-.78.61-1.52 1.14-2.16 1.57-.16.11-.38.11-.54 0-.63-.43-1.37-.95-2.14-1.56-2.88-2.27-6.24-5.75-6.27-10.03-.04-5.92 6.92-5.13 8.59-.66zm-25.35 6.79c-.79-4.71 4.85-8.87 7.77-3.73 1.33 2.34 1.36 5.07.86 7.62-.51 2.59-1.56 4.99-2.35 6.62-.08.18-.27.29-.47.27-3.55-.24-10.2-1.09-12.88-5.81a6.73 6.73 0 0 1-.48-1.09c-1.51-4.45 4.19-6.72 7.54-3.89z"/><path fill="#00a1ff" d="M90.18 78.54c.77.61 1.51 1.13 2.14 1.56.16.11.38.11.54 0 .63-.43 1.38-.95 2.16-1.57 2.84-2.23 6.12-5.64 6.09-9.9-.04-5.92-7-5.23-8.6-.78-1.67-4.47-8.63-5.26-8.59.66.03 4.28 3.39 7.75 6.27 10.03zm-30.09 1.09c2.68 4.72 9.33 5.57 12.88 5.81.2.01.38-.09.47-.27.79-1.63 1.84-4.04 2.35-6.62.5-2.55.47-5.28-.86-7.62-2.92-5.15-8.56-.98-7.77 3.73-3.35-2.83-9.05-.55-7.54 3.89.12.35.27.71.48 1.09z"/><path fill="#f2cd16" d="M171.24 81.66c3.28 0 6.44-.53 9.41-1.49l-6.48-2.86 6.71-2.96 2.87-6.51.09-.2.3.67 2.66 6.03s1.39.61 2.66 1.17l.08.04c7.38-5.55 12.16-14.39 12.16-24.34 0-16.81-13.63-30.44-30.44-30.44-10.63 0-19.98 5.45-25.42 13.7a30.268 30.268 0 0 0-5.02 16.74c0 16.81 13.63 30.44 30.44 30.44zm.33-47.32c9.35 0 16.93 7.58 16.93 16.93 0 5.67-2.79 10.67-7.07 13.74-2.78 2-6.18 3.19-9.87 3.19-9.35 0-16.93-7.58-16.93-16.93 0-3.34.98-6.45 2.66-9.08 3.01-4.72 8.27-7.86 14.28-7.86z"/><path fill="#fff" d="M171.57 68.21c3.69 0 7.09-1.19 9.87-3.19 4.27-3.07 7.07-8.08 7.07-13.74 0-9.35-7.58-16.93-16.93-16.93-6.01 0-11.27 3.14-14.28 7.86-1.67 2.63-2.66 5.73-2.66 9.08 0 9.35 7.58 16.93 16.93 16.93z"/><path fill="#f2cd16" d="m167.88 12.56 1.92-4.36 4.36-1.92-4.36-1.92L167.88 0l-1.92 4.36-4.36 1.92 4.36 1.92zm-33.82 55.57-1.48 3.35-3.35 1.48 3.35 1.48 1.48 3.35 1.48-3.35 3.35-1.48-3.35-1.48z"/><path fill="#ffedec" d="m186.78 74.35-2.66-6.03-.3-.67-.09.2-2.87 6.51-6.71 2.96 6.48 2.86.22.1 2.96 6.71 2.96-6.71 4.51-1.99 2.19-.97s-2.05-.9-3.97-1.75l-.08-.04c-1.27-.56-2.66-1.17-2.66-1.17z"/></svg>
