<svg xmlns="http://www.w3.org/2000/svg" fill="none" viewBox="0 0 791 900"><g clip-path="url(#a)"><path fill="#CCF8FF" d="M0 90C0 40.294 40.294 0 90 0h611c49.706 0 90 40.294 90 90v720c0 49.706-40.294 90-90 90H90c-49.706 0-90-40.294-90-90V90Z"/><path fill="#65D9FF" d="m-201.939 1327.53-206.06-206.06 862.45-862.452 206.061 206.06z" opacity=".5"/><path fill="#012F7A" d="m572.024 376.184 97.053-71.492 49.071 49.071-84.273 84.272-61.851-61.851ZM294.819 653.388l-71.491 97.053 49.07 49.071 84.273-84.272-61.852-61.852Z"/><path fill="#00A1FF" d="m601.824 406.097 97.053-71.492 46.097 46.098-84.273 84.272-58.877-58.878ZM324.735 683.186l-71.491 97.053 46.097 46.097 84.272-84.272-58.878-58.878Z"/><path fill="#00A1FF" d="M359.942 765.733 291.303 648.22c-29.536-50.567-21.259-114.692 20.15-156.1l188.19-188.191 161.051 161.052-300.752 300.752Z"/><path fill="#F996EE" d="m421.32 704.354 106.129-106.128 11.913 18.327c11.084 17.054 8.726 39.537-5.656 53.919l-40.139 40.14c-14.382 14.381-36.866 16.74-53.919 5.655l-18.328-11.913Z"/><path fill="#F996EE" d="m513.866 677.609 16.098-9.294 9.693 16.789a9.294 9.294 0 1 1-16.097 9.294l-9.694-16.789Zm-22.815 21.72 17.954-4.811 5.018 18.726a9.293 9.293 0 0 1-6.572 11.382 9.292 9.292 0 0 1-11.382-6.571l-5.018-18.726Z"/><path fill="#012F7A" d="m274.068 590.167-66.014 66.014c-21.777 21.777-57.084 21.777-78.861 0l-13.857-13.857 93.73-59.363c20.685-13.101 47.689-10.108 65.002 7.206Z"/><path fill="#012F7A" fill-rule="evenodd" d="M526.571 403.287a27.597 27.597 0 0 1-30.393-11.791l-33.314-52.1-11.102 2.974a27.598 27.598 0 0 1-30.394-11.791l-19.795-30.958 40.246-10.784-29.8-26.305 201.133-53.893-12.655 37.68 40.247-10.784-1.665 36.708a27.598 27.598 0 0 1-20.425 25.409l-11.103 2.975-2.801 61.777a27.597 27.597 0 0 1-20.425 25.408l-57.754 15.475Zm-38.05-87.435c2.302 8.589 10.579 13.834 18.488 11.715 7.91-2.12 12.456-10.8 10.154-19.39-2.301-8.589-10.579-13.834-18.488-11.714-7.909 2.119-12.455 10.8-10.154 19.389Zm85.039-22.786c2.301 8.589-2.245 17.27-10.154 19.389-7.909 2.12-16.187-3.125-18.488-11.714-2.302-8.59 2.244-17.271 10.154-19.39 7.909-2.119 16.186 3.126 18.488 11.715Z" clip-rule="evenodd"/><path fill="#012F7A" d="M573.56 293.066c2.301 8.589-2.245 17.27-10.154 19.389-7.909 2.119-16.187-3.126-18.488-11.715-2.302-8.589 2.244-17.27 10.154-19.389 7.909-2.119 16.186 3.125 18.488 11.715Z"/><path fill="#00A1FF" d="M488.519 315.853c2.302 8.589 10.579 13.834 18.488 11.715 7.91-2.12 12.456-10.801 10.154-19.39-2.301-8.589-10.579-13.834-18.488-11.715-7.909 2.12-12.455 10.801-10.154 19.39Z"/><path fill="#00A1FF" fill-rule="evenodd" d="m544.555 298.707 24.019-16.047 7.063 10.572-24.019 16.047-7.063-10.572Z" clip-rule="evenodd"/><circle cx="199.5" cy="199.5" r="129.5" fill="#F2CD16"/><circle cx="125" cy="174" r="22" fill="#FBE872"/><circle cx="167" cy="259" r="14" fill="#FBE872"/><circle cx="245.5" cy="210.5" r="36.5" fill="#FBE872"/><path fill="#65D9FF" d="m510 134-29.333 10.667L470 174l-10.667-29.333L430 134l29.333-10.667L470 94l10.667 29.333L510 134ZM130 428l-22 8-8 22-8-22-22-8 22-8 8-22 8 22 22 8ZM344 50l-11 4-4 11-4-11-11-4 11-4 4-11 4 11 11 4Z"/></g><defs><clipPath id="a"><path fill="#fff" d="M0 90C0 40.294 40.294 0 90 0h611c49.706 0 90 40.294 90 90v720c0 49.706-40.294 90-90 90H90c-49.706 0-90-40.294-90-90V90Z"/></clipPath></defs></svg>