<svg xmlns="http://www.w3.org/2000/svg" fill="none" viewBox="0 0 791 900"><rect width="791" height="900" fill="#CCF8FF" rx="90"/><path fill="#012F7A" fill-rule="evenodd" d="M324.765 646.703c-28.658 0-54.016-18.52-62.681-45.778l-44.546-140.137H190.15c-28.658 0-54.016-18.52-62.681-45.778L101 331.741h99.282L147.917 253h496.166l-52.365 78.741H691l-26.469 83.269c-8.665 27.258-34.023 45.778-62.681 45.778h-27.388l-44.546 140.137c-8.665 27.258-34.023 45.778-62.681 45.778h-142.47Zm-33.654-224.192c0 21.14 15.817 38.277 35.328 38.277 19.511 0 35.328-17.137 35.328-38.277s-15.817-38.277-35.328-38.277c-19.511 0-35.328 17.137-35.328 38.277Zm209.778 0c0 21.14-15.817 38.277-35.328 38.277-19.511 0-35.328-17.137-35.328-38.277s15.817-38.277 35.328-38.277c19.511 0 35.328 17.137 35.328 38.277Z" clip-rule="evenodd"/><path fill="#012F7A" d="M268.462 367.229h255.075v99.812H268.462z"/><path fill="#ED60E9" d="M269.698 413.838c8.091 31.155 44.8 46.225 64.69 53.049a2.826 2.826 0 0 0 3.078-.851c13.918-16.17 38.406-48.16 30.315-79.315-8.828-33.993-47.428-18.77-50.117 9.417-15.988-23.023-56.794-16.293-47.966 17.7Zm252.603 0c-8.091 31.155-44.8 46.225-64.69 53.049a2.826 2.826 0 0 1-3.078-.851c-13.918-16.17-38.406-48.16-30.315-79.315 8.828-33.993 47.428-18.77 50.117 9.417 15.988-23.023 56.794-16.293 47.966 17.7Z"/><path fill="#65D9FF" d="m547 741 66-24 24-66 24 66 66 24-66 24-24 66-24-66-66-24ZM296 104l36.667-13.333L346 54l13.333 36.667L396 104l-36.667 13.333L346 154l-13.333-36.667L296 104ZM163 616l-22.733 8.267L132 647l-8.267-22.733L101 616l22.733-8.267L132 585l8.267 22.733L163 616Z"/></svg>