<svg xmlns="http://www.w3.org/2000/svg" fill="none" viewBox="0 0 189 192"><path fill="#FFDB9C" d="M24.592 110.592h137.376V192H24.592z"/><path fill="#996815" d="M43.309 121.94a12.963 12.963 0 0 1 12.608-9.981h76.422c6.004 0 11.221 4.13 12.608 9.981L161.655 192h26.601l-18.091-76.057C166.004 98.391 150.351 86 132.339 86H55.917c-18.011 0-33.665 12.39-37.826 29.943L0 192h26.6l16.709-70.06Z"/><path fill="#DB971E" d="M94 0v42.714H70L94 0Zm0 69V26.286h24L94 69Z"/><path fill="#996815" d="M60.046 166.524h67.415v12.986H60.046v-12.986Z"/><path fill="#DB971E" d="m130.052 130.159-12.964 23.376h-18.15l12.964-23.376h18.15Zm-72.603 0 12.964 23.376h18.15L75.6 130.159H57.45Z"/></svg>
