<svg xmlns="http://www.w3.org/2000/svg" fill="none" viewBox="0 0 1910 1000"><g clip-path="url(#a)"><path fill="#F2CD16" d="M0 0h1910v1000H0z"/><path fill="#F7DD4E" fill-rule="evenodd" d="M665 846c14.471 0 26 11.678 26 25.833v55.334C691 941.322 679.471 953 665 953s-26-11.678-26-25.833v-55.334C639 857.678 650.529 846 665 846Zm0-64c49.706 0 90 40.22 90 89.833v55.334c0 49.613-40.294 89.833-90 89.833s-90-40.22-90-89.833v-55.334C575 822.22 615.294 782 665 782Z" clip-rule="evenodd"/><path fill="#D0AC10" fill-rule="evenodd" d="M85 846c14.471 0 26 11.678 26 25.833v55.334C111 941.322 99.471 953 85 953s-26-11.678-26-25.833v-55.334C59 857.678 70.529 846 85 846Zm0-64c49.706 0 90 40.22 90 89.833v55.334C175 976.78 134.706 1017 85 1017s-90-40.22-90-89.833v-55.334C-5 822.22 35.294 782 85 782Z" clip-rule="evenodd"/><path fill="#F7DD4E" fill-rule="evenodd" d="M1709 846c14.47 0 26 11.678 26 25.833v55.334c0 14.155-11.53 25.833-26 25.833s-26-11.678-26-25.833v-55.334c0-14.155 11.53-25.833 26-25.833Zm0-64c49.71 0 90 40.22 90 89.833v55.334c0 49.613-40.29 89.833-90 89.833s-90-40.22-90-89.833v-55.334c0-49.613 40.29-89.833 90-89.833Z" clip-rule="evenodd"/><path fill="#FEF9D0" fill-rule="evenodd" d="M1129 846c-14.47 0-26 11.678-26 25.833v55.334c0 14.155 11.53 25.833 26 25.833s26-11.678 26-25.833v-55.334c0-14.155-11.53-25.833-26-25.833Zm0-64c-49.71 0-90 40.22-90 89.833v55.334c0 49.613 40.29 89.833 90 89.833s90-40.22 90-89.833v-55.334c0-49.613-40.29-89.833-90-89.833Z" clip-rule="evenodd"/><path fill="#F7DD4E" fill-rule="evenodd" d="M1477 306c14.47 0 26 11.678 26 25.833v55.334c0 14.155-11.53 25.833-26 25.833s-26-11.678-26-25.833v-55.334c0-14.155 11.53-25.833 26-25.833Zm0-64c49.71 0 90 40.22 90 89.833v55.334c0 49.613-40.29 89.833-90 89.833s-90-40.22-90-89.833v-55.334c0-49.613 40.29-89.833 90-89.833Z" clip-rule="evenodd"/><path fill="#D0AC10" fill-rule="evenodd" d="M1825 576c-14.47 0-26 11.678-26 25.833v55.334c0 14.155 11.53 25.833 26 25.833s26-11.678 26-25.833v-55.334c0-14.155-11.53-25.833-26-25.833Zm0-64c-49.71 0-90 40.22-90 89.833v55.334c0 49.613 40.29 89.833 90 89.833s90-40.22 90-89.833v-55.334c0-49.613-40.29-89.833-90-89.833Zm-348 334c-14.47 0-26 11.678-26 25.833v55.334c0 14.155 11.53 25.833 26 25.833s26-11.678 26-25.833v-55.334c0-14.155-11.53-25.833-26-25.833Zm0-64c-49.71 0-90 40.22-90 89.833v55.334c0 49.613 40.29 89.833 90 89.833s90-40.22 90-89.833v-55.334c0-49.613-40.29-89.833-90-89.833Z" clip-rule="evenodd"/><path fill="#FEF9D0" fill-rule="evenodd" d="M1593 576c-14.47 0-26 11.678-26 25.833v55.334c0 14.155 11.53 25.833 26 25.833s26-11.678 26-25.833v-55.334c0-14.155-11.53-25.833-26-25.833Zm0-64c-49.71 0-90 40.22-90 89.833v55.334c0 49.613 40.29 89.833 90 89.833s90-40.22 90-89.833v-55.334c0-49.613-40.29-89.833-90-89.833Z" clip-rule="evenodd"/><path fill="#D0AC10" fill-rule="evenodd" d="M85 306c-14.471 0-26 11.678-26 25.833v55.334C59 401.322 70.529 413 85 413s26-11.678 26-25.833v-55.334C111 317.678 99.471 306 85 306Zm0-64c-49.706 0-90 40.22-90 89.833v55.334C-5 436.78 35.294 477 85 477s90-40.22 90-89.833v-55.334C175 282.22 134.706 242 85 242Z" clip-rule="evenodd"/><path fill="#FEF9D0" d="M291 244h-64v231h64V244Z"/><path fill="#F7DD4E" d="M407 244h-64v231h64V244Zm0 540h-64v231h64V784Z"/><path fill="#D0AC10" d="M523 244h-64v231h64V244Zm116 501h-64V514h64v231Z"/><path fill="#544003" d="M291 784h-64v231h64V784Z"/><path fill="#F7DD4E" d="M1683 244h-64v231h64V244Z"/><path fill="#FEF9D0" d="M1851 244h64v231h-64V244Z"/><path fill="#D0AC10" fill-rule="evenodd" d="M1013 36c-14.471 0-26 11.678-26 25.833v55.334c0 14.155 11.529 25.833 26 25.833 14.47 0 26-11.678 26-25.833V61.833C1039 47.678 1027.47 36 1013 36Zm0-64c-49.706 0-90 40.22-90 89.833v55.334C923 166.78 963.294 207 1013 207c49.71 0 90-40.22 90-89.833V61.833C1103 12.22 1062.71-28 1013-28Z" clip-rule="evenodd"/><path fill="#FEF9D0" fill-rule="evenodd" d="M1593 36c-14.47 0-26 11.678-26 25.833v55.334c0 14.155 11.53 25.833 26 25.833s26-11.678 26-25.833V61.833C1619 47.678 1607.47 36 1593 36Zm0-64c-49.71 0-90 40.22-90 89.833v55.334c0 49.613 40.29 89.833 90 89.833s90-40.22 90-89.833V61.833C1683 12.22 1642.71-28 1593-28ZM549 36c14.471 0 26 11.678 26 25.833v55.334C575 131.322 563.471 143 549 143s-26-11.678-26-25.833V61.833C523 47.678 534.529 36 549 36Zm0-64c49.706 0 90 40.22 90 89.833v55.334C639 166.78 598.706 207 549 207s-90-40.22-90-89.833V61.833C459 12.22 499.294-28 549-28Z" clip-rule="evenodd"/><path fill="#F7DD4E" fill-rule="evenodd" d="M1825 36c-14.47 0-26 11.678-26 25.833v55.334c0 14.155 11.53 25.833 26 25.833s26-11.678 26-25.833V61.833C1851 47.678 1839.47 36 1825 36Zm0-64c-49.71 0-90 40.22-90 89.833v55.334c0 49.613 40.29 89.833 90 89.833s90-40.22 90-89.833V61.833C1915 12.22 1874.71-28 1825-28ZM85 36c-14.471 0-26 11.678-26 25.833v55.334C59 131.322 70.529 143 85 143s26-11.678 26-25.833V61.833C111 47.678 99.471 36 85 36Zm0-64C35.294-28-5 12.22-5 61.833v55.334C-5 166.78 35.294 207 85 207s90-40.22 90-89.833V61.833C175 12.22 134.706-28 85-28Z" clip-rule="evenodd"/><path fill="#D0AC10" fill-rule="evenodd" d="M317 36c-14.471 0-26 11.678-26 25.833v55.334C291 131.322 302.529 143 317 143s26-11.678 26-25.833V61.833C343 47.678 331.471 36 317 36Zm0-64c-49.706 0-90 40.22-90 89.833v55.334C227 166.78 267.294 207 317 207s90-40.22 90-89.833V61.833C407 12.22 366.706-28 317-28Z" clip-rule="evenodd"/><path fill="#F7DD4E" d="M1155-26h64v231h-64V-26Z"/><path fill="#D0AC10" d="M1271-26h64v231h-64V-26ZM987 784h-64v231h64V784Z"/><path fill="#FEF9D0" d="M459 784h64v231h-64V784Z"/><path fill="#D0AC10" d="M871-26h-64v231h64V-26Z"/><path fill="#F7DD4E" d="M1387-26h64v231h-64V-26Z"/><path fill="#D0AC10" d="M871 784h-64v231h64V784Zm464 0h-64v231h64V784Zm52-270h64v231h-64V514Z"/><path fill="#F7DD4E" d="M1271 514h64v231h-64V514Z"/><path fill="#D0AC10" d="M1271 244h64v231h-64V244Zm528 231h-64V244h64v231Zm52 309h64v231h-64V784Z"/><path fill="#FEF9D0" d="M755-26h-64v231h64V-26Z"/><path fill="#F7DD4E" fill-rule="evenodd" d="M-31 576c14.471 0 26 11.678 26 25.833v55.334C-5 671.322-16.529 683-31 683s-26-11.678-26-25.833v-55.334C-57 587.678-45.471 576-31 576Zm0-64c49.706 0 90 40.22 90 89.833v55.334C59 706.78 18.706 747-31 747s-90-40.22-90-89.833v-55.334C-121 552.22-80.706 512-31 512Z" clip-rule="evenodd"/><path fill="#D0AC10" fill-rule="evenodd" d="M317 576c-14.471 0-26 11.678-26 25.833v55.334C291 671.322 302.529 683 317 683s26-11.678 26-25.833v-55.334C343 587.678 331.471 576 317 576Zm0-64c-49.706 0-90 40.22-90 89.833v55.334C227 706.78 267.294 747 317 747s90-40.22 90-89.833v-55.334C407 552.22 366.706 512 317 512Z" clip-rule="evenodd"/><path fill="#F7DD4E" d="M459 514h64v231h-64V514Z"/><path fill="#FEF9D0" d="M575 475h64V244h-64v231Zm-400 39h-64v231h64V514Z"/><path fill="#544003" d="M691 244h232v501H691zm296 0h232v501H987z"/></g><defs><clipPath id="a"><path fill="#fff" d="M0 0h1910v1000H0z"/></clipPath></defs></svg>