<svg width="1910" height="1000" viewBox="0 0 1910 1000" fill="none" xmlns="http://www.w3.org/2000/svg">
<g clip-path="url(#clip0_276_843)">
<rect width="1910" height="1000" fill="#F2CD16"/>
<path d="M246 143L392 255L538 143L684 255L830 143L976 255L1122 143L1268 255L1414 143V1031H246V143Z" fill="#FEF9D0"/>
<rect x="604" y="406" width="457" height="92" fill="#F7DD4E"/>
<rect x="819" y="605" width="457" height="92" fill="#FBE872"/>
<rect x="819" y="771" width="457" height="92" fill="#FBE872"/>
<rect x="453" y="937" width="823" height="92" fill="#FBE872"/>
<path d="M453 734C453 662.755 510.883 605 582.286 605L634 605L634 863L582.286 863C510.883 863 453 805.245 453 734Z" fill="#F7DD4E"/>
<circle cx="634" cy="734" r="129" transform="rotate(90 634 734)" fill="#FBE872"/>
<circle cx="1414" cy="686" r="237" transform="rotate(90 1414 686)" fill="#544003"/>
<path d="M1414.08 812.499C1404.81 812.499 1396.81 809.137 1390.09 802.413C1383.36 795.689 1380 787.69 1380 778.415C1380 768.909 1383.25 760.91 1389.74 754.418C1396.46 747.694 1404.58 744.332 1414.08 744.332C1423.82 744.332 1431.94 747.578 1438.43 754.07C1444.92 760.562 1448.17 768.677 1448.17 778.415C1448.17 788.154 1444.81 796.269 1438.08 802.761C1431.36 809.253 1423.36 812.499 1414.08 812.499ZM1432.86 725.551H1395.3L1382.78 560H1445.39L1432.86 725.551Z" fill="#FEF9D0"/>
</g>
<defs>
<clipPath id="clip0_276_843">
<rect width="1910" height="1000" fill="white"/>
</clipPath>
</defs>
</svg>
