<svg xmlns="http://www.w3.org/2000/svg" fill="none" viewBox="0 0 443 246"><g clip-path="url(#a)"><rect width="443" height="246" fill="#00A1FF" rx="21"/><path fill="#CCF8FF" d="M297-7h16v58h-16V-7Z"/><path fill="#65D9FF" d="M313 196h-16v58h16v-58Zm40-135h16v58h-16V61Zm72 68h-16v58h16v-58Z"/><path fill="#F2CD16" d="M129-7h16v58h-16V-7Zm72 203h-16v58h16v-58Z"/><path fill="#CCF8FF" d="M269-7h16v58h-16V-7Zm72 203h-16v58h16v-58ZM325 61h16v58h-16V61Zm72 68h-16v58h16v-58Z"/><path fill="#65D9FF" d="M101-7h16v58h-16V-7Zm128 203h-16v58h16v-58Z"/><path fill="#CCF8FF" d="M73-7h16v58H73V-7Zm280 203h16v58h-16v-58Z"/><path fill="#65D9FF" fill-rule="evenodd" d="M409 30V14a6 6 0 1 0-12 0v16a6 6 0 1 0 12 0Zm-6-38c-12.15 0-22 9.85-22 22v16c0 12.15 9.85 22 22 22s22-9.85 22-22V14c0-12.15-9.85-22-22-22Z" clip-rule="evenodd"/><path fill="#3FC4FF" fill-rule="evenodd" d="M409 233v-16a6 6 0 1 0-12 0v16a6 6 0 1 0 12 0Zm-6-38c-12.15 0-22 9.85-22 22v16c0 12.15 9.85 22 22 22s22-9.85 22-22v-16c0-12.15-9.85-22-22-22ZM353 30V14a6 6 0 1 0-12 0v16a6 6 0 1 0 12 0Zm-6-38c-12.15 0-22 9.85-22 22v16c0 12.15 9.85 22 22 22s22-9.85 22-22V14c0-12.15-9.85-22-22-22Zm-90 241v-16a6 6 0 1 1 12 0v16a6 6 0 1 1-12 0Zm6-38c12.15 0 22 9.85 22 22v16c0 12.15-9.85 22-22 22s-22-9.85-22-22v-16c0-12.15 9.85-22 22-22Z" clip-rule="evenodd"/><path fill="#F2CD16" fill-rule="evenodd" d="M409 98V82a6 6 0 1 0-12 0v16a6 6 0 1 0 12 0Zm-6-38c-12.15 0-22 9.85-22 22v16c0 12.15 9.85 22 22 22s22-9.85 22-22V82c0-12.15-9.85-22-22-22Z" clip-rule="evenodd"/><path fill="#3FC4FF" fill-rule="evenodd" d="M353 166v-16a6 6 0 1 0-12 0v16a6 6 0 1 0 12 0Zm-6-38c-12.15 0-22 9.85-22 22v16c0 12.15 9.85 22 22 22s22-9.85 22-22v-16c0-12.15-9.85-22-22-22Z" clip-rule="evenodd"/><path fill="#65D9FF" d="M17 119h16V61H17v58Zm28 0h16V61H45v58Z"/><path fill="#3FC4FF" fill-rule="evenodd" d="M89 82v16a6 6 0 1 0 12 0V82a6 6 0 0 0-12 0Zm6 38c12.15 0 22-9.85 22-22V82c0-12.15-9.85-22-22-22s-22 9.85-22 22v16c0 12.15 9.85 22 22 22Zm146-90V14a6 6 0 1 0-12 0v16a6 6 0 1 0 12 0Zm-6-38c-12.15 0-22 9.85-22 22v16c0 12.15 9.85 22 22 22s22-9.85 22-22V14c0-12.15-9.85-22-22-22ZM89 233v-16a6 6 0 1 1 12 0v16a6 6 0 1 1-12 0Zm6-38c12.15 0 22 9.85 22 22v16c0 12.15-9.85 22-22 22s-22-9.85-22-22v-16c0-12.15 9.85-22 22-22Z" clip-rule="evenodd"/><path fill="#65D9FF" fill-rule="evenodd" d="M185 30V14a6 6 0 1 0-12 0v16a6 6 0 1 0 12 0Zm-6-38c-12.15 0-22 9.85-22 22v16c0 12.15 9.85 22 22 22s22-9.85 22-22V14c0-12.15-9.85-22-22-22Zm-34 241v-16a6 6 0 1 1 12 0v16a6 6 0 1 1-12 0Zm6-38c12.15 0 22 9.85 22 22v16c0 12.15-9.85 22-22 22s-22-9.85-22-22v-16c0-12.15 9.85-22 22-22Z" clip-rule="evenodd"/><path fill="#3FC4FF" fill-rule="evenodd" d="M45 30V14a6 6 0 0 0-12 0v16a6 6 0 0 0 12 0ZM39-8C26.85-8 17 1.85 17 14v16c0 12.15 9.85 22 22 22s22-9.85 22-22V14C61 1.85 51.15-8 39-8Z" clip-rule="evenodd"/><path fill="#F2CD16" fill-rule="evenodd" d="M45 233v-16a6 6 0 1 0-12 0v16a6 6 0 1 0 12 0Zm-6-38c-12.15 0-22 9.85-22 22v16c0 12.15 9.85 22 22 22s22-9.85 22-22v-16c0-12.15-9.85-22-22-22Z" clip-rule="evenodd"/><path fill="#99ECFF" fill-rule="evenodd" d="M198.784 183c-8.937 0-16.845-5.739-19.548-14.186l-13.892-43.425h-8.541c-8.938 0-16.846-5.739-19.548-14.186L129 85.4h30.963L143.632 61h154.736l-16.331 24.4H313l-8.255 25.803c-2.702 8.447-10.61 14.186-19.548 14.186h-8.541l-13.892 43.425C260.061 177.261 252.153 183 243.216 183h-44.432Zm-10.495-69.472c0 6.55 4.933 11.861 11.017 11.861 6.085 0 11.018-5.311 11.018-11.861 0-6.551-4.933-11.861-11.018-11.861-6.084 0-11.017 5.31-11.017 11.861Zm65.422 0c0 6.55-4.933 11.861-11.017 11.861-6.085 0-11.018-5.311-11.018-11.861 0-6.551 4.933-11.861 11.018-11.861 6.084 0 11.017 5.31 11.017 11.861Z" clip-rule="evenodd"/></g><defs><clipPath id="a"><rect width="443" height="246" fill="#fff" rx="21"/></clipPath></defs></svg>