<svg xmlns="http://www.w3.org/2000/svg" fill="none" viewBox="0 0 291 173"><path fill="#012F7A" d="M253.469 0h37.003v27.752h-37.003zM0 172.062h37.003V144.31H0z"/><path fill="#00A1FF" d="M253.469 144.31h37.003v27.752h-37.003z"/><path fill="#F2CD16" d="M0 123.959h37.003V96.207H0z"/><path fill="#CCF8FF" d="M253.469 96.207h37.003v27.752h-37.003zM0 75.856h37.003V48.104H0z"/><path fill="#F2CD16" d="M253.469 48.103h37.003v27.752h-37.003z"/><path fill="#00A1FF" d="M0 27.752h37.003V0H0z"/><path fill="#CCF8FF" d="M212.766 27.81c0-15.327 12.425-27.752 27.752-27.752V172.12c-15.327 0-27.752-12.425-27.752-27.752V99.965L198.89 86.09l13.876-13.876V27.81Zm-135.06 0C77.706 12.483 65.28.058 49.954.058V172.12c15.327 0 27.752-12.425 27.752-27.752V99.965L91.582 86.09 77.706 72.213V27.81Z"/><circle cx="145.235" cy="53.654" r="53.654" fill="#012F7A"/><circle cx="145.235" cy="118.409" r="53.654" fill="#00A1FF"/><path fill="#CCF8FF" d="M102.448 86.031c9.797-12.926 25.317-21.276 42.787-21.276 17.471 0 32.991 8.35 42.788 21.276-9.797 12.927-25.317 21.277-42.788 21.277-17.47 0-32.99-8.35-42.787-21.277Z"/></svg>
