<svg xmlns="http://www.w3.org/2000/svg" fill="none" viewBox="0 0 443 246"><g clip-path="url(#a)"><rect width="443" height="246" fill="#00A1FF" rx="21"/><path fill="#CCF8FF" d="M157 254h16v-58h-16v58Z"/><path fill="#65D9FF" d="M117 51h-16V-7h16v58ZM17 119h16V61H17v58Z"/><path fill="#F2CD16" d="M313 254h-16v-58h16v58ZM241 51h16V-7h-16v58Z"/><path fill="#CCF8FF" d="M129 254h16v-58h-16v58Zm16-203h-16V-7h16v58Zm-28 68h-16V61h16v58Z"/><path fill="#65D9FF" d="M341 254h-16v-58h16v58ZM213 51h16V-7h-16v58Z"/><path fill="#CCF8FF" d="M369 254h-16v-58h16v58ZM89 51H73V-7h16v58Z"/><path fill="#65D9FF" fill-rule="evenodd" d="M269 217v16a6 6 0 1 1-12 0v-16a6 6 0 1 1 12 0Zm-6 38c-12.15 0-22-9.85-22-22v-16c0-12.15 9.85-22 22-22s22 9.85 22 22v16c0 12.15-9.85 22-22 22Z" clip-rule="evenodd"/><path fill="#3FC4FF" fill-rule="evenodd" d="M33 14v16a6 6 0 0 0 12 0V14a6 6 0 0 0-12 0Zm6 38c12.15 0 22-9.85 22-22V14C61 1.85 51.15-8 39-8S17 1.85 17 14v16c0 12.15 9.85 22 22 22Zm174 165v16a6 6 0 1 1-12 0v-16a6 6 0 1 1 12 0Zm-6 38c-12.15 0-22-9.85-22-22v-16c0-12.15 9.85-22 22-22s22 9.85 22 22v16c0 12.15-9.85 22-22 22ZM185 14v16a6 6 0 1 1-12 0V14a6 6 0 1 1 12 0Zm-6 38c-12.15 0-22-9.85-22-22V14c0-12.15 9.85-22 22-22s22 9.85 22 22v16c0 12.15-9.85 22-22 22ZM73 82v16a6 6 0 1 1-12 0V82a6 6 0 0 1 12 0Zm-6 38c-12.15 0-22-9.85-22-22V82c0-12.15 9.85-22 22-22s22 9.85 22 22v16c0 12.15-9.85 22-22 22Z" clip-rule="evenodd"/><path fill="#CCF8FF" d="M425 187h-16v-58h16v58Z"/><path fill="#65D9FF" d="M425 119h-16V61h16v58Z"/><path fill="#CCF8FF" d="M325 61h16v58h-16V61Z"/><path fill="#65D9FF" d="M397 129h-16v58h16v-58Z"/><path fill="#3FC4FF" fill-rule="evenodd" d="M369 98V82a6 6 0 1 1 12 0v16a6 6 0 1 1-12 0Zm6-38c12.15 0 22 9.85 22 22v16c0 12.15-9.85 22-22 22s-22-9.85-22-22V82c0-12.15 9.85-22 22-22Zm-22 106v-16a6 6 0 1 0-12 0v16a6 6 0 1 0 12 0Zm-6-38c-12.15 0-22 9.85-22 22v16c0 12.15 9.85 22 22 22s22-9.85 22-22v-16c0-12.15-9.85-22-22-22Zm-246 89v16a6 6 0 1 1-12 0v-16a6 6 0 1 1 12 0Zm-6 38c-12.15 0-22-9.85-22-22v-16c0-12.15 9.85-22 22-22s22 9.85 22 22v16c0 12.15-9.85 22-22 22ZM353 14v16a6 6 0 1 1-12 0V14a6 6 0 1 1 12 0Zm-6 38c-12.15 0-22-9.85-22-22V14c0-12.15 9.85-22 22-22s22 9.85 22 22v16c0 12.15-9.85 22-22 22Z" clip-rule="evenodd"/><path fill="#65D9FF" fill-rule="evenodd" d="M45 217v16a6 6 0 1 1-12 0v-16a6 6 0 1 1 12 0Zm-6 38c-12.15 0-22-9.85-22-22v-16c0-12.15 9.85-22 22-22s22 9.85 22 22v16c0 12.15-9.85 22-22 22ZM297 14v16a6 6 0 1 1-12 0V14a6 6 0 1 1 12 0Zm-6 38c-12.15 0-22-9.85-22-22V14c0-12.15 9.85-22 22-22s22 9.85 22 22v16c0 12.15-9.85 22-22 22Z" clip-rule="evenodd"/><path fill="#3FC4FF" fill-rule="evenodd" d="M397 217v16a6 6 0 1 0 12 0v-16a6 6 0 1 0-12 0Zm6 38c12.15 0 22-9.85 22-22v-16c0-12.15-9.85-22-22-22s-22 9.85-22 22v16c0 12.15 9.85 22 22 22Z" clip-rule="evenodd"/><path fill="#F2CD16" fill-rule="evenodd" d="M397 14v16a6 6 0 1 0 12 0V14a6 6 0 1 0-12 0Zm6 38c12.15 0 22-9.85 22-22V14c0-12.15-9.85-22-22-22s-22 9.85-22 22v16c0 12.15 9.85 22 22 22Z" clip-rule="evenodd"/><path fill="#99ECFF" fill-rule="evenodd" d="M243.216 183c8.937 0 16.845-5.739 19.548-14.186l13.892-43.425h8.541c8.938 0 16.846-5.739 19.548-14.186L313 85.4h-30.963L298.368 61H143.632l16.331 24.4H129l8.255 25.803c2.702 8.447 10.61 14.186 19.548 14.186h8.541l13.892 43.425c2.703 8.447 10.611 14.186 19.548 14.186h44.432Zm10.495-69.472c0 6.55-4.933 11.861-11.017 11.861-6.085 0-11.018-5.311-11.018-11.861 0-6.551 4.933-11.861 11.018-11.861 6.084 0 11.017 5.31 11.017 11.861Zm-65.422 0c0 6.55 4.933 11.861 11.017 11.861 6.085 0 11.018-5.311 11.018-11.861 0-6.551-4.933-11.861-11.018-11.861-6.084 0-11.017 5.31-11.017 11.861Z" clip-rule="evenodd"/></g><defs><clipPath id="a"><rect width="443" height="246" fill="#fff" rx="21"/></clipPath></defs></svg>