<svg xmlns="http://www.w3.org/2000/svg" fill="none" viewBox="0 0 443 246"><path fill="#DB971E" fill-opacity=".25" d="M0 0h443v246H0z"/><path fill="#fff" d="m57 33 33.875 25.906L124.75 33l33.875 25.906L192.5 33l33.875 25.906L260.25 33l33.875 25.906L328 33v213H57V33Z"/><path fill="#FAEFDD" d="M140 94h106v21H140zm50 53h91v21h-91zm0 39h91v21h-91zm-85 39h176v21H105z"/><path fill="#E5D0AC" d="M105 177c0-16.569 13.431-30 30-30h12v60h-12c-16.569 0-30-13.431-30-30Z"/><circle cx="147" cy="177" r="30" fill="#FAEFDD" transform="rotate(90 147 177)"/><circle cx="328" cy="166" r="55" fill="#996815" transform="rotate(90 328 166)"/></svg>