<svg fill="none" height="20" viewBox="0 0 22 20" width="22" xmlns="http://www.w3.org/2000/svg"><path d="m11 7.90673c1.054 0 1.9135.85954 1.9135 1.93395 0 1.02322-.8595 1.89302-1.9135 1.89302-1.05395 0-1.91349-.8698-1.91349-1.89302 0-1.07441.85954-1.93395 1.91349-1.93395zm-4.73767 10.11997c.64465.3889 2.05674-.2046 3.68372-1.7395-.5321-.6037-1.05396-1.2586-1.54512-1.9442-.82459-.0789-1.64436-.2019-2.45581-.3684-.52186 2.1898-.32745 3.694.31721 4.0521zm.72651-5.8735-.29675-.5218c-.11256.2967-.22511.5935-.29674.88.27628.0614.58325.1125.90046.1637zm6.69206-.7776.8289-1.53492-.8289-1.53488c-.3069-.54232-.6344-1.02325-.9311-1.50419-.5526-.03069-1.1358-.03069-1.7498-.03069s-1.19721 0-1.74977.03069c-.29674.48094-.62418.96187-.93116 1.50419l-.82884 1.53488.82884 1.53492c.30698.5423.63442 1.0232.93116 1.5042.55256.0307 1.13577.0307 1.74977.0307s1.1972 0 1.7498-.0307c.2967-.481.6242-.9619.9311-1.5042zm-2.6809-6.87631c-.1944.22512-.3991.46046-.6037.73674h1.2074c-.2046-.27628-.4093-.51162-.6037-.73674zm0 10.68281c.1944-.2251.3991-.4605.6037-.7368h-1.2074c.2046.2763.4093.5117.6037.7368zm4.7274-13.52746c-.6344-.38884-2.0465.20465-3.6734 1.73953.532.60372 1.0539 1.25861 1.5451 1.94419.839.08186 1.6679.20465 2.4558.36837.5218-2.18977.3274-3.69395-.3275-4.05209zm-.7162 5.87349.2967.52186c.1126-.29675.2251-.59349.2968-.88-.2763-.0614-.5833-.11256-.9005-.16372zm1.4837-7.213957c1.5042.859537 1.6679 3.120927 1.0335 5.760927 2.599.76745 4.4716 2.03628 4.4716 3.76558 0 1.72932-1.8726 2.99812-4.4716 3.76562.6344 2.64.4707 4.9014-1.0335 5.7609-1.494.8595-3.5302-.1228-5.4949-1.9954-1.96465 1.8726-4.00093 2.8549-5.50512 1.9954-1.49395-.8595-1.65767-3.1209-1.02325-5.7609-2.59907-.7675-4.47163-2.0363-4.47163-3.76562 0-1.7293 1.87256-2.99813 4.47163-3.76558-.63442-2.64-.4707-4.90139 1.02325-5.760927 1.50419-.859535 3.54047.122791 5.50512 1.995347 1.9647-1.872556 4.0009-2.854882 5.4949-1.995347zm-.2968 9.526507c.3479.76742.6549 1.53492.9107 2.31252 2.1489-.6446 3.3563-1.5655 3.3563-2.31252 0-.74697-1.2074-1.6679-3.3563-2.31255-.2558.77767-.5628 1.54511-.9107 2.31255zm-10.39624 0c-.34791-.76744-.65488-1.53488-.9107-2.31255-2.14883.64465-3.35628 1.56558-3.35628 2.31255 0 .74702 1.20745 1.66792 3.35628 2.31252.25582-.7776.56279-1.5451.9107-2.31252zm9.20934 2.31252-.307.5219c.3172-.0512.6242-.1023.9005-.1637-.0717-.2865-.1842-.5833-.2968-.88zm-2.9572 4.134c1.6269 1.5349 3.039 2.1284 3.6734 1.7395.6549-.3581.8493-1.8623.3275-4.0521-.7879.1638-1.6168.2865-2.4558.3684-.4912.6856-1.0131 1.3405-1.5451 1.9442zm-5.06516-8.75907.30697-.52186c-.31721.05116-.62418.10232-.90046.16372.07163.28651.18418.58325.29674.88zm2.95721-4.13396c-1.62698-1.53488-3.03907-2.12837-3.68372-1.73953-.64466.35814-.83907 1.86232-.31721 4.05209.81145-.16649 1.63122-.28946 2.45581-.36837.49116-.68558 1.01302-1.34047 1.54512-1.94419z" fill="#00bcd4"/></svg>