<svg xmlns="http://www.w3.org/2000/svg" fill="none" viewBox="0 0 331 221"><path fill="#d9d9d9" fill-rule="evenodd" d="M125.507 220.436c-16.074 0-30.297-10.37-35.157-25.632l-24.985-78.463H50.003c-16.074 0-30.297-10.369-35.157-25.631L0 44.087h55.686L26.316 0h278.293l-29.371 44.087h55.686L316.078 90.71c-4.86 15.262-19.083 25.631-35.157 25.631H265.56l-24.986 78.463c-4.86 15.262-19.083 25.632-35.157 25.632zM106.631 94.91c0 11.836 8.872 21.431 19.815 21.431s19.815-9.595 19.815-21.431-8.871-21.431-19.815-21.431c-10.943 0-19.815 9.595-19.815 21.43m117.662 0c0 11.836-8.871 21.431-19.815 21.431-10.943 0-19.815-9.595-19.815-21.431s8.872-21.431 19.815-21.431 19.815 9.595 19.815 21.43" clip-rule="evenodd"/><path fill="#23191a" d="M124.714 67.208c15.549 0 28.153 12.873 28.153 28.752H96.561c0-15.88 12.604-28.752 28.153-28.752M206.179 67.208c-15.549 0-28.154 12.873-28.154 28.753h56.307c0-15.88-12.605-28.753-28.153-28.753"/><path fill="#00a1ff" d="M206.182 80.378c7.882 0 14.343 6.335 14.931 14.376h13.233v8.975c0 5.402 1.886 10.166 5.688 13.728l1.074 1.005c4.329 4.055 5.988 10.16 4.294 15.805-1.693 5.646-.035 11.752 4.294 15.806a15.7 15.7 0 0 1 3.553 4.945l-12.669 39.786c-3.952 12.411-14.095 21.586-26.391 24.581l-4.895-5.823a16.57 16.57 0 0 1-3.212-15.44l.19-.634c1.694-5.646.034-11.752-4.295-15.806s-5.987-10.159-4.293-15.805.034-11.75-4.294-15.804c-4.194-3.928-5.882-9.781-4.444-15.276l.299-1.06c1.438-5.495-.25-11.347-4.443-15.275l-1.075-1.005c-3.802-3.562-5.699-8.326-5.688-13.728v-8.975h13.211c.588-8.041 7.049-14.376 14.932-14.376m-81.466 0c7.883 0 14.343 6.335 14.931 14.376h13.211v8.975c.012 5.402-1.887 10.166-5.689 13.728l-1.073 1.005c-4.329 4.055-5.988 10.16-4.294 15.805 1.693 5.646.034 11.752-4.295 15.806s-5.987 10.159-4.294 15.804c1.693 5.646.035 11.751-4.294 15.805s-5.988 10.16-4.294 15.806l.19.634a16.57 16.57 0 0 1-3.212 15.44l-4.89 5.815c-12.28-3.003-22.408-12.174-26.357-24.573l-12.685-39.837a15.7 15.7 0 0 1 3.53-4.894c4.328-4.054 5.987-10.16 4.293-15.806s-.034-11.75 4.295-15.805l1.073-1.005c3.803-3.562 5.689-8.326 5.689-13.728v-8.975h13.233c.588-8.041 7.049-14.376 14.932-14.376"/></svg>