<svg width="26" height="22" viewBox="0 0 26 22" fill="none" xmlns="http://www.w3.org/2000/svg">
<path fill="black" d="M23.8498 13.6833L15.4498 17.8833L14.7498 17.65L15.3332 16.1333C15.9165 14.9667 15.3332 13.5667 14.1665 12.9833L7.28317 9.95C6.93317 9.95 6.4665 9.83333 5.99984 9.83333C5.64984 9.83333 5.29984 9.95 5.0665 9.95L0.166504 11.1167V19.5167L4.83317 18L14.3998 21.3833C14.7498 21.5 14.9832 21.5 15.3332 21.5C15.7998 21.5 16.2665 21.3833 16.7332 21.15L25.2498 16.6L23.8498 13.6833ZM13.2332 15.2L12.6498 16.7167L12.0665 18L5.64984 15.7833L4.83317 15.55L4.13317 15.7833L2.49984 16.25V12.8667L5.53317 12.1667H5.64984H5.7665C5.7665 12.1667 5.88317 12.1667 5.99984 12.1667C6.1165 12.1667 6.23317 12.1667 6.34984 12.2833L13.2332 15.2ZM14.1665 0.5C11.5998 0.5 9.49984 2.6 9.49984 5.16667C9.49984 7.73333 11.5998 9.83333 14.1665 9.83333C16.7332 9.83333 18.8332 7.73333 18.8332 5.16667C18.8332 2.6 16.7332 0.5 14.1665 0.5ZM14.1665 7.5C12.8832 7.5 11.8332 6.45 11.8332 5.16667C11.8332 3.88333 12.8832 2.83333 14.1665 2.83333C15.4498 2.83333 16.4998 3.88333 16.4998 5.16667C16.4998 6.45 15.4498 7.5 14.1665 7.5Z" />
</svg>