<svg height="10" viewBox="0 0 10 10" width="10" xmlns="http://www.w3.org/2000/svg"><g fill="none" transform="translate(0 .5)"><path d="m9.80941514 7.75243356-3.94246304-7.12921076c-.22246345-.40194079-.53052549-.6232228-.86698239-.6232228-.33645691 0-.64451895.22128201-.86698239.62401042l-3.94286695 7.12840294c-.12582802.2275931-.18972656.44926892-.19012037.65911019v.00118335c.00039442.54117861.41535059.89104532 1.05753696.89104532l7.88492608.00039442c.64176226 0 1.05672914-.34986671 1.05753696-.89104532-.00039442-.21023507-.06429437-.43270862-.19051418-.66069553z" fill="#fbaa00"/><g fill="#2f3e4e"><path d="m5 8c-.27615009 0-.5-.22384991-.5-.5s.22384991-.5.5-.5.5.22384991.5.5-.22384991.5-.5.5z"/><path d="m5.5 5.46870263c0 .29343564-.22384991.53129737-.5.53129737s-.5-.23786173-.5-.53129737v-2.93740526c0-.29343564.22384991-.53129737.5-.53129737s.5.23786173.5.53129737z"/></g></g></svg>