<svg fill="none" height="12" viewBox="0 0 20 12" width="20" xmlns="http://www.w3.org/2000/svg"><g fill="#c5d9ed"><path d="m7.37376 1.70711c.39053-.39053.39053-1.023693 0-1.414217-.39052-.3905241-1.02369-.3905241-1.41421 0l-5 4.999997c-.390525.39053-.390525 1.02369 0 1.41422l5 4.99999c.39052.3905 1.02369.3905 1.41421 0 .39053-.3905.39053-1.0237 0-1.4142l-4.29289-4.2929z"/><path d="m14.0405.292893c-.3906-.3905241-1.0237-.3905241-1.4143 0-.3905.390524-.3905 1.023687 0 1.414217l4.2929 4.29289-4.2929 4.2929c-.3905.3905-.3905 1.0237 0 1.4142.3906.3905 1.0237.3905 1.4143 0l5-4.99999c.3905-.39053.3905-1.02369 0-1.41422z"/></g></svg>