<svg fill="none" height="42" viewBox="0 0 46 42" width="46" xmlns="http://www.w3.org/2000/svg"><path d="m45.459 4.01812c-.4136-2.85909-9.7087-1.18156-12.1937-.73311-.1981.03578-.3528.06369-.4565.08092-.0719.01193-.1391-.04752-.1245-.11665.1428-.69169.246-2.561899-1.124-2.966795-.876-.2590767-1.4537.218912-1.7965.701145-.1534.21636-.6128 1.1516-.8982 1.80084-.1539.35062-.5121.86294-.9058.85368-1.6512-.49695-3.3098-.74549-4.9683-.74549-1.6584 0-3.3173.24854-4.9686.74549-.3935.00927-.7519-.50306-.9059-.85368-.2853-.64925-.7445-1.58449-.898-1.80084-.3428-.482179-.9202-.9602217-1.7963-.701145-1.3704.404896-1.2671 2.275105-1.124 2.966795.0144.06914-.0528.12854-.1249.11665-.1034-.01718-.2579-.04509-.4555-.08077-2.4836-.44828-11.780718-2.12646-12.194763.73296-.4238998 2.92803 3.406163 6.96598 7.413863 8.78078.21157.0958.39944.2278.5876.36.15583.1094.31176.219.48162.3083.63092.3319 1.00708 1.1602.91472 1.9074v10.4615c3.16006-2.1492 7.80526-3.4866 13.07016-3.4866s9.91 1.3374 13.0703 3.4867v-10.4616c-.0926-.7472.2834-1.5755.9142-1.9074.1703-.0894.3266-.1991.4826-.3088.1879-.132.3755-.2637.5867-.3595 4.0077-1.8147 7.8382-5.8527 7.4137-8.78078zm-23.7544 10.97708c-.1645.8547-1.6307 1.3902-2.8311 1.6895-.9582.2329-1.9402.35-2.9313.35-.2506 0-.5016-.0075-.753-.0224-.3883-.0235-.7216-.0917-1.0188-.2087-.5839-.2292-1.089-.6284-1.4598-1.1539-.5194-.7126-.72-1.5117-.574-2.3022.1422-.7879.6123-1.4706 1.3585-1.9719.5229-.3638 1.1367-.5714 1.7665-.5941.3246-.0112.6597.0354 1.0305.1412 1.1963.3418 2.3216.855 3.3442 1.5251 1.0279.6813 2.2188 1.672 2.0706 2.534zm11.5613.6631c-.364.5165-.869.9157-1.4537 1.1457-.2972.1166-.6301.1848-1.0184.2083-.2514.0149-.5031.0224-.7538.0224-.9907 0-1.972-.1171-2.9267-.3493-1.2038-.2996-2.6696-.8355-2.8353-1.6898-.1494-.8762 1.0408-1.8665 2.0656-2.5455 1.0272-.6731 2.1525-1.1863 3.348-1.5274.3693-.1058.7018-.1531 1.0286-.1412.631.0227 1.2448.2303 1.7772.6008.7374.4949 1.2072 1.1781 1.3494 1.9686.1456.7879-.055 1.5866-.5809 2.3074z" fill="#fff"/><path d="m18.8579 13.589c-.9009-.5903-1.8965-1.0443-2.9563-1.3469-.207-.0593-.3864-.0883-.5464-.0883-.0147 0-.0295.0003-.0439.0007-.3561.0127-.7083.1334-1.0181.3489-.4508.303-.7029.6563-.7807 1.0868-.0796.4308.0319.8445.3401 1.2679.2203.3119.5077.5404.8369.6697.1569.0619.348.0988.5842.113 1.1049.0667 2.2014-.0313 3.26-.2889.9608-.2393 1.4499-.4804 1.6789-.6246-.1645-.2106-.5391-.5975-1.3547-1.1383z" fill="#ffcf56"/><path d="m31.6992 12.5101c-.3192-.2222-.6715-.3429-1.0286-.3556-.1699-.003-.3629.0227-.5885.0872-1.0594.3023-2.055.7562-2.9604 1.3496-.813.5389-1.1868.925-1.3514 1.136.2294.1442.7193.3853 1.6827.6254 1.0545.2568 2.151.354 3.2559.2881.2366-.0142.4277-.0511.5842-.1126.3292-.1293.6166-.3582.8304-.6615.3151-.432.4266-.8453.3473-1.2736-.0777-.4334-.3299-.7867-.7716-1.083z" fill="#ffcf56"/><path d="m22.9915 24.0899c-8.5998 0-15.57089 3.8811-15.57089 8.6688s6.97109 8.6687 15.57089 8.6687 15.571-3.8811 15.571-8.6687-6.9714-8.6688-15.571-8.6688zm-7.3699 9.5547c-1.3325.6286-2.5732 0-2.8111-1.4255-.2608-1.5272 1.8679-5.1568 2.3576-2.4122.2802 1.5702 1.1134.9858 1.7779.5199.4968-.3485.8992-.6306.9049.1043-.073 1.3867-.9296 2.622-2.2293 3.2135zm17.5506-1.4255c-.2382 1.4255-1.4789 2.0541-2.8112 1.4255-1.2997-.5915-2.1565-1.8268-2.2289-3.2135.0055-.7349.4077-.4528.9044-.1044.6643.4659 1.4976 1.0504 1.778-.5198.4896-2.7446 2.6181.885 2.3577 2.4122z" fill="#fff"/></svg>