<svg fill="none" height="75" viewBox="0 0 75 75" width="75" xmlns="http://www.w3.org/2000/svg" xmlns:xlink="http://www.w3.org/1999/xlink"><linearGradient id="a" gradientUnits="userSpaceOnUse" x1=".000002" x2="60.016" y1="37.5" y2="7.51203"><stop offset="0" stop-color="#ffe7e0"/><stop offset=".109375" stop-color="#f8dbf4"/><stop offset=".526042" stop-color="#c4ddff"/><stop offset="1" stop-color="#cae9ff"/></linearGradient><clipPath id="b"><path d="m0 0h75v75h-75z"/></clipPath><g clip-path="url(#b)"><circle cx="37.5" cy="37.5" fill="url(#a)" r="37.5"/><g clip-rule="evenodd" fill="#052b65" fill-rule="evenodd"><path d="m47.2306 20.6059c2.3536-.4321 11.1572-2.0485 11.549.7063.402 2.8213-3.226 6.7121-7.0218 8.4606-.2001.0923-.3777.2192-.5557.3464-.1478.1056-.2958.2114-.457.2976-.5974.3197-.9536 1.1179-.8659 1.8378v10.0801c-2.9931-2.0709-7.3928-3.3595-12.3793-3.3595-4.9864 0-9.386 1.2886-12.379 3.3594v-10.08c.0874-.7199-.2689-1.5181-.8664-1.8378-.1608-.0861-.3085-.1917-.4561-.2971-.1782-.1274-.3562-.2545-.5565-.3469-3.7958-1.7485-7.4234-5.6393-7.0219-8.4606.3922-2.7551 9.1977-1.1381 11.5499-.7062.1872.0344.3335.0613.4315.0778.0682.0115.1318-.0457.1182-.1123-.1355-.6665-.2333-2.4685 1.0646-2.8587.8298-.2496 1.3767.211 1.7014.6756.1454.2085.5803 1.1096.8505 1.7352.1459.3378.4853.8315.858.8225 1.5641-.4788 3.1351-.7183 4.7058-.7183 1.5709 0 3.1418.2395 4.7057.7183.3729.009.7122-.4847.8579-.8225.2703-.6256.7054-1.5267.8506-1.7352.3247-.4646.872-.9252 1.7016-.6756 1.2977.3902 1.1998 2.1922 1.0646 2.8587-.0138.0666.0497.1238.118.1123.0981-.0166.2447-.0435.4323-.0779zm-11.5998 11.16c.0432-.2552-.3737-.9023-1.6759-1.7807-.9139-.6091-1.9264-1.0769-2.9854-1.3845-.2487-.0724-.5076-.1194-.7668-.1102-.473.0173-.9262.1762-1.3235.4574-.5304.3624-.8979.846-1.0087 1.4717-.1135.625.0638 1.2034.4361 1.7226.2755.3977.6462.6995 1.0846.8748.2403.0964.5.1389.759.1549 1.102.0668 2.216-.0318 3.2866-.2968 1.5291-.3875 2.1458-.8552 2.194-1.1092zm9.9779 1.2511c.4383-.1753.8091-.4771 1.0846-.8748.3723-.5192.5496-1.0973.436-1.7223-.1106-.6257-.4782-1.1096-1.0086-1.472-.3972-.2812-.8506-.4401-1.3236-.4574-.2591-.0092-.5181.0378-.7667.1102-1.059.3076-2.0715.7754-2.9855 1.3845-1.3022.8784-1.719 1.5253-1.676 1.7805.0482.254.6649.7219 2.1941 1.1094 1.0705.265 2.1847.3636 3.2867.2968.2589-.016.5186-.0585.759-.1549z"/><path d="m22.7523 49.0048c0-4.6132 6.6026-8.3527 14.7476-8.3527 8.1449 0 14.7479 3.7396 14.7479 8.3527 0 4.613-6.6028 8.3525-14.7479 8.3525-8.145 0-14.7476-3.7394-14.7476-8.3525zm5.1049-.5199c.2254 1.3735 1.4005 1.9791 2.6625 1.3735 1.231-.5699 2.0423-1.7602 2.1115-3.0963-.0055-.7081-.3865-.4363-.8571-.1006-.6292.4489-1.4185 1.012-1.6838-.5009-.4638-2.6445-2.48.8528-2.2331 2.3243zm16.6227 1.3735c1.2617.6056 2.4368 0 2.6625-1.3735.2466-1.4715-1.7693-4.9688-2.2331-2.3243-.2655 1.513-1.0548.9498-1.684.5009-.4704-.3357-.8513-.6075-.8566.1006.0686 1.3361.8802 2.5264 2.1112 3.0963z"/></g></g></svg>