<svg width="75" height="75" fill="none" xmlns="http://www.w3.org/2000/svg"><path d="M75 37.5C75 58.21 58.21 75 37.5 75S0 58.21 0 37.5 16.79 0 37.5 0 75 16.79 75 37.5z" fill="url(#prefix__paint0_linear_1933_2570)"/><path d="M63.613 31.86l-8.673-1.419 6.622-2.768 1.495-5.975-1.747-3.102-8.542-2.497 4.349 6.23h-.004l.026.037-3.39.847-8.373-5.75-7.106.845-7.105-.844-8.374 5.75-3.39-.847.026-.037h-.004l4.349-6.23-8.542 2.496-1.748 3.102 1.496 5.975 6.622 2.768-8.67 1.42-1.979 5.33 5.948 2.875 5.619-1.981.807 5.997 3.693 8.605 1.798 4.67 8.703 6.109.74.517v.01l.006.004.007-.006.008.006.005-.004v-.01l.74-.517 8.701-6.111 1.798-4.67 3.693-8.605.808-5.997 5.619 1.98 5.947-2.874zM15.819 19.335l5.812-1.7-3.154 4.52-3.846-.71zm-1.28 2.98l3.386.63-2.381 3.38zm7.9 14.872L16.95 39.12l-4.9-2.37 1.523-4.11 8.867-1.447zm0-7.342l-6.42-2.683 2.839-4.032 3.578.893zm15.831 23.747l-2.214-1.819-2.786-7.372h10l-2.785 7.374zm-5.265-10.066l-2.246-7.692h15.023l-2.247 7.692zm-2.52-8.566l-.828-2.774 8.613-12.428 8.611 12.429-.828 2.773zm-7.172-6.121v-4.924l8.076-5.545 6.242.742.041.005-.018.017-8.776 12.594zm4.515 23.519l-3.652-8.512-.815-6.026 6.565-1.717 2.284 7.822-1.848 3.86-2.49 4.682zm.46 1.191l2.6-4.887 6.7 5.503-.224.185-7.92 2.197zm9.982 9.378l-8.085-5.68 8.085-2.243 8.086 2.244zm8.826-6.38l-7.92-2.198-.225-.185 6.702-5.503 2.6 4.887zm5.266-12.701l-3.652 8.51-.043.112-2.49-4.683-1.849-3.86 2.284-7.822 6.565 1.717zm.865-15.007l-5.562 2.89-8.779-12.595-.018-.017.042-.005 6.242-.742 8.075 5.545zm7.771-2.515l-2.381-3.381 3.386-.627zm-6.09-8.686l5.814 1.7 1.187 2.107-3.846.711zm-.806 6.391l3.578-.893 2.84 4.033-6.42 2.683zm5.488 15.094l-5.488-1.933v-5.997l8.867 1.447 1.524 4.11z" fill="url(#prefix__paint1_linear_1933_2570)"/><defs id="prefix__defs20"><linearGradient id="prefix__paint0_linear_1933_2570" x1="1.143" y1="32.5" x2="47.852" y2="15.674" gradientUnits="userSpaceOnUse" gradientTransform="scale(1.5)"><stop stop-color="#36373D" id="prefix__stop6"/><stop offset=".359" stop-color="#101015" id="prefix__stop8"/><stop offset="1" stop-color="#0E0501" id="prefix__stop10"/></linearGradient><linearGradient id="prefix__paint1_linear_1933_2570" x1="7.301" y1="26.7" x2="43.726" y2="26.7" gradientUnits="userSpaceOnUse" gradientTransform="scale(1.5)"><stop offset=".443" stop-color="#fff" id="prefix__stop13"/><stop offset=".505" stop-color="#8D9ACA" id="prefix__stop15"/><stop offset="1" stop-color="#FF784A" id="prefix__stop17"/></linearGradient></defs></svg>