<svg fill="none" height="1536" viewBox="0 0 1536 1536" width="1536" xmlns="http://www.w3.org/2000/svg"><rect fill="#16171f" height="1536" rx="280" width="1536"/><g fill="#fff"><path d="m768.087 873.871c-214.455 0-388.293 100.091-388.293 223.569 0 123.47 173.839 223.56 388.293 223.56s388.293-100.09 388.293-223.56c0-123.476-173.847-223.569-388.293-223.569zm-186.433 252.289c-39.361 19.2-76.015 0-83.044-43.55-7.707-46.66 55.177-157.553 69.651-73.7 14.463 83.85 78.853-33.405 79.247 19.07-2.152 42.37-27.463 80.11-65.854 98.18zm479.456-43.55c-7.03 43.55-43.68 62.75-83.033 43.55-38.401-18.07-63.713-55.81-65.854-98.18.394-52.475 64.773 64.78 79.247-19.07 14.46-83.853 77.34 27.04 69.64 73.7z"/><path d="m1328.35 356.221c-11.14-79.612-280.45-22.833-315.45-16.819-1.8.306-3.48-1.226-3.11-3.007 3.56-17.84 6.14-66.072-28.028-76.515-21.849-6.68-36.249 5.646-44.802 18.084-3.827 5.58-15.282 29.699-22.397 46.443-3.835 9.041-12.765 22.253-22.585 22.016-41.18-12.817-82.54-19.227-123.891-19.227-41.36 0-82.721 6.41-123.901 19.227-9.82.237-18.758-12.975-22.593-22.016-7.115-16.744-18.57-40.863-22.397-46.443-8.544-12.438-22.945-24.764-44.793-18.084-34.169 10.443-31.6 58.675-28.03 76.515.359 1.781-1.319 3.313-3.108 3.007-34.999-6.014-304.315-62.793-315.462 16.819-10.573 75.514 84.938 179.652 184.875 226.455 9.649 4.519 17.32 12.153 26.669 17.234 15.727 8.56 25.11 29.922 22.807 49.192v278.085l36.489-20.931c55.615-31.855 113.67-46.762 158.36-55.606h1.584c35.71-7.921 72.164-11.994 108.747-12.165h41.497c36.574.171 73.029 4.244 108.747 12.165h1.575c44.699 8.844 102.747 23.752 158.377 55.606l36.49 20.931v-278.085c-2.31-19.27 7.06-40.632 22.79-49.192 9.37-5.081 17.02-12.715 26.67-17.234 99.94-46.803 195.45-150.941 184.87-226.455zm-586.256 285.092c-1.541 8.253-21.249 23.444-70.109 36.033-34.212 8.606-69.81 11.813-105.023 9.64-8.278-.52-16.575-1.898-24.254-5.03-14.015-5.697-25.855-15.5-34.665-28.417-11.892-16.868-17.56-35.647-13.93-55.951 3.536-20.327 15.282-36.045 32.234-47.817 12.696-9.135 27.174-14.297 42.293-14.858 8.279-.3 16.558 1.226 24.503 3.578 33.834 9.991 66.197 25.19 95.399 44.977 41.609 28.533 54.931 49.554 53.552 57.845zm286.026 12.226c-8.8 12.917-20.65 22.72-34.664 28.417-7.671 3.131-15.975 4.51-24.246 5.03-35.213 2.172-70.819-1.034-105.031-9.64-48.868-12.59-68.56-27.78-70.1-36.033-1.379-8.292 11.934-29.312 53.551-57.845 29.203-19.788 61.556-34.986 95.4-44.977 7.945-2.352 16.215-3.879 24.502-3.579 15.111.561 29.606 5.724 42.298 14.859 16.95 11.771 28.69 27.482 32.22 47.809 3.63 20.303-2.04 39.091-13.93 55.959z"/></g></svg>