<svg xmlns="http://www.w3.org/2000/svg" fill="none" viewBox="0 0 135 90"><path fill="#ffffff" fill-rule="evenodd" d="M50.934 89.532c-6.523 0-12.295-4.212-14.267-10.41l-10.14-31.87h-6.234c-6.524 0-12.296-4.21-14.268-10.41L0 17.907h22.599L10.679 0h112.939l-11.919 17.906h22.599l-6.025 18.937c-1.972 6.198-7.745 10.41-14.268 10.41h-6.234L97.631 79.12c-1.972 6.2-7.744 10.41-14.267 10.41h-32.43Zm-7.66-50.984c0 4.808 3.6 8.705 8.041 8.705 4.441 0 8.042-3.897 8.042-8.705 0-4.807-3.6-8.704-8.042-8.704-4.441 0-8.041 3.897-8.041 8.704Zm47.75 0c0 4.808-3.6 8.705-8.041 8.705-4.442 0-8.042-3.897-8.042-8.705 0-4.807 3.6-8.704 8.042-8.704 4.44 0 8.041 3.897 8.041 8.704Z" clip-rule="evenodd"/></svg>
