<svg fill="none" height="18" preserveAspectRatio="xMidYMid slice" viewBox="0 0 18 18" width="18" xmlns="http://www.w3.org/2000/svg"><g fill="#fff" transform="matrix(.014953 0 0 .014953 -2.239327 -1.923296)"><path d="m750.597 807.801c-229.648 0-415.803 107.181-415.803 239.408 0 132.217 186.156 239.399 415.803 239.399 229.648 0 415.804-107.182 415.804-239.399 0-132.224-186.165-239.408-415.804-239.408zm-199.642 270.163c-42.149 20.56-81.4 0-88.927-46.636-8.252-49.966 59.086-168.715 74.586-78.921 15.488 89.79 84.44-35.772 84.861 20.421-2.304 45.372-29.408 85.786-70.52 105.136zm513.425-46.636c-7.528 46.636-46.774 67.196-88.915 46.636-41.122-19.35-68.227-59.764-70.52-105.136.422-56.193 69.362 69.369 84.862-20.421 15.484-89.794 82.819 28.955 74.573 78.921z"/><path d="m1350.554 253.475c-11.93-85.252-300.32-24.45-337.799-18.01-1.928.328-3.726-1.313-3.331-3.22 3.813-19.104 6.576-70.753-30.013-81.936-23.397-7.153-38.818 6.046-47.977 19.365-4.098 5.975-16.364 31.803-23.984 49.733-4.106 9.682-13.668 23.83-24.184 23.576-44.097-13.724-88.388-20.589-132.669-20.589-44.29 0-88.582 6.865-132.679 20.589-10.516.254-20.087-13.894-24.193-23.576-7.62-17.93-19.886-43.758-23.984-49.733-9.15-13.319-24.571-26.518-47.967-19.365-36.59 11.183-33.839 62.832-30.016 81.936.385 1.907-1.413 3.548-3.328 3.22-37.478-6.44-325.875-67.242-337.812 18.01-11.322 80.864 90.955 192.381 197.973 242.5 10.333 4.839 18.547 13.014 28.559 18.455 16.84 9.166 26.889 32.041 24.423 52.676v297.787l39.073-22.414c59.555-34.111 121.724-50.075 169.58-59.545h1.697c38.239-8.482 77.276-12.844 116.451-13.027h44.437c39.165.183 78.203 4.545 116.451 13.027h1.687c47.866 9.47 110.027 25.435 169.597 59.545l39.076 22.414v-297.787c-2.474-20.635 7.56-43.51 24.404-52.676 10.034-5.441 18.226-13.616 28.56-18.455 107.021-50.119 209.297-161.636 197.968-242.5zm-627.792 305.291c-1.65 8.837-22.754 25.105-75.076 38.586-36.635 9.216-74.756 12.65-112.463 10.323-8.864-.557-17.75-2.032-25.973-5.387-15.008-6.1-27.686-16.598-37.121-30.43-12.734-18.063-18.804-38.173-14.917-59.915 3.787-21.767 16.365-38.599 34.518-51.205 13.596-9.782 29.1-15.309 45.29-15.911 8.866-.321 17.731 1.313 26.239 3.832 36.231 10.699 70.886 26.974 102.157 48.163 44.557 30.555 58.824 53.066 57.346 61.944zm306.291 13.092c-9.423 13.832-22.112 24.33-37.12 30.43-8.214 3.354-17.107 4.83-25.964 5.387-37.707 2.326-75.836-1.107-112.471-10.323-52.331-13.482-73.418-29.749-75.068-38.586-1.476-8.879 12.781-31.389 57.345-61.944 31.272-21.19 65.918-37.464 102.16-48.163 8.508-2.519 17.363-4.154 26.238-3.833 16.181.602 31.703 6.13 45.295 15.912 18.15 12.605 30.722 29.429 34.502 51.196 3.887 21.741-2.184 41.861-14.917 59.924z"/></g></svg>