<?xml version="1.0" encoding="utf-8"?>
<svg fill="none" height="18px" viewBox="0 0 18 18" width="18px" preserveAspectRatio="xMidYMid slice" xmlns="http://www.w3.org/2000/svg">
  <g fill="#fff" transform="matrix(0.014953, 0, 0, 0.014953, -2.239327, -1.923296)" style="">
    <path d="M 750.597 807.801 C 520.949 807.801 334.794 914.982 334.794 1047.209 C 334.794 1179.426 520.95 1286.608 750.597 1286.608 C 980.245 1286.608 1166.401 1179.426 1166.401 1047.209 C 1166.401 914.985 980.236 807.801 750.597 807.801 Z M 550.955 1077.964 C 508.806 1098.524 469.555 1077.964 462.028 1031.328 C 453.776 981.362 521.114 862.613 536.614 952.407 C 552.102 1042.197 621.054 916.635 621.475 972.828 C 619.171 1018.2 592.067 1058.614 550.955 1077.964 Z M 1064.38 1031.328 C 1056.852 1077.964 1017.606 1098.524 975.465 1077.964 C 934.343 1058.614 907.238 1018.2 904.945 972.828 C 905.367 916.635 974.307 1042.197 989.807 952.407 C 1005.291 862.613 1072.626 981.362 1064.38 1031.328 Z" style=""/>
    <path d="M 1350.554 253.475 C 1338.624 168.223 1050.234 229.025 1012.755 235.465 C 1010.827 235.793 1009.029 234.152 1009.424 232.245 C 1013.237 213.141 1016 161.492 979.411 150.309 C 956.014 143.156 940.593 156.355 931.434 169.674 C 927.336 175.649 915.07 201.477 907.45 219.407 C 903.344 229.089 893.782 243.237 883.266 242.983 C 839.169 229.259 794.878 222.394 750.597 222.394 C 706.307 222.394 662.015 229.259 617.918 242.983 C 607.402 243.237 597.831 229.089 593.725 219.407 C 586.105 201.477 573.839 175.649 569.741 169.674 C 560.591 156.355 545.17 143.156 521.774 150.309 C 485.184 161.492 487.935 213.141 491.758 232.245 C 492.143 234.152 490.345 235.793 488.43 235.465 C 450.952 229.025 162.555 168.223 150.618 253.475 C 139.296 334.339 241.573 445.856 348.591 495.975 C 358.924 500.814 367.138 508.989 377.15 514.43 C 393.99 523.596 404.039 546.471 401.573 567.106 L 401.573 864.893 L 440.646 842.479 C 500.201 808.368 562.37 792.404 610.226 782.934 L 611.923 782.934 C 650.162 774.452 689.199 770.09 728.374 769.907 L 772.811 769.907 C 811.976 770.09 851.014 774.452 889.262 782.934 L 890.949 782.934 C 938.815 792.404 1000.976 808.369 1060.546 842.479 L 1099.622 864.893 L 1099.622 567.106 C 1097.148 546.471 1107.182 523.596 1124.026 514.43 C 1134.06 508.989 1142.252 500.814 1152.586 495.975 C 1259.607 445.856 1361.883 334.339 1350.554 253.475 Z M 722.762 558.766 C 721.112 567.603 700.008 583.871 647.686 597.352 C 611.051 606.568 572.93 610.002 535.223 607.675 C 526.359 607.118 517.473 605.643 509.25 602.288 C 494.242 596.188 481.564 585.69 472.129 571.858 C 459.395 553.795 453.325 533.685 457.212 511.943 C 460.999 490.176 473.577 473.344 491.73 460.738 C 505.326 450.956 520.83 445.429 537.02 444.827 C 545.886 444.506 554.751 446.14 563.259 448.659 C 599.49 459.358 634.145 475.633 665.416 496.822 C 709.973 527.377 724.24 549.888 722.762 558.766 Z M 1029.053 571.858 C 1019.63 585.69 1006.941 596.188 991.933 602.288 C 983.719 605.642 974.826 607.118 965.969 607.675 C 928.262 610.001 890.133 606.568 853.498 597.352 C 801.167 583.87 780.08 567.603 778.43 558.766 C 776.954 549.887 791.211 527.377 835.775 496.822 C 867.047 475.632 901.693 459.358 937.935 448.659 C 946.443 446.14 955.298 444.505 964.173 444.826 C 980.354 445.428 995.876 450.956 1009.468 460.738 C 1027.618 473.343 1040.19 490.167 1043.97 511.934 C 1047.857 533.675 1041.786 553.795 1029.053 571.858 Z" style=""/>
  </g>
</svg>