<svg fill="none" height="50" viewBox="0 0 50 50" width="50" xmlns="http://www.w3.org/2000/svg"><circle cx="25" cy="25" fill="#41c29b" r="25"/><g fill="#000"><path d="m18.1047 30.4684h-2.6184v-7.3864h2.6401c.7429 0 1.3825.1479 1.9187.4436.5362.2934.9485.7154 1.2371 1.266.2909.5506.4364 1.2094.4364 1.9764 0 .7694-.1455 1.4306-.4364 1.9836-.2886.5531-.7033.9774-1.2443 1.2732-.5386.2957-1.183.4436-1.9332.4436zm-1.0567-1.3381h.9918c.4617 0 .85-.0817 1.165-.2452.3173-.1659.5554-.422.7141-.7682.1611-.3487.2416-.7983.2416-1.3489 0-.5458-.0805-.9918-.2416-1.3381-.1587-.3462-.3956-.6011-.7105-.7646-.315-.1635-.7033-.2452-1.165-.2452h-.9954z"/><path d="m22.8754 30.4684v-7.3864h4.9771v1.2876h-3.4154v1.76h3.1594v1.2876h-3.1594v1.7636h3.4299v1.2876z"/><path d="m30.5584 23.082 1.4895 2.5175h.0577l1.4968-2.5175h1.7636l-2.2541 3.6932 2.3046 3.6932h-1.7961l-1.5148-2.521h-.0577l-1.5147 2.521h-1.7889l2.3118-3.6932-2.2685-3.6932z"/><path clip-rule="evenodd" d="m17.1875 17.1875h-4.6875v1.5625h4.6875zm-4.6875-1.5625c-.8629 0-1.5625.6996-1.5625 1.5625v1.5625c0 .8629.6996 1.5625 1.5625 1.5625h4.6875c.8629 0 1.5625-.6996 1.5625-1.5625v-1.5625c0-.8629-.6996-1.5625-1.5625-1.5625z" fill-rule="evenodd"/><path clip-rule="evenodd" d="m27.3438 17.1875h-4.6876v1.5625h4.6876zm-4.6876-1.5625c-.8629 0-1.5624.6996-1.5624 1.5625v1.5625c0 .8629.6995 1.5625 1.5624 1.5625h4.6876c.8629 0 1.5624-.6996 1.5624-1.5625v-1.5625c0-.8629-.6995-1.5625-1.5624-1.5625z" fill-rule="evenodd"/><path clip-rule="evenodd" d="m37.5 17.1875h-4.6875v1.5625h4.6875zm-4.6875-1.5625c-.8629 0-1.5625.6996-1.5625 1.5625v1.5625c0 .8629.6996 1.5625 1.5625 1.5625h4.6875c.8629 0 1.5625-.6996 1.5625-1.5625v-1.5625c0-.8629-.6996-1.5625-1.5625-1.5625z" fill-rule="evenodd"/><path clip-rule="evenodd" d="m40.625 20.3125h-31.25v12.5h31.25zm-31.25-1.5625c-.86294 0-1.5625.6996-1.5625 1.5625v12.5c0 .8629.69956 1.5625 1.5625 1.5625h31.25c.8629 0 1.5625-.6996 1.5625-1.5625v-12.5c0-.8629-.6996-1.5625-1.5625-1.5625z" fill-rule="evenodd"/></g></svg>