<svg fill="none" height="16" viewBox="0 0 22 16" width="22" xmlns="http://www.w3.org/2000/svg"><path d="m18.4213 2.09374c-1.7776-1.428533-4.5884-1.670533-4.7072-1.6808-.0919-.007474-.1838.013684-.2631.060564-.0793.046881-.1421.117182-.1799.201237-.0029.005866-.1598.461269-.3116.900529 2.0658.36154 3.4694 1.1638 3.5442 1.2078.1399.08084.2491.20565.3107.35503s.0721.31493.0299.47089c-.0423.15596-.1349.29357-.2635.39142s-.2859.15045-.4475.1496c-.1291.00025-.2559-.03393-.3674-.099-.0205-.01247-2.0797-1.18434-4.7644-1.18434-2.6855 0-4.74543 1.1726-4.76597 1.18434-.16814.09783-.36825.12486-.55632.07514s-.34868-.1721-.44651-.34024-.12486-.36826-.07514-.55632c.04971-.18807.1721-.34869.34024-.44652.0748-.044 1.48353-.8492 3.5552-1.21-.15987-.4444-.3212-.892463-.32413-.898329-.03702-.084598-.09972-.155404-.17922-.20239-.07949-.046987-.17175-.067771-.26372-.059411-.1188.009534-2.92966.251534-4.73073 1.69987-.9416.86973-2.821869 5.95466-2.821869 10.35099-.000214.0775.020023.1536.058667.2207 1.298732 2.2807 4.839272 2.8776 5.645932 2.9033.0726.0023.14465-.0132.20994-.045s.12185-.079.1648-.1376l.87266-1.1821c-1.914-.4613-2.926-1.1866-2.98686-1.2313-.15527-.1155-.2586-.2876-.28748-.479-.02888-.1913.01904-.3863.1333-.5425.11427-.1561.28563-.2608.47673-.2912.1911-.0303.38647.0161.54351.1291.02714.0176 1.89494 1.3251 5.43547 1.3251 3.5545 0 5.4171-1.3126 5.4355-1.3258.1572-.1057.3493-.1465.5359-.1139.1866.0327.3534.1362.4655.289.112.1528.1607.343.1357.5308-.0249.1878-.1215.3587-.2696.4769-.0609.0448-1.0677.7686-2.9773 1.2298l.8616 1.1844c.0844.1158.2186.1833.3608.1833l.014-.0007c.8074-.0257 4.3479-.6226 5.6459-2.9033.0386-.0671.0589-.1433.0587-.2207 0-4.39563-1.8803-9.48056-2.8454-10.36936zm-10.35463 8.83956c-.81034 0-1.46667-.8206-1.46667-1.83329 0-1.01274.65633-1.83334 1.46667-1.83334.81033 0 1.46666.8206 1.46666 1.83334 0 1.01269-.65633 1.83329-1.46666 1.83329zm5.86663 0c-.8103 0-1.4666-.8206-1.4666-1.83329 0-1.01274.6563-1.83334 1.4666-1.83334.8104 0 1.4667.8206 1.4667 1.83334 0 1.01269-.6563 1.83329-1.4667 1.83329z" fill="#c5d9ed"/></svg>