<svg fill="none" height="16" viewBox="0 0 18 16" width="18" xmlns="http://www.w3.org/2000/svg"><g clip-rule="evenodd" fill="#c5d9ed" fill-rule="evenodd"><path d="m.5 1.25c0-.552285.447715-1 1-1h4.5c1.06087 0 2.07828.421427 2.82843 1.17157.75014.75015 1.17157 1.76756 1.17157 2.82843v10.5c0 .5523-.44771 1-1 1-.55228 0-1-.4477-1-1 0-.3315-.1317-.6495-.36612-.8839s-.55236-.3661-.88388-.3661h-5.25c-.552285 0-1-.4477-1-1zm7.5 10.5v-7.5c0-.53043-.21071-1.03914-.58579-1.41421-.37507-.37508-.88378-.58579-1.41421-.58579h-3.5v9.25h4.25c.43329 0 .85765.0865 1.25.25z"/><path d="m9.17157 1.42157c.75015-.750143 1.76753-1.17157 2.82843-1.17157h4.5c.5523 0 1 .447715 1 1v11.25c0 .5523-.4477 1-1 1h-5.25c-.3315 0-.6495.1317-.8839.3661s-.3661.5524-.3661.8839c0 .5523-.44771 1-1 1-.55228 0-1-.4477-1-1v-10.5c0-1.06087.42143-2.07828 1.17157-2.82843zm.82843 10.32843c.3923-.1635.8167-.25 1.25-.25h4.25v-9.25h-3.5c-.5304 0-1.0391.21071-1.4142.58579-.3751.37507-.5858.88378-.5858 1.41421z"/></g></svg>