<svg fill="none" height="108" viewBox="0 0 451 108" width="451" xmlns="http://www.w3.org/2000/svg" xmlns:xlink="http://www.w3.org/1999/xlink"><linearGradient id="a" gradientUnits="userSpaceOnUse" x1="225.746" x2="225.746" y1="1" y2="108"><stop offset=".25" stop-color="#8d8d8d" stop-opacity=".64"/><stop offset=".984375" stop-color="#8d8d8d" stop-opacity="0"/></linearGradient><path d="m25.3792 61.5-24.3792 11.5v35h449.492v-107l-23.363 28-38.601 20-65.519-6.5-62.98-18.5c-10.158 4.8333-30.982 15.3-33.013 18.5-2.032 3.2-14.052 14-19.808 19-21.671 5.5-66.231 16.5-71.106 16.5-4.876 0-36.2307-15.3333-51.2984-23l-22.3476-6z" fill="url(#a)" fill-opacity=".5"/><path d="m1 73 24.3792-11.5 37.0768-12.5 22.3476 6c15.0677 7.6667 46.4224 23 51.2984 23 4.875 0 49.435-11 71.106-16.5 5.756-5 17.776-15.8 19.808-19 2.031-3.2 22.855-13.6667 33.013-18.5l62.98 18.5 65.519 6.5 38.601-20 23.363-28" stroke="#fff"/></svg>