<svg fill="none" height="20" viewBox="0 0 20 20" width="20" xmlns="http://www.w3.org/2000/svg"><path d="m9.08334 6.33331c0-.50625.41039-.91666.91666-.91666.5063 0 .9167.41041.9167.91666 0 .50626-.4104.91667-.9167.91667-.50627 0-.91666-.41041-.91666-.91667zm0 3.66667c0-.50628.41039-.91667.91666-.91667.5063 0 .9167.41039.9167.91667v3.66662c0 .5063-.4104.9167-.9167.9167-.50627 0-.91666-.4104-.91666-.9167zm.91666-9.166667c-5.05999 0-9.166656 4.106667-9.166656 9.166667 0 5.06002 4.106666 9.16662 9.166656 9.16662 5.06 0 9.1667-4.1066 9.1667-9.16662 0-5.06-4.1067-9.166667-9.1667-9.166667zm0 16.499987c-4.04249 0-7.33332-3.2908-7.33332-7.33332 0-4.0425 3.29083-7.33333 7.33332-7.33333 4.0425 0 7.3333 3.29083 7.3333 7.33333 0 4.04252-3.2908 7.33332-7.3333 7.33332z" fill="#c5d9ed"/></svg>