<svg viewBox="0 0 440 440" xmlns="http://www.w3.org/2000/svg"><g fill="#e8663d"><path d="m133.8 250.1c12.6 0 24.1-4.2 33.4-11.4l-76.6-76.6c-7.2 9.2-11.4 20.8-11.4 33.4.1 30.1 24.5 54.6 54.6 54.6zm227.8-54.7c0-12.6-4.2-24.1-11.4-33.4l-76.6 76.6c9.2 7.2 20.8 11.4 33.4 11.4 30.1.1 54.6-24.4 54.6-54.6z"/><path d="m400.2 112.1-33.9 33.9c11.2 13.4 18 30.6 18 49.5 0 42.6-34.7 77.3-77.3 77.3-18.7 0-36-6.8-49.5-18l-37.1 37.1-37.1-37.1c-13.4 11.2-30.6 18-49.5 18-42.6 0-77.3-34.7-77.3-77.3 0-18.7 6.8-36 18-49.5l-17.4-17.4-16.5-16.5c-19.2 31.8-30.3 69-30.3 108.9 0 116 94 210.1 210.1 210.1s210.1-94.1 210.1-210.1c0-39.9-11.1-77.1-30.3-108.9z"/><path d="m372.4 76c-38.2-40.1-92.2-65.1-152-65.1s-113.8 25-152 65.1c-5.2 5.5-10.1 11.2-14.7 17.2l166.7 166.8 166.7-166.8c-4.5-6-9.5-11.7-14.7-17.2zm-152-37.6c49.2 0 94.8 18.9 129.2 53.5l-129.2 129.2-129.2-129.2c34.4-34.6 80-53.5 129.2-53.5z"/></g></svg>