<svg fill="none" height="18" viewBox="0 0 18 18" width="18" xmlns="http://www.w3.org/2000/svg"><path clip-rule="evenodd" d="m9 .5c-.26522 0-.51957.105357-.70711.292893-.18753.187537-.29289.441887-.29289.707107v7.5c0 .55229.44772 1 1 1h7.5c.5523 0 1-.44771 1-1 0-1.11624-.2199-2.22154-.647-3.25281-.4272-1.03127-1.0533-1.9683-1.8426-2.7576s-1.7263-1.4154-2.7576-1.84257c-1.0313-.427161-2.1366-.64702-3.2528-.64702zm1 7.5v-5.42262c.5095.07933 1.0089.21918 1.4874.4174.7887.32666 1.5052.80545 2.1088 1.40903s1.0824 1.32013 1.409 2.10875c.1982.47856.3381.97797.4174 1.48744zm-3.60004-4.96096c.50618-.22089.73746-.81031.51657-1.31649-.22089-.50619-.8103-.737468-1.31649-.51658-1.27255.55532-2.3897 1.41392-3.25376 2.50073-.86407 1.08681-1.448754 2.36874-1.702934 3.73371-.254181 1.36498-.170121 2.77139.244831 4.09639.414953 1.325 1.148163 2.5282 2.135523 3.5043.98737.9762 2.19883 1.6956 3.52846 2.0954 1.32964.3998 2.73697.4678 4.09894.198 1.362-.2697 2.6372-.869 3.714-1.7454 1.0769-.8764 1.9227-2.0033 2.4634-3.2821.2151-.5087-.0229-1.0954-.5315-1.3105-.5087-.2151-1.0954.0229-1.3105.5315-.4136.978-1.0603 1.8397-1.8838 2.5099s-1.7986 1.1285-2.8402 1.3347c-1.04148.2063-2.11767.1543-3.13445-.1514s-1.94319-.8559-2.69823-1.6023c-.75504-.7465-1.31573-1.6666-1.63305-2.6798-.31732-1.01322-.3816-2.08874-.18722-3.13255.19437-1.0438.64148-2.0241 1.30224-2.85519.66075-.83109 1.51504-1.48766 2.48817-1.91232z" fill="#c5d9ed" fill-rule="evenodd"/></svg>