<svg width="16" height="13" xmlns="http://www.w3.org/2000/svg"><path d="M8 .667c4.418 0 8 1.953 8 4.363v2.91c0 2.41-3.582 4.363-8 4.363-4.34 0-7.872-1.884-7.996-4.235L0 7.94V5.03C0 2.62 3.582.667 8 .667zm0 8.727c-2.705 0-5.098-.732-6.545-1.855v.4c0 1.37 2.824 2.91 6.545 2.91 3.644 0 6.428-1.477 6.542-2.824l.003-.086.001-.4C13.1 8.661 10.706 9.394 8 9.394zM8 2.12c-3.721 0-6.545 1.54-6.545 2.91 0 1.368 2.824 2.908 6.545 2.908s6.545-1.54 6.545-2.909c0-1.368-2.824-2.909-6.545-2.909z" fill="#ffffff"/></svg>