<svg fill="none" height="17" viewBox="0 0 16 17" width="16" xmlns="http://www.w3.org/2000/svg"><path d="m7.99967 15.1666c-3.682 0-6.66666-2.9847-6.66666-6.66668 0-3.682 2.98466-6.66667 6.66666-6.66667 3.68203 0 6.66663 2.98467 6.66663 6.66667 0 3.68198-2.9846 6.66668-6.66663 6.66668zm0-1.3333c1.41449 0 2.77103-.562 3.77123-1.5621 1.0002-1.0002 1.5621-2.35679 1.5621-3.77128s-.5619-2.77104-1.5621-3.77124c-1.0002-1.00019-2.35674-1.56209-3.77123-1.56209s-2.77104.5619-3.77123 1.56209c-1.0002 1.0002-1.5621 2.35675-1.5621 3.77124s.5619 2.77108 1.5621 3.77128c1.00019 1.0001 2.35674 1.5621 3.77123 1.5621zm-.66666-3.3334h1.33333v1.3334h-1.33333zm1.33333-1.09665v.43h-1.33333v-1c0-.17681.07023-.34638.19526-.4714.12502-.12503.29459-.19526.4714-.19526.18939-.00002.37488-.05381.53489-.15512.16-.10131.28796-.24597.36896-.41716s.11173-.36186.08861-.54983c-.02313-.18797-.09915-.3655-.21924-.51195-.12008-.14645-.27928-.25579-.45907-.3153-.17979-.0595-.37279-.06673-.55653-.02084s-.35067.14302-.48137.28007c-.1307.13706-.21979.30841-.25691.49413l-1.308-.262c.08108-.40528.26834-.78176.54261-1.09095s.62573-.54 1.01845-.66884c.39271-.12884.81259-.15109 1.21672-.06447s.77802.279 1.08343.55747c.30541.27848.53138.63306.65488 1.02749.1234.39444.1399.81459.0478 1.2175s-.28959.77413-.57221 1.0757c-.28263.30158-.64026.5227-1.03635.64076z" fill="#8d8da9" fill-opacity=".5"/></svg>