<svg width="16" height="17" viewBox="0 0 16 17" fill="none" xmlns="http://www.w3.org/2000/svg">
<path d="M7.99967 15.1666C4.31767 15.1666 1.33301 12.1819 1.33301 8.49992C1.33301 4.81792 4.31767 1.83325 7.99967 1.83325C11.6817 1.83325 14.6663 4.81792 14.6663 8.49992C14.6663 12.1819 11.6817 15.1666 7.99967 15.1666ZM7.99967 13.8333C9.41416 13.8333 10.7707 13.2713 11.7709 12.2712C12.7711 11.271 13.333 9.91441 13.333 8.49992C13.333 7.08543 12.7711 5.72888 11.7709 4.72868C10.7707 3.72849 9.41416 3.16659 7.99967 3.16659C6.58518 3.16659 5.22863 3.72849 4.22844 4.72868C3.22824 5.72888 2.66634 7.08543 2.66634 8.49992C2.66634 9.91441 3.22824 11.271 4.22844 12.2712C5.22863 13.2713 6.58518 13.8333 7.99967 13.8333ZM7.33301 10.4999H8.66634V11.8333H7.33301V10.4999ZM8.66634 9.40325V9.83325H7.33301V8.83325C7.33301 8.65644 7.40324 8.48687 7.52827 8.36185C7.65329 8.23682 7.82286 8.16659 7.99967 8.16659C8.18906 8.16657 8.37455 8.11278 8.53456 8.01147C8.69456 7.91016 8.82252 7.7655 8.90352 7.59431C8.98452 7.42312 9.01525 7.23245 8.99213 7.04448C8.969 6.85651 8.89298 6.67898 8.77289 6.53253C8.65281 6.38608 8.49361 6.27674 8.31382 6.21723C8.13403 6.15773 7.94103 6.1505 7.75729 6.19639C7.57355 6.24228 7.40662 6.33941 7.27592 6.47646C7.14522 6.61352 7.05613 6.78487 7.01901 6.97059L5.71101 6.70859C5.79209 6.30331 5.97935 5.92683 6.25362 5.61764C6.52789 5.30845 6.87935 5.07764 7.27207 4.9488C7.66478 4.81996 8.08466 4.79771 8.48879 4.88433C8.89292 4.97095 9.26681 5.16333 9.57222 5.4418C9.87763 5.72028 10.1036 6.07486 10.2271 6.46929C10.3505 6.86373 10.367 7.28388 10.2749 7.68679C10.1828 8.0897 9.98531 8.46092 9.70269 8.76249C9.42006 9.06407 9.06243 9.28519 8.66634 9.40325Z" fill="#8D8DA9" fill-opacity="0.5"/>
</svg>
