<svg height="16" viewBox="0 0 16 16" width="16" xmlns="http://www.w3.org/2000/svg"><path d="m351.99842 252.1898-4.260556-4.260556c.670611-1.012476 1.060603-2.224276 1.060603-3.52937 0-3.534971-2.864903-6.399874-6.399233-6.399874-3.534331 0-6.399234 2.865543-6.399234 6.400514 0 3.53369 2.864903 6.399873 6.399234 6.399873 1.304342 0 2.51739-.39124 3.52937-1.061227l4.259916 4.260556zm-14.18532-7.788646c0-2.53307 2.05372-4.58551 4.58615-4.58551 2.53307 0 4.586789 2.05244 4.586789 4.58551s-2.053719 4.586789-4.586789 4.586789c-2.53243 0-4.58615-2.053719-4.58615-4.586789z" fill="#476481" transform="translate(-336 -238)"/></svg>