<svg width="20" height="20" xmlns="http://www.w3.org/2000/svg"><path d="M1.029 11.888a9.116 9.116 0 010-3.776c1.017.119 1.906-.218 2.196-.918.29-.701-.1-1.567-.904-2.203a9.116 9.116 0 012.67-2.67c.635.804 1.502 1.195 2.203.904.701-.29 1.038-1.179.918-2.196a9.116 9.116 0 013.776 0c-.119 1.017.218 1.906.918 2.196.701.29 1.567-.1 2.203-.904a9.116 9.116 0 012.67 2.67c-.804.635-1.194 1.502-.904 2.203.29.701 1.179 1.038 2.196.918a9.116 9.116 0 010 3.776c-1.017-.119-1.906.218-2.196.918-.29.701.1 1.567.904 2.203a9.116 9.116 0 01-2.67 2.67c-.635-.804-1.502-1.194-2.203-.904-.701.29-1.038 1.179-.918 2.196a9.116 9.116 0 01-3.776 0c.119-1.017-.218-1.906-.918-2.196-.701-.29-1.567.1-2.203.904a9.116 9.116 0 01-2.67-2.67c.804-.635 1.195-1.502.904-2.203-.29-.701-1.179-1.038-2.196-.918zm1.638-1.695c1.008.28 1.84.918 2.252 1.912.412.994.275 2.035-.24 2.944.088.093.178.184.272.272.91-.515 1.95-.65 2.944-.24.994.413 1.633 1.244 1.912 2.252.129.004.257.004.386 0 .28-1.008.918-1.84 1.912-2.252.994-.412 2.035-.275 2.944.24.093-.088.184-.179.272-.272-.515-.91-.65-1.95-.24-2.944.413-.994 1.244-1.633 2.252-1.912a6.739 6.739 0 000-.386c-1.008-.28-1.84-.918-2.252-1.912-.412-.994-.275-2.035.24-2.944a7.274 7.274 0 00-.272-.272c-.91.515-1.95.65-2.944.24-.994-.413-1.633-1.244-1.912-2.252a7.274 7.274 0 00-.386 0c-.28 1.008-.918 1.84-1.912 2.252-.994.412-2.035.275-2.944-.24a6.354 6.354 0 00-.272.272c.515.91.65 1.95.24 2.944-.413.994-1.244 1.633-2.252 1.912a6.739 6.739 0 000 .386zM10 12.75a2.75 2.75 0 110-5.5 2.75 2.75 0 010 5.5zm0-1.833a.917.917 0 100-1.834.917.917 0 000 1.834z" fill="#9797B8" fill-rule="nonzero"/></svg>