<svg fill="none" height="51" viewBox="0 0 51 51" width="51" xmlns="http://www.w3.org/2000/svg"><circle cx="25.4355" cy="25.0933" fill="#2b4266" r="25"/><path d="m42.4112 12.3995c-.3126-2.1602-7.3355-.8927-9.2131-.5539-.1497.0271-.2665.0482-.3449.0612-.0543.009-.1051-.0359-.0941-.0882.1079-.5226.1859-1.93562-.8492-2.24154-.6619-.19574-1.0984.1654-1.3574.52974-.1158.1635-.463.8701-.6786 1.3607-.1163.2649-.3869.652-.6844.645-1.2475-.3755-2.5007-.5633-3.7538-.5633s-2.5064.1878-3.7541.5633c-.2973.007-.568-.3801-.6844-.645-.2156-.4906-.5625-1.1972-.6785-1.3607-.259-.3643-.6953-.72548-1.3572-.52974-1.0355.30592-.9574 1.71894-.8493 2.24154.0109.0523-.0399.0972-.0944.0882-.078-.013-.1948-.0341-.3441-.0611-1.8765-.3386-8.90099-1.6066-9.21382.5538-.32028 2.2123 2.57352 5.2633 5.60162 6.6344.1598.0724.3018.1721.4439.272.1178.0827.2356.1655.3639.2329.4767.2508.7609.8766.6911 1.4412v7.9042c2.3877-1.6238 5.8973-2.6343 9.8753-2.6343 3.9779 0 7.4876 1.0105 9.8753 2.6344v-7.9043c-.0699-.5646.2142-1.1904.6907-1.4412.1287-.0675.2468-.1504.3647-.2333.1419-.0997.2837-.1992.4432-.2716 3.0281-1.3711 5.9223-4.422 5.6016-6.6344zm-17.9478 8.2939c-.1244.6457-1.2322 1.0503-2.1391 1.2764-.724.176-1.4659.2645-2.2148.2645-.1893 0-.379-.0057-.5689-.0169-.2934-.0178-.5452-.0693-.7698-.1577-.4411-.1732-.8227-.4748-1.1029-.8718-.3925-.5385-.544-1.1422-.4337-1.7395.1074-.5953.4626-1.1111 1.0264-1.4899.3951-.2748.8589-.4317 1.3347-.4489.2452-.0084.4985.0268.7786.1068.9039.2582 1.7541.6459 2.5267 1.1523.7767.5147 1.6765 1.2632 1.5645 1.9145zm8.7352.5009c-.2751.3903-.6566.6919-1.0984.8657-.2246.0881-.4761.1396-.7695.1574-.1899.0112-.3801.0169-.5695.0169-.7485 0-1.4899-.0885-2.2113-.2639-.9095-.2264-2.017-.6313-2.1422-1.2767-.1129-.6621.7863-1.4103 1.5607-1.9234.7761-.5085 1.6263-.8963 2.5296-1.1539.279-.08.5302-.1158.7772-.1068.4767.0172.9405.1741 1.3427.454.5572.3739.9121.8901 1.0195 1.4874.11.5953-.0415 1.1987-.4388 1.7433z" fill="#cae9ff"/><path d="m22.3125 19.6309c-.6807-.446-1.4329-.789-2.2336-1.0177-.1564-.0448-.2919-.0667-.4128-.0667-.0112 0-.0224.0003-.0333.0005-.269.0096-.5351.1009-.7692.2636-.3406.229-.5311.4959-.5898.8212-.0602.3255.0241.6381.257.9579.1664.2357.3836.4084.6322.5061.1186.0467.263.0746.4415.0853.8348.0504 1.6632-.0237 2.4631-.2182.7259-.1808 1.0955-.363 1.2685-.472-.1243-.1591-.4074-.4514-1.0236-.86z" fill="#ffcf56"/><path d="m32.0148 18.8157c-.2412-.1679-.5073-.2591-.7772-.2687-.1283-.0022-.2741.0172-.4446.0659-.8004.2284-1.5527.5714-2.2368 1.0197-.6142.4072-.8966.6989-1.021.8583.1734.109.5435.2912 1.2714.4725.7967.194 1.6252.2675 2.46.2177.1787-.0107.3231-.0386.4414-.085.2487-.0978.4658-.2707.6274-.4999.2381-.3264.3223-.6386.2624-.9622-.0587-.3275-.2492-.5944-.583-.8183z" fill="#ffcf56"/><path d="m25.4357 27.5649c-6.4976 0-11.7647 2.9324-11.7647 6.5498 0 3.6173 5.2671 6.5496 11.7647 6.5496s11.7648-2.9323 11.7648-6.5496c0-3.6174-5.2674-6.5498-11.7648-6.5498zm-5.5684 7.2191c-1.0067.4749-1.9442 0-2.1239-1.077-.1971-1.1539 1.4113-3.8963 1.7813-1.8226.2117 1.1864.8412.7448 1.3433.3928.3753-.2633.6793-.4764.6836.0788-.0551 1.0478-.7023 1.9811-1.6843 2.428zm13.2605-1.077c-.1801 1.077-1.1175 1.5519-2.1241 1.077-.9819-.4469-1.6293-1.3802-1.684-2.428.0041-.5552.308-.3421.6833-.0788.5019.352 1.1315.7936 1.3434-.3928.3699-2.0737 1.9781.6687 1.7814 1.8226z" fill="#cae9ff"/></svg>