<svg fill="none" height="51" viewBox="0 0 51 51" width="51" xmlns="http://www.w3.org/2000/svg" xmlns:xlink="http://www.w3.org/1999/xlink"><linearGradient id="a" gradientUnits="userSpaceOnUse" x1="8.55273" x2="40.767" y1="41.6299" y2="7.67678"><stop offset="0" stop-color="#ffe7e0"/><stop offset=".34375" stop-color="#f8dbf4"/><stop offset=".6875" stop-color="#c4ddff"/><stop offset="1" stop-color="#cae9ff"/></linearGradient><radialGradient id="b" cx="25.5521" cy="21.3372" gradientUnits="userSpaceOnUse" r="12.301"><stop offset="0" stop-color="#464648"/><stop offset=".536272" stop-color="#2e2d2d"/><stop offset=".990474" stop-color="#1b1919"/><stop offset="1" stop-color="#1b1919"/></radialGradient><linearGradient id="c"><stop offset="0" stop-color="#efee0e"/><stop offset=".517399" stop-color="#7fcc2a"/><stop offset="1" stop-color="#3aae9b"/></linearGradient><linearGradient id="d" gradientUnits="userSpaceOnUse" x1="19.2918" x2="19.5549" xlink:href="#c" y1="25.0223" y2="18.2696"/><linearGradient id="e" gradientUnits="userSpaceOnUse" x1="31.5808" x2="31.6246" xlink:href="#c" y1="24.9371" y2="18.4036"/><linearGradient id="f"><stop offset="0" stop-color="#f5f460"/><stop offset=".517399" stop-color="#bfe587"/><stop offset="1" stop-color="#82d4c5"/></linearGradient><linearGradient id="g" gradientUnits="userSpaceOnUse" x1="19.2936" x2="19.5566" xlink:href="#f" y1="25.0224" y2="18.2697"/><linearGradient id="h" gradientUnits="userSpaceOnUse" x1="19.2938" x2="19.5569" xlink:href="#f" y1="25.0225" y2="18.2698"/><linearGradient id="i" gradientUnits="userSpaceOnUse" x1="31.5815" x2="31.6254" xlink:href="#f" y1="24.9372" y2="18.4037"/><linearGradient id="j" gradientUnits="userSpaceOnUse" x1="31.5828" x2="31.6267" xlink:href="#f" y1="24.937" y2="18.4035"/><circle cx="25.5527" cy="25.5005" fill="#2a4266" r="25"/><path d="m25.553 28.0609c-6.4977 0-11.7648 3.0374-11.7648 6.7845s5.2671 6.7845 11.7648 6.7845 11.7648-3.0375 11.7648-6.7845-5.2674-6.7845-11.7648-6.7845zm-5.6487 7.6561c-1.1926.5829-2.3032 0-2.5162-1.3217-.2334-1.4159 1.6719-4.7811 2.1104-2.2364.4382 2.5445 2.3891-1.0137 2.4011.5787-.0652 1.2857-.8321 2.4311-1.9953 2.9794zm14.527-1.3217c-.213 1.3217-1.3236 1.9046-2.5159 1.3217-1.1635-.5483-1.9304-1.6937-1.9953-2.9794.012-1.5924 1.9626 1.9658 2.4011-.5787.4382-2.5447 2.3432.8205 2.1101 2.2364z" fill="url(#a)"/><path d="m42.5284 12.3518c-.3375-2.41599-8.4975-.6929-9.5579-.5104-.0545.0093-.1053-.0372-.0942-.0913.108-.5413.186-2.00506-.8492-2.32196-.662-.20272-1.0983.17134-1.3575.54879-.1159.16937-.463.90127-.6786 1.40937-.1162.2744-.3867.6754-.6843.6682-1.2477-.389-2.5008-.5835-3.7537-.5835-1.2532 0-2.5064.1945-3.7541.5835-.2975.0072-.5683-.3938-.6845-.6682-.2156-.5081-.5627-1.24-.6786-1.40937-.2589-.37745-.6952-.75151-1.3572-.54879-1.0353.3169-.9574 1.78066-.8493 2.32196.0109.0541-.0399.1006-.0941.0913-1.0605-.1825-9.22039-1.90559-9.55812.5104-.32036 2.2916 2.57352 5.4519 5.60152 6.8722.2923.1371.5247.3688.808.523.4765.2598.7608.9081.691 1.4928v8.439l1.1056-.6351c1.6851-.9667 3.444-1.4191 4.7981-1.6875h.048c1.082-.2404 2.1865-.364 3.2949-.3692h1.2573c1.1082.0052 2.2127.1288 3.2949.3692h.0477c1.3543.2684 3.1131.7208 4.7987 1.6875l1.1055.6351v-8.439c-.07-.5847.214-1.233.6905-1.4928.2838-.1542.5157-.3859.8081-.523 3.0279-1.4203 5.9221-4.5806 5.6015-6.8722zm-17.763 8.6517c-.0467.2504-.6438.7114-2.1242 1.0934-1.0366.2612-2.1151.3585-3.182.2926-.2509-.0158-.5023-.0576-.7349-.1526-.4247-.173-.7834-.4704-1.0503-.8624-.3603-.5119-.5321-1.0818-.4221-1.698.1071-.6168.463-1.0938.9767-1.4511.3846-.2772.8233-.4338 1.2814-.4509.2508-.0091.5017.0372.7424.1086 1.0251.3032 2.0057.7645 2.8905 1.365 1.2607.8658 1.6643 1.5037 1.6225 1.7554zm8.6663.371c-.2667.392-.6257.6894-1.0503.8623-.2324.0951-.484.1369-.7346.1527-1.0669.0659-2.1458-.0314-3.1823-.2926-1.4807-.382-2.0773-.843-2.124-1.0934-.0418-.2517.3616-.8896 1.6225-1.7555.8848-.6004 1.8651-1.0617 2.8905-1.3649.2408-.0714.4913-.1177.7424-.1086.4579.017.897.1737 1.2815.4509.5136.3573.8695.834.9764 1.4509.1099.6161-.0618 1.1863-.4221 1.6982z" fill="url(#a)"/><path d="m31.2705 25.5005c-.4451 0-.7314-.0277-.7314-.0277s-.0802.0124-.219.0124c-.1803 0-.4595-.021-.7902-.1175-.8657-.2528-2.0845-1.0231-2.807-3.2895 0 0-.4226-1.8788-1.1762-1.9103-.7536.0315-1.1794 1.9103-1.1794 1.9103-.7224 2.2664-1.941 3.0368-2.8064 3.2895-.3307.0966-.6097.1175-.79.1175-.1387 0-.2189-.0124-.2189-.0124s-.0971.0039-.267.0039c-.3569 0-1.0354-.0173-1.8112-.1249-.578-.0801-1.2102-.2105-1.8036-.421-1.7686-.6276-2.2868-2.6814-2.4295-3.8223-.0924-.7399-.4594-1.196-.706-1.4252-.1493-.1388-.232-.3349-.232-.5387v-1.9441c.524-.0183 1.0424-.0267 1.5538-.0267 4.2572 0 7.9913.5826 9.726.9038.3196.0592.643.0887.9665.0887.323 0 .6462-.0295.9653-.0885 1.7364-.3212 5.4742-.904 9.7333-.904.5113 0 1.0301.0084 1.5539.0267v1.9431c0 .2044-.0834.4009-.2337.5393-.2488.2291-.6193.6852-.7118 1.4256-.1427 1.1409-.7207 3.0548-2.4331 3.8223-.4584.2054-.9545.3392-1.4343.425-.6477.116-1.2652.1447-1.7181.1447zm2.1641-7.2477c-1.4928 0-4.0926.283-4.0926.283-2.7601.11-2.1831 2.349-2.1831 2.349l.8843 2.5699c.4398 1.2408 1.8258 1.5086 2.9403 1.5086.8465 0 1.5365-.1545 1.5365-.1545 3.5861-.3174 3.5926-4.3662 3.5926-4.3662.0828-1.741-.9396-1.9068-1.8239-2.1279-.1769-.0442-.4809-.0619-.8541-.0619zm-15.7799 0c-.3732 0-.6772.0177-.8541.0619-.8843.2211-1.9067.3869-1.8239 2.1279 0 0 .0065 4.0488 3.5925 4.3662 0 0 .69.1545 1.5365.1545 1.1146 0 2.5006-.2678 2.9404-1.5086l.8843-2.5699s.5769-2.239-2.1831-2.349c0 0-2.5999-.283-4.0926-.283z" fill="url(#b)"/><path d="m20.1044 24.9634c-.8464 0-1.5364-.1545-1.5364-.1545-3.5861-.3175-3.5926-4.3662-3.5926-4.3662-.0829-1.741.9396-1.9069 1.8239-2.1279.1769-.0442.4809-.0619.8541-.0619 1.4928 0 4.0926.2829 4.0926.2829 2.7601.1101 2.1831 2.3491 2.1831 2.3491l-.8843 2.5699c-.4398 1.2408-1.8258 1.5086-2.9404 1.5086zm2.4648-2.4928c-.0673 0-.1351.0117-.1981.0338-.1757.0617-.3191.1914-.4423.3309-.2895.3277-.4976.7271-.8244 1.0177-.2677.238-.6089.3922-.9644.4359-.0751.0093-.1557.0157-.2146.0632-.1023.0826-.1019.2912.0234.3307.1652.0318.3332.0472.5009.0472.9297 0 1.8587-.4729 2.3783-1.2482.0902-.1347.1702-.281.1954-.4411s-.0123-.337-.129-.4496c-.0859-.0829-.2047-.1205-.3252-.1205zm-5.805-3.9023s-1.6732.1061-1.5828 1.8089c.0258.485.1348.6632.2988.6633.4116.0001 1.1703-1.1225 1.8314-1.3308.9243-.2913.3093-1.0889-.5474-1.1414z" fill="url(#d)"/><path d="m30.9822 24.9635c-1.1146 0-2.5005-.2678-2.9403-1.5087l-.8843-2.5699s-.577-2.239 2.1831-2.349c0 0 2.5999-.283 4.0926-.283.3732 0 .6772.0177.8541.0619.8842.2211 1.9067.3869 1.8238 2.1279 0 0-.0065 4.0488-3.5925 4.3663 0 0-.69.1545-1.5365.1545zm4.221-3.8017c-.1398 0-.2809.0676-.3817.1681-.1318.1315-.2051.3104-.256.4895-.1196.4206-.1348.8707-.304 1.2738-.1386.3303-.3797.6167-.6815.8097-.0638.0408-.1338.0814-.1664.1498-.0539.1131.0258.2893.1462.2893.0058 0 .0117-.0004.0177-.0012 1.0656-.2796 1.9202-1.2364 2.0782-2.3266.0232-.1605.0322-.3269-.0142-.4822-.0465-.1553-.1567-.2988-.3106-.3499-.0416-.0138-.0846-.0203-.1277-.0203zm-6.4775-2.3948c-.0325 0-.0651.001-.0982.0033 0 0-1.6457.3196-1.3378 1.9968.0828.4509.2041.6212.3542.6213.4082.0002 1.0297-1.2585 1.6727-1.5563.8455-.3916.2197-1.0651-.5909-1.0651z" fill="url(#e)"/><path d="m15.482 21.0404c-.164 0-.273-.1782-.2988-.6633-.0904-1.7027 1.5828-1.8087 1.5828-1.8087.8567.0525 1.4717.85.5474 1.1413-.6611.2082-1.4198 1.3309-1.8314 1.3307z" fill="url(#g)"/><path d="m20.4517 24.7302c-.1677 0-.3356-.0154-.5009-.0472-.1254-.0395-.1256-.2481-.0235-.3307.0589-.0475.1397-.0539.2148-.0632.3555-.0437.6967-.1979.9644-.4359.3268-.2907.5348-.69.8243-1.0178.1233-.1395.2667-.2692.4424-.3309.0629-.0221.1307-.0338.198-.0338.1205 0 .2393.0376.3253.1205.1166.1126.1541.2895.129.4497-.0252.1601-.1052.3064-.1955.4411-.5196.7753-1.4486 1.2482-2.3783 1.2482z" fill="url(#h)"/><path d="m27.6445 21.3884c-.1501-.0001-.2714-.1704-.3542-.6212-.3079-1.6772 1.3378-1.9968 1.3378-1.9968.0331-.0023.0658-.0033.0983-.0033.8107 0 1.4364.6735.5909 1.0651-.643.2978-1.2646 1.5564-1.6728 1.5562z" fill="url(#i)"/><path d="m33.5618 24.3419c-.1204 0-.2001-.1762-.1462-.2893.0326-.0684.1027-.109.1664-.1498.3018-.1929.543-.4794.6816-.8097.1692-.4032.1844-.8533.304-1.2739.0509-.1791.1242-.358.256-.4895.1008-.1005.2419-.1681.3818-.1681.0431 0 .0861.0065.1277.0203.1538.0511.264.1946.3105.3499s.0375.3218.0142.4822c-.1579 1.0903-1.0125 2.0471-2.0782 2.3267-.006.0008-.012.0012-.0178.0012z" fill="url(#j)"/></svg>