<svg height="16" viewBox="0 0 16 16" width="16" xmlns="http://www.w3.org/2000/svg"><path d="m7.76536754 19.3891364-1.13623066.5093646c-.49435698.2212431-1.076232.0656242-1.39308893-.3737356l-.72998372-1.0087295c-.09499789-.1318723-.2424906-.2168752-.40435899-.2337388l-1.23872437-.127498c-.53873998-.0549987-.96434649-.4812372-1.01997725-1.0193532l-.12749796-1.2387244c-.01624924-.1618684-.10124734-.3093691-.2331148-.404983l-1.00935349-.7293597c-.43874221-.3174969-.59435474-.898732-.37311168-1.3930889l.50874066-1.1362307c.06687371-.1487471.06687371-.3187449 0-.4674936l-.50874066-1.1362306c-.22124306-.494357-.06562413-1.07623202.37311168-1.39308896l1.00935349-.72998372c.13187226-.09499788.21687516-.24249059.2331148-.40435898l.12749796-1.23872437c.05562436-.53873999.48123727-.96434649 1.01997725-1.01997725l1.23872437-.12749796c.16186839-.01624924.3093691-.10124734.40435899-.2331148l.72998372-1.00935349c.31687293-.43874222.89873195-.59435474 1.39308893-.37311168l1.13623066.50874065c.14874708.06687371.31874489.06687371.46749357 0l1.13623066-.50874065c.49435697-.22124306 1.07560803-.06562414 1.39308893.37311168l.7293597 1.00935349c.0956235.13187226.2431146.21687516.404983.2331148l1.2387244.12749796c.538116.05562436.9643465.48123726 1.0193532 1.01997725l.127498 1.23872437c.0168748.16186839.1018729.3093691.2337388.40435898l1.0087295.72998372c.4393662.31687294.5949947.89873196.3737357 1.39308896l-.5093647 1.1362306c-.0662481.1487471-.0662481.3187449 0 .4674936l.5093647 1.1362307c.221243.4943569.0656241 1.075608-.3737357 1.3930889l-1.0087295.7293597c-.1318723.0956235-.2168752.2431146-.2337388.404983l-.127498 1.2387244c-.0549987.538116-.4812372.9643465-1.0193532 1.0193532l-1.2387244.127498c-.1618684.0168748-.3093691.1018729-.404983.2337388l-.7293597 1.0087295c-.3174969.4393662-.89873196.5949947-1.39308893.3737356l-1.13623066-.5093646c-.14874708-.0662481-.31874489-.0662481-.46749357 0zm-2.85369636-8.4710111-.96997837.9699784 3.2556074 3.2556074 4.99732859-4.9973286-.9699784-.96997832-4.02743019 4.02743022z" fill="#29a745" transform="translate(0 -4)"/></svg>