<svg height="80" viewBox="0 0 86 80" width="86" xmlns="http://www.w3.org/2000/svg"><g fill="none"><path d="m25.305 51.2304c4.082 0 7.4062 3.3203 7.4062 7.4062v3.5664h1.007894c.82812 0 1.5.67188 1.5 1.5l.003906 14.223c0 .82812-.67188 1.5-1.5 1.5h-16.832c-.82812 0-1.5-.67188-1.5-1.5v-14.223c0-.82812.67188-1.5 1.5-1.5h1.0078v-3.5664c0-4.082 3.3203-7.4062 7.4062-7.4062zm6.914 13.9723h-13.832v11.219h13.832zm-6.9178-10.9762c-2.4296 0-4.4062 1.9765-4.4062 4.4062l-.004 3.5664h8.8164v-3.5664c0-2.4296-1.9765-4.4062-4.4062-4.4062z" fill="#218dff"/><path d="m81.563 29.2227h-3.125v-11.398c0-4.1367-3.3633-7.5-7.5-7.5h-63.629c-1.8594 0-3.3711-1.5117-3.3711-3.3711s1.5117-3.3711 3.3711-3.3711l62.133-.003906c.82812 0 1.5-.67188 1.5-1.5s-.67188-1.5-1.5-1.5h-62.133c-3.5156 0-6.3711 2.8594-6.3711 6.3711v55.047c0 4.1367 3.3633 7.5 7.5 7.5h2.1875c.82812 0 1.5-.67188 1.5-1.5s-.67188-1.5-1.5-1.5h-2.1875c-2.4805 0-4.5-2.0195-4.5-4.5v-49.648c.98047.61328 2.1328.97656 3.3711.97656h63.629c2.4805 0 4.5 2.0195 4.5 4.5v11.398h-13.125c-1.9297 0-3.5 1.5703-3.5 3.5v14.375c0 1.9297 1.5703 3.5 3.5 3.5h13.125v11.398c0 2.4805-2.0195 4.5-4.5 4.5h-30.312c-.82812 0-1.5.67188-1.5 1.5s.67188 1.50044 1.5 1.50044h30.312c4.1367 0 7.5-3.36374 7.5-7.50044v-11.398h3.125c1.9297 0 3.5-1.5703 3.5-3.5v-14.375c0-1.9297-1.5703-3.5-3.5-3.5zm.5 17.875c0 .27734-.22656.5-.5.5h-19.25c-.27344 0-.5-.22266-.5-.5v-14.375c0-.27734.22656-.5.5-.5h19.25c.27344 0 .5.22266.5.5zm-15.312-12.219c-.82812 0-1.5.67188-1.5 1.5v7.0625c0 .82812.67188 1.5 1.5 1.5s1.5-.67188 1.5-1.5v-7.0625c0-.82812-.67188-1.5-1.5-1.5zm2.6914-29.43h-61.004c-.82812 0-1.5.67188-1.5 1.5s.67188 1.5 1.5 1.5h61.004c.82812 0 1.5-.67188 1.5-1.5s-.67188-1.5-1.5-1.5z" fill="#2f3e4e"/></g></svg>