<svg fill="none" viewBox="0 0 15 15" xmlns="http://www.w3.org/2000/svg"><path clip-rule="evenodd" d="m2.85514.0000008c.00936 0 .01876.00000102.02819.00000102l5.09486-.00000102c.34926-.000015.65544-.00002799.90861.020657.26872.021955.5431.070901.809.2064142.392.199732.7107.518442.9105.910448.1355.26596.1844.54029.2064.80901.0207.25317.0206.55936.0206.90864v1.14483h1.1449c.3492-.00002.6554-.00003.9086.02065.2687.02196.5431.0709.809.20642.392.19973.7107.51844.9105.91045.1355.26596.1844.54029.2064.80901.0207.25317.0206.55936.0206.90863v5.12304c0 .3492.0001.6554-.0206.9086-.022.2687-.0709.5431-.2064.809-.1998.392-.5185.7107-.9105.9105-.2659.1355-.5403.1844-.809.2064-.2532.0207-.5594.0206-.9086.0206h-5.12304c-.34927 0-.65546.0001-.90863-.0206-.26872-.022-.54305-.0709-.80901-.2064-.39201-.1998-.71072-.5185-.91045-.9105-.13552-.2659-.18446-.5403-.20642-.809-.02068-.2532-.02067-.5594-.02065-.9086v-1.1449h-1.14484c-.34927 0-.65546.0001-.90863-.0206-.26872-.022-.54305-.0709-.80901-.2064-.392006-.1998-.710716-.5185-.910448-.9105-.1355132-.2659-.1844592-.54028-.2064142-.809-.02068499-.25317-.020672-.55935-.020657-.90861l.00000102-5.09486c0-.00943-.00000102-.01883-.00000102-.02819-.000015-.34926-.00002799-.65544.020657-.90861.021955-.26872.070901-.54305.2064142-.80901.199732-.392006.518442-.710716.910448-.910448.26596-.1355132.54029-.1844592.80901-.2064142.25317-.02068499.55935-.020672.90861-.020657zm2.64486 10.8332992v1.1167c0 .3857.00058.6299.01567.8147.01438.1759.0381.2309.04791.2501.05592.1098.14516.199.25492.255.01926.0098.07422.0335.25017.0479.18471.015.42892.0156.81466.0156h5.06667c.3857 0 .6299-.0006.8147-.0156.1759-.0144.2309-.0381.2501-.0479.1098-.056.199-.1452.255-.255.0098-.0192.0335-.0742.0479-.2501.015-.1848.0156-.429.0156-.8147v-5.06667c0-.38574-.0006-.62995-.0156-.81466-.0144-.17595-.0381-.23091-.0479-.25017-.056-.10976-.1452-.199-.255-.25492-.0192-.00981-.0742-.03353-.2501-.04791-.1848-.01509-.429-.01567-.8147-.01567h-1.1167v2.47816c0 .34928.0001.65546-.0206.90864-.022.26872-.0709.5431-.2064.809-.1998.392-.5185.7107-.9105.9105-.2659.1355-.54028.1844-.809.2064-.25318.0207-.55936.0206-.90864.0206zm3.83333-2.8833c0 .38574-.00058.62994-.01567.81466-.01438.17595-.0381.23091-.04791.25017-.05592.10976-.14516.199-.25492.25492-.01926.00981-.07422.03353-.25017.04791-.18472.01509-.42892.01567-.81466.01567h-5.06667c-.38574 0-.62995-.00058-.81466-.01567-.17595-.01438-.23091-.0381-.25017-.04791-.10976-.05592-.199-.14516-.25492-.25492-.00981-.01926-.03353-.07422-.04791-.25017-.01509-.18472-.01567-.42892-.01567-.81466v-5.06667c0-.38574.00058-.62994.01567-.81466.01438-.17595.0381-.23091.04791-.25017.05592-.10976.14516-.199.25492-.25492.01926-.00981.07422-.03353.25017-.04791.18472-.01509.42892-.01567.81466-.01567h5.06667c.38574 0 .62994.00058.81466.01567.17595.01438.23091.0381.25017.04791.10976.05592.199.14516.25492.25492.00981.01926.03353.07422.04791.25017.01509.18472.01567.42892.01567.81466z" fill="#052B65" fill-rule="evenodd"/></svg>