<svg fill="none" height="61" viewBox="0 0 64 61" width="64" xmlns="http://www.w3.org/2000/svg"><g fill="#052b65"><path d="m31.8643 35.0308c-12.179 0-22.05143 5.6932-22.05143 12.7167 0 7.0232 9.87243 12.7163 22.05143 12.7163 12.1789 0 22.0512-5.6932 22.0512-12.7163 0-7.0233-9.8728-12.7167-22.0512-12.7167zm-10.5877 14.3503c-2.2352 1.0925-4.3169 0-4.7161-2.4773-.4376-2.654 3.1337-8.9615 3.9556-4.1918.8214 4.7692 4.478-1.9001 4.5004 1.0847-.1222 2.4099-1.5596 4.5565-3.7399 5.5844zm27.2285-2.4773c-.3991 2.4773-2.4807 3.5698-4.7154 2.4773-2.1809-1.0279-3.6182-3.1745-3.7399-5.5844.0223-2.9848 3.6785 3.6845 4.5004-1.0847.8214-4.7697 4.3921 1.5378 3.9549 4.1918z"/><path d="m63.682 5.58685c-.6326-4.52838-15.9272-1.29884-17.9147-.95665-.1021.01738-.1975-.06972-.1765-.171.2022-1.01485.3486-3.758217-1.5919-4.352276-1.2407-.379979-2.0586.321215-2.5442 1.028646-.2173.31743-.8679 1.68921-1.272 2.64171-.2177.51413-.7248 1.26577-1.2826 1.25217-2.3387-.72897-4.6875-1.09364-7.0358-1.09364-2.3488 0-4.6976.36467-7.0363 1.09364-.5578.0136-1.0653-.73804-1.2831-1.25217-.404-.9525-1.0546-2.32428-1.272-2.64171-.4853-.707431-1.303-1.408625-2.5437-1.028646-1.9405.594059-1.7946 3.337426-1.5919 4.352276.0204.10128-.0748.18838-.1765.171-1.9875-.34219-17.282133-3.57173-17.9151725.95665-.6004645 4.29521 4.8236125 10.21875 10.4990725 12.88095.548.2569.9837.6911 1.5145.9802.8931.487 1.4262 1.7021 1.2952 2.798v15.8176l2.0722-1.1904c3.1585-1.812 6.4555-2.6599 8.9935-3.163h.0899c2.028-.4505 4.0982-.6821 6.1757-.692h2.3567c2.077.0099 4.1473.2415 6.1757.692h.0895c2.5384.5031 5.835 1.351 8.9943 3.163l2.0722 1.1904v-15.8176c-.1314-1.0959.4011-2.311 1.2943-2.798.5319-.2891.9664-.7233 1.5144-.9802 5.6755-2.6623 11.1001-8.58574 10.4992-12.88095zm-33.2937 16.21625c-.0877.4694-1.2069 1.3334-3.9816 2.0495-1.943.4896-3.9645.672-5.9644.5484-.4701-.0297-.9412-.1081-1.3774-.2861-.7959-.3242-1.4682-.8818-1.9685-1.6165-.6755-.9594-.9973-2.0276-.7912-3.1824.2009-1.1562.8679-2.0503 1.8306-2.72.721-.5196 1.5431-.8132 2.4019-.8451.4701-.0171.9402.0697 1.3915.2036 1.9214.5682 3.7593 1.4328 5.4177 2.5582 2.363 1.6231 3.1196 2.8188 3.0414 3.2904zm16.2434.6953c-.4997.7347-1.1726 1.2923-1.9686 1.6165-.4356.178-.9072.2564-1.3769.2861-1.9999.1236-4.0218-.059-5.9648-.5484-2.7753-.7161-3.8935-1.5801-3.981-2.0495-.0784-.4718.6778-1.6673 3.0412-3.2904 1.6584-1.1255 3.4957-1.99 5.4177-2.5582.4512-.1339.921-.2207 1.3916-.2036.8581.0319 1.6813.3255 2.4018.8451.9627.6697 1.6299 1.5632 1.8302 2.7194.2061 1.1549-.1159 2.2236-.7912 3.183z"/></g></svg>