<svg viewBox="0 0 16.99 43.75" xmlns="http://www.w3.org/2000/svg"><path d="m12.09 20.59c-.33-3.65-1.18-7.25-2.3-10.74-1.04-3.25-2.5-7.11-4.97-9.52-.91-.89-2.47.16-2.29 1.31.48 3.09 2.03 6.16 2.9 9.19.9 3.15 1.43 6.38 1.79 9.63.52 4.74.67 9.95-.38 14.76-.94-2.58-2.2-5.01-4.15-6.68-1.27-1.08-3.21.45-2.56 1.94.86 1.97 2.32 3.66 3.33 5.57.81 1.55 1.31 3.21 1.78 4.89.02.11.07.2.11.31.11.41.36.78.44 1.2.2 1.07 1.47 1.73 2.39 1 3.43-2.75 8.18-7.06 8.8-11.66.07-.56-.56-.9-1.01-.59-1.73 1.2-2.99 3.09-4.38 4.65-.23.26-.5.48-.74.74 1.76-5.04 1.69-11.06 1.24-15.99z" fill="#112a61"/></svg>