<svg fill="none" viewBox="0 0 432 64" xmlns="http://www.w3.org/2000/svg"><g fill="#f6f2e7"><path d="m432 56h-8.092v-35.496l-15.028 35.496h-7.072l-14.892-35.36v35.36h-7.956v-48.212h10.88l15.64 36.788 15.436-36.788h11.084z"/><path d="m367.387 56h-8.092v-35.496l-15.028 35.496h-7.072l-14.892-35.36v35.36h-7.956v-48.212h10.88l15.64 36.788 15.436-36.788h11.084z"/><path d="m298.983 56-4.556-12.104h-20.4l-4.488 12.104h-8.636l18.768-48.212h9.452l18.768 48.212zm-14.756-39.372-7.344 19.72h14.688z"/><path d="m224.615 43.284 9.452-35.496h8.432l-13.532 48.212h-8.432l-11.696-36.448-11.696 36.448h-8.364l-13.668-48.212h8.568l9.656 35.224 11.288-35.224h8.5z"/><path d="m157.22 49.948c4.896 0 9.248-3.604 9.248-10.54 0-6.868-4.352-10.404-9.248-10.404-4.828 0-9.248 3.536-9.248 10.404s4.42 10.54 9.248 10.54zm0-28.084c9.928 0 17.204 7.412 17.204 17.544 0 10.2-7.276 17.612-17.204 17.612-9.86 0-17.136-7.412-17.136-17.612 0-10.132 7.276-17.544 17.136-17.544z"/><path d="m112.393 57.02c-12.988 0-24.344-9.384-24.344-25.092s11.764-25.16 24.276-25.16c12.24 0 19.516 7.208 21.692 15.64l-7.684 2.584c-1.428-5.848-5.916-10.54-14.008-10.54-7.956 0-15.912 5.78-15.912 17.476 0 11.288 7.752 17.272 15.98 17.272 8.092 0 12.716-5.168 14.348-10.608l7.48 2.448c-2.176 8.16-9.52 15.98-21.828 15.98z"/><path d="m64 0h-11.716a16 16 0 0 0 -11.313 4.686l-12.284 12.285a24 24 0 0 1 -16.972 7.029h-11.715v16h11.716a16 16 0 0 0 11.313-4.686l12.284-12.285a24 24 0 0 1 16.971-7.029h11.716z"/><path d="m64 24h-11.716a16 16 0 0 0 -11.313 4.686l-12.284 12.285a24 24 0 0 1 -16.972 7.029h-11.715v16h11.716a16 16 0 0 0 11.313-4.686l12.284-12.285a24 24 0 0 1 16.971-7.029h11.716z"/><path d="m64 48h-11.716a16 16 0 0 0 -11.313 4.686l-11.314 11.314h34.343z"/><path d="m0 16h11.716a16 16 0 0 0 11.313-4.686l11.314-11.314h-34.343z"/></g></svg>