<svg fill="none" viewBox="0 0 350 262" xmlns="http://www.w3.org/2000/svg" xmlns:xlink="http://www.w3.org/1999/xlink"><clipPath id="a"><path d="m0 0h350v262h-350z"/></clipPath><g clip-path="url(#a)"><path d="m0 0h350v262h-350z" fill="#bbb6af"/><g stroke="#cfcac2" stroke-width="18"><path d="m175 37.004h20.022a38.573 38.573 0 0 0 27.276-11.298l24.408-24.408a38.575 38.575 0 0 1 27.276-11.298h20.022"/><path d="m175 84.004h20.022a38.573 38.573 0 0 0 27.276-11.298l24.408-24.408a38.575 38.575 0 0 1 27.276-11.298h20.022"/><path d="m175 131.004h20.022a38.573 38.573 0 0 0 27.276-11.298l24.408-24.408a38.575 38.575 0 0 1 27.276-11.298h20.022"/><path d="m175 178.004h20.022a38.573 38.573 0 0 0 27.276-11.298l24.408-24.408a38.575 38.575 0 0 1 27.276-11.298h20.022"/><path d="m175 225.004h20.022a38.573 38.573 0 0 0 27.276-11.298l24.408-24.408a38.575 38.575 0 0 1 27.276-11.298h20.022"/><path d="m175 272.004h20.022a38.573 38.573 0 0 0 27.276-11.298l24.408-24.408a38.575 38.575 0 0 1 27.276-11.298h20.022"/><path d="m56 37.004h20.022a38.574 38.574 0 0 0 27.276-11.298l24.408-24.408a38.575 38.575 0 0 1 27.276-11.298h20.022"/><path d="m56 84.004h20.022a38.574 38.574 0 0 0 27.276-11.298l24.408-24.408a38.575 38.575 0 0 1 27.276-11.298h20.022"/><path d="m56 131.004h20.022a38.574 38.574 0 0 0 27.276-11.298l24.408-24.408a38.575 38.575 0 0 1 27.276-11.298h20.022"/><path d="m56 178.004h20.022a38.574 38.574 0 0 0 27.276-11.298l24.408-24.408a38.575 38.575 0 0 1 27.276-11.298h20.022"/><path d="m56 225.004h20.022a38.574 38.574 0 0 0 27.276-11.298l24.408-24.408a38.575 38.575 0 0 1 27.276-11.298h20.022"/><path d="m56 272.004h20.022a38.574 38.574 0 0 0 27.276-11.298l24.408-24.408a38.575 38.575 0 0 1 27.276-11.298h20.022"/><path d="m56 37h-56"/><path d="m350 37h-56"/><path d="m56 84h-56"/><path d="m350 84h-56"/><path d="m56 131h-56"/><path d="m350 131h-56"/><path d="m56 178h-56"/><path d="m350 178h-56"/><path d="m56 225h-56"/><path d="m350 225h-56"/></g><circle cx="175" cy="130.946" fill="#f6f2e7" r="88.946"/><path d="m54.959 177.785 120.041-46.897" stroke="#8738ec" stroke-width="2"/><path d="m175 130.888 100 34.112" stroke="#8738ec" stroke-width="2"/><circle cx="175" cy="130.946" fill="#fe970c" r="54.959"/><circle cx="275.262" cy="164.667" fill="#8738ec" r="34.349"/><path d="m265.878 169.387a4.747 4.747 0 0 1 -1.65 1.771c-.711.456-1.543.738-2.469.832v3.019h-1.194v-2.992a32.655 32.655 0 0 1 -1.704-.121c-.859-.067-1.49-.107-1.892-.107h-.497l-.899-4.093h.631l1.047 1.248c.509.617 1.019 1.087 1.516 1.395.496.322 1.1.524 1.798.591v-5.77a22.17 22.17 0 0 1 -1.61-.563 6.137 6.137 0 0 1 -1.315-.685 4.05 4.05 0 0 1 -1.275-1.382c-.322-.55-.483-1.248-.483-2.093 0-.818.201-1.57.59-2.227.389-.658.94-1.181 1.651-1.597.711-.402 1.543-.63 2.495-.698v-2.978h1.195v2.978c.389.014.845.054 1.395.108.792.067 1.328.107 1.61.107h.389l.872 3.703h-.644l-.993-1.14c-.429-.497-.845-.886-1.247-1.154a3.568 3.568 0 0 0 -1.382-.51v5.099l.563.201c.604.228 1.087.416 1.476.59.389.175.738.376 1.073.618 1.02.751 1.53 1.905 1.53 3.448 0 .872-.188 1.677-.577 2.402zm-7.393-9.03c.188.308.456.563.805.764.335.202.778.416 1.328.618v-4.764c-.751.068-1.341.296-1.771.698-.443.403-.657.926-.657 1.583 0 .443.094.805.295 1.101zm5.058 9.727c.43-.456.644-1.046.644-1.757 0-.698-.187-1.262-.577-1.677-.389-.416-1.006-.765-1.851-1.06v5.326c.765-.094 1.355-.375 1.784-.832zm16.509-.697a4.747 4.747 0 0 1 -1.65 1.771c-.711.456-1.543.738-2.469.832v3.019h-1.194v-2.992a32.73 32.73 0 0 1 -1.704-.121c-.859-.067-1.489-.107-1.892-.107h-.496l-.899-4.093h.63l1.047 1.248c.51.617 1.02 1.087 1.516 1.395.497.322 1.1.524 1.798.591v-5.77a22.34 22.34 0 0 1 -1.61-.563 6.137 6.137 0 0 1 -1.315-.685 4.05 4.05 0 0 1 -1.275-1.382c-.322-.55-.483-1.248-.483-2.093 0-.818.202-1.57.591-2.227.389-.658.939-1.181 1.65-1.597.711-.402 1.543-.63 2.496-.698v-2.978h1.194v2.978c.389.014.845.054 1.395.108.792.067 1.329.107 1.61.107h.39l.872 3.703h-.644l-.993-1.14c-.43-.497-.846-.886-1.248-1.154a3.568 3.568 0 0 0 -1.382-.51v5.099l.563.201c.604.228 1.087.416 1.476.59.39.175.738.376 1.074.618 1.02.751 1.529 1.905 1.529 3.448 0 .872-.187 1.677-.577 2.402zm-7.393-9.03c.188.308.457.563.805.764.336.202.779.416 1.329.618v-4.764c-.752.068-1.342.296-1.771.698-.443.403-.658.926-.658 1.583 0 .443.094.805.295 1.101zm5.059 9.727c.429-.456.644-1.046.644-1.757 0-.698-.188-1.262-.577-1.677-.389-.416-1.006-.765-1.852-1.06v5.326c.765-.094 1.355-.375 1.785-.832zm16.509-.697a4.747 4.747 0 0 1 -1.65 1.771c-.712.456-1.544.738-2.469.832v3.019h-1.195v-2.992a32.73 32.73 0 0 1 -1.704-.121c-.858-.067-1.489-.107-1.891-.107h-.497l-.899-4.093h.631l1.046 1.248c.51.617 1.02 1.087 1.517 1.395.496.322 1.1.524 1.797.591v-5.77a22.512 22.512 0 0 1 -1.61-.563 6.16 6.16 0 0 1 -1.315-.685 4.046 4.046 0 0 1 -1.274-1.382c-.322-.55-.483-1.248-.483-2.093 0-.818.201-1.57.59-2.227.389-.658.939-1.181 1.65-1.597.712-.402 1.544-.63 2.496-.698v-2.978h1.194v2.978c.389.014.846.054 1.396.108.791.067 1.328.107 1.61.107h.389l.872 3.703h-.644l-.993-1.14c-.429-.497-.845-.886-1.248-1.154a3.556 3.556 0 0 0 -1.382-.51v5.099l.564.201c.604.228 1.087.416 1.476.59.389.175.738.376 1.073.618 1.02.751 1.53 1.905 1.53 3.448 0 .872-.188 1.677-.577 2.402zm-7.393-9.03c.188.308.456.563.805.764.335.202.778.416 1.328.618v-4.764c-.751.068-1.342.296-1.771.698-.443.403-.657.926-.657 1.583 0 .443.093.805.295 1.101zm5.058 9.727c.43-.456.644-1.046.644-1.757 0-.698-.188-1.262-.577-1.677-.389-.416-1.006-.765-1.851-1.06v5.326c.764-.094 1.355-.375 1.784-.832z" fill="#f6f2e7"/><circle cx="298.295" cy="45.196" fill="#f6f2e7" r="34.349"/><path d="m303.086 49.916a4.755 4.755 0 0 1 -1.651 1.77c-.711.457-1.543.739-2.469.833v3.019h-1.194v-2.992a32.026 32.026 0 0 1 -1.704-.121c-.859-.067-1.489-.107-1.892-.107h-.496l-.899-4.093h.63l1.047 1.248c.51.617 1.02 1.087 1.516 1.395.497.322 1.1.524 1.798.59v-5.768a21.85 21.85 0 0 1 -1.61-.563 6.117 6.117 0 0 1 -1.315-.685 4.051 4.051 0 0 1 -1.275-1.382c-.322-.55-.483-1.247-.483-2.093 0-.818.202-1.57.591-2.227.389-.658.939-1.18 1.65-1.597.711-.402 1.543-.63 2.496-.698v-2.978h1.194v2.978c.389.014.845.054 1.395.108.792.067 1.329.107 1.611.107h.389l.872 3.703h-.644l-.993-1.14c-.429-.497-.845-.886-1.248-1.154a3.557 3.557 0 0 0 -1.382-.51v5.099l.564.201c.603.228 1.086.416 1.475.59.39.175.738.376 1.074.618 1.02.751 1.53 1.905 1.53 3.448 0 .872-.188 1.677-.577 2.402zm-7.394-9.03c.188.308.457.563.805.764.336.202.779.416 1.329.618v-4.764c-.752.068-1.342.296-1.771.698-.443.403-.658.926-.658 1.584 0 .442.094.804.295 1.1zm5.059 9.727c.429-.456.644-1.046.644-1.757 0-.698-.188-1.262-.577-1.677-.389-.416-1.006-.765-1.852-1.06v5.326c.765-.093 1.356-.375 1.785-.831z" fill="#8738ec"/><circle cx="45.349" cy="177.349" fill="#f6f2e7" r="34.349"/><path d="m43.052 181.866a4.74 4.74 0 0 1 -1.65 1.771c-.711.456-1.543.738-2.47.832v3.019h-1.192v-2.992a32.695 32.695 0 0 1 -1.704-.121c-.86-.067-1.49-.107-1.892-.107h-.497l-.899-4.093h.631l1.047 1.248c.51.617 1.02 1.087 1.516 1.396.496.322 1.1.523 1.798.59v-5.77a21.38 21.38 0 0 1 -1.61-.563 6.188 6.188 0 0 1 -1.315-.684 4.056 4.056 0 0 1 -1.275-1.382c-.322-.551-.483-1.248-.483-2.094 0-.818.201-1.569.59-2.227.39-.657.94-1.181 1.65-1.597.712-.402 1.544-.63 2.496-.697v-2.979h1.194v2.979c.39.013.846.053 1.396.107.792.067 1.328.107 1.61.107h.39l.871 3.704h-.644l-.993-1.141c-.429-.496-.845-.885-1.248-1.154a3.563 3.563 0 0 0 -1.382-.51v5.099l.564.201c.604.228 1.087.416 1.476.591.39.174.738.375 1.073.617 1.02.751 1.53 1.905 1.53 3.448 0 .872-.188 1.677-.577 2.402zm-7.393-9.03c.188.309.456.563.805.765.336.201.778.416 1.328.617v-4.763c-.751.067-1.341.295-1.77.697-.444.403-.658.926-.658 1.584 0 .442.094.805.295 1.1zm5.058 9.728c.43-.456.645-1.047.645-1.758 0-.698-.188-1.261-.578-1.677-.389-.416-1.006-.765-1.851-1.06v5.327c.765-.094 1.355-.376 1.784-.832zm16.51-.698a4.74 4.74 0 0 1 -1.65 1.771c-.712.456-1.544.738-2.47.832v3.019h-1.194v-2.992a32.695 32.695 0 0 1 -1.704-.121c-.859-.067-1.49-.107-1.892-.107h-.496l-.9-4.093h.631l1.047 1.248c.51.617 1.02 1.087 1.516 1.396.497.322 1.1.523 1.798.59v-5.77a21.38 21.38 0 0 1 -1.61-.563 6.188 6.188 0 0 1 -1.315-.684 4.056 4.056 0 0 1 -1.275-1.382c-.322-.551-.483-1.248-.483-2.094 0-.818.202-1.569.59-2.227.39-.657.94-1.181 1.651-1.597.711-.402 1.543-.63 2.496-.697v-2.979h1.194v2.979c.389.013.845.053 1.395.107.792.067 1.329.107 1.61.107h.39l.872 3.704h-.644l-.993-1.141c-.43-.496-.845-.885-1.248-1.154a3.563 3.563 0 0 0 -1.382-.51v5.099l.563.201c.604.228 1.087.416 1.476.591.39.174.738.375 1.074.617 1.02.751 1.53 1.905 1.53 3.448 0 .872-.188 1.677-.578 2.402zm-7.394-9.03c.188.309.457.563.805.765a7.88 7.88 0 0 0 1.329.617v-4.763c-.752.067-1.342.295-1.771.697-.443.403-.658.926-.658 1.584 0 .442.094.805.295 1.1zm5.059 9.728c.43-.456.644-1.047.644-1.758 0-.698-.188-1.261-.577-1.677-.39-.416-1.006-.765-1.852-1.06v5.327c.765-.094 1.355-.376 1.785-.832z" fill="#b462fa"/></g></svg>