<svg fill="none" viewBox="0 0 550 553" xmlns="http://www.w3.org/2000/svg"><path d="m550 0h-479v478h479z" fill="#473f3b"/><path d="m16.666 341.32c1.258.875 2.27 1.914 3.049 3.131a9.67 9.67 0 0 1 1.449 3.951l.068.014c.26-.615.52-1.463.78-2.516.259-1.052.492-2.214.697-3.486l.287-1.941 2.844.724-.301 1.996a13.974 13.974 0 0 1 -.834 3.295 16.944 16.944 0 0 1 -1.353 2.776 58.62 58.62 0 0 1 -1.956 2.98c-.123.178-.259.369-.423.602-.151.232-.328.506-.534.806a8.495 8.495 0 0 1 -3.117 2.844c-1.258.67-2.638 1.012-4.142 1.012-.875 0-1.75-.11-2.639-.342-1.764-.437-3.309-1.148-4.648-2.133-1.327-.984-2.366-2.174-3.104-3.582s-1.107-2.939-1.107-4.621c0-1.6.355-2.994 1.052-4.156a7.076 7.076 0 0 1 2.885-2.68c1.217-.615 2.557-.916 4.047-.916.916 0 1.832.109 2.748.342 1.586.396 3.008 1.025 4.252 1.9zm-1.9 12.948c1.695 0 3.007-.397 3.951-1.176.943-.78 1.408-1.969 1.408-3.569 0-1.572-.643-2.898-1.941-4.005-1.299-1.094-3.241-1.969-5.852-2.612-1.545-.396-2.926-.588-4.143-.588-1.668 0-2.966.383-3.882 1.149-.916.779-1.381 1.969-1.381 3.568 0 1.6.642 2.953 1.914 4.047 1.271 1.094 3.213 1.969 5.824 2.611 1.559.383 2.926.575 4.102.575zm1.312-31.555c3.281 1.476 4.922 3.172 4.922 5.099v1.778l-7.656-2.024v.329a26.83 26.83 0 0 1 1.845.861 50.44 50.44 0 0 1 2.284 1.299c1.107.67 2.023 1.353 2.734 2.064.711.725 1.066 1.49 1.066 2.297 0 .615-.218 1.107-.642 1.49s-.985.574-1.668.574c-.287 0-.602-.041-.93-.123l-7.998-1.996v.205c0 .452.26.903.779 1.34.534.451 1.381.93 2.543 1.436l-.232.752c-3.486-1.422-5.236-3.076-5.236-4.963v-2.092l9.666 2.42c.205.041.369.068.519.068.26 0 .465-.054.615-.164.165-.109.247-.273.247-.506 0-.341-.247-.724-.725-1.148-.479-.41-1.231-.916-2.242-1.531a46.516 46.516 0 0 0 -6.481-3.186l-1.599-.615v-2.707l11.006 2.748v-.109c0-.465-.247-.93-.739-1.381-.478-.451-1.271-.957-2.365-1.504zm0-15.299c3.281 1.477 4.922 3.172 4.922 5.1v1.709l-7.547-2.051v.342c1.723.929 3.131 1.763 4.238 2.488 1.108.738 1.983 1.477 2.625 2.215.643.738.957 1.476.957 2.215 0 .765-.259 1.353-.779 1.763-.519.424-1.203.629-2.037.629-.451 0-.902-.054-1.353-.178-1.094-.273-2.243-.792-3.446-1.572a16.68 16.68 0 0 1 -3.336-2.857c-1.025-1.135-1.845-2.352-2.433-3.664v-5.182l11.006 2.748v-.109c0-.465-.247-.93-.739-1.381-.478-.451-1.271-.957-2.365-1.504zm.274 7.875c-1.6-1.135-3.377-2.201-5.332-3.227l-.903-.464v3.636a11.276 11.276 0 0 0 2.748 2.27c1.08.642 2.092 1.094 3.063 1.34.451.109.861.164 1.258.164.478 0 .861-.082 1.148-.246a.793.793 0 0 0 .424-.739c0-.697-.807-1.599-2.406-2.734zm-.274-23.748c3.281 1.49 4.922 3.186 4.922 5.113v2.051l-9.57-2.775a2.722 2.722 0 0 0 -.78-.123c-.546 0-.82.218-.82.642 0 .479.506 1.094 1.504 1.86.998.765 2.242 1.531 3.719 2.296a30.538 30.538 0 0 0 4.142 1.832l1.805.629v2.666l-10.965-2.734v.205c0 .451.26.902.779 1.34.534.451 1.381.93 2.543 1.436l-.232.751c-3.486-1.421-5.236-3.076-5.236-4.962v-1.956l7.205 1.969v-.342c-1.614-.834-2.94-1.572-3.992-2.228-1.04-.643-1.887-1.326-2.53-2.051-.642-.711-.957-1.449-.957-2.201 0-.656.205-1.176.602-1.559.41-.382.957-.574 1.64-.574.383 0 .766.055 1.163.178l7.875 2.297v-.164c0-.465-.247-.93-.739-1.381-.478-.451-1.271-.957-2.365-1.49zm1.682-4.689c.15.041.328.068.506.068.287 0 .505-.082.656-.233.15-.15.232-.355.232-.615 0-.424-.273-.888-.834-1.381-.547-.492-1.394-1.052-2.529-1.668l.383-.697c1.627.861 2.885 1.709 3.773 2.543.889.834 1.326 1.736 1.326 2.693 0 .698-.205 1.258-.615 1.655-.41.41-.957.615-1.654.615-.301 0-.615-.041-.943-.123l-8.764-2.188v2.161l-1.408-.342v-2.174l-3.309-.82v-2.789l3.309.82v-3.514l1.408.356v3.513zm-15.75-14.274 2.857.725v3.035l-2.857-.738zm16.146 2.926c-.478-.451-1.271-.957-2.365-1.504l.287-.711c3.281 1.477 4.922 3.172 4.922 5.1v2.091l-10.965-3.076v.342c0 .451.26.902.779 1.34.534.451 1.381.93 2.543 1.435l-.232.752c-3.486-1.421-5.236-3.076-5.236-4.962v-2.297l11.006 3.103v-.232c0-.465-.247-.93-.739-1.381zm-.396-6.918c.15.041.328.068.506.068.287 0 .505-.082.656-.232.15-.151.232-.356.232-.615 0-.424-.273-.889-.834-1.381-.547-.492-1.394-1.053-2.529-1.668l.383-.697c1.627.861 2.885 1.709 3.773 2.543.889.833 1.326 1.736 1.326 2.693 0 .697-.205 1.258-.615 1.654-.41.41-.957.615-1.654.615-.301 0-.615-.041-.943-.123l-8.764-2.187v2.16l-1.408-.342v-2.174l-3.309-.82v-2.789l3.309.82v-3.513l1.408.355v3.514zm-9.871-18.662h1.052c.67 0 1.368.15 2.106.437.752.301 1.586.739 2.502 1.326a82.61 82.61 0 0 1 3.596 2.475l10.294 7.41v3.254l-5.947-5.892-11.43 1.052c.069.397.342.766.821 1.135.478.369 1.299.807 2.433 1.299l-.232.711c-1.709-.684-3.008-1.408-3.883-2.16s-1.312-1.559-1.312-2.448v-1.162l10.664-.943-1.381-.984c-1.19-.834-2.119-1.45-2.789-1.832-.67-.37-1.313-.643-1.955-.793-.629-.151-1.408-.219-2.352-.219h-2.187zm12.715-9.379c-.438.711-1.053 1.244-1.846 1.613-.779.369-1.682.561-2.694.561a9.465 9.465 0 0 1 -2.255-.287c-1.245-.315-2.338-.78-3.282-1.422-.929-.629-1.654-1.381-2.16-2.242a5.407 5.407 0 0 1 -.752-2.789c0-.971.219-1.819.67-2.53a4.415 4.415 0 0 1 1.846-1.613c.779-.369 1.681-.547 2.693-.547.711 0 1.463.096 2.256.287 1.244.315 2.338.779 3.268 1.408.943.643 1.654 1.395 2.16 2.256.506.862.765 1.791.765 2.776 0 .97-.218 1.818-.669 2.529zm-1.559-4.293c-.82-.533-2.119-1.012-3.91-1.463-1.696-.424-3.049-.643-4.047-.643-1.654 0-2.475.575-2.475 1.723 0 .725.41 1.354 1.231 1.887.82.533 2.119 1.012 3.91 1.463 1.654.424 3.008.629 4.033.629.82 0 1.436-.137 1.859-.424.424-.274.629-.711.629-1.299 0-.725-.41-1.34-1.23-1.873zm-15.326-13.576 4.17.779v-3.336l1.408.342v3.322l10.65 2.653a9.1 9.1 0 0 1 2.885 1.257 17.385 17.385 0 0 1 2.57 2.174c1.422 1.436 2.133 2.721 2.133 3.856v.806l-2.98-.724v-3.35l-15.258-3.814v2.42l-1.408-.356v-2.42l-.889-.219a6.376 6.376 0 0 1 -2.037-.902c-.602-.41-1.231-.998-1.901-1.764-.642-.738-1.121-1.449-1.435-2.132-.301-.684-.451-1.327-.451-1.928v-1.094l2.543.615zm-1.285-22.627c.328-.725.765-1.258 1.326-1.613a3.602 3.602 0 0 1 1.9-.52c.397 0 .766.041 1.135.137 1.135.287 2.037.861 2.693 1.722.657.875 1.162 1.983 1.504 3.336h.055c.287-1.107.779-1.955 1.476-2.57.698-.602 1.545-.902 2.516-.902.397 0 .82.054 1.258.164.943.232 1.764.642 2.461 1.244.711.601 1.258 1.381 1.654 2.324.397.943.588 2.037.588 3.268v9.843l-.725-.191-.615-2.365-16.365-4.088-.602 2.051-.738-.164v-8.996c0-1.053.164-1.956.479-2.68zm3.349 1.217c-.806 0-1.449.205-1.928.629-.478.423-.71 1.066-.71 1.9v2.844l7.355 1.832v-3.405c0-.847-.301-1.599-.902-2.255-.602-.643-1.409-1.094-2.407-1.354a6.068 6.068 0 0 0 -1.408-.191zm8.914 1.695c-.943 0-1.695.26-2.228.766-.533.519-.807 1.257-.807 2.201v2.83l8.149 2.037v-4.115c0-.479-.137-.957-.397-1.422s-.67-.889-1.203-1.258-1.19-.643-1.955-.834a6.595 6.595 0 0 0 -1.559-.205zm3.063-14.902c.15.041.328.068.506.068.287 0 .505-.082.656-.232.15-.151.232-.356.232-.616 0-.424-.273-.888-.834-1.381-.547-.492-1.394-1.052-2.529-1.668l.383-.697c1.627.862 2.885 1.709 3.773 2.543.889.834 1.326 1.736 1.326 2.694 0 .697-.205 1.257-.615 1.654-.41.41-.957.615-1.654.615-.301 0-.615-.041-.943-.123l-8.764-2.187v2.16l-1.408-.342v-2.174l-3.309-.82v-2.789l3.309.82v-3.514l1.408.356v3.513zm2.844-8.436c-.438.711-1.053 1.244-1.846 1.613-.779.369-1.682.561-2.694.561a9.465 9.465 0 0 1 -2.255-.287c-1.245-.315-2.338-.78-3.282-1.422-.929-.629-1.654-1.381-2.16-2.242a5.407 5.407 0 0 1 -.752-2.789c0-.971.219-1.819.67-2.53a4.415 4.415 0 0 1 1.846-1.613c.779-.369 1.681-.547 2.693-.547.711 0 1.463.096 2.256.287 1.244.315 2.338.78 3.268 1.408.943.643 1.654 1.395 2.16 2.256.506.862.765 1.791.765 2.776 0 .97-.218 1.818-.669 2.529zm-1.559-4.293c-.82-.533-2.119-1.012-3.91-1.463-1.696-.424-3.049-.642-4.047-.642-1.654 0-2.475.574-2.475 1.722 0 .725.41 1.354 1.231 1.887.82.533 2.119 1.012 3.91 1.463 1.654.424 3.008.629 4.033.629.82 0 1.436-.137 1.859-.424.424-.273.629-.711.629-1.299 0-.724-.41-1.34-1.23-1.873zm-7.547-17.486c.697.793 1.326 1.832 1.873 3.117l7.629-3.473v3.035l-6.576 2.94.601 1.449 5.975 1.49v2.776l-17.596-4.403-.97 1.832-.684-.164-.793-5.058 13.016 3.254-1.354-3.145c-.178-.424-.383-.765-.615-1.012a2.752 2.752 0 0 0 -.889-.601c-.369-.151-.902-.315-1.586-.492l-1.64-.41v-2.94l.875.219c1.121.273 2.037.806 2.734 1.586zm-3.609-11.17c.191-.356.451-.643.793-.848a2.319 2.319 0 0 1 1.203-.314c.232 0 .492.041.779.109 1.148.287 1.996 1.012 2.529 2.174.547 1.162.875 2.762.998 4.812a9.922 9.922 0 0 0 1.586.151c.985 0 1.764-.205 2.338-.602.588-.396.875-.97.875-1.736a2.56 2.56 0 0 0 -.519-1.572c-.342-.452-.834-.875-1.477-1.299l.342-.656c1.244.601 2.201 1.326 2.898 2.173.698.848 1.039 1.791 1.039 2.83 0 .78-.177 1.436-.519 1.997-.342.56-.82.984-1.436 1.271-.615.287-1.339.438-2.16.438a7.77 7.77 0 0 1 -1.955-.26c-1.271-.315-2.488-.862-3.65-1.627-1.162-.766-2.119-1.668-2.844-2.694-.725-1.025-1.094-2.078-1.094-3.144 0-.438.096-.834.274-1.203zm2.474 1.668c-.396 0-.724.082-.97.246-.233.164-.356.41-.356.724 0 .657.41 1.272 1.231 1.833.834.574 1.859 1.011 3.089 1.312-.068-1.299-.287-2.242-.628-2.844a2.376 2.376 0 0 0 -1.518-1.162 4.147 4.147 0 0 0 -.848-.109zm5.715-18.649c3.281 1.491 4.922 3.186 4.922 5.114v2.05l-9.57-2.775a2.722 2.722 0 0 0 -.78-.123c-.546 0-.82.219-.82.643 0 .478.506 1.093 1.504 1.859s2.242 1.531 3.719 2.297a30.664 30.664 0 0 0 4.142 1.832l1.805.629v2.666l-10.965-2.735v.205c0 .452.26.903.779 1.34.534.451 1.381.93 2.543 1.436l-.232.752c-3.486-1.422-5.236-3.076-5.236-4.963v-1.955l7.205 1.969v-.342c-1.614-.834-2.94-1.572-3.992-2.229-1.04-.642-1.887-1.326-2.53-2.051-.642-.71-.957-1.449-.957-2.201 0-.656.205-1.175.602-1.558.41-.383.957-.574 1.64-.574.383 0 .766.054 1.163.177l7.875 2.297v-.164c0-.465-.247-.93-.739-1.381-.478-.451-1.271-.957-2.365-1.49zm4.211-.164-2.693-.683c.506-.957.916-1.914 1.23-2.871.315-.944.465-1.696.465-2.256 0-.451-.109-.807-.342-1.039-.232-.233-.519-.342-.888-.342-.247 0-.479.082-.711.232-.219.151-.438.397-.67.739-.233.328-.506.793-.834 1.38-.356.643-.657 1.135-.903 1.463-.519.684-1.162 1.026-1.941 1.026-.273 0-.561-.041-.875-.123-.725-.178-1.422-.547-2.078-1.08a6.558 6.558 0 0 1 -1.572-1.901c-.397-.724-.588-1.463-.588-2.187v-3.282l2.461.629v5.182c0 .342.082.629.232.834a.812.812 0 0 0 .67.314c.369 0 .738-.273 1.135-.82.123-.164.273-.396.424-.683.15-.288.3-.575.451-.875.369-.725.642-1.245.834-1.532.492-.752 1.175-1.134 2.05-1.134.315 0 .643.041.999.136.669.178 1.312.492 1.955.971a5.657 5.657 0 0 1 1.558 1.764 4.25 4.25 0 0 1 .615 2.201c0 1.039-.328 2.351-.984 3.937z" fill="#211715"/><path d="m207.318 541.666c-.875 1.258-1.914 2.27-3.13 3.049a9.67 9.67 0 0 1 -3.952 1.449l-.013.068c.615.26 1.463.52 2.515.78 1.053.259 2.215.492 3.487.697l1.941.287-.725 2.844-1.996-.301a13.999 13.999 0 0 1 -3.295-.834 16.933 16.933 0 0 1 -2.775-1.353 58.62 58.62 0 0 1 -2.98-1.956c-.178-.123-.37-.259-.602-.423-.232-.151-.506-.328-.807-.534a8.492 8.492 0 0 1 -2.843-3.117c-.67-1.258-1.012-2.638-1.012-4.142 0-.875.109-1.75.342-2.639.437-1.764 1.148-3.309 2.132-4.648.985-1.327 2.174-2.366 3.583-3.104 1.408-.738 2.939-1.107 4.621-1.107 1.599 0 2.994.355 4.156 1.052a7.083 7.083 0 0 1 2.68 2.885c.615 1.217.916 2.557.916 4.047 0 .916-.11 1.832-.342 2.748-.397 1.586-1.026 3.008-1.901 4.252zm-12.947-1.9c0 1.695.397 3.007 1.176 3.951.779.943 1.969 1.408 3.568 1.408 1.573 0 2.899-.643 4.006-1.941 1.094-1.299 1.969-3.241 2.611-5.852.397-1.545.588-2.926.588-4.143 0-1.668-.382-2.966-1.148-3.882-.779-.916-1.969-1.381-3.568-1.381-1.6 0-2.954.642-4.047 1.914-1.094 1.271-1.969 3.213-2.612 5.824-.383 1.559-.574 2.926-.574 4.102zm31.555 1.312c-1.477 3.281-3.172 4.922-5.1 4.922h-1.777l2.023-7.656h-.328a26.83 26.83 0 0 1 -.861 1.845 51.428 51.428 0 0 1 -1.299 2.284c-.67 1.107-1.354 2.023-2.064 2.734-.725.711-1.491 1.066-2.297 1.066-.616 0-1.108-.218-1.491-.642-.382-.424-.574-.985-.574-1.668 0-.287.041-.602.123-.93l1.996-7.998h-.205c-.451 0-.902.26-1.34.779-.451.534-.929 1.381-1.435 2.543l-.752-.232c1.422-3.486 3.076-5.236 4.963-5.236h2.092l-2.42 9.666a2.722 2.722 0 0 0 -.069.519c0 .26.055.465.164.615.11.165.274.247.506.247.342 0 .725-.247 1.149-.725.41-.479.916-1.231 1.531-2.242a48.847 48.847 0 0 0 1.75-3.24 46.452 46.452 0 0 0 1.435-3.241l.616-1.599h2.707l-2.748 11.006h.109c.465 0 .93-.247 1.381-.739.451-.478.957-1.271 1.504-2.365zm15.299 0c-1.477 3.281-3.172 4.922-5.1 4.922h-1.709l2.051-7.547h-.342c-.93 1.723-1.764 3.131-2.488 4.238-.739 1.108-1.477 1.983-2.215 2.625-.738.643-1.477.957-2.215.957-.766 0-1.353-.259-1.764-.779-.423-.519-.629-1.203-.629-2.037 0-.451.055-.902.178-1.353.274-1.094.793-2.243 1.572-3.446a16.718 16.718 0 0 1 2.858-3.336c1.135-1.025 2.351-1.845 3.664-2.433h5.182l-2.748 11.006h.109c.465 0 .93-.247 1.381-.739.451-.478.957-1.271 1.504-2.365zm-7.875.274c1.134-1.6 2.201-3.377 3.226-5.332l.465-.903h-3.637a11.272 11.272 0 0 0 -2.269 2.748c-.643 1.08-1.094 2.092-1.34 3.063a5.317 5.317 0 0 0 -.164 1.258c0 .478.082.861.246 1.148s.41.424.738.424c.697 0 1.6-.807 2.735-2.406zm23.748-.274c-1.491 3.281-3.186 4.922-5.114 4.922h-2.05l2.775-9.57c.082-.274.123-.534.123-.78 0-.546-.219-.82-.643-.82-.478 0-1.093.506-1.859 1.504s-1.531 2.242-2.297 3.719a30.664 30.664 0 0 0 -1.832 4.142l-.629 1.805h-2.666l2.735-10.965h-.205c-.452 0-.903.26-1.34.779-.451.534-.93 1.381-1.436 2.543l-.752-.232c1.422-3.486 3.076-5.236 4.963-5.236h1.955l-1.969 7.205h.342c.834-1.614 1.572-2.94 2.229-3.992.642-1.04 1.326-1.887 2.051-2.53.71-.642 1.449-.957 2.201-.957.656 0 1.175.205 1.558.602.383.41.574.957.574 1.64 0 .383-.054.766-.177 1.163l-2.297 7.875h.164c.465 0 .93-.247 1.381-.739.451-.478.957-1.271 1.49-2.365zm4.689 1.682c-.041.15-.068.328-.068.506 0 .287.082.505.232.656.151.15.356.232.615.232.424 0 .889-.273 1.381-.834.492-.547 1.053-1.394 1.668-2.529l.697.383c-.861 1.627-1.708 2.885-2.542 3.773-.834.889-1.737 1.326-2.694 1.326-.697 0-1.258-.205-1.654-.615-.41-.41-.615-.957-.615-1.654 0-.301.041-.615.123-.943l2.187-8.764h-2.16l.342-1.408h2.174l.82-3.309h2.789l-.82 3.309h3.513l-.355 1.408h-3.514zm14.274-15.75-.725 2.857h-3.035l.738-2.857zm-2.926 16.146c.451-.478.957-1.271 1.504-2.365l.711.287c-1.477 3.281-3.172 4.922-5.1 4.922h-2.092l3.076-10.965h-.341c-.452 0-.903.26-1.34.779-.451.534-.93 1.381-1.436 2.543l-.752-.232c1.422-3.486 3.076-5.236 4.963-5.236h2.297l-3.104 11.006h.233c.465 0 .93-.247 1.381-.739zm6.918-.396c-.041.15-.069.328-.069.506 0 .287.082.505.233.656.15.15.355.232.615.232.424 0 .889-.273 1.381-.834.492-.547 1.053-1.394 1.668-2.529l.697.383c-.861 1.627-1.709 2.885-2.543 3.773-.834.889-1.736 1.326-2.693 1.326-.697 0-1.258-.205-1.654-.615-.411-.41-.616-.957-.616-1.654 0-.301.041-.615.123-.943l2.188-8.764h-2.16l.341-1.408h2.174l.821-3.309h2.789l-.821 3.309h3.514l-.355 1.408h-3.514zm18.662-9.871v1.052c0 .67-.151 1.368-.438 2.106-.3.752-.738 1.586-1.326 2.502a82.437 82.437 0 0 1 -2.474 3.596l-7.411 10.294h-3.254l5.893-5.947-1.053-11.43c-.396.069-.765.342-1.134.821-.37.478-.807 1.299-1.299 2.433l-.711-.232c.683-1.709 1.408-3.008 2.16-3.883s1.559-1.312 2.447-1.312h1.162l.944 10.664.984-1.381c.834-1.19 1.449-2.119 1.832-2.789.369-.67.643-1.313.793-1.955.15-.629.219-1.408.219-2.352v-2.187zm9.379 12.715c-.711-.438-1.244-1.053-1.614-1.846-.369-.779-.56-1.682-.56-2.694 0-.724.096-1.476.287-2.255.314-1.245.779-2.338 1.422-3.282.629-.929 1.381-1.654 2.242-2.16a5.404 5.404 0 0 1 2.789-.752c.971 0 1.819.219 2.529.67a4.41 4.41 0 0 1 1.614 1.846c.369.779.547 1.681.547 2.693 0 .711-.096 1.463-.288 2.256-.314 1.244-.779 2.338-1.408 3.268-.642.943-1.394 1.654-2.256 2.16a5.404 5.404 0 0 1 -2.775.765c-.971 0-1.818-.218-2.529-.669zm4.293-1.559c.533-.82 1.011-2.119 1.463-3.91.423-1.696.642-3.049.642-4.047 0-1.654-.574-2.475-1.722-2.475-.725 0-1.354.41-1.887 1.231-.533.82-1.012 2.119-1.463 3.91-.424 1.654-.629 3.008-.629 4.033 0 .82.137 1.436.424 1.859.273.424.711.629 1.299.629.724 0 1.34-.41 1.873-1.23zm13.576-15.326-.779 4.17h3.336l-.342 1.408h-3.323l-2.652 10.65a9.102 9.102 0 0 1 -1.258 2.885 17.325 17.325 0 0 1 -2.174 2.57c-1.435 1.422-2.72 2.133-3.855 2.133h-.807l.725-2.98h3.35l3.814-15.258h-2.42l.356-1.408h2.42l.218-.889a6.378 6.378 0 0 1 .903-2.037c.41-.602.998-1.231 1.763-1.901.739-.642 1.45-1.121 2.133-1.435.684-.301 1.326-.451 1.928-.451h1.094l-.616 2.543zm22.846 16.051 1.709.505-.192.725h-7.055l.192-.725 2.16-.505-.437-4.84h-7.247l-2.666 4.662 2.12.683-.192.725h-5.633l.192-.725 2.174-.738 10.13-17.582h3.118zm-9.995-6.385h6.221l-.847-9.393zm23.489 4.375c-.041.15-.069.328-.069.506 0 .287.082.505.233.656.15.15.355.232.615.232.424 0 .889-.273 1.381-.834.492-.547 1.053-1.394 1.668-2.529l.697.383c-.861 1.627-1.709 2.885-2.543 3.773-.834.889-1.736 1.326-2.693 1.326-.697 0-1.258-.205-1.654-.615-.411-.41-.616-.957-.616-1.654 0-.301.041-.615.123-.943l2.188-8.764h-2.16l.341-1.408h2.174l.821-3.309h2.789l-.821 3.309h3.514l-.355 1.408h-3.514zm8.435 2.844c-.711-.438-1.244-1.053-1.613-1.846-.369-.779-.561-1.682-.561-2.694 0-.724.096-1.476.288-2.255.314-1.245.779-2.338 1.421-3.282.629-.929 1.381-1.654 2.243-2.16a5.404 5.404 0 0 1 2.789-.752c.97 0 1.818.219 2.529.67a4.415 4.415 0 0 1 1.613 1.846c.369.779.547 1.681.547 2.693 0 .711-.096 1.463-.287 2.256-.314 1.244-.779 2.338-1.408 3.268-.643.943-1.395 1.654-2.256 2.16a5.404 5.404 0 0 1 -2.775.765c-.971 0-1.819-.218-2.53-.669zm4.293-1.559c.533-.82 1.012-2.119 1.463-3.91.424-1.696.643-3.049.643-4.047 0-1.654-.575-2.475-1.723-2.475-.725 0-1.353.41-1.887 1.231-.533.82-1.011 2.119-1.463 3.91-.423 1.654-.628 3.008-.628 4.033 0 .82.136 1.436.423 1.859.274.424.711.629 1.299.629.725 0 1.34-.41 1.873-1.23zm17.487-7.547c-.793.697-1.832 1.326-3.118 1.873l3.473 7.629h-3.035l-2.94-6.576-1.449.601-1.49 5.975h-2.775l4.402-17.596-1.832-.97.164-.684 5.059-.793-3.254 13.016 3.144-1.354c.424-.178.766-.383 1.012-.615.232-.219.437-.52.601-.889.151-.369.315-.902.493-1.586l.41-1.64h2.939l-.218.875c-.274 1.121-.807 2.037-1.586 2.734zm11.17-3.609c.355.191.642.451.847.793.205.341.315.752.315 1.203 0 .232-.041.492-.11.779-.287 1.148-1.011 1.996-2.174 2.529-1.162.547-2.761.875-4.812.998a9.912 9.912 0 0 0 -.15 1.586c0 .985.205 1.764.601 2.338.397.588.971.875 1.736.875.588 0 1.121-.178 1.573-.519.451-.342.875-.834 1.298-1.477l.657.342c-.602 1.244-1.326 2.201-2.174 2.898-.848.698-1.791 1.039-2.83 1.039-.779 0-1.436-.177-1.996-.519a3.244 3.244 0 0 1 -1.272-1.436c-.287-.615-.437-1.339-.437-2.16 0-.615.082-1.271.26-1.955.314-1.271.861-2.488 1.626-3.65.766-1.162 1.668-2.119 2.694-2.844 1.025-.725 2.078-1.094 3.144-1.094.438 0 .834.096 1.204.274zm-1.668 2.474c0-.396-.082-.724-.247-.97-.164-.233-.41-.356-.724-.356-.656 0-1.272.41-1.832 1.231-.574.834-1.012 1.859-1.313 3.089 1.299-.068 2.242-.287 2.844-.628a2.373 2.373 0 0 0 1.162-1.518c.069-.315.11-.602.11-.848zm18.648 5.715c-1.49 3.281-3.186 4.922-5.113 4.922h-2.051l2.775-9.57c.082-.274.123-.534.123-.78 0-.546-.218-.82-.642-.82-.479 0-1.094.506-1.86 1.504-.765.998-1.531 2.242-2.296 3.719a30.678 30.678 0 0 0 -1.833 4.142l-.628 1.805h-2.666l2.734-10.965h-.205c-.451 0-.902.26-1.34.779-.451.534-.93 1.381-1.436 2.543l-.751-.232c1.421-3.486 3.076-5.236 4.962-5.236h1.955l-1.968 7.205h.342c.834-1.614 1.572-2.94 2.228-3.992.643-1.04 1.326-1.887 2.051-2.53.711-.642 1.449-.957 2.201-.957.656 0 1.176.205 1.559.602.382.41.574.957.574 1.64 0 .383-.055.766-.178 1.163l-2.297 7.875h.164c.465 0 .93-.247 1.381-.739.451-.478.957-1.271 1.49-2.365zm.164 4.211.684-2.693c.957.506 1.914.916 2.871 1.23.943.315 1.695.465 2.256.465.451 0 .806-.109 1.039-.342.232-.232.341-.519.341-.888 0-.247-.082-.479-.232-.711-.15-.219-.396-.438-.738-.67-.328-.233-.793-.506-1.381-.834-.643-.356-1.135-.657-1.463-.903-.684-.519-1.025-1.162-1.025-1.941 0-.273.041-.561.123-.875.177-.725.547-1.422 1.08-2.078a6.541 6.541 0 0 1 1.9-1.572c.725-.397 1.463-.588 2.188-.588h3.281l-.629 2.461h-5.182c-.341 0-.629.082-.834.232a.812.812 0 0 0 -.314.67c0 .369.273.738.82 1.135.164.123.397.273.684.424.287.15.574.3.875.451.724.369 1.244.642 1.531.834.752.492 1.135 1.175 1.135 2.05 0 .315-.041.643-.137.999-.178.669-.492 1.312-.971 1.955a5.664 5.664 0 0 1 -1.763 1.558 4.256 4.256 0 0 1 -2.201.615c-1.04 0-2.352-.328-3.938-.984z" fill="#211715"/><path d="m226.449 154.77 1.709.505-.191.725h-7.055l.192-.725 2.16-.505-.438-4.84h-7.246l-2.666 4.662 2.119.683-.191.725h-5.633l.191-.725 2.174-.738 10.131-17.582h3.117zm-9.994-6.385h6.221l-.848-9.393zm23.488 4.375c-.041.15-.068.328-.068.506 0 .287.082.505.232.656.151.15.356.232.616.232.423 0 .888-.273 1.381-.834.492-.547 1.052-1.394 1.667-2.529l.698.383c-.862 1.627-1.709 2.885-2.543 3.773-.834.889-1.737 1.326-2.694 1.326-.697 0-1.257-.205-1.654-.615-.41-.41-.615-.957-.615-1.654 0-.301.041-.615.123-.943l2.187-8.764h-2.16l.342-1.408h2.174l.82-3.309h2.789l-.82 3.309h3.514l-.356 1.408h-3.514zm8.436 2.844c-.711-.438-1.244-1.053-1.613-1.846-.37-.779-.561-1.682-.561-2.694 0-.724.096-1.476.287-2.255.315-1.245.779-2.338 1.422-3.282.629-.929 1.381-1.654 2.242-2.16a5.407 5.407 0 0 1 2.789-.752c.971 0 1.819.219 2.53.67a4.415 4.415 0 0 1 1.613 1.846c.369.779.547 1.681.547 2.693 0 .711-.096 1.463-.287 2.256-.315 1.244-.78 2.338-1.409 3.268-.642.943-1.394 1.654-2.255 2.16a5.407 5.407 0 0 1 -2.776.765c-.97 0-1.818-.218-2.529-.669zm4.293-1.559c.533-.82 1.012-2.119 1.463-3.91.424-1.696.642-3.049.642-4.047 0-1.654-.574-2.475-1.722-2.475-.725 0-1.354.41-1.887 1.231-.533.82-1.012 2.119-1.463 3.91-.424 1.654-.629 3.008-.629 4.033 0 .82.137 1.436.424 1.859.273.424.711.629 1.299.629.724 0 1.34-.41 1.873-1.23zm17.486-7.547c-.793.697-1.832 1.326-3.117 1.873l3.473 7.629h-3.035l-2.94-6.576-1.449.601-1.49 5.975h-2.776l4.403-17.596-1.832-.97.164-.684 5.058-.793-3.254 13.016 3.145-1.354c.424-.178.765-.383 1.012-.615.232-.219.437-.52.601-.889.15-.369.315-.902.492-1.586l.41-1.64h2.94l-.219.875c-.273 1.121-.806 2.037-1.586 2.734zm11.17-3.609c.356.191.643.451.848.793.205.341.314.752.314 1.203 0 .232-.041.492-.109.779-.287 1.148-1.012 1.996-2.174 2.529-1.162.547-2.762.875-4.812.998a9.922 9.922 0 0 0 -.151 1.586c0 .985.205 1.764.602 2.338.396.588.97.875 1.736.875a2.56 2.56 0 0 0 1.572-.519c.451-.342.875-.834 1.299-1.477l.656.342c-.601 1.244-1.326 2.201-2.173 2.898-.848.698-1.791 1.039-2.831 1.039-.779 0-1.435-.177-1.996-.519a3.248 3.248 0 0 1 -1.271-1.436c-.287-.615-.438-1.339-.438-2.16 0-.615.082-1.271.26-1.955.315-1.271.861-2.488 1.627-3.65s1.668-2.119 2.693-2.844c1.026-.725 2.079-1.094 3.145-1.094.437 0 .834.096 1.203.274zm-1.668 2.474c0-.396-.082-.724-.246-.97-.164-.233-.41-.356-.725-.356-.656 0-1.271.41-1.832 1.231-.574.834-1.011 1.859-1.312 3.089 1.299-.068 2.242-.287 2.844-.628a2.376 2.376 0 0 0 1.162-1.518c.068-.315.109-.602.109-.848zm18.649 5.715c-1.491 3.281-3.186 4.922-5.114 4.922h-2.05l2.775-9.57c.082-.274.123-.534.123-.78 0-.546-.219-.82-.643-.82-.478 0-1.093.506-1.859 1.504s-1.531 2.242-2.297 3.719a30.664 30.664 0 0 0 -1.832 4.142l-.629 1.805h-2.666l2.735-10.965h-.206c-.451 0-.902.26-1.339.779-.452.534-.93 1.381-1.436 2.543l-.752-.232c1.422-3.486 3.076-5.236 4.963-5.236h1.955l-1.969 7.205h.342c.834-1.614 1.572-2.94 2.229-3.992.642-1.04 1.326-1.887 2.05-2.53.711-.642 1.45-.957 2.202-.957.656 0 1.175.205 1.558.602.383.41.574.957.574 1.64 0 .383-.054.766-.177 1.163l-2.297 7.875h.164c.465 0 .93-.247 1.381-.739.451-.478.957-1.271 1.49-2.365zm.164 4.211.683-2.693c.957.506 1.914.916 2.871 1.23.944.315 1.696.465 2.256.465.451 0 .807-.109 1.039-.342.233-.232.342-.519.342-.888 0-.247-.082-.479-.232-.711-.151-.219-.397-.438-.739-.67-.328-.233-.793-.506-1.381-.834-.642-.356-1.134-.657-1.462-.903-.684-.519-1.026-1.162-1.026-1.941 0-.273.041-.561.123-.875.178-.725.547-1.422 1.08-2.078a6.558 6.558 0 0 1 1.901-1.572c.724-.397 1.463-.588 2.187-.588h3.281l-.628 2.461h-5.182c-.342 0-.629.082-.834.232a.812.812 0 0 0 -.314.67c0 .369.273.738.82 1.135.164.123.396.273.683.424.288.15.575.3.875.451.725.369 1.245.642 1.532.834.752.492 1.134 1.175 1.134 2.05 0 .315-.041.643-.136.999-.178.669-.492 1.312-.971 1.955a5.668 5.668 0 0 1 -1.764 1.558 4.253 4.253 0 0 1 -2.201.615c-1.039 0-2.351-.328-3.937-.984zm-69.385 34 .683-2.693c.958.506 1.915.916 2.872 1.23.943.315 1.695.465 2.255.465.452 0 .807-.109 1.04-.342.232-.232.341-.519.341-.888 0-.247-.082-.479-.232-.711-.151-.219-.397-.438-.738-.67-.329-.233-.793-.506-1.381-.834-.643-.356-1.135-.657-1.463-.903-.684-.519-1.026-1.162-1.026-1.941 0-.273.041-.561.123-.875.178-.725.547-1.422 1.081-2.078a6.541 6.541 0 0 1 1.9-1.572c.725-.397 1.463-.588 2.187-.588h3.282l-.629 2.461h-5.182c-.342 0-.629.082-.834.232a.812.812 0 0 0 -.314.67c0 .369.273.738.82 1.135.164.123.397.273.684.424.287.15.574.3.875.451.724.369 1.244.642 1.531.834.752.492 1.135 1.175 1.135 2.05 0 .315-.041.643-.137.999-.178.669-.492 1.312-.971 1.955a5.664 5.664 0 0 1 -1.763 1.558 4.257 4.257 0 0 1 -2.202.615c-1.039 0-2.351-.328-3.937-.984zm21.26-11.73c.916.464 1.613 1.093 2.105 1.886.479.807.725 1.709.725 2.707a6.91 6.91 0 0 1 -.205 1.614 8.664 8.664 0 0 1 -1.914 3.636 11.627 11.627 0 0 1 -3.254 2.598h-3.965l-1.299 5.25 2.037.533-.178.656h-6.726l.178-.656 1.927-.519 4.102-16.352a8.423 8.423 0 0 0 -1.709.588 7.05 7.05 0 0 0 -1.449.889l-.452-.547a15.83 15.83 0 0 1 1.915-1.531 8.777 8.777 0 0 1 2.105-1.012l.697-2.789h2.721l-.588 2.351c1.244.014 2.311.246 3.227.698zm.574 6.22c0-1.312-.369-2.406-1.121-3.295-.752-.888-1.805-1.435-3.172-1.654l-2.229 8.928h5.155c.56-.574.929-1.285 1.134-2.119a7.762 7.762 0 0 0 .233-1.86zm12.756-6.89c.355.191.642.451.847.793.205.341.315.752.315 1.203 0 .232-.041.492-.11.779-.287 1.148-1.011 1.996-2.173 2.529-1.162.547-2.762.875-4.813.998a9.912 9.912 0 0 0 -.15 1.586c0 .985.205 1.764.601 2.338.397.588.971.875 1.737.875a2.56 2.56 0 0 0 1.572-.519c.451-.342.875-.834 1.299-1.477l.656.342c-.602 1.244-1.326 2.201-2.174 2.898-.847.698-1.791 1.039-2.83 1.039-.779 0-1.435-.177-1.996-.519a3.242 3.242 0 0 1 -1.271-1.436c-.288-.615-.438-1.339-.438-2.16 0-.615.082-1.271.26-1.955.314-1.271.861-2.488 1.627-3.65.765-1.162 1.668-2.119 2.693-2.844s2.078-1.094 3.145-1.094c.437 0 .834.096 1.203.274zm-1.668 2.474c0-.396-.082-.724-.246-.97-.164-.233-.41-.356-.725-.356-.656 0-1.271.41-1.832 1.231-.574.834-1.012 1.859-1.312 3.089 1.298-.068 2.242-.287 2.843-.628a2.37 2.37 0 0 0 1.162-1.518c.069-.315.11-.602.11-.848zm18.648 5.715c-1.49 3.281-3.185 4.922-5.113 4.922h-2.051l2.776-9.57c.082-.274.123-.534.123-.78 0-.546-.219-.82-.643-.82-.479 0-1.094.506-1.859 1.504-.766.998-1.532 2.242-2.297 3.719a30.538 30.538 0 0 0 -1.832 4.142l-.629 1.805h-2.666l2.734-10.965h-.205c-.451 0-.902.26-1.34.779-.451.534-.929 1.381-1.435 2.543l-.752-.232c1.422-3.486 3.076-5.236 4.963-5.236h1.955l-1.969 7.205h.342c.834-1.614 1.572-2.94 2.228-3.992.643-1.04 1.326-1.887 2.051-2.53.711-.642 1.449-.957 2.201-.957.656 0 1.176.205 1.559.602.383.41.574.957.574 1.64 0 .383-.055.766-.178 1.163l-2.297 7.875h.164c.465 0 .93-.247 1.381-.739.452-.478.957-1.271 1.491-2.365zm4.69 1.682c-.041.15-.069.328-.069.506 0 .287.082.505.233.656.15.15.355.232.615.232.424 0 .889-.273 1.381-.834.492-.547 1.053-1.394 1.668-2.529l.697.383c-.861 1.627-1.709 2.885-2.543 3.773-.834.889-1.736 1.326-2.693 1.326-.698 0-1.258-.205-1.655-.615-.41-.41-.615-.957-.615-1.654 0-.301.041-.615.123-.943l2.188-8.764h-2.16l.341-1.408h2.174l.821-3.309h2.789l-.821 3.309h3.514l-.356 1.408h-3.513z" fill="#e3ded4"/><path d="m373.092 264.434c.724.328 1.258.765 1.613 1.326.342.56.52 1.203.52 1.9 0 .397-.041.766-.137 1.135-.287 1.135-.861 2.037-1.723 2.693-.875.657-1.982 1.162-3.336 1.504v.055c1.108.287 1.955.779 2.571 1.476.601.698.902 1.545.902 2.516 0 .397-.055.82-.164 1.258-.233.943-.643 1.764-1.244 2.461-.602.711-1.381 1.258-2.324 1.654-.944.397-2.038.588-3.268.588h-9.844l.192-.725 2.365-.615 4.088-16.365-2.051-.602.164-.738h8.996c1.053 0 1.955.164 2.68.479zm-1.217 3.349c0-.806-.205-1.449-.629-1.928-.424-.478-1.066-.71-1.9-.71h-2.844l-1.832 7.355h3.404c.848 0 1.6-.301 2.256-.902.643-.602 1.094-1.409 1.354-2.407.123-.505.191-.984.191-1.408zm-1.695 8.914c0-.943-.26-1.695-.766-2.228-.519-.533-1.258-.807-2.201-.807h-2.83l-2.037 8.149h4.115c.478 0 .957-.137 1.422-.397s.888-.67 1.258-1.203c.369-.533.642-1.19.834-1.955.136-.561.205-1.08.205-1.559zm14.902 3.063c-.041.15-.068.328-.068.506 0 .287.082.505.232.656.15.15.356.232.615.232.424 0 .889-.273 1.381-.834.492-.547 1.053-1.394 1.668-2.529l.697.383c-.861 1.627-1.709 2.885-2.543 3.773-.834.889-1.736 1.326-2.693 1.326-.697 0-1.258-.205-1.654-.615-.41-.41-.615-.957-.615-1.654 0-.301.041-.615.123-.943l2.187-8.764h-2.16l.342-1.408h2.174l.82-3.309h2.789l-.82 3.309h3.513l-.355 1.408h-3.514zm8.436 2.844c-.711-.438-1.245-1.053-1.614-1.846-.369-.779-.56-1.682-.56-2.694 0-.724.095-1.476.287-2.255.314-1.245.779-2.338 1.422-3.282.629-.929 1.381-1.654 2.242-2.16a5.404 5.404 0 0 1 2.789-.752c.971 0 1.818.219 2.529.67a4.417 4.417 0 0 1 1.614 1.846c.369.779.546 1.681.546 2.693 0 .711-.095 1.463-.287 2.256-.314 1.244-.779 2.338-1.408 3.268-.642.943-1.394 1.654-2.256 2.16a5.404 5.404 0 0 1 -2.775.765c-.971 0-1.818-.218-2.529-.669zm4.293-1.559c.533-.82 1.011-2.119 1.462-3.91.424-1.696.643-3.049.643-4.047 0-1.654-.574-2.475-1.723-2.475-.724 0-1.353.41-1.886 1.231-.534.82-1.012 2.119-1.463 3.91-.424 1.654-.629 3.008-.629 4.033 0 .82.137 1.436.424 1.859.273.424.711.629 1.299.629.724 0 1.339-.41 1.873-1.23zm17.486-7.547c-.793.697-1.832 1.326-3.117 1.873l3.472 7.629h-3.035l-2.939-6.576-1.449.601-1.491 5.975h-2.775l4.402-17.596-1.832-.97.164-.684 5.059-.793-3.254 13.016 3.144-1.354c.424-.178.766-.383 1.012-.615.233-.219.438-.52.602-.889.15-.369.314-.902.492-1.586l.41-1.64h2.94l-.219.875c-.274 1.121-.807 2.037-1.586 2.734zm11.17-3.609c.355.191.642.451.847.793.206.341.315.752.315 1.203 0 .232-.041.492-.109.779-.288 1.148-1.012 1.996-2.174 2.529-1.162.547-2.762.875-4.813.998a10.03 10.03 0 0 0 -.15 1.586c0 .985.205 1.764.601 2.338.397.588.971.875 1.737.875a2.56 2.56 0 0 0 1.572-.519c.451-.342.875-.834 1.299-1.477l.656.342c-.602 1.244-1.326 2.201-2.174 2.898-.847.698-1.791 1.039-2.83 1.039-.779 0-1.435-.177-1.996-.519a3.248 3.248 0 0 1 -1.271-1.436c-.288-.615-.438-1.339-.438-2.16 0-.615.082-1.271.26-1.955.314-1.271.861-2.488 1.627-3.65.765-1.162 1.668-2.119 2.693-2.844 1.026-.725 2.078-1.094 3.145-1.094.437 0 .834.096 1.203.274zm-1.668 2.474c0-.396-.082-.724-.246-.97-.164-.233-.41-.356-.725-.356-.656 0-1.271.41-1.832 1.231-.574.834-1.012 1.859-1.312 3.089 1.298-.068 2.242-.287 2.843-.628a2.37 2.37 0 0 0 1.162-1.518c.069-.315.11-.602.11-.848zm18.648 5.715c-1.49 3.281-3.185 4.922-5.113 4.922h-2.051l2.776-9.57c.082-.274.123-.534.123-.78 0-.546-.219-.82-.643-.82-.478 0-1.094.506-1.859 1.504-.766.998-1.532 2.242-2.297 3.719a30.664 30.664 0 0 0 -1.832 4.142l-.629 1.805h-2.666l2.734-10.965h-.205c-.451 0-.902.26-1.34.779-.451.534-.929 1.381-1.435 2.543l-.752-.232c1.422-3.486 3.076-5.236 4.963-5.236h1.955l-1.969 7.205h.342c.834-1.614 1.572-2.94 2.228-3.992.643-1.04 1.327-1.887 2.051-2.53.711-.642 1.449-.957 2.201-.957.657 0 1.176.205 1.559.602.383.41.574.957.574 1.64 0 .383-.055.766-.178 1.163l-2.296 7.875h.164c.464 0 .929-.247 1.38-.739.452-.478.957-1.271 1.491-2.365zm.164 4.211.684-2.693c.957.506 1.914.916 2.871 1.23.943.315 1.695.465 2.256.465.451 0 .807-.109 1.039-.342.232-.232.342-.519.342-.888 0-.247-.082-.479-.233-.711-.15-.219-.396-.438-.738-.67-.328-.233-.793-.506-1.381-.834-.642-.356-1.135-.657-1.463-.903-.683-.519-1.025-1.162-1.025-1.941 0-.273.041-.561.123-.875.178-.725.547-1.422 1.08-2.078a6.554 6.554 0 0 1 1.9-1.572c.725-.397 1.463-.588 2.188-.588h3.281l-.629 2.461h-5.181c-.342 0-.629.082-.834.232a.812.812 0 0 0 -.315.67c0 .369.274.738.82 1.135.165.123.397.273.684.424.287.15.574.3.875.451.725.369 1.244.642 1.531.834.752.492 1.135 1.175 1.135 2.05 0 .315-.041.643-.137.999-.177.669-.492 1.312-.97 1.955a5.679 5.679 0 0 1 -1.764 1.558 4.253 4.253 0 0 1 -2.201.615c-1.039 0-2.352-.328-3.938-.984zm-63.068 22.051-.533 2.133h-1.819c-.041.957-.382 1.845-1.025 2.652-.643.82-1.449 1.559-2.42 2.229l-1.558 1.052c-.452.301-.67.602-.67.916 0 .274.164.561.505.848l2.789 2.406c.588.506.999.944 1.258 1.313.26.382.383.779.383 1.203 0 .205-.027.424-.082.656-.15.588-.492 1.19-1.025 1.791a6.734 6.734 0 0 1 -1.928 1.49c-.752.397-1.531.602-2.338.602-1.053 0-2.133-.233-3.268-.711-1.134-.479-2.078-1.094-2.83-1.846s-1.121-1.504-1.121-2.256c0-.177.014-.328.055-.478.123-.479.369-.889.738-1.217s.889-.629 1.573-.916c.683-.287 1.668-.629 2.966-1.039-.013-.041-.013-.109-.013-.205 0-.397.15-.82.465-1.258.3-.424.683-.793 1.162-1.08-.793-.027-1.463-.178-2.01-.451-.561-.274-.971-.629-1.258-1.08a2.617 2.617 0 0 1 -.424-1.463c0-.274.028-.533.096-.793.219-.889.711-1.75 1.463-2.557a9.042 9.042 0 0 1 2.638-1.941c.999-.479 1.942-.725 2.844-.725.903 0 1.627.246 2.188.725zm-4.963 1.996c0-.506-.109-.902-.314-1.217-.205-.314-.52-.465-.944-.465-.451 0-.902.164-1.367.492-.465.342-.875.78-1.23 1.313a5.414 5.414 0 0 0 -.752 1.682 4.079 4.079 0 0 0 -.123.957c0 .656.205 1.189.601 1.613.397.424.985.684 1.764.779l.082-.082a7.47 7.47 0 0 0 1.312-1.804c.37-.698.643-1.422.834-2.202.096-.355.137-.711.137-1.066zm-4.935 9.557a30.31 30.31 0 0 0 -2.024.779c-.478.205-.807.396-.998.547-.205.164-.328.342-.369.533a1.09 1.09 0 0 0 -.027.178c0 .492.382 1.052 1.134 1.681.752.643 1.668 1.19 2.721 1.641s1.969.684 2.762.684c.41 0 .752-.082 1.039-.247.273-.15.451-.396.533-.724a.963.963 0 0 0 .041-.274c0-.246-.109-.505-.314-.779-.205-.26-.588-.629-1.135-1.107zm23.105-3.815c-1.477 3.281-3.172 4.922-5.1 4.922h-1.709l2.051-7.547h-.342c-.929 1.723-1.763 3.131-2.488 4.238-.738 1.108-1.476 1.983-2.215 2.625-.738.643-1.476.957-2.215.957-.765 0-1.353-.259-1.763-.779-.424-.519-.629-1.203-.629-2.037 0-.451.055-.902.178-1.353.273-1.094.793-2.243 1.572-3.446a16.68 16.68 0 0 1 2.857-3.336c1.135-1.025 2.352-1.845 3.664-2.433h5.182l-2.748 11.006h.109c.465 0 .93-.247 1.381-.739.451-.478.957-1.271 1.504-2.365zm-7.875.274c1.135-1.6 2.201-3.377 3.227-5.332l.464-.903h-3.636a11.276 11.276 0 0 0 -2.27 2.748c-.642 1.08-1.094 2.092-1.34 3.063a5.317 5.317 0 0 0 -.164 1.258c0 .478.082.861.246 1.148s.41.424.739.424c.697 0 1.599-.807 2.734-2.406zm17.254-14.342-.725 2.857h-3.035l.738-2.857zm-2.926 16.146c.451-.478.957-1.271 1.504-2.365l.711.287c-1.477 3.281-3.172 4.922-5.1 4.922h-2.091l3.076-10.965h-.342c-.451 0-.902.26-1.34.779-.451.534-.93 1.381-1.435 2.543l-.752-.232c1.421-3.486 3.076-5.236 4.962-5.236h2.297l-3.103 11.006h.232c.465 0 .93-.247 1.381-.739zm18.115-2.078c-1.49 3.281-3.185 4.922-5.113 4.922h-2.051l2.776-9.57c.082-.274.123-.534.123-.78 0-.546-.219-.82-.643-.82-.478 0-1.094.506-1.859 1.504-.766.998-1.531 2.242-2.297 3.719a30.664 30.664 0 0 0 -1.832 4.142l-.629 1.805h-2.666l2.734-10.965h-.205c-.451 0-.902.26-1.34.779-.451.534-.929 1.381-1.435 2.543l-.752-.232c1.422-3.486 3.076-5.236 4.963-5.236h1.955l-1.969 7.205h.342c.834-1.614 1.572-2.94 2.228-3.992.643-1.04 1.327-1.887 2.051-2.53.711-.642 1.449-.957 2.201-.957.657 0 1.176.205 1.559.602.383.41.574.957.574 1.64 0 .383-.054.766-.178 1.163l-2.296 7.875h.164c.465 0 .929-.247 1.381-.739.451-.478.957-1.271 1.49-2.365zm10.063-8.189c.355.191.642.451.848.793.205.341.314.752.314 1.203 0 .232-.041.492-.109.779-.288 1.148-1.012 1.996-2.174 2.529-1.162.547-2.762.875-4.813.998a10.03 10.03 0 0 0 -.15 1.586c0 .985.205 1.764.601 2.338.397.588.971.875 1.737.875a2.56 2.56 0 0 0 1.572-.519c.451-.342.875-.834 1.299-1.477l.656.342c-.601 1.244-1.326 2.201-2.174 2.898-.847.698-1.791 1.039-2.83 1.039-.779 0-1.435-.177-1.996-.519a3.248 3.248 0 0 1 -1.271-1.436c-.287-.615-.438-1.339-.438-2.16 0-.615.082-1.271.26-1.955.314-1.271.861-2.488 1.627-3.65.765-1.162 1.668-2.119 2.693-2.844 1.026-.725 2.078-1.094 3.145-1.094.437 0 .834.096 1.203.274zm-1.668 2.474c0-.396-.082-.724-.246-.97-.164-.233-.41-.356-.725-.356-.656 0-1.271.41-1.832 1.231-.574.834-1.012 1.859-1.312 3.089 1.298-.068 2.242-.287 2.843-.628a2.374 2.374 0 0 0 1.163-1.518c.068-.315.109-.602.109-.848zm15.982 7.793c.451-.478.957-1.271 1.491-2.365l.724.287c-1.49 3.281-3.185 4.922-5.099 4.922h-1.723l2.201-7.957h-.342c-1.052 1.9-1.955 3.418-2.734 4.58s-1.545 2.051-2.297 2.693c-.752.643-1.531.957-2.324.957-.807 0-1.449-.287-1.901-.861-.464-.56-.697-1.299-.697-2.187 0-.411.055-.834.164-1.286.26-1.066.78-2.187 1.559-3.349a16.631 16.631 0 0 1 2.844-3.268 15.235 15.235 0 0 1 3.636-2.433h2.981l1.134-4.526-1.818-.957.164-.683 5.045-.793-4.484 17.965h.095c.465 0 .93-.247 1.381-.739zm-2.078-8.039h-3.978a11.759 11.759 0 0 0 -2.338 2.694c-.67 1.052-1.108 2.05-1.34 2.994a4.79 4.79 0 0 0 -.164 1.189c0 .533.109.957.314 1.272.205.328.493.492.862.492.711-.014 1.613-.725 2.693-2.16 1.08-1.422 2.133-3.09 3.158-4.991z" fill="#e3ded4"/><g clip-rule="evenodd" fill="#f6f2e7" fill-rule="evenodd"><path d="m327 222h-170v-2h172v172h-2z"/><path d="m229.293 318.293 98-98 1.414 1.414-98 98z"/><path d="m229.293 356.293 98-98 1.414 1.414-98 98z"/><path d="m229.293 394.293 98-98 1.414 1.414-98 98z"/><path d="m229.293 432.293 98-98 1.414 1.414-98 98z"/><path d="m229.293 458.293 98-98 1.414 1.414-98 98z"/><path d="m191.293 318.293 98-98 1.414 1.414-98 98z"/><path d="m153.293 318.293 98-98 1.414 1.414-98 98z"/><path d="m115.293 318.293 98-98 1.414 1.414-98 98z"/></g><path d="m71 0h27.129c.469 248.846 202.504 450.46 451.871 450.927v27.073h-479z" fill="#8738ec"/><path clip-rule="evenodd" d="m549.998 451.927c-249.916-.468-452.4-202.526-452.87-451.925l2-.004c.469 248.293 202.056 449.463 450.874 449.929z" fill="#f6f2e7" fill-rule="evenodd"/><path d="m139.889 297.207a6.865 6.865 0 0 1 -2.68-2.871c-.615-1.217-.93-2.557-.93-4.047 0-.916.11-1.832.342-2.748.438-1.764 1.149-3.309 2.133-4.648.984-1.327 2.174-2.366 3.582-3.104s2.939-1.107 4.607-1.107c1.6 0 2.995.355 4.17 1.052a7.076 7.076 0 0 1 2.68 2.885c.615 1.217.916 2.557.916 4.047 0 .916-.109 1.832-.342 2.748-.437 1.764-1.148 3.322-2.133 4.648-.984 1.34-2.173 2.379-3.582 3.104-1.408.738-2.939 1.107-4.607 1.107-1.6 0-2.994-.355-4.156-1.066zm8.394-2.078c1.08-1.272 1.955-3.199 2.598-5.811.396-1.545.588-2.925.588-4.129 0-1.668-.383-2.966-1.162-3.882-.78-.916-1.969-1.381-3.582-1.381-1.586 0-2.926.629-4.02 1.9-1.094 1.272-1.969 3.213-2.611 5.811-.383 1.517-.574 2.884-.574 4.129 0 1.681.382 2.98 1.162 3.896.765.916 1.955 1.381 3.568 1.381 1.6 0 2.939-.643 4.033-1.914zm11.676.027c.451-.478.957-1.271 1.504-2.365l.711.287c-1.477 3.281-3.172 4.922-5.1 4.922h-1.886l4.402-17.596-1.832-.97.164-.684 5.058-.793-4.484 17.938h.082c.465 0 .93-.247 1.381-.739zm15.832 0c.451-.478.957-1.271 1.49-2.365l.725.287c-1.49 3.281-3.186 4.922-5.1 4.922h-1.722l2.201-7.957h-.342c-1.053 1.9-1.955 3.418-2.734 4.58-.78 1.162-1.545 2.051-2.297 2.693-.752.643-1.532.957-2.324.957-.807 0-1.45-.287-1.901-.861-.465-.56-.697-1.299-.697-2.187 0-.411.055-.834.164-1.286.26-1.066.779-2.187 1.558-3.349a16.664 16.664 0 0 1 2.844-3.268 15.26 15.26 0 0 1 3.637-2.433h2.98l1.135-4.526-1.818-.957.164-.683 5.045-.793-4.485 17.965h.096c.465 0 .93-.247 1.381-.739zm-2.078-8.039h-3.979a11.783 11.783 0 0 0 -2.338 2.694c-.669 1.052-1.107 2.05-1.339 2.994-.11.424-.164.82-.164 1.189 0 .533.109.957.314 1.272.205.328.492.492.861.492.711-.014 1.614-.725 2.694-2.16 1.08-1.422 2.133-3.09 3.158-4.991zm-53.895 32.442c.916.464 1.614 1.093 2.106 1.886.478.807.724 1.709.724 2.707 0 .506-.068 1.053-.205 1.614a8.641 8.641 0 0 1 -1.914 3.636 11.599 11.599 0 0 1 -3.254 2.598h-3.964l-1.299 5.25 2.037.533-.178.656h-6.726l.177-.656 1.928-.519 4.102-16.352a8.402 8.402 0 0 0 -1.709.588 7.085 7.085 0 0 0 -1.45.889l-.451-.547a15.9 15.9 0 0 1 1.914-1.531 8.802 8.802 0 0 1 2.106-1.012l.697-2.789h2.721l-.588 2.351c1.244.014 2.31.246 3.226.698zm.575 6.22c0-1.312-.37-2.406-1.122-3.295-.751-.888-1.804-1.435-3.171-1.654l-2.229 8.928h5.154c.561-.574.93-1.285 1.135-2.119a7.762 7.762 0 0 0 .233-1.86zm6.302 5.825c-.711-.438-1.244-1.053-1.613-1.846-.369-.779-.561-1.682-.561-2.694 0-.724.096-1.476.288-2.255.314-1.245.779-2.338 1.421-3.282.629-.929 1.381-1.654 2.243-2.16a5.404 5.404 0 0 1 2.789-.752c.97 0 1.818.219 2.529.67a4.415 4.415 0 0 1 1.613 1.846c.369.779.547 1.681.547 2.693 0 .711-.096 1.463-.287 2.256-.314 1.244-.779 2.338-1.408 3.268-.643.943-1.395 1.654-2.256 2.16a5.404 5.404 0 0 1 -2.775.765c-.971 0-1.819-.218-2.53-.669zm4.293-1.559c.533-.82 1.012-2.119 1.463-3.91.424-1.696.643-3.049.643-4.047 0-1.654-.574-2.475-1.723-2.475-.725 0-1.353.41-1.887 1.231-.533.82-1.011 2.119-1.463 3.91-.423 1.654-.628 3.008-.628 4.033 0 .82.136 1.436.423 1.859.274.424.711.629 1.299.629.725 0 1.34-.41 1.873-1.23zm5.66 1.244.684-2.693c.957.506 1.914.916 2.871 1.23.943.315 1.695.465 2.256.465.451 0 .807-.109 1.039-.342.232-.232.342-.519.342-.888 0-.247-.082-.479-.233-.711-.15-.219-.396-.438-.738-.67-.328-.233-.793-.506-1.381-.834-.642-.356-1.134-.657-1.463-.903-.683-.519-1.025-1.162-1.025-1.941 0-.273.041-.561.123-.875.178-.725.547-1.422 1.08-2.078a6.545 6.545 0 0 1 1.901-1.572c.724-.397 1.462-.588 2.187-.588h3.281l-.629 2.461h-5.181c-.342 0-.629.082-.834.232a.812.812 0 0 0 -.315.67c0 .369.274.738.821 1.135.164.123.396.273.683.424.287.15.574.3.875.451.725.369 1.244.642 1.531.834.752.492 1.135 1.175 1.135 2.05 0 .315-.041.643-.137.999-.177.669-.492 1.312-.97 1.955a5.679 5.679 0 0 1 -1.764 1.558 4.253 4.253 0 0 1 -2.201.615c-1.039 0-2.352-.328-3.938-.984zm19.784-18.279-.725 2.857h-3.035l.738-2.857zm-2.926 16.146c.451-.478.957-1.271 1.504-2.365l.711.287c-1.477 3.281-3.172 4.922-5.1 4.922h-2.092l3.076-10.965h-.341c-.452 0-.903.26-1.34.779-.451.534-.93 1.381-1.436 2.543l-.752-.232c1.422-3.486 3.076-5.236 4.963-5.236h2.297l-3.103 11.006h.232c.465 0 .93-.247 1.381-.739zm6.918-.396c-.041.15-.069.328-.069.506 0 .287.083.505.233.656.15.15.355.232.615.232.424 0 .889-.273 1.381-.834.492-.547 1.053-1.394 1.668-2.529l.697.383c-.861 1.627-1.709 2.885-2.543 3.773-.834.889-1.736 1.326-2.693 1.326-.697 0-1.258-.205-1.654-.615-.411-.41-.616-.957-.616-1.654 0-.301.041-.615.123-.943l2.188-8.764h-2.16l.342-1.408h2.173l.821-3.309h2.789l-.821 3.309h3.514l-.355 1.408h-3.514zm14.273-15.75-.724 2.857h-3.035l.738-2.857zm-2.926 16.146c.452-.478.958-1.271 1.504-2.365l.711.287c-1.476 3.281-3.172 4.922-5.099 4.922h-2.092l3.076-10.965h-.342c-.451 0-.902.26-1.34.779-.451.534-.929 1.381-1.435 2.543l-.752-.232c1.422-3.486 3.076-5.236 4.963-5.236h2.297l-3.104 11.006h.233c.464 0 .929-.247 1.38-.739zm5.784 2.448c-.711-.438-1.244-1.053-1.614-1.846-.369-.779-.56-1.682-.56-2.694 0-.724.096-1.476.287-2.255.314-1.245.779-2.338 1.422-3.282.629-.929 1.381-1.654 2.242-2.16a5.404 5.404 0 0 1 2.789-.752c.971 0 1.818.219 2.529.67a4.41 4.41 0 0 1 1.614 1.846c.369.779.547 1.681.547 2.693 0 .711-.096 1.463-.288 2.256-.314 1.244-.779 2.338-1.408 3.268-.642.943-1.394 1.654-2.256 2.16a5.404 5.404 0 0 1 -2.775.765c-.971 0-1.818-.218-2.529-.669zm4.293-1.559c.533-.82 1.011-2.119 1.463-3.91.423-1.696.642-3.049.642-4.047 0-1.654-.574-2.475-1.723-2.475-.724 0-1.353.41-1.886 1.231-.533.82-1.012 2.119-1.463 3.91-.424 1.654-.629 3.008-.629 4.033 0 .82.137 1.436.424 1.859.273.424.711.629 1.299.629.724 0 1.339-.41 1.873-1.23zm21.41-2.967c-1.49 3.281-3.186 4.922-5.113 4.922h-2.051l2.775-9.57c.082-.274.123-.534.123-.78 0-.546-.219-.82-.642-.82-.479 0-1.094.506-1.86 1.504-.765.998-1.531 2.242-2.297 3.719a30.664 30.664 0 0 0 -1.832 4.142l-.629 1.805h-2.666l2.735-10.965h-.205c-.451 0-.903.26-1.34.779-.451.534-.93 1.381-1.436 2.543l-.752-.232c1.422-3.486 3.077-5.236 4.963-5.236h1.955l-1.968 7.205h.341c.834-1.614 1.573-2.94 2.229-3.992.642-1.04 1.326-1.887 2.051-2.53.711-.642 1.449-.957 2.201-.957.656 0 1.176.205 1.558.602.383.41.575.957.575 1.64 0 .383-.055.766-.178 1.163l-2.297 7.875h.164c.465 0 .93-.247 1.381-.739.451-.478.957-1.271 1.49-2.365z" fill="#e3ded4"/><path d="m228.424 364.955-.205.738-2.543.875-4.362 17.432h-2.419l-5.866-17.336h-.246l-3.951 15.723 2.106.888-.178.725h-5.934l.205-.725 2.557-.888 3.992-15.996-1.928-.698.164-.738h5.989l5.181 15.299 3.432-13.672-2.106-.889.178-.738zm6.808 5.934c.356.191.643.451.848.793.205.341.315.752.315 1.203 0 .232-.041.492-.11.779-.287 1.148-1.012 1.996-2.174 2.529-1.162.547-2.761.875-4.812.998a9.922 9.922 0 0 0 -.151 1.586c0 .985.206 1.764.602 2.338.396.588.971.875 1.736.875.588 0 1.121-.178 1.573-.519.451-.342.875-.834 1.298-1.477l.657.342c-.602 1.244-1.326 2.201-2.174 2.898-.848.698-1.791 1.039-2.83 1.039-.78 0-1.436-.177-1.996-.519a3.244 3.244 0 0 1 -1.272-1.436c-.287-.615-.437-1.339-.437-2.16 0-.615.082-1.271.259-1.955.315-1.271.862-2.488 1.627-3.65.766-1.162 1.668-2.119 2.694-2.844 1.025-.725 2.078-1.094 3.144-1.094.438 0 .834.096 1.203.274zm-1.668 2.474c0-.396-.082-.724-.246-.97-.164-.233-.41-.356-.724-.356-.656 0-1.272.41-1.832 1.231-.574.834-1.012 1.859-1.313 3.089 1.299-.068 2.242-.287 2.844-.628a2.373 2.373 0 0 0 1.162-1.518c.068-.315.109-.602.109-.848zm22.696-2.474v1.162c0 2.092-.397 4.088-1.203 5.974-.807 1.887-1.832 3.405-3.049 4.539-1.217 1.135-2.406 1.709-3.569 1.709-.861 0-1.503-.259-1.927-.765s-.657-1.176-.698-2.037h-.136c-.629.888-1.299 1.586-2.01 2.064-.725.492-1.477.738-2.256.738-.724 0-1.299-.246-1.736-.752-.451-.492-.67-1.148-.67-1.955 0-.341.055-.724.15-1.148l1.805-7.205h-3.213l.588-2.324h5.852l-2.243 8.996c-.095.342-.136.67-.136.998 0 .424.095.738.287.971.191.232.492.355.888.355.465 0 .916-.191 1.368-.588.437-.383.834-.902 1.175-1.559a9.974 9.974 0 0 0 .821-2.146l1.763-7.027h2.653l-2.078 8.326c-.124.506-.192.957-.192 1.326 0 .533.123.943.369 1.23.246.288.629.438 1.135.438.643 0 1.258-.301 1.846-.916s1.052-1.449 1.408-2.516c.355-1.066.533-2.242.533-3.513v-4.375zm-61.442 34.67c.916.464 1.614 1.093 2.106 1.886.478.807.724 1.709.724 2.707 0 .506-.068 1.053-.205 1.614a8.641 8.641 0 0 1 -1.914 3.636 11.599 11.599 0 0 1 -3.254 2.598h-3.964l-1.299 5.25 2.037.533-.178.656h-6.726l.177-.656 1.928-.519 4.102-16.352a8.402 8.402 0 0 0 -1.709.588 7.085 7.085 0 0 0 -1.45.889l-.451-.547a15.9 15.9 0 0 1 1.914-1.531 8.802 8.802 0 0 1 2.106-1.012l.697-2.789h2.721l-.588 2.351c1.244.014 2.31.246 3.226.698zm.575 6.22c0-1.312-.37-2.406-1.122-3.295-.751-.888-1.804-1.435-3.171-1.654l-2.229 8.928h5.154c.561-.574.93-1.285 1.135-2.119a7.762 7.762 0 0 0 .233-1.86zm6.302 5.825c-.711-.438-1.244-1.053-1.613-1.846-.369-.779-.561-1.682-.561-2.694 0-.724.096-1.476.288-2.255.314-1.245.779-2.338 1.421-3.282.629-.929 1.381-1.654 2.243-2.16a5.404 5.404 0 0 1 2.789-.752c.97 0 1.818.219 2.529.67a4.415 4.415 0 0 1 1.613 1.846c.369.779.547 1.681.547 2.693 0 .711-.096 1.463-.287 2.256-.314 1.244-.779 2.338-1.408 3.268-.643.943-1.395 1.654-2.256 2.16a5.404 5.404 0 0 1 -2.775.765c-.971 0-1.819-.218-2.53-.669zm4.293-1.559c.533-.82 1.012-2.119 1.463-3.91.424-1.696.643-3.049.643-4.047 0-1.654-.574-2.475-1.723-2.475-.725 0-1.353.41-1.887 1.231-.533.82-1.011 2.119-1.463 3.91-.423 1.654-.628 3.008-.628 4.033 0 .82.136 1.436.423 1.859.274.424.711.629 1.299.629.725 0 1.34-.41 1.873-1.23zm5.66 1.244.684-2.693c.957.506 1.914.916 2.871 1.23.943.315 1.695.465 2.256.465.451 0 .807-.109 1.039-.342.232-.232.342-.519.342-.888 0-.247-.082-.479-.233-.711-.15-.219-.396-.438-.738-.67-.328-.233-.793-.506-1.381-.834-.642-.356-1.134-.657-1.463-.903-.683-.519-1.025-1.162-1.025-1.941 0-.273.041-.561.123-.875.178-.725.547-1.422 1.08-2.078a6.545 6.545 0 0 1 1.901-1.572c.724-.397 1.462-.588 2.187-.588h3.281l-.629 2.461h-5.181c-.342 0-.629.082-.834.232a.812.812 0 0 0 -.315.67c0 .369.274.738.821 1.135.164.123.396.273.683.424.287.15.574.3.875.451.725.369 1.244.642 1.531.834.752.492 1.135 1.175 1.135 2.05 0 .315-.041.643-.137.999-.177.669-.492 1.312-.97 1.955a5.679 5.679 0 0 1 -1.764 1.558 4.253 4.253 0 0 1 -2.201.615c-1.039 0-2.352-.328-3.938-.984zm19.784-18.279-.725 2.857h-3.035l.738-2.857zm-2.926 16.146c.451-.478.957-1.271 1.504-2.365l.711.287c-1.477 3.281-3.172 4.922-5.1 4.922h-2.092l3.076-10.965h-.341c-.452 0-.903.26-1.34.779-.451.534-.93 1.381-1.436 2.543l-.752-.232c1.422-3.486 3.076-5.236 4.963-5.236h2.297l-3.103 11.006h.232c.465 0 .93-.247 1.381-.739zm6.918-.396c-.041.15-.069.328-.069.506 0 .287.083.505.233.656.15.15.355.232.615.232.424 0 .889-.273 1.381-.834.492-.547 1.053-1.394 1.668-2.529l.697.383c-.861 1.627-1.709 2.885-2.543 3.773-.834.889-1.736 1.326-2.693 1.326-.697 0-1.258-.205-1.654-.615-.411-.41-.616-.957-.616-1.654 0-.301.041-.615.123-.943l2.188-8.764h-2.16l.342-1.408h2.173l.821-3.309h2.789l-.821 3.309h3.514l-.355 1.408h-3.514zm14.273-15.75-.724 2.857h-3.035l.738-2.857zm-2.926 16.146c.452-.478.958-1.271 1.504-2.365l.711.287c-1.476 3.281-3.172 4.922-5.099 4.922h-2.092l3.076-10.965h-.342c-.451 0-.902.26-1.34.779-.451.534-.929 1.381-1.435 2.543l-.752-.232c1.422-3.486 3.076-5.236 4.963-5.236h2.297l-3.104 11.006h.233c.464 0 .929-.247 1.38-.739zm5.784 2.448c-.711-.438-1.244-1.053-1.614-1.846-.369-.779-.56-1.682-.56-2.694 0-.724.096-1.476.287-2.255.314-1.245.779-2.338 1.422-3.282.629-.929 1.381-1.654 2.242-2.16a5.404 5.404 0 0 1 2.789-.752c.971 0 1.818.219 2.529.67a4.41 4.41 0 0 1 1.614 1.846c.369.779.547 1.681.547 2.693 0 .711-.096 1.463-.288 2.256-.314 1.244-.779 2.338-1.408 3.268-.642.943-1.394 1.654-2.256 2.16a5.404 5.404 0 0 1 -2.775.765c-.971 0-1.818-.218-2.529-.669zm4.293-1.559c.533-.82 1.011-2.119 1.463-3.91.423-1.696.642-3.049.642-4.047 0-1.654-.574-2.475-1.723-2.475-.724 0-1.353.41-1.886 1.231-.533.82-1.012 2.119-1.463 3.91-.424 1.654-.629 3.008-.629 4.033 0 .82.137 1.436.424 1.859.273.424.711.629 1.299.629.724 0 1.339-.41 1.873-1.23zm21.41-2.967c-1.49 3.281-3.186 4.922-5.113 4.922h-2.051l2.775-9.57c.082-.274.123-.534.123-.78 0-.546-.219-.82-.642-.82-.479 0-1.094.506-1.86 1.504-.765.998-1.531 2.242-2.297 3.719a30.664 30.664 0 0 0 -1.832 4.142l-.629 1.805h-2.666l2.735-10.965h-.205c-.451 0-.903.26-1.34.779-.451.534-.93 1.381-1.436 2.543l-.752-.232c1.422-3.486 3.077-5.236 4.963-5.236h1.955l-1.968 7.205h.341c.834-1.614 1.573-2.94 2.229-3.992.642-1.04 1.326-1.887 2.051-2.53.711-.642 1.449-.957 2.201-.957.656 0 1.176.205 1.558.602.383.41.575.957.575 1.64 0 .383-.055.766-.178 1.163l-2.297 7.875h.164c.465 0 .93-.247 1.381-.739.451-.478.957-1.271 1.49-2.365z" fill="#e3ded4"/><path d="m157 252c17.121 0 31-13.879 31-31s-13.879-31-31-31-31 13.879-31 31 13.879 31 31 31z" fill="#f6f2e7"/><path d="m157 238c9.389 0 17-7.611 17-17s-7.611-17-17-17-17 7.611-17 17 7.611 17 17 17z" fill="#fe970c"/><path d="m328 423c17.121 0 31-13.879 31-31s-13.879-31-31-31-31 13.879-31 31 13.879 31 31 31z" fill="#f6f2e7"/><path d="m328 409c9.389 0 17-7.611 17-17s-7.611-17-17-17-17 7.611-17 17 7.611 17 17 17z" fill="#fb50c0"/></svg>