<svg fill="none" viewBox="0 0 350 262" xmlns="http://www.w3.org/2000/svg" xmlns:xlink="http://www.w3.org/1999/xlink"><clipPath id="a"><path d="m0 0h350v262h-350z"/></clipPath><g clip-path="url(#a)"><path d="m0 0h350v262h-350z" fill="#bbb6af"/><g clip-rule="evenodd" fill-rule="evenodd"><path d="m329.982 140a29.575 29.575 0 0 0 -20.912 8.662l-24.408 24.408a47.574 47.574 0 0 1 -33.64 13.934h-20.022v-18h20.022a29.574 29.574 0 0 0 20.912-8.662l24.408-24.408a47.574 47.574 0 0 1 33.64-13.934h20.022v18z" fill="#cfcac2"/><path d="m210.982 140a29.575 29.575 0 0 0 -20.912 8.662l-24.408 24.408a47.574 47.574 0 0 1 -33.64 13.934h-20.022v-18h20.022a29.574 29.574 0 0 0 20.912-8.662l24.408-24.408a47.574 47.574 0 0 1 33.64-13.934h20.022v18z" fill="#cfcac2"/><path d="m91.982 140a29.575 29.575 0 0 0 -20.912 8.662l-24.408 24.408a47.574 47.574 0 0 1 -33.64 13.934h-20.022v-18h20.022a29.575 29.575 0 0 0 20.912-8.662l24.408-24.408a47.574 47.574 0 0 1 33.64-13.934h20.022v18z" fill="#cfcac2"/><path d="m329.982 187a29.575 29.575 0 0 0 -20.912 8.662l-24.408 24.408a47.574 47.574 0 0 1 -33.64 13.934h-20.022v-18h20.022a29.574 29.574 0 0 0 20.912-8.662l24.408-24.408a47.574 47.574 0 0 1 33.64-13.934h20.022v18z" fill="#cfcac2"/><path d="m210.982 187a29.575 29.575 0 0 0 -20.912 8.662l-24.408 24.408a47.574 47.574 0 0 1 -33.64 13.934h-20.022v-18h20.022a29.574 29.574 0 0 0 20.912-8.662l24.408-24.408a47.574 47.574 0 0 1 33.64-13.934h20.022v18z" fill="#cfcac2"/><path d="m91.982 187a29.575 29.575 0 0 0 -20.912 8.662l-24.408 24.408a47.574 47.574 0 0 1 -33.64 13.934h-20.022v-18h20.022a29.575 29.575 0 0 0 20.912-8.662l24.408-24.408a47.574 47.574 0 0 1 33.64-13.934h20.022v18z" fill="#cfcac2"/><path d="m329.982 234a29.575 29.575 0 0 0 -20.912 8.662l-24.408 24.408a47.574 47.574 0 0 1 -33.64 13.934h-20.022v-18h20.022a29.574 29.574 0 0 0 20.912-8.662l24.408-24.408a47.574 47.574 0 0 1 33.64-13.934h20.022v18z" fill="#cfcac2"/><path d="m210.982 234a29.575 29.575 0 0 0 -20.912 8.662l-24.408 24.408a47.574 47.574 0 0 1 -33.64 13.934h-20.022v-18h20.022a29.574 29.574 0 0 0 20.912-8.662l24.408-24.408a47.574 47.574 0 0 1 33.64-13.934h20.022v18z" fill="#cfcac2"/><path d="m91.982 234a29.575 29.575 0 0 0 -20.912 8.662l-24.408 24.408a47.574 47.574 0 0 1 -33.64 13.934h-20.022v-18h20.022a29.575 29.575 0 0 0 20.912-8.662l24.408-24.408a47.574 47.574 0 0 1 33.64-13.934h20.022v18z" fill="#cfcac2"/><path d="m0 122h350v18h-350z" fill="#cfcac2"/><g fill="#fb50c0"><path d="m86 131v-131h2v131z"/><path d="m262 131v-131h2v131z"/><path d="m218 131v-131h2v131z"/><path d="m240 131v-131h2v131z"/><path d="m251 131v-131h2v131z"/><path d="m229 131v-131h2v131z"/><path d="m207 131v-131h2v131z"/><path d="m185 131v-131h2v131z"/><path d="m163 131v-131h2v131z"/><path d="m141 131v-131h2v131z"/><path d="m119 131v-131h2v131z"/><path d="m97 131v-131h2v131z"/><path d="m196 131v-131h2v131z"/><path d="m152 131v-131h2v131z"/><path d="m130 131v-131h2v131z"/><path d="m108 131v-131h2v131z"/></g><path d="m255.525 168.659c5.368-11.449 8.368-24.231 8.368-37.713-0-49.123-39.823-88.946-88.947-88.946-49.123 0-88.946 39.823-88.946 88.946 0 37.819 23.603 70.126 56.882 82.992a29.55 29.55 0 0 0 10.052-6.596l24.408-24.408a47.574 47.574 0 0 1 33.64-13.934h20.022v.004h20.018c1.517 0 3.022-.116 4.503-.345z" fill="#f6f2e7"/><path d="m214.599 169c9.48-9.875 15.306-23.284 15.306-38.054 0-30.353-24.606-54.959-54.959-54.959s-54.958 24.606-54.958 54.959c0 30.162 24.297 54.649 54.386 54.956l2.968-2.968a47.574 47.574 0 0 1 33.64-13.934z" fill="#fe970c"/><path d="m174 76v-76h2v76z" fill="#fb50c0"/><path d="m176 76v48h-2v-48z" fill="#f6f2e7"/></g><path d="m163 124h24l-12 24z" fill="#f6f2e7"/></g></svg>