<svg fill="none" height="611" width="611" xmlns="http://www.w3.org/2000/svg"><path d="m0 0h611v611h-611z" fill="#f6f2e7"/><path d="m0 128.574h611v175.827h-611z" fill="#fe970c"/><circle cx="176.926" cy="176.926" fill="#e3ded4" r="176.926" transform="matrix(1 0 0 -1 128.574 482.426)"/><path d="m305.5 482.426c-97.714 0-176.926-79.212-176.926-176.926h353.852c0 97.714-79.212 176.926-176.926 176.926z" fill="#57c3ff"/><circle cx="103.299" cy="103.299" fill="#f6f2e7" r="103.299" transform="matrix(1 0 0 -1 202.201 407.7)"/><path d="m305.5 407.7c-57.05 0-103.299-45.757-103.299-102.2h206.597c0 56.443-46.248 102.2-103.298 102.2z" fill="#3a86ff"/><path d="m305.5 278.027v-150.552" stroke="#211715" stroke-width="2"/><path d="m292.313 278.027h26.374l-13.187 26.374z" fill="#211715"/><path d="m362.644 278.027v-150.552" stroke="#211715" stroke-width="2"/><path d="m349.457 278.027h26.374l-13.187 26.374z" fill="#211715"/><path d="m248.356 278.027v-150.552" stroke="#211715" stroke-width="2"/><path d="m235.169 278.027h26.374l-13.187 26.374z" fill="#211715"/><path d="m611 246.158h-611m611-117.584h-611m611 235.169h-611m611 117.584h-611" stroke="#211715" stroke-dasharray="4 4" stroke-width="2"/><path d="m293.9 576.561c-7.91-7.781-9.36-19.884-3.507-29.261l20.602-33.005 20.601 33.005c5.854 9.377 4.403 21.48-3.507 29.261-9.441 9.288-24.748 9.288-34.189 0z" fill="#3a86ff"/></svg>