<svg viewBox="0 0 350 262" fill="none" xmlns="http://www.w3.org/2000/svg"><g clip-path="url(#a)"><path fill="#CFCAC2" d="M0 0h350v262H0z"/><path fill-rule="evenodd" clip-rule="evenodd" d="m-70.69-66.277 179.999 172 1.382-1.446-180-172-1.382 1.446Zm26 0 179.999 172 1.382-1.446-180-172-1.382 1.446Zm26 0 179.999 172 1.382-1.446-180-172-1.382 1.446Zm26 0 179.999 172 1.382-1.446-180-172-1.382 1.446Zm26 0 179.999 172 1.382-1.446-.29-.277H215V44h11l-12-24-12 24h11v58.661L34.69-67.723l-1.38 1.446ZM251 44.11V104h-2V44.11h-11l12-24 12 24h-11Zm18 29V104h-2V73.11h-11l12-24 12 24h-11Zm-38 0h-11l12-24 12 24h-11V104h-2V73.11Zm56-29V104h-2V44.11h-11l12-24 12 24h-11Z" fill="#FB5607"/><path d="M71.07 148.662A29.575 29.575 0 0 1 91.982 140h20.022v-9h71.133a47.535 47.535 0 0 0-5.795 4.934l-24.408 24.408a29.574 29.574 0 0 1-20.912 8.662h-20.018V169H91.982a47.574 47.574 0 0 0-33.64 13.934l-24.408 24.408a29.575 29.575 0 0 1-20.912 8.662H0v-29h13.022a47.574 47.574 0 0 0 33.64-13.934l24.408-24.408Z" fill="#BBB6AF"/><path d="M0 169.004h13.022a29.575 29.575 0 0 0 20.912-8.662l24.408-24.408A47.61 47.61 0 0 1 64.137 131H0v38.004Z" fill="#BBB6AF"/><path d="M0 234.004V262h20.663a29.57 29.57 0 0 0 13.271-7.658l24.408-24.408A47.574 47.574 0 0 1 91.982 216h20.022v.004h20.018a29.574 29.574 0 0 0 20.912-8.662l24.408-24.408A47.574 47.574 0 0 1 210.982 169h20.022v.004h20.018a29.574 29.574 0 0 0 20.912-8.662l24.408-24.408a47.535 47.535 0 0 1 5.795-4.934h-71.133v9h-20.022a29.575 29.575 0 0 0-20.912 8.662l-24.408 24.408a47.574 47.574 0 0 1-33.64 13.934H112V187H91.982a29.575 29.575 0 0 0-20.912 8.662L46.662 220.07a47.574 47.574 0 0 1-33.64 13.934H0Z" fill="#BBB6AF"/><path d="M350 140h-20.018a29.575 29.575 0 0 0-20.912 8.662l-24.408 24.408a47.574 47.574 0 0 1-33.64 13.934H231V187h-20.018a29.575 29.575 0 0 0-20.912 8.662l-24.408 24.408a47.574 47.574 0 0 1-33.64 13.934H112V234H91.982a29.575 29.575 0 0 0-20.912 8.662L51.732 262h87.931a29.57 29.57 0 0 0 13.271-7.658l24.408-24.408A47.574 47.574 0 0 1 210.982 216h20.022v.004h20.018a29.574 29.574 0 0 0 20.912-8.662l24.408-24.408A47.574 47.574 0 0 1 329.982 169H350v-29Z" fill="#BBB6AF"/><path d="M350 187h-20.018a29.575 29.575 0 0 0-20.912 8.662l-24.408 24.408a47.574 47.574 0 0 1-33.64 13.934H231V234h-20.018a29.575 29.575 0 0 0-20.912 8.662L170.732 262h87.931a29.57 29.57 0 0 0 13.271-7.658l24.408-24.408A47.574 47.574 0 0 1 329.982 216H350v-29Z" fill="#BBB6AF"/><path d="M350 234h-20.018a29.575 29.575 0 0 0-20.912 8.662L289.732 262H350v-28Z" fill="#BBB6AF"/><path fill-rule="evenodd" clip-rule="evenodd" d="M0 122h350v18H0v-18Z" fill="#CFCAC2"/><path fill-rule="evenodd" clip-rule="evenodd" d="M0 104h350v18H0v-18Z" fill="#FB5607"/><path d="M226 192c0 28.167-22.833 51-51 51s-51-22.833-51-51 22.833-51 51-51 51 22.833 51 51Z" fill="#F6F2E7"/><path d="M206.316 192c0 17.295-14.02 31.316-31.316 31.316-17.295 0-31.315-14.021-31.315-31.316 0-17.295 14.02-31.316 31.315-31.316 17.296 0 31.316 14.021 31.316 31.316Z" fill="#FE970C"/></g><defs><clipPath id="a"><path fill="#fff" d="M0 0h350v262H0z"/></clipPath></defs></svg>