<svg fill="none" viewBox="0 0 556 418" xmlns="http://www.w3.org/2000/svg"><path d="m0 0h556v418h-556z" fill="#473f3b"/><path d="m444.325 55.71 38.013-38.082a60.02 60.02 0 0 1 42.48-17.628h-524.818v220h31.182a60.02 60.02 0 0 0 42.48-17.628l38.013-38.082a60.021 60.021 0 0 1 42.48-17.628l62.359.007a60.021 60.021 0 0 0 42.48-17.628l38.012-38.082a60.022 60.022 0 0 1 42.48-17.628l62.359.007a60.022 60.022 0 0 0 42.48-17.628z" fill="#211715"/><path d="m556 45h-556" stroke="#e3ded4" stroke-dasharray="2 4" stroke-width="2"/><path d="m0 358h556v60h-556z" fill="#211715"/><circle cx="384.499" cy="201.501" fill="#f6f2e7" r="156.501"/><circle cx="384.5" cy="201.501" fill="#fe970c" r="96.7"/><circle cx="157.009" cy="279.009" fill="#f6f2e7" r="78.991"/><circle cx="157.011" cy="279.009" fill="#fe970c" r="48.808"/><circle cx="49.001" cy="324" fill="#f6f2e7" r="34.001"/><circle cx="49.001" cy="324" fill="#fe970c" r="21.009"/><path d="m375.116 206.069a4.75 4.75 0 0 1 -1.651 1.771c-.711.456-1.543.738-2.469.832v3.019h-1.194v-2.993a31.435 31.435 0 0 1 -1.704-.12c-.858-.067-1.489-.108-1.892-.108h-.496l-.899-4.092h.631l1.046 1.248c.51.617 1.02 1.087 1.516 1.395.497.322 1.101.524 1.798.591v-5.77a22.512 22.512 0 0 1 -1.61-.563 6.16 6.16 0 0 1 -1.315-.685 4.046 4.046 0 0 1 -1.274-1.382c-.322-.55-.483-1.248-.483-2.093 0-.818.201-1.57.59-2.227.389-.658.939-1.181 1.65-1.597.711-.402 1.543-.631 2.496-.698v-2.978h1.194v2.978c.389.014.845.054 1.396.108.791.067 1.328.107 1.61.107h.389l.872 3.703h-.644l-.993-1.14c-.429-.497-.845-.886-1.248-1.154a3.546 3.546 0 0 0 -1.382-.51v5.099l.564.201c.603.228 1.087.416 1.476.59.389.175.738.376 1.073.618 1.02.751 1.53 1.905 1.53 3.448 0 .872-.188 1.677-.577 2.402zm-7.393-9.03c.187.308.456.563.805.764.335.202.778.416 1.328.618v-4.764c-.751.067-1.342.295-1.771.698-.443.403-.658.926-.658 1.583 0 .443.094.805.296 1.101zm5.058 9.727c.429-.456.644-1.046.644-1.757 0-.698-.188-1.262-.577-1.678s-1.006-.764-1.852-1.06v5.327c.765-.094 1.356-.375 1.785-.832zm16.509-.697a4.747 4.747 0 0 1 -1.65 1.771c-.711.456-1.543.738-2.469.832v3.019h-1.194v-2.993a31.366 31.366 0 0 1 -1.704-.12c-.859-.067-1.49-.108-1.892-.108h-.497l-.899-4.092h.631l1.047 1.248c.509.617 1.019 1.087 1.516 1.395.496.322 1.1.524 1.798.591v-5.77a22.17 22.17 0 0 1 -1.61-.563 6.137 6.137 0 0 1 -1.315-.685 4.05 4.05 0 0 1 -1.275-1.382c-.322-.55-.483-1.248-.483-2.093 0-.818.201-1.57.59-2.227.389-.658.94-1.181 1.651-1.597.711-.402 1.543-.631 2.495-.698v-2.978h1.195v2.978c.389.014.845.054 1.395.108.792.067 1.328.107 1.61.107h.389l.872 3.703h-.644l-.993-1.14c-.429-.497-.845-.886-1.247-1.154a3.552 3.552 0 0 0 -1.382-.51v5.099l.563.201c.604.228 1.087.416 1.476.59.389.175.738.376 1.073.618 1.02.751 1.53 1.905 1.53 3.448 0 .872-.188 1.677-.577 2.402zm-7.393-9.03c.188.308.456.563.805.764.335.202.778.416 1.328.618v-4.764c-.751.067-1.341.295-1.771.698-.443.403-.657.926-.657 1.583 0 .443.094.805.295 1.101zm5.058 9.727c.43-.456.644-1.046.644-1.757 0-.698-.187-1.262-.576-1.678-.39-.416-1.007-.764-1.852-1.06v5.327c.765-.094 1.355-.375 1.784-.832zm16.51-.697a4.758 4.758 0 0 1 -1.651 1.771c-.711.456-1.543.738-2.469.832v3.019h-1.194v-2.993a31.435 31.435 0 0 1 -1.704-.12c-.859-.067-1.489-.108-1.892-.108h-.496l-.899-4.092h.63l1.047 1.248c.51.617 1.02 1.087 1.516 1.395.497.322 1.1.524 1.798.591v-5.77a22.34 22.34 0 0 1 -1.61-.563 6.137 6.137 0 0 1 -1.315-.685 4.05 4.05 0 0 1 -1.275-1.382c-.322-.55-.483-1.248-.483-2.093 0-.818.202-1.57.591-2.227.389-.658.939-1.181 1.65-1.597.711-.402 1.543-.631 2.496-.698v-2.978h1.194v2.978c.389.014.845.054 1.395.108.792.067 1.329.107 1.611.107h.389l.872 3.703h-.644l-.993-1.14c-.43-.497-.845-.886-1.248-1.154a3.552 3.552 0 0 0 -1.382-.51v5.099l.563.201c.604.228 1.087.416 1.476.59.39.175.738.376 1.074.618 1.02.751 1.529 1.905 1.529 3.448 0 .872-.187 1.677-.576 2.402zm-7.394-9.03c.188.308.457.563.805.764.336.202.779.416 1.329.618v-4.764c-.752.067-1.342.295-1.771.698-.443.403-.658.926-.658 1.583 0 .443.094.805.295 1.101zm5.059 9.727c.429-.456.644-1.046.644-1.757 0-.698-.188-1.262-.577-1.678s-1.006-.764-1.852-1.06v5.327c.765-.094 1.355-.375 1.785-.832z" fill="#f6f2e7"/><path d="m154.703 283.084a4.747 4.747 0 0 1 -1.65 1.771c-.712.456-1.544.738-2.469.832v3.019h-1.194v-2.992a32.678 32.678 0 0 1 -1.705-.121c-.858-.067-1.489-.107-1.891-.107h-.497l-.899-4.093h.631l1.046 1.248c.51.617 1.02 1.087 1.517 1.396.496.322 1.1.523 1.798.59v-5.77a21.9 21.9 0 0 1 -1.611-.563 6.16 6.16 0 0 1 -1.315-.685 4.037 4.037 0 0 1 -1.274-1.382c-.322-.55-.483-1.247-.483-2.093 0-.818.201-1.57.59-2.227s.939-1.181 1.65-1.597c.712-.402 1.544-.63 2.496-.697v-2.979h1.194v2.979c.389.013.846.053 1.396.107.791.067 1.328.107 1.61.107h.389l.872 3.704h-.644l-.993-1.141c-.429-.496-.845-.886-1.248-1.154a3.556 3.556 0 0 0 -1.382-.51v5.099l.564.201c.604.228 1.087.416 1.476.591.389.174.738.375 1.073.617 1.02.751 1.53 1.905 1.53 3.448 0 .872-.188 1.677-.577 2.402zm-7.393-9.03c.188.308.456.563.805.765.335.201.778.416 1.328.617v-4.763c-.751.067-1.342.295-1.771.697-.443.403-.657.926-.657 1.584 0 .442.094.805.295 1.1zm5.058 9.728c.43-.457.644-1.047.644-1.758 0-.698-.188-1.261-.577-1.677s-1.006-.765-1.851-1.06v5.327c.764-.094 1.355-.376 1.784-.832zm16.509-.698a4.747 4.747 0 0 1 -1.65 1.771c-.711.456-1.543.738-2.469.832v3.019h-1.194v-2.992a32.655 32.655 0 0 1 -1.704-.121c-.859-.067-1.489-.107-1.892-.107h-.496l-.899-4.093h.63l1.047 1.248c.51.617 1.019 1.087 1.516 1.396.496.322 1.1.523 1.798.59v-5.77a21.7 21.7 0 0 1 -1.61-.563 6.137 6.137 0 0 1 -1.315-.685 4.04 4.04 0 0 1 -1.275-1.382c-.322-.55-.483-1.247-.483-2.093 0-.818.201-1.57.591-2.227.389-.657.939-1.181 1.65-1.597.711-.402 1.543-.63 2.496-.697v-2.979h1.194v2.979c.389.013.845.053 1.395.107.792.067 1.329.107 1.61.107h.389l.873 3.704h-.644l-.993-1.141c-.43-.496-.846-.886-1.248-1.154a3.568 3.568 0 0 0 -1.382-.51v5.099l.563.201c.604.228 1.087.416 1.476.591.389.174.738.375 1.074.617 1.019.751 1.529 1.905 1.529 3.448 0 .872-.188 1.677-.577 2.402zm-7.393-9.03c.188.308.456.563.805.765.336.201.778.416 1.329.617v-4.763c-.752.067-1.342.295-1.772.697-.442.403-.657.926-.657 1.584 0 .442.094.805.295 1.1zm5.059 9.728c.429-.457.644-1.047.644-1.758 0-.698-.188-1.261-.577-1.677s-1.007-.765-1.852-1.06v5.327c.765-.094 1.355-.376 1.785-.832z" fill="#f6f2e7"/><path d="m53.79 328.069a4.748 4.748 0 0 1 -1.65 1.771c-.711.456-1.543.738-2.47.832v3.019h-1.193v-2.993a31.393 31.393 0 0 1 -1.704-.12c-.86-.067-1.49-.108-1.892-.108h-.497l-.899-4.092h.631l1.047 1.248c.51.617 1.02 1.087 1.516 1.395.496.322 1.1.524 1.798.591v-5.77a22.309 22.309 0 0 1 -1.61-.563 6.144 6.144 0 0 1 -1.315-.685 4.047 4.047 0 0 1 -1.275-1.382c-.322-.55-.483-1.248-.483-2.093 0-.818.201-1.57.59-2.227.39-.658.94-1.181 1.65-1.597.712-.402 1.544-.631 2.496-.698v-2.978h1.195v2.978c.389.014.845.054 1.395.108.792.067 1.328.107 1.61.107h.39l.871 3.703h-.644l-.993-1.14c-.429-.497-.845-.886-1.247-1.154a3.549 3.549 0 0 0 -1.382-.51v5.099l.563.201c.604.228 1.087.416 1.476.59.39.175.738.376 1.073.618 1.02.751 1.53 1.905 1.53 3.448 0 .872-.188 1.677-.577 2.402zm-7.393-9.03c.188.308.456.563.805.764a7.86 7.86 0 0 0 1.328.618v-4.764c-.751.067-1.341.295-1.77.698-.444.403-.658.926-.658 1.583 0 .443.094.805.295 1.101zm5.058 9.727c.43-.456.645-1.046.645-1.757 0-.698-.188-1.262-.578-1.678-.389-.416-1.006-.764-1.851-1.06v5.327c.765-.094 1.355-.375 1.784-.832z" fill="#f6f2e7"/><g stroke-dasharray="2 4" stroke-width="2"><path d="m249 123h-249" stroke="#e3ded4"/><path d="m520 123h36" stroke="#e3ded4"/><path d="m520 123h-271" stroke="#473f3b"/><path d="m228 201h-228" stroke="#e3ded4"/><path d="m354 201h-126" stroke="#211715"/><path d="m556 201h-15" stroke="#e3ded4"/><path d="m541 201h-126" stroke="#473f3b"/><path d="m249 279h-13" stroke="#e3ded4"/><path d="m179 279h57" stroke="#211715"/><path d="m78 279h57" stroke="#211715"/><path d="m0 279h78" stroke="#e3ded4"/><path d="m556 279h-36" stroke="#e3ded4"/><path d="m520 279h-271" stroke="#211715"/></g></svg>