<svg fill="none" viewBox="0 0 556 418" xmlns="http://www.w3.org/2000/svg" xmlns:xlink="http://www.w3.org/1999/xlink"><clipPath id="a"><path d="m0 0h556v418h-556z"/></clipPath><mask id="b" height="418" maskUnits="userSpaceOnUse" width="556" x="0" y="0"><path d="m556 0h-556v418h556z" fill="#fff"/></mask><g clip-path="url(#a)"><g mask="url(#b)"><path d="m556 0h-556v418h556z" fill="#473f3b"/><g stroke-dasharray="2 4" stroke-width="2"><path d="m-32 333 62-62m0 0 62 62m-62-62-62-62 62-62m0 124 62-62-62-62m-62-62 62 62m0 0 62-62" stroke="#211715"/><path d="m464 333 62-62m0 0 62 62m-62-62-62-62 62-62m0 124 62-62-62-62m-62-62 62 62m0 0 62-62" stroke="#211715"/><path d="m464 85-62 62m62-62v124m0-124h-124m62 62-62-62m62 62 62 62m-62-62-62 62m124 0v124m0-124h-124m124 0-62 62m-62-186-62 62m62-62h-124m124 0v124m-248-124 62 62m-62-62h124m-124 0v124m62-62 62-62m-62 62 62 62m-62-62-62 62m124-124 62 62m-62-62v124m-124 0v124m0-124h124m-124 0 62 62m-62 62 62-62m-62 62h124m-62-62 62 62m-62-62 62-62m0 124 62-62m-62 62h124m-124 0v-124m248 124-62-62m62 62h-124m62-62-62 62m62-62-62-62m0 124-62-62m62 62v-124m-62-62-62 62m62-62 62 62m0 0h-124m124 0-62 62m-62-62 62 62" stroke="#e3ded4"/><path d="m464-39-62 62m0 0 62 62m-62-62-62 62-62-62m124 0-62-62-62 62m-186-62 62 62m0 0-62 62m62-62 62-62 62 62m-124 0 62 62 62-62" stroke="#211715"/><path d="m464 333-62 62m0 0 62 62m-62-62-62 62-62-62m124 0-62-62-62 62m-186-62 62 62m0 0-62 62m62-62 62-62 62 62m-124 0 62 62 62-62" stroke="#211715"/></g><path d="m374.002 85c0-18.777-15.223-34-34.001-34s-34.001 15.223-34.001 34c0 18.779 15.223 34.002 34.001 34.002s34.001-15.223 34.001-34.001z" fill="#f6f2e7"/><path d="m361.01 85c0-11.602-9.406-21.008-21.009-21.008s-21.009 9.406-21.009 21.008 9.406 21.008 21.009 21.008 21.009-9.406 21.009-21.008z" fill="#fe970c"/><path d="m374.002 209.001c0-18.778-15.223-34.001-34.001-34.001s-34.001 15.223-34.001 34.001 15.223 34.001 34.001 34.001 34.001-15.223 34.001-34.001z" fill="#f6f2e7"/><path d="m361.01 209.001c0-11.603-9.406-21.009-21.009-21.009s-21.009 9.406-21.009 21.009 9.406 21.009 21.009 21.009 21.009-9.406 21.009-21.009z" fill="#fe970c"/><path d="m374.002 333.001c0-18.778-15.223-34.001-34.001-34.001s-34.001 15.223-34.001 34.001 15.223 34.001 34.001 34.001 34.001-15.223 34.001-34.001z" fill="#f6f2e7"/><path d="m361.01 333.001c0-11.603-9.406-21.009-21.009-21.009s-21.009 9.406-21.009 21.009 9.406 21.009 21.009 21.009 21.009-9.406 21.009-21.009z" fill="#fe970c"/><path d="m464.001 243.002c18.778 0 34.001-15.223 34.001-34.001s-15.223-34.001-34.001-34.001-34.001 15.223-34.001 34.001 15.223 34.001 34.001 34.001z" fill="#f6f2e7"/><path d="m464.001 230.01c11.603 0 21.009-9.406 21.009-21.009s-9.406-21.009-21.009-21.009-21.009 9.406-21.009 21.009 9.406 21.009 21.009 21.009z" fill="#fe970c"/><path d="m464.001 367.002c18.778 0 34.001-15.223 34.001-34.001s-15.223-34.001-34.001-34.001-34.001 15.223-34.001 34.001 15.223 34.001 34.001 34.001z" fill="#f6f2e7"/><path d="m464.001 354.01c11.603 0 21.009-9.406 21.009-21.009s-9.406-21.009-21.009-21.009-21.009 9.406-21.009 21.009 9.406 21.009 21.009 21.009z" fill="#fe970c"/><path d="m250.002 85c0-18.777-15.223-34-34.001-34s-34.001 15.223-34.001 34c0 18.779 15.223 34.002 34.001 34.002s34.001-15.223 34.001-34.001z" fill="#f6f2e7"/><path d="m237.01 85c0-11.602-9.406-21.008-21.009-21.008s-21.009 9.406-21.009 21.008 9.406 21.008 21.009 21.008 21.009-9.406 21.009-21.008z" fill="#fe970c"/><path d="m250.002 209.001c0-18.778-15.223-34.001-34.001-34.001s-34.001 15.223-34.001 34.001 15.223 34.001 34.001 34.001 34.001-15.223 34.001-34.001z" fill="#f6f2e7"/><path d="m237.01 209.001c0-11.603-9.406-21.009-21.009-21.009s-21.009 9.406-21.009 21.009 9.406 21.009 21.009 21.009 21.009-9.406 21.009-21.009z" fill="#fe970c"/><path d="m250.002 333.001c0-18.778-15.223-34.001-34.001-34.001s-34.001 15.223-34.001 34.001 15.223 34.001 34.001 34.001 34.001-15.223 34.001-34.001z" fill="#f6f2e7"/><path d="m237.01 333.001c0-11.603-9.406-21.009-21.009-21.009s-21.009 9.406-21.009 21.009 9.406 21.009 21.009 21.009 21.009-9.406 21.009-21.009z" fill="#fe970c"/><path d="m464.001 119.002c18.778 0 34.001-15.223 34.001-34.001s-15.223-34.001-34.001-34.001-34.001 15.223-34.001 34.001 15.223 34.001 34.001 34.001z" fill="#f6f2e7"/><path d="m464.001 106.01c11.603 0 21.009-9.406 21.009-21.01 0-11.602-9.406-21.008-21.009-21.008s-21.009 9.406-21.009 21.009 9.406 21.009 21.009 21.009z" fill="#fe970c"/><path d="m126.002 85.001c0-18.778-15.223-34.001-34.001-34.001s-34.001 15.223-34.001 34.001 15.223 34.001 34.001 34.001 34.001-15.223 34.001-34.001z" fill="#f6f2e7"/><path d="m113.01 85c0-11.602-9.406-21.008-21.01-21.008-11.602 0-21.008 9.406-21.008 21.009 0 11.602 9.406 21.008 21.009 21.008s21.009-9.406 21.009-21.008z" fill="#fe970c"/><path d="m126.002 209.001c0-18.778-15.223-34.001-34.001-34.001s-34.001 15.223-34.001 34.001 15.223 34.001 34.001 34.001 34.001-15.223 34.001-34.001z" fill="#f6f2e7"/><path d="m113.01 209.001c0-11.603-9.406-21.009-21.01-21.009-11.602 0-21.008 9.406-21.008 21.009s9.406 21.009 21.009 21.009 21.009-9.406 21.009-21.009z" fill="#fe970c"/><path d="m126.002 333.001c0-18.778-15.223-34.001-34.001-34.001s-34.001 15.223-34.001 34.001 15.223 34.001 34.001 34.001 34.001-15.223 34.001-34.001z" fill="#f6f2e7"/><path d="m113.01 333.001c0-11.603-9.406-21.009-21.01-21.009-11.602 0-21.008 9.406-21.008 21.009s9.406 21.009 21.009 21.009 21.009-9.406 21.009-21.009z" fill="#fe970c"/></g></g></svg>