<svg fill="none" height="1080" width="1140" xmlns="http://www.w3.org/2000/svg"><path d="m0 0h1140v1080h-1140z" fill="#473f3b"/><g clip-rule="evenodd" fill-rule="evenodd"><path d="m506.919 604.961 159.756-159.756 2.121 2.121-159.756 159.756zm0 61.946 159.756-159.756 2.121 2.121-159.756 159.756zm0 61.946 159.756-159.756 2.121 2.121-159.756 159.756zm0 61.946 159.756-159.756 2.121 2.122-159.756 159.755zm-61.946-185.838 159.756-159.756 2.121 2.121-159.756 159.756zm-61.947 0 159.756-159.756 2.122 2.121-159.756 159.756zm-61.946 0 159.756-159.756 2.121 2.121-159.756 159.756z" fill="#fb5607"/><path d="m666.235 447.766h-277.257v-3h280.257v280.257h-3z" fill="#fb5607"/><path d="m506.919 833.183 159.756-159.756 2.121 2.122-159.756 159.756z" fill="#f6f2e7"/></g><path d="m293.009 86c.764 405.66 330.114 734.322 736.621 735.084v44.283h-781.021v-779.367z" fill="#473f3b"/><path clip-rule="evenodd" d="m294.508 85.997c.763 404.831 329.44 732.826 735.122 733.587v3c-407.334-.764-737.356-330.092-738.122-736.581l3-.006z" fill="#f6f2e7" fill-rule="evenodd"/><path d="m153.841 297.045-4.39-1.114a30.183 30.183 0 0 0 2.005-4.681c.513-1.538.758-2.763.758-3.677 0-.736-.178-1.315-.557-1.694s-.847-.557-1.449-.557c-.401 0-.78.134-1.159.379-.356.245-.713.646-1.092 1.203-.379.535-.824 1.293-1.359 2.251-.58 1.048-1.07 1.85-1.471 2.385-.847 1.114-1.895 1.672-3.165 1.672-.446 0-.914-.067-1.426-.201-1.182-.29-2.318-.892-3.388-1.761a10.677 10.677 0 0 1 -2.563-3.098c-.646-1.181-.958-2.384-.958-3.566v-5.349l4.011 1.026v8.447c0 .557.134 1.025.379 1.359.268.334.624.513 1.092.513.602 0 1.204-.446 1.85-1.338.201-.267.446-.646.691-1.114s.49-.936.736-1.426c.601-1.182 1.047-2.028 1.359-2.497.802-1.225 1.917-1.849 3.343-1.849.513 0 1.048.067 1.627.223 1.092.289 2.14.802 3.187 1.582a9.229 9.229 0 0 1 2.541 2.875c.669 1.137 1.003 2.318 1.003 3.588 0 1.694-.535 3.834-1.605 6.419zm-6.864.267c5.349 2.43 8.023 5.193 8.023 8.336v3.343l-15.601-4.524a4.415 4.415 0 0 0 -1.27-.201c-.892 0-1.338.357-1.338 1.048 0 .78.825 1.783 2.452 3.031s3.655 2.496 6.062 3.744c2.407 1.27 4.658 2.251 6.753 2.986l2.942 1.026v4.346l-17.874-4.458v.335c0 .735.423 1.471 1.27 2.184.869.735 2.251 1.515 4.146 2.34l-.379 1.226c-5.684-2.318-8.536-5.015-8.536-8.091v-3.187l11.745 3.21v-.558c-2.63-1.359-4.792-2.563-6.508-3.632-1.694-1.048-3.076-2.162-4.123-3.343-1.048-1.159-1.56-2.363-1.56-3.589 0-1.07.334-1.916.98-2.54.669-.625 1.561-.937 2.675-.937.624 0 1.248.09 1.894.29l12.838 3.744v-.267c0-.758-.401-1.516-1.204-2.251-.78-.735-2.072-1.56-3.855-2.429zm-13.35 27.681a3.507 3.507 0 0 1 1.292-1.381c.557-.335 1.226-.513 1.962-.513.378 0 .802.067 1.27.178 1.872.468 3.254 1.649 4.123 3.544.892 1.894 1.426 4.502 1.627 7.845.958.156 1.805.245 2.585.245 1.605 0 2.875-.334 3.812-.98.958-.647 1.426-1.583 1.426-2.831 0-.958-.29-1.828-.847-2.563s-1.36-1.426-2.407-2.117l.557-1.07c2.028.981 3.588 2.162 4.725 3.544 1.137 1.381 1.694 2.919 1.694 4.613 0 1.27-.29 2.34-.847 3.254s-1.337 1.605-2.34 2.073-2.184.713-3.522.713c-1.003 0-2.072-.134-3.187-.423-2.072-.513-4.056-1.405-5.95-2.653-1.895-1.248-3.455-2.719-4.636-4.39-1.181-1.672-1.783-3.388-1.783-5.126 0-.714.156-1.36.446-1.962zm4.034 2.719c-.647 0-1.182.134-1.583.402-.379.267-.579.668-.579 1.181 0 1.07.668 2.073 2.006 2.986 1.359.936 3.031 1.65 5.037 2.14-.112-2.117-.469-3.655-1.026-4.636s-1.381-1.605-2.474-1.894c-.512-.112-.98-.179-1.381-.179zm1.849 15.49c1.137 1.293 2.162 2.987 3.054 5.082l12.436-5.661v4.947l-10.72 4.792.981 2.363 9.739 2.429v4.524l-28.684-7.176-1.582 2.986-1.114-.267-1.293-8.246 21.217 5.304-2.206-5.126c-.29-.691-.624-1.248-1.003-1.649-.357-.379-.847-.714-1.449-.981-.601-.245-1.471-.513-2.585-.802l-2.674-.669v-4.792l1.426.357c1.828.446 3.321 1.315 4.457 2.585zm14.844 35.504c-.713 1.159-1.716 2.028-3.009 2.63-1.27.602-2.741.914-4.391.914a15.4 15.4 0 0 1 -3.677-.468c-2.028-.513-3.811-1.271-5.349-2.318-1.515-1.026-2.697-2.251-3.521-3.655a8.813 8.813 0 0 1 -1.226-4.547c0-1.583.356-2.964 1.092-4.123a7.187 7.187 0 0 1 3.009-2.63c1.27-.602 2.741-.892 4.39-.892 1.159 0 2.385.156 3.678.468 2.028.513 3.811 1.271 5.326 2.296 1.538 1.047 2.697 2.273 3.522 3.677.824 1.404 1.248 2.92 1.248 4.525 0 1.582-.357 2.964-1.092 4.123zm-2.541-6.998c-1.337-.87-3.454-1.65-6.374-2.385-2.764-.691-4.97-1.048-6.597-1.048-2.697 0-4.034.936-4.034 2.809 0 1.181.668 2.206 2.006 3.075 1.337.869 3.454 1.65 6.374 2.385 2.697.691 4.903 1.025 6.575 1.025 1.337 0 2.34-.223 3.031-.691.691-.445 1.025-1.159 1.025-2.117 0-1.181-.669-2.184-2.006-3.053zm-2.095 20.749a3.2 3.2 0 0 0 .825.112c.468 0 .824-.134 1.069-.379.246-.245.379-.58.379-1.003 0-.691-.445-1.449-1.359-2.251-.892-.803-2.273-1.716-4.123-2.719l.624-1.137c2.652 1.404 4.702 2.786 6.151 4.145 1.449 1.36 2.162 2.831 2.162 4.391 0 1.137-.334 2.051-1.003 2.697-.669.669-1.56 1.003-2.697 1.003a6.33 6.33 0 0 1 -1.538-.201l-14.286-3.566v3.522l-2.295-.558v-3.543l-5.394-1.337v-4.547l5.394 1.337v-5.728l2.295.58v5.728zm-24.984 19.546c.535-1.181 1.248-2.05 2.162-2.63.914-.557 1.961-.847 3.098-.847.646 0 1.248.067 1.85.223 1.849.468 3.32 1.404 4.39 2.808 1.07 1.427 1.895 3.232 2.452 5.439h.089c.468-1.806 1.27-3.188 2.407-4.19 1.137-.981 2.518-1.471 4.101-1.471a8.51 8.51 0 0 1 2.05.267c1.538.379 2.875 1.048 4.012 2.028 1.159.981 2.05 2.251 2.697 3.789.646 1.538.958 3.321.958 5.327v16.047l-1.181-.312-1.003-3.856-26.678-6.664-.981 3.343-1.203-.267v-14.665c0-1.717.267-3.188.78-4.369zm5.46 1.984c-1.315 0-2.362.334-3.142 1.025s-1.159 1.738-1.159 3.098v4.636l11.99 2.986v-5.549c0-1.382-.49-2.608-1.47-3.678-.981-1.047-2.296-1.783-3.923-2.206-.825-.201-1.605-.312-2.296-.312zm14.532 2.763c-1.538 0-2.764.424-3.633 1.249-.869.846-1.315 2.05-1.315 3.588v4.613l13.283 3.321v-6.708c0-.78-.223-1.561-.646-2.318-.424-.758-1.092-1.449-1.961-2.051-.87-.602-1.939-1.047-3.188-1.359-.913-.223-1.76-.335-2.54-.335zm-17.897 32.139 6.798 1.27v-5.438l2.295.557v5.416l17.362 4.324a14.857 14.857 0 0 1 4.703 2.05c1.404.959 2.808 2.14 4.19 3.544 2.318 2.34 3.477 4.435 3.477 6.285v1.315l-4.859-1.181v-5.461l-24.873-6.218v3.945l-2.295-.58v-3.944l-1.449-.357c-1.226-.312-2.34-.802-3.321-1.471s-2.006-1.627-3.098-2.875c-1.047-1.204-1.827-2.362-2.34-3.477-.49-1.114-.735-2.162-.735-3.142v-1.783l4.145 1.003zm27.525 29.129c-.713 1.159-1.716 2.028-3.009 2.63-1.27.602-2.741.914-4.391.914a15.4 15.4 0 0 1 -3.677-.468c-2.028-.513-3.811-1.27-5.349-2.318-1.515-1.025-2.697-2.251-3.521-3.655a8.81 8.81 0 0 1 -1.226-4.547c0-1.582.356-2.964 1.092-4.123a7.194 7.194 0 0 1 3.009-2.63c1.27-.601 2.741-.891 4.39-.891 1.159 0 2.385.156 3.678.468 2.028.512 3.811 1.27 5.326 2.295 1.538 1.048 2.697 2.274 3.522 3.678.824 1.404 1.248 2.919 1.248 4.524 0 1.583-.357 2.964-1.092 4.123zm-2.541-6.998c-1.337-.869-3.454-1.649-6.374-2.385-2.764-.691-4.97-1.047-6.597-1.047-2.697 0-4.034.936-4.034 2.808 0 1.181.668 2.207 2.006 3.076 1.337.869 3.454 1.649 6.374 2.384 2.697.691 4.903 1.026 6.575 1.026 1.337 0 2.34-.223 3.031-.691.691-.446 1.025-1.159 1.025-2.118 0-1.181-.669-2.184-2.006-3.053zm-18.186 22.287h1.716c1.092 0 2.228.246 3.432.714 1.226.49 2.585 1.203 4.079 2.161 1.493.959 3.454 2.296 5.861 4.035l16.783 12.079v5.305l-9.695-9.606-18.633 1.716c.112.646.557 1.248 1.338 1.85.78.602 2.117 1.315 3.967 2.117l-.379 1.159c-2.786-1.114-4.903-2.296-6.33-3.521-1.426-1.226-2.139-2.541-2.139-3.99v-1.894l17.384-1.538-2.251-1.605c-1.939-1.359-3.455-2.362-4.547-2.986-1.092-.602-2.139-1.048-3.187-1.293-1.025-.245-2.296-.357-3.833-.357l-3.566.001zm16.091 30.423a3.2 3.2 0 0 0 .825.111c.468 0 .824-.134 1.069-.379.246-.245.379-.579.379-1.003 0-.691-.445-1.448-1.359-2.251-.892-.802-2.273-1.716-4.123-2.719l.624-1.136c2.652 1.404 4.702 2.786 6.151 4.145 1.449 1.36 2.162 2.831 2.162 4.391 0 1.136-.334 2.05-1.003 2.696-.669.669-1.56 1.003-2.697 1.003-.49 0-1.003-.066-1.538-.2l-14.286-3.566v3.521l-2.295-.557v-3.544l-5.394-1.337v-4.547l5.394 1.338v-5.728l2.295.579v5.728zm-25.675 6.508 4.658 1.181v4.948l-4.658-1.204zm26.321 4.769c-.78-.735-2.072-1.56-3.855-2.451l.468-1.159c5.349 2.407 8.023 5.17 8.023 8.313v3.41l-17.874-5.015v.557c0 .736.423 1.471 1.27 2.184.869.736 2.251 1.516 4.146 2.341l-.379 1.225c-5.684-2.317-8.536-5.014-8.536-8.09v-3.744l17.941 5.059v-.379c0-.758-.401-1.515-1.204-2.251zm-.646 18.499c.245.066.535.111.825.111.468 0 .824-.134 1.069-.379.246-.245.379-.579.379-1.003 0-.691-.445-1.448-1.359-2.251-.892-.802-2.273-1.716-4.123-2.719l.624-1.137c2.652 1.405 4.702 2.786 6.151 4.146 1.449 1.359 2.162 2.83 2.162 4.391 0 1.136-.334 2.05-1.003 2.696-.669.669-1.56 1.003-2.697 1.003-.49 0-1.003-.067-1.538-.2l-14.286-3.566v3.521l-2.295-.557v-3.544l-5.394-1.337v-4.547l5.394 1.338v-5.728l2.295.579v5.728zm-2.741 7.644c5.349 2.43 8.023 5.193 8.023 8.336v3.343l-15.601-4.525a4.447 4.447 0 0 0 -1.27-.2c-.892 0-1.338.356-1.338 1.047 0 .78.825 1.783 2.452 3.031 1.627 1.249 3.655 2.497 6.062 3.745 2.407 1.27 4.658 2.251 6.753 2.986l2.942 1.025v4.347l-17.874-4.458v.334c0 .736.423 1.471 1.27 2.185.869.735 2.251 1.515 4.146 2.34l-.379 1.225c-5.684-2.317-8.536-5.014-8.536-8.09v-3.187l11.745 3.209v-.557c-2.63-1.359-4.792-2.563-6.508-3.633-1.694-1.047-3.076-2.161-4.123-3.343-1.048-1.159-1.56-2.362-1.56-3.588 0-1.07.334-1.917.98-2.541.669-.624 1.561-.936 2.675-.936.624 0 1.248.089 1.894.29l12.838 3.744v-.267c0-.758-.401-1.516-1.204-2.251-.78-.736-2.072-1.56-3.855-2.43zm0 25.876c5.349 2.407 8.023 5.171 8.023 8.313v2.786l-12.302-3.343v.557c2.808 1.516 5.103 2.875 6.909 4.056 1.805 1.204 3.231 2.407 4.279 3.611 1.047 1.203 1.56 2.407 1.56 3.61 0 1.249-.424 2.207-1.27 2.876-.847.69-1.962 1.025-3.321 1.025a8.325 8.325 0 0 1 -2.207-.29c-1.783-.446-3.655-1.293-5.616-2.563-1.939-1.248-3.767-2.808-5.438-4.658-1.672-1.85-3.009-3.834-3.967-5.973v-8.447l17.941 4.48v-.179c0-.757-.401-1.515-1.204-2.251-.78-.735-2.072-1.56-3.855-2.451zm.445 12.837c-2.607-1.85-5.504-3.588-8.692-5.259l-1.471-.758v5.928c1.226 1.404 2.72 2.652 4.48 3.7 1.761 1.047 3.41 1.783 4.993 2.184a8.654 8.654 0 0 0 2.05.268c.78 0 1.404-.134 1.872-.402.468-.267.691-.668.691-1.203 0-1.137-1.315-2.608-3.923-4.458zm-.445 12.102c5.349 2.407 8.023 5.171 8.023 8.314v2.897l-12.481-3.299v.535c.959.402 1.962.87 3.009 1.404a84.29 84.29 0 0 1 3.722 2.118c1.805 1.092 3.299 2.206 4.458 3.365 1.158 1.181 1.738 2.429 1.738 3.744 0 1.003-.357 1.806-1.048 2.43-.69.624-1.604.936-2.719.936a6.29 6.29 0 0 1 -1.515-.201l-13.038-3.254v.335c0 .735.423 1.471 1.27 2.184.869.735 2.251 1.515 4.146 2.34l-.379 1.226c-5.684-2.318-8.536-5.015-8.536-8.091v-3.41l15.757 3.945c.334.067.602.112.847.112.423 0 .757-.089 1.003-.268.267-.178.401-.445.401-.824 0-.558-.401-1.182-1.181-1.873-.78-.668-2.006-1.493-3.656-2.496a78.097 78.097 0 0 0 -5.282-2.852c-1.983-.959-3.744-1.739-5.282-2.341l-2.607-1.003v-4.412l17.941 4.479v-.178c0-.758-.401-1.516-1.204-2.251-.78-.735-2.072-1.56-3.855-2.452zm.958 30.333c2.051 1.427 3.7 3.121 4.97 5.104a15.763 15.763 0 0 1 2.363 6.441l.111.023c.424-1.003.847-2.385 1.27-4.101a70.662 70.662 0 0 0 1.137-5.684l.468-3.164 4.636 1.181-.49 3.254a22.909 22.909 0 0 1 -1.36 5.371c-.646 1.672-1.382 3.187-2.206 4.524-.825 1.36-1.873 2.965-3.187 4.859-.201.29-.424.602-.691.981a66.38 66.38 0 0 1 -.87 1.315c-1.337 2.006-3.031 3.543-5.081 4.635-2.051 1.093-4.302 1.65-6.753 1.65-1.427 0-2.853-.179-4.302-.557-2.875-.714-5.393-1.873-7.577-3.477-2.162-1.605-3.856-3.544-5.06-5.84-1.203-2.295-1.805-4.791-1.805-7.533 0-2.607.58-4.881 1.716-6.775 1.159-1.894 2.719-3.365 4.703-4.368 1.983-1.003 4.168-1.494 6.597-1.494 1.493 0 2.986.179 4.48.558 2.585.646 4.903 1.671 6.931 3.097zm-3.098 21.107c2.764 0 4.903-.647 6.441-1.917s2.296-3.209 2.296-5.817c0-2.563-1.048-4.725-3.165-6.53-2.117-1.783-5.282-3.21-9.539-4.257-2.518-.647-4.77-.959-6.753-.959-2.719 0-4.836.625-6.33 1.873-1.493 1.27-2.251 3.209-2.251 5.817 0 2.607 1.048 4.814 3.121 6.597 2.072 1.783 5.237 3.209 9.494 4.257 2.541.624 4.769.936 6.686.936zm674.522 321.436 1.115-4.391c1.56.825 3.12 1.494 4.68 2.006 1.538.513 2.764.758 3.677.758.736 0 1.315-.178 1.694-.557s.557-.847.557-1.449c0-.401-.133-.78-.379-1.159-.245-.356-.646-.713-1.203-1.092-.535-.379-1.293-.825-2.251-1.359-1.048-.58-1.85-1.07-2.385-1.471-1.114-.847-1.671-1.895-1.671-3.165 0-.446.066-.914.2-1.427.29-1.181.892-2.318 1.761-3.387a10.69 10.69 0 0 1 3.098-2.563c1.181-.647 2.385-.959 3.566-.959h5.349l-1.025 4.012h-8.447c-.558 0-1.026.134-1.36.379-.334.267-.512.624-.512 1.092 0 .602.445 1.204 1.337 1.85.267.2.646.446 1.114.691s.936.49 1.427.735c1.181.602 2.028 1.048 2.496 1.36 1.226.802 1.85 1.916 1.85 3.343 0 .512-.067 1.047-.223 1.627-.29 1.092-.803 2.139-1.583 3.187a9.254 9.254 0 0 1 -2.875 2.541c-1.136.668-2.318 1.003-3.588 1.003-1.694 0-3.833-.535-6.419-1.605zm-.267-6.865c-2.43 5.349-5.193 8.024-8.336 8.024h-3.343l4.525-15.601c.133-.446.2-.869.2-1.271 0-.891-.356-1.337-1.047-1.337-.78 0-1.783.825-3.031 2.452-1.249 1.627-2.497 3.655-3.745 6.062-1.27 2.407-2.251 4.658-2.986 6.753l-1.025 2.942h-4.346l4.457-17.875h-.334c-.736 0-1.471.424-2.185 1.271-.735.869-1.515 2.251-2.34 4.145l-1.225-.379c2.317-5.683 5.014-8.536 8.09-8.536h3.187l-3.209 11.746h.557c1.359-2.63 2.563-4.792 3.633-6.508 1.047-1.694 2.161-3.076 3.343-4.123 1.159-1.048 2.362-1.56 3.588-1.56 1.07 0 1.917.334 2.541.98.624.669.936 1.56.936 2.675 0 .624-.089 1.248-.29 1.894l-3.744 12.838h.267c.758 0 1.516-.402 2.251-1.204.736-.78 1.56-2.073 2.43-3.856zm-27.681-13.35a3.52 3.52 0 0 1 1.382 1.293c.334.557.512 1.226.512 1.961 0 .379-.067.803-.178 1.271-.468 1.872-1.649 3.254-3.544 4.123-1.894.891-4.502 1.426-7.845 1.627-.156.958-.245 1.805-.245 2.585 0 1.605.334 2.875.981 3.811.646.959 1.582 1.427 2.83 1.427.959 0 1.828-.29 2.563-.847.736-.557 1.427-1.36 2.117-2.407l1.07.557c-.98 2.028-2.162 3.588-3.543 4.725-1.382 1.136-2.92 1.694-4.614 1.694-1.27 0-2.34-.29-3.254-.847s-1.605-1.338-2.073-2.34c-.468-1.003-.713-2.185-.713-3.522 0-1.003.134-2.073.424-3.187.512-2.073 1.404-4.056 2.652-5.951 1.248-1.894 2.719-3.454 4.391-4.635 1.671-1.182 3.387-1.783 5.126-1.783.713 0 1.359.156 1.961.445zm-2.719 4.034c0-.646-.134-1.181-.401-1.582-.268-.379-.669-.58-1.182-.58-1.069 0-2.072.669-2.986 2.006-.936 1.36-1.649 3.031-2.14 5.037 2.118-.111 3.655-.468 4.636-1.025s1.605-1.382 1.895-2.474c.111-.512.178-.98.178-1.382zm-15.49 1.85c-1.293 1.137-2.986 2.162-5.081 3.054l5.661 12.436h-4.948l-4.792-10.72-2.362.98-2.43 9.74h-4.524l7.176-28.684-2.986-1.582.267-1.115 8.247-1.292-5.305 21.217 5.126-2.206c.691-.29 1.248-.624 1.65-1.003.379-.357.713-.847.98-1.449.245-.602.513-1.471.803-2.585l.668-2.675h4.792l-.357 1.427c-.445 1.827-1.315 3.321-2.585 4.457zm-35.504 14.844c-1.159-.714-2.028-1.717-2.63-3.009-.601-1.271-.913-2.742-.913-4.391a15.4 15.4 0 0 1 .468-3.677c.512-2.028 1.27-3.811 2.318-5.349 1.025-1.516 2.251-2.697 3.655-3.522a8.816 8.816 0 0 1 4.546-1.225c1.583 0 2.965.356 4.124 1.092a7.188 7.188 0 0 1 2.629 3.008c.602 1.271.892 2.742.892 4.391 0 1.159-.156 2.385-.468 3.677-.513 2.029-1.271 3.812-2.296 5.327-1.047 1.538-2.273 2.697-3.677 3.522-1.404.824-2.92 1.248-4.525 1.248-1.582 0-2.964-.357-4.123-1.092zm6.999-2.541c.869-1.337 1.649-3.455 2.384-6.374.691-2.764 1.048-4.97 1.048-6.597 0-2.697-.936-4.034-2.808-4.034-1.182 0-2.207.668-3.076 2.005-.869 1.338-1.649 3.455-2.385 6.375-.691 2.696-1.025 4.903-1.025 6.574 0 1.338.223 2.341.691 3.031.446.691 1.159 1.026 2.117 1.026 1.181 0 2.184-.669 3.054-2.006zm-20.75-2.095a3.199 3.199 0 0 0 -.111.824c0 .469.133.825.378 1.07.246.245.58.379 1.003.379.691 0 1.449-.446 2.251-1.359.803-.892 1.717-2.274 2.72-4.124l1.136.625c-1.404 2.652-2.786 4.702-4.145 6.151-1.36 1.448-2.831 2.162-4.391 2.162-1.137 0-2.05-.335-2.697-1.003-.668-.669-1.003-1.56-1.003-2.697 0-.49.067-1.003.201-1.538l3.566-14.286h-3.521l.557-2.296h3.543l1.338-5.393h4.546l-1.337 5.393h5.728l-.58 2.296h-5.727zm-21.998 3.276 2.786.825-.312 1.181h-11.5l.312-1.181 3.521-.825-.713-7.89h-11.812l-4.346 7.6 3.454 1.115-.312 1.181h-9.182l.312-1.181 3.544-1.204 16.515-28.661h5.081zm-16.292-10.408h10.141l-1.382-15.312zm-20.95-15.757-1.27 6.797h5.438l-.557 2.296h-5.416l-4.324 17.362a14.851 14.851 0 0 1 -2.05 4.702c-.959 1.405-2.14 2.809-3.544 4.19-2.34 2.318-4.435 3.477-6.285 3.477h-1.315l1.181-4.858h5.461l6.218-24.873h-3.945l.58-2.296h3.944l.357-1.448c.312-1.226.802-2.341 1.471-3.321.669-.981 1.627-2.006 2.875-3.098 1.204-1.048 2.362-1.828 3.477-2.34 1.114-.491 2.162-.736 3.142-.736h1.783l-1.003 4.146zm-29.129 27.525c-1.159-.714-2.028-1.717-2.63-3.009-.602-1.271-.914-2.742-.914-4.391a15.4 15.4 0 0 1 .468-3.677c.513-2.028 1.27-3.811 2.318-5.349 1.025-1.516 2.251-2.697 3.655-3.522a8.82 8.82 0 0 1 4.547-1.225c1.582 0 2.964.356 4.123 1.092a7.197 7.197 0 0 1 2.63 3.008c.601 1.271.891 2.742.891 4.391 0 1.159-.156 2.385-.468 3.677-.512 2.029-1.27 3.812-2.295 5.327-1.048 1.538-2.274 2.697-3.678 3.522-1.404.824-2.92 1.248-4.524 1.248-1.583 0-2.964-.357-4.123-1.092zm6.998-2.541c.869-1.337 1.649-3.455 2.385-6.374.691-2.764 1.047-4.97 1.047-6.597 0-2.697-.936-4.034-2.808-4.034-1.181 0-2.207.668-3.076 2.005-.869 1.338-1.649 3.455-2.384 6.375-.691 2.696-1.026 4.903-1.026 6.574 0 1.338.223 2.341.691 3.031.446.691 1.159 1.026 2.118 1.026 1.181 0 2.184-.669 3.053-2.006zm-22.288-18.187v1.716c0 1.092-.245 2.229-.713 3.433-.49 1.225-1.203 2.585-2.162 4.078-.958 1.494-2.295 3.455-4.034 5.862l-12.079 16.782h-5.305l9.606-9.695-1.716-18.632c-.646.111-1.248.557-1.85 1.337s-1.315 2.118-2.117 3.967l-1.159-.378c1.114-2.786 2.295-4.904 3.521-6.33 1.226-1.427 2.541-2.14 3.99-2.14h1.894l1.538 17.384 1.605-2.251c1.359-1.939 2.362-3.454 2.986-4.546.602-1.092 1.048-2.14 1.293-3.187.245-1.026.356-2.296.356-3.834v-3.566zm-30.422 16.092a3.199 3.199 0 0 0 -.111.824c0 .469.134.825.379 1.07s.579.379 1.003.379c.691 0 1.448-.446 2.251-1.359.802-.892 1.716-2.274 2.719-4.124l1.136.625c-1.404 2.652-2.786 4.702-4.145 6.151-1.36 1.448-2.831 2.162-4.391 2.162-1.136 0-2.05-.335-2.696-1.003-.669-.669-1.003-1.56-1.003-2.697 0-.49.066-1.003.2-1.538l3.566-14.286h-3.521l.557-2.296h3.544l1.337-5.393h4.547l-1.338 5.393h5.728l-.579 2.296h-5.728zm-6.508-25.675-1.181 4.658h-4.948l1.204-4.658zm-4.769 26.321c.735-.78 1.56-2.073 2.451-3.856l1.159.468c-2.407 5.349-5.17 8.024-8.313 8.024h-3.41l5.015-17.875h-.557c-.736 0-1.471.424-2.184 1.271-.736.869-1.516 2.251-2.341 4.145l-1.225-.379c2.317-5.683 5.014-8.536 8.09-8.536h3.744l-5.059 17.942h.379c.758 0 1.515-.402 2.251-1.204zm-18.499-.646a3.199 3.199 0 0 0 -.111.824c0 .469.134.825.379 1.07s.579.379 1.003.379c.691 0 1.448-.446 2.251-1.359.802-.892 1.716-2.274 2.719-4.124l1.136.625c-1.404 2.652-2.785 4.702-4.145 6.151-1.36 1.448-2.831 2.162-4.391 2.162-1.136 0-2.05-.335-2.696-1.003-.669-.669-1.003-1.56-1.003-2.697 0-.49.067-1.003.2-1.538l3.566-14.286h-3.521l.557-2.296h3.544l1.337-5.393h4.547l-1.338 5.393h5.728l-.579 2.296h-5.728zm-7.644-2.742c-2.43 5.349-5.193 8.024-8.336 8.024h-3.343l4.525-15.601c.133-.446.2-.869.2-1.271 0-.891-.357-1.337-1.047-1.337-.78 0-1.783.825-3.031 2.452-1.249 1.627-2.497 3.655-3.745 6.062-1.27 2.407-2.251 4.658-2.986 6.753l-1.025 2.942h-4.347l4.458-17.875h-.334c-.736 0-1.471.424-2.185 1.271-.735.869-1.515 2.251-2.34 4.145l-1.226-.379c2.318-5.683 5.015-8.536 8.091-8.536h3.187l-3.209 11.746h.557c1.359-2.63 2.563-4.792 3.633-6.508 1.047-1.694 2.161-3.076 3.343-4.123 1.159-1.048 2.362-1.56 3.588-1.56 1.07 0 1.917.334 2.541.98.624.669.936 1.56.936 2.675 0 .624-.089 1.248-.29 1.894l-3.744 12.838h.267c.758 0 1.516-.402 2.251-1.204.736-.78 1.56-2.073 2.43-3.856zm-25.876 0c-2.407 5.349-5.171 8.024-8.313 8.024h-2.786l3.343-12.303h-.557c-1.516 2.808-2.875 5.104-4.056 6.909-1.204 1.806-2.407 3.232-3.611 4.279-1.203 1.048-2.407 1.561-3.61 1.561-1.249 0-2.207-.424-2.876-1.271-.69-.847-1.025-1.961-1.025-3.321 0-.735.089-1.471.29-2.206.446-1.783 1.293-3.655 2.563-5.616 1.248-1.939 2.808-3.767 4.658-5.439 1.85-1.671 3.834-3.008 5.973-3.967h8.447l-4.48 17.942h.179c.757 0 1.515-.402 2.251-1.204.735-.78 1.56-2.073 2.451-3.856zm-12.837.446c1.849-2.607 3.588-5.505 5.259-8.692l.758-1.471h-5.928c-1.404 1.226-2.652 2.719-3.7 4.48-1.047 1.761-1.783 3.41-2.184 4.992a8.662 8.662 0 0 0 -.268 2.051c0 .78.134 1.404.402 1.872.267.468.668.691 1.203.691 1.137 0 2.608-1.315 4.458-3.923zm-12.102-.446c-2.407 5.349-5.171 8.024-8.314 8.024h-2.897l3.299-12.481h-.535a45.03 45.03 0 0 1 -1.404 3.009 84.871 84.871 0 0 1 -2.118 3.722c-1.092 1.805-2.206 3.298-3.365 4.457-1.181 1.159-2.429 1.739-3.744 1.739-1.003 0-1.806-.357-2.43-1.048s-.936-1.605-.936-2.719c0-.468.067-.981.201-1.515l3.254-13.039h-.335c-.735 0-1.471.424-2.184 1.271-.735.869-1.515 2.251-2.34 4.145l-1.226-.379c2.318-5.683 5.015-8.536 8.091-8.536h3.41l-3.945 15.757c-.067.335-.112.602-.112.847 0 .424.089.758.268 1.003.178.268.445.401.824.401.558 0 1.182-.401 1.872-1.181.669-.78 1.494-2.006 2.497-3.655a78.34 78.34 0 0 0 2.852-5.282c.959-1.984 1.739-3.744 2.341-5.282l1.003-2.608h4.412l-4.479 17.942h.178c.758 0 1.516-.402 2.251-1.204.736-.78 1.56-2.073 2.452-3.856zm-30.334.959c-1.426 2.05-3.12 3.699-5.103 4.97a15.776 15.776 0 0 1 -6.441 2.362l-.023.112c1.003.423 2.385.847 4.101 1.27 1.716.424 3.611.802 5.683 1.137l3.165.468-1.181 4.636-3.254-.491a22.859 22.859 0 0 1 -5.371-1.359c-1.672-.647-3.187-1.382-4.525-2.207-1.359-.824-2.964-1.872-4.858-3.187-.29-.2-.602-.423-.981-.691a65.933 65.933 0 0 1 -1.315-.869c-2.006-1.337-3.543-3.031-4.636-5.081-1.092-2.051-1.649-4.302-1.649-6.754 0-1.426.179-2.852.557-4.301.714-2.875 1.873-5.394 3.477-7.578 1.605-2.162 3.544-3.855 5.84-5.059 2.295-1.203 4.791-1.805 7.533-1.805 2.607 0 4.881.579 6.775 1.716 1.894 1.159 3.365 2.719 4.368 4.703 1.003 1.983 1.494 4.167 1.494 6.597 0 1.493-.179 2.986-.558 4.479-.646 2.586-1.671 4.904-3.098 6.932zm-21.106-3.098c0 2.763.647 4.903 1.917 6.441s3.209 2.295 5.817 2.295c2.563 0 4.725-1.047 6.53-3.164 1.783-2.118 3.21-5.282 4.257-9.539.646-2.519.958-4.77.958-6.753 0-2.719-.624-4.837-1.872-6.33-1.27-1.493-3.209-2.251-5.817-2.251-2.607 0-4.814 1.047-6.597 3.12s-3.209 5.238-4.257 9.495c-.624 2.54-.936 4.769-.936 6.686z" fill="#bbb6af"/><path d="m598.204 389.145a3.2 3.2 0 0 0 -.111.825c0 .468.133.824.379 1.069.245.246.579.379 1.003.379.69 0 1.448-.445 2.251-1.359.802-.892 1.716-2.273 2.719-4.123l1.136.624c-1.404 2.652-2.786 4.702-4.145 6.151-1.36 1.449-2.831 2.162-4.391 2.162-1.136 0-2.05-.334-2.697-1.003-.668-.669-1.002-1.56-1.002-2.697 0-.49.066-1.003.2-1.538l3.566-14.286h-3.521l.557-2.295h3.544l1.337-5.394h4.546l-1.337 5.394h5.728l-.579 2.295h-5.728zm-7.644-2.741c-2.43 5.349-5.193 8.023-8.336 8.023h-3.343l4.524-15.601c.134-.446.201-.869.201-1.27 0-.892-.357-1.338-1.048-1.338-.78 0-1.783.825-3.031 2.452s-2.496 3.655-3.744 6.062c-1.27 2.407-2.251 4.658-2.986 6.753l-1.026 2.942h-4.346l4.458-17.874h-.334c-.736 0-1.471.423-2.185 1.27-.735.869-1.515 2.251-2.34 4.146l-1.226-.379c2.318-5.684 5.015-8.536 8.091-8.536h3.187l-3.21 11.745h.558c1.359-2.63 2.563-4.792 3.632-6.508 1.048-1.694 2.162-3.076 3.344-4.123 1.158-1.048 2.362-1.56 3.588-1.56 1.07 0 1.917.334 2.541.98.624.669.936 1.561.936 2.675a6.33 6.33 0 0 1 -.29 1.894l-3.744 12.838h.267c.758 0 1.516-.401 2.251-1.204.736-.78 1.56-2.072 2.429-3.855zm-27.681-13.35a3.507 3.507 0 0 1 1.381 1.292c.335.557.513 1.226.513 1.961 0 .379-.067.803-.178 1.271-.468 1.872-1.649 3.254-3.544 4.123-1.894.892-4.502 1.426-7.845 1.627-.156.958-.245 1.805-.245 2.585 0 1.605.334 2.875.98 3.811.647.959 1.583 1.427 2.831 1.427.958 0 1.828-.29 2.563-.847s1.426-1.36 2.117-2.407l1.07.557c-.981 2.028-2.162 3.588-3.544 4.725-1.381 1.137-2.919 1.694-4.613 1.694-1.27 0-2.34-.29-3.254-.847s-1.605-1.337-2.073-2.34-.713-2.184-.713-3.522c0-1.003.134-2.072.424-3.187.512-2.072 1.404-4.056 2.652-5.95 1.248-1.895 2.719-3.455 4.39-4.636 1.672-1.181 3.388-1.783 5.126-1.783.714 0 1.36.156 1.962.446zm-2.719 4.034c0-.647-.134-1.182-.402-1.583-.267-.379-.668-.579-1.181-.579-1.07 0-2.072.668-2.986 2.006-.936 1.359-1.65 3.031-2.14 5.037 2.117-.112 3.655-.469 4.636-1.026s1.605-1.382 1.894-2.474c.112-.512.179-.98.179-1.381zm-19.011-2.942c1.493.757 2.629 1.783 3.432 3.075.78 1.315 1.181 2.786 1.181 4.413 0 .825-.111 1.716-.334 2.63-.557 2.207-1.583 4.168-3.121 5.929a18.918 18.918 0 0 1 -5.304 4.234h-6.463l-2.118 8.558 3.321.87-.289 1.069h-10.966l.29-1.069 3.142-.847 6.687-26.656c-.959.223-1.895.535-2.786.958-.914.424-1.694.914-2.363 1.449l-.735-.891a25.906 25.906 0 0 1 3.12-2.497 14.36 14.36 0 0 1 3.432-1.649l1.137-4.546h4.435l-.958 3.833c2.028.022 3.766.401 5.26 1.137zm.936 10.14c0-2.139-.602-3.922-1.828-5.371s-2.942-2.34-5.171-2.697l-3.632 14.554h8.402c.914-.936 1.515-2.095 1.85-3.455.245-1.002.379-2.005.379-3.031zm-35.593 8.982 1.114-4.39c1.56.824 3.12 1.493 4.68 2.005 1.538.513 2.764.758 3.678.758.735 0 1.315-.178 1.694-.557s.557-.847.557-1.449c0-.401-.134-.78-.379-1.159-.245-.356-.646-.713-1.204-1.092-.534-.379-1.292-.824-2.251-1.359-1.047-.58-1.849-1.07-2.384-1.471-1.115-.847-1.672-1.895-1.672-3.165 0-.446.067-.914.201-1.426.289-1.182.891-2.318 1.76-3.388a10.703 10.703 0 0 1 3.098-2.563c1.182-.646 2.385-.958 3.566-.958h5.349l-1.025 4.011h-8.447c-.557 0-1.025.134-1.359.379-.335.268-.513.624-.513 1.092 0 .602.446 1.204 1.337 1.85a8.35 8.35 0 0 0 1.115.691c.468.245.936.49 1.426.735 1.181.602 2.028 1.048 2.496 1.36 1.226.802 1.85 1.917 1.85 3.343 0 .513-.067 1.048-.223 1.627-.29 1.092-.802 2.14-1.582 3.187a9.24 9.24 0 0 1 -2.875 2.541c-1.137.669-2.318 1.003-3.589 1.003-1.693 0-3.833-.535-6.418-1.605zm113.108-55 1.114-4.39a30.225 30.225 0 0 0 4.681 2.005c1.538.513 2.763.758 3.677.758.736 0 1.315-.178 1.694-.557s.557-.847.557-1.449c0-.401-.134-.78-.379-1.159-.245-.356-.646-.713-1.203-1.092-.535-.379-1.293-.824-2.251-1.359-1.048-.58-1.85-1.07-2.385-1.471-1.114-.847-1.672-1.895-1.672-3.165 0-.446.067-.914.201-1.426.29-1.182.892-2.318 1.761-3.388a10.677 10.677 0 0 1 3.098-2.563c1.181-.646 2.384-.958 3.566-.958h5.349l-1.026 4.011h-8.447c-.557 0-1.025.134-1.359.379-.334.268-.513.624-.513 1.092 0 .602.446 1.204 1.338 1.85.267.201.646.446 1.114.691s.936.49 1.426.735c1.182.602 2.028 1.048 2.497 1.36 1.225.802 1.849 1.917 1.849 3.343 0 .513-.066 1.048-.222 1.627-.29 1.092-.803 2.14-1.583 3.187a9.229 9.229 0 0 1 -2.875 2.541c-1.137.669-2.318 1.003-3.588 1.003-1.694 0-3.834-.535-6.419-1.605zm-.267-6.864c-2.43 5.349-5.193 8.023-8.336 8.023h-3.343l4.524-15.601c.134-.446.201-.869.201-1.27 0-.892-.357-1.338-1.048-1.338-.78 0-1.783.825-3.031 2.452s-2.496 3.655-3.744 6.062c-1.27 2.407-2.251 4.658-2.986 6.753l-1.026 2.942h-4.346l4.458-17.874h-.335c-.735 0-1.471.423-2.184 1.27-.735.869-1.515 2.251-2.34 4.146l-1.226-.379c2.318-5.684 5.015-8.536 8.091-8.536h3.187l-3.21 11.745h.558c1.359-2.63 2.563-4.792 3.632-6.508 1.048-1.694 2.162-3.076 3.343-4.123 1.159-1.048 2.363-1.56 3.589-1.56 1.07 0 1.916.334 2.541.98.624.669.936 1.561.936 2.675a6.33 6.33 0 0 1 -.29 1.894l-3.744 12.838h.267c.758 0 1.516-.401 2.251-1.204.736-.78 1.56-2.072 2.429-3.855zm-27.681-13.35a3.517 3.517 0 0 1 1.382 1.292c.334.557.512 1.226.512 1.962 0 .378-.067.802-.178 1.27-.468 1.872-1.649 3.254-3.544 4.123-1.894.892-4.502 1.426-7.845 1.627-.156.958-.245 1.805-.245 2.585 0 1.605.334 2.875.98 3.811.647.959 1.583 1.427 2.831 1.427.958 0 1.828-.29 2.563-.847.736-.557 1.426-1.36 2.117-2.407l1.07.557c-.981 2.028-2.162 3.588-3.544 4.725-1.381 1.137-2.919 1.694-4.613 1.694-1.27 0-2.34-.29-3.254-.847s-1.605-1.337-2.073-2.34-.713-2.184-.713-3.522c0-1.003.134-2.072.424-3.187.512-2.072 1.404-4.056 2.652-5.95 1.248-1.895 2.719-3.455 4.39-4.636 1.672-1.181 3.388-1.783 5.126-1.783.714 0 1.36.156 1.962.446zm-2.719 4.034c0-.647-.134-1.182-.402-1.583-.267-.379-.668-.579-1.181-.579-1.07 0-2.072.668-2.986 2.006-.936 1.359-1.65 3.031-2.14 5.037 2.117-.112 3.655-.469 4.636-1.026s1.605-1.382 1.894-2.474c.112-.512.179-.98.179-1.381zm-15.49 1.849c-1.293 1.137-2.987 2.162-5.082 3.054l5.661 12.436h-4.947l-4.792-10.72-2.363.981-2.429 9.739h-4.524l7.176-28.684-2.986-1.582.267-1.114 8.247-1.293-5.305 21.217 5.126-2.206c.691-.29 1.248-.624 1.649-1.003.379-.357.714-.847.981-1.449.245-.601.513-1.471.802-2.585l.669-2.674h4.792l-.357 1.426c-.445 1.828-1.315 3.321-2.585 4.457zm-35.504 14.844c-1.159-.713-2.028-1.716-2.63-3.009-.602-1.27-.914-2.741-.914-4.391a15.4 15.4 0 0 1 .468-3.677c.513-2.028 1.271-3.811 2.318-5.349 1.026-1.516 2.251-2.697 3.655-3.521a8.813 8.813 0 0 1 4.547-1.226c1.582 0 2.964.356 4.123 1.092a7.187 7.187 0 0 1 2.63 3.009c.602 1.27.892 2.741.892 4.39 0 1.159-.156 2.385-.468 3.678-.513 2.028-1.271 3.811-2.296 5.326-1.047 1.538-2.273 2.697-3.677 3.522-1.404.824-2.92 1.248-4.525 1.248-1.582 0-2.964-.357-4.123-1.092zm6.998-2.541c.87-1.337 1.65-3.455 2.385-6.374.691-2.764 1.048-4.97 1.048-6.597 0-2.697-.936-4.034-2.809-4.034-1.181 0-2.206.668-3.075 2.006-.869 1.337-1.65 3.454-2.385 6.374-.691 2.697-1.025 4.903-1.025 6.575 0 1.337.223 2.34.691 3.031.445.691 1.159 1.025 2.117 1.025 1.181 0 2.184-.669 3.053-2.006zm-20.749-2.095a3.2 3.2 0 0 0 -.112.825c0 .468.134.824.379 1.069.245.246.58.379 1.003.379.691 0 1.449-.445 2.251-1.359.803-.892 1.716-2.273 2.719-4.123l1.137.624c-1.404 2.652-2.786 4.702-4.145 6.151-1.36 1.449-2.831 2.162-4.391 2.162-1.137 0-2.051-.334-2.697-1.003-.668-.669-1.003-1.56-1.003-2.697 0-.49.067-1.003.201-1.538l3.566-14.286h-3.522l.558-2.295h3.543l1.337-5.394h4.547l-1.337 5.394h5.728l-.58 2.295h-5.728zm-21.998 3.276 2.786.825-.312 1.181h-11.5l.312-1.181 3.521-.825-.713-7.889h-11.812l-4.346 7.6 3.454 1.114-.312 1.181h-9.182l.312-1.181 3.544-1.204 16.515-28.661h5.081zm-16.292-10.408h10.141l-1.382-15.311zm368.808 271.247c.736-.78 1.561-2.073 2.43-3.856l1.181.468c-2.429 5.349-5.193 8.024-8.313 8.024h-2.808l3.588-12.971h-.557c-1.716 3.098-3.187 5.572-4.458 7.466-1.27 1.894-2.518 3.343-3.744 4.391-1.226 1.047-2.496 1.56-3.789 1.56-1.315 0-2.362-.468-3.098-1.404-.758-.914-1.136-2.118-1.136-3.566 0-.669.089-1.36.267-2.095.423-1.739 1.27-3.566 2.541-5.461 1.248-1.894 2.786-3.677 4.635-5.327 1.85-1.649 3.812-2.964 5.929-3.967h4.859l1.849-7.377-2.964-1.56.268-1.114 8.224-1.293-7.311 29.286h.156c.758 0 1.516-.402 2.251-1.204zm-3.387-13.105h-6.486a19.202 19.202 0 0 0 -3.811 4.391c-1.092 1.716-1.805 3.343-2.184 4.881a7.798 7.798 0 0 0 -.268 1.939c0 .869.179 1.56.513 2.072.334.535.802.803 1.404.803 1.159-.023 2.63-1.181 4.391-3.522 1.76-2.318 3.477-5.037 5.148-8.135zm-19.947-3.633a3.51 3.51 0 0 1 1.381 1.293c.335.557.513 1.226.513 1.961 0 .379-.067.803-.178 1.271-.468 1.872-1.65 3.254-3.544 4.123-1.894.891-4.502 1.426-7.845 1.627-.156.958-.245 1.805-.245 2.585 0 1.605.334 2.875.98 3.811.647.959 1.583 1.427 2.831 1.427a4.17 4.17 0 0 0 2.563-.847c.735-.557 1.426-1.36 2.117-2.407l1.07.557c-.981 2.028-2.162 3.588-3.544 4.725-1.382 1.136-2.919 1.694-4.613 1.694-1.271 0-2.34-.29-3.254-.847s-1.605-1.338-2.073-2.34c-.468-1.003-.713-2.185-.713-3.522 0-1.003.134-2.073.423-3.187.513-2.073 1.405-4.056 2.653-5.951 1.248-1.894 2.719-3.454 4.39-4.635 1.672-1.182 3.388-1.783 5.126-1.783.714 0 1.36.156 1.962.445zm-2.719 4.034c0-.646-.134-1.181-.402-1.582-.267-.379-.668-.58-1.181-.58-1.07 0-2.073.669-2.986 2.006-.936 1.36-1.65 3.031-2.14 5.037 2.117-.111 3.655-.468 4.636-1.025.98-.557 1.605-1.382 1.894-2.474.112-.512.179-.98.179-1.382zm-13.685 9.316c-2.429 5.349-5.193 8.024-8.335 8.024h-3.344l4.525-15.601c.134-.446.2-.869.2-1.271 0-.891-.356-1.337-1.047-1.337-.78 0-1.783.825-3.031 2.452s-2.496 3.655-3.744 6.062c-1.271 2.407-2.251 4.658-2.987 6.753l-1.025 2.942h-4.346l4.457-17.875h-.334c-.736 0-1.471.424-2.184 1.271-.736.869-1.516 2.251-2.34 4.145l-1.226-.379c2.318-5.683 5.014-8.536 8.09-8.536h3.187l-3.209 11.746h.557c1.36-2.63 2.563-4.792 3.633-6.508 1.047-1.694 2.162-3.076 3.343-4.123 1.159-1.048 2.362-1.56 3.588-1.56 1.07 0 1.917.334 2.541.98.624.669.936 1.56.936 2.675 0 .624-.089 1.248-.29 1.894l-3.744 12.838h.268c.757 0 1.515-.402 2.251-1.204.735-.78 1.56-2.073 2.429-3.856zm-24.761-22.933-1.181 4.658h-4.948l1.203-4.658zm-4.77 26.321c.736-.78 1.56-2.073 2.452-3.856l1.159.468c-2.407 5.349-5.171 8.024-8.313 8.024h-3.41l5.014-17.875h-.557c-.735 0-1.471.424-2.184 1.271-.735.869-1.515 2.251-2.34 4.145l-1.226-.379c2.318-5.683 5.015-8.536 8.09-8.536h3.745l-5.06 17.942h.379c.758 0 1.516-.402 2.251-1.204zm-10.519-3.388c-2.407 5.349-5.171 8.024-8.313 8.024h-2.786l3.343-12.303h-.557c-1.516 2.808-2.876 5.104-4.057 6.909-1.203 1.806-2.407 3.232-3.61 4.279-1.204 1.048-2.407 1.561-3.611 1.561-1.248 0-2.206-.424-2.875-1.271-.691-.847-1.025-1.961-1.025-3.321 0-.735.089-1.471.29-2.206.445-1.783 1.292-3.655 2.563-5.616 1.248-1.939 2.808-3.767 4.658-5.439 1.85-1.671 3.833-3.008 5.973-3.967h8.447l-4.48 17.942h.178c.758 0 1.516-.402 2.251-1.204.736-.78 1.56-2.073 2.452-3.856zm-12.838.446c1.85-2.607 3.588-5.505 5.26-8.692l.758-1.471h-5.929c-1.404 1.226-2.652 2.719-3.699 4.48-1.048 1.761-1.783 3.41-2.184 4.992a8.61 8.61 0 0 0 -.268 2.051c0 .78.134 1.404.401 1.872.268.468.669.691 1.204.691 1.136 0 2.607-1.315 4.457-3.923zm-8.692-13.06-.869 3.477h-2.964c-.067 1.56-.624 3.008-1.672 4.323-1.047 1.338-2.362 2.541-3.945 3.633l-2.54 1.716c-.736.491-1.093.981-1.093 1.494 0 .445.268.913.825 1.381l4.547 3.923c.958.825 1.627 1.538 2.05 2.14.424.624.624 1.27.624 1.961 0 .334-.044.691-.134 1.07-.245.958-.802 1.939-1.671 2.919-.869.981-1.917 1.783-3.143 2.43-1.225.646-2.496.98-3.811.98-1.716 0-3.477-.379-5.326-1.159-1.85-.78-3.388-1.783-4.614-3.008-1.226-1.226-1.827-2.452-1.827-3.678 0-.29.022-.535.089-.78a3.9 3.9 0 0 1 1.203-1.984c.602-.534 1.449-1.025 2.563-1.493 1.115-.468 2.719-1.025 4.837-1.694-.023-.066-.023-.178-.023-.334 0-.646.245-1.337.758-2.05a6.245 6.245 0 0 1 1.894-1.761c-1.292-.045-2.384-.29-3.276-.736-.914-.445-1.582-1.025-2.05-1.76-.468-.713-.691-1.516-.691-2.385 0-.446.044-.869.156-1.293.357-1.448 1.159-2.852 2.385-4.167 1.225-1.315 2.674-2.363 4.301-3.165 1.627-.78 3.165-1.181 4.636-1.181s2.652.401 3.566 1.181zm-8.09 3.254c0-.825-.179-1.471-.513-1.984-.334-.512-.847-.758-1.538-.758-.735 0-1.471.268-2.228.803-.758.557-1.427 1.27-2.006 2.139a8.852 8.852 0 0 0 -1.226 2.742 6.639 6.639 0 0 0 -.201 1.56c0 1.07.335 1.939.981 2.63s1.605 1.114 2.875 1.27l.134-.134c.824-.824 1.538-1.805 2.139-2.942a15.443 15.443 0 0 0 1.36-3.588 6.643 6.643 0 0 0 .223-1.738zm-8.046 15.579c-1.449.512-2.541.936-3.298 1.27-.781.334-1.315.646-1.627.892-.335.267-.535.557-.602.869-.022.111-.045.223-.045.289 0 .803.624 1.717 1.85 2.742 1.226 1.047 2.719 1.939 4.435 2.674 1.716.736 3.21 1.115 4.502 1.115.669 0 1.226-.134 1.694-.402.446-.245.736-.646.869-1.181.045-.156.067-.29.067-.446 0-.401-.178-.824-.512-1.27-.335-.423-.959-1.025-1.85-1.805zm118.948-54.354 1.114-4.391c1.56.825 3.12 1.494 4.68 2.006 1.538.513 2.764.758 3.678.758.735 0 1.315-.178 1.694-.557s.557-.847.557-1.449c0-.401-.134-.78-.379-1.159-.245-.356-.646-.713-1.203-1.092-.535-.379-1.293-.825-2.252-1.359-1.047-.58-1.849-1.07-2.384-1.471-1.115-.847-1.672-1.895-1.672-3.165 0-.446.067-.914.201-1.427.29-1.181.891-2.318 1.76-3.387a10.703 10.703 0 0 1 3.098-2.563c1.182-.647 2.385-.959 3.566-.959h5.349l-1.025 4.012h-8.447c-.557 0-1.025.134-1.359.379-.335.267-.513.624-.513 1.092 0 .602.446 1.203 1.337 1.85.268.2.647.446 1.115.691s.936.49 1.426.735c1.181.602 2.028 1.048 2.496 1.36 1.226.802 1.85 1.916 1.85 3.343 0 .512-.067 1.047-.223 1.627-.289 1.092-.802 2.139-1.582 3.187a9.265 9.265 0 0 1 -2.875 2.541c-1.137.668-2.318 1.003-3.588 1.003-1.694 0-3.834-.535-6.419-1.605zm-.268-6.865c-2.429 5.349-5.193 8.024-8.335 8.024h-3.343l4.524-15.601c.134-.446.201-.869.201-1.271 0-.891-.357-1.337-1.048-1.337-.78 0-1.783.825-3.031 2.452s-2.496 3.655-3.744 6.062c-1.271 2.407-2.251 4.658-2.987 6.753l-1.025 2.942h-4.346l4.457-17.875h-.334c-.735 0-1.471.424-2.184 1.271-.735.869-1.516 2.251-2.34 4.145l-1.226-.379c2.318-5.683 5.015-8.536 8.09-8.536h3.187l-3.209 11.746h.557c1.36-2.63 2.563-4.792 3.633-6.508 1.048-1.694 2.162-3.076 3.343-4.123 1.159-1.048 2.363-1.56 3.588-1.56 1.07 0 1.917.334 2.541.98.624.669.936 1.56.936 2.675 0 .624-.089 1.248-.289 1.894l-3.745 12.838h.268c.758 0 1.515-.402 2.251-1.204.735-.78 1.56-2.073 2.429-3.856zm-27.681-13.35c.58.312 1.048.736 1.382 1.293s.513 1.226.513 1.961c0 .379-.067.803-.178 1.271-.469 1.872-1.65 3.254-3.544 4.123-1.895.891-4.502 1.426-7.845 1.627-.156.958-.246 1.805-.246 2.585 0 1.605.335 2.875.981 3.811.646.959 1.583 1.427 2.831 1.427a4.17 4.17 0 0 0 2.563-.847c.735-.557 1.426-1.36 2.117-2.407l1.07.557c-.981 2.028-2.162 3.588-3.544 4.725-1.382 1.136-2.92 1.694-4.613 1.694-1.271 0-2.341-.29-3.254-.847-.914-.557-1.605-1.338-2.073-2.34-.468-1.003-.713-2.185-.713-3.522 0-1.003.133-2.073.423-3.187.513-2.073 1.404-4.056 2.652-5.951 1.248-1.894 2.719-3.454 4.391-4.635 1.672-1.182 3.388-1.783 5.126-1.783.713 0 1.36.156 1.961.445zm-2.719 4.034c0-.646-.133-1.181-.401-1.582-.267-.379-.669-.58-1.181-.58-1.07 0-2.073.669-2.987 2.006-.936 1.36-1.649 3.031-2.139 5.037 2.117-.111 3.655-.468 4.636-1.025.98-.557 1.604-1.382 1.894-2.474.111-.512.178-.981.178-1.382zm-15.489 1.85c-1.293 1.137-2.987 2.162-5.082 3.054l5.661 12.436h-4.948l-4.791-10.72-2.363.98-2.429 9.74h-4.525l7.177-28.684-2.987-1.582.268-1.115 8.246-1.292-5.304 21.217 5.126-2.206c.691-.29 1.248-.624 1.649-1.003.379-.357.713-.847.981-1.449.245-.602.512-1.471.802-2.585l.669-2.675h4.792l-.357 1.427c-.446 1.827-1.315 3.321-2.585 4.457zm-35.504 14.844c-1.159-.714-2.028-1.717-2.63-3.009-.602-1.271-.914-2.742-.914-4.391a15.4 15.4 0 0 1 .468-3.677c.513-2.028 1.271-3.811 2.318-5.349 1.025-1.516 2.251-2.697 3.655-3.522a8.82 8.82 0 0 1 4.547-1.225c1.582 0 2.964.356 4.123 1.092a7.19 7.19 0 0 1 2.63 3.008c.602 1.271.891 2.742.891 4.391 0 1.159-.156 2.385-.468 3.677-.512 2.029-1.27 3.812-2.295 5.327-1.048 1.538-2.274 2.697-3.678 3.522-1.404.824-2.919 1.248-4.524 1.248-1.582 0-2.964-.357-4.123-1.092zm6.998-2.541c.869-1.337 1.649-3.455 2.385-6.374.691-2.764 1.047-4.97 1.047-6.597 0-2.697-.936-4.034-2.808-4.034-1.181 0-2.206.668-3.076 2.005-.869 1.338-1.649 3.455-2.384 6.375-.691 2.696-1.026 4.903-1.026 6.574 0 1.338.223 2.341.691 3.031.446.691 1.159 1.026 2.118 1.026 1.181 0 2.184-.669 3.053-2.006zm-20.749-2.095a3.198 3.198 0 0 0 -.112.824c0 .468.134.825.379 1.07s.579.379 1.003.379c.691 0 1.449-.446 2.251-1.359.802-.892 1.716-2.274 2.719-4.124l1.137.624c-1.404 2.653-2.786 4.703-4.146 6.152-1.359 1.448-2.83 2.162-4.39 2.162-1.137 0-2.051-.335-2.697-1.003-.669-.669-1.003-1.56-1.003-2.697 0-.49.067-1.003.2-1.538l3.566-14.286h-3.521l.557-2.296h3.544l1.337-5.393h4.547l-1.337 5.393h5.727l-.579 2.296h-5.728zm-19.546-24.984c1.181.535 2.05 1.248 2.629 2.162.558.913.847 1.961.847 3.097 0 .647-.067 1.249-.223 1.85-.468 1.85-1.404 3.321-2.808 4.391-1.426 1.07-3.231 1.894-5.438 2.452v.089c1.805.468 3.187 1.27 4.19 2.407.981 1.136 1.471 2.518 1.471 4.101a8.51 8.51 0 0 1 -.267 2.05c-.379 1.538-1.048 2.875-2.028 4.012-.981 1.159-2.251 2.05-3.789 2.697-1.538.646-3.321.958-5.327.958h-16.047l.312-1.181 3.856-1.003 6.664-26.678-3.343-.981.267-1.203h14.665c1.716 0 3.187.267 4.369.78zm-1.984 5.46c0-1.315-.334-2.362-1.025-3.142s-1.739-1.159-3.098-1.159h-4.636l-2.986 11.99h5.549c1.382 0 2.608-.49 3.678-1.471 1.047-.98 1.782-2.295 2.206-3.922.201-.825.312-1.605.312-2.296zm-2.764 14.531c0-1.537-.423-2.763-1.248-3.632-.847-.87-2.05-1.315-3.588-1.315h-4.614l-3.32 13.283h6.708c.78 0 1.56-.223 2.318-.646.758-.424 1.449-1.092 2.05-1.962.602-.869 1.048-1.939 1.36-3.187.223-.914.334-1.76.334-2.541z" fill="#f6f2e7"/><path clip-rule="evenodd" d="m250.283 863.717v-777.717h-3v780.717h782.347v-3z" fill="#bbb6af" fill-rule="evenodd"/><path d="m464.385 618.777c-2.429 5.349-5.193 8.024-8.335 8.024h-3.343l4.524-15.601c.134-.446.2-.87.2-1.271 0-.891-.356-1.337-1.047-1.337-.78 0-1.783.825-3.031 2.452-1.248 1.626-2.496 3.655-3.744 6.062-1.271 2.407-2.251 4.658-2.987 6.753l-1.025 2.942h-4.346l4.457-17.875h-.334c-.735 0-1.471.424-2.184 1.271-.736.869-1.516 2.251-2.34 4.145l-1.226-.379c2.318-5.683 5.015-8.536 8.09-8.536h3.187l-3.209 11.746h.557c1.36-2.63 2.563-4.792 3.633-6.508 1.047-1.694 2.162-3.076 3.343-4.124 1.159-1.047 2.362-1.56 3.588-1.56 1.07 0 1.917.335 2.541.981.624.669.936 1.56.936 2.674a6.3 6.3 0 0 1 -.29 1.895l-3.744 12.837h.268c.757 0 1.515-.401 2.251-1.203.735-.78 1.56-2.073 2.429-3.856zm-41.9 7.377c-1.159-.713-2.028-1.716-2.63-3.008-.602-1.271-.914-2.742-.914-4.391a15.4 15.4 0 0 1 .468-3.677c.513-2.029 1.271-3.812 2.318-5.349 1.025-1.516 2.251-2.697 3.655-3.522a8.82 8.82 0 0 1 4.547-1.226c1.582 0 2.964.357 4.123 1.092a7.2 7.2 0 0 1 2.63 3.009c.602 1.271.891 2.742.891 4.391 0 1.159-.156 2.385-.468 3.677-.512 2.028-1.27 3.811-2.295 5.327-1.048 1.538-2.274 2.697-3.678 3.521-1.404.825-2.919 1.248-4.524 1.248-1.582 0-2.964-.356-4.123-1.092zm6.998-2.54c.869-1.338 1.649-3.455 2.385-6.375.691-2.763 1.047-4.97 1.047-6.597 0-2.696-.936-4.034-2.808-4.034-1.181 0-2.206.669-3.075 2.006-.87 1.337-1.65 3.455-2.385 6.374-.691 2.697-1.025 4.904-1.025 6.575 0 1.337.222 2.34.69 3.031.446.691 1.159 1.025 2.118 1.025 1.181 0 2.184-.668 3.053-2.005zm-11.656-27.77-1.181 4.658h-4.948l1.203-4.658zm-4.77 26.321c.736-.78 1.56-2.073 2.452-3.856l1.159.468c-2.407 5.349-5.171 8.024-8.313 8.024h-3.41l5.014-17.875h-.557c-.735 0-1.471.424-2.184 1.271-.735.869-1.515 2.251-2.34 4.145l-1.226-.379c2.318-5.683 5.015-8.536 8.09-8.536h3.745l-5.06 17.941h.379c.758 0 1.516-.401 2.251-1.203zm-18.498-.646a3.198 3.198 0 0 0 -.112.824c0 .468.134.825.379 1.07s.58.379 1.003.379c.691 0 1.449-.446 2.251-1.36.803-.891 1.716-2.273 2.719-4.123l1.137.624c-1.404 2.652-2.786 4.703-4.146 6.152-1.359 1.448-2.83 2.161-4.39 2.161-1.137 0-2.051-.334-2.697-1.002-.669-.669-1.003-1.561-1.003-2.697 0-.491.067-1.003.201-1.538l3.566-14.286h-3.522l.558-2.296h3.543l1.337-5.393h4.547l-1.337 5.393h5.728l-.58 2.296h-5.728zm-6.508-25.675-1.181 4.658h-4.948l1.203-4.658zm-4.77 26.321c.736-.78 1.561-2.073 2.452-3.856l1.159.468c-2.407 5.349-5.171 8.024-8.313 8.024h-3.41l5.015-17.875h-.558c-.735 0-1.471.424-2.184 1.271-.735.869-1.515 2.251-2.34 4.145l-1.226-.379c2.318-5.683 5.015-8.536 8.09-8.536h3.745l-5.059 17.941h.378c.758 0 1.516-.401 2.251-1.203zm-27.48 3.477 1.114-4.391a30.232 30.232 0 0 0 4.681 2.006c1.538.513 2.763.758 3.677.758.736 0 1.315-.179 1.694-.557.379-.379.557-.847.557-1.449 0-.401-.133-.78-.379-1.159-.245-.357-.646-.713-1.203-1.092-.535-.379-1.293-.825-2.251-1.36-1.048-.579-1.85-1.069-2.385-1.471-1.114-.847-1.671-1.894-1.671-3.164 0-.446.066-.914.2-1.427.29-1.181.892-2.318 1.761-3.388a10.722 10.722 0 0 1 3.098-2.563c1.181-.646 2.385-.958 3.566-.958h5.349l-1.025 4.012h-8.447c-.558 0-1.026.134-1.36.379-.334.267-.513.624-.513 1.092 0 .602.446 1.203 1.338 1.85.267.2.646.445 1.114.691.468.245.936.49 1.426.735 1.182.602 2.029 1.048 2.497 1.36 1.225.802 1.849 1.916 1.849 3.343a6.2 6.2 0 0 1 -.222 1.627c-.29 1.092-.803 2.139-1.583 3.187a9.238 9.238 0 0 1 -2.875 2.54c-1.137.669-2.318 1.003-3.588 1.003-1.694 0-3.834-.534-6.419-1.604zm-16.225.512c-1.159-.713-2.028-1.716-2.63-3.008-.602-1.271-.914-2.742-.914-4.391a15.4 15.4 0 0 1 .468-3.677c.513-2.029 1.271-3.812 2.318-5.349 1.025-1.516 2.251-2.697 3.655-3.522a8.82 8.82 0 0 1 4.547-1.226c1.582 0 2.964.357 4.123 1.092a7.2 7.2 0 0 1 2.63 3.009c.602 1.271.891 2.742.891 4.391 0 1.159-.156 2.385-.468 3.677-.512 2.028-1.27 3.811-2.295 5.327-1.048 1.538-2.273 2.697-3.678 3.521-1.404.825-2.919 1.248-4.524 1.248-1.582 0-2.964-.356-4.123-1.092zm6.998-2.54c.869-1.338 1.649-3.455 2.385-6.375.691-2.763 1.047-4.97 1.047-6.597 0-2.696-.936-4.034-2.808-4.034-1.181 0-2.206.669-3.075 2.006-.87 1.337-1.65 3.455-2.385 6.374-.691 2.697-1.025 4.904-1.025 6.575 0 1.337.222 2.34.69 3.031.446.691 1.159 1.025 2.118 1.025 1.181 0 2.184-.668 3.053-2.005zm-18.209-17.095c1.494.758 2.63 1.783 3.433 3.076.78 1.315 1.181 2.786 1.181 4.413 0 .824-.112 1.716-.334 2.63-.558 2.206-1.583 4.167-3.121 5.928a18.918 18.918 0 0 1 -5.304 4.235h-6.463l-2.118 8.558 3.321.869-.29 1.07h-10.965l.29-1.07 3.142-.847 6.686-26.655c-.958.222-1.894.535-2.785.958a11.48 11.48 0 0 0 -2.363 1.449l-.735-.892a25.894 25.894 0 0 1 3.12-2.496 14.322 14.322 0 0 1 3.432-1.649l1.137-4.547h4.435l-.958 3.834c2.028.022 3.766.401 5.259 1.136zm.936 10.141c0-2.14-.601-3.923-1.827-5.371-1.226-1.449-2.942-2.34-5.171-2.697l-3.633 14.554h8.403c.913-.937 1.515-2.095 1.85-3.455.245-1.003.378-2.006.378-3.031zm90.309-49.495c.735-.78 1.56-2.073 2.429-3.856l1.181.468c-2.429 5.349-5.193 8.024-8.313 8.024h-2.808l3.588-12.972h-.557c-1.716 3.098-3.187 5.572-4.457 7.467-1.271 1.894-2.519 3.343-3.745 4.39-1.225 1.048-2.496 1.56-3.789 1.56-1.314 0-2.362-.468-3.097-1.404-.758-.913-1.137-2.117-1.137-3.566 0-.668.089-1.359.267-2.095.424-1.738 1.271-3.566 2.541-5.46 1.248-1.894 2.786-3.677 4.636-5.327 1.85-1.649 3.811-2.964 5.928-3.967h4.859l1.85-7.377-2.964-1.56.267-1.114 8.224-1.293-7.31 29.285h.156c.758 0 1.515-.401 2.251-1.203zm-3.388-13.105h-6.485a19.16 19.16 0 0 0 -3.812 4.391c-1.092 1.716-1.805 3.343-2.184 4.88a7.801 7.801 0 0 0 -.267 1.94c0 .869.178 1.56.512 2.072.335.535.803.803 1.405.803 1.158-.023 2.629-1.182 4.39-3.522 1.761-2.318 3.477-5.037 5.149-8.135zm-22.421 13.105c.736-.78 1.56-2.073 2.452-3.856l1.159.468c-2.407 5.349-5.171 8.024-8.314 8.024h-3.075l7.176-28.684-2.986-1.583.267-1.114 8.247-1.293-7.311 29.241h.134c.758 0 1.516-.401 2.251-1.203zm-32.718 3.343c-1.917-1.137-3.365-2.697-4.368-4.68-1.003-1.984-1.516-4.168-1.516-6.597 0-1.494.179-2.987.558-4.48.713-2.875 1.872-5.394 3.476-7.578 1.605-2.162 3.544-3.856 5.84-5.059 2.295-1.204 4.791-1.805 7.51-1.805 2.608 0 4.881.579 6.798 1.716 1.895 1.159 3.366 2.719 4.368 4.702 1.003 1.984 1.494 4.168 1.494 6.597 0 1.494-.179 2.987-.557 4.48-.714 2.875-1.873 5.416-3.477 7.578-1.605 2.184-3.544 3.878-5.84 5.059-2.295 1.204-4.791 1.805-7.51 1.805-2.608 0-4.881-.579-6.776-1.738zm13.685-3.388c1.76-2.072 3.187-5.215 4.234-9.472.647-2.518.959-4.769.959-6.731 0-2.719-.624-4.836-1.895-6.329-1.27-1.493-3.209-2.251-5.839-2.251-2.585 0-4.77 1.025-6.553 3.098-1.783 2.072-3.209 5.237-4.256 9.472-.625 2.474-.937 4.702-.937 6.731 0 2.741.624 4.858 1.895 6.352 1.248 1.493 3.187 2.251 5.817 2.251 2.607 0 4.792-1.048 6.575-3.121zm211.879 191.345c-2.429 5.349-5.193 8.023-8.336 8.023h-3.343l4.525-15.601c.133-.446.2-.869.2-1.27 0-.892-.356-1.338-1.047-1.338-.78 0-1.783.825-3.031 2.452s-2.497 3.655-3.745 6.062c-1.27 2.407-2.251 4.658-2.986 6.753l-1.025 2.942h-4.346l4.457-17.874h-.334c-.736 0-1.471.423-2.184 1.27-.736.869-1.516 2.251-2.341 4.146l-1.225-.379c2.317-5.684 5.014-8.536 8.09-8.536h3.187l-3.209 11.745h.557c1.359-2.63 2.563-4.792 3.633-6.508 1.047-1.694 2.162-3.076 3.343-4.123 1.159-1.048 2.362-1.56 3.588-1.56 1.07 0 1.917.334 2.541.98.624.669.936 1.561.936 2.675 0 .624-.089 1.248-.29 1.894l-3.744 12.838h.267c.758 0 1.516-.401 2.251-1.204.736-.78 1.56-2.072 2.43-3.855zm-41.9 7.377c-1.159-.713-2.029-1.716-2.63-3.009-.602-1.27-.914-2.741-.914-4.391a15.4 15.4 0 0 1 .468-3.677c.513-2.028 1.27-3.811 2.318-5.349 1.025-1.516 2.251-2.697 3.655-3.521a8.81 8.81 0 0 1 4.547-1.226c1.582 0 2.964.356 4.123 1.092a7.194 7.194 0 0 1 2.63 3.009c.601 1.27.891 2.741.891 4.39 0 1.159-.156 2.385-.468 3.678-.512 2.028-1.27 3.811-2.295 5.326-1.048 1.538-2.274 2.697-3.678 3.522-1.404.824-2.92 1.248-4.524 1.248-1.583 0-2.964-.357-4.123-1.092zm6.998-2.541c.869-1.337 1.649-3.454 2.385-6.374.69-2.764 1.047-4.97 1.047-6.597 0-2.697-.936-4.034-2.808-4.034-1.181 0-2.207.668-3.076 2.006-.869 1.337-1.649 3.454-2.385 6.374-.69 2.697-1.025 4.903-1.025 6.575 0 1.337.223 2.34.691 3.031.446.691 1.159 1.025 2.117 1.025 1.182 0 2.185-.669 3.054-2.006zm-11.656-27.77-1.182 4.658h-4.948l1.204-4.658zm-4.77 26.321c.735-.78 1.56-2.072 2.452-3.855l1.159.468c-2.407 5.349-5.171 8.023-8.314 8.023h-3.41l5.015-17.874h-.557c-.736 0-1.471.423-2.184 1.27-.736.869-1.516 2.251-2.34 4.146l-1.226-.379c2.318-5.684 5.014-8.536 8.09-8.536h3.744l-5.059 17.941h.379c.758 0 1.516-.401 2.251-1.204zm-18.498-.646a3.2 3.2 0 0 0 -.112.825c0 .468.134.824.379 1.07.245.245.579.378 1.003.378.691 0 1.449-.445 2.251-1.359.802-.892 1.716-2.273 2.719-4.123l1.137.624c-1.404 2.652-2.786 4.702-4.146 6.151-1.359 1.449-2.83 2.162-4.39 2.162-1.137 0-2.051-.334-2.697-1.003-.669-.669-1.003-1.56-1.003-2.697 0-.49.067-1.003.2-1.538l3.566-14.286h-3.521l.557-2.295h3.544l1.337-5.394h4.547l-1.337 5.394h5.727l-.579 2.295h-5.728zm-6.508-25.675-1.182 4.658h-4.947l1.203-4.658zm-4.77 26.321c.736-.78 1.56-2.072 2.452-3.855l1.159.468c-2.407 5.349-5.171 8.023-8.314 8.023h-3.409l5.014-17.874h-.557c-.735 0-1.471.423-2.184 1.27-.736.869-1.516 2.251-2.34 4.146l-1.226-.379c2.318-5.684 5.014-8.536 8.09-8.536h3.744l-5.059 17.941h.379c.758 0 1.516-.401 2.251-1.204zm-27.48 3.477 1.114-4.39c1.56.824 3.12 1.493 4.681 2.005 1.537.513 2.763.758 3.677.758.735 0 1.315-.178 1.694-.557s.557-.847.557-1.449c0-.401-.134-.78-.379-1.159-.245-.356-.646-.713-1.203-1.092-.535-.379-1.293-.824-2.251-1.359-1.048-.58-1.85-1.07-2.385-1.471-1.115-.847-1.672-1.895-1.672-3.165 0-.446.067-.914.201-1.426.29-1.182.891-2.318 1.761-3.388a10.686 10.686 0 0 1 3.097-2.563c1.182-.646 2.385-.958 3.566-.958h5.349l-1.025 4.011h-8.447c-.557 0-1.025.134-1.359.379-.335.268-.513.624-.513 1.092 0 .602.446 1.204 1.337 1.85a8.35 8.35 0 0 0 1.115.691c.468.245.936.49 1.426.736 1.181.601 2.028 1.047 2.496 1.359 1.226.802 1.85 1.917 1.85 3.343 0 .513-.067 1.048-.223 1.627-.289 1.092-.802 2.14-1.582 3.187a9.24 9.24 0 0 1 -2.875 2.541c-1.137.669-2.318 1.003-3.588 1.003-1.694 0-3.834-.535-6.419-1.605zm-16.225.513c-1.159-.713-2.029-1.716-2.63-3.009-.602-1.27-.914-2.741-.914-4.391a15.4 15.4 0 0 1 .468-3.677c.513-2.028 1.27-3.811 2.318-5.349 1.025-1.516 2.251-2.697 3.655-3.521a8.81 8.81 0 0 1 4.547-1.226c1.582 0 2.964.356 4.123 1.092a7.194 7.194 0 0 1 2.63 3.009c.601 1.27.891 2.741.891 4.39 0 1.159-.156 2.385-.468 3.678-.512 2.028-1.27 3.811-2.295 5.326-1.048 1.538-2.274 2.697-3.678 3.522-1.404.824-2.92 1.248-4.524 1.248-1.583 0-2.964-.357-4.123-1.092zm6.998-2.541c.869-1.337 1.649-3.454 2.385-6.374.69-2.764 1.047-4.97 1.047-6.597 0-2.697-.936-4.034-2.808-4.034-1.181 0-2.207.668-3.076 2.006-.869 1.337-1.649 3.454-2.385 6.374-.69 2.697-1.025 4.903-1.025 6.575 0 1.337.223 2.34.691 3.031.446.691 1.159 1.025 2.117 1.025 1.182 0 2.185-.669 3.054-2.006zm-18.209-17.094c1.493.757 2.63 1.783 3.432 3.075.78 1.315 1.182 2.786 1.182 4.413 0 .825-.112 1.716-.335 2.63-.557 2.207-1.582 4.168-3.12 5.929a18.946 18.946 0 0 1 -5.304 4.234h-6.464l-2.117 8.559 3.321.869-.29 1.07h-10.965l.289-1.07 3.143-.847 6.686-26.656c-.958.223-1.894.535-2.786.958-.914.424-1.694.914-2.362 1.449l-.736-.891a25.913 25.913 0 0 1 3.121-2.497 14.36 14.36 0 0 1 3.432-1.649l1.136-4.546h4.436l-.959 3.833c2.028.022 3.767.401 5.26 1.137zm.936 10.14c0-2.139-.602-3.922-1.827-5.371-1.226-1.448-2.942-2.34-5.171-2.697l-3.633 14.554h8.402c.914-.936 1.516-2.095 1.85-3.455.245-1.002.379-2.005.379-3.031zm99.223-66.232v1.894c0 3.41-.646 6.664-1.961 9.74-1.315 3.075-2.986 5.549-4.97 7.399-1.983 1.85-3.922 2.786-5.817 2.786-1.404 0-2.451-.424-3.142-1.248-.691-.825-1.07-1.917-1.137-3.321h-.223c-1.025 1.449-2.117 2.585-3.276 3.365-1.181.803-2.407 1.204-3.678 1.204-1.181 0-2.117-.401-2.83-1.226-.736-.802-1.092-1.872-1.092-3.187 0-.557.089-1.181.245-1.872l2.942-11.746h-5.238l.959-3.788h9.539l-3.655 14.665a5.957 5.957 0 0 0 -.223 1.627c0 .691.156 1.203.468 1.582s.802.58 1.448.58c.758 0 1.494-.312 2.229-.959.713-.624 1.36-1.471 1.917-2.541.557-1.047 1.003-2.228 1.337-3.499l2.875-11.455h4.324l-3.388 13.573c-.2.824-.312 1.56-.312 2.161 0 .87.201 1.538.602 2.006s1.025.714 1.85.714c1.047 0 2.05-.491 3.009-1.494.958-1.003 1.716-2.362 2.295-4.101.58-1.738.869-3.655.869-5.727v-7.132zm-34.277 0a3.507 3.507 0 0 1 1.381 1.292c.335.557.513 1.226.513 1.962 0 .378-.067.802-.178 1.27-.468 1.872-1.65 3.254-3.544 4.123-1.894.892-4.502 1.426-7.845 1.627-.156.958-.245 1.805-.245 2.585 0 1.605.334 2.875.98 3.812.647.958 1.583 1.426 2.831 1.426a4.17 4.17 0 0 0 2.563-.847c.735-.557 1.426-1.36 2.117-2.407l1.07.557c-.981 2.028-2.162 3.588-3.544 4.725s-2.919 1.694-4.613 1.694c-1.271 0-2.34-.29-3.254-.847s-1.605-1.337-2.073-2.34-.713-2.184-.713-3.522c0-1.003.134-2.072.423-3.187.513-2.072 1.404-4.056 2.653-5.95 1.248-1.895 2.719-3.455 4.39-4.636 1.672-1.181 3.388-1.783 5.126-1.783.713 0 1.36.156 1.962.446zm-2.72 4.034c0-.647-.133-1.182-.401-1.583-.267-.379-.668-.579-1.181-.579-1.07 0-2.073.668-2.986 2.006-.937 1.359-1.65 3.031-2.14 5.037 2.117-.112 3.655-.468 4.636-1.026.98-.557 1.604-1.382 1.894-2.474.112-.512.178-.98.178-1.381zm-8.38-13.707-.334 1.203-4.145 1.427-7.11 28.416h-3.945l-9.561-28.26h-.401l-6.441 25.63 3.432 1.449-.29 1.181h-9.673l.335-1.181 4.167-1.449 6.508-26.076-3.142-1.137.267-1.203h9.762l8.447 24.939 5.594-22.287-3.432-1.449.29-1.203zm-65.896-234.176c0 27.909-22.626 50.535-50.535 50.535-27.91 0-50.535-22.626-50.535-50.535 0-27.91 22.625-50.535 50.535-50.535 27.909 0 50.535 22.625 50.535 50.535z" fill="#f6f2e7"/><path d="m416.69 446.266c0 15.305-12.407 27.712-27.712 27.712-15.306 0-27.713-12.407-27.713-27.712 0-15.306 12.407-27.713 27.713-27.713 15.305 0 27.712 12.407 27.712 27.713z" fill="#fe970c"/><path d="m718.269 725.023c0 27.91-22.625 50.535-50.535 50.535-27.909 0-50.535-22.625-50.535-50.535s22.626-50.535 50.535-50.535c27.91 0 50.535 22.625 50.535 50.535z" fill="#f6f2e7"/><path d="m695.447 725.023c0 15.306-12.407 27.713-27.713 27.713-15.305 0-27.712-12.407-27.712-27.713 0-15.305 12.407-27.713 27.712-27.713 15.306 0 27.713 12.408 27.713 27.713z" fill="#fb50c0"/></svg>