<svg fill="none" height="490" viewBox="0 0 600 490" width="600" xmlns="http://www.w3.org/2000/svg" xmlns:xlink="http://www.w3.org/1999/xlink"><radialGradient id="a" cx="0" cy="0" gradientTransform="matrix(-599.99944743 -562.00012499 562.00012499 -599.99944743 600 562)" gradientUnits="userSpaceOnUse" r="1"><stop offset="0" stop-color="#fed4c9"/><stop offset=".125805" stop-color="#f8dbf4"/><stop offset=".411362" stop-color="#d8dbff"/><stop offset=".628973" stop-color="#c4ddff"/><stop offset="1" stop-color="#cae9ff"/></radialGradient><path d="m0 0h600v490h-600z" fill="url(#a)" transform="matrix(-1 0 0 -1 600 490)"/><path d="m259.972 57.6316c1.025-5.0234 5.444-8.6316 10.571-8.6316h58.914c5.127 0 9.546 3.6082 10.571 8.6316l4.452 21.8139c1.765 8.6505 8.217 15.5321 16.377 18.9008 8.131 3.3567 17.418 2.9867 24.756-1.8634l18.572-12.2763c4.277-2.8272 9.953-2.2539 13.579 1.3715l41.658 41.6589c3.625 3.625 4.199 9.301 1.371 13.578l-11.787 17.833c-4.994 7.554-5.326 17.126-1.817 25.474 3.473 8.259 10.468 14.786 19.247 16.578l20.932 4.272c5.024 1.025 8.632 5.444 8.632 10.571v58.914c0 5.127-3.608 9.546-8.632 10.571l-19.7 4.021c-9.14 1.865-16.386 8.724-19.923 17.357-3.503 8.55-3.131 18.304 1.965 26.012l11.083 16.767c2.827 4.277 2.254 9.953-1.371 13.578l-41.658 41.659c-3.626 3.625-9.302 4.199-13.579 1.372l-16.026-10.594c-7.927-5.24-17.968-5.573-26.738-1.914-8.729 3.643-15.662 11-17.553 20.268l-3.84 18.814c-1.025 5.024-5.444 8.632-10.571 8.632h-58.914c-5.127 0-9.546-3.608-10.571-8.632l-3.84-18.814c-1.891-9.268-8.824-16.625-17.553-20.268-8.77-3.659-18.811-3.326-26.739 1.914l-16.025 10.594c-4.277 2.827-9.953 2.253-13.579-1.372l-41.658-41.659c-3.625-3.625-4.198-9.301-1.371-13.578l11.083-16.767c5.095-7.708 5.468-17.461 1.965-26.012-3.537-8.633-10.783-15.492-19.923-17.357l-19.7-4.021c-5.024-1.025-8.632-5.444-8.632-10.571v-58.914c0-5.127 3.608-9.546 8.632-10.571l20.932-4.272c8.779-1.792 15.774-8.319 19.247-16.578 3.509-8.348 3.177-17.92-1.817-25.474l-11.787-17.833c-2.828-4.277-2.254-9.953 1.371-13.578l41.658-41.6589c3.626-3.6254 9.302-4.1987 13.579-1.3715l18.572 12.2763c7.338 4.8501 16.625 5.2201 24.756 1.8634 8.16-3.3687 14.612-10.2503 16.377-18.9008z" fill="#fff"/><g clip-rule="evenodd" fill-rule="evenodd"><g fill="#c9ddff"><path d="m344.061 200.939c.585.586.585 1.536 0 2.122l-86 86c-.586.585-1.536.585-2.122 0-.585-.586-.585-1.536 0-2.122l86-86c.586-.585 1.536-.585 2.122 0z"/><path d="m269.5 196.5c-9.941 0-18 8.059-18 18s8.059 18 18 18 18-8.059 18-18-8.059-18-18-18zm-21 18c0-11.598 9.402-21 21-21s21 9.402 21 21-9.402 21-21 21-21-9.402-21-21z"/><path d="m330.5 257.5c-9.941 0-18 8.059-18 18s8.059 18 18 18 18-8.059 18-18-8.059-18-18-18zm-21 18c0-11.598 9.402-21 21-21s21 9.402 21 21-9.402 21-21 21-21-9.402-21-21z"/></g><path d="m297.648 130.109c1.334-1.211 3.37-1.211 4.704 0l18.284 16.596c.133.121.321.161.492.104l23.453-7.724c1.712-.563 3.572.265 4.298 1.914l9.953 22.597c.073.165.228.278.408.296l24.566 2.483c1.793.181 3.156 1.694 3.148 3.496l-.098 24.692c-.001.18.095.347.252.436l21.433 12.261c1.564.894 2.193 2.831 1.453 4.474l-10.133 22.517c-.074.164-.054.355.053.501l14.593 19.918c1.065 1.453.852 3.478-.492 4.679l-18.415 16.448c-.134.12-.194.303-.156.479l5.23 24.132c.382 1.761-.636 3.524-2.352 4.074l-23.514 7.537c-.171.055-.3.198-.337.374l-5.037 24.173c-.367 1.764-2.015 2.961-3.806 2.765l-24.546-2.679c-.179-.02-.355.059-.46.205l-14.434 20.034c-1.053 1.462-3.045 1.885-4.602.978l-21.334-12.431c-.156-.091-.348-.091-.504 0l-21.334 12.431c-1.557.907-3.549.484-4.602-.978l-14.434-20.034c-.105-.146-.281-.225-.46-.205l-24.546 2.679c-1.791.196-3.438-1.001-3.806-2.765l-5.037-24.173c-.037-.176-.166-.319-.337-.374l-23.514-7.537c-1.716-.55-2.734-2.313-2.352-4.074l5.23-24.132c.038-.176-.021-.359-.156-.479l-18.415-16.448c-1.344-1.201-1.557-3.226-.492-4.679l14.593-19.918c.107-.146.127-.337.053-.501l-10.133-22.517c-.74-1.643-.111-3.58 1.453-4.474l21.434-12.261c.156-.089.252-.256.251-.436l-.098-24.692c-.008-1.802 1.355-3.315 3.148-3.496l24.567-2.483c.179-.018.334-.131.407-.296l9.953-22.597c.726-1.649 2.586-2.477 4.298-1.914l23.453 7.724c.171.057.359.017.492-.104zm2.688 2.222c-.191-.173-.481-.173-.672 0l-18.284 16.595c-.933.847-2.25 1.127-3.447.733l-23.453-7.724c-.244-.081-.51.038-.614.273l-9.953 22.597c-.508 1.154-1.597 1.945-2.851 2.072l-24.567 2.483c-.256.026-.45.242-.449.499l.098 24.692c.005 1.26-.668 2.426-1.762 3.052l-21.433 12.261c-.223.127-.313.404-.208.639l10.134 22.517c.517 1.149.376 2.488-.369 3.505l-14.593 19.918c-.152.208-.122.497.07.668l18.416 16.449c.94.84 1.356 2.12 1.089 3.352l-5.23 24.132c-.055.251.091.503.336.582l23.513 7.536c1.201.385 2.101 1.385 2.359 2.619l5.037 24.173c.052.252.288.423.544.395l24.546-2.679c1.253-.137 2.483.41 3.219 1.433l14.434 20.034c.151.209.435.27.658.14l21.334-12.431c1.089-.635 2.435-.635 3.524 0l21.335 12.431c.222.13.507.069.657-.14l14.434-20.034c.737-1.023 1.966-1.57 3.219-1.433l24.547 2.679c.255.028.491-.143.543-.395l5.038-24.173c.257-1.234 1.157-2.234 2.358-2.619l23.513-7.536c.246-.079.391-.331.337-.582l-5.231-24.132c-.267-1.232.149-2.512 1.089-3.352l18.416-16.449c.192-.171.222-.46.07-.668l-14.593-19.918c-.745-1.017-.886-2.356-.368-3.505l10.133-22.517c.105-.235.015-.512-.208-.639l-21.433-12.261c-1.094-.626-1.767-1.792-1.762-3.052l.098-24.692c.002-.257-.193-.473-.449-.499l-24.567-2.483c-1.254-.127-2.343-.918-2.851-2.072l-9.953-22.597c-.104-.235-.37-.354-.614-.273l-23.453 7.724c-1.197.394-2.514.114-3.447-.733z" fill="#c5deff"/></g></svg>