<svg fill="none" height="490" viewBox="0 0 600 490" width="600" xmlns="http://www.w3.org/2000/svg" xmlns:xlink="http://www.w3.org/1999/xlink"><radialGradient id="a" cx="0" cy="0" gradientTransform="matrix(-599.99944743 -562.00012499 562.00012499 -599.99944743 600 562)" gradientUnits="userSpaceOnUse" r="1"><stop offset="0" stop-color="#fed4c9"/><stop offset=".125805" stop-color="#f8dbf4"/><stop offset=".411362" stop-color="#d8dbff"/><stop offset=".628973" stop-color="#c4ddff"/><stop offset="1" stop-color="#cae9ff"/></radialGradient><linearGradient id="b" gradientUnits="userSpaceOnUse" x1="-38.0159" x2="228.104" y1="100.716" y2="172.023"><stop offset="0" stop-color="#fff" stop-opacity="0"/><stop offset="1" stop-color="#fff" stop-opacity=".4"/></linearGradient><linearGradient id="c" gradientUnits="userSpaceOnUse" x1="90.3049" x2="164.5" y1="341.128" y2="267"><stop offset="0" stop-color="#fff"/><stop offset="1" stop-color="#fff" stop-opacity=".4"/></linearGradient><linearGradient id="d" gradientUnits="userSpaceOnUse" x1="436.472" x2="300" y1="77.5292" y2="214.001"><stop offset="0" stop-color="#fff"/><stop offset=".659183" stop-color="#fff" stop-opacity="0"/></linearGradient><linearGradient id="e" gradientUnits="userSpaceOnUse" x1="354.539" x2="542.605" y1="286.465" y2="336.857"><stop offset="0" stop-color="#fff" stop-opacity=".5"/><stop offset="1" stop-color="#fff" stop-opacity="0"/></linearGradient><linearGradient id="f"><stop offset="0" stop-color="#fff" stop-opacity=".3"/><stop offset="1" stop-color="#fff" stop-opacity="0"/></linearGradient><linearGradient id="g" gradientUnits="userSpaceOnUse" x1="489.748" x2="393.35" xlink:href="#f" y1="453.398" y2="357"/><linearGradient id="h" gradientUnits="userSpaceOnUse" x1="363.483" x2="345" xlink:href="#f" y1="20.6933" y2="89.6743"/><linearGradient id="i" gradientUnits="userSpaceOnUse" x1="179.703" x2="237.405" xlink:href="#f" y1="68.585" y2="126.287"/><clipPath id="j"><path d="m0 0h600v490h-600z" transform="matrix(-1 0 0 -1 600 490)"/></clipPath><g clip-path="url(#j)"><path d="m0 0h600v490h-600z" fill="url(#a)" transform="matrix(-1 0 0 -1 600 490)"/><path d="m228.104 172.023-266.1199-71.307-27.9524 104.32 266.1193 71.307z" fill="url(#b)"/><g fill="#fff"><path clip-rule="evenodd" d="m153.367 428.199c25.828-14.912 34.677-47.938 19.766-73.765-14.912-25.828-47.938-34.678-73.7656-19.766-25.8278 14.912-34.677 47.938-19.7653 73.766 14.9116 25.827 47.9379 34.677 73.7649 19.765zm-45.222-78.328c-17.432 10.064-23.4046 32.354-13.3403 49.786 4.9349 8.547 12.8093 14.34 21.6093 16.837l-11.999-20.783c-2.746-4.756-1.117-10.837 3.639-13.582l12.525-7.232-2.725-4.718c-2.991.833-6.281-.42-7.905-3.234-1.926-3.335-.783-7.6 2.552-9.525 3.335-1.926 7.6-.783 9.525 2.552 1.625 2.814 1.065 6.289-1.152 8.463l2.724 4.719 12.525-7.231c4.756-2.746 10.837-1.116 13.582 3.639l12.002 20.787c2.238-8.871 1.16-18.589-3.776-27.138-10.064-17.432-32.354-23.405-49.786-13.34zm-15.9384 51.286c-10.8927-18.867-4.4285-42.992 14.4384-53.884 18.867-10.893 42.991-4.429 53.884 14.438s4.428 42.991-14.438 53.884c-18.867 10.893-42.992 4.428-53.8844-14.438zm21.1614-7.37c-1.115-1.931-.453-4.4 1.478-5.515l23.201-13.395c1.931-1.115 4.4-.453 5.515 1.478l10.781 18.672c1.114 1.931.453 4.4-1.478 5.515l-23.202 13.395c-1.93 1.115-4.399.453-5.514-1.477zm26.262-13.785.067 10.026-4.767 2.753-.068-10.026zm6.972 12.078-21.135 12.202 1.743 3.02 21.136-12.203zm-28.108.125 8.649 5.071 4.767-2.752-8.649-5.071z" fill-rule="evenodd"/><path clip-rule="evenodd" d="m483.666 113.742c-8.284 14.349-26.632 19.265-40.981 10.981s-19.265-26.6319-10.981-40.9806c8.285-14.3488 26.632-19.2651 40.981-10.9808s19.265 26.632 10.981 40.9804zm-42.938-24.7901c5.407-9.3654 17.382-12.5743 26.748-7.1671 4.374 2.5255 7.405 6.4841 8.843 10.9403l-10.702-6.1788c-2.642-1.5254-6.02-.6202-7.546 2.0219l-4.017 6.9582-2.622-1.5135c.463-1.662-.233-3.4896-1.796-4.3922-1.853-1.0697-4.222-.4349-5.292 1.4179-1.07 1.8529-.435 4.2221 1.418 5.2919 1.563.9025 3.494.5917 4.702-.6402l2.621 1.5135-4.017 6.9582c-1.525 2.642-.62 6.02 2.022 7.546l10.704 6.18c-4.579.984-9.524.338-13.899-2.188-9.366-5.407-12.575-17.3826-7.167-26.7481zm28.248-9.7652c-10.801-6.2356-24.611-2.5351-30.847 8.2652-6.235 10.8004-2.535 24.6111 8.266 30.8461 10.8 6.236 24.61 2.535 30.846-8.265 6.236-10.8003 2.535-24.6107-8.265-30.8463zm-4.428 12.3338c-1.072-.6193-2.444-.2518-3.063.8209l-7.442 12.8896c-.62 1.073-.252 2.445.821 3.064l10.373 5.989c1.073.619 2.444.252 3.064-.821l7.442-12.89c.619-1.0723.252-2.4439-.821-3.0632zm-7.658 14.5895 5.57.038 1.529-2.649-5.57-.037zm6.71 3.874 6.779-11.7421 1.677.9685-6.779 11.7416zm.069-15.6158 2.818 4.8049-1.529 2.6489-2.818-4.8053z" fill-rule="evenodd"/><path d="m191 150.938c0-8.25 6.661-14.938 14.878-14.938h188.243c8.218 0 14.879 6.688 14.879 14.938v114.63c0 60.438-48.801 109.432-109 109.432s-109-48.994-109-109.432z"/></g><path d="m164.613 266.82-74.3081 74.308 74.2461 2.122 2.121 74.246 118.399-118.399z" fill="url(#c)"/><path d="m300 214.001 136.472-136.4718-7.071 28.2848 7.071 14.142 14.142 7.071 28.284-7.071-136.472 136.471z" fill="url(#d)"/><path d="m542.605 336.857-188.066-50.392 15.529-57.955 188.066 50.392z" fill="url(#e)"/><path d="m393.35 357 96.398 96.398-15.35 15.35-96.398-96.398z" fill="url(#g)"/><path d="m345 89.6743 18.483-68.981 16.421 4.3999-18.483 68.981z" fill="url(#h)"/><path d="m237.405 126.287-57.702-57.7019 25.882-25.8826 57.702 57.7015z" fill="url(#i)"/><path clip-rule="evenodd" d="m224 168.5c-.276 0-.5.224-.5.5v97c0 42.25 34.25 76.5 76.5 76.5s76.5-34.25 76.5-76.5v-97c0-.276-.224-.5-.5-.5zm-3.5.5c0-1.933 1.567-3.5 3.5-3.5h152c1.933 0 3.5 1.567 3.5 3.5v97c0 43.907-35.593 79.5-79.5 79.5s-79.5-35.593-79.5-79.5z" fill="#c5deff" fill-rule="evenodd"/><g fill="#fff"><path d="m474.849 453.849c4.239-4.238 11.112-4.238 15.35 0 4.239 4.239 4.239 11.112 0 15.351-4.238 4.238-11.111 4.238-15.35 0-4.238-4.239-4.238-11.112 0-15.351z"/><path d="m369.623 30.6207c-4.534-1.215-7.225-5.8759-6.01-10.4104 1.215-4.5344 5.876-7.2254 10.41-6.0104 4.535 1.215 7.226 5.8759 6.011 10.4104-1.215 4.5344-5.876 7.2254-10.411 6.0104z"/><path d="m204.824 67.8238c-7.147 7.1473-18.735 7.1473-25.883 0-7.147-7.1472-7.147-18.7352 0-25.8825 7.148-7.1473 18.736-7.1473 25.883 0s7.147 18.7353 0 25.8825z"/></g></g></svg>