<svg fill="none" height="490" viewBox="0 0 600 490" width="600" xmlns="http://www.w3.org/2000/svg" xmlns:xlink="http://www.w3.org/1999/xlink"><radialGradient id="a" cx="0" cy="0" gradientTransform="matrix(-599.99944743 -562.00012499 562.00012499 -599.99944743 600 562)" gradientUnits="userSpaceOnUse" r="1"><stop offset="0" stop-color="#fed4c9"/><stop offset=".125805" stop-color="#f8dbf4"/><stop offset=".411362" stop-color="#d8dbff"/><stop offset=".628973" stop-color="#c4ddff"/><stop offset="1" stop-color="#cae9ff"/></radialGradient><clipPath id="b"><path d="m0 0h600v490h-600z" transform="matrix(-1 0 0 -1 600 490)"/></clipPath><g clip-path="url(#b)"><path d="m0 0h600v490h-600z" fill="url(#a)" transform="matrix(-1 0 0 -1 600 490)"/><g fill="#fff"><path d="m273 179c0 53.572-43.428 97-97 97s-97-43.428-97-97 43.428-97 97-97 97 43.428 97 97z"/><path d="m512 247.5c0 15.74-12.76 28.5-28.5 28.5s-28.5-12.76-28.5-28.5 12.76-28.5 28.5-28.5 28.5 12.76 28.5 28.5z"/><path d="m396 166c0 9.389-7.611 17-17 17s-17-7.611-17-17 7.611-17 17-17 17 7.611 17 17z"/><path d="m418 231c0 24.853-20.147 45-45 45s-45-20.147-45-45 20.147-45 45-45 45 20.147 45 45z"/><path d="m511 163.5c0 30.652-24.848 55.5-55.5 55.5s-55.5-24.848-55.5-55.5 24.848-55.5 55.5-55.5 55.5 24.848 55.5 55.5z"/><path clip-rule="evenodd" d="m53 306c0-17.673 14.3269-32 32-32h430c17.673 0 32 14.327 32 32s-14.327 32-32 32h-430c-17.6731 0-32-14.327-32-32zm32-28c-15.464 0-28 12.536-28 28s12.536 28 28 28h430c15.464 0 28-12.536 28-28s-12.536-28-28-28z" fill-rule="evenodd"/><path d="m299.354 336.387c.795-1.152 2.497-1.152 3.292 0l38.354 55.613h-80z"/><path d="m0 392h600v112h-600z"/></g></g></svg>