<svg fill="none" height="490" viewBox="0 0 600 490" width="600" xmlns="http://www.w3.org/2000/svg" xmlns:xlink="http://www.w3.org/1999/xlink"><radialGradient id="a" cx="0" cy="0" gradientTransform="matrix(-599.99944743 -562.00012499 562.00012499 -599.99944743 600 562)" gradientUnits="userSpaceOnUse" r="1"><stop offset="0" stop-color="#fed4c9"/><stop offset=".125805" stop-color="#f8dbf4"/><stop offset=".411362" stop-color="#d8dbff"/><stop offset=".628973" stop-color="#c4ddff"/><stop offset="1" stop-color="#cae9ff"/></radialGradient><clipPath id="b"><path d="m0 0h600v490h-600z" transform="matrix(-1 0 0 -1 600 490)"/></clipPath><g clip-path="url(#b)"><path d="m0 0h600v490h-600z" fill="url(#a)" transform="matrix(-1 0 0 -1 600 490)"/><g fill="#fff"><g clip-rule="evenodd" fill-rule="evenodd"><path d="m601.068 1.5h10.432v500h-623v-224.941l10.773122-16.728 21.334778 3.552 22.9416-43.403 22.0695 119.748 21.2059 9.629 21.0101 42.937 21.375-4.459 20.79 28.332 20.446-27.864 22.834-10.656 21.802 26.686 21.645 3.276 20.695 43.539 19.871-26.942 22.337-43.258 21.366 22.26 20.425-43.678 21.58-109.179 21.699-5.152 22.652-43.648 22.168 58.046 21.096-4.251 20.055 25.895 20.98-92.074 21.84-17.955 20.921-9.276 21.392-97.329 21.592-15.1286zm1.865 3-23.186 46.9946-21.264 14.8984-21.466 97.671-21.936 9.724-20.732 17.045-22.163 97.264-22.802-29.443-21.761 4.385-20.688-54.171-20.206 38.933-21.159 5.024-21.277 107.645-22.432 47.971-21.49-22.389-20.521 39.742-22.987 31.166-22.161-46.623-21.212-3.211-21.056-25.773-20.023 9.344-22.411 30.541-22.067-30.073-21.768 4.541-21.5613-44.063-21.6512-9.831-20.7876-112.792-19.9157 37.678-21.522325-3.583-9.226875 14.326v221.059h617v-494z"/><path d="m236-1.5c.828 0 1.5.671573 1.5 1.5v4.3125c0 .82843-.672 1.5-1.5 1.5s-1.5-.67157-1.5-1.5v-4.3125c0-.828427.672-1.5 1.5-1.5zm0 18.6875c.828 0 1.5.6716 1.5 1.5v8.625c0 .8284-.672 1.5-1.5 1.5s-1.5-.6716-1.5-1.5v-8.625c0-.8284.672-1.5 1.5-1.5zm0 23c.828 0 1.5.6716 1.5 1.5v8.625c0 .8284-.672 1.5-1.5 1.5s-1.5-.6716-1.5-1.5v-8.625c0-.8284.672-1.5 1.5-1.5zm0 23c.828 0 1.5.6716 1.5 1.5v8.625c0 .8284-.672 1.5-1.5 1.5s-1.5-.6716-1.5-1.5v-8.625c0-.8284.672-1.5 1.5-1.5zm0 23c.828 0 1.5.6716 1.5 1.5v8.625c0 .8284-.672 1.5-1.5 1.5s-1.5-.6716-1.5-1.5v-8.625c0-.8284.672-1.5 1.5-1.5zm0 23.0005c.828 0 1.5.671 1.5 1.5v8.744c0 .828-.672 1.5-1.5 1.5s-1.5-.672-1.5-1.5v-8.744c0-.829.672-1.5 1.5-1.5zm0 23.517c.828 0 1.5.671 1.5 1.5v8.863c0 .829-.672 1.5-1.5 1.5s-1.5-.671-1.5-1.5v-8.863c0-.829.672-1.5 1.5-1.5zm0 23.636c.828 0 1.5.671 1.5 1.5v8.864c0 .828-.672 1.5-1.5 1.5s-1.5-.672-1.5-1.5v-8.864c0-.829.672-1.5 1.5-1.5zm0 23.636c.828 0 1.5.672 1.5 1.5v8.864c0 .828-.672 1.5-1.5 1.5s-1.5-.672-1.5-1.5v-8.864c0-.828.672-1.5 1.5-1.5zm0 23.637c.828 0 1.5.671 1.5 1.5v8.863c0 .829-.672 1.5-1.5 1.5s-1.5-.671-1.5-1.5v-8.863c0-.829.672-1.5 1.5-1.5zm0 23.636c.828 0 1.5.672 1.5 1.5v8.864c0 .828-.672 1.5-1.5 1.5s-1.5-.672-1.5-1.5v-8.864c0-.828.672-1.5 1.5-1.5zm0 23.636c.828 0 1.5.672 1.5 1.5v8.864c0 .828-.672 1.5-1.5 1.5s-1.5-.672-1.5-1.5v-8.864c0-.828.672-1.5 1.5-1.5zm0 23.637c.828 0 1.5.671 1.5 1.5v8.863c0 .829-.672 1.5-1.5 1.5s-1.5-.671-1.5-1.5v-8.863c0-.829.672-1.5 1.5-1.5zm0 23.636c.828 0 1.5.672 1.5 1.5v8.864c0 .828-.672 1.5-1.5 1.5s-1.5-.672-1.5-1.5v-8.864c0-.828.672-1.5 1.5-1.5zm0 23.636c.828 0 1.5.672 1.5 1.5v8.864c0 .828-.672 1.5-1.5 1.5s-1.5-.672-1.5-1.5v-8.864c0-.828.672-1.5 1.5-1.5zm0 23.637c.828 0 1.5.671 1.5 1.5v8.863c0 .829-.672 1.5-1.5 1.5s-1.5-.671-1.5-1.5v-8.863c0-.829.672-1.5 1.5-1.5zm0 23.636c.828 0 1.5.672 1.5 1.5v8.744c0 .829-.672 1.5-1.5 1.5s-1.5-.671-1.5-1.5v-8.744c0-.828.672-1.5 1.5-1.5zm0 23.12c.828 0 1.5.671 1.5 1.5v8.624c0 .829-.672 1.5-1.5 1.5s-1.5-.671-1.5-1.5v-8.624c0-.829.672-1.5 1.5-1.5zm0 23c.828 0 1.5.671 1.5 1.5v8.624c0 .829-.672 1.5-1.5 1.5s-1.5-.671-1.5-1.5v-8.624c0-.829.672-1.5 1.5-1.5zm0 23c.828 0 1.5.671 1.5 1.5v8.624c0 .829-.672 1.5-1.5 1.5s-1.5-.671-1.5-1.5v-8.624c0-.829.672-1.5 1.5-1.5zm0 23c.828 0 1.5.671 1.5 1.5v8.624c0 .829-.672 1.5-1.5 1.5s-1.5-.671-1.5-1.5v-8.624c0-.829.672-1.5 1.5-1.5zm0 23c.828 0 1.5.671 1.5 1.5v4.312c0 .828-.672 1.5-1.5 1.5s-1.5-.672-1.5-1.5v-4.312c0-.829.672-1.5 1.5-1.5z"/><path d="m492-1.5c.828 0 1.5.671573 1.5 1.5v4.3125c0 .82843-.672 1.5-1.5 1.5s-1.5-.67157-1.5-1.5v-4.3125c0-.828427.672-1.5 1.5-1.5zm0 18.6875c.828 0 1.5.6716 1.5 1.5v8.625c0 .8284-.672 1.5-1.5 1.5s-1.5-.6716-1.5-1.5v-8.625c0-.8284.672-1.5 1.5-1.5zm0 23c.828 0 1.5.6716 1.5 1.5v8.625c0 .8284-.672 1.5-1.5 1.5s-1.5-.6716-1.5-1.5v-8.625c0-.8284.672-1.5 1.5-1.5zm0 23c.828 0 1.5.6716 1.5 1.5v8.625c0 .8284-.672 1.5-1.5 1.5s-1.5-.6716-1.5-1.5v-8.625c0-.8284.672-1.5 1.5-1.5zm0 23c.828 0 1.5.6716 1.5 1.5v8.625c0 .8284-.672 1.5-1.5 1.5s-1.5-.6716-1.5-1.5v-8.625c0-.8284.672-1.5 1.5-1.5zm0 23.0005c.828 0 1.5.671 1.5 1.5v8.744c0 .828-.672 1.5-1.5 1.5s-1.5-.672-1.5-1.5v-8.744c0-.829.672-1.5 1.5-1.5zm0 23.517c.828 0 1.5.671 1.5 1.5v8.863c0 .829-.672 1.5-1.5 1.5s-1.5-.671-1.5-1.5v-8.863c0-.829.672-1.5 1.5-1.5zm0 23.636c.828 0 1.5.671 1.5 1.5v8.864c0 .828-.672 1.5-1.5 1.5s-1.5-.672-1.5-1.5v-8.864c0-.829.672-1.5 1.5-1.5zm0 23.636c.828 0 1.5.672 1.5 1.5v8.864c0 .828-.672 1.5-1.5 1.5s-1.5-.672-1.5-1.5v-8.864c0-.828.672-1.5 1.5-1.5zm0 23.637c.828 0 1.5.671 1.5 1.5v8.863c0 .829-.672 1.5-1.5 1.5s-1.5-.671-1.5-1.5v-8.863c0-.829.672-1.5 1.5-1.5zm0 23.636c.828 0 1.5.672 1.5 1.5v8.864c0 .828-.672 1.5-1.5 1.5s-1.5-.672-1.5-1.5v-8.864c0-.828.672-1.5 1.5-1.5zm0 23.636c.828 0 1.5.672 1.5 1.5v8.864c0 .828-.672 1.5-1.5 1.5s-1.5-.672-1.5-1.5v-8.864c0-.828.672-1.5 1.5-1.5zm0 23.637c.828 0 1.5.671 1.5 1.5v8.863c0 .829-.672 1.5-1.5 1.5s-1.5-.671-1.5-1.5v-8.863c0-.829.672-1.5 1.5-1.5zm0 23.636c.828 0 1.5.672 1.5 1.5v8.864c0 .828-.672 1.5-1.5 1.5s-1.5-.672-1.5-1.5v-8.864c0-.828.672-1.5 1.5-1.5zm0 23.636c.828 0 1.5.672 1.5 1.5v8.864c0 .828-.672 1.5-1.5 1.5s-1.5-.672-1.5-1.5v-8.864c0-.828.672-1.5 1.5-1.5zm0 23.637c.828 0 1.5.671 1.5 1.5v8.863c0 .829-.672 1.5-1.5 1.5s-1.5-.671-1.5-1.5v-8.863c0-.829.672-1.5 1.5-1.5zm0 23.636c.828 0 1.5.672 1.5 1.5v8.744c0 .829-.672 1.5-1.5 1.5s-1.5-.671-1.5-1.5v-8.744c0-.828.672-1.5 1.5-1.5zm0 23.12c.828 0 1.5.671 1.5 1.5v8.624c0 .829-.672 1.5-1.5 1.5s-1.5-.671-1.5-1.5v-8.624c0-.829.672-1.5 1.5-1.5zm0 23c.828 0 1.5.671 1.5 1.5v8.624c0 .829-.672 1.5-1.5 1.5s-1.5-.671-1.5-1.5v-8.624c0-.829.672-1.5 1.5-1.5zm0 23c.828 0 1.5.671 1.5 1.5v8.624c0 .829-.672 1.5-1.5 1.5s-1.5-.671-1.5-1.5v-8.624c0-.829.672-1.5 1.5-1.5zm0 23c.828 0 1.5.671 1.5 1.5v8.624c0 .829-.672 1.5-1.5 1.5s-1.5-.671-1.5-1.5v-8.624c0-.829.672-1.5 1.5-1.5zm0 23c.828 0 1.5.671 1.5 1.5v4.312c0 .828-.672 1.5-1.5 1.5s-1.5-.672-1.5-1.5v-4.312c0-.829.672-1.5 1.5-1.5z"/><path d="m108-1.5c.828 0 1.5.671573 1.5 1.5v4.3125c0 .82843-.672 1.5-1.5 1.5s-1.5-.67157-1.5-1.5v-4.3125c0-.828427.672-1.5 1.5-1.5zm0 18.6875c.828 0 1.5.6716 1.5 1.5v8.625c0 .8284-.672 1.5-1.5 1.5s-1.5-.6716-1.5-1.5v-8.625c0-.8284.672-1.5 1.5-1.5zm0 23c.828 0 1.5.6716 1.5 1.5v8.625c0 .8284-.672 1.5-1.5 1.5s-1.5-.6716-1.5-1.5v-8.625c0-.8284.672-1.5 1.5-1.5zm0 23c.828 0 1.5.6716 1.5 1.5v8.625c0 .8284-.672 1.5-1.5 1.5s-1.5-.6716-1.5-1.5v-8.625c0-.8284.672-1.5 1.5-1.5zm0 23c.828 0 1.5.6716 1.5 1.5v8.625c0 .8284-.672 1.5-1.5 1.5s-1.5-.6716-1.5-1.5v-8.625c0-.8284.672-1.5 1.5-1.5zm0 23.0005c.828 0 1.5.671 1.5 1.5v8.744c0 .828-.672 1.5-1.5 1.5s-1.5-.672-1.5-1.5v-8.744c0-.829.672-1.5 1.5-1.5zm0 23.517c.828 0 1.5.671 1.5 1.5v8.863c0 .829-.672 1.5-1.5 1.5s-1.5-.671-1.5-1.5v-8.863c0-.829.672-1.5 1.5-1.5zm0 23.636c.828 0 1.5.671 1.5 1.5v8.864c0 .828-.672 1.5-1.5 1.5s-1.5-.672-1.5-1.5v-8.864c0-.829.672-1.5 1.5-1.5zm0 23.636c.828 0 1.5.672 1.5 1.5v8.864c0 .828-.672 1.5-1.5 1.5s-1.5-.672-1.5-1.5v-8.864c0-.828.672-1.5 1.5-1.5zm0 23.637c.828 0 1.5.671 1.5 1.5v8.863c0 .829-.672 1.5-1.5 1.5s-1.5-.671-1.5-1.5v-8.863c0-.829.672-1.5 1.5-1.5zm0 23.636c.828 0 1.5.672 1.5 1.5v8.864c0 .828-.672 1.5-1.5 1.5s-1.5-.672-1.5-1.5v-8.864c0-.828.672-1.5 1.5-1.5zm0 23.636c.828 0 1.5.672 1.5 1.5v8.864c0 .828-.672 1.5-1.5 1.5s-1.5-.672-1.5-1.5v-8.864c0-.828.672-1.5 1.5-1.5zm0 23.637c.828 0 1.5.671 1.5 1.5v8.863c0 .829-.672 1.5-1.5 1.5s-1.5-.671-1.5-1.5v-8.863c0-.829.672-1.5 1.5-1.5zm0 23.636c.828 0 1.5.672 1.5 1.5v8.864c0 .828-.672 1.5-1.5 1.5s-1.5-.672-1.5-1.5v-8.864c0-.828.672-1.5 1.5-1.5zm0 23.636c.828 0 1.5.672 1.5 1.5v8.864c0 .828-.672 1.5-1.5 1.5s-1.5-.672-1.5-1.5v-8.864c0-.828.672-1.5 1.5-1.5zm0 23.637c.828 0 1.5.671 1.5 1.5v8.863c0 .829-.672 1.5-1.5 1.5s-1.5-.671-1.5-1.5v-8.863c0-.829.672-1.5 1.5-1.5zm0 23.636c.828 0 1.5.672 1.5 1.5v8.744c0 .829-.672 1.5-1.5 1.5s-1.5-.671-1.5-1.5v-8.744c0-.828.672-1.5 1.5-1.5zm0 23.12c.828 0 1.5.671 1.5 1.5v8.624c0 .829-.672 1.5-1.5 1.5s-1.5-.671-1.5-1.5v-8.624c0-.829.672-1.5 1.5-1.5zm0 23c.828 0 1.5.671 1.5 1.5v8.624c0 .829-.672 1.5-1.5 1.5s-1.5-.671-1.5-1.5v-8.624c0-.829.672-1.5 1.5-1.5zm0 23c.828 0 1.5.671 1.5 1.5v8.624c0 .829-.672 1.5-1.5 1.5s-1.5-.671-1.5-1.5v-8.624c0-.829.672-1.5 1.5-1.5zm0 23c.828 0 1.5.671 1.5 1.5v8.624c0 .829-.672 1.5-1.5 1.5s-1.5-.671-1.5-1.5v-8.624c0-.829.672-1.5 1.5-1.5zm0 23c.828 0 1.5.671 1.5 1.5v4.312c0 .828-.672 1.5-1.5 1.5s-1.5-.672-1.5-1.5v-4.312c0-.829.672-1.5 1.5-1.5z"/><path d="m364-1.5c.828 0 1.5.671573 1.5 1.5v4.3125c0 .82843-.672 1.5-1.5 1.5s-1.5-.67157-1.5-1.5v-4.3125c0-.828427.672-1.5 1.5-1.5zm0 18.6875c.828 0 1.5.6716 1.5 1.5v8.625c0 .8284-.672 1.5-1.5 1.5s-1.5-.6716-1.5-1.5v-8.625c0-.8284.672-1.5 1.5-1.5zm0 23c.828 0 1.5.6716 1.5 1.5v8.625c0 .8284-.672 1.5-1.5 1.5s-1.5-.6716-1.5-1.5v-8.625c0-.8284.672-1.5 1.5-1.5zm0 23c.828 0 1.5.6716 1.5 1.5v8.625c0 .8284-.672 1.5-1.5 1.5s-1.5-.6716-1.5-1.5v-8.625c0-.8284.672-1.5 1.5-1.5zm0 23c.828 0 1.5.6716 1.5 1.5v8.625c0 .8284-.672 1.5-1.5 1.5s-1.5-.6716-1.5-1.5v-8.625c0-.8284.672-1.5 1.5-1.5zm0 23.0005c.828 0 1.5.671 1.5 1.5v8.744c0 .828-.672 1.5-1.5 1.5s-1.5-.672-1.5-1.5v-8.744c0-.829.672-1.5 1.5-1.5zm0 23.517c.828 0 1.5.671 1.5 1.5v8.863c0 .829-.672 1.5-1.5 1.5s-1.5-.671-1.5-1.5v-8.863c0-.829.672-1.5 1.5-1.5zm0 23.636c.828 0 1.5.671 1.5 1.5v8.864c0 .828-.672 1.5-1.5 1.5s-1.5-.672-1.5-1.5v-8.864c0-.829.672-1.5 1.5-1.5zm0 23.636c.828 0 1.5.672 1.5 1.5v8.864c0 .828-.672 1.5-1.5 1.5s-1.5-.672-1.5-1.5v-8.864c0-.828.672-1.5 1.5-1.5zm0 23.637c.828 0 1.5.671 1.5 1.5v8.863c0 .829-.672 1.5-1.5 1.5s-1.5-.671-1.5-1.5v-8.863c0-.829.672-1.5 1.5-1.5zm0 23.636c.828 0 1.5.672 1.5 1.5v8.864c0 .828-.672 1.5-1.5 1.5s-1.5-.672-1.5-1.5v-8.864c0-.828.672-1.5 1.5-1.5zm0 23.636c.828 0 1.5.672 1.5 1.5v8.864c0 .828-.672 1.5-1.5 1.5s-1.5-.672-1.5-1.5v-8.864c0-.828.672-1.5 1.5-1.5zm0 23.637c.828 0 1.5.671 1.5 1.5v8.863c0 .829-.672 1.5-1.5 1.5s-1.5-.671-1.5-1.5v-8.863c0-.829.672-1.5 1.5-1.5zm0 23.636c.828 0 1.5.672 1.5 1.5v8.864c0 .828-.672 1.5-1.5 1.5s-1.5-.672-1.5-1.5v-8.864c0-.828.672-1.5 1.5-1.5zm0 23.636c.828 0 1.5.672 1.5 1.5v8.864c0 .828-.672 1.5-1.5 1.5s-1.5-.672-1.5-1.5v-8.864c0-.828.672-1.5 1.5-1.5zm0 23.637c.828 0 1.5.671 1.5 1.5v8.863c0 .829-.672 1.5-1.5 1.5s-1.5-.671-1.5-1.5v-8.863c0-.829.672-1.5 1.5-1.5zm0 23.636c.828 0 1.5.672 1.5 1.5v8.744c0 .829-.672 1.5-1.5 1.5s-1.5-.671-1.5-1.5v-8.744c0-.828.672-1.5 1.5-1.5zm0 23.12c.828 0 1.5.671 1.5 1.5v8.624c0 .829-.672 1.5-1.5 1.5s-1.5-.671-1.5-1.5v-8.624c0-.829.672-1.5 1.5-1.5zm0 23c.828 0 1.5.671 1.5 1.5v8.624c0 .829-.672 1.5-1.5 1.5s-1.5-.671-1.5-1.5v-8.624c0-.829.672-1.5 1.5-1.5zm0 23c.828 0 1.5.671 1.5 1.5v8.624c0 .829-.672 1.5-1.5 1.5s-1.5-.671-1.5-1.5v-8.624c0-.829.672-1.5 1.5-1.5zm0 23c.828 0 1.5.671 1.5 1.5v8.624c0 .829-.672 1.5-1.5 1.5s-1.5-.671-1.5-1.5v-8.624c0-.829.672-1.5 1.5-1.5zm0 23c.828 0 1.5.671 1.5 1.5v4.312c0 .828-.672 1.5-1.5 1.5s-1.5-.672-1.5-1.5v-4.312c0-.829.672-1.5 1.5-1.5z"/></g><path d="m430 245c0 71.797-58.203 130-130 130s-130-58.203-130-130 58.203-130 130-130 130 58.203 130 130z"/></g><g clip-rule="evenodd" fill="#c9ddff" fill-rule="evenodd"><path d="m300.5 146c-54.4 0-98.5 44.1-98.5 98.5s44.1 98.5 98.5 98.5 98.5-44.1 98.5-98.5-44.1-98.5-98.5-98.5zm-101.5 98.5c0-56.057 45.443-101.5 101.5-101.5s101.5 45.443 101.5 101.5-45.443 101.5-101.5 101.5-101.5-45.443-101.5-101.5z"/><path d="m354.94 210.061c.585.585.585 1.535 0 2.121l-70.711 70.711c-.586.585-1.536.585-2.121 0-.586-.586-.586-1.536 0-2.122l70.71-70.71c.586-.586 1.536-.586 2.122 0z"/><path d="m284.229 282.893c-.586.585-1.536.585-2.121 0l-35.356-35.356c-.586-.585-.586-1.535 0-2.121s1.536-.586 2.122 0l35.355 35.355c.586.586.586 1.536 0 2.122z"/></g></g></svg>