<svg fill="none" height="490" viewBox="0 0 600 490" width="600" xmlns="http://www.w3.org/2000/svg" xmlns:xlink="http://www.w3.org/1999/xlink"><radialGradient id="a" cx="0" cy="0" gradientTransform="matrix(-599.99944743 -562.00012499 562.00012499 -599.99944743 600 562)" gradientUnits="userSpaceOnUse" r="1"><stop offset="0" stop-color="#fed4c9"/><stop offset=".125805" stop-color="#f8dbf4"/><stop offset=".411362" stop-color="#d8dbff"/><stop offset=".628973" stop-color="#c4ddff"/><stop offset="1" stop-color="#cae9ff"/></radialGradient><clipPath id="b"><path d="m0 0h600v490h-600z" transform="matrix(-1 0 0 -1 600 490)"/></clipPath><g clip-path="url(#b)"><path d="m0 0h600v490h-600z" fill="url(#a)" transform="matrix(-1 0 0 -1 600 490)"/><path d="m430 245c0 71.797-58.203 130-130 130s-130-58.203-130-130 58.203-130 130-130 130 58.203 130 130z" fill="#fff"/><g clip-rule="evenodd" fill="#c9ddff" fill-rule="evenodd"><path d="m300 146.5c-54.4 0-98.5 44.1-98.5 98.5s44.1 98.5 98.5 98.5 98.5-44.1 98.5-98.5-44.1-98.5-98.5-98.5zm-101.5 98.5c0-56.057 45.443-101.5 101.5-101.5s101.5 45.443 101.5 101.5-45.443 101.5-101.5 101.5-101.5-45.443-101.5-101.5z"/><path d="m300 193.5c.828 0 1.5.672 1.5 1.5v100c0 .828-.672 1.5-1.5 1.5s-1.5-.672-1.5-1.5v-100c0-.828.672-1.5 1.5-1.5z"/><path d="m351.5 245c0 .828-.672 1.5-1.5 1.5h-100c-.828 0-1.5-.672-1.5-1.5s.672-1.5 1.5-1.5h100c.828 0 1.5.672 1.5 1.5z"/></g><g fill="#fff"><path d="m521 84c0 40.869-33.131 74-74 74s-74-33.131-74-74c0-40.8691 33.131-74 74-74s74 33.1309 74 74z"/><path d="m363 57c0 25.4051-20.595 46-46 46s-46-20.5949-46-46 20.595-46 46-46 46 20.5949 46 46z"/><path d="m182 146c0 23.748-19.252 43-43 43s-43-19.252-43-43 19.252-43 43-43 43 19.252 43 43z"/><path d="m164 212.5c0 8.56-6.94 15.5-15.5 15.5s-15.5-6.94-15.5-15.5 6.94-15.5 15.5-15.5 15.5 6.94 15.5 15.5z"/><path d="m105 196.5c0 5.799-4.701 10.5-10.5 10.5s-10.5-4.701-10.5-10.5 4.701-10.5 10.5-10.5 10.5 4.701 10.5 10.5z"/><path d="m212 128.5c0 4.694-3.806 8.5-8.5 8.5s-8.5-3.806-8.5-8.5 3.806-8.5 8.5-8.5 8.5 3.806 8.5 8.5z"/><path d="m651 91c0 33.137-26.863 60-60 60s-60-26.863-60-60c0-33.1371 26.863-60 60-60s60 26.8629 60 60z"/><path d="m629-58c0 48.04877-38.951 87-87 87s-87-38.95123-87-87c0-48.049 38.951-87 87-87s87 38.951 87 87z"/><path d="m401 2c0 13.8071-11.193 25-25 25s-25-11.1929-25-25 11.193-25 25-25 25 11.1929 25 25z"/><path d="m261 88c0 14.912-12.088 27-27 27s-27-12.088-27-27c0-14.9117 12.088-27 27-27s27 12.0883 27 27z"/><path d="m264 44c0 6.0751-4.925 11-11 11s-11-4.9249-11-11 4.925-11 11-11 11 4.9249 11 11z"/><path d="m293 471c0 60.199-48.801 109-109 109s-109-48.801-109-109 48.801-109 109-109 109 48.801 109 109z"/><path d="m435 443c0 35.899-29.101 65-65 65s-65-29.101-65-65 29.101-65 65-65 65 29.101 65 65z"/><path d="m163 293.5c0 41.697-33.803 75.5-75.5 75.5-41.6975 0-75.5-33.803-75.5-75.5s33.8025-75.5 75.5-75.5c41.697 0 75.5 33.803 75.5 75.5z"/><path d="m66 439c0 56.885-46.1147 103-103 103s-103-46.115-103-103 46.1147-103 103-103 103 46.115 103 103z"/><path d="m305 397c0 6.075-4.925 11-11 11s-11-4.925-11-11 4.925-11 11-11 11 4.925 11 11z"/><path d="m189 339.5c0 7.456-6.044 13.5-13.5 13.5s-13.5-6.044-13.5-13.5 6.044-13.5 13.5-13.5 13.5 6.044 13.5 13.5z"/><path d="m501 352.5c0 25.129-20.371 45.5-45.5 45.5s-45.5-20.371-45.5-45.5 20.371-45.5 45.5-45.5 45.5 20.371 45.5 45.5z"/><path d="m533 359.5c0 5.247-4.253 9.5-9.5 9.5s-9.5-4.253-9.5-9.5 4.253-9.5 9.5-9.5 9.5 4.253 9.5 9.5z"/><path d="m486 273c0 12.703-10.297 23-23 23s-23-10.297-23-23 10.297-23 23-23 23 10.297 23 23z"/><path d="m507 201c0 18.778-15.222 34-34 34s-34-15.222-34-34 15.222-34 34-34 34 15.222 34 34z"/><path d="m745 518.5c0 83.671-67.829 151.5-151.5 151.5s-151.5-67.829-151.5-151.5 67.829-151.5 151.5-151.5 151.5 67.829 151.5 151.5z"/><path d="m662 273.5c0 45.563-36.937 82.5-82.5 82.5s-82.5-36.937-82.5-82.5 36.937-82.5 82.5-82.5 82.5 36.937 82.5 82.5z"/><path d="m573 170c0 6.627-5.373 12-12 12s-12-5.373-12-12 5.373-12 12-12 12 5.373 12 12z"/><path d="m541 157.5c0 10.77-8.73 19.5-19.5 19.5s-19.5-8.73-19.5-19.5 8.73-19.5 19.5-19.5 19.5 8.73 19.5 19.5z"/><path d="m253-43c0 74.0062-59.994 134-134 134-74.0062 0-134-59.9938-134-134 0-74.006 59.9938-134 134-134 74.006 0 134 59.994 134 134z"/><path d="m81 148c0 40.869-33.1309 74-74 74s-74-33.131-74-74 33.1309-74 74-74 74 33.131 74 74z"/></g></g></svg>