<svg fill="none" height="490" viewBox="0 0 600 490" width="600" xmlns="http://www.w3.org/2000/svg" xmlns:xlink="http://www.w3.org/1999/xlink"><radialGradient id="a" cx="0" cy="0" gradientTransform="matrix(-599.99944743 -562.00012499 562.00012499 -599.99944743 600 562)" gradientUnits="userSpaceOnUse" r="1"><stop offset="0" stop-color="#fed4c9"/><stop offset=".125805" stop-color="#f8dbf4"/><stop offset=".411362" stop-color="#d8dbff"/><stop offset=".628973" stop-color="#c4ddff"/><stop offset="1" stop-color="#cae9ff"/></radialGradient><clipPath id="b"><path d="m0 0h600v490h-600z" transform="matrix(-1 0 0 -1 600 490)"/></clipPath><g clip-path="url(#b)"><path d="m0 0h600v490h-600z" fill="url(#a)" transform="matrix(-1 0 0 -1 600 490)"/><g fill="#fff"><g clip-rule="evenodd" fill-rule="evenodd"><path d="m300 113.5c-43.354 0-78.5 35.146-78.5 78.5s35.146 78.5 78.5 78.5 78.5-35.146 78.5-78.5-35.146-78.5-78.5-78.5zm-81.5 78.5c0-45.011 36.489-81.5 81.5-81.5s81.5 36.489 81.5 81.5-36.489 81.5-81.5 81.5-81.5-36.489-81.5-81.5z"/><path d="m116 113.5c-43.3544 0-78.5 35.146-78.5 78.5s35.1456 78.5 78.5 78.5c43.354 0 78.5-35.146 78.5-78.5s-35.146-78.5-78.5-78.5zm-81.5 78.5c0-45.011 36.4888-81.5 81.5-81.5 45.011 0 81.5 36.489 81.5 81.5s-36.489 81.5-81.5 81.5c-45.0112 0-81.5-36.489-81.5-81.5z"/><path d="m484 113.5c-43.354 0-78.5 35.146-78.5 78.5s35.146 78.5 78.5 78.5 78.5-35.146 78.5-78.5-35.146-78.5-78.5-78.5zm-81.5 78.5c0-45.011 36.489-81.5 81.5-81.5s81.5 36.489 81.5 81.5-36.489 81.5-81.5 81.5-81.5-36.489-81.5-81.5z"/><path d="m300 325.5c-43.354 0-78.5 35.146-78.5 78.5s35.146 78.5 78.5 78.5 78.5-35.146 78.5-78.5-35.146-78.5-78.5-78.5zm-81.5 78.5c0-45.011 36.489-81.5 81.5-81.5s81.5 36.489 81.5 81.5-36.489 81.5-81.5 81.5-81.5-36.489-81.5-81.5z"/><path d="m116 325.5c-43.3544 0-78.5 35.146-78.5 78.5s35.1456 78.5 78.5 78.5c43.354 0 78.5-35.146 78.5-78.5s-35.146-78.5-78.5-78.5zm-81.5 78.5c0-45.011 36.4888-81.5 81.5-81.5 45.011 0 81.5 36.489 81.5 81.5s-36.489 81.5-81.5 81.5c-45.0112 0-81.5-36.489-81.5-81.5z"/><path d="m484 325.5c-43.354 0-78.5 35.146-78.5 78.5s35.146 78.5 78.5 78.5 78.5-35.146 78.5-78.5-35.146-78.5-78.5-78.5zm-81.5 78.5c0-45.011 36.489-81.5 81.5-81.5s81.5 36.489 81.5 81.5-36.489 81.5-81.5 81.5-81.5-36.489-81.5-81.5z"/><path d="m300 379.5c-43.354 0-78.5 35.146-78.5 78.5s35.146 78.5 78.5 78.5 78.5-35.146 78.5-78.5-35.146-78.5-78.5-78.5zm-81.5 78.5c0-45.011 36.489-81.5 81.5-81.5s81.5 36.489 81.5 81.5-36.489 81.5-81.5 81.5-81.5-36.489-81.5-81.5z"/><path d="m116 379.5c-43.3544 0-78.5 35.146-78.5 78.5s35.1456 78.5 78.5 78.5c43.354 0 78.5-35.146 78.5-78.5s-35.146-78.5-78.5-78.5zm-81.5 78.5c0-45.011 36.4888-81.5 81.5-81.5 45.011 0 81.5 36.489 81.5 81.5s-36.489 81.5-81.5 81.5c-45.0112 0-81.5-36.489-81.5-81.5z"/><path d="m484 379.5c-43.354 0-78.5 35.146-78.5 78.5s35.146 78.5 78.5 78.5 78.5-35.146 78.5-78.5-35.146-78.5-78.5-78.5zm-81.5 78.5c0-45.011 36.489-81.5 81.5-81.5s81.5 36.489 81.5 81.5-36.489 81.5-81.5 81.5-81.5-36.489-81.5-81.5z"/><path d="m300 60.5c-43.354 0-78.5 35.1456-78.5 78.5 0 43.354 35.146 78.5 78.5 78.5s78.5-35.146 78.5-78.5c0-43.3544-35.146-78.5-78.5-78.5zm-81.5 78.5c0-45.0112 36.489-81.5 81.5-81.5s81.5 36.4888 81.5 81.5c0 45.011-36.489 81.5-81.5 81.5s-81.5-36.489-81.5-81.5z"/><path d="m116 60.5c-43.3544 0-78.5 35.1456-78.5 78.5 0 43.354 35.1456 78.5 78.5 78.5 43.354 0 78.5-35.146 78.5-78.5 0-43.3544-35.146-78.5-78.5-78.5zm-81.5 78.5c0-45.0112 36.4888-81.5 81.5-81.5 45.011 0 81.5 36.4888 81.5 81.5 0 45.011-36.489 81.5-81.5 81.5-45.0112 0-81.5-36.489-81.5-81.5z"/><path d="m484 60.5c-43.354 0-78.5 35.1456-78.5 78.5 0 43.354 35.146 78.5 78.5 78.5s78.5-35.146 78.5-78.5c0-43.3544-35.146-78.5-78.5-78.5zm-81.5 78.5c0-45.0112 36.489-81.5 81.5-81.5s81.5 36.4888 81.5 81.5c0 45.011-36.489 81.5-81.5 81.5s-81.5-36.489-81.5-81.5z"/><path d="m300 272.5c-43.354 0-78.5 35.146-78.5 78.5s35.146 78.5 78.5 78.5 78.5-35.146 78.5-78.5-35.146-78.5-78.5-78.5zm-81.5 78.5c0-45.011 36.489-81.5 81.5-81.5s81.5 36.489 81.5 81.5-36.489 81.5-81.5 81.5-81.5-36.489-81.5-81.5z"/><path d="m116 272.5c-43.3544 0-78.5 35.146-78.5 78.5s35.1456 78.5 78.5 78.5c43.354 0 78.5-35.146 78.5-78.5s-35.146-78.5-78.5-78.5zm-81.5 78.5c0-45.011 36.4888-81.5 81.5-81.5 45.011 0 81.5 36.489 81.5 81.5s-36.489 81.5-81.5 81.5c-45.0112 0-81.5-36.489-81.5-81.5z"/><path d="m484 272.5c-43.354 0-78.5 35.146-78.5 78.5s35.146 78.5 78.5 78.5 78.5-35.146 78.5-78.5-35.146-78.5-78.5-78.5zm-81.5 78.5c0-45.011 36.489-81.5 81.5-81.5s81.5 36.489 81.5 81.5-36.489 81.5-81.5 81.5-81.5-36.489-81.5-81.5z"/><path d="m300 7.5c-43.354 0-78.5 35.1456-78.5 78.5 0 43.354 35.146 78.5 78.5 78.5s78.5-35.146 78.5-78.5c0-43.3544-35.146-78.5-78.5-78.5zm-81.5 78.5c0-45.0112 36.489-81.5 81.5-81.5s81.5 36.4888 81.5 81.5c0 45.011-36.489 81.5-81.5 81.5s-81.5-36.489-81.5-81.5z"/><path d="m116 7.5c-43.3544 0-78.5 35.1456-78.5 78.5 0 43.354 35.1456 78.5 78.5 78.5 43.354 0 78.5-35.146 78.5-78.5 0-43.3544-35.146-78.5-78.5-78.5zm-81.5 78.5c0-45.0112 36.4888-81.5 81.5-81.5 45.011 0 81.5 36.4888 81.5 81.5 0 45.011-36.489 81.5-81.5 81.5-45.0112 0-81.5-36.489-81.5-81.5z"/><path d="m484 7.5c-43.354 0-78.5 35.1456-78.5 78.5 0 43.354 35.146 78.5 78.5 78.5s78.5-35.146 78.5-78.5c0-43.3544-35.146-78.5-78.5-78.5zm-81.5 78.5c0-45.0112 36.489-81.5 81.5-81.5s81.5 36.4888 81.5 81.5c0 45.011-36.489 81.5-81.5 81.5s-81.5-36.489-81.5-81.5z"/><path d="m300-46.5c-43.354 0-78.5 35.1456-78.5 78.5s35.146 78.5 78.5 78.5 78.5-35.1456 78.5-78.5-35.146-78.5-78.5-78.5zm-81.5 78.5c0-45.0112 36.489-81.5 81.5-81.5s81.5 36.4888 81.5 81.5-36.489 81.5-81.5 81.5-81.5-36.4888-81.5-81.5z"/><path d="m116-46.5c-43.3544 0-78.5 35.1456-78.5 78.5s35.1456 78.5 78.5 78.5c43.354 0 78.5-35.1456 78.5-78.5s-35.146-78.5-78.5-78.5zm-81.5 78.5c0-45.0112 36.4888-81.5 81.5-81.5 45.011 0 81.5 36.4888 81.5 81.5s-36.489 81.5-81.5 81.5c-45.0112 0-81.5-36.4888-81.5-81.5z"/><path d="m484-46.5c-43.354 0-78.5 35.1456-78.5 78.5s35.146 78.5 78.5 78.5 78.5-35.1456 78.5-78.5-35.146-78.5-78.5-78.5zm-81.5 78.5c0-45.0112 36.489-81.5 81.5-81.5s81.5 36.4888 81.5 81.5-36.489 81.5-81.5 81.5-81.5-36.4888-81.5-81.5z"/><path d="m300 219.5c-43.354 0-78.5 35.146-78.5 78.5s35.146 78.5 78.5 78.5 78.5-35.146 78.5-78.5-35.146-78.5-78.5-78.5zm-81.5 78.5c0-45.011 36.489-81.5 81.5-81.5s81.5 36.489 81.5 81.5-36.489 81.5-81.5 81.5-81.5-36.489-81.5-81.5z"/><path d="m116 219.5c-43.3544 0-78.5 35.146-78.5 78.5s35.1456 78.5 78.5 78.5c43.354 0 78.5-35.146 78.5-78.5s-35.146-78.5-78.5-78.5zm-81.5 78.5c0-45.011 36.4888-81.5 81.5-81.5 45.011 0 81.5 36.489 81.5 81.5s-36.489 81.5-81.5 81.5c-45.0112 0-81.5-36.489-81.5-81.5z"/><path d="m484 219.5c-43.354 0-78.5 35.146-78.5 78.5s35.146 78.5 78.5 78.5 78.5-35.146 78.5-78.5-35.146-78.5-78.5-78.5zm-81.5 78.5c0-45.011 36.489-81.5 81.5-81.5s81.5 36.489 81.5 81.5-36.489 81.5-81.5 81.5-81.5-36.489-81.5-81.5z"/></g><path d="m380 245c0 44.183-35.817 80-80 80s-80-35.817-80-80 35.817-80 80-80 80 35.817 80 80z"/><path d="m196 245c0 44.183-35.817 80-80 80-44.1828 0-80-35.817-80-80s35.8172-80 80-80c44.183 0 80 35.817 80 80z"/><path d="m564 245c0 44.183-35.817 80-80 80s-80-35.817-80-80 35.817-80 80-80 80 35.817 80 80z"/></g></g></svg>