<svg fill="none" height="490" viewBox="0 0 600 490" width="600" xmlns="http://www.w3.org/2000/svg" xmlns:xlink="http://www.w3.org/1999/xlink"><radialGradient id="a" cx="0" cy="0" gradientTransform="matrix(-599.99944743 -562.00012499 562.00012499 -599.99944743 600 562)" gradientUnits="userSpaceOnUse" r="1"><stop offset="0" stop-color="#fed4c9"/><stop offset=".125805" stop-color="#f8dbf4"/><stop offset=".411362" stop-color="#d8dbff"/><stop offset=".628973" stop-color="#c4ddff"/><stop offset="1" stop-color="#cae9ff"/></radialGradient><linearGradient id="b"><stop offset="0" stop-color="#fff"/><stop offset="1" stop-color="#fff" stop-opacity="0"/></linearGradient><linearGradient id="c" gradientUnits="userSpaceOnUse" x1="300" x2="158" xlink:href="#b" y1="50" y2="50"/><linearGradient id="d" gradientUnits="userSpaceOnUse" x1="190" x2="424" xlink:href="#b" y1="190" y2="190"/><linearGradient id="e" gradientUnits="userSpaceOnUse" x1="450" x2="216" xlink:href="#b" y1="330" y2="330"/><path d="m0 0h600v490h-600z" fill="url(#a)" transform="matrix(-1 0 0 -1 600 490)"/><g clip-rule="evenodd" fill="#fff" fill-rule="evenodd"><path d="m48.5 245c0-31.204 25.2959-56.5 56.5-56.5h390c31.204 0 56.5 25.296 56.5 56.5s-25.296 56.5-56.5 56.5h-390c-31.2041 0-56.5-25.296-56.5-56.5zm500 0c0-29.547-23.953-53.5-53.5-53.5h-390c-29.5472 0-53.5 23.953-53.5 53.5s23.9528 53.5 53.5 53.5h390c29.547 0 53.5-23.953 53.5-53.5z"/><path d="m48.5 105c0-31.2041 25.2959-56.5 56.5-56.5h390c31.204 0 56.5 25.2959 56.5 56.5 0 31.204-25.296 56.5-56.5 56.5h-390c-31.2041 0-56.5-25.296-56.5-56.5zm500 0c0-29.5472-23.953-53.5-53.5-53.5h-390c-29.5472 0-53.5 23.9528-53.5 53.5 0 29.547 23.9528 53.5 53.5 53.5h390c29.547 0 53.5-23.953 53.5-53.5z"/><path d="m48.5 385c0-31.204 25.2959-56.5 56.5-56.5h390c31.204 0 56.5 25.296 56.5 56.5s-25.296 56.5-56.5 56.5h-390c-31.2041 0-56.5-25.296-56.5-56.5zm500 0c0-29.547-23.953-53.5-53.5-53.5h-390c-29.5472 0-53.5 23.953-53.5 53.5s23.9528 53.5 53.5 53.5h390c29.547 0 53.5-23.953 53.5-53.5z"/></g><path d="m158 50h142v110h-142z" fill="url(#c)" opacity=".75"/><path d="m424 190h-234v110h234z" fill="url(#d)" opacity=".75"/><path d="m216 330h234v110h-234z" fill="url(#e)" opacity=".75"/><path d="m355 105c0 30.376-24.624 55-55 55s-55-24.624-55-55c0-30.3757 24.624-55 55-55s55 24.6243 55 55z" fill="#fff"/><path d="m135 245c0 30.376 24.624 55 55 55s55-24.624 55-55-24.624-55-55-55-55 24.624-55 55z" fill="#fff"/><path d="m505 385c0 30.376-24.624 55-55 55s-55-24.624-55-55 24.624-55 55-55 55 24.624 55 55z" fill="#fff"/><g clip-rule="evenodd" fill-rule="evenodd"><path d="m300 67.5c-20.711 0-37.5 16.7893-37.5 37.5 0 20.711 16.789 37.5 37.5 37.5s37.5-16.789 37.5-37.5c0-20.7107-16.789-37.5-37.5-37.5zm-40.5 37.5c0-22.3675 18.132-40.5 40.5-40.5s40.5 18.1325 40.5 40.5c0 22.368-18.132 40.5-40.5 40.5s-40.5-18.132-40.5-40.5z" fill="#d1dcff"/><path d="m190 207.5c20.711 0 37.5 16.789 37.5 37.5s-16.789 37.5-37.5 37.5-37.5-16.789-37.5-37.5 16.789-37.5 37.5-37.5zm40.5 37.5c0-22.368-18.132-40.5-40.5-40.5s-40.5 18.132-40.5 40.5 18.132 40.5 40.5 40.5 40.5-18.132 40.5-40.5z" fill="#d1dcff"/><path d="m450 347.5c-20.711 0-37.5 16.789-37.5 37.5s16.789 37.5 37.5 37.5 37.5-16.789 37.5-37.5-16.789-37.5-37.5-37.5zm-40.5 37.5c0-22.368 18.132-40.5 40.5-40.5s40.5 18.132 40.5 40.5-18.132 40.5-40.5 40.5-40.5-18.132-40.5-40.5z" fill="#d1dcff"/></g></svg>