<svg fill="none" height="214" viewBox="0 0 340 214" width="340" xmlns="http://www.w3.org/2000/svg" xmlns:xlink="http://www.w3.org/1999/xlink"><radialGradient id="a" cx="0" cy="0" gradientTransform="matrix(-127.49926643 125.00044347 -125.00044347 -127.49926643 194 100)" gradientUnits="userSpaceOnUse" r="1"><stop offset=".0409065" stop-color="#fed4c9"/><stop offset=".185836" stop-color="#f8dbf4"/><stop offset=".461382" stop-color="#d8dbff"/><stop offset=".683293" stop-color="#c4ddff"/><stop offset="1" stop-color="#cae9ff"/></radialGradient><path d="m169 35.2571c0 19.0814 15.67 34.5499 35 34.5499s35-15.4685 35-34.5499-15.67-34.549949-35-34.549947c-19.33.000003-35 15.468547-35 34.549947z" fill="url(#a)"/><path d="m297 161c0 29.272-23.729 53.001-53 53.001s-53-23.729-53-53.001c0-29.271 23.729-53 53-53s53 23.729 53 53z" fill="url(#a)"/><path d="m78.2697 188.304c-41.0953-11.112-65.5761-53.387-54.6793-94.4241 10.8967-41.0372 53.0446-65.2966 94.1396-54.185 41.096 11.1116 65.576 53.3865 54.68 94.4241-10.897 41.037-53.045 65.296-94.1403 54.185z" fill="url(#a)"/><g fill="#fff"><path d="m190.629 37.8832 14.35 20.327v-11.8026z"/><path d="m204.979 46.4075v11.8026l14.349-20.327z"/><path d="m204.978 11.1314v32.5443l14.35-8.5454z"/><path d="m190.629 35.1304 14.35 8.5455v-32.5444z"/><path d="m204.979 28.5623-14.35 6.5738 14.35 8.5398z"/><path d="m204.979 28.5623 14.349 6.5738-14.349 8.5398z"/><path d="m264.565 153.327-3.15 37.723-8.835-15.619z"/><path d="m252.58 175.431 8.836 15.619-33.585-16.078z"/><path d="m226.171 128.747 24.364 43.069-24.765-.487z"/><path d="m262.505 149.684-11.97 22.132-24.363-43.069z"/><path d="m239.22 151.814 23.289-2.123-11.974 22.125z"/><path d="m239.221 151.814-13.446 19.523 24.76.479z"/></g><circle cx="276" cy="78" fill="#8295b2" r="20" transform="matrix(-1 0 0 -1 552 156)"/><circle cx="157.5" cy="201.5" fill="#8295b2" opacity=".6" r="12.5" transform="matrix(-1 0 0 -1 315 403)"/><circle cx="105" cy="18" fill="#8295b2" opacity=".25" r="7"/><g fill="#fff"><path d="m65.8203 111.543 19.1734 51.982 6.7318-25.352z"/><path d="m91.7257 138.172-6.7319 25.353 42.3612-35.344z"/><path d="m111.846 62.3994-18.5622 69.9056 35.6412-10.037z"/><path d="m67.3907 105.63 25.8933 26.675 18.562-69.9055z"/><path d="m101.904 99.8406-34.517 5.8014 25.8965 26.663z"/><path d="m101.904 99.8406 27.018 22.4394-35.6382 10.025z"/></g></svg>