<svg fill="none" height="214" viewBox="0 0 340 214" width="340" xmlns="http://www.w3.org/2000/svg" xmlns:xlink="http://www.w3.org/1999/xlink"><radialGradient id="a" cx="0" cy="0" gradientTransform="matrix(-44.85826464 -133.25516764 124.46203061 -41.89819281 118.803 224.809)" gradientUnits="userSpaceOnUse" r="1"><stop offset="0" stop-color="#fed4c9"/><stop offset=".125805" stop-color="#f8dbf4"/><stop offset=".411362" stop-color="#d8dbff"/><stop offset=".628973" stop-color="#c4ddff"/><stop offset="1" stop-color="#cae9ff"/></radialGradient><path d="m172 110c0-3.314 2.686-6 6-6h98c3.314 0 6 2.686 6 6v98c0 3.314-2.686 6-6 6h-98c-3.314 0-6-2.686-6-6z" fill="#8295b2"/><path d="m168 159c0 30.376-24.624 55-55 55-30.3757 0-55-24.624-55-55s24.6243-55 55-55c30.376 0 55 24.624 55 55z" fill="url(#a)"/><path d="m166.546 2.98554c1.542-2.64738 5.366-2.647389 6.908-.00001l52.997 91.00427c1.552 2.6652-.37 6.0102-3.454 6.0102h-105.994c-3.084 0-5.006-3.345-3.454-6.0102z" fill="#fff"/><g fill="#8295b2"><path d="m254.001 55.4632c-.547 2.0491-3.455 2.0491-4.002 0l-2.654-9.9414c-.765-2.8646-3.002-5.102-5.867-5.8668l-9.941-2.6541c-2.049-.5471-2.049-3.4547 0-4.0018l9.941-2.6541c2.865-.7648 5.102-3.0022 5.867-5.8668l2.654-9.9414c.547-2.0491 3.455-2.0491 4.002 0l2.654 9.9414c.765 2.8646 3.002 5.102 5.867 5.8668l9.941 2.6541c2.049.5471 2.049 3.4547 0 4.0018l-9.941 2.6541c-2.865.7648-5.102 3.0022-5.867 5.8668z" opacity=".25"/><path d="m48.455 89.2665c-.2611.978-1.6489.978-1.91 0l-1.2667-4.7448c-.365-1.3671-1.4329-2.435-2.8-2.8l-4.7448-1.2667c-.978-.2611-.978-1.6489 0-1.91l4.7448-1.2667c1.3671-.365 2.435-1.4329 2.8-2.8l1.2667-4.7448c.2611-.978 1.6489-.978 1.91 0l1.2667 4.7448c.365 1.3671 1.4329 2.435 2.8 2.8l4.7448 1.2667c.978.2611.978 1.6489 0 1.91l-4.7448 1.2667c-1.3671.365-2.435 1.4329-2.8 2.8z" opacity=".25"/><path d="m327.273 171.022c-.348 1.304-2.198 1.304-2.546 0l-1.689-6.326c-.487-1.823-1.911-3.247-3.734-3.734l-6.326-1.689c-1.304-.348-1.304-2.198 0-2.546l6.326-1.689c1.823-.487 3.247-1.911 3.734-3.734l1.689-6.326c.348-1.304 2.198-1.304 2.546 0l1.689 6.326c.487 1.823 1.911 3.247 3.734 3.734l6.326 1.689c1.304.348 1.304 2.198 0 2.546l-6.326 1.689c-1.823.487-3.247 1.911-3.734 3.734z" opacity=".25"/></g></svg>