<svg fill="none" height="50" viewBox="0 0 50 50" width="50" xmlns="http://www.w3.org/2000/svg" xmlns:xlink="http://www.w3.org/1999/xlink"><linearGradient id="a" gradientUnits="userSpaceOnUse" x1="25" x2="25" y1="42" y2="9"><stop offset="0" stop-color="#071b3b"/><stop offset="1" stop-color="#052b65"/></linearGradient><clipPath id="b"><rect height="50" rx="25" width="50"/></clipPath><g clip-path="url(#b)"><rect fill="#cae9ff" height="50" rx="25" width="50"/><path d="m31.9449 40.0661c-2.0091 1.2248-4.391 1.9339-6.9449 1.9339-7.1797 0-13-5.6042-13-12.5172 0-2.6856.56-5.2858 1.6079-7.7537z" fill="url(#a)"/><path d="m34.3253 38.2039-19.2827-19.2827c2.2517-3.7513 5.6675-7.1215 9.9574-9.9212 8.0321 5.242 13 12.4837 13 20.4828 0 3.3909-1.4004 6.4669-3.6747 8.7211z" fill="url(#a)"/><path d="m31.9449 40.0661c-2.0091 1.2248-4.391 1.9339-6.9449 1.9339-7.1797 0-13-5.6042-13-12.5172 0-2.6856.56-5.2858 1.6079-7.7537z" fill="#8295b2"/><path d="m0 0 50 50" stroke="#062452" stroke-width="6"/></g></svg>