<svg fill="none" height="335" viewBox="0 0 481 335" width="481" xmlns="http://www.w3.org/2000/svg" xmlns:xlink="http://www.w3.org/1999/xlink"><linearGradient id="a" gradientUnits="userSpaceOnUse" x1="140.407" x2="296.753" y1="177.832" y2="93.9953"><stop offset="0" stop-color="#ffe7e0"/><stop offset=".109375" stop-color="#f8dbf4"/><stop offset=".526042" stop-color="#c4ddff"/><stop offset="1" stop-color="#cae9ff"/></linearGradient><path clip-rule="evenodd" d="m338.814 313.981c-.717.481-1.438.957-2.162 1.428 80.172-2.624 144.348-67.568 144.348-147.299 0-79.732-64.176-144.676-144.348-147.2996.724.4706 1.445.9464 2.162 1.4273 78.436 3.7073 140.846 67.6143 140.846 145.8723 0 78.257-62.41 142.164-140.846 145.871zm-193.092-293.1926c-80.8699 2.2555-145.722 67.3501-145.722 147.3216 0 79.971 64.8521 145.065 145.722 147.321-.719-.467-1.435-.939-2.146-1.416-79.1487-3.334-142.23617-67.404-142.23617-145.905 0-78.5016 63.08747-142.5715 142.23617-145.9058.711-.477 1.427-.949 2.146-1.4158z" fill="#052b65" fill-rule="evenodd"/><circle cx="240.894" cy="167.479" fill="#052b65" r="167.479"/><g clip-rule="evenodd" fill="url(#a)" fill-rule="evenodd"><path d="m287.017 98.0401c11.116-2.041 52.696-9.6752 54.547 3.3359 1.899 13.325-15.237 31.702-33.164 39.961-.945.435-1.785 1.035-2.625 1.635-.698.499-1.397.999-2.159 1.406-2.821 1.51-4.504 5.28-4.089 8.68v47.609c-14.137-9.781-34.917-15.867-58.469-15.867-23.551 0-44.331 6.086-58.468 15.867v-47.609c.414-3.4-1.269-7.17-4.091-8.68-.76-.407-1.458-.905-2.155-1.403-.841-.602-1.682-1.202-2.628-1.638-17.928-8.259-35.062-26.636-33.165-39.961 1.852-13.0125 43.441-5.3754 54.551-3.3353.884.1624 1.576.2893 2.038.3675.322.0542.623-.2162.559-.5308-.641-3.1477-1.102-11.6588 5.028-13.5015 3.919-1.1791 6.502.9964 8.035 3.1908.687.9847 2.741 5.2409 4.018 8.1953.688 1.5957 2.292 3.9273 4.052 3.8851 7.387-2.2616 14.808-3.3927 22.226-3.3927 7.42 0 14.839 1.1311 22.225 3.3927 1.762.0422 3.364-2.2894 4.053-3.8851 1.276-2.9544 3.331-7.2106 4.017-8.1953 1.533-2.1945 4.118-4.3699 8.036-3.1908 6.13 1.8427 5.668 10.3538 5.029 13.5015-.065.3146.235.585.557.5308.464-.0783 1.156-.2055 2.042-.3681zm-54.787 52.7099c.204-1.205-1.765-4.262-7.915-8.41-4.317-2.877-9.099-5.087-14.101-6.54-1.174-.342-2.397-.563-3.621-.52-2.234.082-4.375.832-6.252 2.16-2.505 1.712-4.24 3.996-4.764 6.951-.536 2.952.301 5.684 2.06 8.136 1.301 1.879 3.052 3.304 5.123 4.132 1.135.455 2.361.656 3.585.731 5.204.316 10.466-.15 15.523-1.401 7.222-1.831 10.134-4.039 10.362-5.239zm47.126 5.909c2.071-.828 3.822-2.253 5.123-4.132 1.759-2.452 2.596-5.182 2.06-8.134-.523-2.956-2.259-5.241-4.764-6.953-1.876-1.328-4.017-2.078-6.251-2.16-1.225-.043-2.448.178-3.622.52-5.002 1.453-9.784 3.663-14.101 6.54-6.15 4.148-8.119 7.203-7.916 8.409.228 1.2 3.141 3.409 10.364 5.24 5.055 1.251 10.318 1.717 15.523 1.401 1.223-.075 2.449-.276 3.584-.731z"/><path d="m171.404 232.171c0-21.789 31.184-39.451 69.654-39.451 38.469 0 69.656 17.663 69.656 39.451s-31.186 39.45-69.656 39.45-69.654-17.662-69.654-39.45zm24.111-2.456c1.064 6.487 6.614 9.348 12.575 6.487 5.814-2.691 9.646-8.313 9.972-14.624-.025-3.344-1.825-2.06-4.048-.475-2.972 2.121-6.699 4.78-7.952-2.365-2.191-12.491-11.714 4.027-10.547 10.977zm78.51 6.487c5.959 2.861 11.509 0 12.575-6.487 1.165-6.95-8.356-23.468-10.547-10.977-1.254 7.146-4.982 4.485-7.953 2.365-2.222-1.585-4.021-2.869-4.046.475.324 6.311 4.157 11.933 9.971 14.624z"/></g></svg>