<svg fill="none" height="76" viewBox="0 0 76 76" width="76" xmlns="http://www.w3.org/2000/svg"><path d="m0 0h76v76h-76z" fill="#cae9ff"/><path d="m0 50h76v26h-76z" fill="#8295b2"/><path d="m23 34.4986c0-2.9345.8607-5.8046 2.4756-8.2547l3.2282-4.8979c.9602-1.4569 1.0915-3.3089.3465-4.8866l-1.0287-2.1784c-.9398-1.99.512-4.281 2.7127-4.281h14.5314c2.2007 0 3.6525 2.291 2.7127 4.281l-1.0287 2.1784c-.745 1.5777-.6137 3.4297.3465 4.8866l3.2282 4.8979c1.6149 2.4502 2.4756 5.3202 2.4756 8.2547v27.5014c0 2.7614-2.2386 5-5 5h-20c-2.7614 0-5-2.2386-5-5z" fill="#052b65"/><path clip-rule="evenodd" d="m37.2929 47.7071c.3905.3905 1.0237.3905 1.4142 0l7-7c.3905-.3905.3905-1.0237 0-1.4142s-1.0237-.3905-1.4142 0l-6.2929 6.2929-6.2929-6.2929c-.3905-.3905-1.0237-.3905-1.4142 0s-.3905 1.0237 0 1.4142z" fill="#cae9ff" fill-rule="evenodd"/></svg>