<svg fill="none" height="76" viewBox="0 0 76 76" width="76" xmlns="http://www.w3.org/2000/svg" xmlns:xlink="http://www.w3.org/1999/xlink"><clipPath id="a"><path d="m0 0h76v76h-76z"/></clipPath><g clip-path="url(#a)"><path d="m0 0h76v76h-76z" fill="#cae9ff"/><g fill="#052b65"><path d="m54.8235 55 5.1765-23h-44l5.1765 23z"/><g clip-rule="evenodd" fill-rule="evenodd"><path d="m15.2191 31.3753c.1898-.2372.4771-.3753.7809-.3753h44c.3038 0 .5911.1381.7809.3753.1898.2373.2614.5479.1947.8443l-5.1765 23c-.1027.4562-.5079.7804-.9756.7804h-33.647c-.4677 0-.8729-.3242-.9756-.7804l-5.1765-23c-.0667-.2964.0049-.607.1947-.8443zm2.031 1.6247 4.7263 21h32.0472l4.7263-21z"/><path d="m29.2425 19.0298c.5358.134.8616.6769.7276 1.2127l-3 12c-.1339.5358-.6768.8616-1.2126.7276-.5358-.1339-.8616-.6768-.7277-1.2126l3.0001-12c.1339-.5358.6768-.8616 1.2126-.7277zm17.515 0c.5358-.1339 1.0787.1919 1.2126.7277l3 12c.134.5358-.1918 1.0787-.7276 1.2126-.5358.134-1.0787-.1918-1.2126-.7276l-3-12c-.134-.5358.1918-1.0787.7276-1.2127z"/></g></g><path clip-rule="evenodd" d="m37.293 37.8813c.3905-.3906 1.0237-.3906 1.4142 0l6.4706 6.4706c.3905.3905.3905 1.0237 0 1.4142s-1.0237.3905-1.4142 0l-5.7635-5.7635-5.7635 5.7635c-.3905.3905-1.0236.3905-1.4142 0-.3905-.3905-.3905-1.0237 0-1.4142z" fill="#cae9ff" fill-rule="evenodd"/><path d="m0 56h76v28h-76z" fill="#8295b2"/></g></svg>