<svg fill="none" height="76" viewBox="0 0 76 76" width="76" xmlns="http://www.w3.org/2000/svg"><path d="m0 0h76v76h-76z" fill="#cae9ff"/><path d="m0 38h76v38h-76z" fill="#052b65"/><path clip-rule="evenodd" d="m37.2929 62.7071c.3905.3905 1.0237.3905 1.4142 0l9-9c.3905-.3905.3905-1.0237 0-1.4142s-1.0237-.3905-1.4142 0l-8.2929 8.2929-8.2929-8.2929c-.3905-.3905-1.0237-.3905-1.4142 0s-.3905 1.0237 0 1.4142z" fill="#cae9ff" fill-rule="evenodd"/><path clip-rule="evenodd" d="m37.2929 13.2929c.3905-.3905 1.0237-.3905 1.4142 0l9 9c.3905.3905.3905 1.0237 0 1.4142s-1.0237.3905-1.4142 0l-8.2929-8.2929-8.2929 8.2929c-.3905.3905-1.0237.3905-1.4142 0s-.3905-1.0237 0-1.4142z" fill="#052b65" fill-rule="evenodd"/><g fill="#8295b2"><path d="m9.82161 45.0369 6.11289 5.0486c.6618.5465 1.5985.6099 2.3278.1575l19.7377-12.243h-38v19l6.8306-11.4459c.628-1.0524 2.04612-1.2976 2.99101-.5172z"/><path d="m72.4777 9.13371-13.317 15.62849c-.1342.1576-.2921.2933-.468.4025l-20.6927 12.8353h38v-27.5691c0-1.85975-2.3162-2.71271-3.5223-1.29719z"/></g></svg>