<svg fill="none" height="76" viewBox="0 0 76 76" width="76" xmlns="http://www.w3.org/2000/svg" xmlns:xlink="http://www.w3.org/1999/xlink"><clipPath id="a"><path d="m0 0h76v76h-76z"/></clipPath><g clip-path="url(#a)"><path d="m0 0h76v76h-76z" fill="#cae9ff"/><path d="m0 38h76v38h-76z" fill="#8295b2"/><path clip-rule="evenodd" d="m77.9186-1.10468-15.3191 35.59438c-1.0037 2.3321-4.2699 2.4407-5.4263.1805l-7.1013-13.8798c-.3876-.7576-1.4841-.7157-1.8127.0693l-7.3367 17.5264-1.8449-.7722 7.3367-17.5265c.9858-2.3549 4.2753-2.4808 5.4381-.208l7.1012 13.8798c.3855.7534 1.4743.7172 1.8088-.0602l15.3191-35.59432z" fill="#052b65" fill-rule="evenodd"/><path clip-rule="evenodd" d="m40.9183 38.3961-8.9773 20.8109c-1.081 2.506-4.6752 2.3838-5.5836-.1898l-6.3903-18.106c-.2252-.6381-1.0059-.8729-1.5458-.465l-20.31842 15.3517-1.20566-1.5958 20.31838-15.3516c1.6197-1.2238 3.9618-.5192 4.6375 1.3951l6.3903 18.1059c.3028.8579 1.5009.8986 1.8612.0633l8.9772-20.8109z" fill="#cae9ff" fill-rule="evenodd"/><path d="m65 38c0 2.7614-2.2386 5-5 5s-5-2.2386-5-5 2.2386-5 5-5 5 2.2386 5 5z" fill="#052b65"/><path d="m45 38c0 2.7614-2.2386 5-5 5s-5-2.2386-5-5 2.2386-5 5-5 5 2.2386 5 5z" fill="#052b65"/><path d="m42 38c0 1.1046-.8954 2-2 2s-2-.8954-2-2 .8954-2 2-2 2 .8954 2 2z" fill="#cae9ff"/><path d="m62 38c0 1.1046-.8954 2-2 2s-2-.8954-2-2 .8954-2 2-2 2 .8954 2 2z" fill="#cae9ff"/><path d="m25 38c0 2.7614-2.2386 5-5 5s-5-2.2386-5-5 2.2386-5 5-5 5 2.2386 5 5z" fill="#052b65"/><path d="m22 38c0 1.1046-.8954 2-2 2s-2-.8954-2-2 .8954-2 2-2 2 .8954 2 2z" fill="#cae9ff"/></g></svg>