<svg fill="none" height="76" viewBox="0 0 76 76" width="76" xmlns="http://www.w3.org/2000/svg"><path d="m0 0h76v76h-76z" fill="#cae9ff"/><path d="m32.2817 11.2331c.1464-.7176.7777-1.2331 1.5101-1.2331h8.4164c.7324 0 1.3637.5155 1.5101 1.2331l.636 3.1163c.2522 1.2357 1.1738 2.2188 2.3396 2.7001 1.1615.4795 2.4883.4267 3.5366-.2662l2.6531-1.7538c.611-.4039 1.4219-.322 1.9398.1959l5.9512 5.9513c.5179.5179.5998 1.3287.1959 1.9397l-1.684 2.5476c-.7133 1.0791-.7608 2.4466-.2595 3.6391.4962 1.18 1.4954 2.1124 2.7496 2.3683l2.9903.6103c.7177.1464 1.2331.7777 1.2331 1.5101v8.4164c0 .7324-.5154 1.3637-1.2331 1.5101l-2.8143.5744c-1.3058.2665-2.3408 1.2463-2.8461 2.4796-.5005 1.2215-.4473 2.6148.2806 3.716l1.5834 2.3953c.4039.611.322 1.4218-.1959 1.9397l-5.9512 5.9513c-.5179.5179-1.3288.5998-1.9398.1959l-2.2894-1.5133c-1.1324-.7486-2.5669-.7963-3.8197-.2734-1.247.5203-2.2375 1.5714-2.5077 2.8954l-.5485 2.6877c-.1464.7177-.7777 1.2331-1.5101 1.2331h-8.4164c-.7324 0-1.3637-.5154-1.5101-1.2331l-.5485-2.6877c-.2702-1.324-1.2607-2.3751-2.5077-2.8954-1.2528-.5229-2.6873-.4752-3.8197.2734l-2.2894 1.5133c-.611.4039-1.4219.322-1.9398-.1959l-5.9512-5.9513c-.5179-.5179-.5998-1.3287-.1959-1.9397l1.5833-2.3953c.728-1.1012.7812-2.4945.2807-3.716-.5053-1.2333-1.5403-2.2131-2.8461-2.4796l-2.8143-.5744c-.7176-.1464-1.2331-.7777-1.2331-1.5101v-8.4164c0-.7324.5155-1.3637 1.2331-1.5101l2.9903-.6103c1.2542-.2559 2.2534-1.1883 2.7496-2.3683.5013-1.1925.4538-2.56-.2595-3.6392l-1.684-2.5475c-.4039-.611-.322-1.4218.1959-1.9397l5.9512-5.9513c.5179-.5179 1.3288-.5998 1.9398-.1959l2.6531 1.7538c1.0483.6929 2.3751.7457 3.5366.2662 1.1658-.4813 2.0874-1.4644 2.3396-2.7001z" fill="#052b65"/><g fill="#8295b2"><path d="m32.0922 30.3132c-2.1065-.5539-3.3322-2.6571-2.7938-4.6865.5185-1.5167 2.0005-2.6267 3.7561-2.6267 2.1969 0 3.9455 1.7428 3.9455 3.8531v22.2938c0 2.1103-1.7486 3.8531-3.9455 3.8531-1.731 0-3.1909-1.0864-3.7259-2.5819-.142-.3969-.2195-.8242-.2195-1.2712 0-1.058.4356-2.0179 1.1489-2.7179.3942-.3868.4001-1.0199.0133-1.4141s-1.0199-.4002-1.4141-.0134c-1.0766 1.0565-1.7481 2.5232-1.7481 4.1454 0 .2222.0126.4418.0372.6579-2.8875-.1742-5.1463-2.5233-5.1463-5.3593 0-1.5164.6418-2.888 1.6826-3.8683.9864-.9288 2.3266-1.5014 3.8083-1.5014.5523 0 1-.4477 1-1s-.4477-1-1-1c-1.675 0-3.2248.5419-4.4743 1.4586-.6346-.6858-1.0166-1.5919-1.0166-2.5818 0-1.4028.7684-2.6394 1.9342-3.3157.4155-.241.6009-.7433.4417-1.1964-.1374-.3911-.2123-.8115-.2123-1.2509 0-1.7998 1.2719-3.3323 3.009-3.7443-.0709 2.653 1.7118 5.0924 4.411 5.8021.5341.1405 1.081-.1787 1.2214-.7128s-.1787-1.081-.7128-1.2214z"/><path d="m42.9455 23c1.7556 0 3.2376 1.1099 3.7561 2.6267.5384 2.0294-.6873 4.1326-2.7938 4.6865-.5341.1404-.8532.6873-.7128 1.2214s.6873.8533 1.2214.7128c2.6992-.7097 4.4819-3.1491 4.411-5.8021 1.7371.412 3.009 1.9445 3.009 3.7443 0 .4394-.075.8598-.2123 1.2509-.1592.4531.0262.9554.4417 1.1964 1.1658.6763 1.9342 1.9129 1.9342 3.3157 0 .9899-.382 1.896-1.0166 2.5818-1.2495-.9167-2.7993-1.4586-4.4743-1.4586-.5523 0-1 .4477-1 1s.4477 1 1 1c1.4817 0 2.8219.5726 3.8083 1.5014 1.0408.9803 1.6826 2.3519 1.6826 3.8683 0 2.836-2.2588 5.1851-5.1463 5.3593.0246-.2161.0372-.4357.0372-.6579 0-1.6222-.6715-3.0889-1.7481-4.1454-.3942-.3868-1.0273-.3808-1.4141.0134s-.3809 1.0273.0133 1.4141c.7133.7 1.1489 1.6599 1.1489 2.7179 0 .447-.0775.8743-.2195 1.2712-.535 1.4955-1.9949 2.5819-3.7259 2.5819-2.1969 0-3.9455-1.7428-3.9455-3.8531v-22.2938c0-2.1103 1.7486-3.8531 3.9455-3.8531z"/></g></svg>