<svg fill="none" height="76" viewBox="0 0 76 76" width="76" xmlns="http://www.w3.org/2000/svg"><path d="m0 0h76v76h-76z" fill="#cae9ff"/><g fill="#052b65"><path d="m37.2444 52v-28h1.8223v28zm4.8334-18.7578c-.0889-.8823-.4704-1.5677-1.1445-2.0563-.674-.4885-1.5889-.7328-2.7444-.7328-.7852 0-1.4482.1094-1.9889.3282-.5407.2114-.9556.5067-1.2444.8859-.2815.3792-.4223.8094-.4223 1.2906-.0148.4011.0704.7511.2556 1.05.1926.299.4555.5578.7889.7766.3333.2114.7185.3974 1.1555.5578.4371.1531.9037.2844 1.4.3937l2.0445.4813c.9926.2187 1.9037.5104 2.7333.875s1.5482.813 2.1556 1.3453 1.0777 1.1594 1.4111 1.8813c.3407.7218.5148 1.5494.5222 2.4828-.0074 1.3708-.363 2.5593-1.0667 3.5656-.6963.9989-1.7037 1.7755-3.0222 2.3297-1.3111.5469-2.8926.8203-4.7444.8203-1.8371 0-3.4371-.2771-4.8-.8313-1.3556-.5541-2.4148-1.3744-3.1778-2.4609-.7556-1.0937-1.1519-2.4464-1.1889-4.0578h4.6556c.0518.751.2703 1.3781.6555 1.8812.3926.4959.9148.8714 1.5667 1.1266.6592.2479 1.4037.3719 2.2333.3719.8148 0 1.5222-.1167 2.1222-.35.6074-.2334 1.0778-.5578 1.4111-.9735.3334-.4156.5-.8932.5-1.4328 0-.5031-.1518-.926-.4555-1.2687-.2963-.3427-.7333-.6344-1.3111-.875-.5704-.2407-1.2704-.4594-2.1-.6563l-2.4778-.6125c-1.9185-.4593-3.4333-1.1776-4.5444-2.1547-1.1112-.977-1.663-2.2932-1.6556-3.9484-.0074-1.3563.3593-2.5411 1.1-3.5547.7481-1.0135 1.7741-1.8047 3.0778-2.3734 1.3037-.5688 2.7852-.8531 4.4444-.8531 1.6889 0 3.163.2843 4.4222.8531 1.2667.5687 2.2519 1.3599 2.9556 2.3734.7037 1.0136 1.0667 2.1875 1.0889 3.5219z"/><path clip-rule="evenodd" d="m69.712 37.0018c-.3878-.3932-1.0209-.3976-1.4142-.0098l-4.4547 4.3933v-2.8853c0-14.0963-11.5835-25.5-25.8431-25.5-.5522 0-1 .4477-1 1s.4478 1 1 1c13.1813 0 23.8431 10.5344 23.8431 23.5v2.9702l-4.5409-4.4782c-.3933-.3878-1.0264-.3834-1.4142.0098-.3878.3933-.3834 1.0264.0098 1.4142l6.2 6.1144c.0073.0072.0146.0141.022.021.1821.1907.4388.3095.7233.3095.3991 0 .7436-.2339.904-.572l5.9551-5.8729c.3932-.3878.3976-1.0209.0098-1.4142zm-30.712 25.9982c0-.5523-.4477-1-1-1-13.18 0-23.8409-10.5323-23.843-23.4962 0-.0013 0-.0025 0-.0038l.0239-2.9467 4.5169 4.4546c.3933.3878 1.0264.3834 1.4142-.0098.3878-.3933.3834-1.0264-.0098-1.4142l-6.2-6.1144c-.3894-.384-1.015-.384-1.4044 0l-6.19997 6.1144c-.39324.3878-.39764 1.0209-.00984 1.4142.3878.3932 1.02095.3976 1.41418.0098l4.47833-4.4165-.0234 2.9005-.0001.0081c0 14.0963 11.5835 25.5 25.843 25.5.5523 0 1-.4477 1-1z" fill-rule="evenodd"/></g></svg>