<svg fill="none" height="76" viewBox="0 0 76 76" width="76" xmlns="http://www.w3.org/2000/svg" xmlns:xlink="http://www.w3.org/1999/xlink"><clipPath id="a"><path d="m0 0h76v76h-76z"/></clipPath><g clip-path="url(#a)"><path d="m0 0h76v76h-76z" fill="#cae9ff"/><g fill="#fff"><path d="m37 0h2v76h-2z"/><path d="m17 0h2v76h-2z"/><path d="m57 0h2v76h-2z"/></g><path clip-rule="evenodd" d="m78.3766-1.01856-17.6889 32.20286c-1.1572 2.1067-4.1981 2.0652-5.2973-.0723l-5.0149-9.7511c-.4114-.7999-1.5872-.6924-1.8468.1688l-9.4494 31.3548-.9574-.2886.9574.2886c-.1204.3996-.3229.7698-.5946 1.0867l-6.6736 7.7859c-1.4314 1.6699-4.1137 1.2829-5.0146-.7236l-8.6716-19.3141c-.2646-.5892-1.01-.7768-1.522-.383l-17.493098 13.4562-1.219422-1.5852 17.49312-13.4563c1.5359-1.1814 3.7722-.6186 4.5659 1.1491l8.6716 19.3141c.3003.6688 1.1944.7979 1.6716.2412l6.6736-7.7859c.0905-.1056.158-.229.1982-.3622l9.4494-31.3548c.7786-2.5836 4.3062-2.906 5.5403-.5064l5.0148 9.7511c.3665.7125 1.3801.7264 1.7658.0241l17.6889-32.20285z" fill="#052b65" fill-rule="evenodd"/><path d="m43 53c0 2.7614-2.2386 5-5 5s-5-2.2386-5-5 2.2386-5 5-5 5 2.2386 5 5z" fill="#052b65"/><path d="m40 53c0 1.1046-.8954 2-2 2s-2-.8954-2-2 .8954-2 2-2 2 .8954 2 2z" fill="#cae9ff"/><path d="m23 40c0 2.7614-2.2386 5-5 5s-5-2.2386-5-5 2.2386-5 5-5 5 2.2386 5 5z" fill="#052b65"/><path d="m20 40c0 1.1046-.8954 2-2 2s-2-.8954-2-2 .8954-2 2-2 2 .8954 2 2z" fill="#cae9ff"/><path d="m63 32c0 2.7614-2.2386 5-5 5s-5-2.2386-5-5 2.2386-5 5-5 5 2.2386 5 5z" fill="#052b65"/><path d="m60 32c0 1.1046-.8954 2-2 2s-2-.8954-2-2 .8954-2 2-2 2 .8954 2 2z" fill="#cae9ff"/></g></svg>