<svg fill="none" height="54" width="59" xmlns="http://www.w3.org/2000/svg"><g clip-rule="evenodd" fill="#f6f2e7" fill-rule="evenodd"><path d="m42.568 4.03c3.2-.588 15.17-2.786 15.703.96.547 3.836-4.386 9.126-9.547 11.504-.272.125-.514.297-.756.47a5.686 5.686 0 0 1 -.622.405c-.812.435-1.296 1.52-1.177 2.499v13.706c-4.07-2.816-10.052-4.568-16.832-4.568s-12.762 1.752-16.832 4.568v-13.706c.12-.979-.365-2.064-1.178-2.499a5.733 5.733 0 0 1 -.62-.404c-.242-.173-.484-.346-.757-.471-5.16-2.378-10.093-7.668-9.547-11.504.533-3.746 12.506-1.548 15.704-.96.255.046.454.083.587.105.093.016.18-.062.16-.153-.184-.906-.316-3.356 1.448-3.886 1.128-.34 1.872.286 2.314.918.197.284.789 1.509 1.156 2.36.198.459.66 1.13 1.167 1.118a21.771 21.771 0 0 1 6.398-.977c2.136 0 4.272.326 6.398.977.507.012.969-.66 1.167-1.119.367-.85.96-2.075 1.157-2.359.44-.632 1.185-1.258 2.313-.918 1.765.53 1.632 2.98 1.448 3.886-.02.09.067.169.16.153.134-.022.333-.059.588-.106zm-15.772 15.172c.058-.346-.508-1.226-2.279-2.42a14.76 14.76 0 0 0 -4.06-1.883 3.329 3.329 0 0 0 -1.042-.15c-.643.024-1.26.24-1.8.622-.72.492-1.22 1.15-1.371 2-.154.85.087 1.637.593 2.343.375.54.879.951 1.475 1.19.326.13.68.188 1.032.21 1.498.091 3.013-.043 4.468-.403 2.08-.527 2.918-1.163 2.984-1.509zm13.567 1.702a3.267 3.267 0 0 0 1.474-1.19c.506-.706.748-1.492.593-2.342-.15-.85-.65-1.509-1.371-2.001a3.312 3.312 0 0 0 -1.8-.622 3.328 3.328 0 0 0 -1.042.15 14.755 14.755 0 0 0 -4.06 1.882c-1.77 1.195-2.337 2.074-2.279 2.421.066.346.904.982 2.984 1.509 1.455.36 2.97.494 4.468.403.353-.022.706-.08 1.033-.21z"/><path d="m9.285 42.643c0-6.272 8.977-11.357 20.052-11.357s20.053 5.085 20.053 11.357-8.978 11.357-20.053 11.357-20.052-5.084-20.052-11.357zm6.941-.707c.306 1.868 1.904 2.691 3.62 1.868a4.93 4.93 0 0 0 2.871-4.21c-.007-.963-.525-.593-1.165-.137-.856.61-1.929 1.376-2.29-.681-.63-3.596-3.372 1.16-3.036 3.16zm22.602 1.868c1.715.823 3.313 0 3.62-1.868.335-2-2.406-6.756-3.036-3.16-.361 2.057-1.435 1.291-2.29.68-.64-.456-1.158-.825-1.165.138a4.927 4.927 0 0 0 2.87 4.21z"/></g></svg>