<svg fill="none" height="54" width="169" xmlns="http://www.w3.org/2000/svg"><g fill="#cae9ff"><path clip-rule="evenodd" d="m42.206 4.03c3.2-.588 15.17-2.786 15.704.96.546 3.836-4.387 9.126-9.548 11.504-.272.125-.513.297-.755.47-.201.144-.402.288-.622.405-.812.435-1.296 1.52-1.177 2.499v13.706c-4.07-2.816-10.052-4.568-16.832-4.568s-12.762 1.752-16.832 4.568v-13.706c.119-.979-.366-2.064-1.178-2.499a5.723 5.723 0 0 1 -.62-.404c-.242-.173-.484-.346-.757-.471-5.161-2.378-10.093-7.668-9.548-11.504.534-3.746 12.507-1.548 15.705-.96.254.046.453.083.587.105.092.016.179-.062.16-.153-.184-.906-.317-3.356 1.448-3.886 1.128-.34 1.872.286 2.313.918.198.284.79 1.509 1.157 2.36.198.459.66 1.13 1.166 1.118a21.77 21.77 0 0 1 6.399-.977c2.136 0 4.272.326 6.398.977.507.012.968-.66 1.167-1.119.367-.85.959-2.075 1.156-2.359.442-.632 1.186-1.258 2.314-.918 1.764.53 1.631 2.98 1.447 3.886-.018.09.068.169.16.153.134-.022.334-.059.588-.106zm-15.772 15.172c.06-.346-.508-1.226-2.278-2.42a14.76 14.76 0 0 0 -4.06-1.883 3.329 3.329 0 0 0 -1.042-.15c-.643.024-1.26.24-1.8.622-.721.492-1.22 1.15-1.371 2-.155.85.086 1.637.593 2.343.374.54.878.951 1.474 1.19.327.13.68.188 1.032.21 1.499.091 3.013-.043 4.47-.403 2.078-.527 2.917-1.163 2.982-1.509zm13.567 1.702a3.267 3.267 0 0 0 1.475-1.19c.506-.706.747-1.492.593-2.342-.15-.85-.65-1.509-1.372-2.001a3.312 3.312 0 0 0 -1.8-.622 3.329 3.329 0 0 0 -1.042.15 14.755 14.755 0 0 0 -4.06 1.882c-1.77 1.195-2.336 2.074-2.278 2.421.066.346.904.982 2.983 1.509 1.456.36 2.97.494 4.47.403.351-.022.705-.08 1.031-.21z" fill-rule="evenodd"/><path clip-rule="evenodd" d="m8.924 42.643c0-6.272 8.977-11.357 20.052-11.357 11.074 0 20.052 5.085 20.052 11.357s-8.977 11.357-20.052 11.357-20.052-5.084-20.052-11.357zm6.94-.707c.307 1.868 1.905 2.691 3.62 1.868a4.93 4.93 0 0 0 2.872-4.21c-.008-.963-.526-.593-1.166-.137-.855.61-1.928 1.376-2.29-.681-.63-3.596-3.371 1.16-3.035 3.16zm22.602 1.868c1.716.823 3.314 0 3.62-1.868.336-2-2.405-6.756-3.036-3.16-.36 2.057-1.434 1.291-2.29.68-.639-.456-1.157-.825-1.164.138a4.927 4.927 0 0 0 2.87 4.21z" fill-rule="evenodd"/><path d="m70.695 11.915c.648-.552 1.758-.828 3.331-.828h13.66a2.847 2.847 0 0 0 2.852-2.843 2.848 2.848 0 0 0 -2.852-2.844h-13.426c-7.465 0-11.197 3.025-11.197 9.074v.207c0 2.964.91 5.2 2.734 6.708 1.823 1.508 4.644 2.262 8.463 2.262h13.427a2.847 2.847 0 0 0 2.852-2.843 2.848 2.848 0 0 0 -2.852-2.844h-13.66c-1.555 0-2.661-.276-3.318-.827-.657-.552-.985-1.379-.985-2.482v-.207c0-1.138.324-1.982.972-2.533zm44.995-6.438-3.248 5.61h1.631c1.572 0 2.683.277 3.331.828.648.552.972 1.396.972 2.533v.207c0 1.103-.329 1.93-.985 2.482-.657.552-1.763.827-3.318.827h-5.612l-3.292 5.688h8.671c3.818 0 6.639-.754 8.463-2.263 1.823-1.508 2.735-3.744 2.735-6.708v-.207c0-5.524-3.123-8.517-9.348-8.997zm-5.805 5.61 3.293-5.687h-8.383c-7.465 0-11.198 3.025-11.198 9.074v.207c0 2.964.911 5.2 2.735 6.708 1.464 1.212 3.584 1.928 6.336 2.166l3.237-5.591h-1.343c-1.555 0-2.662-.276-3.318-.827-.657-.552-.985-1.379-.985-2.482v-.207c0-1.138.324-1.982.972-2.533.648-.552 1.758-.828 3.331-.828m60.523-5.687c-1.089 0-2.106.54-2.714 1.44l-3.223 4.774c-1.229 1.82-3.873 1.936-5.257.23l-3.44-4.242a3.277 3.277 0 0 0 -5.087 0l-3.44 4.242c-1.384 1.706-4.028 1.59-5.257-.23l-3.223-4.774a3.274 3.274 0 0 0 -2.714-1.44c-2.631 0-4.185 2.94-2.699 5.105l8.05 11.727c1.24 1.806 3.877 1.906 5.251.198l4.024-5.001a3.277 3.277 0 0 1 5.103 0l4.024 5.002c1.374 1.707 4.011 1.607 5.251-.2l8.05-11.726c1.486-2.165-.068-5.105-2.699-5.105zm-102.023 43.2h2.178v-6.817h3.703c3.728 0 6.3-1.735 6.3-5.525 0-3.174-1.735-5.549-5.918-5.549h-6.265v17.891zm2.19-8.835v-7.038h3.827c2.411 0 3.888 1.218 3.888 3.482 0 2.043-1.23 3.556-4.233 3.556zm19.121-3.568c-1.66 0-3.076.837-3.987 2.288h-.049v-2.14h-2.042v12.255h2.042v-5.906c0-2.461 1.403-4.258 3.729-4.258.209 0 .516.013.812.037v-2.252c-.148-.024-.32-.024-.505-.024zm8.097 12.563c3.617 0 6.312-2.547 6.312-6.263 0-3.74-2.695-6.3-6.312-6.3-3.802 0-6.337 2.744-6.337 6.3 0 3.519 2.535 6.263 6.337 6.263zm0-1.87c-2.535 0-4.282-1.97-4.282-4.393 0-2.449 1.722-4.417 4.282-4.417 2.374 0 4.245 1.796 4.245 4.417 0 2.584-1.883 4.393-4.245 4.393zm12.797 1.87c1.452 0 2.301-.37 2.965-.75l-.541-1.785c-.579.332-1.342.628-2.068.628-1.156 0-1.501-.726-1.501-2.203v-6.534h4.061v-1.772h-4.061v-4.417l-2.042.222v4.195h-1.563v1.772h1.563v6.842c0 2.473 1.009 3.814 3.187 3.814zm10.729 0c3.618 0 6.313-2.547 6.313-6.263 0-3.74-2.695-6.3-6.313-6.3-3.802 0-6.337 2.744-6.337 6.3 0 3.519 2.535 6.263 6.337 6.263zm0-1.87c-2.534 0-4.282-1.97-4.282-4.393 0-2.449 1.723-4.417 4.282-4.417 2.375 0 4.245 1.796 4.245 4.417 0 2.584-1.882 4.393-4.245 4.393zm14.766 1.87c2.202 0 4.036-.898 5.069-2.08l-1.415-1.267c-.75.85-2.03 1.464-3.469 1.464-2.461 0-4.172-1.784-4.172-4.405 0-2.596 1.686-4.417 4.172-4.417 1.464 0 2.67.627 3.433 1.538l1.415-1.23c-1.206-1.428-3.114-2.178-4.947-2.178-3.605 0-6.14 2.596-6.14 6.312s2.535 6.263 6.066 6.263zm13.437 0c3.617 0 6.312-2.547 6.312-6.263 0-3.74-2.695-6.3-6.312-6.3-3.802 0-6.337 2.744-6.337 6.3 0 3.519 2.535 6.263 6.337 6.263zm0-1.87c-2.535 0-4.282-1.97-4.282-4.393 0-2.449 1.722-4.417 4.282-4.417 2.374 0 4.245 1.796 4.245 4.417 0 2.584-1.883 4.393-4.245 4.393zm9.634 1.71h2.031v-18.543h-2.031z"/></g></svg>