<svg fill="none" height="50" viewBox="0 0 50 50" width="50" xmlns="http://www.w3.org/2000/svg" xmlns:xlink="http://www.w3.org/1999/xlink"><linearGradient id="a" gradientUnits="userSpaceOnUse" x1="25" x2="25" y1="42" y2="8"><stop offset="0" stop-color="#071b3b"/><stop offset="1" stop-color="#052b65"/></linearGradient><rect fill="#cae9ff" height="50" rx="25" width="50"/><circle cx="25" cy="25" fill="url(#a)" r="17"/><path d="m24.4123 36v-22h1.4173v22zm3.7593-14.7383c-.0691-.6932-.3658-1.2318-.8901-1.6156-.5243-.3839-1.2358-.5758-2.1346-.5758-.6107 0-1.1263.086-1.5469.2578-.4206.1662-.7432.3982-.9679.6961-.2189.2979-.3284.636-.3284 1.0141-.0115.3151.0547.5901.1988.825.1498.2349.3543.4383.6135.6101.2593.1662.5589.3123.8988.4383.3399.1203.7029.2235 1.0889.3094l1.5901.3781c.772.1719 1.4807.4011 2.126.6875.6452.2865 1.2041.6388 1.6765 1.0571.4724.4182.8383.9109 1.0975 1.4781.265.5672.4004 1.2174.4062 1.9508-.0058 1.077-.2823 2.0109-.8296 2.8015-.5416.7849-1.3251 1.3951-2.3506 1.8305-1.0198.4297-2.2498.6445-3.6902.6445-1.4288 0-2.6732-.2177-3.7333-.6531-1.0543-.4354-1.8782-1.08-2.4716-1.9336-.5877-.8594-.8959-1.9221-.9247-3.1883h3.621c.0403.5901.2103 1.0828.5099 1.4781.3053.3896.7115.6847 1.2185.8852.5127.1948 1.0918.2922 1.737.2922.6338 0 1.184-.0917 1.6506-.275.4725-.1833.8383-.4383 1.0976-.7649.2592-.3265.3889-.7018.3889-1.1257 0-.3953-.1181-.7276-.3544-.9969-.2304-.2693-.5703-.4984-1.0197-.6875-.4436-.1891-.9881-.3609-1.6334-.5156l-1.9271-.4813c-1.4922-.3609-2.6704-.9252-3.5346-1.693-.8642-.7677-1.2934-1.8018-1.2876-3.1023-.0058-1.0656.2794-1.9966.8555-2.793.5819-.7963 1.3799-1.4179 2.3938-1.8648 1.014-.4469 2.1663-.6703 3.4568-.6703 1.3136 0 2.4601.2234 3.4395.6703.9852.4469 1.7515 1.0685 2.2988 1.8648.5473.7964.8296 1.7188.8469 2.7672z" fill="#8295b2"/></svg>