<svg fill="none" height="58" viewBox="0 0 156 58" width="156" xmlns="http://www.w3.org/2000/svg" xmlns:xlink="http://www.w3.org/1999/xlink"><linearGradient id="a"><stop offset="0" stop-color="#03b8ff"/><stop offset="1" stop-color="#fa52a0"/></linearGradient><linearGradient id="b" gradientUnits="userSpaceOnUse" x1="43.7924" x2="46.0963" xlink:href="#a" y1="5.3284" y2="13.2442"/><linearGradient id="c" gradientUnits="userSpaceOnUse" x1="45.6916" x2="47.9956" xlink:href="#a" y1="4.77544" y2="12.6913"/><linearGradient id="d" gradientUnits="userSpaceOnUse" x1="41.8991" x2="44.2031" xlink:href="#a" y1="5.87934" y2="13.7952"/><clipPath id="e"><path d="m1.87988.043243h26.0107v24.9964h-26.0107z"/></clipPath><clipPath id="f"><path d="m15.4072 18.1075h25.0102v24.9964h-25.0102z"/></clipPath><clipPath id="g"><path d="m.557617 32.0468h25.0102v24.9964h-25.0102z"/></clipPath><clipPath id="h"><path d="m32.3662.043243h26.0107v24.9964h-26.0107z"/></clipPath><clipPath id="i"><path d="m38.5303 27.032h26.0107v24.9964h-26.0107z"/></clipPath><linearGradient id="j" gradientUnits="userSpaceOnUse" x1="87" x2="406.558" y1="440" y2="103.193"><stop offset="0" stop-color="#ffe7e0"/><stop offset=".3438" stop-color="#f8dbf4"/><stop offset=".6875" stop-color="#c4ddff"/><stop offset="1" stop-color="#cae9ff"/></linearGradient><circle cx="135.569" cy="29.417" fill="#052b65" r="19.725"/><g fill="url(#j)" transform="matrix(.077053 0 0 .077053 115.844093 9.692055)"><path d="m255.639 305.398c-64.456 0-116.705 30.131-116.705 67.302 0 37.17 52.249 67.3 116.705 67.3s116.704-30.131 116.704-67.3c0-37.17-52.251-67.302-116.704-67.302zm-56.034 75.948c-11.83 5.782-22.847 0-24.96-13.111-2.316-14.046 16.585-47.428 20.935-22.185 4.347 25.241 23.699-10.056 23.818 5.741-.647 12.754-8.254 24.115-19.793 29.555zm144.104-13.111c-2.112 13.111-13.129 18.893-24.956 13.111-11.542-5.44-19.149-16.801-19.793-29.555.118-15.797 19.468 19.5 23.818-5.741 4.347-25.243 23.245 8.139 20.931 22.185z"/><path d="m424.031 149.568c-3.348-23.966-84.293-6.874-94.812-5.063-.54.092-1.045-.369-.934-.905 1.07-5.371 1.845-19.89-8.425-23.034-6.566-2.011-10.895 1.7-13.465 5.444-1.15 1.68-4.593 8.94-6.732 13.981-1.152 2.721-3.836 6.699-6.788 6.627-12.377-3.858-24.808-5.788-37.236-5.788-12.431 0-24.862 1.93-37.239 5.788-2.952.072-5.638-3.906-6.791-6.627-2.138-5.041-5.581-12.301-6.732-13.981-2.568-3.744-6.896-7.455-13.462-5.444-10.27 3.144-9.498 17.663-8.425 23.034.108.536-.396.997-.934.905-10.519-1.811-91.4642-18.903-94.8145 5.063-3.1779 22.732 25.5285 54.082 55.5655 68.171 2.9 1.36 5.206 3.658 8.015 5.188 4.727 2.577 7.548 9.008 6.855 14.808v83.713l10.967-6.3c16.716-9.59 34.165-14.077 47.597-16.74h.476c10.733-2.384 21.689-3.61 32.684-3.662h12.473c10.992.052 21.949 1.278 32.684 3.662h.474c13.434 2.663 30.881 7.15 47.601 16.74l10.967 6.3v-83.713c-.695-5.8 2.123-12.231 6.85-14.808 2.815-1.53 5.115-3.828 8.015-5.188 30.037-14.09 58.746-45.439 55.566-68.171zm-176.204 85.823c-.464 2.484-6.387 7.057-21.072 10.847-10.283 2.591-20.982 3.556-31.566 2.902-2.488-.157-4.981-.572-7.29-1.514-4.212-1.716-7.77-4.667-10.418-8.555-3.575-5.078-5.278-10.731-4.187-16.843 1.063-6.119 4.593-10.851 9.688-14.395 3.816-2.75 8.167-4.304 12.712-4.473 2.488-.09 4.976.369 7.364 1.078 10.169 3.007 19.896 7.583 28.673 13.539 12.506 8.59 16.51 14.918 16.096 17.414zm85.967 3.68c-2.645 3.888-6.206 6.839-10.419 8.555-2.305.942-4.801 1.357-7.287 1.514-10.584.654-21.285-.312-31.568-2.902-14.688-3.79-20.606-8.363-21.069-10.847-.415-2.497 3.587-8.824 16.095-17.414 8.777-5.957 18.501-10.532 28.673-13.539 2.388-.709 4.874-1.168 7.365-1.078 4.541.169 8.898 1.723 12.711 4.473 5.095 3.544 8.626 8.273 9.686 14.392 1.091 6.112-.613 11.768-4.187 16.846z"/></g><path d="m75.3876 28.3361c-.3905.3906-.3905 1.0237 0 1.4143l6.364 6.3639c.3905.3905 1.0237.3905 1.4142 0s.3905-1.0237 0-1.4142l-5.6569-5.6569 5.6569-5.6568c.3905-.3905.3905-1.0237 0-1.4142s-1.0237-.3905-1.4142 0zm28.1764 1.4143c.39-.3906.39-1.0237 0-1.4143l-6.364-6.3639c-.3905-.3905-1.0237-.3905-1.4142 0s-.3905 1.0237 0 1.4142l5.6572 5.6568-5.6572 5.6569c-.3905.3905-.3905 1.0237 0 1.4142s1.0237.3905 1.4142 0zm-27.4693.2928h26.7623v-2h-26.7623z" fill="#a2b8d1"/><g clip-path="url(#e)"><ellipse cx="15.0266" cy="12.5416" fill="#fff" rx="12.5051" ry="12.498"/><path d="m10.0495 14.2882.5029-4.0125-4.36197-3.21566 3.98547 1.43363.9413-1.53359 3.4369-2.26468 7.5757 4.43226.3926 6.76264-3.3751 4.9806-2.6677.4341 1.3796-2.6817v-2.5817l-1.0031-2.0162-1.0192-.7168-1.5679 1.7164v1.8163l-1.2236 1.2166-1.5544.1999-.6885.4141-1.12946-.3827-.47062-1.7992.84708-1.2651z" fill="#fff"/><path d="m17.0137 7.02583c-.831-.1828-1.74-.13424-1.74-.13424s-.2985 1.46525-2.1487 1.85084c.0134 0 2.4445.88258 3.8887-1.7166z" fill="#94a6c3"/><path d="m17.7677 20.3197c1.0031-.8339 1.7561-1.982 2.103-3.2814.0161-.0485.156-.1342.2501-.1999.156-.0999.3147-.1827.3442-.317.0619-.3826.0942-.7825.0942-1.1823 0-.1485-.1426-.2998-.2824-.4483-.1103-.1-.2205-.2171-.2205-.2999-.156-1.5165-.8149-2.933-1.8664-3.9639l-.1103.1171c1.0193 1.0167 1.6782 2.3989 1.8207 3.8639.0161.1342.1398.2656.2662.3998.1103.1.2367.2514.2367.317 0 .3827-.0323.7654-.0941 1.1481-.0162.0657-.156.1342-.2663.1999-.156.0828-.2985.1656-.3281.2999-.3765 1.4165-1.2397 2.6502-2.3854 3.4498.2044-.4655.8472-1.9819 1.1914-2.7502l-.0619-2.4646-1.9927-2.0476-1.1295.1657-1.2398 2.1333s.5809.7825-.2366 1.6992c-.7987.8996-1.428 1.0995-1.428 1.0995l-.5809-.3342c.1721-.2341.519-.5825.7853-.8167.4544-.3998.9089-.4341.9089-.8653.0189-.9025-.8928-.654-.8928-.654l-.3308.3341-.1398 1.2337-.6885.9168-.078-.0172-1.1295-.2656s.6912-.3827.8014-.8167c.1103-.417-.2205-1.7992-.2366-1.882.0161.0171.3308.2998.4706.7653.2501-.7339.5809-1.4336.675-1.4993s1.3635-.7825 1.3635-.7825l-.4222 1.1823.3146-.1827.753-1.9649s.7369-.3826 1.2855-.3826c.9869-.0172 2.4472-1.2995 1.7883-3.5984.1883.08282 3.4504 1.8163 4.0151 5.2148.4222 2.613-.9735 5.0605-3.3266 6.477z" fill="#94a6c3"/><path d="m14.0343 7.39154c.3602-.45128.2204-1.11679.2204-1.11679l-1.0511 1.65091c-.0161 0 .3737.01714.8307-.53412z" fill="#1b314f"/><path d="m10.5036 16.4046.1263-.6655s-.5188.9654-.5645 1.0997c-.0484.1513.0323.417.2339.3998.2043-.0171.4543-.3341.4543-.5655 0-.2999-.25-.2685-.25-.2685z" fill="#1b314f"/><path d="m19.8213 5.80924s.7853.03427 1.6001.13423c-1.8368-1.53359-3.5767-1.98196-4.9886-1.98196-1.9443 0-3.2621.85104-3.3428.89959l.6132-1.03381s-2.4472-.25131-3.3105 2.49886c-.2205-.58259-.42222-1.43363-.42222-1.43363s-1.27203 1.18517-.67501 3.14999c-1.46027-.56546-3.54446-1.35082-3.62514-1.36509-.11026-.01714-.14253.03427-.14253.03427s-.03227.04854.06185.13422c.17481.14565 3.46917 2.73018 4.19258 3.22999-.15598.5997-.15598.8824 0 1.1651.22057.3827.23397.5826.20439.8654-.03228.2827-.31465 2.733-.3765 3.0329-.06186.2998-.72073 1.3651-.69115 1.6821.03228.3169.43836 1.6649.80141 1.8163.26624.0999.92512.317 1.36342.317.156 0 .2985-.0343.3604-.1.2662-.2485.3442-.2999.5325-.2999h.0457c.078 0 .1721.0172.2824.0172.2501 0 .5809-.0514.8148-.2827.3442-.3656.9413-.8654 1.1295-1.0995.2367-.317.3604-.7483.2985-1.1824-.0484-.3998.156-.751.3927-1.0995.2985-.4169.8471-1.1651.8471-1.1651 1.0838.8624 1.7588 2.179 1.7588 3.644 0 2.5988-2.1326 4.6979-4.7681 4.6979-.4088 0-.7987-.0486-1.1914-.1485 1.2075.4483 2.2268.5997 3.0604.5997 1.7723 0 2.7135-.6826 2.7135-.6826s-.3281.4513-.8633.9653h.0162c2.934-.4341 4.362-2.9986 4.362-2.9986s-.1103.8339-.2501 1.3993c3.9021-3.1157 3.2432-7.0139 3.2271-7.1453.0323.0486.4249.5484.6266.8168.6293-6.86543-4.6578-9.08156-4.6578-9.08156zm-6.0078 10.96356c-.0619.0828-.3281.3341-.5164.5169-.1882.1828-.3926.3656-.5486.534-.0619.0657-.1882.1-.3765.1-.0619 0-.1264 0-.1721 0-.0323 0-.0619 0-.0941 0-.0323 0-.0484 0-.0619 0-.0484 0-.0941 0-.1425 0 .2366-.3341.9251-1.0995 1.1617-1.2651.2824-.1999.425-.3999.2501-.7483-.1721-.3512-.6266-.2656-.6266-.2656s.2663-.117.5029-.117c-.2985-.0829-.675 0-.8471.1827-.1882.1828-.156.8339-.2339 1.248-.078.4341-.3443.6512-.753 1.051-.2206.217-.3765.2827-.5029.2827-.2663-.0485-.5809-.1342-.8014-.217-.15602-.2171-.39268-.9339-.45453-1.2338.04572-.1656.23397-.5169.32809-.7168.18824-.3827.29854-.5997.33074-.7996.0619-.2827.2663-2.0334.3443-2.7645.2044.2828.4867.7511.4222 1.051.4545-.6826.1264-1.3508-.0323-1.6164-.1398-.2656-.3281-.7997-.1721-1.3651.156-.5655.7207-2.13332.7207-2.13332s.1883.35127.4545.28273c.2663-.06568 2.415-3.4984 2.415-3.4984s.5809 1.34796-.0323 2.33322c-.6266.98241-1.2397 1.16518-1.2397 1.16518s.8632.16564 1.6619-.45122c.3281.81677.6428 1.66495.6589 1.78201-.0484.1171-.675 1.7164-.7369 1.8163-.0322.0343-.2501.1-.4087.1343-.2663.0828-.4222.1342-.4868.1827-.1102.1-.6131 1.565-.8471 2.2819-.2824.0828-.5648.2513-.7691.5825.1102-.0828.4544-.1342.7072-.1656.2206-.0171.8929.3656 1.0677 1.0824v.0342c.0349.2628-.0431.5141-.1694.714zm-1.4738.1999c.1426-.217.1264-.5826.1426-.6997.0161-.1171.0457-.3341.1721-.3655.1264-.0343.4249.0171.4249.2484 0 .2171-.2205.2656-.3765.417-.113.1142-.3335.3655-.3631.3998zm6.258-3.1842c.1559-.8482.1721-1.5822.1264-2.1819.6104.8653.9869 1.9163 1.0972 2.9986.0161.1342.1398.2656.2662.3998.1103.1.2367.2342.2367.317 0 .3827-.0323.7654-.0941 1.1509-.0162.0486-.156.1343-.2663.1999-.156.0829-.2985.1657-.3281.2999-.3442 1.2823-1.0837 2.416-2.0707 3.2157 1.4576-1.6164 2.1622-4.2838 1.0327-6.3999zm-.987 6.5484c1.0192-.8339 1.8045-1.9991 2.1487-3.3156.0162-.0486.156-.1343.2501-.1999.156-.0829.3147-.1828.3443-.317.0618-.3827.0941-.7825.0941-1.1824 0-.1485-.1425-.2998-.2824-.4483-.078-.1-.2044-.2171-.2044-.2999-.1264-1.2166-.5809-2.3646-1.2854-3.3156-.3147-1.99911-1.5679-2.61597-1.6002-2.6331.0323.0514.8472 1.2994.2824 2.7644-.5809 1.4822-2.0707 1.2509-2.1971 1.2652-.1264 0-.6105.6654-1.2236 1.8991-.078-.0343-.4088-.1171-.7853-.0485.2824-.8339.7073-2.0163.7853-2.1162.0322-.0343.2662-.1.4249-.1485.2985-.0828.4383-.1342.4867-.1999.0323-.0514.1883-.4341.3443-.8339.1425 0 .5028-.0343.5324-.0514.0323-.0343.3308-.8482.3308-.9482 0-.0828-.6131-1.69919-.8471-2.31605.1102-.13423.2205-.29987.3281-.48264 3.2163.3684 5.7281 3.26709 5.7281 6.77979 0 2.6987-1.4898 5.0491-3.6547 6.1486z" fill="#1b314f"/><path d="m13.4364 11.3414c.2984-.3656.1425-1.0482-.4086-1.1653.1425-.34848.3441-1.04826.3441-1.04826s-1.5994 2.66486-1.7392 2.71626c-.1425.0514-.2823-.5341-.2823-.5341-.2984 1.2168.5027 1.3824.5968.9997.4382-.12 1.1908-.6198 1.4892-.9683z" fill="#1b314f"/><path d="m12.0723 11.9897.8145-1.4824s.4704.2513.2339.6512c-.2957.4656-1.0484.8312-1.0484.8312z" fill="#ffd923"/><g fill="#d82122"><path d="m22.1583 18.8546c-.2366.3342-.5027.6826-.8145 1.0167 2.0215-4.1324.094-7.9135.0161-8.062.1425.1514.2822.317.4086.4655 1.5511 1.8306 1.7392 4.5808.3898 6.5798z"/><path d="m24.0416 13.54c-.7073-2.0162-1.7104-3.73261-3.921-5.28047-2.1326-1.49931-4.4238-1.38223-4.5502-1.36509-.0162 0-.0323 0-.0323 0 .078-.03427.156-.05141.234-.06568.4867-.16564 1.1133-.29987 1.7426-.38269 1.6647-.25417 3.3428.34556 4.4884 1.63069.0161.01713.0161.01713.0323.03427 1.3016 1.46504 1.9766 3.29567 2.0062 5.42897z"/><path d="m19.6175 5.29255c-2.337-.46557-3.843-.23421-4.9268.19994-.0322-.13425-.1425-.39988-.2366-.61695-.3254.41701-.6724.91685-.8902 1.2339-.597.43415-.8471.85116-.8471.85116.3442-1.25104 1.35-2.18217 2.5736-2.41639.3443-.06569.7208-.09997 1.1295-.09997 1.0811.01714 2.1622.29991 3.1976.84831z"/><path d="m10.9749 8.49122c-1.83334-.0657-1.22313-2.33356-1.19087-2.46494 0 .01713.12366 1.78229 1.19087 2.46494z"/><path d="m12.7769 4.40982c-1.4113.89972-1.129 3.04762-1.129 3.04762-1.3495-2.17932 1.0188-2.99621 1.129-3.04762z"/></g><path d="m10.4579 9.09074c.0941.08283.1882.23421.078.45128-.0619.11711-.156.09997-.2985.03428-.1883-.09997-1.31777-.79975-2.33701-1.51667 1.16177.43415 2.33701.89972 2.52521.99969 0 0 .0162.01714.0323.03142z" fill="#fff"/></g><g clip-path="url(#f)"><path clip-rule="evenodd" d="m27.9123 18.1075c6.9054 0 12.5052 5.5967 12.5052 12.4983 0 6.9015-5.5998 12.4982-12.5052 12.4982-6.9053 0-12.5051-5.5967-12.5051-12.4982 0-6.9016 5.5998-12.4983 12.5051-12.4983z" fill="#000" fill-rule="evenodd"/><g fill="#fff"><path d="m28.0998 35.8307c-3.9991 0-7.2404-1.155-7.2404-2.7025 0-.8075.8828-1.535 2.2959-2.0475 1.103.7075 2.9537 1.07 5.0521 1.07 2.0483 0 3.8591-.4425 4.972-1.12 1.3331.5075 2.1609 1.215 2.1609 1.995 0 1.55-3.2413 2.805-7.2405 2.805z"/><path d="m28.1421 31.8036c-3.0312 0-5.4898-.95-5.4898-2.1225 0-.65.7579-1.2325 1.9458-1.62.8479.4425 2.1184.725 3.544.725s2.6961-.2825 3.5439-.725c1.1905.39 1.9458.97 1.9458 1.62.0025 1.1725-2.456 2.1225-5.4897 2.1225z"/><path d="m28.1222 28.4341c-2.3435 0-4.2443-.785-4.2443-1.75s1.9008-1.75 4.2443-1.75c2.3434 0 4.2442.785 4.2442 1.75s-1.9008 1.75-4.2442 1.75z"/></g></g><g clip-path="url(#g)"><path clip-rule="evenodd" d="m13.0627 32.0468c6.9054 0 12.5052 5.5967 12.5052 12.4982s-5.5998 12.4982-12.5052 12.4982c-6.90529 0-12.505083-5.5967-12.505083-12.4982s5.599793-12.4982 12.505083-12.4982z" fill="#2f6df3" fill-rule="evenodd"/><path d="m14.2897 37.6732 7.8591 13.6048h-15.71815z" fill="#fff"/><path d="m14.2896 40.9713 5.0012 8.6577h-10.00246z" fill="#2f6df3"/><path d="m8.9965 43.9597-3.5644-6.1703h7.1288z" fill="#fff"/></g><g clip-path="url(#h)"><ellipse cx="45.5129" cy="12.5416" fill="#0c0d1f" rx="12.5051" ry="12.498"/><path d="m53.0457 13.1759c.0305.1899.0359.3593.0202.5093l-10.8556-7.40798c.4453-.24561 1.1582-.33697 2.1426-.16269 1.3136.23256 2.9269.91693 4.5131 2.03602l.0073.00512.0075.00487c1.6141 1.0548 2.8371 2.31576 3.536 3.46496.3498.575.5571 1.1036.6289 1.5504zm-13.0559-3.8963.7811-1.13701c.1021.38083.2632.76871.4671 1.15043-.4318-.05116-.854-.05908-1.2482-.01342zm1.4817 1.0585c.1691.03.3432.0674.5215.1123.8001 1.0432 1.9267 2.0958 3.2919 3.0148 1.2934.9119 2.6276 1.5691 3.852 1.9429.1248.1752.2387.3484.3413.5189.3468.5764.5522 1.1013.623 1.5441.0338.2111.0363.3965.0128.5583l-10.8712-7.477c.4369-.2837 1.1782-.4003 2.2287-.2143zm6.1742 3.3867c-.5884-.2975-1.1906-.6578-1.7889-1.0799l.0001-.0001-.0092-.0062c-.6666-.4484-1.2663-.9262-1.79-1.4131.6321.3102 1.2818.6935 1.927 1.1487.6126.4321 1.1689.8878 1.661 1.3506zm2.093.8155c-.7857-1.0257-1.8733-2.0631-3.1776-2.9833-1.3349-.9418-2.7135-1.6123-3.9701-1.98001-.1032-.14557-.1986-.28983-.2857-.43222-.5181-.84627-.6991-1.53573-.6473-2.03376l10.8546 7.40729c-.4454.2456-1.1582.3369-2.1426.1626-.2036-.036-.4145-.0829-.6313-.1406zm1.2776 2.427c-.1045-.4075-.2783-.8289-.5082-1.2532.4633.0614.9171.0743 1.3389.0259zm-12.2671-5.5407 10.7676 7.4058c-.4479.2254-1.1441.304-2.0922.1361-1.3136-.2325-2.9269-.9169-4.5132-2.036-1.5932-1.124-2.8197-2.389-3.5195-3.5321-.4939-.8069-.6816-1.4715-.6427-1.9738z" fill="#fff" stroke="#fff"/><path d="m41.5139 6.45679 11.6297 7.93621-2.8761 4.2494-11.6298-7.9988z" fill="url(#b)"/><path d="m53.1436 14.3929c-1.0005 1.4373-4.3768.8749-7.5656-1.3747-3.2514-2.1872-5.0021-5.12425-4.0642-6.56152 1.0004-1.43728 4.3768-.87486 7.5656 1.37478 3.2513 2.12467 5.002 5.12424 4.0642 6.56144z" fill="url(#c)"/><path d="m50.2675 18.5798c-1.0004 1.4373-4.3768.8748-7.5656-1.3748s-5.002-5.1242-4.0016-6.624c1.0004-1.43724 4.3768-.87483 7.5656 1.3748 3.1888 2.2497 4.9395 5.1867 4.0016 6.624z" fill="url(#d)"/><path d="m53.1437 14.3929-2.8762 4.2494c-1.0004 1.4372-4.3768.8123-7.5656-1.3748-.6253-.4375-1.188-.8749-1.7507-1.3748.4377-.0625 1.0004-.3125 1.5631-.9374 1.0004-1.0623 1.5006-1.3123 1.9383-1.2498.4377 0 .9379.4375 1.7507 1.4998.8129 1.0623 1.9383 1.3748 2.6261.8124.0625-.0625.125-.0625.1876-.125.5627-.4374.7503-.6249 1.8132-2.6246.2501-.4999 1.1255-1.3123 2.3135-.9374.3126.8124.3126 1.4998 0 2.0622z" fill="#0e0f23"/><g fill="#fff"><path clip-rule="evenodd" d="m52.7057 14.1431c-.8754 1.2498-3.9392.6249-6.8779-1.4373-3.0012-2.0622-4.7519-4.68679-3.8765-5.9366.8753-1.2498 3.9391-.6249 6.8778 1.43728 2.9387 2.06222 4.6894 4.68672 3.8766 5.93662zm-2.7512-1.8748c-.4376.6249-1.9383.3125-3.4389-.6873-1.4381-.9999-2.3134-2.31219-1.8757-2.93709.4376-.6249 1.9382-.31245 3.4389.68739 1.438.9998 2.3134 2.3121 1.8757 2.937z" fill-rule="evenodd"/><path d="m41.2637 7.89396c0-.0625-.0625-.125-.125-.0625s-.125.0625-.125.125c.0625.1875.125.31249.125.43749 0 .0625.0625.125.125.0625.0625 0 .125-.0625.0625-.125 0-.12499 0-.24999-.0625-.43749z"/><path d="m41.5762 8.89381c0-.0625-.0625-.125-.125-.0625s-.0625.0625-.0625.125c.6878 1.56249 2.1258 3.24999 4.0016 4.49989.0625.0625.1251 0 .1876 0 .0625-.0625 0-.125 0-.1875-1.9383-1.2499-3.3139-2.8749-4.0017-4.37489z"/><path d="m49.1416 15.0179c-.0625 0-.125 0-.125.0625s0 .1249.0625.1249c.1875.0625.4375.125.625.1875.0625 0 .125 0 .125-.0625s0-.125-.0625-.125c-.1875-.0624-.4375-.1249-.625-.1874z"/><path d="m50.2676 15.2678c-.0625 0-.125.0625-.125.125s.0625.125.125.125c.5.0625 1.0625.125 1.5.0625.0625 0 .125-.0625.125-.125s-.0625-.125-.125-.125c-.5.0625-1 0-1.5-.0625z"/></g></g><g clip-path="url(#i)"><ellipse cx="51.7777" cy="39.5303" fill="#fff" rx="12.7503" ry="12.4982"/><g fill="#ff007a"><path d="m49.1068 32.6503c-.2117-.0297-.2218-.0396-.121-.0495.1916-.0297.6354.0099.948.0792.7261.1685 1.3817.6044 2.0776 1.3672l.1815.2081.2622-.0397c1.1194-.1783 2.2692-.0396 3.2272.3963.2622.1189.6757.3567.7262.4161.0201.0198.0504.1486.0706.2774.0706.4657.0403.8124-.111 1.0799-.0807.1486-.0807.1882-.0302.317.0403.0991.1613.1684.2723.1684.242 0 .4941-.3764.6152-.9015l.0504-.2081.0907.0991c.5144.5647.9178 1.3474.9783 1.9022l.0202.1486-.0908-.1288c-.1513-.2279-.2925-.3765-.4841-.5053-.3429-.2278-.7059-.2972-1.664-.3467-.8673-.0495-1.3615-.1189-1.8456-.2774-.827-.2675-1.2505-.6143-2.2288-1.8923-.4337-.5647-.706-.8718-.9783-1.1294-.595-.5647-1.19-.8619-1.9666-.9808z"/><path d="m56.6199 33.9086c.0202-.3765.0706-.6242.1815-.852.0404-.0892.0807-.1684.0908-.1684s-.0101.0693-.0404.1486c-.0806.2179-.0907.525-.0403.8718.0706.4458.1009.5053.5849.9907.2219.2279.4841.5152.585.6341l.1714.2179-.1714-.1585c-.2118-.1981-.6959-.5746-.8068-.6241-.0706-.0397-.0807-.0397-.1311.0099-.0404.0396-.0505.099-.0505.3863-.01.4459-.0706.7233-.2218 1.0106-.0807.1486-.0908.1188-.0202-.0496.0504-.1288.0605-.1882.0605-.6142 0-.8619-.1008-1.07-.716-1.4167-.1513-.0892-.4135-.218-.5648-.2873-.1614-.0694-.2824-.1288-.2723-.1288.0202-.0198.6152.1486.8471.2476.353.1387.4135.1487.4539.1387.0302-.0297.0504-.1089.0605-.3566z"/><path d="m49.5195 35.3847c-.4234-.5746-.6956-1.4662-.6351-2.13l.0201-.208.1008.0198c.1815.0297.494.1486.6452.2377.4033.2378.5847.5648.7561 1.3771.0504.2378.121.5152.1512.6044.0504.1486.242.4953.4032.7133.1109.1585.0404.2378-.2117.2179-.383-.0396-.8972-.3863-1.2298-.8322z"/><path d="m56.1052 39.6938c-1.9969-.7926-2.7029-1.4762-2.7029-2.6353 0-.1685.0101-.3072.0101-.3072.0101 0 .0807.0595.1715.1288.4034.3171.8572.4558 2.1178.6341.7363.109 1.1598.1882 1.5431.317 1.2203.3963 1.9767 1.2087 2.1582 2.3084.0504.317.0202.9213-.0605 1.2384-.0706.2477-.2723.7034-.3227.7133-.0101 0-.0303-.0495-.0303-.1288-.0202-.4161-.232-.8124-.5849-1.1195-.4236-.3567-.9682-.6242-2.2994-1.1492z"/><path d="m54.6934 40.0205c-.0202-.1486-.0706-.3369-.1009-.4161l-.0504-.1486.0907.109c.1311.1486.232.3269.3228.5746.0706.1882.0706.2477.0706.5548 0 .2972-.0101.3665-.0706.535-.1009.2674-.2219.4557-.4236.6637-.3631.3666-.8371.5647-1.5128.6539-.121.0099-.4639.0396-.7664.0594-.7564.0397-1.2607.1189-1.7145.2774-.0605.0199-.121.0397-.1311.0298-.0202-.0198.2924-.1982.5446-.3171.353-.1684.716-.2575 1.5127-.3962.3934-.0595.7968-.1387.8976-.1784.9984-.3071 1.4926-1.0699 1.3313-2.0012z"/><path d="m55.6121 41.6154c-.2622-.5647-.3227-1.0997-.1815-1.605.0201-.0495.0403-.099.0605-.099s.0807.0297.1412.0693c.121.0793.3731.218 1.0186.5647.8169.4359 1.2808.7728 1.6035 1.1592.2824.3368.4538.7232.5345 1.1987.0504.2675.0202.9115-.0504 1.179-.2219.8421-.7261 1.5158-1.4624 1.9021-.1109.0595-.2017.0991-.2117.0991-.0101 0 .0302-.0991.0907-.2179.2421-.5053.2723-.9907.0908-1.5356-.1109-.3369-.3429-.7431-.8068-1.4267-.5547-.7925-.6858-1.0006-.827-1.2879z"/><path d="m48.0966 44.6465c.7463-.6143 1.664-1.0502 2.5111-1.1889.3631-.0594.9682-.0396 1.301.0496.5345.1387 1.0186.4359 1.2708.8024.242.3567.3529.6638.4639 1.3474.0403.2675.0907.5449.1008.6043.0807.3567.2421.6341.4438.7827.3126.2279.8572.2378 1.3917.0396.0908-.0297.1715-.0594.1715-.0495.0201.0198-.2522.1981-.4337.2873-.2521.1288-.4538.1684-.7261.1684-.4841 0-.8976-.2477-1.2304-.743-.0706-.0991-.2118-.3864-.3328-.6539-.353-.8025-.5345-1.0402-.948-1.3077-.3631-.2279-.827-.2774-1.18-.109-.4639.218-.5849.8025-.2622 1.1591.1311.1486.3732.2675.5749.2972.3731.0496.6958-.2377.6958-.6043 0-.2378-.0907-.3765-.3328-.4854-.3227-.1387-.6757.0198-.6656.3269 0 .1288.0605.208.1916.2675.0807.0396.0807.0396.0202.0297-.2925-.0594-.3631-.4161-.1311-.6439.2824-.2774.8774-.1586 1.0791.2278.0807.1585.0908.4756.0202.6737-.1715.4359-.6556.6638-1.1497.535-.3329-.0892-.474-.1783-.8774-.5845-.706-.7133-.9783-.852-1.9868-1.0007l-.1916-.0297z"/><path clip-rule="evenodd" d="m43.6633 30.2315c2.3499 2.8034 5.1005 5.6382 5.282 5.8759.1513.1981.0908.3863-.1613.525-.1412.0793-.4337.1585-.5749.1585-.1614 0-.353-.0792-.4841-.208-.0907-.0892-.4841-.6538-1.3715-2.0109-.6757-1.0401-1.2506-1.9019-1.2607-1.9118-.0403-.0198-.0403-.0198 1.1901 2.1397.7765 1.357 1.0286 1.8424 1.0286 1.9019 0 .1287-.0403.1981-.2017.3764-.2723.2971-.3933.6339-.484 1.3372-.1009.7826-.3732 1.3373-1.1498 2.2784-.4538.5547-.5244.6537-.6353.8816-.1412.2773-.1815.4358-.2017.7924-.0202.3764.0202.6142.1311.9708.1008.317.2118.525.4841.9311.2319.3566.3731.6241.3731.7231 0 .0793.0202.0793.3833 0 .8673-.1981 1.5833-.5349 1.9766-.9509.2421-.2576.3026-.3962.3026-.7528 0-.2279-.0101-.2774-.0706-.4161-.1009-.2179-.2925-.3962-.706-.6736-.5446-.3665-.7765-.6637-.837-1.0599-.0504-.3368.0101-.5646.3126-1.1887.3127-.6438.3933-.9113.4438-1.5651.0302-.416.0806-.5844.2017-.7132.1311-.1387.242-.1882.5546-.2278.5144-.0694.8472-.1981 1.1094-.4458.232-.208.3328-.416.3429-.7231l.0101-.2278-.1311-.1387c-.474-.5349-4.6691-4.4045-4.6994-4.4045-.0101 0-1.3491-1.511-1.1575-1.2733zm2.2262 12.5623c.111-.1882.0505-.426-.1311-.5448-.1714-.109-.4336-.0595-.4336.0891 0 .0396.0201.0793.0807.0991.0907.0495.1008.099.0302.208-.0706.1089-.0706.208.0202.2773.1412.109.3328.0496.4336-.1287z" fill-rule="evenodd"/><path clip-rule="evenodd" d="m49.9731 37.5834c-.2419.0693-.4738.3269-.5443.5845-.0404.1585-.0202.4458.0504.535.1109.1387.2117.1783.4939.1783.5545 0 1.0283-.2377 1.0787-.5251.0504-.2377-.1613-.5647-.4537-.7133-.1512-.0792-.4637-.1089-.625-.0594zm.6452.4953c.0807-.1188.0504-.2476-.1008-.3368-.2722-.1684-.6855-.0297-.6855.2279 0 .1288.2117.2675.4133.2675.1311 0 .3125-.0793.373-.1586z" fill-rule="evenodd"/></g></g></svg>