<svg width="148" height="50" viewBox="0 0 148 50" fill="none" xmlns="http://www.w3.org/2000/svg">
<linearGradient id="a" gradientUnits="userSpaceOnUse" x1="87" x2="406.558" y1="440" y2="103.193">
  <stop offset="0" stop-color="#ffe7e0"></stop>
  <stop offset="0.3438" stop-color="#f8dbf4"></stop>
  <stop offset="0.6875" stop-color="#c4ddff"></stop>
  <stop offset="1" stop-color="#cae9ff"></stop>
</linearGradient>
<circle cx="127.602" cy="25.05" fill="#052b65" r="19.725" style=""></circle>
<g fill="url(#a)" transform="matrix(0.077053, 0, 0, 0.077053, 107.877045, 5.324955)" style="">
  <path d="m255.639 305.398c-64.456 0-116.705 30.131-116.705 67.302 0 37.17 52.249 67.3 116.705 67.3s116.704-30.131 116.704-67.3c0-37.17-52.251-67.302-116.704-67.302zm-56.034 75.948c-11.83 5.782-22.847 0-24.96-13.111-2.316-14.046 16.585-47.428 20.935-22.185 4.347 25.241 23.699-10.056 23.818 5.741-.647 12.754-8.254 24.115-19.793 29.555zm144.104-13.111c-2.112 13.111-13.129 18.893-24.956 13.111-11.542-5.44-19.149-16.801-19.793-29.555.118-15.797 19.468 19.5 23.818-5.741 4.347-25.243 23.245 8.139 20.931 22.185z"></path>
  <path d="m424.031 149.568c-3.348-23.966-84.293-6.874-94.812-5.063-.54.092-1.045-.369-.934-.905 1.07-5.371 1.845-19.89-8.425-23.034-6.566-2.011-10.895 1.7-13.465 5.444-1.15 1.68-4.593 8.94-6.732 13.981-1.152 2.721-3.836 6.699-6.788 6.627-12.377-3.858-24.808-5.788-37.236-5.788-12.431 0-24.862 1.93-37.239 5.788-2.952.072-5.638-3.906-6.791-6.627-2.138-5.041-5.581-12.301-6.732-13.981-2.568-3.744-6.896-7.455-13.462-5.444-10.27 3.144-9.498 17.663-8.425 23.034.108.536-.396.997-.934.905-10.519-1.811-91.4642-18.903-94.8145 5.063-3.1779 22.732 25.5285 54.082 55.5655 68.171 2.9 1.36 5.206 3.658 8.015 5.188 4.727 2.577 7.548 9.008 6.855 14.808v83.713l10.967-6.3c16.716-9.59 34.165-14.077 47.597-16.74h.476c10.733-2.384 21.689-3.61 32.684-3.662h12.473c10.992.052 21.949 1.278 32.684 3.662h.474c13.434 2.663 30.881 7.15 47.601 16.74l10.967 6.3v-83.713c-.695-5.8 2.123-12.231 6.85-14.808 2.815-1.53 5.115-3.828 8.015-5.188 30.037-14.09 58.746-45.439 55.566-68.171zm-176.204 85.823c-.464 2.484-6.387 7.057-21.072 10.847-10.283 2.591-20.982 3.556-31.566 2.902-2.488-.157-4.981-.572-7.29-1.514-4.212-1.716-7.77-4.667-10.418-8.555-3.575-5.078-5.278-10.731-4.187-16.843 1.063-6.119 4.593-10.851 9.688-14.395 3.816-2.75 8.167-4.304 12.712-4.473 2.488-.09 4.976.369 7.364 1.078 10.169 3.007 19.896 7.583 28.673 13.539 12.506 8.59 16.51 14.918 16.096 17.414zm85.967 3.68c-2.645 3.888-6.206 6.839-10.419 8.555-2.305.942-4.801 1.357-7.287 1.514-10.584.654-21.285-.312-31.568-2.902-14.688-3.79-20.606-8.363-21.069-10.847-.415-2.497 3.587-8.824 16.095-17.414 8.777-5.957 18.501-10.532 28.673-13.539 2.388-.709 4.874-1.168 7.365-1.078 4.541.169 8.898 1.723 12.711 4.473 5.095 3.544 8.626 8.273 9.686 14.392 1.091 6.112-.613 11.768-4.187 16.846z"></path>
</g><path d="M67.2167 24.3362C66.8262 24.7267 66.8262 25.3599 67.2167 25.7504L73.5807 32.1143C73.9712 32.5049 74.6044 32.5049 74.9949 32.1143C75.3854 31.7238 75.3854 31.0907 74.9949 30.7001L69.338 25.0433L74.9949 19.3864C75.3854 18.9959 75.3854 18.3627 74.9949 17.9722C74.6044 17.5817 73.9712 17.5817 73.5807 17.9722L67.2167 24.3362ZM95.3931 25.7504C95.7836 25.3599 95.7836 24.7267 95.3931 24.3362L89.0291 17.9722C88.6386 17.5817 88.0054 17.5817 87.6149 17.9722C87.2244 18.3627 87.2244 18.9959 87.6149 19.3864L93.2717 25.0433L87.6149 30.7001C87.2244 31.0907 87.2244 31.7238 87.6149 32.1143C88.0054 32.5049 88.6386 32.5049 89.0291 32.1143L95.3931 25.7504ZM67.9238 26.0433H94.686V24.0433H67.9238V26.0433Z" fill="#A2B8D1"/>
<g clip-path="url(#clip0_5286_194)">
<path d="M38.5068 36.3935C38.5068 28.8824 32.4179 22.7934 24.9067 22.7934C17.3956 22.7934 11.3066 28.8824 11.3066 36.3935C11.3066 43.9046 17.3956 49.9936 24.9067 49.9936C32.4179 49.9936 38.5068 43.9046 38.5068 36.3935Z" fill="url(#paint2_linear_5286_194)"/>
<g filter="url(#filter0_i_5286_194)">
<path fill-rule="evenodd" clip-rule="evenodd" d="M14.249 40.0993V36.3935C14.249 30.5074 19.0207 25.7357 24.9068 25.7357C27.81 25.7357 30.4422 26.8966 32.3644 28.7796L30.0987 30.1953C28.694 29.0175 26.8833 28.3083 24.9068 28.3083C20.4414 28.3083 16.8216 31.9281 16.8216 36.3935H19.3941L14.249 40.0993ZM19.6758 42.5587C21.0858 43.7563 22.912 44.4788 24.9068 44.4788C29.3721 44.4788 32.9921 40.8588 32.9921 36.3935H30.4195L35.5644 32.6266L35.5645 36.3935C35.5645 42.2796 30.7929 47.0514 24.9068 47.0514C21.9855 47.0514 19.3387 45.8759 17.4135 43.9723L19.6758 42.5587ZM28.9953 39.9308H26.0552L24.9068 38.3794L23.7584 39.9308H20.8184L23.482 36.4546L20.8183 32.8563H23.5746L24.9068 34.595L26.2391 32.8563H28.9954L26.3317 36.4546L28.9953 39.9308Z" fill="white"/>
</g>
</g>
<g clip-path="url(#clip1_5286_194)">
<path d="M38.3675 27.0154C45.802 27.0154 51.8288 20.9886 51.8288 13.5541C51.8288 6.11963 45.802 0.092804 38.3675 0.092804C30.9331 0.092804 24.9062 6.11963 24.9062 13.5541C24.9062 20.9886 30.9331 27.0154 38.3675 27.0154Z" fill="#FFF9D3"/>
<path d="M36.6804 11.692C36.5719 11.6552 36.4569 11.642 36.3429 11.6533C36.2289 11.6646 36.1187 11.7002 36.0196 11.7576L28.6691 16.0153C28.6664 16.0168 28.6637 16.0184 28.661 16.0201C28.289 16.2491 28.1702 16.6732 28.3653 17.0752C28.6087 17.5765 29.471 18.0484 30.5109 18.2495C30.8896 18.322 31.2744 18.3583 31.6599 18.3577C32.4878 18.3577 33.504 18.1948 34.6293 17.67C35.5034 17.2625 36.3345 16.3725 36.8526 15.2889C37.3985 14.1474 37.5066 12.9959 37.1493 12.1296C37.1068 12.0274 37.043 11.9356 36.9621 11.8601C36.8813 11.7846 36.7852 11.7273 36.6804 11.692Z" fill="#7FE6DB"/>
<path d="M48.0736 16.0202C48.0709 16.0185 48.0682 16.0169 48.0655 16.0153L40.7152 11.7576C40.6161 11.7002 40.5059 11.6646 40.3919 11.6533C40.2779 11.642 40.1628 11.6552 40.0544 11.692C39.9495 11.7273 39.8534 11.7846 39.7725 11.8601C39.6916 11.9356 39.6278 12.0275 39.5854 12.1297C39.228 12.9959 39.3358 14.1474 39.882 15.2889C40.4001 16.3724 41.2312 17.2625 42.105 17.6701C43.2305 18.1948 44.2466 18.3577 45.0744 18.3577C45.46 18.3583 45.8447 18.322 46.2234 18.2495C47.2634 18.0484 48.1256 17.5765 48.3689 17.0754C48.5644 16.6733 48.4457 16.2492 48.0736 16.0202Z" fill="#7FE6DB"/>
<path fill-rule="evenodd" clip-rule="evenodd" d="M35.3682 5.77241C35.3682 5.5782 35.5256 5.42075 35.7198 5.42075C36.3278 5.42075 36.9108 5.66227 37.3407 6.09214C37.7706 6.52202 38.0121 7.10505 38.0121 7.71299C38.0121 7.90721 37.8547 8.06466 37.6604 8.06466C37.4662 8.06466 37.3088 7.90721 37.3088 7.71299C37.3088 7.29159 37.1414 6.88745 36.8434 6.58946C36.5454 6.29149 36.1412 6.12408 35.7198 6.12408C35.5256 6.12408 35.3682 5.96663 35.3682 5.77241Z" fill="#475459"/>
<path fill-rule="evenodd" clip-rule="evenodd" d="M41.0608 6.12408C40.8521 6.12408 40.6455 6.16519 40.4527 6.24505C40.2599 6.32489 40.0848 6.44193 39.9372 6.58946C39.7897 6.73701 39.6727 6.91216 39.5928 7.10494C39.513 7.2977 39.4719 7.50431 39.4719 7.71296C39.4719 7.90721 39.3145 8.06466 39.1203 8.06466C38.926 8.06466 38.7686 7.90721 38.7686 7.71299C38.7686 7.412 38.8278 7.11392 38.943 6.8358C39.0582 6.55769 39.2271 6.305 39.4399 6.09214C39.6528 5.87928 39.9054 5.71044 40.1836 5.59525C40.4616 5.48005 40.7597 5.42075 41.0608 5.42075C41.255 5.42075 41.4124 5.5782 41.4124 5.77241C41.4124 5.96663 41.255 6.12408 41.0608 6.12408Z" fill="#475459"/>
<path d="M41.8343 17.7345H34.2373L37.6884 19.7262C37.8948 19.8458 38.1291 19.909 38.3677 19.9091C38.6062 19.9092 38.8406 19.8464 39.0472 19.7269L42.4997 17.7344L41.8343 17.7345Z" fill="#475459"/>
<path d="M42.8998 13.3356H33.4844V15.6182H43.2515V13.3356H42.8998Z" fill="#475459"/>
<path d="M42.5737 11.2686L42.4884 11.2194H34.2497L34.164 11.2689C33.958 11.3882 33.7868 11.5593 33.6676 11.7654C33.5483 11.9714 33.4852 12.205 33.4844 12.4431V13.3357H43.2515V12.4432C43.2506 12.2054 43.1876 11.9718 43.0688 11.7658C42.9499 11.5598 42.7792 11.3884 42.5737 11.2686Z" fill="#FFDD0F"/>
<path d="M42.8998 15.6182H33.4844V16.5153C33.4849 16.7538 33.548 16.9879 33.6673 17.1944C33.7867 17.4009 33.958 17.5726 34.1644 17.6922L34.2379 17.7347H42.5003L42.5753 17.6914C42.7806 17.5712 42.9509 17.3995 43.0695 17.1932C43.1881 16.987 43.2507 16.7533 43.2513 16.5155V15.6184L42.8998 15.6182Z" fill="#FFDD0F"/>
<path d="M39.0476 9.23385C38.8413 9.11434 38.6071 9.05139 38.3687 9.05133C38.1303 9.0513 37.8961 9.11417 37.6898 9.23363L34.249 11.2194H42.488L39.0476 9.23385Z" fill="#475459"/>
</g>
<g clip-path="url(#clip2_5286_194)">
<circle cx="13.353" cy="13.5554" r="13.3334" fill="#F1E3D6"/>
<path d="M13.3902 4.99852C13.6176 4.82498 13.7868 4.74782 14.1367 4.65835C14.736 4.50495 15.6769 4.87216 16.0181 5.39266C16.1393 5.57759 16.1658 5.58864 16.5509 5.61378C17.4954 5.67546 18.1729 6.35448 18.3188 7.38552L18.3836 7.84439L18.816 8.16983C23.2424 11.5015 23.5735 18.0727 19.4526 20.8076C15.4564 23.4597 8.49599 22.4006 5.66242 18.7091C2.80676 14.9889 4.84992 9.18114 9.7592 7.0637C10.4341 6.77256 10.4463 6.76398 10.5149 6.53164C10.8194 5.50037 11.9246 4.85611 12.9184 5.13051C13.1228 5.1869 13.1553 5.17781 13.3902 4.99852Z" fill="#FBF9F0"/>
<path d="M16.8972 21.994C10.136 23.3005 5.94333 19.341 4.7998 17.1261C8.18208 20.4128 11.7266 21.8198 16.0653 21.032C20.404 20.2442 21.4869 15.8943 21.8931 12.1475C22.7935 15.3134 22.9098 20.8321 16.8972 21.994Z" fill="#E2D2C9"/>
<path d="M14.07 4.65262C13.8221 4.71674 13.403 4.93243 13.2437 5.07816C13.1316 5.18309 13.0902 5.18892 12.925 5.13063C12.624 5.0257 12.0279 5.05484 11.6678 5.18309C11.1012 5.39295 10.6055 5.93508 10.4225 6.54134C10.3517 6.78034 10.3399 6.792 9.74966 7.031C7.18226 8.07446 5.43525 9.89906 4.58535 12.4173C4.23713 13.455 4.1663 13.8922 4.1722 15.0347C4.1722 15.95 4.18991 16.1132 4.33156 16.632C4.86275 18.579 6.29105 20.1588 8.49252 21.243C11.6029 22.7762 15.6871 22.9044 18.5851 21.5636C21.3413 20.287 22.7873 17.6929 22.4981 14.5276C22.3506 12.8604 21.9492 11.7003 21.0639 10.3829C20.58 9.66588 19.5294 8.59328 18.8625 8.13276L18.4493 7.85295L18.4375 7.51484C18.4198 7.04849 18.225 6.58214 17.9063 6.23238C17.5404 5.83015 17.145 5.63778 16.6197 5.60281C16.2242 5.57949 16.1947 5.56783 16.0708 5.38129C15.9232 5.15977 15.5455 4.8683 15.2327 4.73423C14.9848 4.63513 14.3356 4.58849 14.07 4.65262ZM15.0851 5.29385C15.215 5.35214 15.4275 5.50954 15.5514 5.63778L15.7816 5.87679L15.5455 6.18574C15.3153 6.47721 15.1146 6.82115 15.1146 6.90859C15.1146 6.9319 15.2504 6.80949 15.4157 6.64627C15.5809 6.47721 15.7875 6.31399 15.876 6.27901C16.7731 5.92342 17.6584 6.38977 17.8886 7.34579C17.989 7.75968 17.9594 7.80048 17.5994 7.74219C17.4283 7.71887 17.1804 7.71887 17.0446 7.74219C16.8617 7.78299 16.8381 7.79465 16.9561 7.80048C17.5168 7.8238 18.526 8.48835 19.5707 9.52598C20.4029 10.3421 20.7216 10.7735 21.182 11.6828C22.0319 13.3675 22.2503 15.5127 21.7486 17.2441C20.9046 20.1646 18.0126 21.9251 14.0523 21.9251C10.6409 21.9309 7.47737 20.5901 5.83659 18.4566C5.41754 17.9086 5.09883 17.2674 4.86865 16.5212C4.7211 16.0374 4.70339 15.915 4.70339 15.0056C4.69749 14.1137 4.7152 13.9505 4.85685 13.3909C5.26999 11.7819 5.91922 10.5986 6.97569 9.52598C7.64262 8.84977 8.24464 8.39508 9.04732 7.98119C9.58441 7.70138 10.4166 7.33996 10.5169 7.33996C10.5464 7.33996 10.6055 7.41574 10.6586 7.51484C10.7707 7.73053 11.0835 8.08029 11.2252 8.15607C11.296 8.19688 11.2724 8.1211 11.1248 7.88209C10.7943 7.33413 10.7884 6.91442 11.1012 6.36645C11.4318 5.78935 12.1341 5.49205 12.7597 5.66693C12.9132 5.70774 12.9132 5.71356 12.9132 6.24404C12.9073 6.56465 12.9368 6.83281 12.9781 6.90276C13.0371 7.00186 13.043 6.98437 13.0489 6.75119C13.0489 6.37228 13.1906 5.94674 13.403 5.69608C13.7926 5.22973 14.554 5.04902 15.0851 5.29385Z" fill="#59251B"/>
<path d="M12.8717 8.77963C12.8717 9.04195 12.6828 9.84058 12.5471 10.167C12.488 10.2953 12.37 10.511 12.2756 10.645C12.0749 10.9423 12.1634 10.9715 12.4703 10.7208C12.8008 10.4527 13.0074 9.98631 13.0369 9.43835C13.0664 8.94285 13.0192 8.56394 12.9307 8.56394C12.8953 8.56394 12.8717 8.66304 12.8717 8.77963Z" fill="#59251B"/>
<path d="M12.3701 9.15266C12.2402 9.34503 12.0041 9.62484 11.8448 9.76475C11.6618 9.92797 11.5969 10.0212 11.6559 10.0212C11.9038 10.0212 12.2993 9.6948 12.4763 9.35086C12.5589 9.18181 12.6652 8.79707 12.6239 8.79707C12.6121 8.79707 12.4999 8.96029 12.3701 9.15266Z" fill="#59251B"/>
<path d="M13.7278 9.23455C13.8045 9.84664 14.1586 10.313 14.5541 10.313C14.7016 10.313 14.7016 10.3013 14.3947 9.96323C14.2236 9.77086 13.9934 9.4619 13.8872 9.28119L13.6924 8.94308L13.7278 9.23455Z" fill="#59251B"/>
<path d="M8.29769 13.2509C8.0439 13.3617 7.7547 13.7056 7.67798 13.9971C7.43009 14.8948 8.26818 15.6526 9.11808 15.3029C9.7378 15.0464 9.96798 14.102 9.53713 13.5424C9.27154 13.1985 8.71674 13.0702 8.29769 13.2509ZM9.1712 13.4142C9.47811 13.5716 9.53713 13.898 9.30105 14.1312C8.91741 14.5159 8.3095 14.0496 8.56919 13.5716C8.67543 13.3734 8.95282 13.2976 9.1712 13.4142Z" fill="#59251B"/>
<path d="M14.7432 13.6998C14.6251 13.7639 14.454 13.9213 14.3596 14.0554C14.2238 14.2594 14.2002 14.3585 14.2002 14.6908C14.2002 15.0347 14.2238 15.1163 14.3773 15.3379C14.8435 15.9908 15.7938 16.0082 16.2246 15.367C16.3604 15.1688 16.384 15.0639 16.384 14.7374C16.384 14.3935 16.3604 14.3119 16.2069 14.0904C15.8587 13.6007 15.2449 13.4375 14.7432 13.6998ZM15.4987 13.898C15.9295 14.3236 15.2803 14.9706 14.8376 14.5567C14.6606 14.3935 14.6547 14.0729 14.8317 13.8863C15.0088 13.6998 15.3098 13.7056 15.4987 13.898Z" fill="#59251B"/>
<path d="M11.3082 15.5592C11.3259 15.5883 11.4085 15.6175 11.4853 15.6175C11.562 15.6175 11.6446 15.5883 11.6623 15.5592C11.6859 15.5242 11.6151 15.5009 11.4853 15.5009C11.3554 15.5009 11.2846 15.5242 11.3082 15.5592Z" fill="#59251B"/>
<path fill-rule="evenodd" clip-rule="evenodd" d="M11.9977 17.886C11.9768 17.8911 11.9517 17.9031 11.9418 17.9127C11.9319 17.9223 11.8893 17.9302 11.8471 17.9303C11.8049 17.9304 11.7458 17.9435 11.7158 17.9595C11.6858 17.9754 11.6284 17.9938 11.5883 18.0003C11.5483 18.0069 11.5057 18.0242 11.4938 18.0388C11.482 18.0534 11.4538 18.0654 11.4314 18.0654C11.409 18.0654 11.3738 18.0771 11.3532 18.0914C11.3327 18.1057 11.2925 18.1233 11.2638 18.1304C11.2351 18.1375 11.2117 18.1518 11.2117 18.1623C11.2117 18.1727 11.1958 18.1812 11.1764 18.1812C11.157 18.1812 11.1207 18.1964 11.0957 18.215C11.0342 18.2607 10.9807 18.2947 10.9466 18.3098C10.7102 18.414 10.7105 18.6028 10.9477 18.9825C10.9676 19.0144 10.9929 19.0578 11.004 19.079C11.1808 19.4201 11.563 19.7576 11.8556 19.8312C11.8817 19.8377 11.9332 19.8523 11.9702 19.8635C12.0209 19.8789 12.0878 19.8763 12.2423 19.853C12.4237 19.8255 12.4852 19.8061 12.5942 19.7424C12.6098 19.7332 12.6427 19.717 12.6673 19.7062C12.7272 19.6799 13.0677 19.3277 13.0677 19.292C13.0677 19.286 13.0954 19.2314 13.1292 19.1705C13.1917 19.0581 13.2247 18.979 13.26 18.857C13.2707 18.8198 13.2873 18.7812 13.2967 18.7711C13.3061 18.761 13.3139 18.7275 13.3139 18.6967C13.3139 18.666 13.3256 18.6134 13.34 18.5799C13.3783 18.4906 13.4494 18.0936 13.4364 18.0412C13.4215 17.9803 13.3679 17.9496 13.2519 17.9356C13.1984 17.9292 13.1331 17.9123 13.1065 17.8982C13.0591 17.8729 12.0942 17.8624 11.9977 17.886Z" fill="#FC8484"/>
<path d="M9.50781 16.288C9.50781 16.4046 9.77341 16.6669 9.96817 16.7427L10.1984 16.8359L10.3046 17.3781C10.7 19.4125 11.6267 20.3627 12.6831 19.8264C13.1907 19.5699 13.5094 18.7888 13.5625 17.6754C13.592 17.0749 13.6157 16.9583 13.6983 16.9292C13.7514 16.9117 13.8694 16.8243 13.958 16.731L14.1232 16.5619L13.8399 16.7019C13.3737 16.935 12.8189 16.8826 11.9277 16.527L11.5381 16.3754L11.2076 16.4862C10.4817 16.731 10.0449 16.7135 9.71439 16.422C9.60225 16.3288 9.50781 16.2646 9.50781 16.288ZM13.1435 18.0718C13.2851 18.1067 13.4032 18.1534 13.4032 18.1767C13.3973 18.3108 13.2084 18.9811 13.1317 19.1327C12.8012 19.7739 12.1755 20.0013 11.6149 19.6807C11.3257 19.5116 11.1132 19.2609 10.9184 18.8587C10.7827 18.5964 10.7827 18.5906 10.9007 18.5031C11.4437 18.0951 12.447 17.9027 13.1435 18.0718Z" fill="#59251B"/>
</g>
<defs>
<filter id="filter0_i_5286_194" x="14.249" y="25.7357" width="21.3154" height="21.3156" filterUnits="userSpaceOnUse" color-interpolation-filters="sRGB">
<feFlood flood-opacity="0" result="BackgroundImageFix"/>
<feBlend mode="normal" in="SourceGraphic" in2="BackgroundImageFix" result="shape"/>
<feColorMatrix in="SourceAlpha" type="matrix" values="0 0 0 0 0 0 0 0 0 0 0 0 0 0 0 0 0 0 127 0" result="hardAlpha"/>
<feOffset/>
<feGaussianBlur stdDeviation="0.5"/>
<feComposite in2="hardAlpha" operator="arithmetic" k2="-1" k3="1"/>
<feColorMatrix type="matrix" values="0 0 0 0 0.14902 0 0 0 0 0.196078 0 0 0 0 0.219608 0 0 0 0.25 0"/>
<feBlend mode="normal" in2="shape" result="effect1_innerShadow_5286_194"/>
</filter>
<linearGradient id="paint0_linear_5286_194" x1="108.285" y1="31.0424" x2="145.662" y2="17.5702" gradientUnits="userSpaceOnUse">
<stop stop-color="#36373D"/>
<stop offset="0.359375" stop-color="#101015"/>
<stop offset="1" stop-color="#0E0501"/>
</linearGradient>
<linearGradient id="paint1_linear_5286_194" x1="113.213" y1="26.4028" x2="142.365" y2="26.4028" gradientUnits="userSpaceOnUse">
<stop offset="0.442708" stop-color="white"/>
<stop offset="0.505208" stop-color="#8D9ACA"/>
<stop offset="1" stop-color="#FF784A"/>
</linearGradient>
<linearGradient id="paint2_linear_5286_194" x1="24.9067" y1="22.7934" x2="24.9067" y2="49.9936" gradientUnits="userSpaceOnUse">
<stop stop-color="#14248A"/>
<stop offset="1" stop-color="#6200EA"/>
</linearGradient>
<clipPath id="clip0_5286_194">
<rect width="27.2002" height="27.2002" fill="white" transform="translate(11.3066 22.7934)"/>
</clipPath>
<clipPath id="clip1_5286_194">
<rect width="27.2002" height="27.2002" fill="white" transform="translate(24.9062 0.092804)"/>
</clipPath>
<clipPath id="clip2_5286_194">
<rect width="27.2002" height="27.2002" fill="white" transform="translate(0 0.092804)"/>
</clipPath>
</defs>
</svg>
