<svg fill="none" height="50" viewBox="0 0 148 50" width="148" xmlns="http://www.w3.org/2000/svg" xmlns:xlink="http://www.w3.org/1999/xlink"><filter id="a" color-interpolation-filters="sRGB" filterUnits="userSpaceOnUse" height="21.3156" width="21.3154" x="14.249" y="25.7357"><feFlood flood-opacity="0" result="BackgroundImageFix"/><feBlend in="SourceGraphic" in2="BackgroundImageFix" mode="normal" result="shape"/><feColorMatrix in="SourceAlpha" result="hardAlpha" type="matrix" values="0 0 0 0 0 0 0 0 0 0 0 0 0 0 0 0 0 0 127 0"/><feOffset/><feGaussianBlur stdDeviation=".5"/><feComposite in2="hardAlpha" k2="-1" k3="1" operator="arithmetic"/><feColorMatrix type="matrix" values="0 0 0 0 0.14902 0 0 0 0 0.196078 0 0 0 0 0.219608 0 0 0 0.25 0"/><feBlend in2="shape" mode="normal" result="effect1_innerShadow_5286_194"/></filter><linearGradient id="b" gradientUnits="userSpaceOnUse" x1="24.9067" x2="24.9067" y1="22.7934" y2="49.9936"><stop offset="0" stop-color="#14248a"/><stop offset="1" stop-color="#6200ea"/></linearGradient><clipPath id="c"><path d="m11.3066 22.7934h27.2002v27.2002h-27.2002z"/></clipPath><clipPath id="d"><path d="m24.9062.092804h27.2002v27.2002h-27.2002z"/></clipPath><clipPath id="e"><path d="m0 .092804h27.2002v27.2002h-27.2002z"/></clipPath><linearGradient id="f" gradientUnits="userSpaceOnUse" x1="87" x2="406.558" y1="440" y2="103.193"><stop offset="0" stop-color="#ffe7e0"/><stop offset=".3438" stop-color="#f8dbf4"/><stop offset=".6875" stop-color="#c4ddff"/><stop offset="1" stop-color="#cae9ff"/></linearGradient><circle cx="127.602" cy="25.05" fill="#052b65" r="19.725"/><g fill="url(#f)" transform="matrix(.077053 0 0 .077053 107.877045 5.324955)"><path d="m255.639 305.398c-64.456 0-116.705 30.131-116.705 67.302 0 37.17 52.249 67.3 116.705 67.3s116.704-30.131 116.704-67.3c0-37.17-52.251-67.302-116.704-67.302zm-56.034 75.948c-11.83 5.782-22.847 0-24.96-13.111-2.316-14.046 16.585-47.428 20.935-22.185 4.347 25.241 23.699-10.056 23.818 5.741-.647 12.754-8.254 24.115-19.793 29.555zm144.104-13.111c-2.112 13.111-13.129 18.893-24.956 13.111-11.542-5.44-19.149-16.801-19.793-29.555.118-15.797 19.468 19.5 23.818-5.741 4.347-25.243 23.245 8.139 20.931 22.185z"/><path d="m424.031 149.568c-3.348-23.966-84.293-6.874-94.812-5.063-.54.092-1.045-.369-.934-.905 1.07-5.371 1.845-19.89-8.425-23.034-6.566-2.011-10.895 1.7-13.465 5.444-1.15 1.68-4.593 8.94-6.732 13.981-1.152 2.721-3.836 6.699-6.788 6.627-12.377-3.858-24.808-5.788-37.236-5.788-12.431 0-24.862 1.93-37.239 5.788-2.952.072-5.638-3.906-6.791-6.627-2.138-5.041-5.581-12.301-6.732-13.981-2.568-3.744-6.896-7.455-13.462-5.444-10.27 3.144-9.498 17.663-8.425 23.034.108.536-.396.997-.934.905-10.519-1.811-91.4642-18.903-94.8145 5.063-3.1779 22.732 25.5285 54.082 55.5655 68.171 2.9 1.36 5.206 3.658 8.015 5.188 4.727 2.577 7.548 9.008 6.855 14.808v83.713l10.967-6.3c16.716-9.59 34.165-14.077 47.597-16.74h.476c10.733-2.384 21.689-3.61 32.684-3.662h12.473c10.992.052 21.949 1.278 32.684 3.662h.474c13.434 2.663 30.881 7.15 47.601 16.74l10.967 6.3v-83.713c-.695-5.8 2.123-12.231 6.85-14.808 2.815-1.53 5.115-3.828 8.015-5.188 30.037-14.09 58.746-45.439 55.566-68.171zm-176.204 85.823c-.464 2.484-6.387 7.057-21.072 10.847-10.283 2.591-20.982 3.556-31.566 2.902-2.488-.157-4.981-.572-7.29-1.514-4.212-1.716-7.77-4.667-10.418-8.555-3.575-5.078-5.278-10.731-4.187-16.843 1.063-6.119 4.593-10.851 9.688-14.395 3.816-2.75 8.167-4.304 12.712-4.473 2.488-.09 4.976.369 7.364 1.078 10.169 3.007 19.896 7.583 28.673 13.539 12.506 8.59 16.51 14.918 16.096 17.414zm85.967 3.68c-2.645 3.888-6.206 6.839-10.419 8.555-2.305.942-4.801 1.357-7.287 1.514-10.584.654-21.285-.312-31.568-2.902-14.688-3.79-20.606-8.363-21.069-10.847-.415-2.497 3.587-8.824 16.095-17.414 8.777-5.957 18.501-10.532 28.673-13.539 2.388-.709 4.874-1.168 7.365-1.078 4.541.169 8.898 1.723 12.711 4.473 5.095 3.544 8.626 8.273 9.686 14.392 1.091 6.112-.613 11.768-4.187 16.846z"/></g><path d="m67.2167 24.3362c-.3905.3905-.3905 1.0237 0 1.4142l6.364 6.3639c.3905.3906 1.0237.3906 1.4142 0 .3905-.3905.3905-1.0236 0-1.4142l-5.6569-5.6568 5.6569-5.6569c.3905-.3905.3905-1.0237 0-1.4142s-1.0237-.3905-1.4142 0zm28.1764 1.4142c.3905-.3905.3905-1.0237 0-1.4142l-6.364-6.364c-.3905-.3905-1.0237-.3905-1.4142 0s-.3905 1.0237 0 1.4142l5.6568 5.6569-5.6568 5.6568c-.3905.3906-.3905 1.0237 0 1.4142.3905.3906 1.0237.3906 1.4142 0zm-27.4693.2929h26.7622v-2h-26.7622z" fill="#a2b8d1"/><g clip-path="url(#c)"><path d="m38.5068 36.3935c0-7.5111-6.0889-13.6001-13.6001-13.6001-7.5111 0-13.6001 6.089-13.6001 13.6001s6.089 13.6001 13.6001 13.6001c7.5112 0 13.6001-6.089 13.6001-13.6001z" fill="url(#b)"/><g filter="url(#a)"><path clip-rule="evenodd" d="m14.249 40.0993v-3.7058c0-5.8861 4.7717-10.6578 10.6578-10.6578 2.9032 0 5.5354 1.1609 7.4576 3.0439l-2.2657 1.4157c-1.4047-1.1778-3.2154-1.887-5.1919-1.887-4.4654 0-8.0852 3.6198-8.0852 8.0852h2.5725zm5.4268 2.4594c1.41 1.1976 3.2362 1.9201 5.231 1.9201 4.4653 0 8.0853-3.62 8.0853-8.0853h-2.5726l5.1449-3.7669.0001 3.7669c0 5.8861-4.7716 10.6579-10.6577 10.6579-2.9213 0-5.5681-1.1755-7.4933-3.0791zm9.3195-2.6279h-2.9401l-1.1484-1.5514-1.1484 1.5514h-2.94l2.6636-3.4762-2.6637-3.5983h2.7563l1.3322 1.7387 1.3323-1.7387h2.7563l-2.6637 3.5983z" fill="#fff" fill-rule="evenodd"/></g></g><g clip-path="url(#d)"><path d="m38.3675 27.0154c7.4345 0 13.4613-6.0268 13.4613-13.4613 0-7.43447-6.0268-13.461296-13.4613-13.461296-7.4344 0-13.4613 6.026826-13.4613 13.461296 0 7.4345 6.0269 13.4613 13.4613 13.4613z" fill="#fff9d3"/><path d="m36.6804 11.692c-.1085-.0368-.2235-.05-.3375-.0387s-.2242.0469-.3233.1043l-7.3505 4.2577c-.0027.0015-.0054.0031-.0081.0048-.372.229-.4908.6531-.2957 1.0551.2434.5013 1.1057.9732 2.1456 1.1743.3787.0725.7635.1088 1.149.1082.8279 0 1.8441-.1629 2.9694-.6877.8741-.4075 1.7052-1.2975 2.2233-2.3811.5459-1.1415.654-2.293.2967-3.1593-.0425-.1022-.1063-.194-.1872-.2695-.0808-.0755-.1769-.1328-.2817-.1681z" fill="#7fe6db"/><path d="m48.0736 16.0202c-.0027-.0017-.0054-.0033-.0081-.0049l-7.3503-4.2577c-.0991-.0574-.2093-.093-.3233-.1043s-.2291.0019-.3375.0387c-.1049.0353-.201.0926-.2819.1681s-.1447.1674-.1871.2696c-.3574.8662-.2496 2.0177.2966 3.1592.5181 1.0835 1.3492 1.9736 2.223 2.3812 1.1255.5247 2.1416.6876 2.9694.6876.3856.0006.7703-.0357 1.149-.1082 1.04-.2011 1.9022-.673 2.1455-1.1741.1955-.4021.0768-.8262-.2953-1.0552z" fill="#7fe6db"/><g fill="#475459"><path clip-rule="evenodd" d="m35.3682 5.77241c0-.19421.1574-.35166.3516-.35166.608 0 1.191.24152 1.6209.67139.4299.42988.6714 1.01291.6714 1.62085 0 .19422-.1574.35167-.3517.35167-.1942 0-.3516-.15745-.3516-.35167 0-.4214-.1674-.82554-.4654-1.12353-.298-.29797-.7022-.46538-1.1236-.46538-.1942 0-.3516-.15745-.3516-.35167z" fill-rule="evenodd"/><path clip-rule="evenodd" d="m41.0608 6.12408c-.2087 0-.4153.04111-.6081.12097-.1928.07984-.3679.19688-.5155.34441-.1475.14755-.2645.3227-.3444.51548-.0798.19276-.1209.39937-.1209.60802 0 .19425-.1574.3517-.3516.3517-.1943 0-.3517-.15745-.3517-.35167 0-.30099.0592-.59907.1744-.87719.1152-.27811.2841-.5308.4969-.74366.2129-.21286.4655-.3817.7437-.49689.278-.1152.5761-.1745.8772-.1745.1942 0 .3516.15745.3516.35166 0 .19422-.1574.35167-.3516.35167z" fill-rule="evenodd"/><path d="m41.8343 17.7345h-7.597l3.4511 1.9917c.2064.1196.4407.1828.6793.1829.2385.0001.4729-.0627.6795-.1822l3.4525-1.9925z"/><path d="m42.8998 13.3356h-9.4154v2.2826h9.7671v-2.2826z"/></g><path d="m42.5737 11.2686-.0853-.0492h-8.2387l-.0857.0495c-.206.1193-.3772.2904-.4964.4965-.1193.206-.1824.4396-.1832.6777v.8926h9.7671v-.8925c-.0009-.2378-.0639-.4714-.1827-.6774-.1189-.206-.2896-.3774-.4951-.4972z" fill="#ffdd0f"/><path d="m42.8998 15.6182h-9.4154v.8971c.0005.2385.0636.4726.1829.6791.1194.2065.2907.3782.4971.4978l.0735.0425h8.2624l.075-.0433c.2053-.1202.3756-.2919.4942-.4982.1186-.2062.1812-.4399.1818-.6777v-.8971z" fill="#ffdd0f"/><path d="m39.0476 9.23385c-.2063-.11951-.4405-.18246-.6789-.18252-.2384-.00003-.4726.06284-.6789.1823l-3.4408 1.98577h8.239z" fill="#475459"/></g><g clip-path="url(#e)"><circle cx="13.353" cy="13.5554" fill="#f1e3d6" r="13.3334"/><path d="m13.3902 4.99852c.2274-.17354.3966-.2507.7465-.34017.5993-.1534 1.5402.21381 1.8814.73431.1212.18493.1477.19598.5328.22112.9445.06168 1.622.7407 1.7679 1.77174l.0648.45887.4324.32544c4.4264 3.33167 4.7575 9.90287.6366 12.63777-3.9962 2.6521-10.95661 1.593-13.79018-2.0985-2.85566-3.7202-.8125-9.52796 4.09678-11.6454.6749-.29114.6871-.29972.7557-.53206.3045-1.03127 1.4097-1.67553 2.4035-1.40113.2044.05639.2369.0473.4718-.13199z" fill="#fbf9f0"/><path d="m16.8972 21.994c-6.7612 1.3065-10.95387-2.653-12.0974-4.8679 3.38228 3.2867 6.9268 4.6937 11.2655 3.9059s5.4216-5.1377 5.8278-8.8845c.9004 3.1659 1.0167 8.6846-4.9959 9.8465z" fill="#e2d2c9"/><g fill="#59251b"><path d="m14.07 4.65262c-.2479.06412-.667.27981-.8263.42554-.1121.10493-.1535.11076-.3187.05247-.301-.10493-.8971-.07579-1.2572.05246-.5666.20986-1.0623.75199-1.2453 1.35825-.0708.239-.0826.25066-.67284.48966-2.5674 1.04346-4.31441 2.86806-5.16431 5.3863-.34822 1.0377-.41905 1.4749-.41315 2.6174 0 .9153.01771 1.0785.15936 1.5973.53119 1.947 1.95949 3.5268 4.16096 4.611 3.11038 1.5332 7.19458 1.6614 10.09258.3206 2.7562-1.2766 4.2022-3.8707 3.913-7.036-.1475-1.6672-.5489-2.8273-1.4342-4.1447-.4839-.71702-1.5345-1.78962-2.2014-2.25014l-.4132-.27981-.0118-.33811c-.0177-.46635-.2125-.9327-.5312-1.28246-.3659-.40223-.7613-.5946-1.2866-.62957-.3955-.02332-.425-.03498-.5489-.22152-.1476-.22152-.5253-.51299-.8381-.64706-.2479-.0991-.8971-.14574-1.1627-.08161zm1.0151.64123c.1299.05829.3424.21569.4663.34393l.2302.23901-.2361.30895c-.2302.29147-.4309.63541-.4309.72285 0 .02331.1358-.0991.3011-.26232.1652-.16906.3718-.33228.4603-.36726.8971-.35559 1.7824.11076 2.0126 1.06678.1004.41389.0708.45469-.2892.3964-.1711-.02332-.419-.02332-.5548 0-.1829.0408-.2065.05246-.0885.05829.5607.02332 1.5699.68787 2.6146 1.7255.8322.81612 1.1509 1.24752 1.6113 2.15682.8499 1.6847 1.0683 3.8299.5666 5.5613-.844 2.9205-3.736 4.681-7.6963 4.681-3.4114.0058-6.57493-1.335-8.21571-3.4685-.41905-.548-.73776-1.1892-.96794-1.9354-.14755-.4838-.16526-.6062-.16526-1.5156-.0059-.8919.01181-1.0551.15346-1.6147.41314-1.609 1.06237-2.7923 2.11884-3.86492.66693-.67621 1.26895-1.1309 2.07163-1.54479.53709-.27981 1.36928-.64123 1.46958-.64123.0295 0 .0886.07578.1417.17488.1121.21569.4249.56545.5666.64123.0708.04081.0472-.03497-.1004-.27398-.3305-.54796-.3364-.96767-.0236-1.51564.3306-.5771 1.0329-.8744 1.6585-.69952.1535.04081.1535.04663.1535.57711-.0059.32061.0236.58877.0649.65872.059.0991.0649.08161.0708-.15157 0-.37891.1417-.80445.3541-1.05511.3896-.46635 1.151-.64706 1.6821-.40223z"/><path d="m12.8717 8.77963c0 .26232-.1889 1.06095-.3246 1.38737-.0591.1283-.1771.344-.2715.478-.2007.2973-.1122.3265.1947.0758.3305-.2681.5371-.73449.5666-1.28245.0295-.4955-.0177-.87441-.1062-.87441-.0354 0-.059.0991-.059.21569z"/><path d="m12.3701 9.15266c-.1299.19237-.366.47218-.5253.61209-.183.16322-.2479.25645-.1889.25645.2479 0 .6434-.3264.8204-.67034.0826-.16905.1889-.55379.1476-.55379-.0118 0-.124.16322-.2538.35559z"/><path d="m13.7278 9.23455c.0767.61209.4308 1.07845.8263 1.07845.1475 0 .1475-.0117-.1594-.34977-.1711-.19237-.4013-.50133-.5075-.68204l-.1948-.33811z"/><path d="m8.29769 13.2509c-.25379.1108-.54299.4547-.61971.7462-.24789.8977.5902 1.6555 1.4401 1.3058.61972-.2565.8499-1.2009.41905-1.7605-.26559-.3439-.82039-.4722-1.23944-.2915zm.87351.1633c.30691.1574.36593.4838.12985.717-.38364.3847-.99155-.0816-.73186-.5596.10624-.1982.38363-.274.60201-.1574z"/><path d="m14.7432 13.6998c-.1181.0641-.2892.2215-.3836.3556-.1358.204-.1594.3031-.1594.6354 0 .3439.0236.4255.1771.6471.4662.6529 1.4165.6703 1.8473.0291.1358-.1982.1594-.3031.1594-.6296 0-.3439-.0236-.4255-.1771-.647-.3482-.4897-.962-.6529-1.4637-.3906zm.7555.1982c.4308.4256-.2184 1.0726-.6611.6587-.177-.1632-.1829-.4838-.0059-.6704.1771-.1865.4781-.1807.667.0117z"/><path d="m11.3082 15.5592c.0177.0291.1003.0583.1771.0583.0767 0 .1593-.0292.177-.0583.0236-.035-.0472-.0583-.177-.0583-.1299 0-.2007.0233-.1771.0583z"/></g><path clip-rule="evenodd" d="m11.9977 17.886c-.0209.0051-.046.0171-.0559.0267s-.0525.0175-.0947.0176-.1013.0132-.1313.0292c-.03.0159-.0874.0343-.1275.0408-.04.0066-.0826.0239-.0945.0385-.0118.0146-.04.0266-.0624.0266s-.0576.0117-.0782.026c-.0205.0143-.0607.0319-.0894.039s-.0521.0214-.0521.0319c0 .0104-.0159.0189-.0353.0189s-.0557.0152-.0807.0338c-.0615.0457-.115.0797-.1491.0948-.2364.1042-.2361.293.0011.6727.0199.0319.0452.0753.0563.0965.1768.3411.559.6786.8516.7522.0261.0065.0776.0211.1146.0323.0507.0154.1176.0128.2721-.0105.1814-.0275.2429-.0469.3519-.1106.0156-.0092.0485-.0254.0731-.0362.0599-.0263.4004-.3785.4004-.4142 0-.006.0277-.0606.0615-.1215.0625-.1124.0955-.1915.1308-.3135.0107-.0372.0273-.0758.0367-.0859s.0172-.0436.0172-.0744c0-.0307.0117-.0833.0261-.1168.0383-.0893.1094-.4863.0964-.5387-.0149-.0609-.0685-.0916-.1845-.1056-.0535-.0064-.1188-.0233-.1454-.0374-.0474-.0253-1.0123-.0358-1.1088-.0122z" fill="#fc8484" fill-rule="evenodd"/><path d="m9.50781 16.288c0 .1166.2656.3789.46036.4547l.23023.0932.1062.5422c.3954 2.0344 1.3221 2.9846 2.3785 2.4483.5076-.2565.8263-1.0376.8794-2.151.0295-.6005.0532-.7171.1358-.7462.0531-.0175.1711-.1049.2597-.1982l.1652-.1691-.2833.14c-.4662.2331-1.021.1807-1.9122-.1749l-.3896-.1516-.3305.1108c-.7259.2448-1.1627.2273-1.49321-.0642-.11214-.0932-.20658-.1574-.20658-.134zm3.63569 1.7838c.1416.0349.2597.0816.2597.1049-.0059.1341-.1948.8044-.2715.956-.3305.6412-.9562.8686-1.5168.548-.2892-.1691-.5017-.4198-.6965-.822-.1357-.2623-.1357-.2681-.0177-.3556.543-.408 1.5463-.6004 2.2428-.4313z" fill="#59251b"/></g></svg>