<svg xmlns="http://www.w3.org/2000/svg" fill="currentColor" viewBox="0 0 27 26"><path fill="currentColor" d="m5.414 14.578 8.705 8.705c.316.316.473.687.471 1.112 0 .426-.16.797-.475 1.115a1.545 1.545 0 0 1-1.114.465 1.524 1.524 0 0 1-1.116-.472L.496 14.115a1.59 1.59 0 0 1-.357-.526 1.566 1.566 0 0 1-.112-.59c0-.207.037-.403.112-.59.075-.185.194-.36.357-.524l11.4-11.4a1.535 1.535 0 0 1 1.109-.462c.425 0 .795.155 1.11.463.316.32.473.693.473 1.12 0 .426-.157.798-.473 1.114l-8.701 8.7h19.62c.449 0 .825.151 1.13.453.303.301.455.676.455 1.126 0 .449-.152.824-.456 1.126-.304.301-.68.452-1.129.452H5.414Z"/></svg>