<svg xmlns="http://www.w3.org/2000/svg" width="375" height="300" fill="none" viewBox="0 0 375 300"><g clip-path="url(#a)"><path fill="#65d9ff" d="M0 0h375v300H0z"/><path fill="#3fc4ff" d="M-144.611 145.396H61.697v157.038h-206.308zm311.972 29.631h92.114V300h-92.114zm92.114-83.277h156.476V300H259.475zm50.56-18.493 18.493 18.493h-18.493zm18.493 18.493 18.493-18.493v18.492z"/><path fill="#23191a" d="M316.052 299.997h21.661l-2.282-20.794H311.72z"/><path fill="#fff8f7" d="m245.008 228.953-16.462 16.462v28.159l8.664.433L234.611 300h20.794l4.332-20.794h4.332L262.336 300h21.661l3.466-20.794h39.855L331.65 300h21.661l-7.798-71.047z"/><path fill="#23191a" fill-rule="evenodd" d="M231.801 283.533a6.37 6.37 0 0 1-6.076-4.432l-4.317-13.57h-2.655a6.37 6.37 0 0 1-6.075-4.433l-2.565-8.063h9.622l-5.075-7.624h48.09l-5.076 7.624h9.623l-2.566 8.063a6.37 6.37 0 0 1-6.075 4.433h-2.654l-4.318 13.57a6.37 6.37 0 0 1-6.075 4.432zm-3.262-21.708c0 2.047 1.533 3.706 3.424 3.706s3.424-1.659 3.424-3.706-1.533-3.707-3.424-3.707-3.424 1.66-3.424 3.707m20.332 0c0 2.047-1.533 3.706-3.424 3.706s-3.424-1.659-3.424-3.706 1.533-3.707 3.424-3.707 3.424 1.66 3.424 3.707" clip-rule="evenodd"/><path fill="#23191a" d="m299.588 210.756 37.016 5.742a10.13 10.13 0 0 1 8.514 8.901l.389 3.552h-30.73c-8.389 0-15.189-6.801-15.189-15.189z"/><path fill="#fccaf2" d="M327.318 279.205H295.26l.641 3.036a10.37 10.37 0 0 0 10.147 8.227h10.482a10.37 10.37 0 0 0 10.146-8.227z"/><path fill="#fccaf2" d="M305.655 289.6h4.333v3.051a2.14 2.14 0 0 1-2.147 2.146 2.19 2.19 0 0 1-2.186-2.185zm6.98 0h4.333v3.051a2.14 2.14 0 0 1-2.147 2.146 2.19 2.19 0 0 1-2.186-2.185z"/><path fill="#fff8f7" d="M105.33 198.658h25.923v12.421H105.33z"/><path fill="#fff8f7" d="m162.149 299.924-5.2-53.368-29.24-51.674h-17.911l-29.24 51.674-5.2 53.368h21.698l10.849-19.27h21.697l10.849 19.27z"/><path fill="#23191a" d="M129.869 273.187h8.205l3.714 26.733h-14.851zm-22.34 0h-8.204L95.61 299.92h14.852z"/><path fill="#fccaf2" d="M103.83 273.174h29.843l-.929 4.377a10.82 10.82 0 0 1-10.582 8.572h-6.822a10.82 10.82 0 0 1-10.582-8.572z"/><rect width="4.451" height="8.011" x="120.548" y="281.613" fill="#fccaf2" rx="2.225"/><rect width="4.451" height="8.011" x="112.537" y="281.613" fill="#fccaf2" rx="2.225"/><path fill="#23191a" fill-rule="evenodd" d="M115.356 226.289a6.48 6.48 0 0 1-7.139-2.754l-7.817-12.193-2.609.699a6.485 6.485 0 0 1-7.139-2.755l-4.644-7.245 9.46-2.535-6.997-6.153 47.274-12.667-2.983 8.827 9.46-2.535-.4 8.597a6.48 6.48 0 0 1-4.805 5.955l-2.609.699-.673 14.468a6.48 6.48 0 0 1-4.805 5.955zm-8.921-20.467c.539 2.011 2.482 3.237 4.341 2.739s2.93-2.532 2.391-4.543-2.483-3.237-4.342-2.739-2.929 2.532-2.39 4.543m19.987-5.355c.539 2.01-.531 4.044-2.39 4.543-1.859.498-3.803-.729-4.342-2.74s.531-4.045 2.39-4.543 3.803.729 4.342 2.74" clip-rule="evenodd"/><path fill="#fff8f7" d="M41.689 246.41h52.347v53.514H41.689z"/><path fill="#012f7a" d="M94.036 246.41h95.291v53.514H94.036z"/><path fill="#00a1ff" d="m189.328 246.41 20 28.292h-95.292l-20-28.292z"/><path fill="#d0ac10" d="M135.515 274.702h12.332v25.222h-12.332zM61.697 246.41h12.332v53.514H61.697z"/><path fill="#00a1ff" d="m94.036 246.41-20 28.292H21.689l20-28.292z"/><path fill="#3fc4ff" d="m19.73 125.076-6.269 10.856v-12.536h-4v12.535l-6.267-10.855-3.464 2 6.267 10.856-10.856-6.267-2 3.463 10.855 6.268H-8.539v4h40v-4H18.926l10.856-6.268-2-3.463-10.857 6.267 6.269-10.856z"/></g><defs><clipPath id="a"><path fill="#fff" d="M0 0h375v300H0z"/></clipPath></defs></svg>