<svg xmlns="http://www.w3.org/2000/svg" fill="none" viewBox="0 0 375 300"><g clip-path="url(#a)"><path fill="#0E0F2D" d="M0 0h375v300H0z"/><path fill="#000" d="M184 300v-14l10 14h-10Z"/><path fill="#000" d="M176 300v-14l10 14h-10Z"/><path fill="#000" d="M168 300v-14l10 14h-10Z"/><path fill="#FFF8F7" d="m153.78 174.875-32.841 8.8 2.329 8.693 32.841-8.8z"/><path fill="#D11347" d="m148.951 176.17-18.58-22.974-4.603 29.185 23.183-6.211Z"/><circle cx="6" cy="6" r="6" fill="#FFF8F7" transform="scale(-1 1) rotate(15 -621.216 -438.324)"/><path fill="#FFF8F7" d="M132.971 199.31h25.923v12.421h-25.923z"/><path fill="#1E2054" d="m189.791 300.576-5.2-53.368-29.24-51.674H137.44l-29.241 51.674L103 300.576h21.698l10.848-19.269h21.698l10.849 19.269h21.698Z"/><path fill="#000" d="M157.511 273.839h8.204l3.715 26.733h-14.852l2.933-26.733Zm-22.34 0h-8.204l-3.715 26.733h14.852l-2.933-26.733Z"/><circle cx="146.416" cy="250.623" r="3.561" fill="#000"/><path fill="#000" d="M139.255 235.363a7.32 7.32 0 0 1 14.322 0l3.224 15.261h-20.77l3.224-15.261Z"/><path fill="#2C2F6F" d="M131.471 273.826h29.843l-.928 4.377a10.818 10.818 0 0 1-10.582 8.573h-6.822a10.818 10.818 0 0 1-10.582-8.573l-.929-4.377Z"/><rect width="4.451" height="8.011" x="148.189" y="282.266" fill="#2C2F6F" rx="2.225"/><rect width="4.451" height="8.011" x="140.179" y="282.266" fill="#2C2F6F" rx="2.225"/><path fill="#2C2F6F" fill-rule="evenodd" d="M142.997 226.942a6.485 6.485 0 0 1-7.139-2.755l-7.816-12.193-2.609.699a6.484 6.484 0 0 1-7.139-2.754l-4.645-7.246 9.46-2.534-6.996-6.154 47.273-12.667-2.982 8.827 9.46-2.534-.4 8.597a6.483 6.483 0 0 1-4.805 5.954l-2.61.7-.672 14.468a6.483 6.483 0 0 1-4.805 5.954l-13.575 3.638Zm-8.921-20.468c.539 2.011 2.483 3.238 4.342 2.74 1.859-.498 2.929-2.532 2.39-4.543-.538-2.011-2.482-3.238-4.341-2.74-1.859.499-2.929 2.533-2.391 4.543Zm19.988-5.355c.539 2.011-.532 4.045-2.391 4.543-1.859.498-3.802-.728-4.341-2.739-.539-2.011.531-4.045 2.39-4.543 1.859-.498 3.803.728 4.342 2.739Z" clip-rule="evenodd"/><circle cx="239" cy="197" r="7" fill="#D11347"/><circle cx="190" cy="234" r="7" fill="#EC4612"/><path fill="#194D05" d="m167 300 53-154 53 154H167Z"/><circle cx="232" cy="233" r="7" fill="#F996EE" transform="rotate(180 232 233)"/><circle cx="206" cy="245" r="7" fill="#F2CD16"/><circle cx="198" cy="212" r="7" fill="#00A1FF"/><circle cx="220" cy="187" r="7" fill="#F2CD16"/><circle cx="260" cy="259" r="7" fill="#00A1FF"/><path fill="#FFF8F7" d="m220 146 3.241-8.759L232 134l-8.759-3.241L220 122l-3.241 8.759L208 134l8.759 3.241L220 146Z"/><path fill="#00A1FF" d="M197 281h45v19h-45z"/><path fill="#CCF8FF" d="M216 281h8v19h-8z"/><path fill="#D11347" d="M149 263h58v37h-58z"/><path fill="#F996EE" d="M171 263h14v37h-14z"/><path fill="#3C3F83" d="M326.034 297.362A30 30 0 0 1 345.719 290H370v10h-47l3.034-2.638Z"/><path fill="#2C2F6F" d="M344 219c0-14.912 12.088-27 27-27s27 12.088 27 27v81h-54v-81Z"/><path fill="#3C3F83" d="M392.75 203h-43.501c4.916-6.672 12.828-11 21.751-11 8.923 0 16.835 4.328 21.75 11ZM-479 232h459.475c28.899 0 56.953 9.763 79.624 27.709L111 300h-590v-68Z"/><path fill="#2C2F6F" d="M-326 265h302.7a64.188 64.188 0 0 1 40.138 14.098l26.127 20.937H-326V265Zm624-17-16 44h32l-16-44Z"/><path fill="#3C3F83" d="m298 248-9.455 26h18.91L298 248Z"/><path fill="#2C2F6F" d="M300 292h-4v8h4z"/><path fill="#1E2054" d="M22 209 6 253h32l-16-44Z"/><path fill="#3C3F83" d="m22 209-9.818 27h19.636L22 209Zm23 8-16 44h32l-16-44Z"/><path fill="#1E2054" d="M24 253h-4v8h4z"/></g><defs><clipPath id="a"><path fill="#fff" d="M0 0h375v300H0z"/></clipPath></defs></svg>