<svg xmlns="http://www.w3.org/2000/svg" width="800" height="300" fill="none" viewBox="0 0 800 300"><g clip-path="url(#a)"><path fill="#0e0f2d" d="M0 0h800v300H0z"/><path fill="url(#b)" d="M0 300h300v800H0z" opacity=".6" transform="rotate(-90 0 300)"/><path fill="#000" d="M-60.297 158H122.61a128.02 128.02 0 0 1 86.992 34.079L320.703 300h-381z"/><path fill="#000" d="m27.703 133 9 25h-18z"/><path fill="#1e2054" d="M-387 232H77.475c28.899 0 56.952 9.763 79.624 27.709L208 300h-595z"/><path fill="#2c2f6f" d="M-252.543 265h302.7a64.2 64.2 0 0 1 40.138 14.098l26.126 20.937h-368.964z"/><path fill="#000" d="m70.703 106-16 44h32z"/><path fill="#000" d="m92.703 114-16 44h32zm-20 36h-4v8h4zM141 299.859v-14l10 14z"/><path fill="#000" d="M133 299.859v-14l10 14zM143 207l9 25h-18z"/><path fill="#0e0f2d" d="m697.04 274.677 9 25h-18z"/><path fill="#0e0f2d" d="m715.04 247.677 16 44h-32zm-2 44h4v8h-4zm-43.322-25 9 25h-18zm-2 25h4v8h-4zm94.658-24.325c0-12.982 10.524-23.507 23.507-23.507 12.982 0 23.506 10.525 23.506 23.507V300h-47.013z"/><path fill="#4e5195" d="M188.345 272.378c0-10.855 8.8-19.655 19.655-19.655s19.655 8.8 19.655 19.655v27.299h-39.31z"/><path fill="#2c2f6f" d="M-23.267 227.121c0-15.063 12.211-27.273 27.273-27.273 15.063 0 27.274 12.21 27.274 27.273V265h-54.547z"/><path fill="#ec4612" d="M266.057 80.135a29.15 29.15 0 0 1 14.396-3.926c-10.682 7.31-14.091 21.734-7.511 33.131 6.862 11.886 22.007 16.006 33.936 9.282a29.16 29.16 0 0 1-11.537 12.236c-14.006 8.086-31.916 3.287-40.003-10.72-8.086-14.006-3.288-31.916 10.719-40.003"/><path fill="#4e5195" d="m362.752 174.366 13.882-3.082v23.434l-13.882-3.083 3.083 13.881h27.836l-8.095 76.48h15.913V300h-94.74v-18.004h15.913l-8.095-76.48h27.835l3.082-13.881-13.88 3.083v-23.434l13.88 3.082-3.082-13.881h23.433z"/><path fill="#0e0f2d" fill-rule="evenodd" d="M347.672 260.528a5.95 5.95 0 0 1-5.673-4.151l-4.032-12.708h-2.479a5.95 5.95 0 0 1-5.672-4.152l-2.396-7.551h8.985l-4.739-7.14h44.906l-4.74 7.14h8.986l-2.396 7.551a5.95 5.95 0 0 1-5.673 4.152h-2.478l-4.032 12.708a5.95 5.95 0 0 1-5.673 4.151zm-3.046-20.33c0 1.917 1.431 3.471 3.197 3.471s3.198-1.554 3.198-3.471-1.432-3.471-3.198-3.471-3.197 1.554-3.197 3.471m18.986 0c0 1.917-1.432 3.471-3.197 3.471s-3.198-1.554-3.198-3.471 1.432-3.471 3.198-3.471c1.765 0 3.197 1.554 3.197 3.471" clip-rule="evenodd"/><path fill="#0e0f2d" d="M472.652 138.749h101.984v43.213H472.652z"/><path fill="#0e0f2d" d="M626.458 181.638v100.358H522.813V181.638z"/><path fill="#4e5195" d="m419.169 172.749 51.823-34 51.822 34v109.247H419.169z"/><path fill="#0e0f2d" d="M626.458 181.962H522.813v-9.213l51.823-34 51.822 34z"/><path fill="#ec4612" d="M499.376 281.996h-28.389V181.962c15.679 0 28.389 12.71 28.389 28.388z"/><path fill="#0e0f2d" d="M442.599 281.996h28.388V181.962c-15.678 0-28.388 12.71-28.388 28.388z"/><path fill="#0e0f2d" fill-rule="evenodd" d="M499.375 281.996h-5.035l4.456-16.467h-4.456a6.37 6.37 0 0 1-6.075-4.432l-4.317-13.571h-2.655q-.26 0-.517-.02a6.37 6.37 0 0 1-5.558-4.412l-2.566-8.063 9.622-.001-5.074-7.624h13.89l8.285-8.285z" clip-rule="evenodd"/><path fill="#0e0f2d" d="M405.941 281.996h116.873v17.681H405.941zm116.873 0h121.325v17.681H522.814z"/><path fill="#4e5195" d="M302.297 299.677h103.644v-17.681H302.297z"/><path fill="#0e0f2d" d="M369.472 281.996c-3.441 0-6.223-2.7-6.223-6.025s2.782-6.025 6.223-6.025 6.222 2.7 6.222 6.025-2.782 6.025-6.222 6.025m.279-1.267c2.371 0 3.161-2.157 3.161-4.247 0-2.931-1.251-5.252-3.671-5.252-2.321 0-3.177 1.943-3.177 4.149 0 2.337.593 5.35 3.687 5.35m-13.825 1.267c-3.44 0-6.222-2.7-6.222-6.025s2.782-6.025 6.222-6.025 6.223 2.7 6.223 6.025-2.782 6.025-6.223 6.025m.28-1.267c2.37 0 3.161-2.157 3.161-4.247 0-2.931-1.252-5.252-3.671-5.252-2.321 0-3.177 1.943-3.177 4.149 0 2.337.592 5.35 3.687 5.35m-7.597-9.927-1.629.971v8.396l1.629.971v.757h-5.629v-.757l1.629-.971v-8.626l-3.341 10.354h-2.042l-3.802-10.173v8.412l1.629 1.004v.757h-4.51v-.757l1.63-1.004v-8.379l-1.63-.955v-.757h4.626l3.424 9.926 3.16-9.926h4.856z"/></g><defs><linearGradient id="b" x1="300" x2="0" y1="1100" y2="1100" gradientUnits="userSpaceOnUse"><stop stop-color="#2b6f0b" stop-opacity="0"/><stop offset="1" stop-color="#2b6f0b"/></linearGradient><clipPath id="a"><path fill="#fff" d="M0 0h800v300H0z"/></clipPath></defs></svg>