<svg fill="none" viewBox="0 0 1365 192" xmlns="http://www.w3.org/2000/svg"><g fill="#3fc4ff"><path d="m0 80h143.229c25.221 0 49.51 9.53 68.002 26.68l33.769 31.32h-245z"/><path d="m69.456 61.408 6.823 18.764h-13.646zm50.32-14.498 11.941 33.262h-23.881l11.94-33.263z"/><path d="m102.722 40.086 11.94 33.263h-23.88zm-1.706 33.263h3.412v6.823h-3.412z"/></g><path d="m0 138h463.261a99.998 99.998 0 0 1 62.07 21.596l39.669 31.404h-565z" fill="#00a1ff"/><path d="m0 165 111.03.001a49.996 49.996 0 0 1 30.33 10.25l20.64 15.749-162-.001z" fill="#004293"/><path d="m379.909 119.404 6.823 18.764h-13.646zm-89.548-80.171h3.411l.853 98.936h-5.117zm3.412-39.233h1.706l3.564 31.358a7.33 7.33 0 0 1 -5.27 7.875z" fill="#00a1ff"/><path d="m259.797 58.85-.853-1.478 25.375-18.764a7.33 7.33 0 0 1 9.455.625zm67.953 0-.853 1.477-28.938-12.593a7.33 7.33 0 0 1 -4.186-8.5zm81.161 39.233-11.94 33.263h23.881zm1.706 33.263h-3.412v6.823h3.412z" fill="#00a1ff"/><path d="m222.664 187.339v-12.496l11.406 16.205h-28.998v-16.205l8.796 12.496v-12.496z" fill="#23191a"/><path d="m1080.99 172.283 6.82 18.764h-13.65z" fill="#3fc4ff"/><path d="m1256.68 131.345h108.32v59.702h-108.32z" fill="#00a1ff"/><path d="m1218.3 156.931 38.38-25.586 38.38 25.586v34.116h-76.76z" fill="#3fc4ff"/><path d="m1233.66 168.872h46.05v22.175h-46.05z" fill="#00a1ff"/><path d="m1166.27 127.08c0-11.776 9.55-21.322 21.33-21.322 11.77 0 21.32 9.546 21.32 21.322v63.967h-42.65zm-71.63 23.881-11.94 33.263h23.88z" fill="#3fc4ff"/><path d="m1096.34 184.224h-3.412v6.823h3.412zm-49.47-22.174-7.68 22.175h15.36zm1.71 22.175h-3.412v6.823h3.412z" fill="#3fc4ff"/><path d="m956.086 191.048h16.873l-1.778-16.198h-18.47z" fill="#23191a"/><path d="m900.746 135.702-12.824 12.824v21.936l6.749.337-2.024 20.249h16.198l3.375-16.199h3.375l-1.35 16.199h16.874l2.699-16.199h31.048l3.375 16.199h16.873l-6.074-55.346z" fill="#fff8f7"/><path clip-rule="evenodd" d="m890.457 178.224a4.963 4.963 0 0 1 -4.732-3.453l-3.364-10.571h-2.067a4.964 4.964 0 0 1 -4.733-3.453l-1.999-6.281h7.497l-3.954-5.94h37.462l-3.954 5.94h7.496l-1.998 6.281a4.964 4.964 0 0 1 -4.733 3.453h-2.068l-3.363 10.571a4.964 4.964 0 0 1 -4.733 3.453zm-2.541-16.911c0 1.594 1.195 2.887 2.668 2.887s2.667-1.293 2.667-2.887c0-1.595-1.194-2.887-2.667-2.887s-2.668 1.292-2.668 2.887zm15.839 0c0 1.594-1.194 2.887-2.667 2.887s-2.668-1.293-2.668-2.887c0-1.595 1.195-2.887 2.668-2.887s2.667 1.292 2.667 2.887z" fill="#23191a" fill-rule="evenodd"/><path d="m943.266 121.528 28.836 4.473a7.889 7.889 0 0 1 6.632 6.935l.303 2.766h-23.939c-6.535 0-11.832-5.297-11.832-11.832z" fill="#23191a"/><path d="m964.867 174.848h-24.973l.5 2.365a8.078 8.078 0 0 0 7.904 6.409h8.165a8.079 8.079 0 0 0 7.905-6.409z" fill="#fccaf2"/><path d="m947.99 182.947h3.375v2.378c0 .925-.746 1.671-1.672 1.671a1.706 1.706 0 0 1 -1.703-1.702zm5.438 0h3.375v2.378c0 .925-.746 1.671-1.672 1.671a1.706 1.706 0 0 1 -1.703-1.702z" fill="#fccaf2"/><path d="m871.652 188.51v-8.55l8.051 11.088h-20.469v-11.088l6.209 8.55v-8.55z" fill="#23191a"/><path d="m785.523 112.164h-20.194v9.676h20.194z" fill="#fff8f7"/><path d="m741.265 191.048 4.05-41.574 22.779-40.254h13.952l22.779 40.254 4.05 41.574h-16.903l-8.451-15.011h-16.902l-8.452 15.011z" fill="#fff8f7"/><path d="m766.411 170.223h-6.391l-2.894 20.825h11.569zm17.405 0h6.391l2.894 20.825h-11.57z" fill="#23191a"/><circle cx="2.774" cy="2.774" fill="#23191a" r="2.774" transform="matrix(-1 0 0 1 777.828 149.361)"/><path d="m780.637 140.248a5.701 5.701 0 0 0 -11.157 0l-2.511 11.888h16.179z" fill="#f2cd16"/><path d="m786.695 170.211h-23.247l.723 3.41a8.427 8.427 0 0 0 8.243 6.678h5.315a8.427 8.427 0 0 0 8.243-6.678z" fill="#fccaf2"/><rect fill="#fccaf2" height="6.241" rx="1.734" transform="matrix(-1 0 0 1 773.672 176.785)" width="3.467"/><rect fill="#fccaf2" height="6.241" rx="1.734" transform="matrix(-1 0 0 1 779.914 176.785)" width="3.467"/><path clip-rule="evenodd" d="m777.715 133.687a5.05 5.05 0 0 0 5.561-2.145l6.089-9.499 2.033.545a5.051 5.051 0 0 0 5.561-2.146l3.618-5.644-7.369-1.975 5.45-4.793-36.826-9.868 2.323 6.877-7.369-1.975.311 6.697a5.052 5.052 0 0 0 3.744 4.639l2.033.545.523 11.27a5.052 5.052 0 0 0 3.744 4.639zm6.949-15.944c-.419 1.567-1.934 2.522-3.382 2.134s-2.282-1.972-1.862-3.539c.42-1.566 1.934-2.522 3.382-2.134s2.282 1.973 1.862 3.539zm-15.57-4.172c-.419 1.567.414 3.151 1.862 3.539 1.449.388 2.963-.567 3.382-2.134.42-1.566-.413-3.151-1.862-3.539-1.448-.388-2.962.568-3.382 2.134z" fill="#23191a" fill-rule="evenodd"/><path d="m1124.8 187.339v-12.496l-11.4 16.205h29v-16.205l-8.8 12.496v-12.496zm-450.669 1.171v-8.55l7.705 11.088h-13.646v-11.088z" fill="#23191a"/></svg>