<svg xmlns="http://www.w3.org/2000/svg" fill="none" viewBox="0 0 1365 192"><path fill="#1E2054" d="M785.523 112.164h-20.194v9.676h20.194z"/><path fill="#1E2054" d="m741.265 191.048 4.05-41.574 22.779-40.254h13.952l22.779 40.254 4.05 41.574h-16.903l-8.451-15.011h-16.902l-8.452 15.011h-16.902Z"/><path fill="#090A20" d="M766.411 170.223h-6.391l-2.894 20.825h11.569l-2.284-20.825Zm17.405 0h6.391l2.894 20.825h-11.57l2.285-20.825Z"/><circle cx="2.774" cy="2.774" r="2.774" fill="#090A20" transform="matrix(-1 0 0 1 777.828 149.361)"/><path fill="#090A20" d="M780.637 140.248a5.701 5.701 0 0 0-11.157 0l-2.511 11.888h16.179l-2.511-11.888Zm6.058 29.963h-23.247l.723 3.41a8.427 8.427 0 0 0 8.243 6.678h5.315a8.427 8.427 0 0 0 8.243-6.678l.723-3.41Z"/><rect width="3.467" height="6.241" fill="#090A20" rx="1.734" transform="matrix(-1 0 0 1 773.672 176.785)"/><rect width="3.467" height="6.241" fill="#090A20" rx="1.734" transform="matrix(-1 0 0 1 779.914 176.785)"/><path fill="#090A20" fill-rule="evenodd" d="M777.715 133.687a5.05 5.05 0 0 0 5.561-2.145l6.089-9.499 2.033.545a5.051 5.051 0 0 0 5.561-2.146l3.618-5.644-7.369-1.975 5.45-4.793-36.826-9.868 2.323 6.877-7.369-1.975.311 6.697a5.052 5.052 0 0 0 3.744 4.639l2.033.545.523 11.27a5.052 5.052 0 0 0 3.744 4.639l10.574 2.833Zm6.949-15.944c-.419 1.567-1.934 2.522-3.382 2.134-1.448-.388-2.282-1.972-1.862-3.539.42-1.566 1.934-2.522 3.382-2.134 1.448.388 2.282 1.973 1.862 3.539Zm-15.57-4.172c-.419 1.567.414 3.151 1.862 3.539 1.449.388 2.963-.567 3.382-2.134.42-1.566-.413-3.151-1.862-3.539-1.448-.388-2.962.568-3.382 2.134Z" clip-rule="evenodd"/><path fill="#090A20" d="M0 80h143.229c25.221 0 49.51 9.53 68.002 26.68L245 138H0V80Z"/><path fill="#090A20" d="m69.456 61.408 6.823 18.764H62.633l6.823-18.764Zm50.32-14.498 11.941 33.262h-23.881l11.94-33.263Z"/><path fill="#090A20" d="m102.722 40.086 11.94 33.263h-23.88l11.94-33.263Zm-1.706 33.263h3.412v6.823h-3.412z"/><path fill="#1E2054" d="M0 138h463.261a99.998 99.998 0 0 1 62.07 21.596L565 191H0v-53Z"/><path fill="#2D2F6F" d="M0 165h110.901a50.007 50.007 0 0 1 30.212 10.16L162 191H0v-26Z"/><path fill="#1E2054" d="m379.909 119.404 6.823 18.764h-13.646l6.823-18.764Zm-89.548-80.171h3.411l.853 98.936h-5.117l.853-98.936ZM293.773 0h1.706l3.564 31.358a7.33 7.33 0 0 1-5.27 7.875V0Z"/><path fill="#1E2054" d="m259.797 58.85-.853-1.478 25.375-18.764a7.33 7.33 0 0 1 9.455.625L259.797 58.85Zm67.953 0-.853 1.477-28.938-12.593a7.33 7.33 0 0 1-4.186-8.5L327.75 58.85Zm81.161 39.233-11.94 33.263h23.881l-11.941-33.263Zm1.706 33.263h-3.412v6.823h3.412z"/><path fill="#000" d="M222.664 187.339v-12.496l11.406 16.205h-28.998v-16.205l8.796 12.496v-12.496l8.796 12.496Zm648.988 1.171v-8.55l8.051 11.088h-20.469V179.96l6.209 8.55v-8.55l6.209 8.55Z"/><path fill="#090A20" d="M956.078 191.048h16.874l-1.778-16.198h-18.471l3.375 16.198Z"/><path fill="#1E2054" d="m900.738 135.702-12.824 12.824v21.936l6.75.337-2.025 20.249h16.198l3.375-16.199h3.375l-1.35 16.199h16.874l2.7-16.199h31.047l3.375 16.199h16.874l-6.075-55.346h-78.294Z"/><path fill="#090A20" fill-rule="evenodd" d="M890.45 178.224a4.964 4.964 0 0 1-4.733-3.453l-3.363-10.571h-2.068a4.964 4.964 0 0 1-4.733-3.453l-1.998-6.281h7.496l-3.954-5.94h37.462l-3.954 5.94h7.496l-1.998 6.281a4.964 4.964 0 0 1-4.733 3.453h-2.068l-3.363 10.571a4.964 4.964 0 0 1-4.733 3.453H890.45Zm-2.541-16.911c0 1.594 1.194 2.887 2.667 2.887 1.473 0 2.667-1.293 2.667-2.887 0-1.595-1.194-2.887-2.667-2.887-1.473 0-2.667 1.292-2.667 2.887Zm15.838 0c0 1.594-1.194 2.887-2.667 2.887-1.473 0-2.667-1.293-2.667-2.887 0-1.595 1.194-2.887 2.667-2.887 1.473 0 2.667 1.292 2.667 2.887Z" clip-rule="evenodd"/><path fill="#090A20" d="m943.258 121.528 28.836 4.473a7.889 7.889 0 0 1 6.632 6.935l.303 2.766H955.09c-6.535 0-11.832-5.297-11.832-11.832v-2.342Zm21.601 53.32h-24.973l.5 2.365a8.078 8.078 0 0 0 7.904 6.409h8.166a8.078 8.078 0 0 0 7.904-6.409l.499-2.365Z"/><path fill="#090A20" d="M947.983 182.947h3.374v2.378c0 .925-.746 1.671-1.672 1.671a1.705 1.705 0 0 1-1.702-1.702v-2.347Zm5.437 0h3.375v2.378c0 .925-.746 1.671-1.672 1.671a1.706 1.706 0 0 1-1.703-1.702v-2.347Z"/><path fill="#1E2054" d="m1080.99 172.283 6.82 18.764h-13.65l6.83-18.764Z"/><path fill="#090A20" d="M1256.68 131.345H1365v59.702h-108.32v-59.702Z"/><path fill="#1E2054" d="m1218.3 156.931 38.38-25.586 38.38 25.586v34.116h-76.76v-34.116Z"/><path fill="#090A20" d="M1233.66 168.872h46.05v22.175h-46.05v-22.175Z"/><path fill="#1E2054" d="M1166.27 127.08c0-11.776 9.55-21.322 21.33-21.322 11.77 0 21.32 9.546 21.32 21.322v63.967h-42.65V127.08Zm-71.63 23.881-11.94 33.263h23.88l-11.94-33.263Z"/><path fill="#1E2054" d="M1096.34 184.224h-3.412v6.823h3.412zm-49.47-22.174-7.68 22.175h15.36l-7.68-22.175Zm1.71 22.175h-3.412v6.823h3.412z"/><path fill="#000" d="M1124.8 187.339v-12.496l-11.4 16.205h29v-16.205l-8.8 12.496v-12.496l-8.8 12.496Zm-450.669 1.171v-8.55l7.705 11.088H668.19V179.96l5.941 8.55Z"/><path fill="url(#a)" d="m769.506 117 1.496.5-83.994 73.5h-66l148.498-74Z"/><path fill="url(#b)" d="m781.002 119.5 1 .5L756 191h-31.999l57.001-71.5Z"/><path fill="#A48A06" d="M774.502 114.25a3.25 3.25 0 1 1-6.5 0 3.25 3.25 0 0 1 6.5 0Zm11 3a3.25 3.25 0 1 1-6.5 0 3.25 3.25 0 0 1 6.5 0Z"/><defs><linearGradient id="a" x1="783.1" x2="732.321" y1="110.677" y2="230.623" gradientUnits="userSpaceOnUse"><stop stop-color="#A48A06"/><stop offset="1" stop-color="#A48A06" stop-opacity="0"/></linearGradient><linearGradient id="b" x1="780.733" x2="777.508" y1="111.443" y2="194.962" gradientUnits="userSpaceOnUse"><stop stop-color="#A48A06"/><stop offset="1" stop-color="#A48A06" stop-opacity="0"/></linearGradient></defs></svg>