<svg xmlns="http://www.w3.org/2000/svg" fill="none" viewBox="0 0 800 300"><g clip-path="url(#a)"><path fill="#000" d="M-60.297 158H122.61a128.016 128.016 0 0 1 86.992 34.079L320.703 300h-381V158Z"/><path fill="#000" d="m27.703 133 9 25h-18l9-25Z"/><path fill="#1E2054" d="M-387 232H77.475c28.899 0 56.952 9.763 79.624 27.709L208 300h-595v-68Z"/><path fill="#2C2F6F" d="M-292 265H10.7a64.188 64.188 0 0 1 40.139 14.098l26.126 20.937H-292V265Z"/><path fill="#000" d="M176.555 105h4.667l1.167 127h-7l1.166-127Zm4.701-50h2.185l4.565 40.17a9.39 9.39 0 0 1-6.75 10.088V55Z"/><path fill="#000" d="m137.732 130.387-1.092-1.893 32.506-24.038a9.388 9.388 0 0 1 12.111.802l-43.525 25.129Z"/><path fill="#000" d="m224.779 130.387-1.092 1.892-37.071-16.132a9.388 9.388 0 0 1-5.361-10.889l43.524 25.129ZM70.703 106l-16 44h32l-16-44Z"/><path fill="#000" d="m92.703 114-16 44h32l-16-44Zm-20 36h-4v8h4zM121 299.859v-14l10 14h-10Z"/><path fill="#000" d="M113 299.859v-14l10 14h-10ZM143 207l9 25h-18l9-25Z"/><path fill="#1E2054" d="M729 224h139v76H729v-76Z"/><path fill="#2C2F6F" d="m680 257 49-33 49 33v43h-98v-43Z"/><path fill="#1E2054" d="M700 273h58v28h-58v-28Z"/><path fill="#2C2F6F" d="M620 219c0-14.912 12.088-27 27-27s27 12.088 27 27v81h-54v-81Z"/><path fill="#000" d="M427 299.625v-14l10 14h-10Z"/><path fill="#000" d="M419 299.625v-14l10 14h-10Z"/><path fill="#000" d="M411 299.625v-14l10 14h-10Z"/><path fill="#1E2054" d="M351.139 198.936h-25.923v12.421h25.923z"/><path fill="#4E5195" d="m294.319 300.2 5.199-53.368 29.241-51.674h17.911l29.24 51.674 5.199 53.368h-21.697l-10.849-19.269h-21.698L316.016 300.2h-21.697Z"/><path fill="#000" d="M326.599 273.465h-8.205l-3.714 26.733h14.851l-2.932-26.733Zm22.34 0h8.204l3.714 26.733h-14.851l2.933-26.733Z"/><path fill="#4E5195" d="M352.639 273.451h-29.843l.928 4.377a10.818 10.818 0 0 0 10.582 8.573h6.823c5.109 0 9.521-3.575 10.581-8.573l.929-4.377Z"/><rect width="4.451" height="8.011" fill="#4E5195" rx="2.225" transform="matrix(-1 0 0 1 335.921 281.89)"/><rect width="4.451" height="8.011" fill="#4E5195" rx="2.225" transform="matrix(-1 0 0 1 343.931 281.89)"/><path stroke="#0E0F2D" d="m366 217.125-59 10m62.5 8H304m78.5 22.5-83.5-11m51.5 7-54.5 7.18m88 3.32-89.5 5.128m91 3.872H296m56 3.5-26 6m-30-.5h21.5m41.5 7.5 20.5-6m-84.5 5 20.5 6.5m57-65.5-36.5-5.5"/><path fill="#4E5195" stroke="#0E0F2D" d="M352.659 241.625v.334l-.309.128-9.659 4-.781.324.093-.841 1.953-17.577-16.548-4.58-.002-.001a6.983 6.983 0 0 1-5.173-6.414l-.656-14.103-2.256-.604a6.984 6.984 0 0 1-5.175-6.415l-.4-8.597-.032-.683.661.177 8.557 2.293-2.683-7.942-.299-.885.902.242 47.274 12.667.902.241-.701.617-6.295 5.537 8.557 2.293.661.177-.369.575-4.645 7.246a6.984 6.984 0 0 1-7.689 2.967l-2.256-.604-3.632 5.665v23.763Zm-6.838-33.269c1.557.417 3.252-.605 3.729-2.386.477-1.78-.48-3.513-2.037-3.93-1.557-.418-3.252.605-3.729 2.385-.477 1.781.479 3.514 2.037 3.931Zm-15.293-7.483c-.477 1.781.48 3.514 2.037 3.931 1.557.417 3.252-.605 3.729-2.386.478-1.78-.479-3.513-2.036-3.93-1.558-.417-3.253.605-3.73 2.385Z"/><path stroke="#0E0F2D" d="m340.772 227.125 11.601 3.108M322 217.625h31m-33-32.002 34.5.002"/><path fill="#4E5195" d="m356.068 211.619 2.609.699a6.484 6.484 0 0 0 7.139-2.754l.649-1.013-27.714-15.442-24.12 2.421.015.323a6.483 6.483 0 0 0 4.805 5.954l2.61.7.123 2.656 33.589 6.915.295-.459Z"/><path fill="#EC4612" d="M330.085 202.965c-.303-.957-.864-1.936-1.832-2.204l-54.424-15.085-.001.002 54.678 14.147c.972.251 1.947-.315 2.687-.992.862-.788 2.044-1.139 3.193-.831 1.144.306 1.99 1.195 2.345 2.302.309.961.879 1.944 1.855 2.206l3.165.848c.975.261 1.961-.305 2.709-.983.861-.781 2.037-1.128 3.181-.821 1.15.308 1.997 1.202 2.35 2.316.303.957.864 1.934 1.831 2.202l54.425 15.085-54.673-14.147c-.973-.252-1.948.315-2.689.993-.862.789-2.045 1.141-3.195.833-1.145-.307-1.991-1.196-2.345-2.304-.309-.963-.879-1.947-1.855-2.209l-3.161-.847c-.976-.261-1.962.306-2.711.985-.861.782-2.038 1.13-3.183.823-1.15-.308-1.998-1.204-2.35-2.319Z"/><path stroke="#0E0F2D" d="m322 205.125 34 7m-17.249-19.016-24.12 2.422m24.12-2.422 27.714 15.442m-27.714-15.442 24.12-2.421"/><path fill="#000" d="M535.084 300.198h21.661l-2.283-20.794h-23.71l4.332 20.794Z"/><path fill="#1E2054" d="m464.04 229.154-16.462 16.462v28.159l8.664.434-2.599 25.992h20.794l4.332-20.794h4.332l-1.733 20.794h21.661l3.466-20.794h39.855l4.332 20.794h21.661l-7.798-71.047H464.04Z"/><path fill="#2C2F6F" fill-rule="evenodd" d="M450.832 283.734a6.372 6.372 0 0 1-6.075-4.432l-4.317-13.57h-2.655a6.371 6.371 0 0 1-6.075-4.433l-2.565-8.063h9.622l-5.075-7.624h48.089l-5.075 7.624h9.623l-2.566 8.063a6.37 6.37 0 0 1-6.075 4.433h-2.654l-4.318 13.57a6.372 6.372 0 0 1-6.075 4.432h-13.809Zm-3.261-21.708c0 2.047 1.533 3.706 3.424 3.706s3.424-1.659 3.424-3.706c0-2.047-1.533-3.707-3.424-3.707s-3.424 1.66-3.424 3.707Zm20.332 0c0 2.047-1.533 3.706-3.424 3.706s-3.424-1.659-3.424-3.706c0-2.047 1.533-3.707 3.424-3.707s3.424 1.66 3.424 3.707Z" clip-rule="evenodd"/><path fill="#2C2F6F" d="m518.619 210.957 37.017 5.742a10.125 10.125 0 0 1 8.513 8.902l.39 3.551h-30.731c-8.388 0-15.189-6.8-15.189-15.189v-3.006Z"/><path fill="#4E5195" d="m518.475 210.625 37.016 5.742a10.127 10.127 0 0 1 8.514 8.902l.389 3.551h-30.73c-8.389 0-15.189-6.8-15.189-15.189v-3.006Zm-71.036 34.654 16.457-16.457h100.505l7.484 65.303-8.026-4-7.294 4-7.294-4-7.293 4-7.294-4-7.294 4-7.294-4-7.294 4-7.294-4-7.293 4-7.294-4-7.294 4-7.294-4-7.294 4-7.293-4-7.648 4 1.047-10.723h-4.457a6.37 6.37 0 0 1-6.075-4.433l-4.318-13.569h-2.654a6.373 6.373 0 0 1-6.076-4.433L429 252.904h9.623l-5.076-7.625h13.892Z"/><path fill="#0E0F2D" d="M447.57 262.025c0 2.047 1.533 3.706 3.424 3.706s3.424-1.659 3.424-3.706c0-2.047-1.533-3.707-3.424-3.707s-3.424 1.66-3.424 3.707Zm20.332 0c0 2.047-1.533 3.706-3.424 3.706s-3.424-1.659-3.424-3.706c0-2.047 1.533-3.707 3.424-3.707s3.424 1.66 3.424 3.707Z"/><path fill="url(#b)" fill-rule="evenodd" d="M450.832 283.734a6.371 6.371 0 0 1-6.075-4.433l-4.317-13.569h-2.655a6.373 6.373 0 0 1-6.075-4.433l-2.565-8.063h9.622l-5.075-7.625h48.089l-5.075 7.625h9.623l-2.566 8.063a6.372 6.372 0 0 1-6.075 4.433h-2.654l-4.318 13.569a6.371 6.371 0 0 1-6.075 4.433h-13.809Zm-3.261-21.709c0 2.047 1.533 3.707 3.424 3.707s3.424-1.66 3.424-3.707c0-2.047-1.533-3.706-3.424-3.706s-3.424 1.659-3.424 3.706Zm20.332 0c0 2.047-1.533 3.707-3.424 3.707s-3.424-1.66-3.424-3.707c0-2.047 1.533-3.706 3.424-3.706s3.424 1.659 3.424 3.706Z" clip-rule="evenodd"/><path fill="#0E0F2D" d="M447.57 262.025c0 2.047 1.533 3.706 3.424 3.706s3.424-1.659 3.424-3.706c0-2.047-1.533-3.707-3.424-3.707s-3.424 1.66-3.424 3.707Zm20.332 0c0 2.047-1.533 3.706-3.424 3.706s-3.424-1.659-3.424-3.706c0-2.047 1.533-3.707 3.424-3.707s3.424 1.66 3.424 3.707Z"/><path fill="#4E5195" fill-rule="evenodd" d="m476.719 93.62 6.23-10.792-7.209 1.888c-3.172.83-4.64 4.566-2.87 7.3l.618.956a9.418 9.418 0 0 0-2.172.213l-3.24-13.61c-1.097-4.613-6.129-6.957-10.392-4.843L429 88.958l19.297.83-2.905 7.047 10.73-6.495-.975 9.748 9.805-6.236 2.279 1.316a9.801 9.801 0 0 0-2.252 2.666c-2.655 4.599-1.162 10.433 3.336 13.029 4.497 2.597 10.295.973 12.951-3.626a9.77 9.77 0 0 0 1.182-3.283l2.28 1.316-.498 11.609 7.954-5.718-.26 12.54 4.651-6.039 10.367 16.296-2.022-31.954c-.3-4.749-4.846-7.934-9.389-6.579l-13.407 4a9.474 9.474 0 0 0-.902-1.988l1.136.058c3.254.166 5.755-2.974 4.888-6.136l-1.97-7.187-6.231 10.791a9.21 9.21 0 0 0-2.326-1.343Zm-6.505 7.236c.964.557 2.207.209 2.776-.777.569-.985.249-2.235-.715-2.792-.964-.556-2.206-.208-2.775.777-.569.986-.249 2.236.714 2.792Zm5.817 3.358c.964.557 2.206.209 2.775-.777.569-.985.249-2.235-.714-2.792-.964-.556-2.207-.208-2.776.777-.569.986-.249 2.236.715 2.792Z" clip-rule="evenodd"/><path fill="#2C2F6F" d="M62.064 171h13.635l-3.588 13.456h-6.46L62.065 171Z"/><ellipse cx="46.007" cy="210.202" fill="#1E2054" rx="13.007" ry="27.36"/><ellipse cx="77.045" cy="210.201" fill="#1E2054" rx="20.543" ry="28.795"/><ellipse cx="20.543" cy="28.795" fill="#1E2054" rx="20.543" ry="28.795" transform="matrix(-1 0 0 1 81.262 181.405)"/><ellipse cx="91.757" cy="210.202" fill="#1E2054" rx="13.007" ry="27.36"/><path fill="#000" d="M95.435 202.217c-14.665 14.592-38.44 14.592-53.105 0h53.105Z"/><path fill="#1E2054" d="M74.981 202.217h4.485v4.485h-4.485z"/><path fill="#000" d="M62.602 196.138c0 1.238.933 2.242 2.084 2.242 1.152 0 2.085-1.004 2.085-2.242 0-1.239-.933-2.243-2.085-2.243-1.151 0-2.084 1.004-2.084 2.243Zm12.378 0c0 1.238-.933 2.242-2.084 2.242s-2.085-1.004-2.085-2.242c0-1.239.934-2.243 2.085-2.243 1.151 0 2.085 1.004 2.085 2.243Z"/></g><defs><linearGradient id="b" x1="479" x2="454.5" y1="242.625" y2="267.125" gradientUnits="userSpaceOnUse"><stop stop-color="#2C2F6F"/><stop offset="1" stop-color="#4E5195"/></linearGradient><clipPath id="a"><path fill="#fff" d="M0 0h800v300H0z"/></clipPath></defs></svg>