<svg xmlns="http://www.w3.org/2000/svg" width="800" height="300" fill="none" viewBox="0 0 800 300"><g clip-path="url(#a)"><path fill="#0e0f2d" d="M0 0h800v300H0z"/><path fill="url(#b)" d="M0 300h300v800H0z" opacity=".6" transform="rotate(-90 0 300)"/><path fill="#000" d="M-60.297 158H122.61a128.02 128.02 0 0 1 86.992 34.079L320.703 300h-381z"/><path fill="#000" d="m27.703 133 9 25h-18z"/><path fill="#1e2054" d="M-387 232H77.475c28.899 0 56.952 9.763 79.624 27.709L208 300h-595z"/><path fill="#2c2f6f" d="M-252.543 265h302.7a64.2 64.2 0 0 1 40.138 14.098l26.126 20.937h-368.964z"/><path fill="#000" d="m70.703 106-16 44h32z"/><path fill="#000" d="m92.703 114-16 44h32zm-20 36h-4v8h4zM141 299.859v-14l10 14z"/><path fill="#000" d="M133 299.859v-14l10 14zM143 207l9 25h-18z"/><path fill="#0e0f2d" d="m697.04 274.677 9 25h-18z"/><path fill="#0e0f2d" d="m715.04 247.677 16 44h-32zm-2 44h4v8h-4zm-43.322-25 9 25h-18zm-2 25h4v8h-4zm94.658-24.325c0-12.982 10.524-23.507 23.507-23.507 12.982 0 23.506 10.525 23.506 23.507V300h-47.013z"/><path fill="#4e5195" d="M188.345 272.378c0-10.855 8.8-19.655 19.655-19.655s19.655 8.8 19.655 19.655v27.299h-39.31z"/><path fill="#2c2f6f" d="M-23.267 227.121c0-15.063 12.21-27.273 27.273-27.273s27.273 12.21 27.273 27.273V265h-54.546z"/><path fill="#ec4612" d="M266.057 80.135a29.15 29.15 0 0 1 14.396-3.926c-10.682 7.31-14.091 21.734-7.511 33.131 6.862 11.886 22.007 16.006 33.936 9.282a29.16 29.16 0 0 1-11.537 12.236c-14.006 8.086-31.916 3.287-40.003-10.72-8.086-14.006-3.288-31.916 10.719-40.003"/><path fill="#0e0f2d" d="M472.652 139.749h101.984v43.213H472.652z"/><path fill="#0e0f2d" d="M626.458 182.638v100.358H522.814V182.638z"/><path fill="#4e5195" d="m419.169 173.749 51.823-34 51.822 34v109.247H419.169z"/><path fill="#0e0f2d" d="M626.458 182.962H522.813v-9.213l51.823-34 51.822 34z"/><path fill="#ec4612" d="M499.376 282.996h-28.389V182.962c15.679 0 28.389 12.71 28.389 28.388z"/><path fill="#0e0f2d" d="M442.599 282.996h28.388V182.962c-15.678 0-28.388 12.71-28.388 28.388z"/><path fill="#0e0f2d" fill-rule="evenodd" d="M499.375 282.996h-5.035l4.456-16.467h-4.456a6.37 6.37 0 0 1-6.075-4.432l-4.317-13.571h-2.655q-.26 0-.517-.02a6.37 6.37 0 0 1-5.558-4.412l-2.566-8.063 9.622-.001-5.074-7.624h13.89l8.285-8.285z" clip-rule="evenodd"/><path fill="#0e0f2d" d="M405.941 282.996h116.873v17.681H405.941zm116.873 0h121.325v17.681H522.814z"/><path fill="#4e5195" d="M302.297 300.677h103.644v-17.681H302.297z"/><path fill="#4e5195" d="m362.752 175.366 13.882-3.082v23.434l-13.882-3.083 3.083 13.881h27.836l-8.095 76.48h15.913V301h-94.74v-18.004h15.913l-8.095-76.48h27.835l3.082-13.881-13.881 3.083v-23.434l13.881 3.082-3.082-13.881h23.433z"/><path fill="#0e0f2d" d="m347.177 230.68 3.895 4.879h-3.914l-3.181-5.746h-1.466v3.702l1.909 1.157v.887h-6.594v-.887l1.908-1.157v-9.776l-1.908-1.176v-.887h7.577c2.199 0 4.493 1.542 4.493 4.087 0 2.43-2.102 3.915-4.203 4.05zm-4.666-7.539v5.206h1.928c1.871 0 2.526-1.292 2.526-2.584 0-1.291-.655-2.622-2.526-2.622zm15.956-.578c-.636.385-1.272.771-1.909 1.176v9.795l1.909 1.138v.887h-6.594v-.887l1.909-1.157v-9.795l-1.909-1.157v-.887h6.594zm13.233 3.181c0 2.333-1.928 4.049-4.724 4.069h-2.622v3.721l1.909 1.138v.887h-6.595v-.887l1.909-1.157V223.7l-1.909-1.137v-.887h7.289c2.815.019 4.743 1.735 4.743 4.068m-5.669 2.603c2.333 0 2.758-1.369 2.758-2.603s-.425-2.603-2.758-2.603h-1.677v5.206zm-16.024 12.216-1.909 1.137v9.834l1.909 1.138v.887h-6.594v-.887l1.909-1.138V241.43l-3.915 12.129h-2.391l-4.454-11.917v9.853l1.909 1.177v.887h-5.283v-.887l1.909-1.177v-9.814l-1.909-1.118v-.887h5.418l4.011 11.627 3.702-11.627h5.688zm12.535 8.484h.887l-.771 4.512h-11.454v-.887l1.89-1.157h.019v-9.795l-1.909-1.157v-.887h11.068l.386 3.856h-.887l-2.276-2.391h-3.605v4.994l4.782-1.311v3.528l-4.782-1.272v5.013h3.914zm15.872-9.371v.887l-1.697 1.118-4.743 11.878h-2.16L365.11 241.7l-1.601-1.137v-.887h5.785v.887l-1.254 1.099 3.548 9.004 3.567-9.024-1.581-1.079v-.887z"/></g><defs><linearGradient id="b" x1="300" x2="0" y1="1100" y2="1100" gradientUnits="userSpaceOnUse"><stop stop-color="#2b6f0b" stop-opacity="0"/><stop offset="1" stop-color="#2b6f0b"/></linearGradient><clipPath id="a"><path fill="#fff" d="M0 0h800v300H0z"/></clipPath></defs></svg>