<svg xmlns="http://www.w3.org/2000/svg" width="1724" height="300" fill="none" viewBox="0 0 1724 300"><g clip-path="url(#a)"><path fill="#0e0f2d" d="M0 0h1724v300H0z"/><path fill="#1e2054" d="M1095.41 171.992h157.05V300h-157.05z" opacity=".5"/><path fill="#1e2054" d="M697.004 273.286h78.981V300h-78.981z"/><path fill="#1e2054" d="M1252.46 91.742h242.81v208.25h-242.81zM0 89.308h206.308v210.685H0zm89.323-20.321-6.268 10.857V67.308h-4v12.535l-6.268-10.856-3.464 2 6.268 10.857-10.857-6.268-2 3.464 10.856 6.267H61.055v4h40v-4H88.519l10.856-6.267-2-3.464-10.856 6.268 6.268-10.857zm1266.047 4.262 18.49 18.493h-18.49zm18.49 18.493 18.5-18.493v18.493z" opacity=".5"/><path fill="#2c2f6f" d="M1583.86 192h-110.08v108h110.08z"/><path stroke="#ae8d0b" stroke-width="4" d="M1473.78 192v108m9.17-108v108m9.17-108v108m9.18-108v108m9.17-108v108m9.18-108v108m9.17-108v108m9.18-108v108m9.17-108v108m9.17-108v108m9.18-108v108m9.17-108v108m9.17-108v108"/><path fill="#012f7a" d="M-188.703 265h364.458v35.035h-364.458z"/><mask id="b" width="365" height="36" x="-189" y="265" maskUnits="userSpaceOnUse" style="mask-type:alpha"><path fill="#004293" d="M-188.703 265h364.458v35.035h-364.458z"/></mask><g mask="url(#b)"><circle cx="27.248" cy="299.799" r="10.5" fill="#00a1ff"/><circle cx="159.248" cy="299.799" r="10.5" fill="#00a1ff"/><circle cx="27.248" cy="266.799" r="10.5" fill="#00a1ff"/><circle cx="159.248" cy="266.799" r="10.5" fill="#00a1ff"/><circle cx="-5.752" cy="299.799" r="10.5" fill="#00a1ff"/><circle cx="126.248" cy="299.799" r="10.5" fill="#00a1ff"/><circle cx="-5.752" cy="266.799" r="10.5" fill="#00a1ff"/><circle cx="126.248" cy="266.799" r="10.5" fill="#00a1ff"/><circle cx="93.248" cy="299.799" r="10.5" fill="#00a1ff"/><circle cx="93.248" cy="266.799" r="10.5" fill="#00a1ff"/><circle cx="60.248" cy="299.799" r="10.5" fill="#00a1ff"/><circle cx="60.248" cy="266.799" r="10.5" fill="#00a1ff"/><path fill="#d0ac10" d="M4.748 283.299a9.95 9.95 0 0 0 6-6 9.95 9.95 0 0 0 6 6 9.95 9.95 0 0 0-6 6 9.95 9.95 0 0 0-6-6m33 0a9.95 9.95 0 0 0 6-6 9.95 9.95 0 0 0 6 6 9.95 9.95 0 0 0-6 6 9.95 9.95 0 0 0-6-6m33 0a9.95 9.95 0 0 0 6-6 9.95 9.95 0 0 0 6 6 9.95 9.95 0 0 0-6 6 9.95 9.95 0 0 0-6-6m33 0a9.95 9.95 0 0 0 6-6 9.95 9.95 0 0 0 6 6 9.95 9.95 0 0 0-6 6 9.95 9.95 0 0 0-6-6m33 0a9.95 9.95 0 0 0 6-6 9.95 9.95 0 0 0 6 6 9.95 9.95 0 0 0-6 6 9.95 9.95 0 0 0-6-6m33 0a9.95 9.95 0 0 0 6-6 9.95 9.95 0 0 0 6 6 9.95 9.95 0 0 0-6 6 9.95 9.95 0 0 0-6-6"/></g><path fill="#ae8d0b" d="M299.497 228h40v4h-40z"/><path fill="#ae8d0b" d="m307.765 246.321 20-34.641 3.464 2-20 34.641z"/><path fill="#ae8d0b" d="m307.765 246.321 20-34.641 3.464 2-20 34.641z"/><path fill="#ae8d0b" d="m331.229 246.321-20-34.641-3.464 2 20 34.641z"/><path fill="#ae8d0b" d="M317.497 250v-40h4v40z"/><path fill="#ae8d0b" d="m335.818 241.732-34.641-20 2-3.464 34.641 20z"/><path fill="#ae8d0b" d="m335.818 241.732-34.641-20 2-3.464 34.641 20z"/><path fill="#ae8d0b" d="m303.177 241.732 34.641-20-2-3.464-34.641 20z"/><path fill="#3c3f83" d="M-28 232h725v68H-28z"/><path fill="#000" d="m52.856 232-68 68h-4.243l68-68zm19.927 0-68 68H.541l68-68zm19.928 0-68 68h-4.242l68-68zm19.928 0-68 68h-4.242l67.999-68zm19.927 0-68 68h-4.242l68-68zm19.928 0-68 68h-4.242l68-68zm19.928 0-68 68h-4.242l68-68zm19.928 0-68 68h-4.243l68-68zm19.927 0-68 68h-4.242l68-68zm19.928 0-68 68h-4.242l68-68zm19.928 0-68 68h-4.242l68-68zm19.928 0-68 68h-4.243l68-68zm19.927 0-68 68h-4.242l68-68zm19.928 0-68 68h-4.242l68-68zm19.928 0-68 68h-4.242l68-68zm19.927 0-68 68h-4.242l68-68zm19.928 0-68 68h-4.242l68-68zm19.928 0-68 68h-4.242l68-68zm19.928 0-68 68h-4.243l68-68zm19.927 0-68 68h-4.242l68-68zm19.928 0-68 68h-4.242l68-68zm19.928 0-68 68h-4.242l68-68zm19.928 0-68 68h-4.243l68-68zm19.927 0-68 68h-4.242l68-68zm20.079 0-68 68h-4.243l68-68zm19.777 0-68 68h-4.242l68-68zm19.777 0-68 68h-4.243l68-68zm19.777 0-68 68h-4.243l68-68zm19.777 0-68 68h-4.243l68-68zm19.776 0-68 68h-4.242l68-68zm19.778 0-68 68h-4.244l68-68zm19.776 0-68 68h-4.242l68-68zm19.777 0-68 68h-4.243l68-68zM697 244.264 641.264 300h-4.243L697 240.021zm0 19.777L661.041 300h-4.243L697 259.798zm0 19.776L680.817 300h-4.242L697 279.575zM32.928 232-28 292.928v-4.242L28.686 232zM13 232l-41 41v-4.242L8.758 232zm-19.928 0L-28 253.072v-4.242L-11.17 232z"/><path fill="#ae8d0b" d="M321.443 250.035h375.561v4H321.443V300h-4v-45.965H-1v-4h318.443V232h4z"/><path fill="#000" d="M-27 158h313v74H-27z"/><mask id="c" width="315" height="74" x="-29" y="158" maskUnits="userSpaceOnUse" style="mask-type:alpha"><path fill="#3fc4ff" d="M-28.394 158H286v74H-28.394z"/></mask><g fill="#3c3f83" mask="url(#c)"><path d="m-9.902 213.478 18.493 18.493H-9.902zm0-18.492 18.493 18.492H-9.902zm0-18.493 18.493 18.493H-9.902zm0-18.493 18.493 18.493H-9.902z"/><path d="m8.59 213.478 18.494 18.493H8.59zm0-18.492 18.494 18.492H8.59zm0-18.493 18.494 18.493H8.59zm0-18.493 18.494 18.493H8.59zm18.494 55.478 18.492 18.493H27.084zm0-18.492 18.492 18.492H27.084zm0-18.493 18.492 18.493H27.084zm0-18.493 18.492 18.493H27.084zm18.492 55.478 18.493 18.493H45.576zm0-18.492 18.493 18.492H45.576zm0-18.493 18.493 18.493H45.576zm0-18.493 18.493 18.493H45.576zm18.493 55.478 18.493 18.493H64.069zm0-18.492 18.493 18.492H64.069zm0-18.493 18.493 18.493H64.069zm0-18.493 18.493 18.493H64.069z"/><path d="m82.562 213.478 18.492 18.493H82.561zm0-18.492 18.492 18.492H82.561zm0-18.493 18.492 18.493H82.561zm0-18.493 18.492 18.493H82.561zm18.492 55.478 18.493 18.493h-18.493zm0-18.492 18.493 18.492h-18.493zm0-18.493 18.493 18.493h-18.493zm0-18.493 18.493 18.493h-18.493zm18.493 55.478 18.493 18.493h-18.493zm0-18.492 18.493 18.492h-18.493zm0-18.493 18.493 18.493h-18.493zm0-18.493 18.493 18.493h-18.493zm18.493 55.478 18.492 18.493H138.04zm0-18.492 18.492 18.492H138.04zm0-18.493 18.492 18.493H138.04zm0-18.493 18.492 18.493H138.04zm18.492 55.478 18.493 18.493h-18.493zm0-18.492 18.493 18.492h-18.493zm0-18.493 18.493 18.493h-18.493zm0-18.493 18.493 18.493h-18.493zm18.493 55.478 18.493 18.493h-18.493zm0-18.492 18.493 18.492h-18.493zm0-18.493 18.493 18.493h-18.493zm0-18.493 18.493 18.493h-18.493zm18.493 55.478 18.492 18.493h-18.492zm0-18.492 18.492 18.492h-18.492zm0-18.493 18.492 18.493h-18.492zm0-18.493 18.492 18.493h-18.492zm18.492 55.478 18.493 18.493H212.01zm0-18.492 18.493 18.492H212.01zm0-18.493 18.493 18.493H212.01zm0-18.493 18.493 18.493H212.01zm18.493 55.478 18.493 18.493h-18.493zm0-18.492 18.493 18.492h-18.493zm0-18.493 18.493 18.493h-18.493zm0-18.493 18.493 18.493h-18.493zm18.493 55.478 18.492 18.493h-18.492zm0-18.492 18.492 18.492h-18.492zm0-18.493 18.492 18.493h-18.492zm0-18.493 18.492 18.493h-18.492zm18.492 55.478 18.493 18.493h-18.493zm0-18.492 18.493 18.492h-18.493zm0-18.493 18.493 18.493h-18.493zm0-18.493 18.493 18.493h-18.493z"/></g><path fill="#3c3f83" d="M101.055 139.507 119.547 158h-18.492zM119.547 158l18.493-18.493V158z"/><path fill="#1e2054" d="M368.866 176.257H493.77V232H368.866z"/><path stroke="#3c3f83" stroke-width="4" d="M417.718 216.729c7.511 0 13.6-6.089 13.6-13.6"/><path stroke="#3c3f83" stroke-width="4" d="M444.918 216.729c-7.511 0-13.6-6.089-13.6-13.6m0 0c0-4.699 1.373-9.077 3.74-12.756 7.054-10.963 19.979 1.962 9.016 9.016a23.5 23.5 0 0 1-12.756 3.74Zm0 0c0-4.699-1.373-9.077-3.74-12.756-7.054-10.963-19.979 1.962-9.016 9.016a23.5 23.5 0 0 0 12.756 3.74Zm0-26.872V232m-62.452-28.872H493.77"/><path fill="#fff8f7" d="M911.134 198.23h25.923v12.421h-25.923z"/><path fill="#1e2054" d="m967.953 299.496-5.199-53.368-29.241-51.674-17.911.001-29.24 51.673-5.199 53.368h21.697l10.849-19.269h21.698l10.849 19.269z"/><path fill="#23191a" d="M935.674 272.76h8.204l3.715 26.733h-14.852zm-22.341 0h-8.204l-3.715 26.733h14.852z"/><path fill="#fccaf2" d="M909.634 272.747h29.843l-.929 4.377a10.82 10.82 0 0 1-10.581 8.572h-6.823a10.82 10.82 0 0 1-10.582-8.572z"/><rect width="4.451" height="8.011" x="926.352" y="281.186" fill="#fccaf2" rx="2.225"/><rect width="4.451" height="8.011" x="918.342" y="281.186" fill="#fccaf2" rx="2.225"/><path fill="#2c2f6f" fill-rule="evenodd" d="M921.16 225.862a6.48 6.48 0 0 1-7.139-2.754l-7.816-12.194-2.61.699a6.48 6.48 0 0 1-7.139-2.754l-4.644-7.245 9.459-2.535-6.996-6.153 47.274-12.667-2.982 8.827 9.459-2.535-.399 8.597a6.485 6.485 0 0 1-4.806 5.955l-2.609.699-.673 14.468a6.48 6.48 0 0 1-4.805 5.955zm-8.921-20.467c.539 2.011 2.483 3.237 4.342 2.739s2.929-2.532 2.39-4.543-2.483-3.237-4.342-2.739-2.929 2.532-2.39 4.543m19.987-5.356c.539 2.011-.531 4.045-2.39 4.543s-3.803-.728-4.342-2.739.532-4.045 2.391-4.543 3.802.728 4.341 2.739" clip-rule="evenodd"/><path fill="#1e2054" d="M847.493 246.483h52.347v53.514h-52.347z"/><path fill="#000" d="M899.84 246.483h95.291v53.514H899.84z"/><path fill="#3c3f83" d="m995.132 246.483 19.998 28.292h-95.29l-20-28.292z"/><path fill="#ae8d0b" d="M941.319 274.775h12.332v25.222h-12.332zm-73.818-28.292h12.332v53.514h-12.332z"/><path fill="#3c3f83" d="m899.84 246.483-20 28.292h-52.347l20-28.292z"/><path fill="#2c2f6f" d="M1536 223.993h188v76h-188z"/><path stroke="#3c3f83" stroke-width="4" d="M1536 261.988h188m-55.01 38.005v-76"/><path fill="#ae8d0b" d="m1673.8 236.895-4.89 3.318-4.91-3.358-3.25 4.982-5.79-1.195-1.12 5.889-5.78 1.149 1.17 5.897-4.88 3.319 3.29 5.01-3.25 4.983 4.91 3.359-1.13 5.889 5.79 1.197 1.17 5.897 5.78-1.149 3.29 5.01 4.89-3.318 4.91 3.357 3.25-4.981 5.79 1.195 1.12-5.889 5.78-1.149-1.17-5.897 4.88-3.319-3.29-5.009 3.25-4.985-4.91-3.359 1.13-5.888-5.79-1.197-1.17-5.897-5.78 1.149z"/><path fill="#23191a" d="M1144.16 299.989h21.66l-2.28-20.794h-23.71z"/><path fill="#1e2054" d="m1073.12 228.945-16.47 16.462v28.159l8.67.433-2.6 25.993h20.79l4.34-20.794h4.33l-1.73 20.794h21.66l3.46-20.794h39.86l4.33 20.794h21.66l-7.8-71.047z"/><path fill="#2c2f6f" fill-rule="evenodd" d="M1059.91 283.525a6.375 6.375 0 0 1-6.08-4.433l-4.31-13.569h-2.66a6.36 6.36 0 0 1-6.07-4.433l-2.57-8.063h9.62l-5.07-7.625h48.09l-5.08 7.625h9.63l-2.57 8.063a6.37 6.37 0 0 1-6.07 4.433h-2.66l-4.32 13.569a6.36 6.36 0 0 1-6.07 4.433zm-3.26-21.709c0 2.047 1.53 3.707 3.42 3.707s3.43-1.66 3.43-3.707-1.54-3.706-3.43-3.706-3.42 1.659-3.42 3.706m20.33 0c0 2.047-1.53 3.707-3.42 3.707-1.9 0-3.43-1.66-3.43-3.707s1.53-3.706 3.43-3.706c1.89 0 3.42 1.659 3.42 3.706" clip-rule="evenodd"/><path fill="#2c2f6f" d="m1127.7 210.748 37.01 5.742c4.53.702 8.02 4.351 8.52 8.901l.39 3.552h-30.73c-8.39 0-15.19-6.801-15.19-15.189zm27.73 68.449h-32.06l.64 3.036a10.37 10.37 0 0 0 10.15 8.227h10.48c4.9 0 9.13-3.431 10.15-8.227z"/><path fill="#2c2f6f" d="M1133.76 289.592h4.34v3.051c0 1.189-.96 2.146-2.15 2.146-1.2 0-2.19-.982-2.19-2.185zm6.98 0h4.34v3.051c0 1.189-.96 2.146-2.15 2.146-1.2 0-2.19-.982-2.19-2.185z"/></g><defs><clipPath id="a"><path fill="#fff" d="M0 0h1724v300H0z"/></clipPath></defs></svg>