<svg xmlns="http://www.w3.org/2000/svg" width="1724" height="300" fill="none" viewBox="0 0 1724 300"><g clip-path="url(#a)"><path fill="#0e0f2d" d="M0 0h1724v300H0z"/><path fill="url(#b)" d="M0 300h300v1724H0z" opacity=".6" transform="rotate(-90 0 300)"/><path fill="#000" d="M-27 158h182.906c32.268 0 63.344 12.173 86.993 34.079L286 232H-27zm88-25 9 25H52zm43-27-16 44h32z"/><path fill="#000" d="m126 114-16 44h32zm-20 36h-4v8h4z"/><path fill="#0e0f2d" d="m337.611 180 16 44h-32z"/><path fill="#0e0f2d" d="m315.611 188 16 44h-32zm20 36h4v8h-4z"/><path fill="#000" d="M838 300v-14l10 14z"/><path fill="#000" d="M830 300v-14l10 14z"/><path fill="#0e0f2d" d="m1360 275 9 25h-18z"/><path fill="#0e0f2d" d="m1378 248 16 44h-32zm-2 44h4v8h-4zm-60-25 9 25h-18zm-2 25h4v8h-4zm126 8v-20l-14 20z"/><path fill="#0e0f2d" d="M1429 300v-20l-14 20z"/><path fill="#0e0f2d" d="M1418 300v-20l-14 20zM-28 232h594.475c28.899 0 56.952 9.763 79.624 27.709L697 300H-28z"/><path fill="#2c2f6f" d="M-188.703 265h302.701a64.2 64.2 0 0 1 40.137 14.098l26.126 20.937h-368.964z"/><path fill="#0e0f2d" d="M424.222 215.218c0-6.674 5.41-12.083 12.083-12.083s12.083 5.409 12.083 12.083V232h-24.166z"/><path fill="#000" d="M22.052 149.305a6.26 6.26 0 0 1 12.52 0V158h-12.52z"/><path fill="#0e0f2d" d="M1533.49 275.487c0-9.748 7.9-17.65 17.65-17.65s17.65 7.902 17.65 17.65V300h-35.3zm135.81 9.978c0-5.78 4.69-10.465 10.47-10.465s10.46 4.685 10.46 10.465V300h-20.93zm-77.35-18.113c0-12.982 10.52-23.507 23.5-23.507 12.99 0 23.51 10.525 23.51 23.507V300h-47.01zM379.651 228.568c0-9.748 7.902-17.65 17.649-17.65s17.65 7.902 17.65 17.65v24.513h-35.299z"/><path fill="#4e5195" d="M462.802 272.737c0-10.856 8.8-19.656 19.655-19.656s19.656 8.8 19.656 19.656v27.298h-39.311z"/><path fill="#2c2f6f" d="M-5.222 227.121c0-15.063 12.21-27.273 27.273-27.273s27.274 12.21 27.274 27.273V265H-5.222z"/><path fill="#ec4612" d="M744.72 97.887a29.15 29.15 0 0 1 14.396-3.927c-10.682 7.311-14.091 21.734-7.511 33.131 6.862 11.887 22.007 16.007 33.936 9.283a29.15 29.15 0 0 1-11.537 12.235c-14.006 8.086-31.916 3.287-40.003-10.72-8.086-14.006-3.287-31.916 10.719-40.003"/><path fill="#0e0f2d" d="M1074.71 139.072h101.984v43.213H1074.71z"/><path fill="#0e0f2d" d="M1228.51 181.961v100.358h-103.64V181.961z"/><path fill="#4e5195" d="m1021.23 173.072 51.82-34 51.82 34v109.247h-103.64z"/><path fill="#0e0f2d" d="M1228.51 182.285h-103.64v-9.213l51.82-34 51.82 34z"/><path fill="#ec4612" d="M1101.43 282.319h-28.39V182.285c15.68 0 28.39 12.71 28.39 28.389z"/><path fill="#0e0f2d" d="M1044.66 282.319h28.38V182.285c-15.68 0-28.38 12.71-28.38 28.389z"/><path fill="#0e0f2d" fill-rule="evenodd" d="M1101.43 282.319h-5.03l4.45-16.466h-4.45a6.38 6.38 0 0 1-6.08-4.433l-4.32-13.57h-2.65a6.38 6.38 0 0 1-6.08-4.433l-2.56-8.063h9.62l-5.07-7.625h13.89l8.28-8.285z" clip-rule="evenodd"/><path fill="#0e0f2d" d="M1008 282.319h116.873V300H1008z"/><path fill="#0e0f2d" d="M1124.87 282.319h121.325V300H1124.87z"/><path fill="#4e5195" d="M904.353 300h103.644v-17.681H904.353z"/><path fill="#4e5195" d="m964.808 174.689 13.882-3.082v23.434l-13.882-3.083 3.083 13.881h27.836l-8.095 76.48h15.918v18.004h-94.745v-18.004h15.913l-8.094-76.48h27.834l3.083-13.881-13.881 3.083v-23.434l13.881 3.082-3.083-13.88h23.433z"/><path fill="#0e0f2d" d="m949.234 230.004 3.895 4.878h-3.915l-3.181-5.746h-1.466v3.702l1.909 1.157v.887h-6.594v-.887l1.909-1.157v-9.776l-1.909-1.176v-.887h7.578c2.198 0 4.492 1.542 4.492 4.088 0 2.429-2.101 3.914-4.203 4.049zm-4.667-7.54v5.206h1.929c1.87 0 2.526-1.291 2.526-2.583s-.656-2.623-2.526-2.623zm15.957-.578c-.637.385-1.273.771-1.909 1.176v9.795l1.909 1.138v.887h-6.595v-.887l1.909-1.157v-9.795l-1.909-1.157v-.887h6.595zm13.233 3.181c0 2.333-1.929 4.05-4.724 4.069h-2.623v3.721l1.909 1.138v.887h-6.594v-.887l1.909-1.157v-9.815l-1.909-1.137v-.887h7.288c2.815.019 4.744 1.735 4.744 4.068m-5.669 2.603c2.333 0 2.757-1.369 2.757-2.603s-.424-2.603-2.757-2.603h-1.678v5.206zm-16.024 12.216-1.909 1.137v9.834l1.909 1.138v.887h-6.595v-.887l1.909-1.138v-10.103l-3.914 12.128h-2.391l-4.454-11.916v9.853l1.909 1.176v.887h-5.284v-.887l1.909-1.176v-9.815l-1.909-1.118v-.887h5.419l4.01 11.627 3.702-11.627h5.689zm12.534 8.484h.887l-.771 4.512h-11.453v-.887l1.889-1.157h.02v-9.795l-1.909-1.157v-.887h11.067l.386 3.856h-.887l-2.275-2.391h-3.606v4.994l4.782-1.311v3.529l-4.782-1.273v5.013h3.914zm15.872-9.371v.887l-1.696 1.118-4.744 11.878h-2.159l-4.705-11.859-1.6-1.137v-.887h5.784v.887l-1.253 1.099 3.548 9.005 3.567-9.024-1.581-1.08v-.887z"/></g><defs><linearGradient id="b" x1="300" x2="0" y1="2024" y2="2024" gradientUnits="userSpaceOnUse"><stop stop-color="#2b6f0b" stop-opacity="0"/><stop offset="1" stop-color="#2b6f0b"/></linearGradient><clipPath id="a"><path fill="#fff" d="M0 0h1724v300H0z"/></clipPath></defs></svg>