<svg xmlns="http://www.w3.org/2000/svg" fill="none" viewBox="0 0 800 300"><g clip-path="url(#a)"><path fill="#65D9FF" d="M0 0h800v300H0z"/><path fill="#3FC4FF" d="M-244 158h182.906A128.02 128.02 0 0 1 25.9 192.079L69 232h-313v-74Z"/><path fill="#FFF8F7" d="m20 207 9 25H11l9-25Zm-362 25h464.475c28.899 0 56.952 9.763 79.624 27.709L253 300h-595v-68Z"/><path fill="#00A1FF" d="M-254 265H48.7a64.188 64.188 0 0 1 40.138 14.098l26.126 20.937H-254V265Zm363.555-160h4.667l1.167 127h-7l1.166-127Zm4.701-50h2.185l4.565 40.17a9.39 9.39 0 0 1-6.75 10.088V55Z"/><path fill="#00A1FF" d="m70.732 130.387-1.092-1.893 32.506-24.038a9.388 9.388 0 0 1 12.111.802l-43.525 25.129Z"/><path fill="#00A1FF" d="m157.779 130.387-1.092 1.892-37.071-16.132a9.388 9.388 0 0 1-5.361-10.889l43.524 25.129ZM62 180l-16 44h32l-16-44Z"/><path fill="#FFF8F7" d="m62 180-9.818 27h19.636L62 180Zm23 8-16 44h32l-16-44Z"/><path fill="#00A1FF" d="M64 224h-4v8h4z"/><path fill="#23191A" d="M528.94 300.573h21.66l-2.282-20.794h-23.711l4.333 20.794Z"/><path fill="#FFF8F7" d="m457.895 229.529-16.462 16.462v28.159l8.664.433-2.599 25.993h20.794l4.332-20.794h4.333l-1.733 20.794h21.66l3.466-20.794h39.856l4.332 20.794h21.66l-7.797-71.047H457.895Z"/><path fill="#23191A" fill-rule="evenodd" d="M444.688 284.11a6.37 6.37 0 0 1-6.075-4.433l-4.318-13.57h-2.654a6.372 6.372 0 0 1-6.076-4.433L423 253.611h9.623l-5.076-7.624h48.09l-5.076 7.624h9.623l-2.565 8.063a6.372 6.372 0 0 1-6.076 4.433h-2.654l-4.318 13.57a6.37 6.37 0 0 1-6.075 4.433h-13.808Zm-3.262-21.709c0 2.047 1.533 3.706 3.424 3.706s3.424-1.659 3.424-3.706c0-2.047-1.533-3.707-3.424-3.707s-3.424 1.66-3.424 3.707Zm20.332 0c0 2.047-1.533 3.706-3.424 3.706s-3.424-1.659-3.424-3.706c0-2.047 1.533-3.707 3.424-3.707s3.424 1.66 3.424 3.707Z" clip-rule="evenodd"/><path fill="#23191A" d="m512.475 211.332 37.017 5.742a10.127 10.127 0 0 1 8.513 8.902l.39 3.551h-30.731c-8.389 0-15.189-6.8-15.189-15.189v-3.006Z"/><path fill="#FCCAF2" d="M540.205 279.781h-32.058l.641 3.036a10.37 10.37 0 0 0 10.147 8.227h10.482a10.37 10.37 0 0 0 10.147-8.227l.641-3.036Z"/><path fill="#FCCAF2" d="M518.543 290.176h4.332v3.052a2.142 2.142 0 0 1-2.146 2.146 2.19 2.19 0 0 1-2.186-2.186v-3.012Zm6.98 0h4.332v3.052a2.142 2.142 0 0 1-2.146 2.146 2.19 2.19 0 0 1-2.186-2.186v-3.012Z"/><path fill="#EC4612" d="M390 284h43v19h-43z"/><path fill="#FDC99F" d="M407 284h9v19h-9z"/><path fill="#EC4612" d="M433 284h20l-20 10v-10Z"/><path fill="#FFF8F7" d="m283.78 174.875-32.841 8.8 2.329 8.693 32.841-8.8z"/><path fill="#D11347" d="m278.951 176.17-18.58-22.975-4.603 29.186 23.183-6.211Z"/><circle cx="6" cy="6" r="6" fill="#FFF8F7" transform="scale(-1 1) rotate(15 -686.216 -932.048)"/><path fill="#FFF8F7" d="M262.971 199.31h25.923v12.421h-25.923z"/><path fill="#FFF8F7" d="m319.791 300.576-5.2-53.368-29.24-51.674H267.44l-29.241 51.674L233 300.576h21.698l10.848-19.269h21.698l10.849 19.269h21.698Z"/><path fill="#23191A" d="M287.511 273.839h8.204l3.715 26.733h-14.852l2.933-26.733Zm-22.34 0h-8.204l-3.715 26.733h14.852l-2.933-26.733Z"/><circle cx="276.416" cy="250.623" r="3.561" fill="#23191A"/><path fill="#F2CD16" d="M269.255 235.363a7.32 7.32 0 0 1 14.322 0l3.224 15.261h-20.77l3.224-15.261Z"/><path fill="#FCCAF2" d="M261.471 273.826h29.843l-.928 4.377a10.818 10.818 0 0 1-10.582 8.573h-6.822a10.818 10.818 0 0 1-10.582-8.573l-.929-4.377Z"/><rect width="4.451" height="8.011" x="278.189" y="282.265" fill="#FCCAF2" rx="2.225"/><rect width="4.451" height="8.011" x="270.179" y="282.265" fill="#FCCAF2" rx="2.225"/><path fill="#23191A" fill-rule="evenodd" d="M272.997 226.942a6.485 6.485 0 0 1-7.139-2.755l-7.816-12.193-2.609.699a6.484 6.484 0 0 1-7.139-2.754l-4.645-7.246 9.46-2.534-6.996-6.154 47.273-12.667-2.982 8.827 9.46-2.534-.4 8.597a6.483 6.483 0 0 1-4.805 5.954l-2.61.7-.672 14.468a6.483 6.483 0 0 1-4.805 5.954l-13.575 3.638Zm-8.921-20.468c.539 2.011 2.483 3.238 4.342 2.74 1.859-.498 2.929-2.532 2.39-4.543-.538-2.011-2.482-3.238-4.341-2.74-1.859.499-2.929 2.533-2.391 4.543Zm19.988-5.355c.539 2.011-.532 4.045-2.391 4.543-1.859.498-3.802-.728-4.341-2.739-.539-2.011.531-4.045 2.39-4.543 1.859-.498 3.803.728 4.342 2.739Z" clip-rule="evenodd"/><circle cx="369" cy="197" r="7" fill="#D11347"/><circle cx="320" cy="234" r="7" fill="#EC4612"/><path fill="#194D05" d="m297 300 53-154 53 154H297Z"/><circle cx="362" cy="233" r="7" fill="#F996EE" transform="rotate(180 362 233)"/><circle cx="336" cy="245" r="7" fill="#F2CD16"/><circle cx="328" cy="212" r="7" fill="#00A1FF"/><circle cx="350" cy="187" r="7" fill="#F2CD16"/><circle cx="390" cy="259" r="7" fill="#00A1FF"/><path fill="#FFF8F7" d="m350 146 3.241-8.759L362 134l-8.759-3.241L350 122l-3.241 8.759L338 134l8.759 3.241L350 146Z"/><path fill="#D11347" d="M279 263h58v37h-58z"/><path fill="#00A1FF" d="M327 281h45v19h-45z"/><path fill="#CCF8FF" d="M346 281h8v19h-8z"/><path fill="#F996EE" d="M301 263h14v37h-14z"/><path fill="#FFF8F7" d="M435 237h34v9h-34z"/><path fill="#D11347" d="m440 237 12-27 12 27h-24Z"/><circle cx="452" cy="210" r="6" fill="#FFF8F7"/><path fill="#F996EE" d="M416 284h13l-4 4h4l-4 4h4l-6 6-7-14Z"/><path fill="#00A1FF" d="M736 224h139v76H736v-76Z"/><path fill="#FFF8F7" d="M687 253.822c0-3.327 1.655-6.436 4.414-8.295l43.32-29.174a4.999 4.999 0 0 1 2.793-.853H875V257h-15.176a19.999 19.999 0 0 0-10.737 3.127l-3.899 2.48a4.074 4.074 0 0 1-4.376 0A35.87 35.87 0 0 0 821.555 257H736v-33l-49 33v-3.178Zm-106.966 43.54A30 30 0 0 1 599.719 290H624v10h-47l3.034-2.638Z"/><path fill="#3FC4FF" d="m687 257 49-33 49 33v43h-98v-43Z"/><path fill="#00A1FF" d="M707 273h58v27h-58v-27Z"/><path fill="#3FC4FF" d="M620 219c0-14.912 12.088-27 27-27s27 12.088 27 27v81h-54v-81Z"/><path fill="#FFF8F7" d="M668.75 203h-43.501c4.916-6.672 12.828-11 21.751-11 8.923 0 16.835 4.328 21.75 11Zm-15.197 85.295A30 30 0 0 1 673.161 281H687v19h-47l13.553-11.705Zm122 9A30 30 0 0 1 795.161 290H907v19H762l13.553-11.705Z"/></g><defs><clipPath id="a"><path fill="#fff" d="M0 0h800v300H0z"/></clipPath></defs></svg>