<svg xmlns="http://www.w3.org/2000/svg" fill="none" viewBox="0 0 375 300"><g clip-path="url(#a)"><path fill="#2C2F6F" d="M-299 265H3.7a64.188 64.188 0 0 1 40.139 14.098l26.126 20.937H-299V265Z"/><path fill="#000" d="M-248 158h182.906A128.02 128.02 0 0 1 21.9 192.079L133 300h-381V158Z"/><path fill="#000" d="M55.555 111h4.667l1.167 127h-7l1.166-127Zm4.701-50h2.185l4.565 40.17a9.39 9.39 0 0 1-6.75 10.088V61Z"/><path fill="#000" d="m16.732 136.387-1.092-1.893 32.506-24.038a9.389 9.389 0 0 1 12.111.802l-43.525 25.129Z"/><path fill="#000" d="m103.779 136.387-1.092 1.892-37.07-16.132a9.389 9.389 0 0 1-5.363-10.889l43.525 25.129ZM184 300v-14l10 14h-10Z"/><path fill="#000" d="M176 300v-14l10 14h-10Z"/><path fill="#000" d="M168 300v-14l10 14h-10Z"/><path fill="#2C2F6F" d="M344 219c0-14.912 12.088-27 27-27s27 12.088 27 27v81h-54v-81Zm-659 46h302.7a64.188 64.188 0 0 1 40.138 14.098l26.127 20.937H-315V265Z"/><path fill="#000" d="M287.084 299.573h21.661l-2.283-20.794h-23.71l4.332 20.794Z"/><path fill="#1E2054" d="m216.04 228.529-16.462 16.463v28.158l8.664.434-2.6 25.992h20.795l4.332-20.794h4.332l-1.733 20.794h21.661l3.465-20.794h39.856l4.332 20.794h21.661l-7.798-71.047H216.04Z"/><path fill="#2C2F6F" fill-rule="evenodd" d="M202.832 283.109a6.372 6.372 0 0 1-6.075-4.432l-4.317-13.57h-2.655a6.371 6.371 0 0 1-6.075-4.433l-2.565-8.063h9.622l-5.075-7.624h48.089l-5.075 7.624h9.623l-2.566 8.063a6.37 6.37 0 0 1-6.075 4.433h-2.654l-4.318 13.57a6.372 6.372 0 0 1-6.075 4.432h-13.809Zm-3.261-21.708c0 2.047 1.533 3.706 3.424 3.706s3.424-1.659 3.424-3.706c0-2.047-1.533-3.707-3.424-3.707s-3.424 1.66-3.424 3.707Zm20.332 0c0 2.047-1.533 3.706-3.424 3.706s-3.424-1.659-3.424-3.706c0-2.047 1.533-3.707 3.424-3.707s3.424 1.66 3.424 3.707Z" clip-rule="evenodd"/><path fill="#2C2F6F" d="m270.62 210.332 37.016 5.742a10.127 10.127 0 0 1 8.514 8.902l.389 3.551h-30.731c-8.388 0-15.188-6.8-15.188-15.189v-3.006Z"/><path fill="#4E5195" d="m270.475 210 37.016 5.742a10.127 10.127 0 0 1 8.514 8.902l.389 3.551h-30.73c-8.389 0-15.189-6.8-15.189-15.189V210Zm-71.036 34.654 16.457-16.457h100.505l7.484 65.303-8.026-4-7.294 4-7.294-4-7.293 4-7.294-4-7.294 4-7.294-4-7.294 4-7.294-4-7.293 4-7.294-4-7.294 4-7.294-4-7.294 4-7.293-4-7.648 4 1.047-10.723h-4.457a6.37 6.37 0 0 1-6.075-4.433l-4.318-13.569h-2.654a6.373 6.373 0 0 1-6.076-4.433L181 252.279h9.623l-5.076-7.625h13.892Z"/><path fill="#0E0F2D" d="M199.57 261.4c0 2.047 1.533 3.706 3.424 3.706s3.424-1.659 3.424-3.706c0-2.047-1.533-3.707-3.424-3.707s-3.424 1.66-3.424 3.707Zm20.332 0c0 2.047-1.533 3.706-3.424 3.706s-3.424-1.659-3.424-3.706c0-2.047 1.533-3.707 3.424-3.707s3.424 1.66 3.424 3.707Z"/><path fill="url(#b)" fill-rule="evenodd" d="M202.832 283.109a6.371 6.371 0 0 1-6.075-4.433l-4.317-13.569h-2.655a6.373 6.373 0 0 1-6.075-4.433l-2.565-8.063h9.622l-5.075-7.625h48.089l-5.075 7.625h9.623l-2.566 8.063a6.372 6.372 0 0 1-6.075 4.433h-2.654l-4.318 13.569a6.371 6.371 0 0 1-6.075 4.433h-13.809Zm-3.261-21.709c0 2.047 1.533 3.707 3.424 3.707s3.424-1.66 3.424-3.707c0-2.047-1.533-3.706-3.424-3.706s-3.424 1.659-3.424 3.706Zm20.332 0c0 2.047-1.533 3.707-3.424 3.707s-3.424-1.66-3.424-3.707c0-2.047 1.533-3.706 3.424-3.706s3.424 1.659 3.424 3.706Z" clip-rule="evenodd"/><path fill="#0E0F2D" d="M199.57 261.4c0 2.047 1.533 3.706 3.424 3.706s3.424-1.659 3.424-3.706c0-2.047-1.533-3.707-3.424-3.707s-3.424 1.66-3.424 3.707Zm20.332 0c0 2.047-1.533 3.706-3.424 3.706s-3.424-1.659-3.424-3.706c0-2.047 1.533-3.707 3.424-3.707s3.424 1.66 3.424 3.707Z"/><path fill="#1E2054" d="M126.311 198.936h-25.923v12.421h25.923z"/><path fill="#4E5195" d="m69.49 300.2 5.2-53.368 29.241-51.674h17.91l29.241 51.674 5.199 53.368h-21.697l-10.849-19.269h-21.698L91.188 300.2H69.491Z"/><path fill="#000" d="M101.77 273.465h-8.204l-3.715 26.733h14.852l-2.933-26.733Zm22.34 0h8.205l3.714 26.733h-14.851l2.932-26.733Z"/><path fill="#4E5195" d="M127.811 273.451H97.968l.928 4.377a10.818 10.818 0 0 0 10.582 8.573h6.822c5.109 0 9.522-3.575 10.582-8.573l.929-4.377Z"/><rect width="4.451" height="8.011" fill="#4E5195" rx="2.225" transform="matrix(-1 0 0 1 111.092 281.891)"/><rect width="4.451" height="8.011" fill="#4E5195" rx="2.225" transform="matrix(-1 0 0 1 119.103 281.891)"/><path stroke="#0E0F2D" d="m141.172 217.125-59 10m62.5 8h-65.5m78.5 22.5-83.5-11m51.5 7-54.5 7.18m88 3.32-89.5 5.128m91 3.872h-89.5m56 3.5-26 6m-30-.5h21.5m41.5 7.5 20.5-6m-84.5 5 20.5 6.5m57-65.5-36.5-5.5"/><path fill="#4E5195" stroke="#0E0F2D" d="M127.831 241.625v.334l-.309.128-9.659 4-.781.324.093-.841 1.953-17.577-16.548-4.58-.002-.001a6.983 6.983 0 0 1-5.173-6.414l-.656-14.103-2.256-.604a6.984 6.984 0 0 1-5.175-6.415l-.4-8.597-.032-.683.66.177 8.558 2.293-2.683-7.942-.299-.885.902.242 47.274 12.667.902.241-.701.617-6.295 5.537 8.557 2.293.661.177-.369.575-4.645 7.246a6.984 6.984 0 0 1-7.689 2.967l-2.256-.604-3.632 5.665v23.763Zm-6.839-33.269c1.558.417 3.253-.605 3.73-2.386.477-1.78-.48-3.513-2.037-3.93-1.557-.418-3.252.605-3.729 2.385-.478 1.781.479 3.514 2.036 3.931Zm-15.292-7.483c-.477 1.781.48 3.514 2.037 3.931 1.557.417 3.252-.605 3.729-2.386.477-1.78-.479-3.513-2.037-3.93-1.557-.417-3.252.605-3.729 2.385Z"/><path stroke="#0E0F2D" d="m115.944 227.125 11.601 3.108m-30.373-12.608h31m-33-32.002 34.5.002"/><path fill="#4E5195" d="m131.24 211.619 2.609.699a6.484 6.484 0 0 0 7.139-2.754l.649-1.013-27.714-15.442-24.12 2.421.015.323a6.482 6.482 0 0 0 4.805 5.954l2.61.7.123 2.656 33.589 6.915.295-.459Z"/><path fill="#EC4612" d="M105.257 202.965c-.303-.957-.864-1.936-1.832-2.204l-54.424-15.085-.001.002 54.678 14.147c.972.251 1.946-.315 2.687-.992.862-.788 2.044-1.139 3.193-.831 1.144.306 1.99 1.195 2.345 2.302.309.961.879 1.944 1.854 2.206l3.166.848c.975.261 1.96-.305 2.709-.983.861-.781 2.037-1.128 3.181-.821 1.15.308 1.997 1.202 2.35 2.316.303.957.864 1.934 1.831 2.202l54.425 15.085-54.674-14.147c-.972-.252-1.947.315-2.688.993-.862.789-2.045 1.141-3.195.833-1.145-.307-1.991-1.196-2.346-2.304-.308-.963-.878-1.947-1.855-2.209l-3.16-.847c-.976-.261-1.962.306-2.711.985-.861.782-2.038 1.13-3.183.823-1.15-.308-1.998-1.204-2.35-2.319Z"/><path stroke="#0E0F2D" d="m97.172 205.125 34 7m-17.249-19.016-24.12 2.422m24.12-2.422 27.714 15.442m-27.714-15.442 24.119-2.421"/><path fill="#000" d="m69.49 300.2 5.2-53.368h-5.2V300.2Z"/><path fill="#4E5195" fill-rule="evenodd" d="m223.718 93.62 6.23-10.792-7.209 1.888c-3.172.83-4.64 4.566-2.87 7.3l.618.956a9.418 9.418 0 0 0-2.172.213l-3.24-13.61c-1.097-4.613-6.129-6.957-10.392-4.843l-28.684 14.226 19.297.83-2.905 7.047 10.73-6.495-.975 9.748 9.805-6.236 2.279 1.316a9.798 9.798 0 0 0-2.251 2.666c-2.656 4.599-1.163 10.433 3.335 13.029 4.497 2.597 10.296.973 12.951-3.626a9.77 9.77 0 0 0 1.182-3.283l2.28 1.316-.498 11.609 7.954-5.718-.26 12.54 4.651-6.039 10.367 16.296-2.022-31.954c-.3-4.749-4.846-7.934-9.389-6.579l-13.407 4a9.474 9.474 0 0 0-.902-1.988l1.136.058c3.254.166 5.755-2.974 4.888-6.136l-1.97-7.187-6.23 10.791a9.302 9.302 0 0 0-2.327-1.343Zm-6.505 7.236c.964.557 2.207.209 2.776-.777.569-.985.249-2.235-.715-2.792-.964-.556-2.206-.208-2.775.777-.569.986-.249 2.236.714 2.792Zm5.817 3.358c.964.557 2.206.209 2.775-.777.569-.985.249-2.235-.714-2.792-.964-.556-2.207-.208-2.776.777-.569.986-.249 2.236.715 2.792Z" clip-rule="evenodd"/></g><defs><linearGradient id="b" x1="231" x2="206.5" y1="242" y2="266.5" gradientUnits="userSpaceOnUse"><stop stop-color="#2C2F6F"/><stop offset="1" stop-color="#4E5195"/></linearGradient><clipPath id="a"><path fill="#fff" d="M0 0h375v300H0z"/></clipPath></defs></svg>