<svg xmlns="http://www.w3.org/2000/svg" fill="none" viewBox="0 0 1724 300"><g clip-path="url(#a)"><path fill="#65D9FF" d="M0 0h1724v300H0z"/><path fill="#00A1FF" d="M1585 224h139v76h-139v-76Z"/><path fill="#3FC4FF" d="M-27 158h182.906c32.268 0 63.344 12.173 86.993 34.079L286 232H-27v-74Zm88-25 9 25H52l9-25Z"/><path fill="#FFF8F7" d="M-28 232h594.475c28.899 0 56.953 9.763 79.624 27.709L697 300H-28v-68Z"/><path fill="#00A1FF" d="M-188.703 265h302.701a64.185 64.185 0 0 1 40.137 14.098l26.126 20.937h-368.964V265Z"/><path fill="#FFF8F7" d="m460 207 9 25h-18l9-25Z"/><path fill="#00A1FF" d="M344.167 105h4.666L350 232h-7l1.167-127Z"/><path fill="#FFF8F7" d="m1608 239.5-23-15.5-49 33v-3.178a9.997 9.997 0 0 1 4.41-8.295l43.32-29.174c.83-.556 1.8-.853 2.8-.853H1724V257h-15.18c-3.8 0-7.52 1.085-10.73 3.127l-3.9 2.48a4.08 4.08 0 0 1-4.38 0 35.839 35.839 0 0 0-19.25-5.607H1634l-26-17.5Z"/><path fill="#00A1FF" d="M348.867 55h2.185l4.565 40.17a9.39 9.39 0 0 1-6.75 10.088V55Z"/><path fill="#00A1FF" d="m305.344 130.387-1.093-1.893 32.506-24.038a9.39 9.39 0 0 1 12.112.802l-43.525 25.129Z"/><path fill="#00A1FF" d="m392.391 130.387-1.093 1.892-37.07-16.132a9.388 9.388 0 0 1-5.362-10.889l43.525 25.129Z"/><path fill="#3FC4FF" d="m104 106-16 44h32l-16-44Z"/><path fill="#3FC4FF" d="m126 114-16 44h32l-16-44Zm-20 36h-4v8h4z"/><path fill="#FFF8F7" d="m1360 275 9 25h-18l9-25Z"/><path fill="#FFF8F7" d="m1378 248 16 44h-32l16-44Zm-2 44h4v8h-4zm-60-25 9 25h-18l9-25Zm-2 25h4v8h-4z"/><path fill="#3FC4FF" d="m1536 257 49-33 49 33v43h-98v-43Z"/><path fill="#00A1FF" d="M1556 273h58v27h-58v-27Z"/><path fill="#3FC4FF" d="M1469 219c0-14.912 12.09-27 27-27s27 12.088 27 27v81h-54v-81Z"/><path fill="#FFF8F7" d="M1517.75 203h-43.5c4.91-6.672 12.83-11 21.75-11s16.83 4.328 21.75 11Zm-15.2 85.295a30.005 30.005 0 0 1 19.61-7.295H1536v19h-47l13.55-11.705Zm122 9a30.005 30.005 0 0 1 19.61-7.295H1756v19h-145l13.55-11.705Zm-199.52.067a30.005 30.005 0 0 1 19.69-7.362H1469v10h-47l3.03-2.638Z"/><path fill="#FFF8F7" d="M1713 310c0 11.598-9.4 21-21 21s-21-9.402-21-21 9.4-31 21-31 21 19.402 21 31Z"/><path fill="#23191A" d="M1173.94 300.573h21.66l-2.28-20.794h-23.71l4.33 20.794Z"/><path fill="#FFF8F7" d="m1102.9 229.529-16.47 16.462v28.159l8.67.433-2.6 25.993h20.79l4.33-20.794h4.34l-1.74 20.794h21.66l3.47-20.794h39.86l4.33 20.794h21.66l-7.8-71.047h-100.5Z"/><path fill="#23191A" fill-rule="evenodd" d="M1089.69 284.11a6.376 6.376 0 0 1-6.08-4.433l-4.31-13.57h-2.66a6.363 6.363 0 0 1-6.07-4.433l-2.57-8.063h9.62l-5.07-7.624h48.09l-5.08 7.624h9.62l-2.56 8.063a6.375 6.375 0 0 1-6.08 4.433h-2.65l-4.32 13.57a6.373 6.373 0 0 1-6.07 4.433h-13.81Zm-3.26-21.709c0 2.047 1.53 3.706 3.42 3.706s3.42-1.659 3.42-3.706c0-2.047-1.53-3.707-3.42-3.707s-3.42 1.66-3.42 3.707Zm20.33 0c0 2.047-1.53 3.706-3.43 3.706-1.89 0-3.42-1.659-3.42-3.706 0-2.047 1.53-3.707 3.42-3.707 1.9 0 3.43 1.66 3.43 3.707Z" clip-rule="evenodd"/><path fill="#23191A" d="m1157.48 211.332 37.01 5.742c4.53.702 8.02 4.351 8.52 8.902l.38 3.551h-30.73c-8.38 0-15.18-6.8-15.18-15.189v-3.006Z"/><path fill="#FCCAF2" d="M1185.2 279.781h-32.05l.64 3.036a10.361 10.361 0 0 0 10.14 8.227h10.49c4.9 0 9.13-3.431 10.14-8.227l.64-3.036Z"/><path fill="#FCCAF2" d="M1163.54 290.176h4.33v3.052c0 1.188-.95 2.146-2.14 2.146a2.19 2.19 0 0 1-2.19-2.186v-3.012Zm6.98 0h4.33v3.052c0 1.188-.95 2.146-2.14 2.146a2.19 2.19 0 0 1-2.19-2.186v-3.012Z"/><path fill="#EC4612" d="M1035 284h43v19h-43z"/><path fill="#FDC99F" d="M1052 284h9v19h-9z"/><path fill="#EC4612" d="M1078 284h20l-20 10v-10Z"/><path fill="#FFF8F7" d="m928.78 174.875-32.841 8.8 2.329 8.693 32.841-8.8z"/><path fill="#D11347" d="m923.951 176.17-18.58-22.975-4.603 29.186 23.183-6.211Z"/><circle cx="6" cy="6" r="6" fill="#FFF8F7" transform="scale(-1 1) rotate(15 -1008.716 -3381.68)"/><path fill="#FFF8F7" d="M907.971 199.31h25.923v12.421h-25.923z"/><path fill="#FFF8F7" d="m964.791 300.576-5.2-53.368-29.24-51.674H912.44l-29.241 51.674L878 300.576h21.698l10.848-19.269h21.698l10.849 19.269h21.698Z"/><path fill="#23191A" d="M932.511 273.839h8.204l3.715 26.733h-14.851l2.932-26.733Zm-22.34 0h-8.204l-3.715 26.733h14.852l-2.933-26.733Z"/><circle cx="921.416" cy="250.623" r="3.561" fill="#23191A"/><path fill="#F2CD16" d="M914.255 235.363a7.32 7.32 0 0 1 14.322 0l3.224 15.261h-20.77l3.224-15.261Z"/><path fill="#FCCAF2" d="M906.471 273.826h29.843l-.928 4.377a10.819 10.819 0 0 1-10.582 8.573h-6.823a10.817 10.817 0 0 1-10.581-8.573l-.929-4.377Z"/><rect width="4.451" height="8.011" x="923.189" y="282.265" fill="#FCCAF2" rx="2.225"/><rect width="4.451" height="8.011" x="915.179" y="282.265" fill="#FCCAF2" rx="2.225"/><path fill="#23191A" fill-rule="evenodd" d="M917.998 226.942a6.484 6.484 0 0 1-7.139-2.755l-7.817-12.193-2.609.699a6.484 6.484 0 0 1-7.139-2.754l-4.644-7.246 9.459-2.534-6.996-6.154 47.274-12.667-2.983 8.827 9.46-2.534-.4 8.597a6.483 6.483 0 0 1-4.805 5.954l-2.61.7-.672 14.468a6.483 6.483 0 0 1-4.805 5.954l-13.574 3.638Zm-8.921-20.468c.538 2.011 2.482 3.238 4.341 2.74 1.859-.498 2.929-2.532 2.391-4.543-.539-2.011-2.483-3.238-4.342-2.74-1.859.499-2.929 2.533-2.39 4.543Zm19.987-5.355c.539 2.011-.531 4.045-2.39 4.543-1.859.498-3.803-.728-4.342-2.739-.539-2.011.531-4.045 2.39-4.543 1.859-.498 3.803.728 4.342 2.739Z" clip-rule="evenodd"/><circle cx="1014" cy="197" r="7" fill="#D11347"/><circle cx="965" cy="234" r="7" fill="#EC4612"/><path fill="#194D05" d="m942 300 53-154 53 154H942Z"/><circle cx="1007" cy="233" r="7" fill="#F996EE" transform="rotate(180 1007 233)"/><circle cx="981" cy="245" r="7" fill="#F2CD16"/><circle cx="973" cy="212" r="7" fill="#00A1FF"/><circle cx="995" cy="187" r="7" fill="#F2CD16"/><circle cx="1035" cy="259" r="7" fill="#00A1FF"/><path fill="#FFF8F7" d="m995 146 3.241-8.759L1007 134l-8.759-3.241L995 122l-3.241 8.759L983 134l8.759 3.241L995 146Z"/><path fill="#D11347" d="M924 263h58v37h-58z"/><path fill="#00A1FF" d="M972 281h45v19h-45z"/><path fill="#CCF8FF" d="M991 281h8v19h-8z"/><path fill="#F996EE" d="M946 263h14v37h-14z"/><path fill="#FFF8F7" d="M1080 237h34v9h-34z"/><path fill="#D11347" d="m1085 237 12-27 12 27h-24Z"/><circle cx="1097" cy="210" r="6" fill="#FFF8F7"/><path fill="#F996EE" d="M1061 284h13l-4 4h4l-4 4h4l-6 6-7-14Z"/><path fill="#00A1FF" d="m497 180-16 44h32l-16-44Z"/><path fill="#FFF8F7" d="m497 180-9.818 27h19.636L497 180Z"/><path fill="#00A1FF" d="M499 224h-4v8h4z"/></g><defs><clipPath id="a"><path fill="#fff" d="M0 0h1724v300H0z"/></clipPath></defs></svg>