<svg xmlns="http://www.w3.org/2000/svg" width="1724" height="300" fill="none" viewBox="0 0 1724 300"><g clip-path="url(#a)"><path fill="#0e0f2d" d="M0 0h1724v300H0z"/><path fill="url(#b)" d="M0 300h300v1724H0z" opacity=".6" transform="rotate(-90 0 300)"/><path fill="#000" d="M-27 158h182.906a128.02 128.02 0 0 1 86.993 34.079L286 232H-27z"/><path fill="#000" d="m61 133 9 25H52zm43-27-16 44h32z"/><path fill="#000" d="m126 114-16 44h32zm-20 36h-4v8h4z"/><path fill="#0e0f2d" d="m337.61 180 16 44h-32z"/><path fill="#0e0f2d" d="m315.61 188 16 44h-32zm20 36h4v8h-4z"/><path fill="#000" d="M838 300v-14l10 14z"/><path fill="#000" d="M830 300v-14l10 14z"/><path fill="#0e0f2d" d="m1360 275 9 25h-18z"/><path fill="#0e0f2d" d="m1378 248 16 44h-32zm-2 44h4v8h-4zm-60-25 9 25h-18zm-2 25h4v8h-4zm126 8v-20l-14 20z"/><path fill="#0e0f2d" d="M1429 300v-20l-14 20z"/><path fill="#0e0f2d" d="M1418 300v-20l-14 20zM-28 232h594.475c28.899 0 56.953 9.763 79.624 27.709L697 300H-28z"/><path fill="#2c2f6f" d="M-188.703 265h302.701a64.2 64.2 0 0 1 40.137 14.098l26.126 20.937h-368.964z"/><path fill="#0e0f2d" d="M424.222 215.218c0-6.674 5.41-12.083 12.083-12.083s12.083 5.409 12.083 12.083V232h-24.166z"/><path fill="#000" d="M22.051 149.305a6.26 6.26 0 0 1 12.52 0V158h-12.52z"/><path fill="#0e0f2d" d="M1533.49 275.487c0-9.748 7.9-17.65 17.65-17.65s17.65 7.902 17.65 17.65V300h-35.3zm135.81 9.978c0-5.78 4.69-10.465 10.47-10.465s10.46 4.685 10.46 10.465V300h-20.93zm-77.35-18.113c0-12.982 10.52-23.507 23.5-23.507 12.99 0 23.51 10.525 23.51 23.507V300h-47.01zm-1212.3-38.784c0-9.748 7.902-17.65 17.65-17.65s17.65 7.902 17.65 17.65v24.513h-35.3z"/><path fill="#4e5195" d="M462.802 272.737c0-10.856 8.8-19.656 19.655-19.656s19.656 8.8 19.656 19.656v27.298h-39.311z"/><path fill="#2c2f6f" d="M-5.222 227.121c0-15.063 12.21-27.273 27.273-27.273s27.274 12.21 27.274 27.273V265H-5.222z"/><path fill="#ec4612" d="M744.72 97.887a29.15 29.15 0 0 1 14.396-3.927c-10.682 7.311-14.091 21.734-7.511 33.131 6.862 11.887 22.007 16.007 33.936 9.283a29.15 29.15 0 0 1-11.537 12.235c-14.006 8.086-31.916 3.287-40.003-10.72-8.086-14.006-3.287-31.916 10.719-40.003"/><path fill="#4e5195" d="m964.808 174.689 13.882-3.082v23.434l-13.882-3.083 3.083 13.881h27.836l-8.095 76.48h15.918v18.004h-94.745v-18.004h15.913l-8.094-76.48h27.834l3.083-13.881-13.881 3.083v-23.434l13.881 3.082-3.083-13.88h23.433z"/><path fill="#0e0f2d" fill-rule="evenodd" d="M949.728 260.851a5.95 5.95 0 0 1-5.673-4.151l-4.032-12.708h-2.478a5.95 5.95 0 0 1-5.673-4.151l-2.396-7.552h8.986l-4.74-7.14h44.906l-4.74 7.14h8.986l-2.396 7.552a5.95 5.95 0 0 1-5.673 4.151h-2.478l-4.032 12.708a5.95 5.95 0 0 1-5.673 4.151zm-3.046-20.33c0 1.917 1.432 3.471 3.197 3.471s3.198-1.554 3.198-3.471-1.432-3.471-3.198-3.471c-1.765 0-3.197 1.554-3.197 3.471m18.986 0c0 1.917-1.431 3.471-3.197 3.471s-3.198-1.554-3.198-3.471 1.432-3.471 3.198-3.471 3.197 1.554 3.197 3.471" clip-rule="evenodd"/><path fill="#0e0f2d" d="M1074.71 139.072h101.984v43.213H1074.71z"/><path fill="#0e0f2d" d="M1228.51 181.961v100.358h-103.64V181.961z"/><path fill="#4e5195" d="m1021.23 173.072 51.82-34 51.82 34v109.247h-103.64z"/><path fill="#0e0f2d" d="M1228.51 182.285h-103.64v-9.213l51.82-34 51.82 34z"/><path fill="#ec4612" d="M1101.43 282.319h-28.39V182.285c15.68 0 28.39 12.71 28.39 28.389z"/><path fill="#0e0f2d" d="M1044.66 282.319h28.38V182.285c-15.68 0-28.38 12.71-28.38 28.389z"/><path fill="#0e0f2d" fill-rule="evenodd" d="M1101.43 282.319h-5.03l4.45-16.466h-4.45a6.38 6.38 0 0 1-6.08-4.433l-4.32-13.57h-2.65a6.38 6.38 0 0 1-6.08-4.433l-2.56-8.063h9.62l-5.07-7.625h13.89l8.28-8.285z" clip-rule="evenodd"/><path fill="#0e0f2d" d="M1008 282.319h116.873V300H1008z"/><path fill="#0e0f2d" d="M1124.87 282.319h121.325V300H1124.87z"/><path fill="#4e5195" d="M904.353 300h103.644v-17.681H904.353z"/><path fill="#0e0f2d" d="M971.528 282.319c-3.44 0-6.222-2.699-6.222-6.025 0-3.325 2.782-6.024 6.222-6.024s6.223 2.699 6.223 6.024-2.782 6.025-6.223 6.025m.28-1.267c2.37 0 3.161-2.157 3.161-4.247 0-2.93-1.251-5.251-3.671-5.251-2.321 0-3.177 1.942-3.177 4.148 0 2.337.592 5.35 3.687 5.35m-13.825 1.267c-3.441 0-6.223-2.699-6.223-6.025 0-3.325 2.782-6.024 6.223-6.024s6.222 2.699 6.222 6.024-2.782 6.025-6.222 6.025m.28-1.267c2.37 0 3.16-2.157 3.16-4.247 0-2.93-1.251-5.251-3.671-5.251-2.321 0-3.177 1.942-3.177 4.148 0 2.337.593 5.35 3.688 5.35m-7.597-9.926-1.63.971v8.395l1.63.971v.758h-5.63v-.758l1.629-.971v-8.626l-3.341 10.355h-2.041l-3.803-10.174v8.412l1.63 1.004v.758h-4.511v-.758l1.63-1.004v-8.379l-1.63-.954v-.758h4.626l3.424 9.927 3.16-9.927h4.857z"/></g><defs><linearGradient id="b" x1="300" x2="0" y1="2024" y2="2024" gradientUnits="userSpaceOnUse"><stop stop-color="#2b6f0b" stop-opacity="0"/><stop offset="1" stop-color="#2b6f0b"/></linearGradient><clipPath id="a"><path fill="#fff" d="M0 0h1724v300H0z"/></clipPath></defs></svg>