<svg xmlns="http://www.w3.org/2000/svg" fill="none" viewBox="0 0 1724 300"><g clip-path="url(#a)"><path fill="#000" d="M-27 158h182.906a128.016 128.016 0 0 1 86.993 34.079L286 232H-27v-74Z"/><path fill="#000" d="m61 133 9 25H52l9-25Z"/><path fill="#2C2F6F" d="M482.223 159h16.042l-4.222 15.83h-7.598L482.223 159Z"/><path fill="#1E2054" d="M478.634 205.12c0 17.777-6.851 32.188-15.302 32.188-8.452 0-15.303-14.411-15.303-32.188 0-17.778 6.851-32.189 15.303-32.189 8.451 0 15.302 14.411 15.302 32.189Z"/><path fill="#1E2054" d="M524.016 205.119c0 18.71-10.82 33.878-24.168 33.878-13.347 0-24.168-15.168-24.168-33.878s10.821-33.877 24.168-33.877c13.348 0 24.168 15.167 24.168 33.877Z"/><path fill="#1E2054" d="M456.472 205.119c0 18.71 10.82 33.878 24.168 33.878 13.347 0 24.168-15.168 24.168-33.878s-10.821-33.877-24.168-33.877c-13.348 0-24.168 15.167-24.168 33.877Z"/><path fill="#1E2054" d="M532.459 205.12c0 17.777-6.851 32.188-15.303 32.188-8.451 0-15.302-14.411-15.302-32.188 0-17.778 6.851-32.189 15.302-32.189 8.452 0 15.303 14.411 15.303 32.189Z"/><path fill="#000" d="M521.484 195.726c-17.253 17.168-45.225 17.168-62.478 0h62.478Z"/><path fill="#1E2054" d="M497.419 195.726h5.277v5.277h-5.277v-5.277Z"/><path fill="#000" d="M482.856 188.573c0 1.457 1.098 2.639 2.452 2.639 1.355 0 2.453-1.182 2.453-2.639 0-1.457-1.098-2.638-2.453-2.638-1.354 0-2.452 1.181-2.452 2.638Zm14.564 0c0 1.457-1.098 2.639-2.453 2.639-1.355 0-2.453-1.182-2.453-2.639 0-1.457 1.098-2.638 2.453-2.638 1.355 0 2.453 1.181 2.453 2.638ZM104 106l-16 44h32l-16-44Z"/><path fill="#000" d="m126 114-16 44h32l-16-44Zm-20 36h-4v8h4z"/><path fill="#2C2F6F" d="m1360 275 9 25h-18l9-25Z"/><path fill="#2C2F6F" d="m1378 248 16 44h-32l16-44Zm-2 44h4v8h-4zm-60-25 9 25h-18l9-25Zm-2 25h4v8h-4z"/><path fill="#1E2054" d="M1585 224h139v76h-139v-76Z"/><path fill="#2C2F6F" d="m1536 257 49-33 49 33v43h-98v-43Z"/><path fill="#1E2054" d="M1556 273h58v28h-58v-28Z"/><path fill="#2C2F6F" d="M1469 219c0-14.912 12.09-27 27-27s27 12.088 27 27v81h-54v-81Z"/><path fill="#000" d="M838 300v-14l10 14h-10Z"/><path fill="#000" d="M830 300v-14l10 14h-10Zm610 0v-20l-14 20h14Z"/><path fill="#000" d="M1429 300v-20l-14 20h14Z"/><path fill="#000" d="M1418 300v-20l-14 20h14Zm-327 0v-14l10 14h-10Z"/><path fill="#000" d="M1083 300v-14l10 14h-10Z"/><path fill="#000" d="M1075 300v-14l10 14h-10Z"/><path fill="#1E2054" d="M980.139 199.311h-25.923v12.421h25.923z"/><path fill="#4E5195" d="m923.319 300.575 5.199-53.368 29.241-51.674h17.911l29.24 51.674 5.2 53.368h-21.698l-10.849-19.269h-21.698l-10.849 19.269h-21.697Z"/><path fill="#000" d="M955.599 273.84h-8.205l-3.714 26.733h14.851l-2.932-26.733Zm22.34 0h8.204l3.714 26.733h-14.851l2.933-26.733Z"/><path fill="#4E5195" d="M981.639 273.826h-29.843l.928 4.377a10.818 10.818 0 0 0 10.582 8.573h6.823c5.109 0 9.521-3.575 10.581-8.573l.929-4.377Z"/><rect width="4.451" height="8.011" fill="#4E5195" rx="2.225" transform="matrix(-1 0 0 1 964.92 282.265)"/><rect width="4.451" height="8.011" fill="#4E5195" rx="2.225" transform="matrix(-1 0 0 1 972.931 282.265)"/><path stroke="#0E0F2D" d="m995 217.5-59 10m62.5 8H933m78.5 22.5L928 247m51.5 7L896 265m117-.5-96 5.5m97.5 3.5H918m63 3.5-26 6m-30-.5h21.5M988 290l20.5-6m-84.5 5 20.5 6.5m57-65.5-36.5-5.5"/><path fill="#4E5195" stroke="#0E0F2D" d="M981.659 242v.334l-.309.128-9.659 4-.781.324.093-.841 1.953-17.577-16.548-4.58-.002-.001a6.983 6.983 0 0 1-5.173-6.414l-.656-14.103-2.256-.604a6.984 6.984 0 0 1-5.175-6.415l-.4-8.597-.032-.683.661.177 8.557 2.293-2.683-7.942-.299-.885.902.242 47.274 12.667.902.241-.701.617-6.295 5.537 8.557 2.293.661.177-.369.575-4.645 7.246a6.982 6.982 0 0 1-7.689 2.967l-2.256-.604-3.632 5.665V242Zm-6.838-33.269c1.557.417 3.252-.605 3.729-2.386.477-1.78-.48-3.513-2.037-3.93-1.557-.418-3.252.605-3.729 2.385-.477 1.781.479 3.514 2.037 3.931Zm-15.293-7.483c-.477 1.781.48 3.514 2.037 3.931 1.557.417 3.252-.605 3.729-2.386.478-1.78-.479-3.513-2.036-3.93-1.558-.417-3.253.605-3.73 2.385Z"/><path stroke="#0E0F2D" d="m969.772 227.5 11.601 3.108M951 218h31m-33-32.002 34.5.002"/><path fill="#4E5195" d="m985.068 211.994 2.609.699a6.484 6.484 0 0 0 7.139-2.754l.649-1.013-27.714-15.442-24.12 2.421.015.323a6.483 6.483 0 0 0 4.805 5.954l2.61.7.123 2.656 33.589 6.915.295-.459Z"/><path fill="#EC4612" d="M959.085 203.34c-.303-.957-.864-1.936-1.832-2.204l-54.424-15.085-.001.002 54.678 14.147c.972.251 1.947-.315 2.687-.992.862-.788 2.044-1.139 3.193-.831 1.144.306 1.99 1.195 2.345 2.302.309.961.879 1.944 1.855 2.206l3.165.848c.975.261 1.961-.305 2.709-.983.861-.781 2.037-1.128 3.181-.821 1.15.308 1.997 1.202 2.35 2.316.303.957.864 1.934 1.831 2.202l54.428 15.086-54.676-14.148c-.973-.252-1.948.315-2.689.993-.862.789-2.045 1.141-3.195.833-1.145-.307-1.991-1.196-2.345-2.304-.309-.963-.879-1.947-1.855-2.209l-3.161-.847c-.976-.261-1.962.306-2.711.985-.861.782-2.038 1.13-3.183.823-1.15-.308-1.998-1.204-2.35-2.319Z"/><path fill="#000" d="M1199.08 300.573h21.66l-2.28-20.794h-23.71l4.33 20.794Z"/><path fill="#1E2054" d="m1128.04 229.529-16.46 16.462v28.159l8.66.434-2.6 25.992h20.8l4.33-20.794h4.33l-1.73 20.794h21.66l3.46-20.794h39.86l4.33 20.794h21.66l-7.79-71.047h-100.51Z"/><path fill="#2C2F6F" fill-rule="evenodd" d="M1114.83 284.109a6.363 6.363 0 0 1-6.07-4.432l-4.32-13.57h-2.65a6.375 6.375 0 0 1-6.08-4.433l-2.57-8.063h9.63l-5.08-7.624h48.09l-5.07 7.624h9.62l-2.57 8.063a6.363 6.363 0 0 1-6.07 4.433h-2.66l-4.31 13.57a6.375 6.375 0 0 1-6.08 4.432h-13.81Zm-3.26-21.708c0 2.047 1.53 3.706 3.42 3.706 1.9 0 3.43-1.659 3.43-3.706 0-2.047-1.53-3.707-3.43-3.707-1.89 0-3.42 1.66-3.42 3.707Zm20.33 0c0 2.047-1.53 3.706-3.42 3.706s-3.43-1.659-3.43-3.706c0-2.047 1.54-3.707 3.43-3.707 1.89 0 3.42 1.66 3.42 3.707Z" clip-rule="evenodd"/><path fill="#2C2F6F" d="m1182.62 211.332 37.02 5.742c4.52.702 8.01 4.351 8.51 8.902l.39 3.551h-30.73c-8.39 0-15.19-6.8-15.19-15.189v-3.006Z"/><path fill="#4E5195" d="m1182.47 211 37.02 5.742c4.52.702 8.02 4.351 8.51 8.902l.39 3.551h-30.73c-8.39 0-15.19-6.8-15.19-15.189V211Zm-71.03 34.654 16.46-16.457h100.5l7.49 65.303-8.03-4-7.29 4-7.3-4-7.29 4-7.3-4-7.29 4-7.29-4-7.3 4-7.29-4-7.3 4-7.29-4-7.29 4-7.3-4-7.29 4-7.29-4-7.65 4 1.05-10.723h-4.46a6.375 6.375 0 0 1-6.08-4.433l-4.31-13.569h-2.66a6.364 6.364 0 0 1-6.07-4.433l-2.57-8.063h9.62l-5.07-7.625h13.89Z"/><path fill="#0E0F2D" d="M1111.57 262.4c0 2.047 1.53 3.706 3.42 3.706 1.9 0 3.43-1.659 3.43-3.706 0-2.047-1.53-3.707-3.43-3.707-1.89 0-3.42 1.66-3.42 3.707Zm20.33 0c0 2.047-1.53 3.706-3.42 3.706s-3.43-1.659-3.43-3.706c0-2.047 1.54-3.707 3.43-3.707 1.89 0 3.42 1.66 3.42 3.707Z"/><path fill="url(#b)" fill-rule="evenodd" d="M1114.83 284.109a6.363 6.363 0 0 1-6.07-4.433l-4.32-13.569h-2.65a6.376 6.376 0 0 1-6.08-4.433l-2.57-8.063h9.63l-5.08-7.625h48.09l-5.07 7.625h9.62l-2.57 8.063a6.364 6.364 0 0 1-6.07 4.433h-2.66l-4.31 13.569a6.375 6.375 0 0 1-6.08 4.433h-13.81Zm-3.26-21.709c0 2.047 1.53 3.707 3.42 3.707 1.9 0 3.43-1.66 3.43-3.707 0-2.047-1.53-3.706-3.43-3.706-1.89 0-3.42 1.659-3.42 3.706Zm20.33 0c0 2.047-1.53 3.707-3.42 3.707s-3.43-1.66-3.43-3.707c0-2.047 1.54-3.706 3.43-3.706 1.89 0 3.42 1.659 3.42 3.706Z" clip-rule="evenodd"/><path fill="#0E0F2D" d="M1111.57 262.4c0 2.047 1.53 3.706 3.42 3.706 1.9 0 3.43-1.659 3.43-3.706 0-2.047-1.53-3.707-3.43-3.707-1.89 0-3.42 1.66-3.42 3.707Zm20.33 0c0 2.047-1.53 3.706-3.42 3.706s-3.43-1.659-3.43-3.706c0-2.047 1.54-3.707 3.43-3.707 1.89 0 3.42 1.66 3.42 3.707Z"/><path fill="#1E2054" d="M344.167 105h4.666L350 232h-7l1.167-127Zm4.7-50h2.185l4.565 40.17a9.39 9.39 0 0 1-6.75 10.088V55Z"/><path fill="#1E2054" d="m305.344 130.387-1.093-1.893 32.506-24.038a9.39 9.39 0 0 1 12.112.802l-43.525 25.129Z"/><path fill="#1E2054" d="m392.391 130.387-1.093 1.892-37.07-16.132a9.388 9.388 0 0 1-5.362-10.889l43.525 25.129Z"/><path fill="#4E5195" fill-rule="evenodd" d="m1322.72 93.62 6.23-10.792-7.21 1.888c-3.17.83-4.64 4.566-2.87 7.3l.62.956a9.536 9.536 0 0 0-2.18.213l-3.23-13.61c-1.1-4.613-6.13-6.957-10.4-4.843L1275 88.958l19.3.83-2.91 7.047 10.73-6.495-.97 9.748 9.8-6.236 2.28 1.316a9.673 9.673 0 0 0-2.25 2.666c-2.66 4.599-1.16 10.433 3.33 13.029 4.5 2.597 10.3.973 12.95-3.626.61-1.048 1-2.16 1.19-3.283l2.28 1.316-.5 11.609 7.95-5.718-.26 12.54 4.65-6.039 10.37 16.296-2.02-31.954c-.3-4.749-4.85-7.934-9.39-6.579l-13.41 4a9.171 9.171 0 0 0-.9-1.988l1.14.058c3.25.166 5.75-2.974 4.89-6.136l-1.97-7.187-6.24 10.791a9.008 9.008 0 0 0-1.11-.756c-.4-.228-.8-.423-1.21-.587Zm-6.51 7.236c.97.557 2.21.209 2.78-.777.57-.985.25-2.235-.72-2.792-.96-.556-2.2-.208-2.77.777-.57.986-.25 2.236.71 2.792Zm5.82 3.358c.96.557 2.21.209 2.78-.777.56-.985.24-2.235-.72-2.792-.96-.556-2.21-.208-2.77.777-.57.986-.25 2.236.71 2.792ZM780.038 216.963l-6.23-10.791-1.97 7.187c-.867 3.162 1.634 6.302 4.887 6.136l1.137-.058a9.418 9.418 0 0 0-.902 1.988l-13.407-4c-4.543-1.355-9.089 1.83-9.389 6.579l-2.022 31.954 10.367-16.296 4.651 6.039-.261-12.54 7.955 5.718-.498-11.609 2.279-1.316a9.793 9.793 0 0 0 1.183 3.283c2.655 4.599 8.454 6.223 12.951 3.626 4.498-2.596 5.991-8.43 3.335-13.029a9.794 9.794 0 0 0-2.251-2.666l2.279-1.316 9.805 6.236-.975-9.748 10.73 6.496-2.905-7.048 19.297-.83-28.684-14.226c-4.263-2.114-9.295.23-10.392 4.842l-3.24 13.611a9.426 9.426 0 0 0-2.173-.213l.619-.955c1.77-2.735.302-6.471-2.87-7.301l-7.21-1.888 6.231 10.792a9.31 9.31 0 0 0-2.327 1.343Zm3.015 9.251c.964-.556 1.284-1.806.715-2.792-.569-.985-1.812-1.333-2.776-.777-.963.557-1.283 1.807-.714 2.792.569.986 1.811 1.334 2.775.777Zm5.816-3.358c.964-.556 1.284-1.806.715-2.792-.569-.985-1.811-1.333-2.775-.777-.964.556-1.284 1.807-.715 2.792.569.986 1.812 1.334 2.775.777Z" clip-rule="evenodd"/><path fill="#1E2054" d="M-28 232h594.475c28.899 0 56.953 9.763 79.624 27.709L697 300H-28v-68Z"/><path fill="#2C2F6F" d="M-188.703 265h302.701a64.185 64.185 0 0 1 40.137 14.098l26.126 20.937h-368.964V265Z"/></g><defs><linearGradient id="b" x1="1143" x2="1118.5" y1="243" y2="267.5" gradientUnits="userSpaceOnUse"><stop stop-color="#2C2F6F"/><stop offset="1" stop-color="#4E5195"/></linearGradient><clipPath id="a"><path fill="#fff" d="M0 0h1724v300H0z"/></clipPath></defs></svg>