<svg xmlns="http://www.w3.org/2000/svg" fill="none" viewBox="0 0 18 18"><path fill="#FFA113" d="M18 9A9 9 0 1 0 0 9a9 9 0 0 0 18 0Z"/><path fill="#1C1C1C" stroke="#1C1C1C" stroke-linecap="round" stroke-width=".118" d="M8.63 7.41h-.044v1.53c0 .374-.078.66-.22.85-.141.189-.348.29-.62.29-.285 0-.484-.09-.615-.27-.132-.185-.199-.47-.199-.87V7.41h-.838v1.921c0 .88.617 1.553 1.444 1.553.414 0 .79-.204 1.048-.569v.427h.928V9.214c0-.374.079-.66.22-.85.142-.19.349-.29.62-.29.286 0 .485.09.615.27.133.184.2.469.2.87v1.528h.837v-1.92c0-.88-.617-1.554-1.445-1.554-.434 0-.803.229-1.048.594V7.41H8.63Z"/><path fill="#C6003B" d="M4.22 10.29a1.182 1.182 0 1 0-1.182-1.188v.01c.003.651.53 1.178 1.182 1.178Z"/><path fill="#007B3A" d="M13.893 10.29a1.182 1.182 0 1 0 0-2.365 1.182 1.182 0 0 0 0 2.365Z"/></svg>