<svg xmlns="http://www.w3.org/2000/svg" xmlns:xlink="http://www.w3.org/1999/xlink" viewBox="0 0 1983.5 198.3"><defs><style>.a,.f{fill:#ef88f8;}.a{opacity:0.46;}.b{fill:#72037c;}.c{fill:url(#a);}.d{fill:#f047ff;}.e{fill:#4a0250;}.g{fill:#1d0020;}.h{fill:url(#b);}.i{fill:url(#c);}.j{fill:url(#d);}.k{fill:#a702b6;}.l{fill:#ea00ff;}.m{fill:#1c3516;opacity:0.31;}.n{fill:#014c02;}.o{fill:#fff;}</style><linearGradient id="a" x1="1540.83" y1="152.26" x2="1564.46" y2="152.26" gradientUnits="userSpaceOnUse"><stop offset="0.5" stop-color="#f047ff"/><stop offset="0.5" stop-color="#72037c"/></linearGradient><linearGradient id="b" x1="420.2" y1="68.78" x2="485.31" y2="68.78" xlink:href="#a"/><linearGradient id="c" x1="257.55" y1="90.06" x2="298.39" y2="90.06" xlink:href="#a"/><linearGradient id="d" x1="2057.66" y1="323.66" x2="2058.92" y2="323.66" gradientTransform="translate(-740.9 -137.11)" gradientUnits="userSpaceOnUse"><stop offset="0" stop-color="#0ca006"/><stop offset="0.73" stop-color="#067104"/></linearGradient></defs><title>Chameleon light</title><path class="a" d="M1963,200c-55.73-13.93,8-13,15.82-27.23l-15.55-77.6L1943,173.24,1930.06,172l-13.39-66L1894.2,172.5l-9.69-.91-10.85-58.13-18.55,59.2-9.68-.91-14.79-50.88-11,48.47-12.92-1.2-11.91-46.81-4.22,45.31-16.5,2.26-5.81-42.42-16.78,40.32L733.77,139.52l-9-42.73-20,40-8.33-50.28-15,55.72L673.09,92l-10.68,44.7-8.69-46.51s-14.26,48.18-17.13,44.1S458,129,458,129l-.06-34.27L449,120.57,441.45,97l-5,18.57s-6.81,3.17-6.45-.6,2.11-22.65,2.11-22.65l-6.46-.6-2.11,22.65-4.34-23.26L411,109.41l-15.79-5.28L389.81,92.2,368.27,78.77,364.34,86l-6.46-.61A312.35,312.35,0,0,1,246.37,89C97.82,66.49,15.93,30.29-.55,3.65c-.3,51.29-.6,12.58-.9,63.87S-.61,150.67-.91,202c152.23-9.1,303,.49,455.45-.9C790,198,1584,201,1963,200Z" transform="translate(1.5 -3.65)"/><path class="b" d="M1705,161c80.17-22,122.63,7.75,180.94-8.21,17.65-4.83,43.62-15.48,71.91-42.5,18.19-1,24-.44,24.15.71s-5,3.24-21.68,7.18l21.15,64.65L1960,201l-388-1C1647,177,1678.44,168.28,1705,161Z" transform="translate(1.5 -3.65)"/><circle class="c" cx="1552.64" cy="152.26" r="11.81"/><polygon class="d" points="2.48 74.79 403.72 101.1 923.89 194.96 1012.73 196.66 2.48 196.66 2.48 74.79"/><polygon class="e" points="1108.16 127.34 1102.16 151.24 1109.5 151.24 1101.5 158.71 1110.16 158.71 1101.5 167.66 1123.5 167.66 1118.83 161.69 1122.83 161.69 1116.16 151.24 1121.5 151.24 1108.16 127.34"/><polygon class="e" points="1127.23 150.87 1124.77 160.64 1127.77 160.64 1124.5 163.69 1128.04 163.69 1124.5 167.36 1133.5 167.36 1131.59 164.92 1133.23 164.92 1130.5 160.64 1132.68 160.64 1127.23 150.87"/><path class="f" d="M1017,158.69c-25.83-1.43-130.29-6.64-271.55,5.74-89.69,7.86-208,1.09-343.92,35.88L1328,200c-22-2-34-3-48-6C1165.28,169.42,1080.05,162.19,1017,158.69Z" transform="translate(1.5 -3.65)"/><polygon class="g" points="1552.91 158.2 1548.68 179.34 1556.76 179.34 1552.91 158.2"/><circle class="h" cx="452.75" cy="68.78" r="32.56"/><circle class="i" cx="277.97" cy="90.06" r="20.42"/><polygon class="e" points="453.1 82.48 440.19 147.02 464.83 147.02 453.1 82.48"/><polygon class="e" points="278.89 100.46 271.36 138.1 285.74 138.1 278.89 100.46"/><ellipse class="j" cx="1317.39" cy="186.55" rx="0.63" ry="0.6" transform="translate(112.75 744.63) rotate(-33.03)"/><path class="k" d="M1301.88,100.82c1.24-2.4,4-2.93,8.67-3.83,4.14-.8,15.4,7.31,19.9,9.31a23.67,23.67,0,0,1,7,6.3c.42.63,1.9,3,1.84,8,0,1.33-.32,14.48-7.11,16.29a7.26,7.26,0,0,1-7-1.64c-2.27-2.45-1.4-6.46-.9-8.81,1.24-5.74,4.52-8.69,3.74-9.5-1-1-13.52-4.75-21.13-7.28-1.8-.6-3-.63-3.74-1.3A6.63,6.63,0,0,1,1301.88,100.82Z" transform="translate(1.5 -3.65)"/><path class="k" d="M1379.31,130.48c-2.25.8-8.08-5.75-6.9-7.89,1-1.83,7.61-1.32,11.81,2.12,4,3.33,7,9.74,4.62,13.73-2.82,4.81-12.1,4-17.56,1.74-9-3.77-16.74-14.12-13.93-21.76,1.76-4.79,7-6.83,8-7.21,14.39-5.56,31.58,10.83,34,13.17,5.58,5.32,15.44,14.71,13.28,24.89-1.56,7.34-8.59,11.44-15,15.08-6.81,3.85-12.74,5.53-41.35,9.23-20.36,2.63-28.37,3.2-38.82,2-9.51-1.1-17.19-3.22-17.09-4.33s7.5.59,15.33-3.13c6.78-3.22,13.49-10.29,14.53-18.56,1-7.77-3.36-14.08-2.33-14.59s3.39,5.32,8.53,10.17,12.11,6.74,25.53,10.07a79.45,79.45,0,0,0,12.28,2.48c5,.49,7.61.75,10.87-.16.78-.22,10.4-3.07,12.4-10.94,1.32-5.17-1.38-9.58-5.08-15.65a31.25,31.25,0,0,0-9.8-10.74c-2.91-1.89-8.09-5.26-13.1-3.47-.59.21-4.14,1.55-5,4.77-.65,2.37.51,4.44,1.64,6.46.58,1,4,6.91,10.31,7.92,1.28.2,3.92.63,5.17-.89s.33-4,0-4.74a7.64,7.64,0,0,0-4.51-4.34,6.2,6.2,0,0,0-1.4-.25c.77.44,4.64,2.73,4.19,4.19A1.1,1.1,0,0,1,1379.31,130.48Z" transform="translate(1.5 -3.65)"/><path class="l" d="M1379.54,190.8c-.2.48-1.61.2-5.2.12-1.79,0-3.26,0-4.19,0,0,0-1.77,0-3.54,0-1.47,0-11.54-.17-11.54-.37s12.17-2.08,17.52,3.39c1.16,1.18,1.17,1.86,1.09,2.21-.6,2.72-10.54,2.63-11.86,2.61-10.35-.15-12.39-3.54-20.9-2.63-4.09.43-7.48,1.62-7.81.83s3.79-2.2,6.14-6c2.66-4.27,2.23-10.4.23-14.76-3.66-7.95-12.14-9.2-12-14.39.06-1.88,1-4.22,2.46-4.59,2.4-.61,7.14,3.82,17.56,27.22,1,1,2,2,3,3.07a32.23,32.23,0,0,1,8-2.47c2.44-.42,9.63-1.56,16.45,1.94C1377.42,188.27,1379.82,190.12,1379.54,190.8Z" transform="translate(1.5 -3.65)"/><path class="m" d="M1371.05,184a47.93,47.93,0,0,1-3.65,4.13l-13.45.34,4-4.5Z" transform="translate(1.5 -3.65)"/><path class="d" d="M1372.82,181.27c0-1.5-1.5-3.14-18.64-10.56-4.72-2-8.62-3.65-11.2-4.71a7.51,7.51,0,0,0-3-8,7,7,0,0,0-5-.74,61.69,61.69,0,0,1-2.49,12.2,62.39,62.39,0,0,1-4.42,10.57,192.81,192.81,0,0,1-40.67-16.18c-4.56-2.45-8.81-5-12.78-7.52a97.72,97.72,0,0,0,19.47,20.47c9.74,7.62,17.54,10.68,27.81,14.72,7.06,2.78,10.25,3.37,13,1.92,5-2.6,6.57-10.81,5.83-16.6-.4-3.1-2-5.45-1.61-5.68s2.57,3.48,7.21,8a29.3,29.3,0,0,0,5.69,4.68c2.23,1.36,5.7,3.46,10.13,3.27C1366.83,186.91,1372.76,184.2,1372.82,181.27Z" transform="translate(1.5 -3.65)"/><polygon class="k" points="1278.74 177.81 1278.26 143.77 1274.95 142.13 1276.98 177.51 1278.74 177.81"/><path class="n" d="M1307.09,135.48l2.09-24.91-11-10.39-18.62-7.76s-1.78,26.31-2.33,28.71,26.61,17.05,26.61,17.05Z" transform="translate(1.5 -3.65)"/><path class="f" d="M1285.92,168.29c9.52,4.43,22.62,12.33,33.77,6.19,11.43-6.3,15.37-23.9,11.65-33.2a67.19,67.19,0,0,0-7.79-13.06c-1.54-2.06-2.78-3.52-3.42-4.22a45,45,0,0,0-4.91-4.71c-5.55-4.38-3.13-14.55-15.22-16.78C1248.42,93,1262.15,157.24,1285.92,168.29Z" transform="translate(1.5 -3.65)"/><path class="k" d="M1273.32,106.58c2.93,1,5.73,9,1,37.23a23.55,23.55,0,0,1,4,2.48,53.93,53.93,0,0,1,4.84,4c5.85,5.56,10.79,10.25,9.59,13.93-.69,2.13-3.37,3.76-5,3.24-2.09-.64-5.41.52-8.13-4.11-.72-1.22-5.33-3.68-8.42-5.21-6.49-3.22-6.08-1.3-10.54-3.83-3.93-2.22-3-10.3-1.69-22.62s3.83-17.34,6.93-20.61C1267.43,109.42,1270.92,105.73,1273.32,106.58Z" transform="translate(1.5 -3.65)"/><path class="l" d="M1279.51,47.53a33.83,33.83,0,0,1,.8,4.29,16.42,16.42,0,0,0,1.91,6.49c1.87,3.42,5.28,6.87,8.67,6.87,2.51,0,3.54-1.73,5-4.56.3-.58.61-1.18.95-1.76a25.39,25.39,0,0,0,3-8.06,42.75,42.75,0,0,1,2-6.7,38.37,38.37,0,0,1,4.8-8.48q-7.44-5.37-14.81-10.44l-1.53,18.33-2.23.35L1286.3,25.3l-13,8.81-1.87,1.6C1276.93,40.12,1278.68,44.46,1279.51,47.53Z" transform="translate(1.5 -3.65)"/><path class="l" d="M1338.23,55a18.66,18.66,0,0,0-24.79-14.45c-1.58-1.17-3.18-2.33-4.79-3.5a35.35,35.35,0,0,0-4.52,8,41.41,41.41,0,0,0-1.89,6.34,27.83,27.83,0,0,1-3.24,8.75c-.31.53-.61,1.1-.9,1.65-1.44,2.76-3.08,5.89-7.21,5.89-4.7,0-8.78-4.4-10.84-8.16a18.75,18.75,0,0,1-2.19-7.34,29.8,29.8,0,0,0-.74-4c-.75-2.79-2.37-6.76-7.64-10.83l-2.8,2.4a21.29,21.29,0,0,0-7.75-.47c-1.53.19-8,1-12.57,6.22-5,5.78-6.52,15.19-2.23,21.39a14.16,14.16,0,0,0,5.17,4.46,15,15,0,0,0,.11,8.11,16.46,16.46,0,0,0,5.64,7.87c5.33,4.46,17.55,14.33,34.19,27,13.51-10.11,24-18,31-23,2-1.44,6.15-4.29,8.11-9.51a18.42,18.42,0,0,0,.94-8.58,15.33,15.33,0,0,0,6.1-4.58C1339.7,63.21,1338.52,56.62,1338.23,55Z" transform="translate(1.5 -3.65)"/><ellipse class="o" cx="1261.59" cy="54.14" rx="12.82" ry="13.09"/><ellipse class="o" cx="1321.34" cy="54.67" rx="12.82" ry="13.09"/><path class="o" d="M1276.79,80.75c5.64,1.53,11.15,1.76,23.14.35a90.8,90.8,0,0,0,14.57-2.93,3.41,3.41,0,0,1,1.76,2.23c.21,1.59-1.64,3.57-4.49,5.55-4.76,3.31-7,4.47-10.54,5.73a37.16,37.16,0,0,1-14.34,1.88c-7-.43-11.09-2.1-17.5-5.23-4.65-2.27-7.06-4.46-7.41-6.76a6,6,0,0,1,.94-3.87C1263.34,77.65,1274.87,80.23,1276.79,80.75Z" transform="translate(1.5 -3.65)"/><ellipse class="l" cx="1317.93" cy="57.84" rx="2.64" ry="2.51"/><ellipse class="l" cx="1265.84" cy="57.84" rx="2.64" ry="2.51"/><path class="l" d="M1484,156.64c5,4.85,6,7.66,10,10.94,3.54,2.93,10.61,2.77,14.73,1.42s6.19-4.16,8-6.46c2-2.67,5.44-7.11,4.7-13.16-.1-.83-1-7.35-6.9-10.83-.94-.56-5.47-3.24-10.73-1.43a11.93,11.93,0,0,0-8,9.73c-.66,6,3.81,9.84,4.23,10.19,2.87,2.4,8.34,4.62,12.55,1.74,3.85-2.62,4.21-7.84,3.34-11.15-.22-.86-1.48-5.69-5.26-6.51s-7.87,2.58-8.58,6.6c-.66,3.71,1.57,8.46,5,8.73a5.7,5.7,0,0,0,5.48-4.1c.83-2.81-.61-6.48-3-6.81-2.58-.35-5,3.24-4.71,3.63s1.75-1.1,3.53-.58a2.71,2.71,0,0,1,1.88,1.7,3.17,3.17,0,0,1-2.93,3.53c-1.3-.06-2.11-1.5-2.58-2.36a5.91,5.91,0,0,1-.82-3.43c.27-2.72,2.92-5.58,5.53-5.25s3.72,3.5,4.1,4.5a8.05,8.05,0,0,1-.39,7.05,7.32,7.32,0,0,1-5,3.32c-3.66.44-6.37-3.3-7.59-5.66-1.84-3.55-1.11-7,2.22-9.92,3.62-3.21,6.51-2.3,7-2.17a9.84,9.84,0,0,1,6,4.41c1.9,3.28,2.55,6.1,1.72,8.81-2.08,6.75-8.69,10-16.58,6.3-8.2-3.82-8.39-7.93-11.54-12.68-.9-1.36-.16-3-.37-3.61-.28-.81-1.14-3-4.06-1.43s-1.66,5.87-1,9C1484.44,152.68,1481.49,154.18,1484,156.64Z" transform="translate(1.5 -3.65)"/><path class="b" d="M1451.42,117.07c-.46-2.66,2.52-5.2,3.68-4.78s.56,3.73,1.52,3.95c1.13.26,2.8-4.23,3.75-4,.79.23.12,3.46,1.12,3.85,1.17.45,3.54-3.42,4.21-3,.5.28-.69,2.45.06,3.13,1,.94,4.72-1.73,5.13-1.19s-1.52,1.94-1.19,2.45c.46.71,4.32-1.38,4.88-.58s-1.84,2.82-1.37,3.41c.31.38,1.45-.35,3.78-.55.88-.08,2.27-.21,2.45.26.29.71-2.43,2.38-2.25,2.65s1.6-.93,3.38-.66c.67.11,1.76.47,1.88,1.11.18,1-2.1,2.12-1.93,2.42s1-.42,2.17-.24c.92.14,2,.78,2.16,1.61.18,1.21-1.94,2.25-1.68,2.73s1.37-.32,2.63.22c.75.33,1.54,1.08,1.45,1.75-.1.88-1.63,1.21-1.53,1.6s.73.18,1.74.4c.54.11,2.32.49,2.45,1.18.17.94-2.82,2.08-2.65,2.55.11.29,1.23-.21,2.46.26s2.33,2,2,2.75-2.39.74-2.38,1,1.05.08,2,.72,1.53,1.77,1.2,2.35c-.42.76-2.35.26-2.45.67s1.27.6,2.19,1.79,1.14,2.86.63,3.2-2-.78-2-.72a7.3,7.3,0,0,1,2.76,2.79c.37.83.58,2,.1,2.38s-1.78-.37-1.88-.18,2.37,1.37,2.44,3c0,.51-.19,1.16-.51,1.21-1,.17-2.74-5.51-3.24-7.13-1.47-4.76-1.53-6.78-2.27-9.72a36.37,36.37,0,0,0-6.66-13.3,28.61,28.61,0,0,0-12.2-9.45c-3.66-1.4-7-2.66-10.24-1.32-2.26.92-3.64,2.73-5.49,2.18A3.58,3.58,0,0,1,1451.42,117.07Z" transform="translate(1.5 -3.65)"/><path class="d" d="M1468.47,118.38a38.08,38.08,0,0,1,10.26,7c5.85,5.64,8.4,11.88,11.11,18.5a67.74,67.74,0,0,1,3.24,10.19c1.36,5.36,2.82,11.27.82,12.49-1.5.93-3.54-1.69-7.5-1.07a9.82,9.82,0,0,0-3.91,1.66c-5,3-12.54,1-18-.36a52.11,52.11,0,0,1-18.26-8.88c-4.42-3.23-7.75-7.3-14.4-15.43-1.52-1.86-3.87-4.81-3-6,.55-.8,2.22-.51,3.26-.35a110.07,110.07,0,0,0,12.74.62c6.49.08,11.54-3.72,14.07-5.62A29.36,29.36,0,0,0,1468.47,118.38Z" transform="translate(1.5 -3.65)"/><path class="l" d="M1484.12,149.28c1.28.11,1.51,2.1,4.06,8.33,2,5,4,8.8,7.91,16.31,3.11,6,4.66,9,5.6,10.07,2.72,3.18,5.65,5.15,6.66,9.47.12.51.77,3.3-.17,3.82-1.12.63-4.2-2.17-6.08-5.14a20.47,20.47,0,0,1-2.47-5.87s4,8.74,1.8,10.45c-.85.66-2.43.11-3.29-.38-2.91-1.67-1.77-5.17-4.77-8.11-.88-.86-2.14-1.4-4.67-2.49-5.38-2.31-7.92-2.09-8-2.86-.07-1.32,7.12-4.22,11.18-1.66.71.44,1.28,1,1.68.82.94-.49,0-4.81-1.5-8.1-2-4.42-6.63-11.17-11.64-10.85-1.16.08-1.66.49-2.17.11C1476,161.5,1480.85,149,1484.12,149.28Z" transform="translate(1.5 -3.65)"/><path class="l" d="M1463.83,132.51a49.84,49.84,0,0,1,8.36,21.56c1,7.4,1.55,11.91-.79,16.57-1,2-2.33,3.61-2.05,6.09.31,2.69,2.19,3.39,4.38,7.59,1.23,2.35,2.85,6.36,2,7-.55.4-2.38-.42-8.32-6.48a9.42,9.42,0,0,1-2.37,7c-1,1-2.78,2.32-3.54,1.81-.49-.33-.4-1.35.69-7.84.4-2.35.57-3.28,0-3.82-1-.95-2.93.79-4.91-.11-1.7-.77-2.9-3.25-2.23-4.61.82-1.66,3.84-.41,7.14-2.36a10.55,10.55,0,0,0,4.11-4.93c.42-.91,2.09-4.84-.88-13.76-3.19-9.58-7.36-11.84-6.48-16.75C1459.51,136.2,1462,133.9,1463.83,132.51Z" transform="translate(1.5 -3.65)"/><path class="l" d="M1432.19,139c-1.24.82.55,7.05,1.8,10.26.69,1.78,1.51,3.41,1,5.4a5.7,5.7,0,0,1-2.37,3.39c-2.72,1.65-5.37-.68-7.57,1.11-.06.05-1.45,1.21-1.15,2.42s2.82,1.18,2.81,1.67-3.85.33-4.79,2.25a2.19,2.19,0,0,0,.11,2.17c1.28,1.72,6.07.26,8.33-.42,3.73-1.14,4.1-2,5.91-1.76,2.08.29,2.28,1.56,5.41,2.81,1.81.73,5,1.61,5.66.62s-1-2.87-1.44-3.37c-2.6-3.23-5.36-2.91-6.46-5.49a6.67,6.67,0,0,1-.18-3.62c.35-3.43,1.85-4.63,2.21-6.47C1442.49,144.81,1433.81,138,1432.19,139Z" transform="translate(1.5 -3.65)"/><path class="l" d="M1432.76,104.26a20,20,0,0,1,1.09,2.59,10.71,10.71,0,0,0,2.1,3.81c1.66,1.9,4.28,3.6,6.41,3.13,1.58-.34,2-1.58,2.53-3.56.11-.41.23-.83.36-1.24a16.44,16.44,0,0,0,.75-5.48,28.15,28.15,0,0,1,.34-4.49,24.42,24.42,0,0,1,1.85-6q-5.43-2.35-10.77-4.53.8,5.88,1.57,11.75l-1.35.53q-1.85-5.72-3.68-11.44l-7,7.35L1426,98A14,14,0,0,1,1432.76,104.26Z" transform="translate(1.5 -3.65)"/><path class="l" d="M1470.74,100.86a12,12,0,0,0-17.59-5.67l-3.5-1.54a22.43,22.43,0,0,0-1.74,5.63,26.39,26.39,0,0,0-.32,4.25,17.82,17.82,0,0,1-.83,6c-.12.38-.23.78-.33,1.16-.53,1.94-1.13,4.14-3.73,4.71-3,.65-6.13-1.56-7.94-3.64a12,12,0,0,1-2.4-4.32,19.53,19.53,0,0,0-1-2.4,12.62,12.62,0,0,0-6.31-5.75l-1.42,1.89a14,14,0,0,0-4.95.78,12.78,12.78,0,0,0-7.05,5.66c-2.36,4.32-2,10.45,1.55,13.76a9.24,9.24,0,0,0,3.87,2.09,9.64,9.64,0,0,0,1.2,5.09,10.59,10.59,0,0,0,4.63,4.17c4,2.07,13,6.59,25.25,12.28,7.1-8.23,12.58-14.66,16.33-18.78a13.21,13.21,0,0,0,3.79-7.1,11.8,11.8,0,0,0-.6-5.53,9.82,9.82,0,0,0,3.21-3.73C1472.8,105.81,1471.15,101.83,1470.74,100.86Z" transform="translate(1.5 -3.65)"/><ellipse class="o" cx="1421.96" cy="113.4" rx="8.26" ry="8.43" transform="translate(10.27 304.01) rotate(-12.39)"/><ellipse class="o" cx="1459.63" cy="105.48" rx="8.26" ry="8.43" transform="translate(12.85 311.91) rotate(-12.39)"/><path class="o" d="M1435.64,125.54c3.76.18,7.26-.44,14.61-3a58.26,58.26,0,0,0,8.76-3.86,2.22,2.22,0,0,1,1.42,1.16c.35,1-.54,2.47-2.06,4.11a25.06,25.06,0,0,1-5.85,5.07,23.82,23.82,0,0,1-8.75,3.16c-4.44.69-7.28.21-11.74-.87-3.24-.79-5.06-1.83-5.59-3.23a3.85,3.85,0,0,1,0-2.57C1426.75,125.45,1434.36,125.48,1435.64,125.54Z" transform="translate(1.5 -3.65)"/><ellipse class="l" cx="1457.92" cy="107.95" rx="1.7" ry="1.62" transform="translate(12.28 311.6) rotate(-12.39)"/><ellipse class="l" cx="1425.15" cy="115.14" rx="1.7" ry="1.62" transform="translate(9.97 304.74) rotate(-12.39)"/><polygon class="e" points="645.16 128.34 639.16 149.68 646.5 149.68 638.5 156.34 647.16 156.34 638.5 164.34 660.5 164.34 655.83 159.01 659.83 159.01 653.16 149.68 658.5 149.68 645.16 128.34"/><polygon class="e" points="664.23 149.34 661.77 158.07 664.77 158.07 661.5 160.8 665.04 160.8 661.5 164.07 670.5 164.07 668.59 161.89 670.23 161.89 667.5 158.07 669.68 158.07 664.23 149.34"/></svg>