<svg xmlns="http://www.w3.org/2000/svg" viewBox="0 0 1984.39 319.23"><defs><style>.a{font-size:182.47px;font-family:Poppins-SemiBold, Poppins;font-weight:600;}</style></defs><title>Chameleon Swap header</title><path d="M132,467.58a100.3,100.3,0,0,1,2.52,13.49c.92,6.75,1.72,12.59,6,20.44,5.9,10.78,16.64,21.66,27.3,21.66,7.91,0,11.18-5.46,15.85-14.38.95-1.81,1.93-3.69,3-5.52,5.72-9.8,7.4-17,9.35-25.41a134.1,134.1,0,0,1,6.31-21.08,119.45,119.45,0,0,1,15.12-26.71q-23.46-16.9-46.67-32.89Q168.36,426,166,454.9l-7,1.11-5.55-58.46L112.3,425.3l-5.9,5.06C123.83,444.22,129.35,457.89,132,467.58Z" transform="translate(-12.61 -397.18)"/><path d="M316.92,491.17c-.75-4.19-5.37-27.31-27.75-40.71-23.42-14-47.17-5.94-50.32-4.81q-7.5-5.5-15.11-11a111.86,111.86,0,0,0-14.22,25.05,126.47,126.47,0,0,0-6,19.95c-2,8.61-3.9,16.75-10.21,27.56-1,1.67-1.92,3.47-2.83,5.21-4.55,8.69-9.71,18.54-22.73,18.54-14.79,0-27.63-13.84-34.12-25.7-5-9.11-5.92-15.92-6.9-23.12a94.63,94.63,0,0,0-2.32-12.51c-2.37-8.79-7.47-21.28-24.08-34.09l-8.8,7.54a67.29,67.29,0,0,0-24.42-1.48c-4.82.6-25.19,3.06-39.6,19.61C11.74,479.37,7,509,20.53,528.54A44.89,44.89,0,0,0,36.81,542.6a47.45,47.45,0,0,0,.37,25.53c3.9,13,13,20.85,17.76,24.79C71.72,607,110.21,638.07,162.62,678c42.54-31.85,75.44-56.83,97.69-72.52,6.46-4.56,19.36-13.52,25.53-30a57.39,57.39,0,0,0,3-27A48.2,48.2,0,0,0,308,534.09C321.55,517,317.83,496.22,316.92,491.17ZM30.43,499.91c0-22.76,18.08-41.21,40.38-41.21s40.38,18.45,40.38,41.21-18.08,41.21-40.38,41.21S30.43,522.67,30.43,499.91Zm203.15,88.67c-15,10.43-22,14.07-33.21,18a116.62,116.62,0,0,1-45.15,5.92c-21.89-1.36-34.94-6.61-55.13-16.47C85.46,588.93,77.87,582,76.78,574.79c-.74-4.89,1.2-9.28,3-12.21,1.31-.14,37.61,8,43.66,9.62,17.76,4.81,35.12,5.55,72.9,1.11a286.15,286.15,0,0,0,45.88-9.25c2.36,1.49,5.12,3.83,5.55,7C248.39,576.1,242.56,582.33,233.58,588.58ZM259,542.79c-22.3,0-40.38-18.46-40.38-41.22S236.7,460.36,259,460.36s40.38,18.45,40.38,41.21S281.3,542.79,259,542.79Z" transform="translate(-12.61 -397.18)"/><ellipse cx="235.64" cy="114.39" rx="8.33" ry="7.91"/><ellipse cx="71.6" cy="114.39" rx="8.33" ry="7.91"/><text class="a" transform="translate(339.82 211.03)">Chameleon Swap</text></svg>