<svg xmlns="http://www.w3.org/2000/svg" fill="none" viewBox="0 0 19 14"><path fill="#fff" d="M12.09 13.818c-1.928 0-3.562-.67-4.9-2.008-1.339-1.338-2.008-2.972-2.008-4.9 0-1.93.67-3.563 2.008-4.902S10.162 0 12.09 0c1.93 0 3.563.67 4.902 2.008C18.331 3.347 19 4.98 19 6.909c0 1.929-.67 3.563-2.008 4.901-1.339 1.339-2.972 2.008-4.901 2.008Zm-6.908-.216a6.82 6.82 0 0 1-3.735-2.461C.482 9.903 0 8.492 0 6.909c0-1.583.482-2.994 1.447-4.232A6.819 6.819 0 0 1 5.182.216V2.03a5.017 5.017 0 0 0-2.505 1.878 5.063 5.063 0 0 0-.95 3.001c0 1.108.317 2.109.95 3.001a5.016 5.016 0 0 0 2.505 1.879v1.813Zm6.909-1.511c1.44 0 2.663-.504 3.67-1.511 1.008-1.008 1.512-2.232 1.512-3.67 0-1.44-.504-2.664-1.512-3.671-1.007-1.008-2.23-1.512-3.67-1.512s-2.663.504-3.67 1.512c-1.008 1.007-1.512 2.23-1.512 3.67s.504 2.663 1.511 3.67c1.008 1.008 2.232 1.512 3.67 1.512Z"/></svg>