<svg fill="none" height="58" viewBox="0 0 156 58" width="156" xmlns="http://www.w3.org/2000/svg" xmlns:xlink="http://www.w3.org/1999/xlink"><filter id="a" color-interpolation-filters="sRGB" filterUnits="userSpaceOnUse" height="37.0781" width="33.0781" x="13.6152" y="24.1242"><feFlood flood-opacity="0" result="BackgroundImageFix"/><feBlend in="SourceGraphic" in2="BackgroundImageFix" mode="normal" result="shape"/><feColorMatrix in="SourceAlpha" result="hardAlpha" type="matrix" values="0 0 0 0 0 0 0 0 0 0 0 0 0 0 0 0 0 0 127 0"/><feOffset dy="4"/><feGaussianBlur stdDeviation="2"/><feComposite in2="hardAlpha" k2="-1" k3="1" operator="arithmetic"/><feColorMatrix type="matrix" values="0 0 0 0 0 0 0 0 0 0 0 0 0 0 0 0 0 0 0.25 0"/><feBlend in2="shape" mode="normal" result="effect1_innerShadow_5263_1087"/></filter><filter id="b" color-interpolation-filters="sRGB" filterUnits="userSpaceOnUse" height="37.0781" width="33.0781" x=".859375" y=".206146"><feFlood flood-opacity="0" result="BackgroundImageFix"/><feBlend in="SourceGraphic" in2="BackgroundImageFix" mode="normal" result="shape"/><feColorMatrix in="SourceAlpha" result="hardAlpha" type="matrix" values="0 0 0 0 0 0 0 0 0 0 0 0 0 0 0 0 0 0 127 0"/><feOffset dy="5"/><feGaussianBlur stdDeviation="2"/><feComposite in2="hardAlpha" k2="-1" k3="1" operator="arithmetic"/><feColorMatrix type="matrix" values="0 0 0 0 0 0 0 0 0 0 0 0 0 0 0 0 0 0 0.25 0"/><feBlend in2="shape" mode="normal" result="effect1_innerShadow_5263_1087"/></filter><filter id="c" color-interpolation-filters="sRGB" filterUnits="userSpaceOnUse" height="37.0781" width="37.0781" x="30.1543" y=".206116"><feFlood flood-opacity="0" result="BackgroundImageFix"/><feBlend in="SourceGraphic" in2="BackgroundImageFix" mode="normal" result="shape"/><feColorMatrix in="SourceAlpha" result="hardAlpha" type="matrix" values="0 0 0 0 0 0 0 0 0 0 0 0 0 0 0 0 0 0 127 0"/><feOffset dx="6" dy="4"/><feGaussianBlur stdDeviation="2"/><feComposite in2="hardAlpha" k2="-1" k3="1" operator="arithmetic"/><feColorMatrix type="matrix" values="0 0 0 0 0 0 0 0 0 0 0 0 0 0 0 0 0 0 0.25 0"/><feBlend in2="shape" mode="normal" result="effect1_innerShadow_5263_1087"/></filter><linearGradient id="d" gradientUnits="userSpaceOnUse" x1="87" x2="406.558" y1="440" y2="103.193"><stop offset="0" stop-color="#ffe7e0"/><stop offset=".3438" stop-color="#f8dbf4"/><stop offset=".6875" stop-color="#c4ddff"/><stop offset="1" stop-color="#cae9ff"/></linearGradient><circle cx="134.668" cy="30.909" fill="#052b65" r="21.096"/><g fill="url(#d)" transform="matrix(.082409 0 0 .082409 113.571068 9.813292)"><path d="m255.639 305.398c-64.456 0-116.705 30.131-116.705 67.302 0 37.17 52.249 67.3 116.705 67.3s116.704-30.131 116.704-67.3c0-37.17-52.251-67.302-116.704-67.302zm-56.034 75.948c-11.83 5.782-22.847 0-24.96-13.111-2.316-14.046 16.585-47.428 20.935-22.185 4.347 25.241 23.699-10.056 23.818 5.741-.647 12.754-8.254 24.115-19.793 29.555zm144.104-13.111c-2.112 13.111-13.129 18.893-24.956 13.111-11.542-5.44-19.149-16.801-19.793-29.555.118-15.797 19.468 19.5 23.818-5.741 4.347-25.243 23.245 8.139 20.931 22.185z"/><path d="m424.031 149.568c-3.348-23.966-84.293-6.874-94.812-5.063-.54.092-1.045-.369-.934-.905 1.07-5.371 1.845-19.89-8.425-23.034-6.566-2.011-10.895 1.7-13.465 5.444-1.15 1.68-4.593 8.94-6.732 13.981-1.152 2.721-3.836 6.699-6.788 6.627-12.377-3.858-24.808-5.788-37.236-5.788-12.431 0-24.862 1.93-37.239 5.788-2.952.072-5.638-3.906-6.791-6.627-2.138-5.041-5.581-12.301-6.732-13.981-2.568-3.744-6.896-7.455-13.462-5.444-10.27 3.144-9.498 17.663-8.425 23.034.108.536-.396.997-.934.905-10.519-1.811-91.4642-18.903-94.8145 5.063-3.1779 22.732 25.5285 54.082 55.5655 68.171 2.9 1.36 5.206 3.658 8.015 5.188 4.727 2.577 7.548 9.008 6.855 14.808v83.713l10.967-6.3c16.716-9.59 34.165-14.077 47.597-16.74h.476c10.733-2.384 21.689-3.61 32.684-3.662h12.473c10.992.052 21.949 1.278 32.684 3.662h.474c13.434 2.663 30.881 7.15 47.601 16.74l10.967 6.3v-83.713c-.695-5.8 2.123-12.231 6.85-14.808 2.815-1.53 5.115-3.828 8.015-5.188 30.037-14.09 58.746-45.439 55.566-68.171zm-176.204 85.823c-.464 2.484-6.387 7.057-21.072 10.847-10.283 2.591-20.982 3.556-31.566 2.902-2.488-.157-4.981-.572-7.29-1.514-4.212-1.716-7.77-4.667-10.418-8.555-3.575-5.078-5.278-10.731-4.187-16.843 1.063-6.119 4.593-10.851 9.688-14.395 3.816-2.75 8.167-4.304 12.712-4.473 2.488-.09 4.976.369 7.364 1.078 10.169 3.007 19.896 7.583 28.673 13.539 12.506 8.59 16.51 14.918 16.096 17.414zm85.967 3.68c-2.645 3.888-6.206 6.839-10.419 8.555-2.305.942-4.801 1.357-7.287 1.514-10.584.654-21.285-.312-31.568-2.902-14.688-3.79-20.606-8.363-21.069-10.847-.415-2.497 3.587-8.824 16.095-17.414 8.777-5.957 18.501-10.532 28.673-13.539 2.388-.709 4.874-1.168 7.365-1.078 4.541.169 8.898 1.723 12.711 4.473 5.095 3.544 8.626 8.273 9.686 14.392 1.091 6.112-.613 11.768-4.187 16.846z"/></g><path d="m71.8163 30.1843c-.3905.3905-.3905 1.0237 0 1.4142l6.364 6.364c.3905.3905 1.0237.3905 1.4142 0 .3905-.3906.3905-1.0237 0-1.4143l-5.6568-5.6568 5.6568-5.6569c.3905-.3905.3905-1.0237 0-1.4142s-1.0237-.3905-1.4142 0zm29.4817 1.4142c.391-.3905.391-1.0237 0-1.4142l-6.3636-6.364c-.3905-.3905-1.0237-.3905-1.4142 0s-.3905 1.0237 0 1.4142l5.6569 5.6569-5.6569 5.6568c-.3905.3906-.3905 1.0237 0 1.4143.3905.3905 1.0237.3905 1.4142 0zm-28.7746.2929h28.0676v-2h-28.0676z" fill="#a2b8d1"/><path d="m71.5058 30.1842c-.3905.3905-.3905 1.0237 0 1.4142l6.3639 6.364c.3906.3905 1.0237.3905 1.4143 0 .3905-.3906.3905-1.0237 0-1.4142l-5.6569-5.6569 5.6569-5.6569c.3905-.3905.3905-1.0236 0-1.4142-.3906-.3905-1.0237-.3905-1.4143 0zm29.4822 1.4142c.39-.3905.39-1.0237 0-1.4142l-6.3641-6.364c-.3906-.3905-1.0237-.3905-1.4142 0-.3906.3906-.3906 1.0237 0 1.4142l5.6568 5.6569-5.6568 5.6569c-.3906.3905-.3906 1.0236 0 1.4142.3905.3905 1.0236.3905 1.4142 0zm-28.7751.2929h28.0681v-2h-28.0681z" fill="#a2b8d1"/><g filter="url(#a)"><circle cx="30.1543" cy="40.6632" fill="#2b4266" r="16.5391"/></g><path d="m30.4823 33.1335c.6608.0425 1.3151.1558 1.9517.3381.3406-.6431.6258-1.3141.8525-2.0056.0695-.2019.2046-.3747.3837-.4909.1792-.1161.3921-.169.6048-.1501.2126.019.4129.1085.5687.2545s.2583.3399.2911.5509c.0785.5088.1099 1.0237.0939 1.5383 3.7883-.7868 6.6089-1.4491 6.5079-.0141l-.0141.0517c-.8478 2.3321-2.5388 4.1968-4.6384 5.1175-.2062.0714-.3818.2112-.4976.3962s-.1648.404-.1388.6207c.0258 2.0362 0 4.0184 0 6.0335-1.9829-.8614-4.1217-1.3059-6.2836-1.3059s-4.3008.4445-6.2836 1.3059c0-2.0151-.0165-3.9926 0-6.0335.0259-.2167-.0231-.4357-.1389-.6207-.1157-.185-.2914-.3248-.4976-.3962-2.0996-.9207-3.7906-2.7854-4.6384-5.1175l-.0141-.0517c-.101-1.435 2.7196-.7727 6.5079.0141-.016-.5146.0154-1.0295.0939-1.5383.0328-.211.1353-.4049.2911-.5509.1559-.146.3561-.2355.5688-.2545.2126-.0189.4255.034.6047.1501.1791.1162.3142.289.3837.4909.2267.6915.5119 1.3625.8526 2.0056.6365-.1823 1.2908-.2956 1.9516-.3381z" fill="#193151"/><path d="m30.2306 33.8287c.8613.0345 1.7132.1927 2.5294.4697.4997-.821.9002-1.6985 1.1931-2.614.0149-.055.0493-.1028.0969-.1344.0475-.0315.1049-.0447.1614-.037.0592-.0002.1163.022.1598.062.0435.0401.0704.0951.0751.1541.1041.7567.1152 1.5234.0329 2.2828.4509-.0681.5636-.0846 1.1602-.2184 3.7999-.8361 5.0447-.869 5.3852-.7257-.7938 2.0996-2.3274 3.7741-4.2274 4.6031-.3325.1265-.615.3574-.8052.658-.1901.3007-.2776.6549-.2493 1.0095.0211 1.691 0 3.3467 0 5.0095-3.5992-1.3371-7.5589-1.3371-11.158 0 0-1.6628-.0118-3.3185 0-5.0095.0283-.3546-.0592-.7088-.2494-1.0095-.1901-.3006-.4726-.5315-.8051-.658-1.893-.829-3.4266-2.5035-4.2275-4.6031.3406-.1433 1.5853-.1104 5.3853.7257.5965.1338.7046.1503 1.1602.2184-.0823-.7594-.0713-1.5261.0329-2.2828.0047-.059.0315-.114.0751-.1541.0435-.04.1006-.0622.1597-.062.0566-.0077.114.0055.1615.037.0475.0316.082.0794.0969.1344.2928.9155.6933 1.793 1.193 2.614.8163-.277 1.6682-.4352 2.5294-.4697z" fill="#bfd5eb"/><path d="m27.02 40.3086c-.3185-.0037-.6228-.1327-.847-.359-.2241-.2264-.3501-.5319-.3507-.8505.0042-.1515.0384-.3006.1005-.4388.062-.1383.1508-.2629.2611-.3668.2246-.2144.5233-.3339.8338-.3334.4764.0319.9433.1488 1.3786.3452.4861.2114.8925.5049.8901.829-.0023.3241-.4086.6154-.8948.8267-.4337.1941-.8978.3117-1.3716.3476z" fill="#ffd700"/><path d="m27.0088 40.6276c-.4029-.0061-.7871-.1708-1.0693-.4583-.2822-.2876-.4398-.6747-.4385-1.0776.0059-.1944.0505-.3857.1312-.5628.0806-.177.1957-.3362.3385-.4682.2829-.2714.6602-.4222 1.0522-.4204.5192.0323 1.0284.158 1.503.371.7046.31 1.0851.7046 1.0851 1.1227 0 .418-.3781.8102-1.0898 1.1202-.4727.2117-.9792.3381-1.496.3734h-.0141zm0-2.3485c-.2279-.0001-.4468.0883-.6107.2466-.0803.0742-.145.1638-.1901.2634-.0452.0997-.07.2073-.0729.3167-.0004.1148.0221.2285.066.3345.044.106.1085.2023.19.2832.0808.0829.1771.149.2835.1945.1064.0456.2208.0696.3365.0708.43-.0366.8508-.1454 1.2448-.3217.5166-.2349.7045-.4415.7045-.5355 0-.0939-.1855-.31-.7045-.5331-.3952-.177-.8178-.2851-1.2495-.3194z" fill="#193151"/><path d="m21.3324 34.1692 2.9357.6811c.0315.0069.0599.0236.0811.0479.0212.0242.034.0546.0367.0867.0026.0321-.0051.0641-.0221.0915-.017.0273-.0423.0485-.0722.0604-.5848.2349-1.644.5872-2.1442.2114-.7257-.5402-.9512-.8408-.9958-1.0052-.0052-.0245-.004-.05.0034-.0739.0074-.024.0208-.0457.0389-.0631.0181-.0173.0403-.0298.0645-.0363.0242-.0064.0497-.0066.074-.0005z" fill="#193151"/><path d="m33.325 40.3086c.3189-.0025.6239-.1311.8483-.3577.2245-.2266.3501-.5329.3494-.8518-.0042-.1515-.0384-.3006-.1005-.4388-.062-.1383-.1508-.2629-.2611-.3668-.2246-.2144-.5233-.3339-.8338-.3334-.4764.0319-.9433.1488-1.3786.3452-.4861.2114-.8924.5049-.8901.829.0024.3241.4087.6154.8948.8267.4337.1941.8978.3117 1.3716.3476z" fill="#ffd700"/><path d="m33.3376 40.6276c.4028-.0061.787-.1708 1.0692-.4583.2823-.2876.4398-.6747.4385-1.0776-.0059-.1944-.0505-.3857-.1311-.5628-.0807-.177-.1958-.3362-.3386-.4682-.2828-.2714-.6601-.4222-1.0521-.4204-.5193.0323-1.0285.158-1.5031.371-.7046.31-1.085.7046-1.085 1.1227 0 .418.3781.8102 1.0897 1.1202.4728.2117.9792.3381 1.496.3734h.0141zm0-2.3485c.2278-.0001.4467.0883.6106.2466.0803.0742.145.1638.1902.2634.0451.0997.0699.2073.0728.3167.0004.1148-.0221.2285-.066.3345s-.1085.2023-.19.2832c-.0807.0829-.1771.149-.2835.1945-.1064.0456-.2207.0696-.3365.0708-.43-.0366-.8508-.1454-1.2447-.3217-.5167-.2349-.7046-.4415-.7046-.5355 0-.0939.1855-.31.7046-.5331.3952-.177.8178-.2851 1.2494-.3194z" fill="#193151"/><path d="m39.013 34.1692-2.9358.6811c-.0314.0069-.0598.0236-.081.0479-.0212.0242-.0341.0546-.0367.0867s.0051.0641.0221.0915c.0169.0273.0422.0485.0722.0604.5848.2349 1.644.5872 2.1442.2114.7257-.5402.9512-.8408.9958-1.0052.0051-.0245.0039-.05-.0035-.0739-.0074-.024-.0207-.0457-.0388-.0631-.0181-.0173-.0403-.0298-.0645-.0363-.0242-.0064-.0497-.0066-.074-.0005z" fill="#193151"/><path d="m37.0931 45.8416c-1.2048-1.3011-2.783-1.8789-4.4622-2.2217-.7871-.1735-1.5921-.2523-2.3979-.2349h-.1151c-.8058-.0174-1.6108.0614-2.3979.2349-1.6816.3335-3.2598.9206-4.4623 2.2217-.9746 1.0569-1.2494 2.3744-.6317 3.4759.398.7664.991 1.4144 1.7191 1.8788 1.3687.7882 2.8902 1.2743 4.4623 1.4256.434.0517.8711.0745 1.3081.0681h.1151c.4371.0064.8741-.0164 1.3082-.0681 1.5721-.1513 3.0936-.6374 4.4622-1.4256.7282-.4644 1.3212-1.1124 1.7192-1.8788.6224-1.1015.3476-2.419-.6271-3.4759z" fill="#9ab6cc"/><path d="m36.4265 45.694c-1.0827-.9864-2.4989-1.4303-4.009-1.6816-.7201-.1409-1.4529-.2071-2.1866-.1973h-.1056c-.735-.0132-1.4693.0498-2.1913.1879-1.5101.2513-2.9263.7046-4.009 1.6816-.876.7985-1.1202 1.7966-.5683 2.6304.3802.6039.9133 1.0965 1.5453 1.4279 1.2589.6049 2.619.9712 4.0114 1.0804.4152.0405.8323.0577 1.2494.0516h.0306c.4171.0061.8342-.0111 1.2494-.0516 1.3924-.1092 2.7525-.4755 4.0114-1.0804.632-.3314 1.1651-.824 1.5453-1.4279.5472-.8361.303-1.8342-.573-2.621z" fill="#bfd5eb"/><g fill="#193151"><path d="m27.1174 48.472c-.6834.3335-1.3199 0-1.442-.7563-.1339-.8102.9582-2.7361 1.2095-1.2799.2513 1.4561 1.3692-.5801 1.3763.3311-.0184.3612-.1345.7105-.3359 1.0109-.2015.3003-.4807.5402-.8079.6942z"/><path d="m37.3754 45.5809c-1.4349-1.55-3.3537-2.0785-4.6713-2.3485h-.0305c-.6895-.153-1.3934-.2317-2.0996-.2349h-.8009c-.7062.0032-1.4101.0819-2.0996.2349h-.0305c-1.3176.2606-3.2364.7891-4.6713 2.3485-1.1085 1.1978-1.3692 2.7032-.6858 3.9245.4278.8295 1.0691 1.5299 1.8577 2.0291 1.3035.7845 2.7713 1.2542 4.6173 1.4773.4122.0503.8271.0754 1.2424.0751h.3405c.4153.0003.8302-.0248 1.2424-.0751 1.846-.2231 3.3138-.6928 4.6173-1.4773.7886-.4992 1.4299-1.1996 1.8577-2.0291.6835-1.2283.4228-2.7267-.6858-3.9245zm.0141 3.5487c-.3638.7115-.9101 1.3137-1.5829 1.745-1.2072.7257-2.5834 1.1743-4.3143 1.3739-.4185.0499-.8398.0719-1.2612.0658h-.1151c-.4214.0061-.8427-.0159-1.2612-.0658-1.7356-.2114-3.1071-.6482-4.3143-1.3739-.6728-.4313-1.219-1.0335-1.5829-1.745-.5237-.9394-.3077-2.0667.5801-3.025.9887-1.0709 2.3016-1.7215 4.2556-2.1137h.0282c.7667-.1713 1.5513-.2502 2.3368-.2348h.0305c.7856-.0154 1.5701.0635 2.3368.2348h.0282c1.954.3852 3.2669 1.0358 4.2556 2.1137.8878.9583 1.1039 2.0903.5801 3.025z"/><path d="m33.2287 48.472c.6834.3335 1.3199 0 1.442-.7563.1339-.8102-.9582-2.7361-1.2095-1.2799-.2513 1.4561-1.3692-.5801-1.3762.3311.0183.3612.1344.7105.3358 1.0109.2015.3003.4807.5402.8079.6942z"/></g><g filter="url(#b)"><circle cx="17.3984" cy="16.7452" fill="#2b4266" r="16.5391" transform="matrix(0 -1 1 0 .6532 34.1436)"/></g><path d="m17.7323 9.21564c.6608.0425 1.3151.15588 1.9517.33819.3406-.64313.6258-1.31413.8525-2.00569.0695-.20188.2046-.37468.3837-.49084.1792-.11616.3921-.16898.6048-.15007.2126.01892.4129.1085.5687.25446.1558.14595.2583.33987.2911.55086.0785.5088.1099 1.02374.0939 1.5383 3.7883-.78677 6.6089-1.44906 6.5079-.01409l-.0141.05168c-.8478 2.33216-2.5388 4.19686-4.6384 5.11756-.2062.0713-.3818.2112-.4976.3962s-.1648.404-.1388.6207c.0258 2.0362 0 4.0184 0 6.0335-1.9829-.8614-4.1217-1.3059-6.2836-1.3059s-4.3008.4445-6.2836 1.3059c0-2.0151-.0165-3.9926 0-6.0335.0259-.2167-.0231-.4357-.1389-.6207-.1157-.185-.2914-.3249-.4976-.3962-2.09961-.9207-3.79058-2.7854-4.63841-5.11756l-.01409-.05168c-.10099-1.43497 2.71963-.77268 6.5079.01409-.016-.51456.0154-1.0295.0939-1.5383.0328-.21099.1353-.40491.2911-.55086.1559-.14596.3561-.23554.5688-.25446.2126-.01891.4255.03391.6047.15007.1791.11616.3142.28896.3837.49084.2267.69156.5119 1.36256.8526 2.00569.6365-.18231 1.2908-.29569 1.9516-.33819z" fill="#193151"/><path d="m17.4816 9.91047c.8613.03454 1.7131.19273 2.5294.46973.4997-.82105.9002-1.69851 1.1931-2.61397.0149-.05508.0493-.10285.0968-.1344.0476-.03155.105-.04472.1615-.03704.0592-.00019.1162.02197.1598.06202.0435.04006.0703.09507.0751.15404.1041.75674.1151 1.52339.0328 2.28285.451-.0681.5637-.0846 1.1602-.21845 3.8-.83609 5.0448-.86897 5.3853-.72571-.7938 2.09966-2.3274 3.77416-4.2274 4.60316-.3325.1265-.6151.3573-.8052.658s-.2776.6549-.2493 1.0095c.0211 1.691 0 3.3467 0 5.0095-3.5992-1.3372-7.5589-1.3372-11.1581 0 0-1.6628-.0117-3.3185 0-5.0095.0283-.3546-.0591-.7088-.2493-1.0095-.1901-.3007-.4727-.5315-.8052-.658-1.89291-.829-3.42653-2.5035-4.22739-4.60316.34054-.14326 1.58528-.11038 5.38529.72571.5965.13385.7045.15035 1.1602.21845-.0823-.75946-.0713-1.52611.0328-2.28285.0048-.05897.0316-.11398.0751-.15404.0436-.04005.1006-.06221.1598-.06202.0565-.00768.1139.00549.1615.03704.0475.03155.082.07932.0968.1344.2929.91546.6934 1.79292 1.1931 2.61397.8163-.277 1.6681-.43519 2.5294-.46973z" fill="#bfd5eb"/><path d="m14.27 16.3905c-.3185-.0037-.6228-.1327-.847-.3591-.2241-.2263-.3501-.5318-.3507-.8504.0042-.1515.0384-.3006.1005-.4389.062-.1382.1508-.2628.2611-.3667.2246-.2144.5233-.3339.8338-.3335.4764.032.9433.1489 1.3786.3453.4861.2113.8925.5049.8901.829-.0023.3241-.4086.6153-.8948.8267-.4337.1941-.8978.3117-1.3716.3476z" fill="#ffd700"/><path d="m14.2597 16.7097c-.4028-.0061-.787-.1708-1.0692-.4584-.2823-.2875-.4398-.6746-.4385-1.0775.0059-.1944.0505-.3858.1312-.5628.0806-.177.1957-.3362.3385-.4682.2828-.2714.6601-.4222 1.0521-.4204.5193.0323 1.0285.158 1.5031.371.7046.31 1.0851.7046 1.0851 1.1227 0 .418-.3782.8102-1.0898 1.1202-.4728.2117-.9792.3381-1.496.3734h-.0141zm0-2.3485c-.2278-.0001-.4467.0883-.6106.2466-.0803.0742-.145.1638-.1902.2634-.0451.0996-.0699.2073-.0728.3167-.0004.1147.0221.2284.066.3345.044.106.1085.2023.19.2831.0807.0829.1771.1491.2835.1946.1064.0456.2208.0696.3365.0708.43-.0366.8508-.1454 1.2447-.3217.5167-.2349.7046-.4416.7046-.5355s-.1855-.31-.7046-.5331c-.3952-.177-.8177-.2851-1.2494-.3194z" fill="#193151"/><path d="m8.58143 10.2512 2.93567.6811c.0315.0068.0599.0236.0811.0478.0212.0243.0341.0547.0367.0867.0026.0321-.0051.0642-.0221.0916-.0169.0273-.0423.0485-.0722.0604-.5848.2348-1.64397.5871-2.14422.2114-.7257-.5402-.95116-.8408-.99579-1.0052-.00513-.0246-.00394-.05.00346-.074.0074-.0239.02077-.0456.03885-.063.01807-.0174.04027-.0299.06451-.0363.02423-.0064.0497-.0066.07402-.0005z" fill="#193151"/><path d="m20.5759 16.3905c.319-.0025.624-.1311.8484-.3577s.35-.5329.3494-.8518c-.0043-.1515-.0384-.3006-.1005-.4389-.062-.1382-.1508-.2628-.2612-.3667-.2245-.2144-.5232-.3339-.8337-.3335-.4764.032-.9433.1489-1.3786.3453-.4862.2113-.8925.5049-.8901.829.0023.3241.4086.6153.8948.8267.4337.1941.8977.3117 1.3715.3476z" fill="#ffd700"/><path d="m20.5876 16.7097c.4028-.0061.787-.1708 1.0692-.4584.2823-.2875.4398-.6746.4385-1.0775-.0059-.1944-.0505-.3858-.1311-.5628-.0807-.177-.1958-.3362-.3386-.4682-.2828-.2714-.6601-.4222-1.0521-.4204-.5193.0323-1.0285.158-1.5031.371-.7046.31-1.085.7046-1.085 1.1227 0 .418.3781.8102 1.0897 1.1202.4728.2117.9792.3381 1.496.3734h.0141zm0-2.3485c.2278-.0001.4467.0883.6106.2466.0803.0742.145.1638.1902.2634.0451.0996.0699.2073.0728.3167.0004.1147-.0221.2284-.066.3345-.0439.106-.1085.2023-.19.2831-.0807.0829-.1771.1491-.2835.1946-.1064.0456-.2207.0696-.3365.0708-.43-.0366-.8508-.1454-1.2447-.3217-.5167-.2349-.7046-.4416-.7046-.5355s.1855-.31.7046-.5331c.3952-.177.8178-.2851 1.2494-.3194z" fill="#193151"/><path d="m26.263 10.2512-2.9358.6811c-.0314.0068-.0598.0236-.081.0478-.0212.0243-.0341.0547-.0367.0867-.0026.0321.0051.0642.0221.0916.0169.0273.0422.0485.0722.0604.5848.2348 1.644.5871 2.1442.2114.7257-.5402.9512-.8408.9958-1.0052.0051-.0246.0039-.05-.0035-.074-.0074-.0239-.0207-.0456-.0388-.063s-.0403-.0299-.0645-.0363-.0497-.0066-.074-.0005z" fill="#193151"/><path d="m24.3431 21.9236c-1.2048-1.3011-2.783-1.8789-4.4622-2.2217-.7871-.1735-1.5921-.2523-2.3979-.2349h-.1151c-.8058-.0174-1.6108.0614-2.3979.2349-1.6816.3335-3.2598.9206-4.4623 2.2217-.97463 1.0569-1.24941 2.3744-.63174 3.4759.39804.7664.99104 1.4144 1.71914 1.8788 1.3687.7882 2.8902 1.2743 4.4623 1.4256.434.0517.8711.0745 1.3081.0681h.1151c.4371.0064.8741-.0164 1.3082-.0681 1.5721-.1513 3.0936-.6374 4.4622-1.4256.7282-.4644 1.3212-1.1124 1.7192-1.8788.6224-1.1015.3476-2.419-.6271-3.4759z" fill="#9ab6cc"/><path d="m23.6774 21.7757c-1.0827-.9864-2.4988-1.4302-4.009-1.6815-.7201-.141-1.4528-.2071-2.1865-.1973h-.1057c-.7349-.0132-1.4692.0497-2.1912.1879-1.5101.2513-2.9263.7045-4.009 1.6816-.876.7985-1.1202 1.7966-.5683 2.6303.3802.604.9133 1.0966 1.5453 1.428 1.2589.6049 2.619.9712 4.0114 1.0803.4152.0405.8323.0578 1.2494.0517h.0305c.4172.0061.8343-.0112 1.2495-.0517 1.3924-.1091 2.7525-.4754 4.0113-1.0803.632-.3314 1.1652-.824 1.5454-1.428.5472-.8361.303-1.8342-.5731-2.621z" fill="#bfd5eb"/><path d="m14.3684 24.554c-.6835.3335-1.3199 0-1.442-.7562-.1339-.8103.9582-2.7361 1.2095-1.28s1.3692-.5801 1.3762.3311c-.0183.3612-.1344.7106-.3358 1.0109-.2015.3003-.4807.5402-.8079.6942z" fill="#193151"/><path d="m24.6264 21.6629c-1.435-1.5501-3.3537-2.0785-4.6713-2.3486h-.0305c-.6895-.1529-1.3934-.2317-2.0996-.2349h-.8009c-.7062.0032-1.4101.082-2.0996.2349h-.0305c-1.3176.2607-3.2364.7891-4.6713 2.3486-1.10857 1.1977-1.36926 2.7032-.68583 3.9244.42782.8295 1.06913 1.53 1.85773 2.0292 1.3034.7844 2.7713 1.2541 4.6173 1.4772.4122.0503.8271.0754 1.2424.0752h.3405c.4153.0002.8302-.0249 1.2424-.0752 1.846-.2231 3.3138-.6928 4.6173-1.4772.7886-.4992 1.4299-1.1997 1.8577-2.0292.6834-1.2283.4227-2.7267-.6858-3.9244zm.0141 3.5486c-.3639.7116-.9101 1.3137-1.5829 1.745-1.2072.7257-2.5835 1.1743-4.3143 1.3739-.4185.0499-.8398.0719-1.2612.0658h-.1151c-.4214.0061-.8427-.0159-1.2612-.0658-1.7356-.2113-3.1071-.6482-4.3143-1.3739-.6728-.4313-1.2191-1.0334-1.5829-1.745-.52377-.9394-.3077-2.0667.5801-3.0249.9887-1.071 2.3016-1.7215 4.2556-2.1137h.0281c.7668-.1714 1.5513-.2503 2.3369-.2349h.0305c.7855-.0154 1.5701.0635 2.3368.2349h.0282c1.954.3851 3.2669 1.0357 4.2556 2.1137.8878.9582 1.1038 2.0902.5801 3.0249z" fill="#193151"/><path d="m20.4797 24.554c.6834.3335 1.3199 0 1.442-.7562.1339-.8103-.9582-2.7361-1.2095-1.28s-1.3692-.5801-1.3763.3311c.0184.3612.1345.7106.3359 1.0109.2015.3003.4807.5402.8079.6942z" fill="#193151"/><g filter="url(#c)"><circle cx="46.6934" cy="16.7452" fill="#2b4266" r="16.5391"/><path d="m47.0214 9.2156c.6607.04251 1.3151.15589 1.9516.3382.3406-.64313.6259-1.31413.8525-2.00569.0696-.20188.2047-.37468.3838-.49084.1792-.11616.392-.16898.6047-.15007.2127.01892.4129.1085.5688.25445.1558.14596.2583.33988.2911.55087.0784.50879.1099 1.02374.0939 1.5383 3.7882-.78677 6.6089-1.44906 6.5079-.01409l-.0141.05168c-.8478 2.33209-2.5388 4.19689-4.6384 5.11749-.2063.0714-.3819.2112-.4977.3962-.1157.185-.1647.4041-.1388.6208.0258 2.0362 0 4.0184 0 6.0334-1.9829-.8613-4.1217-1.3058-6.2836-1.3058s-4.3007.4445-6.2836 1.3058c0-2.015-.0164-3.9925 0-6.0334.026-.2167-.023-.4358-.1388-.6208s-.2914-.3248-.4976-.3962c-2.0997-.9206-3.7906-2.7854-4.6385-5.11749l-.014-.05168c-.101-1.43497 2.7196-.77268 6.5078.01409-.0159-.51456.0155-1.02951.094-1.5383.0328-.21099.1353-.40491.2911-.55087.1558-.14595.356-.23553.5687-.25445.2127-.01891.4256.03391.6047.15007.1792.11616.3143.28896.3838.49084.2267.69156.5119 1.36256.8525 2.00569.6366-.18231 1.2909-.29569 1.9517-.3382z" fill="#193151"/><path d="m46.7697 9.91047c.8613.03454 1.7131.19273 2.5294.46973.4997-.82105.9002-1.69851 1.1931-2.61397.0148-.05508.0493-.10285.0968-.1344.0476-.03155.105-.04472.1615-.03704.0592-.00019.1162.02197.1598.06202.0435.04006.0703.09507.0751.15404.1041.75674.1151 1.52339.0328 2.28285.451-.0681.5637-.0846 1.1602-.21845 3.8-.83609 5.0448-.86897 5.3853-.72571-.7938 2.09966-2.3274 3.77416-4.2274 4.60316-.3325.1265-.6151.3573-.8052.658-.1902.3007-.2776.6549-.2493 1.0095.0211 1.691 0 3.3467 0 5.0095-3.5992-1.3372-7.5589-1.3372-11.1581 0 0-1.6628-.0117-3.3185 0-5.0095.0283-.3546-.0592-.7088-.2493-1.0095s-.4727-.5315-.8052-.658c-1.8929-.829-3.4265-2.5035-4.2274-4.60316.3405-.14326 1.5853-.11038 5.3853.72571.5965.13385.7045.15035 1.1602.21845-.0823-.75946-.0713-1.52611.0328-2.28285.0048-.05897.0316-.11398.0751-.15404.0436-.04005.1006-.06221.1598-.06202.0565-.00768.1139.00549.1615.03704.0475.03155.0819.07932.0968.1344.2929.91546.6934 1.79292 1.1931 2.61397.8163-.277 1.6681-.43519 2.5294-.46973z" fill="#bfd5eb"/><path d="m43.5601 16.3905c-.3186-.0037-.6229-.1327-.847-.3591-.2242-.2263-.3502-.5319-.3508-.8504.0043-.1515.0384-.3007.1005-.4389s.1508-.2629.2612-.3667c.2245-.2145.5232-.3339.8337-.3335.4765.032.9434.1489 1.3786.3452.4862.2114.8925.505.8901.8291-.0023.3241-.4086.6153-.8948.8267-.4337.1941-.8977.3117-1.3715.3476z" fill="#ffd700"/><path d="m43.5488 16.7097c-.4028-.0061-.787-.1708-1.0693-.4584-.2822-.2875-.4398-.6746-.4385-1.0775.006-.1944.0506-.3858.1312-.5628.0807-.177.1957-.3362.3385-.4682.2829-.2714.6602-.4222 1.0522-.4204.5193.0323 1.0284.158 1.5031.371.7045.31 1.085.7046 1.085 1.1227 0 .418-.3781.8102-1.0897 1.1202-.4728.2117-.9793.3381-1.4961.3734h-.014zm0-2.3485c-.2278-.0001-.4468.0883-.6106.2466-.0804.0742-.145.1638-.1902.2634s-.0699.2073-.0729.3167c-.0003.1147.0221.2284.0661.3345.0439.106.1085.2023.1899.2831.0808.0829.1771.1491.2836.1946.1064.0456.2207.0696.3365.0708.43-.0366.8508-.1454 1.2447-.3217.5167-.2349.7046-.4416.7046-.5355s-.1856-.31-.7046-.5331c-.3952-.177-.8178-.2851-1.2494-.3194z" fill="#193151"/><path d="m37.8724 10.2512 2.9358.681c.0314.0069.0598.0237.081.0479s.0341.0546.0367.0867-.0051.0642-.0221.0915c-.0169.0274-.0422.0486-.0722.0605-.5848.2348-1.644.5871-2.1442.2113-.7257-.5401-.9512-.8408-.9958-1.0052-.0051-.0245-.0039-.0499.0035-.0739.0074-.0239.0207-.0456.0388-.063s.0403-.0299.0645-.0363c.0243-.0065.0497-.0066.074-.0005z" fill="#193151"/><path d="m49.865 16.3905c.3189-.0025.6239-.1311.8484-.3577.2244-.2267.35-.5329.3494-.8518-.0043-.1515-.0385-.3007-.1005-.4389-.0621-.1382-.1508-.2629-.2612-.3667-.2246-.2145-.5232-.3339-.8337-.3335-.4765.032-.9434.1489-1.3786.3452-.4862.2114-.8925.505-.8902.8291.0024.3241.4087.6153.8948.8267.4338.1941.8978.3117 1.3716.3476z" fill="#ffd700"/><path d="m49.8766 16.7097c.4029-.0061.7871-.1708 1.0693-.4584.2822-.2875.4398-.6746.4385-1.0775-.0059-.1944-.0505-.3858-.1312-.5628-.0806-.177-.1957-.3362-.3385-.4682-.2829-.2714-.6602-.4222-1.0522-.4204-.5192.0323-1.0284.158-1.503.371-.7046.31-1.0851.7046-1.0851 1.1227 0 .418.3781.8102 1.0898 1.1202.4727.2117.9792.3381 1.496.3734h.0141zm0-2.3485c.2279-.0001.4468.0883.6107.2466.0803.0742.145.1638.1901.2634.0452.0996.07.2073.0729.3167.0004.1147-.0221.2284-.066.3345-.044.106-.1086.2023-.19.2831-.0808.0829-.1771.1491-.2835.1946-.1064.0456-.2208.0696-.3365.0708-.43-.0366-.8508-.1454-1.2448-.3217-.5166-.2349-.7045-.4416-.7045-.5355s.1855-.31.7045-.5331c.3952-.177.8178-.2851 1.2495-.3194z" fill="#193151"/><path d="m55.552 10.2512-2.9357.681c-.0314.0069-.0599.0237-.0811.0479s-.034.0546-.0367.0867c-.0026.0321.0052.0642.0221.0915.017.0274.0423.0486.0722.0605.5848.2348 1.644.5871 2.1443.2113.7257-.5401.9511-.8408.9958-1.0052.0051-.0245.0039-.0499-.0035-.0739-.0074-.0239-.0208-.0456-.0388-.063-.0181-.0174-.0403-.0299-.0646-.0363-.0242-.0065-.0497-.0066-.074-.0005z" fill="#193151"/><path d="m53.6332 21.9236c-1.2048-1.3011-2.7831-1.8789-4.4623-2.2217-.7871-.1735-1.5921-.2523-2.3979-.2349h-.1151c-.8058-.0174-1.6108.0614-2.3979.2349-1.6815.3335-3.2598.9206-4.4622 2.2217-.9747 1.0569-1.2495 2.3744-.6318 3.4759.398.7664.991 1.4144 1.7192 1.8788 1.3686.7882 2.8901 1.2743 4.4622 1.4256.4341.0517.8711.0745 1.3082.0681h.1151c.437.0064.8741-.0164 1.3081-.0681 1.5721-.1513 3.0936-.6374 4.4623-1.4256.7281-.4644 1.3211-1.1124 1.7191-1.8788.6224-1.1015.3476-2.419-.627-3.4759z" fill="#9ab6cc"/><path d="m52.9655 21.7757c-1.0827-.9864-2.4989-1.4302-4.009-1.6815-.7201-.141-1.4528-.2071-2.1865-.1973h-.1057c-.7349-.0132-1.4692.0497-2.1912.1879-1.5101.2513-2.9263.7045-4.009 1.6816-.876.7985-1.1203 1.7966-.5683 2.6303.3801.604.9133 1.0966 1.5453 1.428 1.2589.6049 2.619.9712 4.0114 1.0803.4152.0405.8323.0578 1.2494.0517h.0305c.4171.0061.8343-.0112 1.2495-.0517 1.3924-.1091 2.7524-.4754 4.0113-1.0803.632-.3314 1.1652-.824 1.5454-1.428.5472-.8361.3029-1.8342-.5731-2.621z" fill="#bfd5eb"/><g fill="#193151"><path d="m43.6565 24.554c-.6835.3335-1.3199 0-1.442-.7563-.1339-.8102.9582-2.7361 1.2095-1.2799.2513 1.4561 1.3692-.5801 1.3762.3311-.0183.3612-.1344.7105-.3359 1.0109-.2014.3003-.4806.5402-.8078.6942z"/><path d="m53.9145 21.6628c-1.435-1.55-3.3538-2.0785-4.6713-2.3485h-.0305c-.6895-.153-1.3934-.2317-2.0997-.2349h-.8008c-.7063.0032-1.4101.0819-2.0996.2349h-.0306c-1.3175.2607-3.2363.7891-4.6713 2.3485-1.1085 1.1978-1.3692 2.7032-.6857 3.9245.4278.8295 1.069 1.5299 1.8577 2.0291 1.3034.7845 2.7713 1.2542 4.6173 1.4773.4122.0503.8271.0754 1.2423.0751h.3406c.4153.0003.8302-.0248 1.2424-.0751 1.846-.2231 3.3138-.6928 4.6173-1.4773.7886-.4992 1.4299-1.1996 1.8577-2.0291.6834-1.2283.4227-2.7267-.6858-3.9245zm.0141 3.5487c-.3639.7115-.9101 1.3137-1.5829 1.745-1.2072.7257-2.5835 1.1743-4.3144 1.3739-.4184.0499-.8398.0719-1.2611.0658h-.1151c-.4214.0061-.8427-.0159-1.2612-.0658-1.7356-.2114-3.1072-.6482-4.3143-1.3739-.6728-.4313-1.2191-1.0335-1.583-1.745-.5237-.9394-.3076-2.0667.5801-3.0249.9888-1.071 2.3016-1.7215 4.2556-2.1138h.0282c.7668-.1713 1.5513-.2502 2.3369-.2348h.0305c.7855-.0154 1.57.0635 2.3368.2348h.0282c1.954.3852 3.2668 1.0358 4.2556 2.1138.8878.9582 1.1038 2.0902.5801 3.0249z"/><path d="m49.7678 24.554c.6834.3335 1.3199 0 1.442-.7563.1339-.8102-.9582-2.7361-1.2095-1.2799-.2513 1.4561-1.3692-.5801-1.3763.3311.0184.3612.1345.7105.3359 1.0109.2014.3003.4807.5402.8079.6942z"/></g></g></svg>