<svg fill="none" height="75" viewBox="0 0 102 75" width="102" xmlns="http://www.w3.org/2000/svg" xmlns:xlink="http://www.w3.org/1999/xlink"><filter id="a" color-interpolation-filters="sRGB" filterUnits="userSpaceOnUse" height="8.39172" width="50.6826" x="44.8799" y="65.9039"><feFlood flood-opacity="0" result="BackgroundImageFix"/><feBlend in="SourceGraphic" in2="BackgroundImageFix" mode="normal" result="shape"/><feGaussianBlur result="effect1_foregroundBlur_5287_7967" stdDeviation="1"/></filter><radialGradient id="b" cx="70.9058" cy="13.9501" gradientUnits="userSpaceOnUse" r="12.3012"><stop offset="0" stop-color="#464648"/><stop offset=".536272" stop-color="#2e2d2d"/><stop offset=".990474" stop-color="#1b1919"/><stop offset="1" stop-color="#1b1919"/></radialGradient><linearGradient id="c"><stop offset="0" stop-color="#efee0e"/><stop offset=".517399" stop-color="#7fcc2a"/><stop offset="1" stop-color="#3aae9b"/></linearGradient><linearGradient id="d" gradientUnits="userSpaceOnUse" x1="64.6463" x2="64.9094" xlink:href="#c" y1="17.6352" y2="10.8824"/><linearGradient id="e" gradientUnits="userSpaceOnUse" x1="76.9344" x2="76.9782" xlink:href="#c" y1="17.55" y2="11.0164"/><linearGradient id="f"><stop offset="0" stop-color="#f5f460"/><stop offset=".517399" stop-color="#bfe587"/><stop offset="1" stop-color="#82d4c5"/></linearGradient><linearGradient id="g" gradientUnits="userSpaceOnUse" x1="64.6471" x2="64.9102" xlink:href="#f" y1="17.6353" y2="10.8825"/><linearGradient id="h" gradientUnits="userSpaceOnUse" x1="64.6463" x2="64.9094" xlink:href="#f" y1="17.6352" y2="10.8824"/><linearGradient id="i" gradientUnits="userSpaceOnUse" x1="76.936" x2="76.9799" xlink:href="#f" y1="17.5499" y2="11.0163"/><linearGradient id="j" gradientUnits="userSpaceOnUse" x1="76.9363" x2="76.9802" xlink:href="#f" y1="17.5499" y2="11.0163"/><path d="m53.3615 21.6318c1.8872.505 3.5088 2.0202 1.2554 4.0039-2.2534 1.9838-4.4238 4.5185-1.6455 4.2425 2.1764-.2162 7.7443-2.1767 8.5743-3.8173 2.4772-2.7738 13.4203-7.5247 18.4209-.4252 4.6915 6.6607 10.2788-3.3851 16.0283-7.0497.6804-.2804 4.6881 1.4234 1.8573 3.6646-2.831 2.2413-13.2914 17.303-16.5095 11.8608 3.5688 8.0809 8.4448 18.6184 2.7549 22.5708-3.4001 2.3618-20.3313 4.0871-27.8898-1.0486-7.5586-5.1357 3.1082-15.0406 3.1082-21.5222-9.1167 3.3162-12.9685 2.3986-14.8377.3672-4.0703-4.4235 4.4833-9.7862 8.8832-12.8468z" fill="#bfd5eb" stroke="#193151"/><path d="m80.3251 43.79c-1.6691-2.5272-3.8557-3.6494-6.1821-4.3154-1.0904-.3369-2.2057-.49-3.322-.4561h-.1595c-1.1163-.0339-2.2316.1192-3.3221.4561-2.3296.6478-4.5161 1.7882-6.1821 4.3154-1.3503 2.0528-1.7309 4.6119-.8752 6.7514.5515 1.4886 1.3729 2.7473 2.3817 3.6493 1.8962 1.5309 4.0041 2.4751 6.1821 2.769.6014.1005 1.2068.1446 1.8124.1323h.1594c.6055.0123 1.211-.0318 1.8123-.1323 2.1781-.2939 4.286-1.2381 6.1821-2.769 1.0088-.902 1.8303-2.1607 2.3818-3.6493.8622-2.1395.4815-4.6986-.8688-6.7514z" fill="#9ab6cc"/><path d="m71.1814 4.59008c.9155.05859 1.822.21486 2.7039.46613.4719-.88642.867-1.81124 1.1811-2.76441.0963-.27825.2835-.51642.5317-.67652s.5431-.23291.8377-.20684c.2947.02607.5721.14954.788.35071s.3579.46845.4033.75924c.1087.70127.1523 1.41101.1301 2.12023 5.2483-1.08439 9.156-1.99722 9.0161-.01942l-.0195.07123c-1.1746 3.21434-3.5173 5.78447-6.4261 7.05337-.2857.0984-.529.2911-.6894.5461-.1605.255-.2283.5569-.1924.8556.0358 2.8064 0 5.5385 0 8.3158-2.7471-1.1872-5.7102-1.7999-8.7054-1.7999-2.9951 0-5.9582.6127-8.7053 1.7999 0-2.7773-.0228-5.5029 0-8.3158.0359-.2987-.032-.6006-.1924-.8556s-.4037-.4477-.6894-.5461c-2.9088-1.2689-5.2515-3.83903-6.4261-7.05337l-.0196-.07123c-.1399-1.9778 3.7679-1.06497 9.0162.01942-.0222-.70922.0214-1.41896.1301-2.12023.0454-.29079.1874-.55807.4033-.75924s.4933-.32464.7879-.35071c.2947-.02607.5896.04674.8378.20684s.4354.39827.5317.67652c.3141.95317.7092 1.87799 1.1811 2.76441.8819-.25127 1.7884-.40754 2.7039-.46613z" fill="#193151"/><path d="m70.835 5.54771c1.1932.0476 2.3734.26563 3.5042.6474.6924-1.13162 1.2472-2.34101 1.6529-3.60278.0207-.07592.0684-.14176.1342-.18524.0659-.04349.1454-.06164.2238-.05105.0819-.00027.161.03027.2213.08548.0603.05522.0975.13103.104.21231.1443 1.04301.1596 2.09967.0456 3.14637.6247-.09387.7809-.11652 1.6073-.30103 5.2646-1.15237 6.9891-1.1977 7.4609-1.00024-1.0998 2.89387-3.2245 5.20186-5.8568 6.34457-.4607.1742-.8521.4924-1.1155.9068s-.3846.9027-.3454 1.3914c.0293 2.3306 0 4.6127 0 6.9045-4.9863-1.843-10.4722-1.843-15.4585 0 0-2.2918-.0163-4.5739 0-6.9045.0392-.4887-.082-.977-.3454-1.3914-.2635-.4144-.6549-.7326-1.1156-.9068-2.6225-1.14271-4.7472-3.4507-5.8567-6.34457.4718-.19746 2.1963-.15213 7.4608 1.00024.8265.18451.9762.20716 1.6074.30103-.114-1.0467-.0987-2.10336.0455-3.14637.0066-.08128.0437-.15709.1041-.21231.0603-.05521.1393-.08575.2213-.08548.0783-.01059.1579.00756.2237.05105.0659.04348.1136.10932.1342.18524.4057 1.26177.9606 2.47116 1.6529 3.60278 1.1309-.38177 2.3111-.5998 3.5043-.6474z" fill="#bfd5eb"/><path d="m58.5049 6.017 4.0671.93873c.0436.00946.083.03258.1124.06597.0293.03339.0471.07529.0508.11951.0036.04423-.0071.08843-.0306.12613-.0235.03771-.0586.06691-.1.0833-.8102.3237-2.2776.80926-2.9707.29134-1.0054-.74451-1.3177-1.15886-1.3796-1.38545-.0071-.03383-.0054-.06888.0048-.1019.0103-.03303.0288-.06293.0538-.08688.0251-.02394.0558-.04116.0894-.05004s.0689-.00912.1026-.00071z" fill="#193151"/><path d="m83.0015 6.017-4.0672.93873c-.0435.00946-.0829.03258-.1123.06597-.0293.03339-.0472.07529-.0508.11951-.0036.04423.0071.08843.0306.12613.0235.03771.0586.06691.1.0833.8102.3237 2.2776.80926 2.9707.29134 1.0054-.74451 1.3177-1.15886 1.3796-1.38545.0071-.03383.0054-.06888-.0048-.1019-.0103-.03303-.0288-.06293-.0538-.08688-.0251-.02394-.0558-.04116-.0894-.05004s-.0689-.00912-.1026-.00071z" fill="#193151"/><path d="m80.3407 22.1049c-1.6691-1.7933-3.8556-2.5896-6.1821-3.0622-1.0904-.239-2.2057-.3477-3.322-.3237h-.1595c-1.1163-.024-2.2316.0847-3.322.3237-2.3297.4597-4.5162 1.2689-6.1821 3.0622-1.3503 1.4567-1.731 3.2726-.8753 4.7908.5515 1.0564 1.373 1.9495 2.3818 2.5896 1.8961 1.0863 4.004 1.7563 6.1821 1.9648.6013.0713 1.2068.1027 1.8123.0939h.1594c.6056.0088 1.211-.0226 1.8124-.0939 2.178-.2085 4.2859-.8785 6.1821-1.9648 1.0088-.6401 1.8302-1.5332 2.3817-2.5896.8622-1.5182.4815-3.3341-.8688-4.7908z" fill="#9ab6cc"/><path d="m79.4179 21.9015c-1.4999-1.3595-3.4619-1.9713-5.5541-2.3176-.9976-.1943-2.0128-.2854-3.0292-.272h-.1464c-1.0182-.0182-2.0356.0686-3.0358.259-2.0921.3464-4.0541.9711-5.5541 2.3177-1.2137 1.1006-1.552 2.4763-.7874 3.6254.5267.8324 1.2653 1.5114 2.1409 1.9681 1.7441.8337 3.6284 1.3386 5.5574 1.489.5753.0559 1.1531.0797 1.731.0713h.0423c.5779.0084 1.1558-.0154 1.731-.0713 1.929-.1504 3.8133-.6553 5.5574-1.489.8756-.4567 1.6142-1.1357 2.141-1.9681.7581-1.1524.4197-2.5281-.794-3.6125z" fill="#bfd5eb"/><path d="m66.5203 25.7304c-.9468.4597-1.8286 0-1.9978-1.0423-.1854-1.1168 1.3275-3.7711 1.6757-1.7642.3482 2.007 1.8969-.7995 1.9067.4565-.0254.4977-.1863.9793-.4653 1.3932-.2791.4139-.666.7446-1.1193.9568z" fill="#193151"/><path d="m.442934 12.2547c0 16.5089 41.645666 6.5784 41.645666 6.5784l11.3626 4.2101s-8.1649-2.0136-5.6637-10.7887c2.5011-8.77502-11.5269-11.994856-21.7262-11.994856-10.1992 0-25.618366-2.274264-25.618366 11.995056z" fill="#193151"/><path d="m4.85071 14.0281c-.272 0-.556-.048-.852-.144-.296-.104-.536-.268-.72-.492l.264-.372c.16.168.348.304.564.408.224.096.46.144.708.144.184 0 .356-.024.516-.072.168-.056.304-.148.408-.276s.156-.3.156-.516c0-.224-.064-.396-.192-.516-.12-.12-.276-.216-.468-.288-.184-.08-.38-.152-.588-.216-.344-.112-.628-.264-.852-.456-.216-.192-.324-.464-.324-.816 0-.256.06-.47997.18-.67197.128-.192.3-.34.516-.444.216-.112.46-.168.732-.168.248 0 .492.04.732.12.248.08.472.216.672.408l-.252.39597c-.128-.17597-.3-.29597-.516-.35997-.208-.064-.392-.1-.552-.108-.136 0-.28.028-.432.084-.144.056-.268.14-.372.252-.096.10397-.144.24397-.144.41997 0 .184.052.336.156.456.104.112.236.204.396.276.168.072.34.14.516.204.232.072.448.16.648.264.208.096.376.228.504.396.136.16.204.376.204.648s-.06.52-.18.744c-.12.216-.3.388-.54.516-.232.12-.528.18-.888.18zm3.80597-4.78797.06 1.30797-.084-.12c.16-.408.424-.72797.792-.95997.376-.24.78402-.36 1.22402-.36.264 0 .5.052.708.156.216.096.388.232.516.408.136.168.216.36397.24.58797l-.072.072c.168-.39997.432-.70397.792-.91197s.748-.312 1.164-.312c.448 0 .804.132 1.068.396.264.256.4.59197.408 1.00797v3.42h-.564v-3.3c-.008-.28-.096-.516-.264-.70797-.168-.2-.424-.308-.768-.324-.312 0-.6.08-.864.24-.264.15997-.48.37197-.648.63597-.16.264-.248.56-.264.888v2.568h-.564v-3.3c-.008-.28-.1-.516-.276-.70797-.168-.2-.424-.308-.768-.324-.32 0-.61602.08-.88802.24-.264.15997-.476.37997-.636.65997-.16.272-.24.576-.24.912v2.52h-.564v-4.69197zm8.49732 2.31597c0-.456.108-.872.324-1.248.224-.37597.524-.67197.9-.88797.384-.224.812-.336 1.284-.336.48 0 .908.112 1.284.336.376.216.672.512.888.88797.216.376.324.792.324 1.248s-.108.872-.324 1.248-.516.676-.9.9c-.376.216-.8.324-1.272.324-.48 0-.908-.104-1.284-.312-.376-.216-.676-.508-.9-.876-.216-.376-.324-.804-.324-1.284zm.564.012c0 .368.084.704.252 1.008.176.296.408.532.696.708.296.176.624.264.984.264s.684-.088.972-.264c.296-.176.528-.412.696-.708.176-.304.264-.64.264-1.008s-.088-.7-.264-.996c-.168-.304-.4-.544-.696-.71997-.288-.184-.612-.276-.972-.276-.368 0-.7.096-.996.288-.288.18397-.516.42797-.684.73197s-.252.628-.252.972zm5.6586-.012c0-.456.108-.872.324-1.248.224-.37597.524-.67197.9-.88797.384-.224.812-.336 1.284-.336.48 0 .908.112 1.284.336.376.216.672.512.888.88797.216.376.324.792.324 1.248s-.108.872-.324 1.248-.516.676-.9.9c-.376.216-.8.324-1.272.324-.48 0-.908-.104-1.284-.312-.376-.216-.676-.508-.9-.876-.216-.376-.324-.804-.324-1.284zm.564.012c0 .368.084.704.252 1.008.176.296.408.532.696.708.296.176.624.264.984.264s.684-.088.972-.264c.296-.176.528-.412.696-.708.176-.304.264-.64.264-1.008s-.088-.7-.264-.996c-.168-.304-.4-.544-.696-.71997-.288-.184-.612-.276-.972-.276-.368 0-.7.096-.996.288-.288.18397-.516.42797-.684.73197s-.252.628-.252.972zm5.6587-.012c0-.456.108-.872.324-1.248.224-.37597.524-.67197.9-.88797.384-.224.812-.336 1.284-.336.48 0 .908.112 1.284.336.376.216.672.512.888.88797.216.376.324.792.324 1.248s-.108.872-.324 1.248-.516.676-.9.9c-.376.216-.8.324-1.272.324-.48 0-.908-.104-1.284-.312-.376-.216-.676-.508-.9-.876-.216-.376-.324-.804-.324-1.284zm.564.012c0 .368.084.704.252 1.008.176.296.408.532.696.708.296.176.624.264.984.264s.684-.088.972-.264c.296-.176.528-.412.696-.708.176-.304.264-.64.264-1.008s-.088-.7-.264-.996c-.168-.304-.4-.544-.696-.71997-.288-.184-.612-.276-.972-.276-.368 0-.7.096-.996.288-.288.18397-.516.42797-.684.73197s-.252.628-.252.972zm6.5827-4.39197h.576v2.124h1.452v.456h-1.452v4.17597h-.576v-4.17597h-.996v-.456h.996zm3.4343 6.75597v-9.11997h.552v5.67597l-.036-.204c.16-.32797.416-.60397.768-.82797.36-.232.772-.348 1.236-.348.44 0 .796.132 1.068.396.272.256.412.59197.42 1.00797v3.42h-.576v-3.264c-.008-.304-.104-.556-.288-.75597-.184-.2-.452-.304-.804-.312-.312 0-.604.08-.876.24-.272.15997-.492.37597-.66.64797-.16.272-.24.58-.24.924v2.52z" fill="#fff"/><g filter="url(#a)"><ellipse cx="70.221" cy="70.0998" fill="#193151" rx="23.3411" ry="2.19587"/></g><path d="m80.7325 21.7458c-1.9881-2.1364-4.6464-2.8647-6.4717-3.237h-.0423c-.9553-.2108-1.9304-.3193-2.9089-.3237h-1.1095c-.9784.0044-1.9536.1129-2.9088.3237h-.0423c-1.8254.3593-4.4837 1.0877-6.4717 3.237-1.5358 1.6509-1.8969 3.7258-.9501 5.409.5927 1.1433 1.4811 2.1088 2.5737 2.7968 1.8058 1.0812 3.8394 1.7286 6.3968 2.0361.5711.0693 1.146.1039 1.7213.1036h.4718c.5753.0003 1.1501-.0343 1.7212-.1036 2.5574-.3075 4.591-.9549 6.3968-2.0361 1.0926-.688 1.9811-1.6535 2.5738-2.7968.9468-1.6929.5856-3.7581-.9501-5.409zm.0195 4.8911c-.5041.9807-1.2609 1.8107-2.193 2.4051-1.6725 1.0002-3.5791 1.6185-5.9772 1.8936-.5797.0688-1.1634.0991-1.7472.0907h-.1594c-.5838.0084-1.1675-.0219-1.7473-.0907-2.4045-.2913-4.3047-.8934-5.9771-1.8936-.9321-.5944-1.6889-1.4244-2.193-2.4051-.7256-1.2948-.4263-2.8485.8036-4.1692 1.3699-1.4761 3.1887-2.3728 5.8958-2.9133h.0391c1.0622-.2362 2.1491-.3449 3.2374-.3237h.0423c1.0883-.0212 2.1752.0875 3.2375.3237h.039c2.7072.5308 4.526 1.4275 5.8958 2.9133 1.2299 1.3207 1.5293 2.8809.8037 4.1692z" fill="#193151"/><path d="m74.9889 25.7304c.9468.4597 1.8286 0 1.9978-1.0423.1854-1.1168-1.3276-3.7711-1.6757-1.7642-.3482 2.007-1.8969-.7995-1.9067.4565.0254.4977.1862.9793.4653 1.3932s.666.7446 1.1193.9568z" fill="#193151"/><path d="m76.6243 18.1135c-.4451 0-.7314-.0277-.7314-.0277s-.0802.0124-.219.0124c-.1803 0-.4596-.021-.7903-.1175-.8657-.2528-2.0845-1.0231-2.807-3.2895 0 0-.4226-1.8789-1.1762-1.9104-.7536.0315-1.1794 1.9104-1.1794 1.9104-.7225 2.2664-1.9411 3.0368-2.8065 3.2895-.3307.0966-.6097.1175-.79.1175-.1387 0-.2189-.0124-.2189-.0124s-.0971.0039-.267.0039c-.3569 0-1.0354-.0173-1.8112-.1249-.5781-.0801-1.2103-.2105-1.8037-.421-1.7686-.6276-2.2868-2.6814-2.4295-3.8224-.0924-.7399-.4594-1.196-.706-1.4252-.1493-.1388-.232-.3349-.232-.5387v-1.94416c.524-.01826 1.0424-.02664 1.5538-.02664 4.2573 0 7.9914.5826 9.7262.9038.3196.0592.643.0887.9665.0887.323 0 .6462-.0295.9653-.0885 1.7364-.3212 5.4743-.904 9.7335-.904.5113 0 1.0301.00838 1.5539.02664v1.94316c0 .2044-.0834.4009-.2337.5393-.2488.2291-.6193.6852-.7118 1.4256-.1427 1.141-.7208 3.0549-2.4332 3.8224-.4584.2054-.9545.3392-1.4343.425-.6477.116-1.2652.1447-1.7181.1447m2.1641-7.2478c-1.4928 0-4.0927.283-4.0927.283-2.7601.11-2.1831 2.349-2.1831 2.349l.8843 2.57c.4398 1.2408 1.8258 1.5086 2.9404 1.5086.8465 0 1.5365-.1545 1.5365-.1545 3.5861-.3174 3.5926-4.3663 3.5926-4.3663.0829-1.741-.9396-1.9068-1.8239-2.1279-.1769-.0442-.4809-.0619-.8541-.0619m-15.7802 0c-.3732 0-.6772.0177-.8541.0619-.8843.2211-1.9067.3869-1.8239 2.1279 0 0 .0065 4.0489 3.5926 4.3663 0 0 .69.1545 1.5365.1545 1.1146 0 2.5006-.2678 2.9404-1.5086l.8843-2.57s.577-2.239-2.1831-2.349c0 0-2.5999-.283-4.0927-.283" fill="url(#b)"/><path d="m65.459 17.5763c-.8465 0-1.5365-.1545-1.5365-.1545-3.5861-.3175-3.5926-4.3663-3.5926-4.3663-.0829-1.741.9396-1.9069 1.8239-2.1279.1769-.0442.4809-.0619.8541-.0619 1.4928 0 4.0927.2829 4.0927.2829 2.7601.1101 2.1831 2.3491 2.1831 2.3491l-.8843 2.57c-.4398 1.2408-1.8258 1.5086-2.9404 1.5086m2.4648-2.4929c-.0673 0-.1351.0117-.1981.0338-.1757.0617-.3191.1914-.4423.3309-.2895.3278-.4976.7272-.8244 1.0178-.2677.238-.6089.3922-.9644.4359-.0751.0093-.1558.0157-.2147.0632-.1023.0826-.1019.2912.0234.3307.1653.0318.3333.0472.501.0472.9297 0 1.8587-.4729 2.3783-1.2482.0902-.1347.1702-.281.1954-.4411.0252-.1602-.0123-.3371-.129-.4497-.0859-.0829-.2047-.1205-.3252-.1205m-5.8051-3.9023s-1.6732.1061-1.5828 1.8089c.0258.485.1348.6632.2988.6633.4116.0001 1.1703-1.1225 1.8314-1.3308.9243-.2913.3093-1.0889-.5474-1.1414z" fill="url(#d)"/><path d="m76.3358 17.5764c-1.1146 0-2.5006-.2678-2.9404-1.5087l-.8843-2.57s-.577-2.239 2.1832-2.349c0 0 2.5999-.283 4.0926-.283.3732 0 .6772.0177.8541.0619.8843.2211 1.9068.3869 1.8239 2.1279 0 0-.0065 4.0489-3.5926 4.3664 0 0-.69.1545-1.5365.1545m4.2211-3.8018c-.1398 0-.2809.0676-.3817.1681-.1318.1315-.2051.3104-.256.4895-.1196.4206-.1348.8707-.3041 1.2739-.1386.3303-.3797.6167-.6815.8097-.0638.0408-.1338.0814-.1664.1498-.0539.1131.0258.2893.1462.2893.0058 0 .0117-.0004.0177-.0012 1.0657-.2796 1.9203-1.2364 2.0783-2.3267.0232-.1605.0322-.3269-.0142-.4822-.0465-.1553-.1567-.2988-.3106-.3499-.0416-.0138-.0846-.0203-.1277-.0203m-6.4776-2.3948c-.0325 0-.0652.001-.0983.0033 0 0-1.6457.3196-1.3378 1.9968.0828.4509.2041.6212.3542.6213.4082.0002 1.0298-1.2585 1.6728-1.5563.8455-.3916.2197-1.0651-.5909-1.0651z" fill="url(#e)"/><path d="m60.8355 13.6533c-.164 0-.273-.1782-.2988-.6633-.0904-1.7028 1.5828-1.8088 1.5828-1.8088.8567.0525 1.4717.8501.5474 1.1414-.6611.2082-1.4198 1.3309-1.8314 1.3307z" fill="url(#g)"/><path d="m65.8043 17.3429c-.1677 0-.3356-.0154-.5009-.0472-.1254-.0395-.1257-.2481-.0235-.3307.0589-.0475.1397-.0539.2148-.0632.3555-.0437.6967-.1979.9644-.4359.3268-.2907.5348-.69.8243-1.0178.1233-.1395.2667-.2692.4424-.3309.0629-.0221.1307-.0338.198-.0338.1205 0 .2393.0376.3253.1205.1166.1126.1541.2895.129.4497-.0252.1601-.1052.3064-.1955.4411-.5196.7753-1.4486 1.2482-2.3783 1.2482" fill="url(#h)"/><path d="m72.999 14.0011c-.1501-.0001-.2714-.1704-.3542-.6213-.3079-1.6772 1.3378-1.9968 1.3378-1.9968.0331-.0023.0658-.0033.0983-.0033.8107 0 1.4364.6735.5909 1.0651-.643.2978-1.2646 1.5565-1.6728 1.5563" fill="url(#i)"/><path d="m78.9153 16.9548c-.1204 0-.2001-.1762-.1462-.2893.0326-.0684.1027-.109.1664-.1498.3018-.1929.543-.4794.6816-.8097.1692-.4032.1844-.8533.304-1.2739.0509-.1791.1242-.358.256-.4895.1008-.1005.2419-.1681.3818-.1681.0431 0 .0861.0065.1277.0203.1538.0511.264.1946.3105.3499s.0375.3218.0142.4822c-.1579 1.0903-1.0125 2.0471-2.0782 2.3267-.006.0008-.012.0012-.0178.0012" fill="url(#j)"/><path d="m45.5007 51.689c-1.4992-6.1775 4.0851-6.8242 9.2113-5.8641-.6165 1.8601-.4932 4.1718 1.578 6.5765 2.4728 2.8709 8.3777 3.6914 12.8385 4.2239l4.7656-.9092 2.0074 4.926-5.3255 1.0834c-16.0908-.548-23.5761-3.8589-25.0753-10.0365z" fill="#bfd5eb" stroke="#193151"/><path d="m94.3614 50.9766c1.4991-6.1775-3.4677-6.6846-8.5938-5.7245.6164 1.8602-.4306 4.3378-2.5018 6.7424-2.4728 2.8709-7.4451 4.0982-11.9059 4.6308l-4.7656-.9093v2.606l-1.5677 1.6513 4.8858 1.7521c16.0908-.548 22.9498-4.5712 24.449-10.7488z" fill="#bfd5eb" stroke="#193151"/><g fill="#193151"><path d="m66.0944 55.1413c1.386.3042 3.6786.7535 5.2066 1.2974l-.7631 3.7354-.7308 2.0085-5.6821-2.0085 1.9694-2.0104z"/><path d="m74.6133 55.8326c-1.8881.2345-3.9619.2924-4.4751.1256l1.5134-.7781 1.0736-.4163 1.6194-.181z"/><path d="m57.2084 23.8418c-.7772.4985-2.3601 1.5235-2.4727 1.6361l-1.6096-1.5933-.4423-1.8768 2.9221-1.8623.1831 2.2711z" stroke="#193151"/><path d="m97.0957 17.5215c-.6622.6134-2.0202 1.8599-2.1544 1.9388l1.1146 1.9181 1.6688.8822 2.4783-2.3086-2.1053-.734z" stroke="#193151"/></g></svg>