<svg width="98" height="75" viewBox="0 0 98 75" fill="none" xmlns="http://www.w3.org/2000/svg">
<path d="M34.1224 27.8852C39.0482 30.014 52.1956 30.3236 54.0852 26.5885C56.5624 23.8147 67.5055 19.0639 72.5061 26.1634C77.1975 32.824 85.4413 29.4405 92.0037 26.7365C93.9229 26.3114 97.0811 29.0925 93.861 30.4011C90.641 31.7098 77.1003 40.0812 73.8821 34.639C77.451 42.7199 82.3269 53.2574 76.637 57.2098C73.237 59.5717 56.3058 61.2969 48.7472 56.1612C41.1887 51.0256 51.8555 41.1206 51.8555 34.639C51.2654 37.9417 34.269 32.5043 31.9488 31.4269C29.6286 30.3494 29.1966 25.7564 34.1224 27.8852Z" fill="#BFD5EB" stroke="#193151"/>
<path d="M72.8642 44.3174C71.195 41.7902 69.0085 40.668 66.6821 40.002C65.5916 39.6651 64.4764 39.512 63.36 39.5459H63.2006C62.0842 39.512 60.969 39.6651 59.8785 40.002C57.5488 40.6498 55.3623 41.7902 53.6964 44.3174C52.3461 46.3702 51.9654 48.9293 52.8212 51.0688C53.3726 52.5574 54.1941 53.8161 55.2029 54.7181C57.099 56.249 59.207 57.1932 61.385 57.4871C61.9863 57.5876 62.5918 57.6317 63.1973 57.6194H63.3568C63.9623 57.6317 64.5677 57.5876 65.1691 57.4871C67.3471 57.1932 69.455 56.249 71.3512 54.7181C72.36 53.8161 73.1815 52.5574 73.7329 51.0688C74.5952 48.9293 74.2145 46.3702 72.8642 44.3174Z" fill="#9AB6CC"/>
<path d="M63.7205 5.11749C64.636 5.17607 65.5424 5.33234 66.4243 5.58361C66.8963 4.6972 67.2914 3.77237 67.6055 2.81921C67.7018 2.54095 67.8889 2.30279 68.1371 2.14268C68.3853 1.98258 68.6803 1.90977 68.9749 1.93585C69.2696 1.96192 69.5469 2.08539 69.7628 2.28655C69.9787 2.48772 70.1207 2.755 70.1661 3.0458C70.2749 3.74707 70.3184 4.45681 70.2963 5.16603C75.5446 4.08163 79.4523 3.1688 79.3124 5.14661L79.2929 5.21783C78.1183 8.43217 75.7756 11.0023 72.8667 12.2712C72.581 12.3696 72.3377 12.5623 72.1773 12.8173C72.0169 13.0723 71.949 13.3742 71.985 13.6729C72.0208 16.4793 71.985 19.2114 71.985 21.9887C69.2379 20.8015 66.2747 20.1888 63.2796 20.1888C60.2845 20.1888 57.3213 20.8015 54.5742 21.9887C54.5742 19.2114 54.5514 16.4858 54.5742 13.6729C54.6102 13.3742 54.5423 13.0723 54.3819 12.8173C54.2215 12.5623 53.9782 12.3696 53.6925 12.2712C50.7836 11.0023 48.4409 8.43217 47.2663 5.21783L47.2468 5.14661C47.1069 3.1688 51.0146 4.08163 56.2629 5.16603C56.2408 4.45681 56.2843 3.74707 56.3931 3.0458C56.4385 2.755 56.5805 2.48772 56.7964 2.28655C57.0123 2.08539 57.2897 1.96192 57.5843 1.93585C57.879 1.90977 58.1739 1.98258 58.4221 2.14268C58.6703 2.30279 58.8575 2.54095 58.9538 2.81921C59.2678 3.77237 59.663 4.6972 60.1349 5.58361C61.0168 5.33234 61.9233 5.17607 62.8387 5.11749H63.7205Z" fill="#193151"/>
<path d="M63.374 6.07524C64.5673 6.12284 65.7474 6.34087 66.8783 6.72264C67.5706 5.59101 68.1255 4.38162 68.5312 3.11986C68.5518 3.04394 68.5995 2.9781 68.6654 2.93461C68.7313 2.89113 68.8108 2.87297 68.8891 2.88356C68.9711 2.8833 69.0501 2.91384 69.1104 2.96905C69.1708 3.02426 69.2079 3.10007 69.2145 3.18136C69.3587 4.22436 69.374 5.28103 69.26 6.32773C69.8848 6.23386 70.0409 6.2112 70.8674 6.02669C76.1319 4.87432 77.8564 4.829 78.3282 5.02645C77.2284 7.92033 75.1037 10.2283 72.4715 11.371C72.0108 11.5452 71.6194 11.8634 71.356 12.2778C71.0925 12.6923 70.9713 13.1805 71.0105 13.6692C71.0398 15.9999 71.0105 18.282 71.0105 20.5738C66.0242 18.7308 60.5384 18.7308 55.552 20.5738C55.552 18.282 55.5358 15.9999 55.552 13.6692C55.5912 13.1805 55.4701 12.6923 55.2066 12.2778C54.9432 11.8634 54.5518 11.5452 54.0911 11.371C51.4686 10.2283 49.3439 7.92033 48.2344 5.02645C48.7062 4.829 50.4306 4.87432 55.6952 6.02669C56.5216 6.2112 56.6713 6.23386 57.3025 6.32773C57.1885 5.28103 57.2038 4.22436 57.3481 3.18136C57.3547 3.10007 57.3918 3.02426 57.4521 2.96905C57.5125 2.91384 57.5915 2.8833 57.6735 2.88356C57.7518 2.87297 57.8313 2.89113 57.8972 2.93461C57.9631 2.9781 58.0108 3.04394 58.0314 3.11986C58.4371 4.38162 58.992 5.59101 59.6843 6.72264C60.8152 6.34087 61.9953 6.12284 63.1886 6.07524H63.374Z" fill="#BFD5EB"/>
<path d="M65.0089 12.7822C65.4348 12.1568 68.0297 11.8871 69.2305 13.3513M61.577 12.7822C61.2133 12.3111 58.386 11.9258 57.3555 13.3513" stroke="#193151" stroke-linecap="round"/>
<path d="M51.0439 6.54446L55.1111 7.4832C55.1547 7.49266 55.1941 7.51578 55.2234 7.54917C55.2528 7.58256 55.2706 7.62446 55.2743 7.66868C55.2779 7.7129 55.2672 7.75711 55.2437 7.79481C55.2202 7.83251 55.1851 7.86171 55.1437 7.8781C54.3335 8.2018 52.866 8.68736 52.173 8.16944C51.1676 7.42493 50.8552 7.01059 50.7934 6.784C50.7863 6.75017 50.7879 6.71511 50.7982 6.68209C50.8084 6.64907 50.827 6.61917 50.852 6.59522C50.8771 6.57127 50.9078 6.55405 50.9414 6.54517C50.975 6.5363 51.0102 6.53605 51.0439 6.54446V6.54446Z" fill="#193151"/>
<path d="M75.5406 6.54446L71.4734 7.4832C71.4298 7.49266 71.3905 7.51578 71.3611 7.54917C71.3317 7.58256 71.3139 7.62446 71.3103 7.66868C71.3066 7.7129 71.3173 7.75711 71.3409 7.79481C71.3644 7.83251 71.3994 7.86171 71.4409 7.8781C72.2511 8.2018 73.7185 8.68736 74.4115 8.16944C75.4169 7.42493 75.7293 7.01059 75.7911 6.784C75.7982 6.75017 75.7966 6.71511 75.7863 6.68209C75.7761 6.64907 75.7576 6.61917 75.7325 6.59522C75.7075 6.57127 75.6767 6.55405 75.6431 6.54517C75.6096 6.5363 75.5743 6.53605 75.5406 6.54446V6.54446Z" fill="#193151"/>
<path d="M72.8798 22.6326C71.2106 20.8393 69.0241 20.043 66.6977 19.5704C65.6072 19.3313 64.492 19.2226 63.3756 19.2467H63.2162C62.0998 19.2226 60.9846 19.3313 59.8941 19.5704C57.5645 20.03 55.3779 20.8393 53.712 22.6326C52.3617 24.0892 51.981 25.9052 52.8368 27.4233C53.3882 28.4797 54.2097 29.3729 55.2185 30.0129C57.1147 31.0993 59.2226 31.7692 61.4006 31.9778C62.002 32.0491 62.6074 32.0804 63.213 32.0717H63.3724C63.9779 32.0804 64.5834 32.0491 65.1847 31.9778C67.3627 31.7692 69.4707 31.0993 71.3668 30.0129C72.3756 29.3729 73.1971 28.4797 73.7486 27.4233C74.6108 25.9052 74.2301 24.0892 72.8798 22.6326Z" fill="#9AB6CC"/>
<path d="M71.957 22.4291C70.457 21.0696 68.495 20.4578 66.4029 20.1114C65.4053 19.9172 64.3901 19.826 63.3736 19.8395H63.2272C62.209 19.8213 61.1917 19.9081 60.1915 20.0985C58.0993 20.4448 56.1373 21.0696 54.6374 22.4162C53.4237 23.5168 53.0853 24.8925 53.85 26.0416C54.3767 26.874 55.1153 27.553 55.9909 28.0097C57.735 28.8434 59.6193 29.3483 61.5483 29.4987C62.1235 29.5546 62.7014 29.5783 63.2793 29.5699H63.3216C63.8995 29.5783 64.4774 29.5546 65.0526 29.4987C66.9816 29.3483 68.8659 28.8434 70.61 28.0097C71.4856 27.553 72.2242 26.874 72.7509 26.0416C73.509 24.8892 73.1707 23.5135 71.957 22.4291Z" fill="#BFD5EB"/>
<path d="M59.0594 26.258C58.1125 26.7176 57.2308 26.2579 57.0616 25.2156C56.8761 24.0989 58.3891 21.4445 58.7373 23.4515C59.0854 25.4584 60.6342 22.6519 60.6439 23.9079C60.6185 24.4057 60.4577 24.8872 60.1786 25.3011C59.8995 25.715 59.5127 26.0458 59.0594 26.258Z" fill="#193151"/>
<path d="M0.581089 12.7822C0.581089 29.2911 36.2566 19.3607 36.2566 19.3607L45.9902 23.5707C45.9902 23.5707 38.9959 21.5571 41.1385 12.782C43.281 4.00701 31.264 0.787171 22.5269 0.787171C13.7898 0.787171 0.581089 -1.48709 0.581089 12.7822Z" fill="#193151"/>
<path d="M6.95063 9.29384L7.01063 10.6018L6.92663 10.4818C7.08663 10.0738 7.35063 9.75384 7.71863 9.52184C8.09463 9.28184 8.50263 9.16184 8.94263 9.16184C9.20663 9.16184 9.44263 9.21384 9.65063 9.31784C9.86663 9.41384 10.0386 9.54984 10.1666 9.72584C10.3026 9.89384 10.3826 10.0898 10.4066 10.3138L10.3346 10.3858C10.5026 9.98584 10.7666 9.68184 11.1266 9.47384C11.4866 9.26584 11.8746 9.16184 12.2906 9.16184C12.7386 9.16184 13.0946 9.29384 13.3586 9.55784C13.6226 9.81384 13.7586 10.1498 13.7666 10.5658V13.9858H13.2026V10.6858C13.1946 10.4058 13.1066 10.1698 12.9386 9.97784C12.7706 9.77784 12.5146 9.66984 12.1706 9.65384C11.8586 9.65384 11.5706 9.73384 11.3066 9.89384C11.0426 10.0538 10.8266 10.2658 10.6586 10.5298C10.4986 10.7938 10.4106 11.0898 10.3946 11.4178V13.9858H9.83063V10.6858C9.82263 10.4058 9.73063 10.1698 9.55463 9.97784C9.38663 9.77784 9.13063 9.66984 8.78663 9.65384C8.46663 9.65384 8.17063 9.73384 7.89863 9.89384C7.63463 10.0538 7.42263 10.2738 7.26263 10.5538C7.10263 10.8258 7.02263 11.1298 7.02263 11.4658V13.9858H6.45863V9.29384H6.95063ZM15.4479 11.6098C15.4479 11.1538 15.5559 10.7378 15.7719 10.3618C15.9959 9.98584 16.2959 9.68984 16.6719 9.47384C17.0559 9.24984 17.4839 9.13784 17.9559 9.13784C18.4359 9.13784 18.8639 9.24984 19.2399 9.47384C19.6159 9.68984 19.9119 9.98584 20.1279 10.3618C20.3439 10.7378 20.4519 11.1538 20.4519 11.6098C20.4519 12.0658 20.3439 12.4818 20.1279 12.8578C19.9119 13.2338 19.6119 13.5338 19.2279 13.7578C18.8519 13.9738 18.4279 14.0818 17.9559 14.0818C17.4759 14.0818 17.0479 13.9778 16.6719 13.7698C16.2959 13.5538 15.9959 13.2618 15.7719 12.8938C15.5559 12.5178 15.4479 12.0898 15.4479 11.6098ZM16.0119 11.6218C16.0119 11.9898 16.0959 12.3258 16.2639 12.6298C16.4399 12.9258 16.6719 13.1618 16.9599 13.3378C17.2559 13.5138 17.5839 13.6018 17.9439 13.6018C18.3039 13.6018 18.6279 13.5138 18.9159 13.3378C19.2119 13.1618 19.4439 12.9258 19.6119 12.6298C19.7879 12.3258 19.8759 11.9898 19.8759 11.6218C19.8759 11.2538 19.7879 10.9218 19.6119 10.6258C19.4439 10.3218 19.2119 10.0818 18.9159 9.90584C18.6279 9.72184 18.3039 9.62984 17.9439 9.62984C17.5759 9.62984 17.2439 9.72584 16.9479 9.91784C16.6599 10.1018 16.4319 10.3458 16.2639 10.6498C16.0959 10.9538 16.0119 11.2778 16.0119 11.6218ZM21.6706 11.6098C21.6706 11.1538 21.7786 10.7378 21.9946 10.3618C22.2186 9.98584 22.5186 9.68984 22.8946 9.47384C23.2786 9.24984 23.7066 9.13784 24.1786 9.13784C24.6586 9.13784 25.0866 9.24984 25.4626 9.47384C25.8386 9.68984 26.1346 9.98584 26.3506 10.3618C26.5666 10.7378 26.6746 11.1538 26.6746 11.6098C26.6746 12.0658 26.5666 12.4818 26.3506 12.8578C26.1346 13.2338 25.8346 13.5338 25.4506 13.7578C25.0746 13.9738 24.6506 14.0818 24.1786 14.0818C23.6986 14.0818 23.2706 13.9778 22.8946 13.7698C22.5186 13.5538 22.2186 13.2618 21.9946 12.8938C21.7786 12.5178 21.6706 12.0898 21.6706 11.6098ZM22.2346 11.6218C22.2346 11.9898 22.3186 12.3258 22.4866 12.6298C22.6626 12.9258 22.8946 13.1618 23.1826 13.3378C23.4786 13.5138 23.8066 13.6018 24.1666 13.6018C24.5266 13.6018 24.8506 13.5138 25.1386 13.3378C25.4346 13.1618 25.6666 12.9258 25.8346 12.6298C26.0106 12.3258 26.0986 11.9898 26.0986 11.6218C26.0986 11.2538 26.0106 10.9218 25.8346 10.6258C25.6666 10.3218 25.4346 10.0818 25.1386 9.90584C24.8506 9.72184 24.5266 9.62984 24.1666 9.62984C23.7986 9.62984 23.4666 9.72584 23.1706 9.91784C22.8826 10.1018 22.6546 10.3458 22.4866 10.6498C22.3186 10.9538 22.2346 11.2778 22.2346 11.6218ZM27.8933 11.6098C27.8933 11.1538 28.0013 10.7378 28.2173 10.3618C28.4413 9.98584 28.7413 9.68984 29.1173 9.47384C29.5013 9.24984 29.9293 9.13784 30.4013 9.13784C30.8813 9.13784 31.3093 9.24984 31.6853 9.47384C32.0613 9.68984 32.3573 9.98584 32.5733 10.3618C32.7893 10.7378 32.8973 11.1538 32.8973 11.6098C32.8973 12.0658 32.7893 12.4818 32.5733 12.8578C32.3573 13.2338 32.0573 13.5338 31.6733 13.7578C31.2973 13.9738 30.8733 14.0818 30.4013 14.0818C29.9213 14.0818 29.4933 13.9778 29.1173 13.7698C28.7413 13.5538 28.4413 13.2618 28.2173 12.8938C28.0013 12.5178 27.8933 12.0898 27.8933 11.6098ZM28.4573 11.6218C28.4573 11.9898 28.5413 12.3258 28.7093 12.6298C28.8853 12.9258 29.1173 13.1618 29.4053 13.3378C29.7013 13.5138 30.0293 13.6018 30.3893 13.6018C30.7493 13.6018 31.0733 13.5138 31.3613 13.3378C31.6573 13.1618 31.8893 12.9258 32.0573 12.6298C32.2333 12.3258 32.3213 11.9898 32.3213 11.6218C32.3213 11.2538 32.2333 10.9218 32.0573 10.6258C31.8893 10.3218 31.6573 10.0818 31.3613 9.90584C31.0733 9.72184 30.7493 9.62984 30.3893 9.62984C30.0213 9.62984 29.6893 9.72584 29.3933 9.91784C29.1053 10.1018 28.8773 10.3458 28.7093 10.6498C28.5413 10.9538 28.4573 11.2778 28.4573 11.6218Z" fill="white"/>
<g filter="url(#filter0_f_5198_518)">
<ellipse cx="62.76" cy="70.6273" rx="23.3411" ry="2.19587" fill="#193151"/>
</g>
<path d="M73.2715 22.2733C71.2835 20.1369 68.6252 19.4086 66.7998 19.0363H66.7575C65.8023 18.8255 64.8271 18.717 63.8487 18.7126V18.7126H62.7392C61.7607 18.717 60.7856 18.8255 59.8303 19.0363H59.788C57.9627 19.3957 55.3044 20.124 53.3163 22.2733C51.7806 23.9242 51.4194 25.9991 52.3663 27.6824C52.959 28.8257 53.8474 29.7911 54.94 30.4791C56.7458 31.5603 58.7794 32.2077 61.3368 32.5152C61.9079 32.5845 62.4827 32.6191 63.058 32.6188H63.5298C64.1052 32.6191 64.68 32.5845 65.2511 32.5152C67.8085 32.2077 69.8421 31.5603 71.6479 30.4791C72.7405 29.7911 73.6289 28.8257 74.2216 27.6824C75.1685 25.9894 74.8073 23.9242 73.2715 22.2733ZM73.291 27.1644C72.7869 28.1451 72.0302 28.9751 71.098 29.5695C69.4256 30.5698 67.5189 31.188 65.1209 31.4632C64.5412 31.5319 63.9575 31.5622 63.3737 31.5538H63.2142C62.6304 31.5622 62.0467 31.5319 61.467 31.4632C59.0625 31.1718 57.1623 30.5698 55.4898 29.5695C54.5577 28.9751 53.8009 28.1451 53.2968 27.1644C52.5712 25.8696 52.8706 24.3159 54.1005 22.9952C55.4703 21.5191 57.2892 20.6225 59.9963 20.0819H60.0353C61.0976 19.8457 62.1845 19.737 63.2728 19.7582H63.3151C64.4034 19.737 65.4903 19.8457 66.5526 20.0819H66.5916C69.2987 20.6128 71.1176 21.5094 72.4874 22.9952C73.7173 24.3159 74.0166 25.8761 73.291 27.1644V27.1644Z" fill="#193151"/>
<path d="M67.5279 26.258C68.4748 26.7176 69.3565 26.2579 69.5257 25.2156C69.7112 24.0989 68.1982 21.4445 67.8501 23.4515C67.5019 25.4584 65.9531 22.6519 65.9434 23.9079C65.9688 24.4057 66.1296 24.8872 66.4087 25.3011C66.6878 25.715 67.0746 26.0458 67.5279 26.258Z" fill="#193151"/>
<path d="M38.0398 52.2166C36.5406 46.0391 42.1249 45.3924 47.251 46.3525C46.6346 48.2126 46.7578 50.5243 48.829 52.929C51.3018 55.7999 57.2067 56.6204 61.6675 57.1529L66.4332 56.2437L68.4406 61.1697L63.115 62.2531C47.0243 61.7051 39.5389 58.3942 38.0398 52.2166Z" fill="#BFD5EB" stroke="#193151"/>
<path d="M86.9004 51.5041C88.3996 45.3266 83.4328 44.8195 78.3066 45.7796C78.9231 47.6397 77.876 50.1173 75.8048 52.522C73.332 55.3929 68.3598 56.6202 63.899 57.1527L59.1334 56.2435V58.8494L57.5657 60.5007L62.4515 62.2529C78.5422 61.7049 85.4012 57.6816 86.9004 51.5041Z" fill="#BFD5EB" stroke="#193151"/>
<path d="M58.6335 55.6688C60.0195 55.973 62.3121 56.4223 63.8401 56.9662L63.077 60.7016L62.3462 62.71L56.6641 60.7016L58.6335 58.6911V55.6688Z" fill="#193151"/>
<path d="M67.1523 56.3601C65.2642 56.5946 63.1904 56.6525 62.6773 56.4856L64.1907 55.7076L65.2642 55.2912L66.8837 55.1102L67.1523 56.3601Z" fill="#193151"/>
<path d="M30.6398 26.4755C31.4847 26.8482 33.2135 27.6015 33.3695 27.6332L32.9304 29.855L31.6102 31.2603L28.4437 29.8531L30.2358 28.446L30.6398 26.4755Z" fill="#193151" stroke="#193151"/>
<path d="M94.2989 25.8256C93.4732 26.1903 91.7836 26.9274 91.6311 26.9584L92.0612 29.1347L93.3523 30.5117L96.4471 29.1347L94.6947 27.7558L94.2989 25.8256Z" fill="#193151" stroke="#193151"/>
<defs>
<filter id="filter0_f_5198_518" x="37.4189" y="66.4314" width="50.6826" height="8.39185" filterUnits="userSpaceOnUse" color-interpolation-filters="sRGB">
<feFlood flood-opacity="0" result="BackgroundImageFix"/>
<feBlend mode="normal" in="SourceGraphic" in2="BackgroundImageFix" result="shape"/>
<feGaussianBlur stdDeviation="1" result="effect1_foregroundBlur_5198_518"/>
</filter>
</defs>
</svg>
