<svg xmlns="http://www.w3.org/2000/svg" fill="none" viewBox="0 0 989 969"><path fill="#EC4612" d="M968.03 504.767c41.7 72.22 16.952 164.567-55.268 206.263-72.22 41.697-164.568 16.952-206.264-55.268-41.697-72.22-16.952-164.567 55.268-206.264 72.22-41.696 164.568-16.952 206.264 55.269Z"/><path fill="#fff" d="m826.811 510.019-63.442 36.628 66.061 114.421 63.442-36.629c16.87-9.74 22.536-31.51 12.655-48.624-6.375-11.041-17.661-17.447-29.399-17.989 5.4-10.436 5.495-23.414-.879-34.454-9.881-17.115-31.568-23.093-48.438-13.353Z"/><path fill="#00A1FF" d="M647.658 644.801c73.966 73.966 73.966 193.889 0 267.855-73.966 73.966-193.889 73.966-267.855 0-73.967-73.966-73.967-193.889 0-267.855 73.966-73.966 193.889-73.966 267.855 0Z"/><path fill="#fff" d="m459.322 833.137-25.111-133.928 133.928 25.111 25.111 133.928-133.928-25.111Z"/><path fill="#3FC4FF" d="M537.166 288.303c29.672 51.394 12.064 117.11-39.33 146.783-51.393 29.672-117.11 12.063-146.782-39.331-29.672-51.393-12.063-117.11 39.33-146.782 51.394-29.672 117.11-12.063 146.782 39.33Z"/><path fill="#fff" d="M423.639 381.144c-18.066-4.644-28.65-22.975-23.639-40.943l14.024-50.283 50.558 12.997c18.066 4.644 28.649 22.975 23.638 40.943l-14.023 50.283-50.558-12.997Z"/><path fill="#F2CD16" d="M698 42c0 23.196-18.804 42-42 42s-42-18.804-42-42 18.804-42 42-42 42 18.804 42 42Z"/><path fill="#fff" d="M641.72 24.36h17.64c9.742 0 17.64 7.898 17.64 17.64s-7.898 17.64-17.64 17.64h-17.64V24.36Z"/><path fill="#8702AA" d="M159.663 551.662c-36.318 36.318-95.203 36.318-131.522 0-36.318-36.319-36.318-95.203 0-131.522 36.32-36.319 95.204-36.319 131.522 0 36.319 36.319 36.319 95.203 0 131.522Z"/><path fill="#fff" d="m51.815 443.814 84.174 84.174c23.244-23.244 23.244-60.93 0-84.174-23.244-23.244-60.93-23.244-84.174 0Z"/><path fill="#408A13" d="M615.822 149.558c-10.363 38.677-50.118 61.629-88.794 51.266-38.676-10.364-61.628-50.118-51.265-88.794 10.363-38.677 50.118-61.629 88.794-51.266 38.676 10.364 61.628 50.118 51.265 88.794Z"/><path fill="#fff" d="m535.66 168.61 42.967-16.493-2.409-45.961-44.456-11.912-25.066 38.599 28.964 35.767Z"/></svg>