<svg fill="none" height="75" viewBox="0 0 98 75" width="98" xmlns="http://www.w3.org/2000/svg" xmlns:xlink="http://www.w3.org/1999/xlink"><filter id="a" color-interpolation-filters="sRGB" filterUnits="userSpaceOnUse" height="8.39185" width="50.6826" x="37.4189" y="66.4314"><feFlood flood-opacity="0" result="BackgroundImageFix"/><feBlend in="SourceGraphic" in2="BackgroundImageFix" mode="normal" result="shape"/><feGaussianBlur result="effect1_foregroundBlur_5198_518" stdDeviation="1"/></filter><path d="m34.1224 27.8852c4.9258 2.1288 18.0732 2.4384 19.9628-1.2967 2.4772-2.7738 13.4203-7.5246 18.4209-.4251 4.6914 6.6606 12.9352 3.2771 19.4976.5731 1.9192-.4251 5.0774 2.356 1.8573 3.6646-3.22 1.3087-16.7607 9.6801-19.9789 4.2379 3.5689 8.0809 8.4448 18.6184 2.7549 22.5708-3.4 2.3619-20.3312 4.0871-27.8898-1.0486-7.5585-5.1356 3.1083-15.0406 3.1083-21.5222-.5901 3.3027-17.5865-2.1347-19.9067-3.2121-2.3202-1.0775-2.7522-5.6705 2.1736-3.5417z" fill="#bfd5eb" stroke="#193151"/><path d="m72.8642 44.3174c-1.6692-2.5272-3.8557-3.6494-6.1821-4.3154-1.0905-.3369-2.2057-.49-3.3221-.4561h-.1594c-1.1164-.0339-2.2316.1192-3.3221.4561-2.3297.6478-4.5162 1.7882-6.1821 4.3154-1.3503 2.0528-1.731 4.6119-.8752 6.7514.5514 1.4886 1.3729 2.7473 2.3817 3.6493 1.8961 1.5309 4.0041 2.4751 6.1821 2.769.6013.1005 1.2068.1446 1.8123.1323h.1595c.6055.0123 1.2109-.0318 1.8123-.1323 2.178-.2939 4.2859-1.2381 6.1821-2.769 1.0088-.902 1.8303-2.1607 2.3817-3.6493.8623-2.1395.4816-4.6986-.8687-6.7514z" fill="#9ab6cc"/><path d="m63.7205 5.11749c.9155.05858 1.8219.21485 2.7038.46612.472-.88641.8671-1.81124 1.1812-2.7644.0963-.27826.2834-.51642.5316-.67653.2482-.1601.5432-.23291.8378-.20683.2947.02607.572.14954.7879.3507.2159.20117.3579.46845.4033.75925.1088.70127.1523 1.41101.1302 2.12023 5.2483-1.0844 9.156-1.99723 9.0161-.01942l-.0195.07122c-1.1746 3.21434-3.5173 5.78447-6.4262 7.05337-.2857.0984-.529.2911-.6894.5461s-.2283.5569-.1923.8556c.0358 2.8064 0 5.5385 0 8.3158-2.7471-1.1872-5.7103-1.7999-8.7054-1.7999s-5.9583.6127-8.7054 1.7999c0-2.7773-.0228-5.5029 0-8.3158.036-.2987-.0319-.6006-.1923-.8556s-.4037-.4477-.6894-.5461c-2.9089-1.2689-5.2516-3.83903-6.4262-7.05337l-.0195-.07122c-.1399-1.97781 3.7678-1.06498 9.0161.01942-.0221-.70922.0214-1.41896.1302-2.12023.0454-.2908.1874-.55808.4033-.75925.2159-.20116.4933-.32463.7879-.3507.2947-.02608.5896.04673.8378.20683.2482.16011.4354.39827.5317.67653.314.95316.7092 1.87799 1.1811 2.7644.8819-.25127 1.7884-.40754 2.7038-.46612z" fill="#193151"/><path d="m63.374 6.07524c1.1933.0476 2.3734.26563 3.5043.6474.6923-1.13163 1.2472-2.34102 1.6529-3.60278.0206-.07592.0683-.14176.1342-.18525.0659-.04348.1454-.06164.2237-.05105.082-.00026.161.03028.2213.08549.0604.05521.0975.13102.1041.21231.1442 1.043.1595 2.09967.0455 3.14637.6248-.09387.7809-.11653 1.6074-.30104 5.2645-1.15237 6.989-1.19769 7.4608-1.00024-1.0998 2.89388-3.2245 5.20185-5.8567 6.34455-.4607.1742-.8521.4924-1.1155.9068-.2635.4145-.3847.9027-.3455 1.3914.0293 2.3307 0 4.6128 0 6.9046-4.9863-1.843-10.4721-1.843-15.4585 0 0-2.2918-.0162-4.5739 0-6.9046.0392-.4887-.0819-.9769-.3454-1.3914-.2634-.4144-.6548-.7326-1.1155-.9068-2.6225-1.1427-4.7472-3.45067-5.8567-6.34455.4718-.19745 2.1962-.15213 7.4608 1.00024.8264.18451.9761.20717 1.6073.30104-.114-1.0467-.0987-2.10337.0456-3.14637.0066-.08129.0437-.1571.104-.21231.0604-.05521.1394-.08575.2214-.08549.0783-.01059.1578.00757.2237.05105.0659.04349.1136.10933.1342.18525.4057 1.26176.9606 2.47115 1.6529 3.60278 1.1309-.38177 2.311-.5998 3.5043-.6474z" fill="#bfd5eb"/><path d="m65.0089 12.7822c.4259-.6254 3.0208-.8951 4.2216.5691m-7.6535-.5691c-.3637-.4711-3.191-.8564-4.2215.5691" stroke="#193151" stroke-linecap="round"/><path d="m51.0439 6.54446 4.0672.93874c.0436.00946.083.03258.1123.06597.0294.03339.0472.07529.0509.11951.0036.04422-.0071.08843-.0306.12613s-.0586.0669-.1.08329c-.8102.3237-2.2777.80926-2.9707.29134-1.0054-.74451-1.3178-1.15885-1.3796-1.38544-.0071-.03383-.0055-.06889.0048-.10191.0102-.03302.0288-.06292.0538-.08687.0251-.02395.0558-.04117.0894-.05005.0336-.00887.0688-.00912.1025-.00071z" fill="#193151"/><path d="m75.5406 6.54446-4.0672.93874c-.0436.00946-.0829.03258-.1123.06597s-.0472.07529-.0508.11951c-.0037.04422.007.08843.0306.12613.0235.0377.0585.0669.1.08329.8102.3237 2.2776.80926 2.9706.29134 1.0054-.74451 1.3178-1.15885 1.3796-1.38544.0071-.03383.0055-.06889-.0048-.10191-.0102-.03302-.0287-.06292-.0538-.08687-.025-.02395-.0558-.04117-.0894-.05005-.0335-.00887-.0688-.00912-.1025-.00071z" fill="#193151"/><path d="m72.8798 22.6326c-1.6692-1.7933-3.8557-2.5896-6.1821-3.0622-1.0905-.2391-2.2057-.3478-3.3221-.3237h-.1594c-1.1164-.0241-2.2316.0846-3.3221.3237-2.3296.4596-4.5162 1.2689-6.1821 3.0622-1.3503 1.4566-1.731 3.2726-.8752 4.7907.5514 1.0564 1.3729 1.9496 2.3817 2.5896 1.8962 1.0864 4.0041 1.7563 6.1821 1.9649.6014.0713 1.2068.1026 1.8124.0939h.1594c.6055.0087 1.211-.0226 1.8123-.0939 2.178-.2086 4.286-.8785 6.1821-1.9649 1.0088-.64 1.8303-1.5332 2.3818-2.5896.8622-1.5181.4815-3.3341-.8688-4.7907z" fill="#9ab6cc"/><path d="m71.957 22.4291c-1.5-1.3595-3.462-1.9713-5.5541-2.3177-.9976-.1942-2.0128-.2854-3.0293-.2719h-.1464c-1.0182-.0182-2.0355.0686-3.0357.259-2.0922.3463-4.0542.9711-5.5541 2.3177-1.2137 1.1006-1.5521 2.4763-.7874 3.6254.5267.8324 1.2653 1.5114 2.1409 1.9681 1.7441.8337 3.6284 1.3386 5.5574 1.489.5752.0559 1.1531.0796 1.731.0712h.0423c.5779.0084 1.1558-.0153 1.731-.0712 1.929-.1504 3.8133-.6553 5.5574-1.489.8756-.4567 1.6142-1.1357 2.1409-1.9681.7581-1.1524.4198-2.5281-.7939-3.6125z" fill="#bfd5eb"/><path d="m59.0594 26.258c-.9469.4596-1.8286-.0001-1.9978-1.0424-.1855-1.1167 1.3275-3.7711 1.6757-1.7641.3481 2.0069 1.8969-.7996 1.9066.4564-.0254.4978-.1862.9793-.4653 1.3932s-.6659.7447-1.1192.9569z" fill="#193151"/><path d="m.581089 12.7822c0 16.5089 35.675511 6.5785 35.675511 6.5785l9.7336 4.21s-6.9943-2.0136-4.8517-10.7887c2.1425-8.77499-9.8745-11.994829-18.6116-11.994829s-21.945811-2.274261-21.945811 11.995029z" fill="#193151"/><path d="m6.95063 9.29384.06 1.30796-.084-.12c.16-.408.424-.72796.792-.95996.376-.24.784-.36 1.224-.36.264 0 .5.052.708.156.216.096.38797.232.51597.408.136.168.216.36396.24.58796l-.072.072c.168-.39996.432-.70396.792-.91196s.748-.312 1.164-.312c.448 0 .804.132 1.068.396.264.256.4.59196.408 1.00796v3.42h-.564v-3.3c-.008-.28-.096-.516-.264-.70796-.168-.2-.424-.308-.768-.324-.312 0-.6.08-.864.24-.264.15996-.48.37196-.648.63596-.16.264-.248.56-.264.888v2.568h-.56397v-3.3c-.008-.28-.1-.516-.276-.70796-.168-.2-.424-.308-.768-.324-.32 0-.616.08-.888.24-.264.15996-.476.37996-.636.65996-.16.272-.24.576-.24.912v2.52h-.564v-4.69196zm8.49727 2.31596c0-.456.108-.872.324-1.248.224-.37596.524-.67196.9-.88796.384-.224.812-.336 1.284-.336.48 0 .908.112 1.284.336.376.216.672.512.888.88796.216.376.324.792.324 1.248s-.108.872-.324 1.248-.516.676-.9.9c-.376.216-.8.324-1.272.324-.48 0-.908-.104-1.284-.312-.376-.216-.676-.508-.9-.876-.216-.376-.324-.804-.324-1.284zm.564.012c0 .368.084.704.252 1.008.176.296.408.532.696.708.296.176.624.264.984.264s.684-.088.972-.264c.296-.176.528-.412.696-.708.176-.304.264-.64.264-1.008s-.088-.7-.264-.996c-.168-.304-.4-.544-.696-.71996-.288-.184-.612-.276-.972-.276-.368 0-.7.096-.996.288-.288.18396-.516.42796-.684.73196s-.252.628-.252.972zm5.6587-.012c0-.456.108-.872.324-1.248.224-.37596.524-.67196.9-.88796.384-.224.812-.336 1.284-.336.48 0 .908.112 1.284.336.376.216.672.512.888.88796.216.376.324.792.324 1.248s-.108.872-.324 1.248-.516.676-.9.9c-.376.216-.8.324-1.272.324-.48 0-.908-.104-1.284-.312-.376-.216-.676-.508-.9-.876-.216-.376-.324-.804-.324-1.284zm.564.012c0 .368.084.704.252 1.008.176.296.408.532.696.708.296.176.624.264.984.264s.684-.088.972-.264c.296-.176.528-.412.696-.708.176-.304.264-.64.264-1.008s-.088-.7-.264-.996c-.168-.304-.4-.544-.696-.71996-.288-.184-.612-.276-.972-.276-.368 0-.7.096-.996.288-.288.18396-.516.42796-.684.73196s-.252.628-.252.972zm5.6587-.012c0-.456.108-.872.324-1.248.224-.37596.524-.67196.9-.88796.384-.224.812-.336 1.284-.336.48 0 .908.112 1.284.336.376.216.672.512.888.88796.216.376.324.792.324 1.248s-.108.872-.324 1.248-.516.676-.9.9c-.376.216-.8.324-1.272.324-.48 0-.908-.104-1.284-.312-.376-.216-.676-.508-.9-.876-.216-.376-.324-.804-.324-1.284zm.564.012c0 .368.084.704.252 1.008.176.296.408.532.696.708.296.176.624.264.984.264s.684-.088.972-.264c.296-.176.528-.412.696-.708.176-.304.264-.64.264-1.008s-.088-.7-.264-.996c-.168-.304-.4-.544-.696-.71996-.288-.184-.612-.276-.972-.276-.368 0-.7.096-.996.288-.288.18396-.516.42796-.684.73196s-.252.628-.252.972z" fill="#fff"/><g filter="url(#a)"><ellipse cx="62.76" cy="70.6273" fill="#193151" rx="23.3411" ry="2.19587"/></g><path d="m73.2715 22.2733c-1.988-2.1364-4.6463-2.8647-6.4717-3.237h-.0423c-.9552-.2108-1.9304-.3193-2.9088-.3237h-1.1095c-.9785.0044-1.9536.1129-2.9089.3237h-.0423c-1.8253.3594-4.4836 1.0877-6.4717 3.237-1.5357 1.6509-1.8969 3.7258-.95 5.4091.5927 1.1433 1.4811 2.1087 2.5737 2.7967 1.8058 1.0812 3.8394 1.7286 6.3968 2.0361.5711.0693 1.1459.1039 1.7212.1036h.4718c.5754.0003 1.1502-.0343 1.7213-.1036 2.5574-.3075 4.591-.9549 6.3968-2.0361 1.0926-.688 1.981-1.6534 2.5737-2.7967.9469-1.693.5857-3.7582-.9501-5.4091zm.0195 4.8911c-.5041.9807-1.2608 1.8107-2.193 2.4051-1.6724 1.0003-3.5791 1.6185-5.9771 1.8937-.5797.0687-1.1634.099-1.7472.0906h-.1595c-.5838.0084-1.1675-.0219-1.7472-.0906-2.4045-.2914-4.3047-.8934-5.9772-1.8937-.9321-.5944-1.6889-1.4244-2.193-2.4051-.7256-1.2948-.4262-2.8485.8037-4.1692 1.3698-1.4761 3.1887-2.3727 5.8958-2.9133h.039c1.0623-.2362 2.1492-.3449 3.2375-.3237h.0423c1.0883-.0212 2.1752.0875 3.2375.3237h.039c2.7071.5309 4.526 1.4275 5.8958 2.9133 1.2299 1.3207 1.5292 2.8809.8036 4.1692z" fill="#193151"/><path d="m67.5279 26.258c.9469.4596 1.8286-.0001 1.9978-1.0424.1855-1.1167-1.3275-3.7711-1.6756-1.7641-.3482 2.0069-1.897-.7996-1.9067.4564.0254.4978.1862.9793.4653 1.3932s.6659.7447 1.1192.9569z" fill="#193151"/><path d="m38.0398 52.2166c-1.4992-6.1775 4.0851-6.8242 9.2112-5.8641-.6164 1.8601-.4932 4.1718 1.578 6.5765 2.4728 2.8709 8.3777 3.6914 12.8385 4.2239l4.7657-.9092 2.0074 4.926-5.3256 1.0834c-16.0907-.548-23.5761-3.8589-25.0752-10.0365z" fill="#bfd5eb" stroke="#193151"/><path d="m86.9004 51.5041c1.4992-6.1775-3.4676-6.6846-8.5938-5.7245.6165 1.8601-.4306 4.3377-2.5018 6.7424-2.4728 2.8709-7.445 4.0982-11.9058 4.6307l-4.7656-.9092v2.6059l-1.5677 1.6513 4.8858 1.7522c16.0907-.548 22.9497-4.5713 24.4489-10.7488z" fill="#bfd5eb" stroke="#193151"/><g fill="#193151"><path d="m58.6335 55.6688c1.386.3042 3.6786.7535 5.2066 1.2974l-.7631 3.7354-.7308 2.0084-5.6821-2.0084 1.9694-2.0105z"/><path d="m67.1523 56.3601c-1.8881.2345-3.9619.2924-4.475.1255l1.5134-.778 1.0735-.4164 1.6195-.181z"/><path d="m30.6398 26.4755c.8449.3727 2.5737 1.126 2.7297 1.1577l-.4391 2.2218-1.3202 1.4053-3.1665-1.4072 1.7921-1.4071z" stroke="#193151"/><path d="m94.2989 25.8256c-.8257.3647-2.5153 1.1018-2.6678 1.1328l.4301 2.1763 1.2911 1.377 3.0948-1.377-1.7524-1.3789z" stroke="#193151"/></g></svg>