<svg fill="none" viewBox="0 0 15 16" xmlns="http://www.w3.org/2000/svg"><path d="m4.657 8-4.427-6.2c-.267-.381-.3-.776-.1-1.186.199-.41.537-.614 1.013-.614.19 0 .371.043.543.129a.972.972 0 0 1 .4.357l5.371 7.514-5.371 7.514a.972.972 0 0 1 -.4.357 1.198 1.198 0 0 1 -.543.129c-.457 0-.79-.205-1-.614-.21-.41-.181-.805.086-1.186zm6.8 0-4.427-6.2c-.267-.381-.3-.776-.1-1.186.2-.41.538-.614 1.014-.614.19 0 .371.043.543.129a.972.972 0 0 1 .4.357l5.37 7.514-5.371 7.514a.972.972 0 0 1 -.4.357 1.198 1.198 0 0 1 -.543.129c-.457 0-.79-.205-1-.614-.21-.41-.181-.805.086-1.186z" fill="#052b65"/></svg>