<svg xmlns="http://www.w3.org/2000/svg" fill="none" viewBox="0 0 15 16"><path fill="#052B65" d="M4.657 8 .23 1.8c-.267-.381-.3-.776-.1-1.186C.329.204.667 0 1.143 0c.19 0 .371.043.543.129a.972.972 0 0 1 .4.357L7.457 8l-5.371 7.514a.972.972 0 0 1-.4.357 1.198 1.198 0 0 1-.543.129c-.457 0-.79-.205-1-.614-.21-.41-.181-.805.086-1.186L4.657 8Zm6.8 0L7.03 1.8c-.267-.381-.3-.776-.1-1.186C7.13.204 7.468 0 7.944 0c.19 0 .371.043.543.129a.972.972 0 0 1 .4.357L14.257 8l-5.371 7.514a.972.972 0 0 1-.4.357 1.198 1.198 0 0 1-.543.129c-.457 0-.79-.205-1-.614-.21-.41-.181-.805.086-1.186L11.457 8Z"/></svg>