<svg width="223" height="137" viewBox="0 0 223 137" fill="none" xmlns="http://www.w3.org/2000/svg">
<path d="M0 68.2134C0 30.5402 30.5402 0 68.2134 0H111.489V136.427H68.2134C30.5402 136.427 0 105.887 0 68.2134Z" fill="#FEE7CF"/>
<path d="M28.6055 68.2134C28.6055 30.5402 59.1456 0 96.8189 0H140.094V136.427H96.8189C59.1456 136.427 28.6055 105.887 28.6055 68.2134Z" fill="#F2CD16"/>
<path d="M57.2109 68.2134C57.2109 30.5402 87.7511 0 125.424 0H154.03V136.427H125.424C87.7511 136.427 57.2109 105.887 57.2109 68.2134Z" fill="#710408"/>
<circle cx="154.03" cy="68.2134" r="68.2134" fill="#99ECFF"/>
<path d="M159.827 27.8721L159.827 43.2727L148.12 43.2727L148.12 27.8721L159.827 27.8721ZM159.827 93.8874L159.827 109.288L148.12 109.288L148.12 93.8874L159.827 93.8874ZM143.419 77.7664C143.419 80.108 143.892 82.1194 144.838 83.8005C145.784 85.4817 147.085 86.7726 148.741 87.6732C150.455 88.5138 152.436 88.934 154.683 88.934C156.575 88.934 158.172 88.6038 159.473 87.9434C160.832 87.2229 161.838 86.3223 162.488 85.2415C163.198 84.1608 163.552 83.02 163.552 81.8192C163.552 80.078 162.932 78.5769 161.69 77.3161C160.507 75.9952 158.793 75.0645 156.546 74.5241L149.184 72.7229C143.981 71.462 139.871 69.2105 136.856 65.9683C133.84 62.726 132.332 58.8534 132.332 54.3503C132.332 50.6878 133.338 47.4155 135.348 44.5335C137.418 41.6515 140.108 39.43 143.419 37.8689C146.73 36.2478 150.248 35.4373 153.974 35.4373C157.994 35.4373 161.572 36.3979 164.705 38.3193C167.839 40.1805 170.264 42.7323 171.978 45.9745C173.693 49.1567 174.55 52.6991 174.55 56.6018L161.956 56.6018C161.956 54.02 161.158 51.9186 159.561 50.2975C158.024 48.6163 155.984 47.7758 153.441 47.7758C151.786 47.7758 150.337 48.106 149.095 48.7664C147.913 49.4269 146.996 50.2675 146.346 51.2882C145.755 52.3089 145.459 53.3596 145.459 54.4403C145.459 55.7612 145.902 56.9621 146.789 58.0428C147.676 59.0635 149.125 59.814 151.135 60.2944L158.32 62.0956C164.528 63.6567 169.14 66.0283 172.156 69.2105C175.23 72.3927 176.768 76.5055 176.768 81.549C176.768 85.4517 175.822 88.904 173.929 91.9061C172.037 94.9081 169.406 97.2498 166.036 98.9309C162.725 100.552 158.97 101.363 154.772 101.363C150.337 101.363 146.287 100.402 142.621 98.4806C138.955 96.5593 136.028 93.8274 133.84 90.285C131.652 86.6825 130.559 82.5096 130.559 77.7664L143.419 77.7664Z" fill="#005EB7"/>
<path d="M185.57 18.3369L199.017 13.4471L203.907 0L208.797 13.4471L222.244 18.3369L208.797 23.2268L203.907 36.6739L199.017 23.2268L185.57 18.3369Z" fill="white"/>
</svg>
