<svg width="169" height="176" viewBox="0 0 169 176" fill="none" xmlns="http://www.w3.org/2000/svg">
<path d="M17.9532 101.127C9.33472 68.9624 28.5002 35.8804 60.7604 27.2363C93.0206 18.5922 126.159 37.6593 134.778 69.8239L139.171 86.2183C147.789 118.383 128.624 151.465 96.3636 160.109C64.1033 168.753 30.9646 149.686 22.3461 117.521L22.3462 117.522L17.9532 101.127Z" fill="#880805"/>
<path d="M128.719 55.25C145.439 84.21 135.538 121.229 106.603 137.934C77.6686 154.64 40.6582 144.705 23.9382 115.745C7.21811 86.7854 17.1199 49.7663 46.0544 33.0609C74.9889 16.3556 111.999 26.29 128.719 55.25Z" fill="#F2CD16"/>
<path d="M91.9733 144.143C124.298 135.482 143.475 102.233 134.806 69.8796L17.7475 101.245C26.4165 133.598 59.6485 152.805 91.9733 144.143Z" fill="#F7DD4E"/>
<path d="M63.0369 51.1557L69.8693 62.9898L60.7422 68.2593L53.9098 56.4252L63.0369 51.1557ZM92.3245 101.883L99.157 113.718L90.0299 118.987L83.1974 107.153L92.3245 101.883ZM72.3807 96.8809C73.4195 98.6802 74.6806 100.013 76.164 100.879C77.6474 101.745 79.2342 102.151 80.9245 102.098C82.6342 101.972 84.3649 101.404 86.1165 100.392C87.5916 99.5408 88.6897 98.5685 89.4108 97.4755C90.1514 96.3097 90.5355 95.1652 90.5631 94.042C90.6368 92.8922 90.4072 91.8559 89.8745 90.9332C89.102 89.5952 87.9521 88.7212 86.4247 88.3112C84.9167 87.8285 83.167 87.8851 81.1757 88.4812L74.6375 90.4105C70.0217 91.7837 65.8191 91.9032 62.0298 90.7691C58.2404 89.635 55.3469 87.3378 53.3491 83.8775C51.7242 81.0632 51.0561 78.0962 51.3448 74.9768C51.6796 71.8307 52.7914 68.9127 54.6802 66.2228C56.5424 63.4867 58.9256 61.2804 61.8296 59.6037C64.9642 57.794 68.1792 56.922 71.4747 56.9879C74.7436 57.0076 77.7656 57.8773 80.5408 59.5969C83.2894 61.2703 85.5294 63.6065 87.2608 66.6054L77.4423 72.2742C76.2969 70.2903 74.7423 69.0348 72.7784 68.5076C70.8341 67.9077 68.8708 68.18 66.8887 69.3244C65.598 70.0696 64.6152 70.9754 63.9401 72.0418C63.3112 73.0815 62.9696 74.14 62.9154 75.2171C62.9073 76.2675 63.143 77.208 63.6224 78.0385C64.2084 79.0535 65.0869 79.7766 66.2578 80.2079C67.4021 80.593 68.8644 80.5177 70.6448 79.9819L77.0446 78.1324C82.5773 76.5376 87.225 76.2841 90.9877 77.3721C94.7965 78.4334 97.8196 80.9018 100.057 84.7774C101.789 87.7763 102.583 90.855 102.439 94.0135C102.296 97.1719 101.284 100.156 99.4022 102.964C97.54 105.701 94.9724 108.013 91.6996 109.903C88.2424 111.899 84.6586 112.984 80.9482 113.157C77.2378 113.331 73.7441 112.549 70.4669 110.812C67.1631 109.028 64.459 106.314 62.3547 102.669L72.3807 96.8809Z" fill="#880805"/>
<path d="M72.3799 96.8805C73.4188 98.6798 74.68 100.012 76.1634 100.878C77.6468 101.744 79.2336 102.151 80.9239 102.098C82.6336 101.972 84.3642 101.403 86.1158 100.392C87.5909 99.5403 88.689 98.568 89.4101 97.475C90.1506 96.3093 90.5349 95.1649 90.5625 94.0417C90.6361 92.8919 90.4065 91.8556 89.8738 90.9329C89.1013 89.5949 87.9514 88.7208 86.424 88.3109C84.9161 87.8281 83.1663 87.8848 81.1749 88.4809L74.6368 90.4101C70.0209 91.7832 65.8183 91.9028 62.029 90.7687C61.2735 90.5426 60.5537 90.2701 59.8694 89.9515L96.3121 80.1867C97.7394 81.3958 98.9877 82.9258 100.057 84.777C101.788 87.7759 102.582 90.8546 102.439 94.0131C102.296 97.1716 101.283 100.155 99.4015 102.964C98.3215 104.551 97.004 105.995 95.4496 107.297L99.1563 113.717L90.0291 118.987L86.162 112.289C84.4525 112.785 82.7144 113.074 80.9475 113.157C77.2372 113.331 73.7433 112.549 70.4662 110.812C67.1624 109.028 64.4584 106.314 62.3541 102.669L72.3799 96.8805Z" fill="#880805"/>
<path d="M88.3549 34.0058L104.98 40.0513L111.026 56.6764L117.071 40.0513L133.696 34.0058L117.071 27.9603L111.026 11.3352L104.98 27.9603L88.3549 34.0058Z" fill="white"/>
</svg>
