<svg xmlns="http://www.w3.org/2000/svg" fill="none" viewBox="0 0 192 110"><path fill="#827474" d="M52.468 85.541H98.1l-1.369 6.574a13.334 13.334 0 0 1-12.553 10.606l-1.513 4.609a3.136 3.136 0 0 1-3.799 2.054 3.207 3.207 0 0 1-2.304-3.748l.607-2.905h-3.293l-3.177 4.861a3.136 3.136 0 0 1-4.201 1.001 3.209 3.209 0 0 1-1.256-4.218l.843-1.669a13.335 13.335 0 0 1-12.247-10.591l-1.369-6.574Zm103.031-34.283 36.5 5.5V78.54h-36.5V51.258Zm-119.265.68L0 57.535v21.49h36.234V51.936Z"/><path fill="#FFF8F7" d="M.023 90.541h191.976v-20l-36.5-5.533V37.896l-30.107-17.632h-50.21c-18.202 0-34.096 12.316-38.639 29.941l-3.962 15.37-32.558 5.03V90.54Z"/><path fill="#827474" d="M45.363 33.547h-28.07C7.758 33.547.027 25.817.027 16.28v-6.068l32.693 7.475a16.27 16.27 0 0 1 12.644 15.861"/><path fill="#827474" fill-rule="evenodd" d="M142.824 51.283c-3.657 0-6.892-2.412-7.998-5.963l-5.684-18.254h-3.494c-3.657 0-6.892-2.412-7.998-5.963l-3.377-10.846h12.668L120.259 0h63.307l-6.681 10.257h12.668l-3.378 10.846c-1.105 3.55-4.341 5.963-7.997 5.963h-3.495l-5.684 18.254c-1.105 3.55-4.341 5.963-7.997 5.963h-18.178Zm.765-24.254a4.139 4.139 0 0 1-.555.037c-2.489 0-4.507-2.232-4.507-4.985 0-2.547 1.727-4.648 3.956-4.95.182-.024.367-.037.554-.037 2.49 0 4.508 2.233 4.508 4.986 0 2.547-1.727 4.648-3.956 4.95Zm12.739-5.585 8.316-2.875 1.252 3.73-8.317 2.875-1.251-3.73Z" clip-rule="evenodd"/></svg>