<svg xmlns="http://www.w3.org/2000/svg" fill="none" viewBox="0 0 90 100"><path fill="currentColor" d="M28.585 61.903a3.26 3.26 0 0 1-.92-2.287c0-1.743 1.322-3.156 2.954-3.156 1.629 0 2.951 1.413 2.951 3.156 0 1.025-.46 1.938-1.168 2.513a2.826 2.826 0 0 1-1.783.642 2.84 2.84 0 0 1-2.034-.868Zm13.653.868c1.632 0 2.955-1.414 2.955-3.155 0-1.743-1.323-3.156-2.955-3.156-1.628 0-2.95 1.413-2.95 3.156 0 1.056.489 1.994 1.238 2.567.481.37 1.071.588 1.712.588Z"/><path fill="currentColor" fill-rule="evenodd" d="M12.857 7.905a7 7 0 0 1 7-7h50.286a7 7 0 0 1 7 7v6.928L90 28.762v70.714H0V28.762l12.857-13.929V7.905Zm60 24.071v58.929h8.572V31.976h-8.572ZM20.081 52.133l-4.374-6.492H57.15l-4.374 6.492h8.295l-2.214 6.863c-.72 2.248-2.837 3.775-5.235 3.775h-2.285l-3.721 11.552a5.444 5.444 0 0 1-2.595 3.11 5.556 5.556 0 0 1-2.641.665H30.477a5.58 5.58 0 0 1-2.047-.39 5.49 5.49 0 0 1-2.226-1.619 5.323 5.323 0 0 1-.963-1.766l-3.72-11.552h-2.286c-2.398 0-4.515-1.527-5.235-3.775l-2.214-6.864h8.295Z" clip-rule="evenodd"/></svg>