<svg xmlns="http://www.w3.org/2000/svg" width="14" height="18" fill="none" viewBox="0 0 14 18"><path fill="currentColor" d="M1.75 18q-.721 0-1.236-.504A1.63 1.63 0 0 1 0 16.286V7.714q0-.707.514-1.21A1.7 1.7 0 0 1 1.75 6h.875V4.286q0-1.78 1.28-3.032Q5.185 0 7 0t3.095 1.254 1.28 3.032V6h.875q.721 0 1.236.504.514.503.514 1.21v8.572q0 .707-.514 1.21A1.7 1.7 0 0 1 12.25 18zM7 13.714q.721 0 1.236-.503.514-.504.514-1.211t-.514-1.21A1.7 1.7 0 0 0 7 10.285q-.721 0-1.236.503-.514.504-.514 1.211t.514 1.21T7 13.715M4.375 6h5.25V4.286q0-1.072-.766-1.822-.765-.75-1.859-.75t-1.86.75-.765 1.822z"/></svg>