<svg xmlns="http://www.w3.org/2000/svg" fill="none" viewBox="0 0 208 114"><path fill="currentColor" fill-rule="evenodd" d="M115.163 87.859c4.518 0 8.516-2.917 9.882-7.21l7.023-22.075h4.319c4.518 0 8.516-2.917 9.882-7.21l4.173-13.117h-15.653l8.256-12.403H64.953l8.256 12.403H57.555l4.174 13.117a10.364 10.364 0 0 0 9.882 7.21h4.318l7.024 22.074a10.365 10.365 0 0 0 9.882 7.21h22.328Zm5.306-35.314c0 3.33-2.494 6.03-5.57 6.03-3.077 0-5.57-2.7-5.57-6.03s2.493-6.03 5.57-6.03c3.076 0 5.57 2.7 5.57 6.03Zm-32.94 0c0 3.33 2.494 6.03 5.57 6.03s5.57-2.7 5.57-6.03-2.494-6.03-5.57-6.03-5.57 2.7-5.57 6.03Z" clip-rule="evenodd"/><path fill="currentColor" d="M64.953 0 0 .005v113.53l64.953-.006V87.854h-11.23a10.364 10.364 0 0 1-9.883-7.21l-7.024-22.075h-4.318a10.364 10.364 0 0 1-9.882-7.21L18.442 38.24h15.654l-8.257-12.4h39.114V0Zm78.093 0h64.953v113.529h-64.953V87.854h11.231c4.518 0 8.516-2.917 9.882-7.21l7.024-22.075h4.318c4.518 0 8.516-2.917 9.882-7.21l4.174-13.118h-15.654l8.257-12.402h-39.114V0Z"/></svg>