<svg xmlns="http://www.w3.org/2000/svg" fill="none" viewBox="0 0 90 82"><path fill="currentColor" fill-rule="evenodd" d="M31.69.273C14.188.273 0 14.476 0 31.997 0 49.517 14.188 63.72 31.69 63.72v18.075L74.562 59.27C83.805 53.718 90 43.536 90 31.997 90 14.59 75.905.273 58.518.273H31.69Zm12.89 51.985c-1.491 0-2.751-.498-3.78-1.492-.994-1.03-1.491-2.292-1.491-3.784s.497-2.736 1.49-3.73c.994-1.031 2.255-1.546 3.78-1.546 1.491 0 2.734.532 3.727 1.598 1.03 1.066 1.544 2.292 1.544 3.678 0 1.421-.514 2.665-1.543 3.73-1.03 1.03-2.272 1.546-3.727 1.546ZM32.706 26.197h7.507c0-1.635.462-3.002 1.384-4.104.923-1.101 2.112-1.652 3.567-1.652 1.278 0 2.343.355 3.195 1.066.852.71 1.277 1.599 1.277 2.665a3.3 3.3 0 0 1-.266 1.279 5.38 5.38 0 0 1-.745 1.172c-.284.39-.657.8-1.118 1.226l-.16.16-.16.16-1.064.906c-1.491 1.279-2.574 2.274-3.248 2.984a7.339 7.339 0 0 0-1.49 2.345c-.32.888-.444 1.99-.373 3.304l.053 1.226h6.708c0-1.101.248-1.972.745-2.611.533-.675 1.367-1.457 2.503-2.345 1.17-.96 1.97-1.67 2.395-2.132a.949.949 0 0 0 .267-.267l.266-.266c.887-.888 1.562-1.67 2.023-2.345.497-.71.834-1.421 1.011-2.132.213-.746.32-1.599.32-2.558 0-2.096-.532-3.98-1.597-5.65-1.065-1.669-2.52-2.984-4.366-3.943-1.846-.96-3.904-1.439-6.176-1.439-2.555 0-4.773.533-6.655 1.599-1.88 1.066-3.318 2.576-4.312 4.53-.994 1.919-1.49 4.192-1.49 6.822Z" clip-rule="evenodd"/></svg>