<svg xmlns="http://www.w3.org/2000/svg" fill="none" viewBox="0 0 20 21"><path fill="currentColor" d="M0 9c0-1.667.37-3.196 1.113-4.588A10.158 10.158 0 0 1 4.1.95l1.175 1.6a8.088 8.088 0 0 0-2.388 2.775C2.296 6.442 2 7.667 2 9H0Zm18 0c0-1.333-.296-2.558-.887-3.675a8.088 8.088 0 0 0-2.388-2.775L15.9.95c1.25.917 2.246 2.07 2.987 3.462C19.63 5.804 20 7.333 20 9h-2ZM2 18v-2h2V9c0-1.383.417-2.612 1.25-3.688C6.083 4.237 7.167 3.534 8.5 3.2v-.7c0-.417.146-.77.438-1.063A1.447 1.447 0 0 1 10 1c.417 0 .77.146 1.063.438.291.291.437.645.437 1.062v.7c1.333.333 2.417 1.037 3.25 2.112C15.583 6.388 16 7.617 16 9v7h2v2H2Zm8 3c-.55 0-1.02-.196-1.412-.587A1.926 1.926 0 0 1 8 19h4c0 .55-.196 1.02-.588 1.413A1.926 1.926 0 0 1 10 21Zm-4-5h8V9c0-1.1-.392-2.042-1.175-2.825C12.042 5.392 11.1 5 10 5s-2.042.392-2.825 1.175C6.392 6.958 6 7.9 6 9v7Z"/></svg>