<svg xmlns="http://www.w3.org/2000/svg" fill="none" viewBox="0 0 174 63"><path fill="currentColor" fill-rule="evenodd" d="M58.231 62.75c4.506 0 8.494-2.91 9.856-7.191l7.004-22.014h4.306c4.506 0 8.494-2.91 9.856-7.191l4.162-13.08h-15.61L86.037.903H8.158l8.234 12.37H.782l4.161 13.08a10.336 10.336 0 0 0 9.856 7.19h4.306l7.004 22.015a10.336 10.336 0 0 0 9.856 7.19H58.23Zm5.292-35.218c0 3.32-2.487 6.013-5.555 6.013-3.068 0-5.555-2.692-5.555-6.013 0-3.32 2.487-6.013 5.555-6.013 3.068 0 5.555 2.692 5.555 6.013Zm-32.85 0c0 3.32 2.487 6.013 5.555 6.013 3.068 0 5.555-2.692 5.555-6.013 0-3.32-2.487-6.013-5.555-6.013-3.068 0-5.555 2.692-5.555 6.013Z" clip-rule="evenodd"/><path fill="currentColor" d="M129.04 19.988h-11.25c0-4.26.81-7.98 2.43-11.16 1.68-3.24 4.05-5.73 7.11-7.47a18.76 18.76 0 0 1 2.256-1.106h-26.532v41.884L89.311 62.424h42.403a8.48 8.48 0 0 1-.244-.226c-1.56-1.62-2.34-3.57-2.34-5.85 0-2.34.78-4.29 2.34-5.85 1.56-1.56 3.51-2.34 5.85-2.34s4.29.84 5.85 2.52c1.56 1.62 2.34 3.51 2.34 5.67 0 2.22-.81 4.14-2.43 5.76a7.96 7.96 0 0 1-.32.317h30.467V.252h-26.442c.546.225 1.081.474 1.605.746 3.06 1.56 5.46 3.69 7.2 6.39 1.8 2.7 2.7 5.73 2.7 9.09 0 1.74-.21 3.3-.63 4.68-.36 1.32-1.02 2.61-1.98 3.87-.9 1.2-2.22 2.58-3.96 4.14l-.54.54c-.12.18-.3.33-.54.45-.78.78-2.01 1.92-3.69 3.42-1.68 1.38-2.91 2.67-3.69 3.87-.72 1.2-1.08 2.76-1.08 4.68h-10.26l-.09-2.16c-.12-2.1.09-3.9.63-5.4.54-1.5 1.32-2.85 2.34-4.05 1.08-1.26 2.76-2.88 5.04-4.86l1.71-1.44.27-.27c.12-.06.18-.12.18-.18 1.14-1.02 2.04-1.89 2.7-2.61.66-.72 1.17-1.47 1.53-2.25.36-.78.54-1.62.54-2.52 0-1.98-.81-3.6-2.43-4.86-1.56-1.32-3.57-1.98-6.03-1.98-2.76 0-4.98.99-6.66 2.97-1.68 1.98-2.55 4.47-2.61 7.47Z"/></svg>