<svg width="12" height="10" fill="none" xmlns="http://www.w3.org/2000/svg"><path d="m9.427.183 2.398 2.5.05.06c.182.244.165.599-.051.824l-.056.052a.583.583 0 0 1-.793-.052L9.6 2.13v7.244l-.004.073A.61.61 0 0 1 9 10l-.07-.004a.617.617 0 0 1-.53-.621v-7.24L7.023 3.568l-.056.052a.582.582 0 0 1-.792-.053.644.644 0 0 1 0-.883L8.58.183 8.635.13a.582.582 0 0 1 .792.052ZM3 .002l.07.004c.298.036.53.3.53.621v7.237l1.376-1.431.056-.052a.582.582 0 0 1 .792.052.643.643 0 0 1 0 .884l-2.402 2.5-.057.052a.582.582 0 0 1-.792-.053l-2.397-2.5-.05-.059a.645.645 0 0 1 .05-.824l.056-.052a.582.582 0 0 1 .792.052L2.4 7.867V.627l.004-.073A.61.61 0 0 1 3 .002Z" fill="currentColor"/></svg>