<svg xmlns="http://www.w3.org/2000/svg" fill="none" viewBox="0 0 38 43"><path fill="currentColor" fill-rule="evenodd" d="m31.87 6.649 5.666 6.852c.172.208.266.471.266.74v27.6c0 .64-.517 1.159-1.152 1.159H1.151C.517 43 0 42.48 0 41.841v-27.6c0-.266.093-.527.26-.733l5.872-7.21.027-.033V1.159C6.159.519 6.675 0 7.31 0h23.087c.635 0 1.151.52 1.151 1.159v4.595c0 .326.114.644.321.895Zm-8.446 34.04a1.1 1.1 0 0 0 1.095-1.101v-23.09c0-.607-.49-1.101-1.095-1.101H3.391a1.1 1.1 0 0 0-1.094 1.101v23.09c0 .606.49 1.1 1.094 1.1h20.033Zm1.796-27.733 2.525-4.138a.27.27 0 0 0-.23-.413h-20a.268.268 0 0 0-.208.099l-3.37 4.139a.27.27 0 0 0-.036.287.267.267 0 0 0 .244.156H24.99a.27.27 0 0 0 .23-.13Zm3.458-6.863a.575.575 0 0 0 .572-.575l.001-2.63a.575.575 0 0 0-.572-.577H9.029a.575.575 0 0 0-.572.576v2.63c0 .318.257.576.572.576h19.649ZM10.095 32.837A1.67 1.67 0 0 0 11.689 34h3.622c.729 0 1.373-.47 1.594-1.163l1.132-3.56h.697a1.67 1.67 0 0 0 1.593-1.162L21 26h-2.524l1.331-2H7.193l1.331 2H6l.673 2.115c.22.692.865 1.163 1.594 1.163h.696l1.132 3.56Zm1.636-3.56c-.495 0-.898-.434-.898-.971 0-.537.402-.973.899-.973.495 0 .898.436.898.973 0 .537-.403.972-.899.972Zm3.537 0c.497 0 .899-.434.899-.971 0-.537-.402-.973-.899-.973-.495 0-.898.436-.898.973 0 .537.403.972.899.972Z" clip-rule="evenodd"/></svg>