<svg xmlns="http://www.w3.org/2000/svg" fill="none" viewBox="0 0 150 139"><path fill="currentColor" d="M57.31 25.149C61.36 16.193 67.257 7.806 75 .5c7.743 7.306 13.64 15.694 17.69 24.649 6.376-2.542 13.419-3.853 20.85-3.66l.019-.018v28.411H36.441V21.471l.019.018c7.431-.193 14.474 1.118 20.85 3.66Z"/><path fill="currentColor" d="M37.821 138.5c-13.475.008-26.952-5.404-37.233-16.236 7.082-7.459 15.68-12.35 24.748-14.668C11.679 94.669 3.43 76.109 3.972 55.294v-5.412h32.47l8.04 12.311h-15.48l4.126 13.02a10.255 10.255 0 0 0 9.774 7.158h4.271l6.946 21.911a10.254 10.254 0 0 0 9.774 7.159h22.216c4.468 0 8.423-2.896 9.774-7.159l6.946-21.91h4.27c4.469 0 8.423-2.897 9.774-7.16L121 62.194h-15.481l8.04-12.31h32.47v5.411c.542 20.815-7.707 39.375-21.366 52.302 9.069 2.318 17.667 7.209 24.748 14.668-10.324 10.877-23.871 16.288-37.403 16.236h.198c-.673 0-1.345-.014-2.017-.04-10.99-.441-21.873-4.492-30.913-12.15A54.263 54.263 0 0 1 75 122.264a54.227 54.227 0 0 1-4.28 4.046c-9.583 8.12-21.24 12.184-32.899 12.19Z"/><path fill="currentColor" d="M58.645 76.386c0 3.306 2.466 5.985 5.508 5.985 3.043 0 5.509-2.68 5.509-5.985 0-3.306-2.466-5.985-5.509-5.985-3.042 0-5.509 2.68-5.509 5.985Zm32.711 0c0 3.306-2.467 5.985-5.51 5.985-3.042 0-5.508-2.68-5.508-5.985 0-3.306 2.466-5.985 5.509-5.985 3.042 0 5.509 2.68 5.509 5.985Z"/></svg>