<svg xmlns="http://www.w3.org/2000/svg" fill="none" viewBox="0 0 91 78"><path fill="currentColor" d="M60.45 78 42.033 59.583l6.067-6.066 12.35 12.35 24.483-24.484L91 47.45 60.45 78ZM43.333 30.333 78 8.667H8.667l34.666 21.666Zm0 8.667L8.667 17.333v43.334h22.316l8.667 8.666H8.667c-2.384 0-4.424-.848-6.121-2.546C.849 65.09 0 63.05 0 60.667v-52c0-2.384.849-4.424 2.546-6.121C4.243.849 6.283 0 8.666 0H78c2.383 0 4.424.849 6.12 2.546 1.698 1.697 2.547 3.737 2.547 6.12v18.85L78 36.184v-18.85L43.333 39Z"/></svg>