<svg fill="none" height="151" viewBox="0 0 150 151" width="150" xmlns="http://www.w3.org/2000/svg"><rect fill="#490072" height="150" rx="75" width="150" y=".9375"/><g fill="#12ff80"><path d="m104.297 75.849h-7.215c-2.1549 0-3.901 1.7461-3.901 3.901v10.4722c0 2.1549-1.7461 3.901-3.901 3.901h-28.704c-2.1549 0-3.901 1.7461-3.901 3.9009v7.2149c0 2.155 1.7461 3.901 3.901 3.901h30.3654c2.1549 0 3.8762-1.746 3.8762-3.901v-5.7885c0-2.1549 1.7461-3.6834 3.901-3.6834h5.5774c2.154 0 3.901-1.7461 3.901-3.901v-12.1614c0-2.1549-1.747-3.8557-3.901-3.8557z"/><path d="m56.6757 61.5154c0-2.1549 1.7461-3.901 3.901-3.901h28.6865c2.1549 0 3.9009-1.7461 3.9009-3.901v-7.215c0-2.1549-1.746-3.901-3.9009-3.901h-30.3494c-2.1549 0-3.901 1.7461-3.901 3.901v5.5595c0 2.1549-1.7461 3.9009-3.901 3.9009h-5.5522c-2.1548 0-3.9009 1.7461-3.9009 3.901v12.1745c0 2.1549 1.7534 3.8134 3.9082 3.8134h7.2151c2.1549 0 3.901-1.7461 3.901-3.901l-.0073-10.4298z"/><path d="m71.5346 68.2651h6.9303c2.2586 0 4.0908 1.8337 4.0908 4.0908v6.9304c0 2.2585-1.8337 4.0908-4.0908 4.0908h-6.9303c-2.2586 0-4.0908-1.8337-4.0908-4.0908v-6.9304c0-2.2585 1.8337-4.0908 4.0908-4.0908z"/></g></svg>