<svg xmlns="http://www.w3.org/2000/svg" fill="none" viewBox="0 0 92 83"><path fill="currentColor" fill-rule="evenodd" d="M92 .5H0v24.926C0 52.902 19.15 76.663 46 82.5c26.85-5.837 46-29.598 46-57.074V.5Zm-37.765 14 .917 7.88 7.613-3.183L71 32.803 64.304 37.5 71 42.197l-8.235 13.606-7.613-3.183-.917 7.88h-16.47l-.917-7.88-7.613 3.183L21 42.197l6.696-4.697L21 32.803l8.235-13.606 7.613 3.183.917-7.88h16.47Zm-20.425 23 6.198-10.646h12.397L58.603 37.5l-6.198 10.646H40.008L33.81 37.5Zm12.397 4.759c2.738 0 4.958-2.13 4.958-4.759 0-2.628-2.22-4.759-4.958-4.759-2.739 0-4.96 2.13-4.96 4.759 0 2.628 2.221 4.759 4.96 4.759Z" clip-rule="evenodd"/></svg>