<svg xmlns="http://www.w3.org/2000/svg" fill="none" viewBox="0 0 71 58"><path fill="currentColor" d="M30.7 35.743c-1.271 0-2.302-1.116-2.302-2.492 0-1.377 1.031-2.492 2.303-2.492 1.271 0 2.302 1.115 2.302 2.492 0 1.376-1.03 2.492-2.302 2.492Zm9.068 0c1.271 0 2.302-1.116 2.302-2.492 0-1.377-1.03-2.492-2.302-2.492s-2.303 1.115-2.303 2.492c0 1.376 1.031 2.492 2.303 2.492Z"/><path fill="currentColor" fill-rule="evenodd" d="M.5 17.186 35.5 0l35 17.186v10.06H60.443v20.538H70.5v10.06H.5v-10.06h10.063V27.246H.5v-10.06Zm26.006 27.682a4.284 4.284 0 0 0 4.086 2.98h9.285a4.285 4.285 0 0 0 4.085-2.98l2.903-9.125h1.785a4.284 4.284 0 0 0 4.086-2.98l1.725-5.423h-6.47l3.412-5.127H19.066l3.413 5.127h-6.471l1.725 5.422a4.284 4.284 0 0 0 4.085 2.981h1.785l2.903 9.125Z" clip-rule="evenodd"/></svg>