<svg xmlns="http://www.w3.org/2000/svg" fill="none" viewBox="0 0 80 92"><path fill="currentColor" fill-rule="evenodd" d="m65.228 52.998 7.63-3.16-3.175-7.666 5.866-5.865-5.865-5.866 3.174-7.663-7.665-3.175v-8.295h-8.295l-3.174-7.664-7.664 3.174L40.193.951l-5.866 5.867-7.663-3.174-3.175 7.664h-8.296v8.296L7.53 22.778l3.174 7.663-5.866 5.866 5.867 5.866-3.175 7.665 7.336 3.039L0 72.117l17.564 3.393 7.823 16.087L40 72.553l14.613 19.044 7.823-16.087L80 72.116 65.228 52.998ZM40 52.115c8.837 0 16-7.163 16-16 0-8.836-7.163-16-16-16s-16 7.164-16 16c0 8.837 7.163 16 16 16Z" clip-rule="evenodd"/></svg>