<svg fill="none" height="61" viewBox="0 0 190 61" width="190" xmlns="http://www.w3.org/2000/svg"><g fill="#23191a"><path clip-rule="evenodd" d="m55.8167 60.9375c4.378 0 8.2518-2.8224 9.5754-6.9766l6.8051-21.3567h4.1839c4.3779 0 8.2517-2.8225 9.5754-6.9766l4.0435-12.6901h-15.1667l7.9995-12h-75.66553l7.99953 12h-15.1668l4.04355 12.6901c1.32365 4.1541 5.19746 6.9766 9.57545 6.9766h4.1838l6.8051 21.3567c1.3237 4.1542 5.1975 6.9766 9.5754 6.9766zm5.1412-34.1667c0 3.2217-2.4163 5.8334-5.3969 5.8334s-5.3968-2.6117-5.3968-5.8334c0-3.2216 2.4162-5.8333 5.3968-5.8333s5.3969 2.6117 5.3969 5.8333zm-31.9158 0c0 3.2217 2.4163 5.8334 5.3969 5.8334s5.3968-2.6117 5.3968-5.8334c0-3.2216-2.4162-5.8333-5.3968-5.8333s-5.3969 2.6117-5.3969 5.8333z" fill-rule="evenodd"/><path d="m137.532 60.0756c.331.3213.678.6086 1.039.8619h-54.571l15.4234-15.4839v-20.3226c0-13.3631 10.7886-24.1935 24.0996-24.1935h10.831l-.64.34778c-3.005 1.74269-5.321 4.18095-6.94 7.31855-1.619 3.13387-2.429 6.81957-2.429 11.06097h11.797c0-1.4629.207-2.7898.622-3.9806.372-1.0773.918-2.0451 1.634-2.9032.61-.7258 1.291-1.308 2.044-1.7503.324-.189.663-.3553 1.013-.4952.915-.3591 1.921-.54054 3.017-.54054 2.199 0 4.021.60864 5.467 1.82964.953.7636 1.593 1.6671 1.917 2.7104.169.5406.252 1.119.252 1.7314 0 .756-.173 1.4818-.52 2.1774-.29.6956-.723 1.3949-1.303 2.0905-.519.6388-1.216 1.3646-2.082 2.1774-.056.0567-.143.1172-.26.1739-.056.0567-.116.1474-.173.2608l-1.736 1.4819c-2.372 2.0337-4.078 3.629-5.117 4.7895-.757.843-1.393 1.7654-1.905 2.7634l-.204.4196c-.113.2419-.218.4877-.32.7372-.523 1.4516-.723 3.2207-.61 5.3112l.087 2.0035h10.585c0-1.7994.376-3.251 1.129-4.3548.81-1.1039 2.109-2.3513 3.901-3.7425 1.853-1.5688 3.126-2.7293 3.818-3.4853.174-.1172.321-.2609.433-.4348l.437-.4347c1.559-1.4516 2.745-2.7596 3.555-3.9201.233-.3327.448-.6691.644-1.0093.132-.2344.256-.4688.373-.7032.131-.2684.252-.5405.361-.8127.139-.3478.26-.6956.358-1.0471.135-.4726.245-.9753.327-1.5121.061-.397.106-.809.136-1.2362.038-.4838.056-.9904.056-1.5196 0-3.3682-.866-6.3849-2.602-9.05749-1.675-2.72933-4.017-4.85005-7.026-6.35836l-.169-.08695h11.62c13.311 0 24.099 10.8304 24.099 24.1935v11.6129c0 13.3632-10.788 24.1936-24.099 24.1936h-17.592c.387-.276.756-.5935 1.11-.9488.957-.9942 1.631-2.0905 2.022-3.2851.272-.8316.407-1.7124.407-2.6386 0-.9904-.166-1.9317-.493-2.8163-.399-1.0849-1.043-2.0904-1.936-3.0166-1.562-1.686-3.528-2.5252-5.9-2.5252s-4.368.8128-5.987 2.4383c-1.563 1.565-2.342 3.542-2.342 5.9198 0 2.3816.779 4.3851 2.342 6.0106z"/></g></svg>