<svg xmlns="http://www.w3.org/2000/svg" fill="none" viewBox="0 0 81 61"><path fill="currentColor" fill-rule="evenodd" d="M67.398 19.594a28.036 28.036 0 0 0-53.47 0L.853 61l9.952-6.421L20.758 61l9.953-6.421L40.663 61l9.953-6.421L60.568 61l9.953-6.421L80.474 61 67.398 19.594Zm-11.324 1.074c0 3.258-2.44 5.9-5.45 5.9-3.01 0-5.45-2.642-5.45-5.9 0-3.258 2.44-5.9 5.45-5.9 3.01 0 5.45 2.642 5.45 5.9Zm-25.998 5.9c-3.01 0-5.45-2.642-5.45-5.9 0-3.258 2.44-5.9 5.45-5.9 3.01 0 5.45 2.642 5.45 5.9 0 3.258-2.44 5.9-5.45 5.9Z" clip-rule="evenodd"/></svg>