<svg width="14" height="14" viewBox="0 0 14 14" fill="none" xmlns="http://www.w3.org/2000/svg">
<path d="M0 6.24528V0H6.24528V6.24528H0ZM1.71698 4.5283H4.5283V1.71698H1.71698V4.5283ZM0 14V7.75472H6.24528V14H0ZM1.71698 12.283H4.5283V9.4717H1.71698V12.283ZM7.75472 6.24528V0H14V6.24528H7.75472ZM9.4717 4.5283H12.283V1.71698H9.4717V4.5283ZM12.4409 14V12.4364H14V14H12.4409ZM7.75472 9.31377V7.75472H9.3183V9.31377H7.75472ZM9.3183 10.8774V9.31377H10.8774V10.8774H9.3183ZM7.75472 12.4364V10.8774H9.3183V12.4364H7.75472ZM9.3183 14V12.4364H10.8774V14H9.3183ZM10.8774 12.4364V10.8774H12.4409V12.4364H10.8774ZM10.8774 9.31377V7.75472H12.4409V9.31377H10.8774ZM12.4409 10.8774V9.31377H14V10.8774H12.4409Z" fill="#052B65" fill-opacity="0.7"/>
</svg>
