<svg xmlns="http://www.w3.org/2000/svg" fill="none" viewBox="0 0 22 22"><path fill="currentColor" d="M21.765 8.57c-.508-2.389-1.854-4.563-3.792-6.123A11.167 11.167 0 0 0 10.991 0C8 0 5.205 1.153 3.116 3.245 1.098 5.271-.009 7.945 0 10.773c0 2.073.609 4.1 1.75 5.832l.214.297L.786 22l5.637-1.402s.113.037.197.07c.083.031.802.307 1.564.52.633.177 1.951.442 2.984.442 2.93 0 5.665-1.135 7.701-3.195A10.824 10.824 0 0 0 22 10.779c0-.743-.078-1.483-.235-2.209Zm-15.48 4.001a1.571 1.571 0 1 1 0-3.142 1.571 1.571 0 0 1 0 3.142Zm4.715 0a1.571 1.571 0 1 1 0-3.142 1.571 1.571 0 0 1 0 3.142Zm4.714 0a1.571 1.571 0 1 1 0-3.142 1.571 1.571 0 0 1 0 3.142Z"/></svg>