<svg xmlns="http://www.w3.org/2000/svg" width="7" height="12" fill="none"><path fill="currentColor" d="M2.502 12v-1.425a3.222 3.222 0 0 1-1.566-.812A3.403 3.403 0 0 1 0 8.237l1.26-.53c.11.44.358.826.745 1.16.386.335.79.503 1.21.503.493 0 .89-.123 1.191-.37.302-.247.452-.562.452-.945 0-.365-.135-.68-.406-.94-.27-.263-.763-.51-1.475-.74-.9-.317-1.568-.664-2-1.042C.545 4.956.33 4.438.33 3.781c0-.59.198-1.1.593-1.53.396-.43.923-.71 1.58-.845V0h1.224v1.406c.901.147 1.49.486 1.767 1.019.277.532.413.777.407.735l-1.188.493c-.091-.28-.289-.527-.593-.74a1.7 1.7 0 0 0-.996-.32c-.408 0-.753.109-1.036.325-.283.216-.425.491-.425.826 0 .299.131.56.393.786.262.225.788.468 1.58.73.889.286 1.54.641 1.954 1.064.414.423.615 1 .603 1.73A2.483 2.483 0 0 1 5.52 9.75c-.436.472-1.034.765-1.795.881V12H2.502Z"/></svg>