<svg xmlns="http://www.w3.org/2000/svg" fill="none" viewBox="0 0 470 383"><path fill="#745905" d="M148.203 283.199c0-54.621 44.28-98.901 98.901-98.901h123.995c54.622 0 98.901 44.28 98.901 98.901 0 54.622-44.279 98.901-98.901 98.901H247.104c-54.621 0-98.901-44.279-98.901-98.901"/><path fill="#f2cd16" d="M430.838 362.024a98 98 0 0 1-3.246 2.362H259.208v-2.362zm19.828-20.075q-.885 1.195-1.802 2.362H259.208v-2.362zm11.485-20.075a99 99 0 0 1-1.041 2.361H259.208v-2.361zm6.101-20.076q-.225 1.186-.478 2.362H259.208v-2.362zm1.736-20.075q.011.737.012 1.476-.001.443-.005.886H259.208v-2.362zm-2.345-20.076q.261 1.176.494 2.362H259.208v-2.362zm-6.805-20.075q.546 1.173 1.06 2.362h-202.69v-2.362zm-12.443-20.075a95 95 0 0 1 1.83 2.361H259.208v-2.361zm-21.659-20.075a98 98 0 0 1 3.316 2.361H259.208v-2.361z"/><path fill="#f2cd16" d="M309.915 184.298c45.298 9.986 79.193 50.475 79.193 98.901s-33.895 88.915-79.193 98.901h-21.774c54.455 0 98.605-44.276 98.605-98.901s-44.15-98.901-98.605-98.901z"/><path fill="#f2cd16" d="M351.246 184.298c45.299 9.986 79.194 50.475 79.194 98.901s-33.895 88.915-79.194 98.901h-21.774c54.455 0 98.606-44.276 98.606-98.901s-44.151-98.901-98.606-98.901z"/><path fill="#fff8f7" d="M468.253 301.798c-4.915 25.829-19.875 48.098-40.661 62.588H303.628c21.241-14.79 35.792-37.396 40.634-62.588zM187.418 362.064a98 98 0 0 0 3.202 2.322h-.009a100 100 0 0 1-3.193-2.322M149.965 301.798q.673 3.502 1.608 6.999a99.3 99.3 0 0 0 7.535 19.59 98.2 98.2 0 0 1-9.157-26.589zM467.643 261.648a99.2 99.2 0 0 1 2.351 22.437h-123.97a98.7 98.7 0 0 0-2.396-22.437z"/><path fill="#745905" d="M450.665 341.949q-.883 1.195-1.801 2.362H259.208v-2.362zM462.151 321.874q-.506 1.188-1.042 2.362H259.208v-2.362z"/><path fill="#f2cd16" d="M342.635 257.602c14.137 52.76-17.173 106.991-69.934 121.128s-106.991-17.173-121.128-69.933 17.173-106.991 69.934-121.128 106.991 17.173 121.128 69.933"/><path fill="#fff8f7" d="m239.801 215.776 6.582 24.561-18.96 5.08-6.581-24.561zm28.211 105.284 6.581 24.561-18.959 5.081-6.582-24.562zm-33.461-18.591q1.5 5.602 4.876 9.008t7.975 4.483q4.704.894 10.163-.568 4.596-1.231 7.333-3.658 2.841-2.609 3.729-5.618 1.03-3.047.261-5.92-1.116-4.165-4.941-6.373-3.72-2.39-9.524-2.221l-12.691.322q-13.449.37-22.852-5.423t-12.29-16.566q-2.348-8.762.688-16.965 3.18-8.24 10.223-14.131 7.005-6.033 16.053-8.458 9.768-2.617 18.612-.06 8.805 2.412 15.049 9.053 6.205 6.496 8.707 15.832l-20.396 5.465q-1.655-6.176-6.572-9.015-4.812-3.02-10.989-1.366-4.022 1.077-6.614 3.466-2.45 2.35-3.375 5.215-.783 2.826-.09 5.412.847 3.16 3.694 5.168 2.81 1.864 8.001 1.705l12.404-.245q16.082-.306 25.447 5.343 9.508 5.611 12.742 17.677 2.501 9.337-.171 17.749-2.671 8.414-9.781 14.629-7.005 6.033-17.203 8.766-10.772 2.887-20.909.677t-17.722-9.261q-7.624-7.194-10.664-18.541z"/><path fill="#745905" d="M197.802 382.1H0v-33.065h197.802z"/><path fill="#fff8f7" d="M137.28 349.035h36.018L149.975 382.1h-36.018zM106.281 349.035H117.5L94.177 382.1H82.958z"/><path fill="#f2cd16" d="M19.485 382.1h-2.362v-33.065h2.362zm20.075 0h-2.362v-33.065h2.362zm20.076 0h-2.362v-33.065h2.362zm20.075 0h-2.362v-33.065h2.362zm20.075 0h-2.361v-33.065h2.361zm20.076 0H117.5v-33.065h2.362zm20.075 0h-2.362v-33.065h2.362zm20.076 0h-2.362v-33.065h2.362zm20.075 0h-2.362v-33.065h2.362z"/><path fill="#745905" d="M119.862 382.1H117.5v-5.023l2.362-3.348zM139.937 382.1h-2.362v-33.065h2.362zM99.786 374.147l-2.361 3.349v-15.905l2.361-3.349zM160.013 367.869l-2.362 3.348v-22.182h2.362z"/><path fill="#fff8f7" d="M111.188 190.658H70.647v19.427h40.541z"/><path fill="#fff8f7" d="m22.437 349.027 8.132-83.463 45.73-80.815 28.011.001 45.73 80.814 8.132 83.463h-33.934l-16.967-30.135H73.338L56.37 349.027z"/><path fill="#23191a" d="M72.81 307.224H59.98l-5.81 41.809h23.227zM107.748 307.222h12.831l5.81 41.809h-23.227zM84.4 270.911a5.569 5.569 0 1 0 11.137 0 5.569 5.569 0 0 0-11.137 0"/><path fill="#f2cd16" d="M101.17 247.046a11.448 11.448 0 0 0-22.398 0l-5.043 23.866h32.483z"/><path fill="#23191a" d="M115.28 307.198H68.608l1.452 6.845a16.92 16.92 0 0 0 16.549 13.407h10.67c7.99 0 14.891-5.591 16.549-13.407z"/><path fill="#23191a" d="M89.133 323.876a3.48 3.48 0 0 0-6.96 0v5.568a3.48 3.48 0 1 0 6.96 0zM101.661 323.875a3.48 3.48 0 1 0-6.96 0v5.568a3.481 3.481 0 1 0 6.96 0z"/><path fill="#23191a" fill-rule="evenodd" d="M101.215 232.062c4.421 0 8.333-2.852 9.67-7.05l6.872-21.584h4.225c4.421 0 8.333-2.852 9.669-7.051l4.083-12.825h-15.315l8.078-12.127H51.956l8.078 12.127H44.718l4.083 12.825a10.14 10.14 0 0 0 9.67 7.051h4.225l6.872 21.584a10.14 10.14 0 0 0 9.67 7.05zm5.192-34.529c0 3.256-2.44 5.895-5.45 5.895s-5.45-2.639-5.45-5.895 2.44-5.896 5.45-5.896 5.45 2.64 5.45 5.896m-32.361 0c0 3.256 2.44 5.895 5.45 5.895s5.45-2.639 5.45-5.895-2.44-5.896-5.45-5.896-5.45 2.64-5.45 5.896" clip-rule="evenodd"/><path fill="#fff" d="m135.819 0 7.4 20.35 20.351 7.401-20.351 7.4-7.4 20.351-7.4-20.35-20.351-7.4 20.351-7.401zM86.999 61l2.912 8.01 8.01 2.913-8.01 2.913L87 82.846l-2.913-8.01-8.01-2.913 8.01-2.913zM164.555 170l1.733 4.767 4.767 1.733-4.767 1.733-1.733 4.767-1.734-4.767-4.766-1.733 4.766-1.733z"/><path fill="#745905" d="M387.408 301.798c-4.722 25.506-18.975 47.655-38.916 62.588h-4.027c20.724-14.49 35.64-36.758 40.54-62.588zM428.739 301.798c-4.721 25.506-18.974 47.655-38.915 62.588h-4.027c20.723-14.49 35.639-36.758 40.539-62.588zM386.815 261.648a102 102 0 0 1 2.293 21.551q-.001.444-.005.886h-2.363q.005-.442.006-.886c0-7.402-.812-14.614-2.35-21.551zM428.146 261.648a102 102 0 0 1 2.288 22.437h-2.362q.005-.442.006-.886c0-7.402-.813-14.614-2.35-21.551z"/><path fill="#23191a" d="M351.631 159.037a12.764 12.764 0 0 1-12.486 10.125h-2.368v3.483a3.42 3.42 0 0 1-3.425 3.424 3.494 3.494 0 0 1-3.486-3.488v-3.419h-4.225v3.483a3.417 3.417 0 0 1-3.423 3.424 3.495 3.495 0 0 1-3.488-3.488v-3.419h-2.44a12.76 12.76 0 0 1-12.486-10.125l-1.658-7.843v-11.771h51.141v11.771z"/><path fill="#fff8f7" d="m218.895 184.298-6.923-33.656H248.8l3.323 33.656z"/><path fill="#23191a" d="M336.361 184.298h34.443l-3.629-33.066h-37.703z"/><path fill="#fff8f7" d="M225.237 70.93 198.982 97.2v44.932l13.819.691-.83 8.295h45.437l-2.763 33.181h34.545l5.528-33.181h61.792l6.909 33.181h34.546L385.528 70.931z"/><path fill="#23191a" fill-rule="evenodd" d="M204.058 158.1a10.165 10.165 0 0 1-9.692-7.072l-6.887-21.647h-4.235a10.165 10.165 0 0 1-9.692-7.072l-4.092-12.862h15.351l-8.097-12.164h76.716l-8.096 12.164h15.351l-4.093 12.862a10.165 10.165 0 0 1-9.692 7.072h-4.234l-6.888 21.647a10.165 10.165 0 0 1-9.692 7.072z" clip-rule="evenodd"/><path fill="#fff8f7" d="M198.854 123.467c0 3.266 2.446 5.913 5.463 5.913s5.462-2.647 5.462-5.913c0-3.265-2.446-5.912-5.462-5.912-3.017 0-5.463 2.647-5.463 5.912M231.29 123.467c0 3.266-2.446 5.913-5.463 5.913s-5.462-2.647-5.462-5.913c0-3.265 2.446-5.912 5.462-5.912 3.017 0 5.463 2.647 5.463 5.912"/><path fill="#23191a" d="m312.198 41.999 59.644 9.252a15.37 15.37 0 0 1 12.923 13.512l.688 6.262h-51.736c-11.885 0-21.519-9.635-21.519-21.52z"/></svg>