<svg width="470" height="470" viewBox="0 0 470 470" fill="none" xmlns="http://www.w3.org/2000/svg">
  <path d="M346.756 224.329L412.215 234.609V274.078H346.756L346.756 224.329Z" fill="#271E1E"/>
  <path d="M129.433 224.329L63.9741 234.609L63.9741 274.078H129.433V224.329Z" fill="#271E1E"/>
  <path d="M346.752 247.896L412.211 258.127L412.211 295.026L346.752 295.026L346.752 247.896Z" fill="white"/>
  <path d="M129.429 247.896L63.9702 258.127L63.9702 295.026H129.429V247.896Z" fill="white"/>
  <path d="M111.541 295.032L130.495 221.213C138.728 189.148 167.63 166.73 200.735 166.73H346.752V295.032H111.541Z" fill="white"/>
  <path d="M159.504 295.041L242.436 295.041L239.948 306.988C237.608 318.227 227.702 326.282 216.222 326.282H185.719C174.238 326.282 164.333 318.227 161.992 306.988L159.504 295.041Z" fill="#271E1E"/>
  <path d="M206.111 321.227L216.032 323.935L213.238 334.553C212.516 337.3 209.71 338.92 206.97 338.172C204.23 337.425 202.595 334.592 203.318 331.846L206.111 321.227Z" fill="#271E1E"/>
  <path d="M188.713 320.794L197.607 326.024L192.228 335.515C190.823 337.994 187.693 338.832 185.236 337.388C182.78 335.943 181.928 332.763 183.333 330.284L188.713 320.794Z" fill="#271E1E"/>
  <path d="M146.586 190.99H95.5719C78.2393 190.99 64.1885 176.939 64.1885 159.606L64.1885 148.577L123.606 162.162C137.052 165.237 146.586 177.197 146.586 190.99Z" fill="#271E1E"/>
  <path fill-rule="evenodd" clip-rule="evenodd" d="M323.854 224.203C317.208 224.203 311.328 219.819 309.318 213.366L298.988 180.19L292.637 180.19C285.992 180.19 280.111 175.805 278.102 169.352L271.964 149.639L294.987 149.639L282.844 130.999H397.901L385.758 149.639L408.781 149.639L402.643 169.352C400.634 175.805 394.754 180.19 388.108 180.19L381.757 180.19L371.427 213.366C369.418 219.819 363.537 224.203 356.891 224.203H323.854ZM316.049 171.128C316.049 176.133 319.717 180.19 324.242 180.19C328.766 180.19 332.434 176.133 332.434 171.128C332.434 166.124 328.766 162.067 324.242 162.067C319.717 162.067 316.049 166.124 316.049 171.128ZM364.696 171.128C364.696 176.133 361.028 180.19 356.503 180.19C351.979 180.19 348.311 176.133 348.311 171.128C348.311 166.124 351.979 162.067 356.503 162.067C361.028 162.067 364.696 166.124 364.696 171.128Z" fill="#271E1E"/>
  <path d="M364.697 171.126C364.697 176.131 361.029 180.188 356.505 180.188C351.98 180.188 348.312 176.131 348.312 171.126C348.312 166.122 351.98 162.065 356.505 162.065C361.029 162.065 364.697 166.122 364.697 171.126Z" fill="#271E1E"/>
  <path d="M316.049 171.126C316.049 176.131 319.717 180.188 324.242 180.188C328.766 180.188 332.434 176.131 332.434 171.126C332.434 166.122 328.766 162.065 324.242 162.065C319.717 162.065 316.049 166.122 316.049 171.126Z" fill="white"/>
  <path d="M364.648 168.137L349.533 173.362" stroke="white" stroke-width="7.15576"/>
  <path d="M179.5 146C144.982 146 117 118.04 117 83.5491L117 62.2735L242 62.2734L242 83.5491C242 118.04 214.018 146 179.5 146Z" fill="#005EB7"/>
  <ellipse cx="179.5" cy="62.4509" rx="62.5" ry="62.4509" fill="#F2CD16"/>
  <path d="M204.893 62.5138L179.502 25.4336L154.112 62.5138L179.502 99.594L204.893 62.5138Z" fill="white"/>
  <path d="M307 70L311 81L322 85L311 89L307 100L303 89L292 85L303 81L307 70Z" fill="white"/>
  <path d="M109 336L117 358L139 366L117 374L109 396L101 374L79 366L101 358L109 336Z" fill="white"/>
  <path d="M321 336.008H470V376.736C470 421.631 438.984 460.457 395.5 469.994C352.016 460.457 321 421.631 321 376.736V336.008Z" fill="#00A1FF"/>
  <path d="M469.997 376.736V336.008H395.497V469.994C438.981 460.457 469.997 421.631 469.997 376.736Z" fill="#012F7A"/>
  <path d="M395.494 422.427L355.583 411.723L370.035 380.839C367.091 378.092 365.722 373.849 366.836 369.686L368.776 362.439C370.384 356.434 376.549 352.871 382.548 354.48L395.494 357.952V422.427Z" fill="#F2CD16"/>
  <rect x="395.494" y="336" width="37.25" height="54.2647" fill="#005EB7"/>
  <path d="M395.493 370.172L424.369 377.964C430.331 379.573 433.87 385.746 432.272 391.751L430.344 399C429.236 403.163 425.95 406.153 422.052 407.059L419.158 441.043L395.493 434.657V370.172Z" fill="white"/>
  <circle cx="225" cy="425" r="45" fill="white"/>
  <path d="M209.999 405.5H228.749C239.104 405.5 247.499 414.231 247.499 425C247.499 435.77 239.104 444.5 228.749 444.5H209.999V405.5Z" fill="#F0DEDE"/>
  <circle cx="371.629" cy="30" r="30" fill="white"/>
  <path d="M371.631 46.1972L387.038 35.0033L381.153 16.8911H362.109L356.224 35.0033L371.631 46.1972Z" fill="#F0DEDE"/>
</svg>
