<svg fill="none" viewBox="0 0 350 351" xmlns="http://www.w3.org/2000/svg" xmlns:xlink="http://www.w3.org/1999/xlink"><clipPath id="a"><path d="m0 .905h350v350h-350z"/></clipPath><g clip-path="url(#a)"><g fill="#66018e"><rect height="187" rx="50" transform="matrix(-1 0 0 1 240.001 10.9985)" width="240"/><path d="m137.789 192.168h-111.264l111.264 57.474z"/><rect height="100" rx="49.672" width="190" x="160.001" y="219.999"/><path d="m257.893 314.119h65.579l-65.579 33.895z"/></g><rect fill="#f41c43" height="103" rx="24" width="48" x="262.001" y="94.999"/><path d="m90.001 288.999c0-13.255 10.745-24 24-24s24 10.745 24 24c0 13.254-10.745 24-24 24s-24-10.746-24-24z" fill="#f41c43"/><path d="m40 50.747h161v20h-161zm161 209.002h109v20h-109zm-161-165.002h161v20h-161zm0 43h98v20h-98z" fill="#f996ee"/></g></svg>