<svg width="259" height="107" viewBox="0 0 259 107" fill="none" xmlns="http://www.w3.org/2000/svg">
<g clip-path="url(#clip0_2171_12352)">
<path d="M229.5 18.08C229.5 8.35602 221.541 0.473022 211.723 0.473022C204.499 0.473022 198.281 4.74102 195.5 10.871C192.719 4.74102 186.501 0.473022 179.277 0.473022C169.459 0.473022 161.5 8.35602 161.5 18.08C161.5 39.105 184.167 54.148 195.5 60.473C206.833 54.148 229.5 39.106 229.5 18.08Z" fill="#EC4612"/>
<path d="M259 72.6974C250.271 66.8702 239.782 63.473 228.5 63.473C202.058 63.473 179.975 82.1312 174.698 107H187.165C192.183 88.8887 208.787 75.593 228.496 75.593C240.43 75.593 251.226 80.468 259 88.3351V72.6974Z" fill="#D0AC10"/>
<path d="M216.302 107C211.024 82.1312 188.941 63.473 162.5 63.473C136.058 63.473 113.975 82.1312 108.698 107H121.165C126.183 88.8887 142.787 75.593 162.496 75.593C182.205 75.593 198.808 88.8887 203.827 107H216.302Z" fill="white"/>
</g>
<defs>
<clipPath id="clip0_2171_12352">
<rect width="259" height="107" fill="white"/>
</clipPath>
</defs>
</svg>
