<svg width="405" height="250" viewBox="0 0 405 250" fill="none" xmlns="http://www.w3.org/2000/svg">
  <path d="M181 25H405V85.7937C405 152.809 358.372 210.763 293 224.999C227.628 210.763 181 152.809 181 85.7937V25Z" fill="#710408"/>
  <path d="M405 85.7937V25H293V224.999C358.372 210.763 405 152.809 405 85.7937Z" fill="#99ECFF"/>
  <path d="M293 25H349V106H293V25Z" fill="#CCF8FF"/>
  <path d="M293.002 76L336.413 87.6318C345.376 90.0336 350.696 99.2472 348.294 108.211L345.395 119.031C343.73 125.246 338.79 129.709 332.93 131.061L328.579 181.788L293.002 172.256V76Z" fill="#00A1FF"/>
  <path d="M293 154L233 138.022L254.725 91.9225C250.3 87.8217 248.242 81.4881 249.917 75.2746L252.834 64.4561C255.25 55.4938 264.519 50.1752 273.537 52.5766L293 57.7598V154Z" fill="#F2CD16"/>
</svg>
