<svg fill="none" height="128" viewBox="0 0 404 128" width="404" xmlns="http://www.w3.org/2000/svg" xmlns:xlink="http://www.w3.org/1999/xlink"><clipPath id="a"><path d="m0 0h404v128h-404z"/></clipPath><g clip-path="url(#a)"><path d="m313.859 0c-4.999 0-9.051 4.05205-9.051 9.0505v9.0491h82.748v-9.04909c0-4.99845-4.052-9.05051-9.051-9.05051z" fill="#ec4612"/><path d="m304.808 18.1011-16.808 18.101v.0014h82.747l16.809-18.1024z" fill="#ed60e9"/><path d="m404.365 36.2021-16.808-18.101-16.81 18.101.001 91.7979h33.617z" fill="#490072"/><path d="m288 36.2031h82.747v91.7979h-82.747z" fill="#fccaf2"/><path clip-rule="evenodd" d="m336.465 102.662c2.9 0 5.467-1.872 6.343-4.6282l4.508-14.1685h2.772c2.9 0 5.467-1.8725 6.343-4.6284l2.679-8.4189h-10.047l5.299-7.9611h-50.125l5.299 7.9611h-10.047l2.679 8.4189c.876 2.7559 3.443 4.6284 6.343 4.6284h2.772l4.508 14.1685c.876 2.7562 3.443 4.6282 6.343 4.6282zm3.406-22.6667c0 2.1373-1.601 3.87-3.575 3.87-1.975 0-3.575-1.7327-3.575-3.87s1.6-3.8699 3.575-3.8699c1.974 0 3.575 1.7326 3.575 3.8699zm-21.143 0c0 2.1373 1.601 3.87 3.575 3.87 1.975 0 3.575-1.7327 3.575-3.87s-1.6-3.8699-3.575-3.8699c-1.974 0-3.575 1.7326-3.575 3.8699z" fill="#490072" fill-rule="evenodd"/></g></svg>