<svg xmlns="http://www.w3.org/2000/svg" fill="none" viewBox="0 0 350 351"><g clip-path="url(#a)"><rect width="240" height="187" fill="#66018E" rx="50" transform="matrix(-1 0 0 1 240.001 10.9985)"/><path fill="#66018E" d="M137.789 192.168H26.525l111.264 57.474v-57.474Z"/><rect width="190" height="100" x="160.001" y="219.999" fill="#66018E" rx="49.672"/><path fill="#66018E" d="M257.893 314.119h65.579l-65.579 33.895v-33.895Z"/><rect width="48" height="103" x="262.001" y="94.999" fill="#F41C43" rx="24"/><path fill="#F41C43" d="M90.001 288.999c0-13.255 10.745-24 24-24s24 10.745 24 24c0 13.254-10.745 24-24 24s-24-10.746-24-24Z"/><path fill="#F996EE" d="M40 50.747h161v20H40zm161 209.002h109v20H201zM40 94.747h161v20H40zm0 43h98v20H40z"/></g><defs><clipPath id="a"><path fill="#fff" d="M0 .905h350v350H0z"/></clipPath></defs></svg>