<svg xmlns="http://www.w3.org/2000/svg" fill="none" viewBox="0 0 374 201"><path fill="#00A1FF" fill-rule="evenodd" d="M189.385 156.487a107.424 107.424 0 0 0 27.628 27.616c.468-.61.972-1.205 1.512-1.782l1.768-2.269a19.488 19.488 0 0 1 33.715 13.965l-.354 2.855a23.68 23.68 0 0 1-.192 2.331 107.396 107.396 0 0 0 39.073.01c-.1-.764-.165-1.542-.192-2.334l-.354-2.855a19.489 19.489 0 0 1 33.715-13.965l1.769 2.269a23.989 23.989 0 0 1 1.514 1.787 107.43 107.43 0 0 0 27.622-27.636 24.173 24.173 0 0 1-1.784-1.513l-2.269-1.769a19.487 19.487 0 0 1 13.965-33.715l2.855.354c.79.027 1.567.091 2.329.192a107.41 107.41 0 0 0 .008-39.063c-.764.1-1.542.165-2.334.192l-2.855.354a19.488 19.488 0 0 1-13.965-33.715l2.269-1.769a24.262 24.262 0 0 1 1.786-1.514 107.407 107.407 0 0 0-27.623-27.614 24.02 24.02 0 0 1-1.514 1.785l-1.768 2.269a19.488 19.488 0 0 1-33.715-13.965l.354-2.855c.026-.792.091-1.571.192-2.336a107.416 107.416 0 0 0-39.075-.01c.1.764.165 1.542.192 2.334l.354 2.855a19.488 19.488 0 0 1-33.715 13.965l-1.769-2.269a24.025 24.025 0 0 1-1.514-1.787 107.43 107.43 0 0 0-27.624 27.638c.612.47 1.209.975 1.788 1.516l2.269 1.769a19.487 19.487 0 0 1-13.965 33.714l-2.855-.353a24.138 24.138 0 0 1-2.332-.192 107.405 107.405 0 0 0-.007 39.058c.764-.1 1.542-.165 2.334-.192l2.855-.354a19.488 19.488 0 0 1 13.965 33.715l-2.269 1.769a23.989 23.989 0 0 1-1.787 1.514Z" clip-rule="evenodd"/><path fill="#012F7A" d="m244.087 146.614.061-.06a14.433 14.433 0 0 1 0-20.66l-4.803-4.723c-3.453 3.395-5.496 7.65-6.13 12.065-6.767-1.404-11.846-7.308-11.846-14.379 0-8.115 6.693-14.695 14.945-14.695h8.152v-6.68h-8.152c-8.252 0-14.945-6.58-14.945-14.695 0-7.105 5.132-13.036 11.949-14.4.733 4.182 2.741 8.19 6.027 11.417l4.803-4.722a14.433 14.433 0 0 1 0-20.66l-.061-.06a15.022 15.022 0 0 1 10.569-4.305c8.253 0 14.945 6.58 14.945 14.695v72.808h-.061c-.687 7.488-7.09 13.359-14.884 13.359a15.024 15.024 0 0 1-10.569-4.305Z"/><path fill="#fff" d="m301.914 54.362-.061.06a14.435 14.435 0 0 1 0 20.66l4.806 4.722c3.282-3.227 5.291-7.235 6.023-11.418 6.817 1.365 11.952 7.293 11.952 14.4 0 8.115-6.692 14.696-14.945 14.696h-8.152v6.68h8.152c8.253 0 14.945 6.58 14.945 14.695 0 7.071-5.081 12.975-11.848 14.379-.632-4.415-2.675-8.67-6.127-12.065l-4.806 4.723a14.435 14.435 0 0 1 0 20.66l.061.06a15.03 15.03 0 0 1-10.567 4.305c-7.793 0-14.196-5.871-14.884-13.359h-.061V64.752c0-8.115 6.693-14.695 14.945-14.695 4.127 0 7.863 1.646 10.567 4.305ZM.746 153.788c0-25.523 20.69-46.214 46.214-46.214h20.582v92.427H46.96c-25.523 0-46.214-20.69-46.214-46.213Z"/><path fill="#65D9FF" d="M22.105 153.788c0-25.523 20.691-46.214 46.214-46.214h40.777v92.427H68.319c-25.523 0-46.214-20.69-46.214-46.213Z"/><path fill="#23191A" d="M43.855 153.788c0-25.523 20.759-46.214 46.365-46.214h20.432v92.427H90.22c-25.606 0-46.364-20.69-46.364-46.213Z"/><circle cx="111.425" cy="153.788" r="46.214" fill="#00A1FF"/><path fill="#012F7A" d="M95.973 134.312H115.3c10.674 0 19.328 8.654 19.328 19.329 0 10.674-8.654 19.328-19.328 19.328H95.973v-38.657Z"/><path fill="#00A1FF" d="M157.895 46.214C157.895 20.69 137.204 0 111.681 0h-20.97v92.427h20.97c25.523 0 46.214-20.69 46.214-46.213Z"/><path fill="#fff" d="M136.535 46.214C136.535 20.69 115.845 0 90.322 0H49.933v92.427h40.389c25.523 0 46.213-20.69 46.213-46.213Z"/><path fill="#F2CD16" d="M114.785 46.214C114.785 20.69 94.631 0 69.769 0H47.212v92.427H69.77c24.862 0 45.016-20.69 45.016-46.213Z"/><circle cx="47.214" cy="46.214" r="46.214" fill="#012F7A"/><path fill="#fff" d="m65.988 46.264-18.774-27.44-18.774 27.44 18.774 27.439 18.774-27.44Z"/></svg>
