<svg fill="none" height="241" viewBox="0 0 406 241" width="406" xmlns="http://www.w3.org/2000/svg" xmlns:xlink="http://www.w3.org/1999/xlink"><clipPath id="a"><path d="m.5.9375h405v240h-405z"/></clipPath><g clip-path="url(#a)"><path d="m365.5 55h40v30h-40z" fill="#ed60e9"/><path d="m0 0h40v30h-40z" fill="#ed60e9" transform="matrix(1 0 0 -1 91.5 241)"/><path d="m365.5 211h40v30h-40z" fill="#490072"/><path d="m0 0h40v30h-40z" fill="#490072" transform="matrix(1 0 0 -1 91.5 189)"/><path d="m365.5 159h40v30h-40z" fill="#fccaf2"/><path d="m0 0h40v30h-40z" fill="#fccaf2" transform="matrix(1 0 0 -1 91.5 137)"/><path d="m365.5 107h40v30h-40z" fill="#ec4612"/><path d="m0 0h40v30h-40z" fill="#ec4612" transform="matrix(1 0 0 -1 91.5 85)"/><path d="m321.5 85.0625c0-16.5685 13.431-30 30-30v185.9995c-16.569 0-30-13.431-30-30v-48l-15-15 15-15z" fill="#8702aa"/><path d="m175.5 85.0625c0-16.5685-13.431-30-30-30v185.9995c16.569 0 30-13.431 30-30v-48l15-15-15-15z" fill="#8702aa"/><circle cx="248.5" cy="113" fill="#ed60e9" r="58"/><circle cx="248.5" cy="183" fill="#ec4612" r="58"/><path d="m202.246 148c10.591-13.974 27.368-23 46.253-23 18.886 0 35.663 9.026 46.254 23-10.591 13.974-27.368 23-46.254 23-18.885 0-35.662-9.026-46.253-23z" fill="#fccaf2"/></g></svg>