<svg xmlns="http://www.w3.org/2000/svg" id="Layer_2" data-name="Layer 2" viewBox="0 0 470 627"><defs><style>.cls-10,.cls-12,.cls-13,.cls-14,.cls-15,.cls-16,.cls-2,.cls-3,.cls-4,.cls-5,.cls-6,.cls-7,.cls-8{stroke-width:0}.cls-6{fill:#a91808}.cls-2{fill:#fef9d0}.cls-3{fill:#fdf3a1}.cls-4{fill:#55a51a}.cls-5{fill:#fedad2}.cls-7{fill:#fb7675}.cls-8{fill:#007cdb}.cls-10{fill:#f2cd16}.cls-12{fill:#d0ac10}.cls-13{fill:#ec4612}.cls-14{fill:#fdada3}.cls-15{fill:#fff}.cls-16{fill:#f2ce14}</style><mask id="mask" width="470" height="470" x="0" y="157" maskUnits="userSpaceOnUse"><path id="mask0_2226_1867" d="M0 157h470v235c0 129.79-105.21 235-235 235S0 521.79 0 392V157Z" class="cls-15" data-name="mask0 2226 1867"/></mask></defs><g id="Layer_1-2" data-name="Layer 1"><g style="mask:url(#mask)"><path d="M235 627c129.79 0 235-105.21 235-235S364.79 157 235 157 0 262.21 0 392s105.21 235 235 235Z" style="fill:#00a1ff;stroke-width:0"/><path d="M136.23 445.77c0-54.55 44.22-98.77 98.77-98.77s98.77 44.22 98.77 98.77v63.82H136.23v-63.82Z" class="cls-14"/><path d="M321.42 397.9c-16.85-30.36-49.23-50.9-86.41-50.9s-69.57 20.55-86.42 50.9h43.21l21.6-15.95v15.95h108.02Z" style="fill:#ca2c0c;stroke-width:0"/><path d="M272 473c11.05 0 20-11.19 20-25s-8.95-25-20-25-20 11.19-20 25 8.95 25 20 25Z" class="cls-15"/><path d="M253.88 437.41C257.07 428.9 263.99 423 272 423s14.93 5.89 18.12 14.41c-3.19 7.18-10.11 12.15-18.12 12.15s-14.93-4.97-18.12-12.15Z" class="cls-8"/><path d="M198 473c11.05 0 20-11.19 20-25s-8.95-25-20-25-20 11.19-20 25 8.95 25 20 25Z" class="cls-15"/><path d="M179.88 437.41C183.07 428.9 189.98 423 198 423s14.93 5.89 18.12 14.41c-3.19 7.18-10.11 12.15-18.12 12.15s-14.93-4.97-18.12-12.15Z" class="cls-8"/><path d="M118 462.98c0-9.96 13.11-13.59 18.23-5.05v51.66H118v-46.61Zm234 0c0-9.96-13.11-13.59-18.23-5.05v51.66H352v-46.61Z" class="cls-14"/><path d="M173.18 480.71c0 34.12 27.99 61.82 62.58 61.82s62.58-27.7 62.58-61.82h4c0 36.37-29.83 65.82-66.58 65.82s-66.58-29.45-66.58-65.82h4Z" style="fill:#a91808;stroke-width:0;fill-rule:evenodd"/><path d="M0 509h470v118H0V509Z" class="cls-13"/><path d="M402.13 509c-36.9 52.61-98 87-167.13 87s-130.24-34.39-167.14-87h334.27Z" class="cls-6"/><path d="M218 439h34v82c0 9.39-7.61 17-17 17s-17-7.61-17-17v-82Z" class="cls-14"/><path d="M170 357h130v14H170v-14Zm12-23h6v23h-6v-23Zm101 0h6v23h-6v-23Zm119 0c-36.87-45.96-97.92-76-167-76s-130.13 30.04-167 76h334Z" class="cls-15"/><path d="M334 334c-21.86-45.96-58.05-76-99-76s-77.15 30.04-99 76h198Z" class="cls-13"/><path d="M225 260c0-5.52 4.48-10 10-10s10 4.48 10 10v1h-20v-1Z" class="cls-13"/><path d="m159.5 572.84 13.09-7.45 13.09 7.45-13.09 7.45-13.09-7.45Z" class="cls-15"/><path d="M328 539.23c0-8.41-9.85-15.23-22-15.23s-22 6.82-22 15.23 9.85 15.23 22 15.23 22-6.82 22-15.23Z" class="cls-16"/><path d="M328 548.77c0 8.41-9.85 15.23-22 15.23s-22-6.82-22-15.23v-9.53c0 8.41 9.85 15.23 22 15.23s22-6.82 22-15.23v9.53Z" class="cls-3"/><path d="m292.71 539.21 13.34-7.51 13.34 7.51-13.34 7.51-13.34-7.51Z" class="cls-15"/><path d="M159 542.23c0-8.41-9.85-15.23-22-15.23s-22 6.82-22 15.23 9.85 15.23 22 15.23 22-6.82 22-15.23Z" class="cls-16"/><path d="M159 567.77c0 8.41-9.85 15.23-22 15.23s-22-6.82-22-15.23v-25.53c0 8.41 9.85 15.23 22 15.23s22-6.82 22-15.23v25.53Z" class="cls-3"/><path d="m123.71 542.21 13.34-7.51 13.34 7.51-13.34 7.51-13.34-7.51Z" class="cls-15"/><path d="M195 573.23c0-8.41-9.85-15.23-22-15.23s-22 6.82-22 15.23 9.85 15.23 22 15.23 22-6.82 22-15.23Z" class="cls-16"/><path d="M195 588.77c0 8.41-9.85 15.23-22 15.23s-22-6.82-22-15.23v-15.53c0 8.41 9.85 15.23 22 15.23s22-6.82 22-15.23v15.53Z" class="cls-3"/><path d="m159.71 573.21 13.34-7.51 13.34 7.51-13.34 7.51-13.34-7.51Z" class="cls-15"/><path d="m12.77 207-5.82 10.08c-13.78 23.86-5.6 54.38 18.26 68.15 23.86 13.78 54.38 5.6 68.15-18.26l5.82-10.08L12.77 207Z" class="cls-6"/><path d="M12.77 207c-13.78 23.86-5.6 54.38 18.26 68.15 23.86 13.78 54.38 5.6 68.15-18.26L12.77 207Z" class="cls-13"/><path d="M22.85 212.82c-10.56 18.29-4.3 41.69 14 52.25 18.3 10.56 41.69 4.29 52.25-14l-66.25-38.25Z" class="cls-14"/><path d="M38.69 221.97c-5.51 9.54-2.24 21.75 7.31 27.26 9.55 5.51 21.75 2.24 27.26-7.3L38.7 221.97Z" class="cls-5"/><path d="m377 432.99 5.95 5.95c14.08 14.08 36.91 14.08 50.99 0 14.08-14.08 14.08-36.91 0-50.99l-5.95-5.95L377 432.99Z" class="cls-6"/><path d="M377 432.99c14.08 14.08 36.91 14.08 50.99 0 14.08-14.08 14.08-36.91 0-50.99L377 432.99Z" class="cls-13"/><path d="M382.95 427.04c10.8 10.8 28.3 10.8 39.09 0 10.8-10.8 10.8-28.3 0-39.09l-39.09 39.09Z" class="cls-14"/><path d="M392.3 417.69c5.63 5.63 14.77 5.63 20.4 0 5.63-5.63 5.63-14.76 0-20.4l-20.4 20.4Z" class="cls-5"/></g><path d="m372.1 216.86-1.14 12.58-19.53 23.43c-.06.07-.13.11-.22.12a.348.348 0 0 1-.38-.27c-.02-.08 0-.17.04-.24l21.22-35.62Z" class="cls-10"/><path d="m367.39 224.65 78.42-11.13-4.5 7.8-78.33 10.96 4.4-7.63Zm0-.01-5.46-76.22-4.51 7.82 5.57 76.03 4.4-7.63Z" class="cls-12"/><path d="m367.39 224.64 78.42-11.13-83.89-65.09 5.46 76.22Z" class="cls-2"/><path d="M389.05 180.98c-12.85-6.81-12.99-7.99-11.08-14.79.32-1.13-1.18-2.12-2.33-1.52-15.24 7.98-10.05 15.05-1.76 19.95 10.17 6.01 25.65 1.93 15.16-3.63Zm.85 24.31c6.14-3.55 13.78-3.86 18.31-3.24-3.87 8.72-8.26 13.43-12.43 15.67-7.82 4.21-13.55-8-5.88-12.43Z" class="cls-4"/><path d="M433.58 211.46c-6.09-8.95-34.66-12.68-34.66-12.68l4.29 8.44c7.59 14.93 39.26 18.43 30.37 4.24Z" class="cls-4"/><path d="m378.58 205.22 72.43-.73-2.5 4.34-72.33.55 2.4-4.16Zm.01-.01-9.46-69.29-2.51 4.36 9.57 69.09 2.4-4.16Z" class="cls-10"/><path d="m378.59 205.21-9.46-69.29 81.89 68.56-72.43.73Z" class="cls-10"/><path d="m384.78 194.47 74.43-4.2-83.89-65.09 9.46 69.29Z" class="cls-7"/><path d="m384.78 194.47 74.43-4.2-3.9 6.76-74.33 4.02 3.8-6.59Z" class="cls-7"/><path d="m384.78 194.47-9.46-69.29-3.91 6.78 9.57 69.09 3.8-6.59Z" class="cls-7"/><path d="m459.21 190.27-74.43 4.2-9.46-69.29 2.49-4.31 83.9 65.07-2.5 4.33Z" class="cls-10"/><path d="M385.47 138.34c-13.86 21.15.13 30.39 11.95 34.48 1.9.66 3.8-.85 3.71-2.86-.91-20.92-4.2-49.27-15.67-31.62Zm37.2 52.78c25.56-8.76 17.64-26.29 10.21-36.69-.11-.15-.25-.28-.42-.36-.17-.09-.35-.13-.54-.13s-.37.04-.54.13c-.17.09-.31.21-.42.36-12.28 17.15-29.01 43.87-8.29 36.68Z" class="cls-4"/><path d="m395.57 175.74 74.43-4.2-83.89-65.09 9.46 69.29Z" class="cls-2"/><path d="m395.57 175.75 74.43-4.2-4.5 7.8-74.33 4.02 4.4-7.63Zm0-.01-9.46-69.29-4.51 7.82 9.57 69.09 4.4-7.63Z" class="cls-12"/><path d="m431.99 119.62 6.74 4.39-23 32.71c-.78 1.11-1.96.87-3.1.13-1.14-.74-1.84-1.72-1.14-2.89l20.49-34.34Z" class="cls-10"/><path d="M438.68 123.98c-.89 1.38-3.12 1.51-4.99.29-1.86-1.21-2.65-3.31-1.76-4.69s3.12-1.51 4.99-.29c1.86 1.21 2.65 3.31 1.76 4.68Z" class="cls-12"/><path d="m153.54 173.17 1.78 19.73 30.63 36.75a.54.54 0 0 0 .94-.22.62.62 0 0 0-.06-.4l-33.29-55.86Z" class="cls-10"/><path d="m160.93 185.37-123-17.46 7.05 12.24 122.85 17.19-6.9-11.97Zm.01 0 8.56-119.55 7.07 12.27-8.74 119.25-6.9-11.97Z" class="cls-12"/><path d="m160.93 185.37-123-17.46L169.5 65.82l-8.57 119.55Z" class="cls-2"/><path d="M126.96 116.88c20.15-10.68 20.38-12.53 17.37-23.21-.5-1.77 1.86-3.32 3.65-2.38 23.9 12.51 15.76 23.61 2.76 31.29-15.96 9.42-40.24 3.02-23.78-5.7Zm-1.33 38.14c-9.63-5.57-21.61-6.06-28.72-5.09 6.07 13.68 12.95 21.06 19.5 24.59 12.27 6.59 21.25-12.54 9.21-19.5Z" class="cls-4"/><path d="M57.12 164.68c9.55-14.04 54.36-19.89 54.36-19.89l-6.72 13.23c-11.9 23.43-61.58 28.91-47.63 6.66Z" class="cls-4"/><path d="m143.38 154.91-113.6-1.14 3.92 6.8 113.44.87-3.76-6.53Zm0-.01 14.84-108.67 3.94 6.83-15.01 108.37-3.76-6.53Zm0 0 14.84-108.67L29.78 153.76l113.6 1.14Z" class="cls-10"/><path d="m133.66 138.04-116.73-6.58L148.5 29.37l-14.84 108.67Z" class="cls-7"/><path d="m133.66 138.04-116.73-6.58 6.11 10.61 116.58 6.31-5.96-10.34Zm.01 0 14.84-108.67 6.13 10.64-15.01 108.37-5.96-10.34Z" class="cls-7"/><path d="m16.93 131.47 116.73 6.58 14.83-108.67-3.9-6.77L13.02 124.67l3.92 6.8Z" class="cls-10"/><path d="M132.59 50.01c22.6 34.48-2.01 48.78-20.93 54.81-1.92.61-3.81-.88-3.74-2.89 1.29-32.98 6.25-80.26 24.67-51.92ZM74.22 132.8c-40.09-13.74-27.67-41.24-16.01-57.54.17-.24.4-.44.66-.57.26-.13.55-.2.85-.2.29 0 .58.07.85.21s.49.33.66.57c19.25 26.89 45.5 68.81 13 57.54Z" class="cls-4"/><path d="M116.73 108.67 0 102.09 131.57 0l-14.84 108.67Z" class="cls-2"/><path d="M116.74 108.68 0 102.09l7.05 12.24 116.58 6.31-6.89-11.97Zm0 0L131.57 0l7.07 12.27-15.01 108.37-6.9-11.97Z" class="cls-12"/><path d="m60.62 20.65-10.58 6.89 36.07 51.3c1.23 1.75 3.07 1.37 4.86.21 1.79-1.16 2.88-2.7 1.79-4.53L60.61 20.65Z" class="cls-10"/><path d="M57.56 27.54c-2.9 1.89-6.39 1.67-7.79-.48-1.4-2.16-.18-5.44 2.73-7.33 2.9-1.89 6.39-1.68 7.79.48s.18 5.44-2.73 7.33Z" class="cls-12"/></g></svg>
