<svg fill="none" height="594" viewBox="0 0 593 594" width="593" xmlns="http://www.w3.org/2000/svg" xmlns:xlink="http://www.w3.org/1999/xlink"><clipPath id="a"><path d="m0 .9375h593v593h-593z"/></clipPath><g clip-path="url(#a)"><path d="m0 0h593v593h-593z" fill="#ed60e9" transform="translate(0 .9375)"/><path d="m892 437.874c0 252.394-204.606 457-457 457-113.147 0-457 0-457 0s0-317.753 0-457c0-252.394 204.606-457.0002 457-457.0002l457 .0008z" fill="#f996ee"/><path clip-rule="evenodd" d="m365.632 113.938c-40.04 8.543-77.402 24.333-110.653 45.932 1.179 2.045 2.274 4.174 3.277 6.383l13.228 29.148c10.307 22.71 5.467 49.442-12.145 67.082-17.613 17.64-44.303 22.487-66.979 12.164l-29.102-13.249c-2.209-1.005-4.336-2.103-6.38-3.285-21.574 33.309-37.345 70.738-45.878 110.85 2.283.612 4.565 1.343 6.839 2.197l29.933 11.242c23.322 8.759 38.772 31.089 38.772 56.036 0 24.946-15.45 47.276-38.772 56.035l-29.933 11.242c-2.274.854-4.556 1.585-6.839 2.198 8.533 40.111 24.304 77.54 45.878 110.849 2.044-1.182 4.171-2.28 6.38-3.285l29.102-13.249c22.676-10.323 49.366-5.476 66.979 12.164 17.612 17.64 22.452 44.372 12.145 67.082l-13.228 29.148c-1.003 2.209-2.098 4.338-3.277 6.383 33.251 21.599 70.613 37.388 110.653 45.933.611-2.287 1.341-4.572 2.194-6.85l11.225-29.979c8.746-23.358 31.041-38.832 55.949-38.832s47.203 15.474 55.949 38.832l11.225 29.979c.853 2.278 1.583 4.563 2.194 6.85 40.035-8.543 77.393-24.33 110.641-45.925-1.18-2.048-2.276-4.179-3.28-6.391l-13.229-29.148c-10.307-22.71-5.467-49.442 12.146-67.081 17.612-17.64 44.303-22.487 66.978-12.165l29.103 13.249c2.212 1.008 4.343 2.107 6.391 3.292 21.576-33.311 37.348-70.742 45.882-110.856-2.283-.613-4.565-1.344-6.839-2.198l-29.933-11.242c-23.322-8.759-38.772-31.089-38.772-56.035 0-24.947 15.45-47.277 38.772-56.036l29.933-11.242c2.274-.854 4.556-1.585 6.839-2.197-8.534-40.115-24.306-77.546-45.882-110.857-2.048 1.185-4.179 2.284-6.391 3.292l-29.103 13.249c-22.675 10.323-49.366 5.475-66.978-12.165-17.613-17.639-22.453-44.371-12.146-67.081l13.229-29.148c1.004-2.212 2.1-4.343 3.28-6.391-33.248-21.595-70.606-37.382-110.641-45.924-.611 2.286-1.341 4.571-2.194 6.849l-11.225 29.979c-8.746 23.358-31.041 38.832-55.949 38.832s-47.203-15.474-55.949-38.832l-11.225-29.979c-.853-2.278-1.583-4.563-2.194-6.849z" fill="#490072" fill-rule="evenodd"/><path d="m497.372 337.285-.13.131c12.421 12.39 12.421 32.473 0 44.858l10.285 10.254c7.026-7.008 11.325-15.71 12.893-24.791 14.59 2.963 25.58 15.834 25.58 31.267 0 17.619-14.324 31.907-31.987 31.907h-17.447v14.503h17.447c17.663 0 31.987 14.288 31.987 31.908 0 15.353-10.876 28.173-25.359 31.221-1.352-9.585-5.725-18.826-13.114-26.196l-10.285 10.254c12.421 12.39 12.421 32.474 0 44.858l.13.131c-5.787 5.773-13.784 9.348-22.615 9.348-16.681 0-30.386-12.748-31.857-29.007h-.13v-158.086c0-17.619 14.323-31.907 31.987-31.907 8.831 0 16.828 3.574 22.615 9.347z" fill="#ec4612"/><path d="m373.622 537.59.131-.131c-12.421-12.384-12.421-32.468 0-44.858l-10.28-10.254c-7.389 7.37-11.762 16.611-13.12 26.196-14.482-3.048-25.353-15.868-25.353-31.221 0-17.62 14.324-31.908 31.987-31.908h17.447v-7.251-7.252h-17.447c-17.663 0-31.987-14.288-31.987-31.907 0-15.427 10.984-28.304 25.575-31.267 1.567 9.081 5.867 17.783 12.898 24.791l10.28-10.254c-12.421-12.385-12.421-32.468 0-44.858l-.131-.131c5.787-5.778 13.79-9.347 22.621-9.347 17.664 0 31.987 14.288 31.987 31.907v158.086h-.13c-1.471 16.259-15.176 29.007-31.857 29.007-8.831 0-16.834-3.57-22.621-9.348z" fill="#ec4612"/><path d="m497.372 337.285-.131.131c12.421 12.39 12.421 32.473 0 44.858l10.286 10.254c7.025-7.008 11.325-15.71 12.892-24.791 14.591 2.963 25.581 15.834 25.581 31.267 0 17.619-14.324 31.907-31.987 31.907h-17.447v14.503h17.447c17.663 0 31.987 14.288 31.987 31.908 0 15.353-10.876 28.173-25.359 31.221-1.352-9.585-5.725-18.826-13.114-26.196l-10.286 10.254c12.421 12.39 12.421 32.474 0 44.858l.131.131c-5.787 5.773-13.784 9.348-22.616 9.348-16.68 0-30.385-12.748-31.856-29.007h-.13v-158.086c0-17.619 14.323-31.907 31.986-31.907 8.832 0 16.829 3.574 22.616 9.347z" fill="#fccaf2"/></g></svg>