<svg width="224" height="170" viewBox="0 0 224 170" fill="none" xmlns="http://www.w3.org/2000/svg">
<path d="M99 61L111.5 48H86.5L99 61Z" fill="#F2CD16"/>
<path d="M124 61L136.5 48H111.5L124 61Z" fill="#F2CD16"/>
<path d="M149 61L161.5 48H136.5L149 61Z" fill="#F2CD16"/>
<path d="M174 61L186.5 48H161.5L174 61Z" fill="#F2CD16"/>
<path d="M199 61L211.5 48H186.5L199 61Z" fill="#F2CD16"/>
<path d="M224 61V48H211.5L224 61Z" fill="#F2CD16"/>
<path d="M74 61V48H86.5L74 61Z" fill="#F2CD16"/>
<path d="M150 152C150 161.941 158.059 170 168 170H169C178.941 170 187 161.941 187 152H150Z" fill="#CCF8FF"/>
<path d="M187 18C187 8.05888 195.059 0 205 0H206C215.941 0 224 8.05888 224 18H187Z" fill="#F2CD16"/>
<path d="M150 152C150 161.941 158.059 170 168 170H150V152Z" fill="#00A1FF"/>
<path d="M187 18C187 8.05888 195.059 0 205 0H187V18Z" fill="white"/>
<path d="M37 152H187V30H37V152Z" fill="#CCF8FF"/>
<path d="M37 20C37 8.9543 45.9543 0 57 0H187V30H37V20Z" fill="white"/>
<path d="M0 150C0 161.046 8.95431 170 20 170H150V150H0Z" fill="#00A1FF"/>
<path d="M25 137L37.5 150H12.5L25 137Z" fill="#00A1FF"/>
<path d="M50 137L62.5 150H37.5L50 137Z" fill="#00A1FF"/>
<path d="M75 137L87.5 150H62.5L75 137Z" fill="#00A1FF"/>
<path d="M100 137L112.5 150H87.5L100 137Z" fill="#00A1FF"/>
<path d="M125 137L137.5 150H112.5L125 137Z" fill="#00A1FF"/>
<path d="M150 137V150H137.5L150 137Z" fill="#00A1FF"/>
<path d="M0 137V150H12.5L0 137Z" fill="#00A1FF"/>
<rect x="187" y="18" width="37" height="30" fill="#F2CD16"/>
<path d="M116.132 85.8184C116.132 90.0707 116.597 93.858 117.527 97.1801C118.457 100.436 119.952 103.027 122.012 104.954C124.072 106.881 126.729 107.844 129.985 107.844C133.241 107.844 135.899 106.881 137.958 104.954C140.018 103.027 141.513 100.436 142.443 97.1801C143.374 93.858 143.839 90.0707 143.839 85.8184C143.839 81.566 143.374 77.812 142.443 74.5562C141.513 71.3005 140.018 68.7092 137.958 66.7824C135.899 64.8555 133.241 63.8921 129.985 63.8921C126.729 63.8921 124.072 64.8555 122.012 66.7824C119.952 68.7092 118.457 71.3005 117.527 74.5562C116.597 77.812 116.132 81.566 116.132 85.8184ZM101.78 85.8184C101.78 79.0412 102.843 72.9616 104.969 67.5797C107.096 62.1978 110.252 57.9455 114.438 54.8226C118.69 51.6998 123.872 50.1384 129.985 50.1384C136.098 50.1384 141.247 51.6998 145.433 54.8226C149.686 57.9455 152.875 62.1978 155.001 67.5797C157.127 72.9616 158.19 79.0412 158.19 85.8184C158.19 92.5956 157.127 98.7083 155.001 104.157C152.875 109.539 149.686 113.791 145.433 116.914C141.247 120.037 136.098 121.598 129.985 121.598C123.872 121.598 118.69 120.037 114.438 116.914C110.252 113.791 107.096 109.539 104.969 104.157C102.843 98.7083 101.78 92.5956 101.78 85.8184Z" fill="#012F7A"/>
<path d="M83.4988 49.3868V58.3829H76.5544V49.3868H83.4988ZM83.4988 87.9491V96.9452H76.5544V87.9491H83.4988ZM73.7662 78.5321C73.7662 79.8999 74.0467 81.0749 74.6079 82.0569C75.1691 83.0389 75.9407 83.793 76.9227 84.3191C77.9398 84.8101 79.1147 85.0556 80.4475 85.0556C81.5698 85.0556 82.5168 84.8627 83.2884 84.4769C84.095 84.056 84.6913 83.53 85.0771 82.8987C85.4979 82.2673 85.7084 81.601 85.7084 80.8995C85.7084 79.8824 85.3401 79.0056 84.6036 78.2691C83.9021 77.4975 82.885 76.9538 81.5523 76.6382L77.1857 75.586C74.0993 74.8495 71.6618 73.5343 69.8731 71.6403C68.0844 69.7464 67.19 67.4842 67.19 64.8538C67.19 62.7144 67.7863 60.8029 68.9787 59.1194C70.2063 57.4359 71.8021 56.1382 73.7662 55.2263C75.7302 54.2794 77.817 53.8059 80.0266 53.8059C82.4116 53.8059 84.5335 54.3671 86.3923 55.4894C88.2512 56.5766 89.6891 58.0672 90.7062 59.9612C91.7233 61.82 92.2319 63.8893 92.2319 66.169H84.7614C84.7614 64.6609 84.2879 63.4333 83.341 62.4864C82.4291 61.5043 81.2191 61.0133 79.711 61.0133C78.7289 61.0133 77.8697 61.2062 77.1331 61.592C76.4317 61.9778 75.888 62.4688 75.5023 63.0651C75.1515 63.6613 74.9762 64.2751 74.9762 64.9064C74.9762 65.678 75.2392 66.3794 75.7653 67.0108C76.2914 67.607 77.1507 68.0454 78.3431 68.326L82.6045 69.3782C86.2871 70.29 89.0227 71.6754 90.8115 73.5343C92.6352 75.3931 93.5471 77.7956 93.5471 80.7417C93.5471 83.0214 92.986 85.0381 91.8636 86.7917C90.7413 88.5453 89.1806 89.9132 87.1814 90.8952C85.2174 91.8422 82.9903 92.3157 80.5001 92.3157C77.8697 92.3157 75.4672 91.7545 73.2927 90.6322C71.1182 89.5098 69.3821 87.914 68.0844 85.8448C66.7867 83.7404 66.1379 81.3028 66.1379 78.5321H73.7662Z" fill="#012F7A"/>
</svg>
