<svg xmlns="http://www.w3.org/2000/svg" fill="none" viewBox="0 0 350 351"><path fill="#6FC025" d="M187.41 21.544h-24.822v50.508h24.822V21.544ZM42.48 81.574l17.552-17.55 36.18 36.176-17.551 17.551L42.48 81.574ZM0 184.132v24.823h50.507v-24.823H0Zm299.491 24.823v-24.823h50.507v24.823h-50.507ZM253.785 100.21l17.553 17.55 36.181-36.176-17.553-17.56-36.181 36.186Z"/><path fill="#F2CD16" d="m233.672 282.542 20.931-65.78c17.148-53.902-23.074-108.909-79.633-108.909S78.187 162.86 95.337 216.762l20.93 65.78h46.191v-60.505h24.823v60.505h46.391Z"/><path fill="#FDF3A1" fill-rule="evenodd" d="M116 282.204h46.425v-60.457h24.949v60.457H234l-15.216 47.543h-87.568L116 282.204Z" clip-rule="evenodd"/></svg>