<svg xmlns="http://www.w3.org/2000/svg" fill="none" viewBox="0 0 348 168"><path fill="#f2cd16" d="M264 0v46H149V0z"/><path fill="#fff" fill-rule="evenodd" d="M174 0c46.392 0 84 37.608 84 84 0 46.029-37.023 83.412-82.914 83.993L174 168H84l-1.086-.007C37.023 167.412 0 130.029 0 84 0 37.608 37.608 0 84 0zM84 46c-20.987 0-38 17.013-38 38s17.013 38 38 38h90c20.987 0 38-17.013 38-38s-17.013-38-38-38z" clip-rule="evenodd"/><path fill="#544003" d="M212 84c0 20.987-17.013 38-38 38s-38-17.013-38-38 17.013-38 38-38 38 17.013 38 38"/><path fill="#f2cd16" d="M264 0c46.392 0 84 37.608 84 84 0 46.029-37.023 83.412-82.914 83.993L264 168h-90l-1.086-.007C127.023 167.412 90 130.029 90 84c0-13.677 3.27-26.589 9.068-38H174c-20.987 0-38 17.013-38 38s17.013 38 38 38h90c20.987 0 38-17.013 38-38s-17.013-38-38-38h-10V0z"/><path fill="#65d9ff" d="M151 80h45v8h-45z"/><path fill="#65d9ff" d="M169.5 106.5v-45h8v45z"/></svg>