<svg xmlns="http://www.w3.org/2000/svg" fill="none" viewBox="0 0 317 168"><path fill="#544003" d="M0 84C0 37.608 37.608 0 84 0h37.017v168H84c-46.392 0-84-37.608-84-84"/><path fill="#00a1ff" d="M37.017 84c0-46.392 37.608-84 84-84h37.017v168h-37.017c-46.392 0-84-37.608-84-84"/><path fill="#f2cd16" d="M74.034 84c0-46.392 37.608-84 84-84h73.805v168h-73.805c-46.392 0-84-37.608-84-84"/><path fill="#fef9d0" d="M111.051 84c0-46.392 37.608-84 84-84h37.017v168h-37.017c-46.392 0-84-37.608-84-84"/><circle cx="232.068" cy="84" r="84" fill="#65d9ff"/><path fill="#012f7a" fill-rule="evenodd" d="M219.617 125.158c-5.152 0-9.71-3.32-11.268-8.207l-8.008-25.125h-4.924c-5.152 0-9.711-3.32-11.269-8.208L179.39 68.69h17.848l-9.414-14.117h89.199l-9.414 14.117h17.849l-4.759 14.93c-1.558 4.886-6.116 8.207-11.268 8.207h-4.924l-8.008 25.125c-1.558 4.887-6.117 8.207-11.269 8.207zm-6.05-40.195c0 3.79 2.844 6.863 6.351 6.863s6.352-3.073 6.352-6.863-2.844-6.862-6.352-6.862c-3.507 0-6.351 3.072-6.351 6.862m37.713 0c0 3.79-2.843 6.863-6.351 6.863s-6.351-3.073-6.351-6.863 2.844-6.862 6.351-6.862 6.351 3.072 6.351 6.862" clip-rule="evenodd"/><path fill="#fff" d="m272.16 21.84 16.016-5.824L294 0l5.824 16.016 16.016 5.824-16.016 5.824L294 43.68l-5.824-16.016z"/></svg>