<svg width="258" height="107" viewBox="0 0 258 107" fill="none" xmlns="http://www.w3.org/2000/svg">
<g clip-path="url(#clip0_2054_11774)">
<path d="M32 73.4727C32 33.1559 64.6566 0.472656 104.941 0.472656H172V146.473H104.941C64.6566 146.473 32 113.789 32 73.4727Z" fill="white"/>
<path d="M65 73.4727C65 33.1559 97.8916 0.472656 138.465 0.472656H205V146.473H138.465C97.8916 146.473 65 113.789 65 73.4727Z" fill="#710408"/>
<path d="M99 73.4727C99 33.1559 131.941 0.472656 172.576 0.472656H205V146.473H172.576C131.941 146.473 99 113.789 99 73.4727Z" fill="#3FC4FF"/>
<circle cx="204.751" cy="73.4727" r="73" fill="#EC4612"/>
<path d="M210.86 29.3981V46.0726H197.949V29.3981H210.86ZM210.86 100.874V117.549H197.949V100.874H210.86ZM192.764 83.4198C192.764 85.9551 193.286 88.1329 194.329 89.9531C195.373 91.7733 196.807 93.171 198.633 94.1461C200.524 95.0562 202.709 95.5113 205.187 95.5113C207.274 95.5113 209.035 95.1537 210.469 94.4387C211.969 93.6586 213.078 92.6834 213.795 91.5133C214.577 90.3431 214.969 89.108 214.969 87.8078C214.969 85.9226 214.284 84.2974 212.915 82.9322C211.61 81.5021 209.719 80.4944 207.241 79.9094L199.122 77.9591C193.384 76.5939 188.852 74.1561 185.526 70.6457C182.2 67.1353 180.537 62.9422 180.537 58.0666C180.537 54.1011 181.646 50.5582 183.863 47.4378C186.146 44.3174 189.113 41.9121 192.764 40.2219C196.416 38.4667 200.296 37.5891 204.405 37.5891C208.839 37.5891 212.784 38.6292 216.24 40.7095C219.696 42.7247 222.37 45.4876 224.261 48.998C226.152 52.4434 227.098 56.2789 227.098 60.5044H213.208C213.208 57.7091 212.328 55.4338 210.567 53.6786C208.871 51.8584 206.622 50.9482 203.818 50.9482C201.992 50.9482 200.394 51.3058 199.025 52.0209C197.72 52.736 196.71 53.6461 195.992 54.7512C195.34 55.8564 195.014 56.994 195.014 58.1641C195.014 59.5943 195.503 60.8945 196.481 62.0646C197.46 63.1698 199.057 63.9824 201.274 64.5024L209.198 66.4527C216.045 68.1429 221.131 70.7107 224.457 74.1561C227.848 77.6016 229.543 82.0546 229.543 87.5153C229.543 91.7408 228.5 95.4788 226.413 98.7292C224.326 101.98 221.425 104.515 217.708 106.335C214.056 108.09 209.915 108.968 205.285 108.968C200.394 108.968 195.927 107.928 191.884 105.848C187.841 103.767 184.613 100.809 182.2 96.974C179.787 93.0735 178.581 88.5554 178.581 83.4198H192.764Z" fill="#F2CD16"/>
</g>
<defs>
<clipPath id="clip0_2054_11774">
<rect width="258" height="106" fill="white" transform="translate(0 0.472656)"/>
</clipPath>
</defs>
</svg>
