<svg xmlns="http://www.w3.org/2000/svg" fill="none" viewBox="0 0 470 627"><g clip-path="url(#a)"><circle cx="235" cy="392" r="235" fill="#00A1FF"/><path fill="#FDADA3" d="M136.234 445.768c0-54.548 44.22-98.768 98.768-98.768s98.768 44.22 98.768 98.768v63.819H136.234v-63.819Z"/><path fill="#CA2C0C" d="M321.417 397.903C304.566 367.546 272.183 347 235.001 347c-37.181 0-69.564 20.546-86.415 50.903h43.208l21.603-15.954v15.954h108.02Z"/><ellipse cx="272" cy="448" fill="#fff" rx="20" ry="25"/><path fill="#007CDB" d="M253.875 437.407c3.19-8.512 10.105-14.407 18.121-14.407 8.016 0 14.931 5.895 18.121 14.407-3.19 7.181-10.105 12.155-18.121 12.155-8.016 0-14.931-4.974-18.121-12.155Z"/><ellipse cx="198" cy="448" fill="#fff" rx="20" ry="25"/><path fill="#007CDB" d="M179.875 437.407c3.19-8.512 10.105-14.407 18.121-14.407 8.016 0 14.931 5.895 18.121 14.407-3.19 7.181-10.105 12.155-18.121 12.155-8.016 0-14.931-4.974-18.121-12.155Z"/><path fill="#FDADA3" d="M118 462.976c0-9.956 13.112-13.588 18.234-5.051v51.663H118v-46.612Zm234 0c0-9.956-13.112-13.588-18.234-5.051v51.663H352v-46.612Z"/><path stroke="#A91808" stroke-width="4" d="M300.341 480.715c0 35.246-28.913 63.819-64.579 63.819-35.665 0-64.578-28.573-64.578-63.819"/><path fill="#EC4612" d="M0 509h470v118H0z"/><path fill="#A91808" d="M402.133 509c-36.896 52.608-97.999 87-167.135 87s-130.239-34.392-167.135-87h334.27Z"/><path fill="#FDADA3" d="M218 439h34v82c0 9.389-7.611 17-17 17s-17-7.611-17-17v-82Z"/><path fill="#fff" d="M170 357h130v14H170zm12-23h6v23h-6zm101 0h6v23h-6zm119 0c-36.866-45.957-97.92-76-167-76s-130.134 30.043-167 76h334Z"/><path fill="#EC4612" d="M334 334c-21.855-45.957-58.048-76-99-76s-77.145 30.043-99 76h198Z"/><path fill="#EC4612" d="M225 260c0-5.523 4.477-10 10-10s10 4.477 10 10v1h-20v-1Z"/><path fill="#fff" d="m159.502 572.836 13.089-7.45 13.088 7.45-13.088 7.45-13.089-7.45Z"/><path fill="#F2CE14" d="M328 539.232c0-8.413-9.85-15.233-22-15.233s-22 6.82-22 15.233 9.85 15.233 22 15.233 22-6.82 22-15.233Z"/><path fill="#FDF3A1" d="M328 548.767c0 8.413-9.85 15.233-22 15.233s-22-6.82-22-15.233v-9.531c0 8.413 9.85 15.233 22 15.233s22-6.82 22-15.233v9.531Z"/><path fill="#fff" d="m292.711 539.211 13.337-7.507 13.337 7.507-13.337 7.506-13.337-7.506Z"/><path fill="#F2CE14" d="M159 542.232c0-8.413-9.85-15.233-22-15.233s-22 6.82-22 15.233 9.85 15.233 22 15.233 22-6.82 22-15.233Z"/><path fill="#FDF3A1" d="M159 567.767c0 8.413-9.85 15.233-22 15.233s-22-6.82-22-15.233v-25.531c0 8.413 9.85 15.233 22 15.233s22-6.82 22-15.233v25.531Z"/><path fill="#fff" d="m123.711 542.211 13.337-7.507 13.337 7.507-13.337 7.506-13.337-7.506Z"/><path fill="#F2CE14" d="M195 573.232c0-8.413-9.85-15.233-22-15.233s-22 6.82-22 15.233 9.85 15.233 22 15.233 22-6.82 22-15.233Z"/><path fill="#FDF3A1" d="M195 588.767c0 8.413-9.85 15.233-22 15.233s-22-6.82-22-15.233v-15.531c0 8.413 9.85 15.233 22 15.233s22-6.82 22-15.233v15.531Z"/><path fill="#fff" d="m159.711 573.211 13.337-7.507 13.337 7.507-13.337 7.506-13.337-7.506Z"/><path fill="#A91808" d="m12.767 207.001-5.82 10.082c-13.778 23.863-5.602 54.376 18.261 68.153 23.863 13.777 54.376 5.601 68.153-18.262l5.821-10.081-86.415-49.892Z"/><path fill="#EC4612" d="M12.766 207c-13.778 23.863-5.602 54.377 18.261 68.154 23.863 13.777 54.376 5.601 68.154-18.262L12.766 207Z"/><path fill="#FDADA3" d="M22.848 212.822c-10.563 18.295-4.295 41.689 14 52.251 18.295 10.563 41.689 4.294 52.251-14l-66.251-38.251Z"/><path fill="#FEDAD2" d="M38.69 221.968c-5.51 9.545-2.24 21.751 7.306 27.262 9.545 5.51 21.75 2.24 27.26-7.305l-34.565-19.957Z"/><path fill="#A91808" d="m377 432.994 5.949 5.949c14.081 14.081 36.911 14.081 50.993 0 14.081-14.081 14.081-36.912 0-50.993l-5.949-5.949L377 432.994Z"/><path fill="#EC4612" d="M377.001 432.993c14.081 14.081 36.911 14.081 50.993 0 14.081-14.082 14.081-36.912 0-50.993l-50.993 50.993Z"/><path fill="#FDADA3" d="M382.95 427.043c10.796 10.796 28.299 10.796 39.094 0 10.796-10.795 10.796-28.298 0-39.094l-39.094 39.094Z"/><path fill="#FEDAD2" d="M392.3 417.694c5.633 5.633 14.765 5.633 20.397 0 5.633-5.632 5.633-14.764 0-20.397L392.3 417.694Z"/></g><path fill="#F2CD16" d="m372.104 216.861-1.137 12.581-19.528 23.431a.344.344 0 0 1-.558-.397l21.223-35.615Z"/><path fill="#D0AC10" d="m367.393 224.645 78.425-11.133-4.497 7.803-78.325 10.961 4.397-7.631Zm-.001-.005-5.461-76.223-4.509 7.823 5.573 76.029 4.397-7.629Z"/><path fill="#FEF9D0" d="m367.392 224.64 78.425-11.133-83.887-65.09 5.462 76.223Z"/><path fill="#55A51A" d="M389.054 180.978c-12.846-6.81-12.992-7.987-11.076-14.795.318-1.128-1.184-2.117-2.329-1.517-15.236 7.977-10.046 15.054-1.757 19.946 10.174 6.006 25.655 1.928 15.162-3.634Zm.846 24.31c6.138-3.548 13.779-3.864 18.309-3.242-3.873 8.721-8.257 13.429-12.434 15.674-7.821 4.205-13.551-7.996-5.875-12.432Z"/><path fill="#55A51A" d="M433.579 211.455c-6.087-8.948-34.657-12.681-34.657-12.681l4.286 8.438c7.586 14.935 39.262 18.433 30.37 4.244l.001-.001Z"/><path fill="#F2CD16" d="m378.582 205.22 72.429-.729-2.499 4.335-72.328.555 2.398-4.161Zm.004-.008-9.458-69.287-2.511 4.356 9.57 69.093 2.399-4.162Z"/><path fill="#F2CD16" d="m378.586 205.213-9.458-69.286-.003-.002 81.89 68.56-72.429.728Z"/><path fill="#FB7675" d="m384.78 194.471 74.428-4.198-83.888-65.09 9.46 69.288Z"/><path fill="#FB7675" d="m384.782 194.467 74.428-4.197-3.898 6.763-74.328 4.024 3.798-6.59Z"/><path fill="#FB7675" d="m384.782 194.47-9.458-69.287-3.91 6.784 9.57 69.092 3.798-6.589Z"/><path fill="#F2CD16" d="m459.206 190.275-74.427 4.197-9.459-69.287 2.487-4.314 83.897 65.069-2.498 4.335Z"/><path fill="#55A51A" d="M385.468 138.341c-13.858 21.148.131 30.387 11.951 34.481 1.9.658 3.802-.845 3.714-2.858-.912-20.922-4.198-49.274-15.665-31.623Zm37.207 52.782c25.564-8.758 17.64-26.292 10.207-36.687a1.174 1.174 0 0 0-1.916.003c-12.277 17.146-29.009 43.874-8.291 36.684Z"/><path fill="#FEF9D0" d="M395.573 175.741 470 171.544l-83.887-65.09 9.46 69.287Z"/><path fill="#D0AC10" d="M395.572 175.746 470 171.549l-4.497 7.804-74.327 4.023 4.396-7.63Zm-.003-.006-9.458-69.286-4.509 7.824 9.57 69.092 4.397-7.63Z"/><path fill="#F2CD16" d="m431.989 119.618 6.745 4.392-22.999 32.706c-.783 1.112-1.959.872-3.098.13-1.14-.742-1.837-1.72-1.14-2.889l20.492-34.339Z"/><path fill="#D0AC10" d="M438.683 123.979c-.892 1.375-3.125 1.507-4.987.294-1.863-1.213-2.65-3.31-1.758-4.685.892-1.375 3.125-1.507 4.987-.294 1.863 1.212 2.65 3.31 1.758 4.685Z"/><path fill="#F2CD16" d="m153.543 173.167 1.784 19.732 30.629 36.749c.174.21.478.256.706.107a.54.54 0 0 0 .169-.729l-33.288-55.859Z"/><path fill="#D0AC10" d="M160.934 185.373 37.93 167.911l7.052 12.24 122.848 17.19-6.896-11.968Zm.004 0 8.564-119.55 7.073 12.271-8.74 119.246-6.897-11.967Z"/><path fill="#FEF9D0" d="M160.934 185.371 37.93 167.909 169.5 65.819l-8.567 119.552Z"/><path fill="#55A51A" d="M126.955 116.881c20.148-10.68 20.377-12.526 17.371-23.205-.497-1.768 1.859-3.319 3.653-2.38 23.898 12.513 15.757 23.613 2.757 31.286-15.958 9.419-40.239 3.024-23.781-5.701Zm-1.328 38.137c-9.628-5.565-21.612-6.06-28.717-5.085 6.074 13.679 12.951 21.063 19.502 24.585 12.266 6.594 21.254-12.542 9.215-19.5Z"/><path fill="#55A51A" d="M57.123 164.684c9.547-14.035 54.357-19.889 54.357-19.889l-6.723 13.234c-11.899 23.426-61.58 28.911-47.634 6.657v-.002Z"/><path fill="#F2CD16" d="m143.385 154.907-113.6-1.143 3.918 6.799 113.443.871-3.761-6.527Zm-.002-.007 14.835-108.672 3.937 6.832-15.01 108.367-3.762-6.527Zm-.006-.002 14.835-108.671.004-.002-128.439 107.53 113.6 1.143Z"/><path fill="#FB7675" d="m133.663 138.042-116.734-6.583L148.5 29.369l-14.837 108.673Z"/><path fill="#FB7675" d="M133.664 138.041 16.93 131.458l6.113 10.607 116.578 6.311-5.957-10.335Zm.004.004 14.835-108.671 6.131 10.64-15.01 108.366-5.956-10.335Z"/><path fill="#F2CD16" d="m16.934 131.467 116.735 6.583 14.834-108.672-3.9-6.767L13.016 124.668l3.918 6.799Z"/><path fill="#55A51A" d="M132.587 50.013c22.597 34.483-2.013 48.778-20.929 54.806-1.915.611-3.815-.878-3.737-2.887 1.29-32.979 6.254-80.262 24.666-51.92Zm-58.362 82.786C34.13 119.062 46.558 91.562 58.216 75.257a1.842 1.842 0 0 1 3.005.005c19.255 26.892 45.499 68.814 13.004 57.537Z"/><path fill="#FEF9D0" d="M116.734 108.673 0 102.09 131.571 0l-14.837 108.673Z"/><path fill="#D0AC10" d="M116.735 108.675 0 102.092l7.053 12.239 116.577 6.311-6.895-11.967Zm.003 0L131.573.004l7.073 12.271-15.01 108.367-6.898-11.967Z"/><path fill="#F2CD16" d="m60.615 20.647-10.58 6.888 36.072 51.297c1.229 1.745 3.072 1.368 4.86.205 1.787-1.164 2.88-2.699 1.787-4.533l-32.14-53.857Z"/><ellipse cx="6.274" cy="4.654" fill="#D0AC10" rx="6.274" ry="4.654" transform="matrix(-0.838046 0.5456 0.544205 0.838952 57.75 16.311)"/><defs><clipPath id="a"><path fill="#fff" d="M0 157h470v235c0 129.787-105.213 235-235 235S0 521.787 0 392V157Z"/></clipPath></defs></svg>