<svg fill="none" height="601" viewBox="0 0 1472 601" width="1472" xmlns="http://www.w3.org/2000/svg" xmlns:xlink="http://www.w3.org/1999/xlink"><clipPath id="a"><path d="m0 .0625h1472v600h-1472z"/></clipPath><clipPath id="b"><path d="m0 0h84v84h-84z" transform="matrix(-1 0 0 1 399 134.062)"/></clipPath><clipPath id="c"><rect height="84" rx="42" width="84" x="45" y="258.062"/></clipPath><clipPath id="d"><rect height="84" rx="42" width="84" x="45" y="382.062"/></clipPath><clipPath id="e"><path d="m315 382.062h84v84h-84z"/></clipPath><clipPath id="f"><path d="m315 258.062h84v84h-84z"/></clipPath><clipPath id="g"><path d="m243 258.062h84v84h-84z"/></clipPath><clipPath id="h"><path d="m0 0h84v84h-84z" transform="matrix(-1 0 0 1 327 134.062)"/></clipPath><clipPath id="i"><path d="m0 0h84v84h-84z" transform="matrix(-1 0 0 1 327 382.062)"/></clipPath><clipPath id="j"><path d="m0 0h84v84h-84z" transform="matrix(-1 0 0 1 1272 163.062)"/></clipPath><clipPath id="k"><path d="m1188 257.062h84v84h-84z"/></clipPath><clipPath id="l"><path d="m1188 351.062h84v84h-84z"/></clipPath><clipPath id="m"><path d="m1116 351.062h84v84h-84z"/></clipPath><clipPath id="n"><path d="m0 0h84v84h-84z" transform="matrix(-1 0 0 1 1200 163.062)"/></clipPath><clipPath id="o"><path d="m0 0h84v84h-84z" transform="matrix(-1 0 0 1 1200 257.062)"/></clipPath><g clip-path="url(#a)"><path d="m0 0h1472v600h-1472z" fill="#510079" transform="translate(0 .0625)"/><g clip-path="url(#b)"><circle cx="42" cy="42" fill="#fdd7f5" r="42" transform="matrix(-1 0 0 1 399 134.062)"/><path d="m374.062 176.062-17.062-24.937-17.062 24.937 17.062 24.938z" fill="#490072"/></g><path d="m159 424.062c0-23.195 18.804-42 42-41.999h84c23.196 0 42 18.804 42 42 0 23.195-18.804 41.999-42 41.999h-84c-23.196 0-42-18.804-42-42z" fill="#fdd7f5"/><rect fill="#fff" height="40" rx="20" width="40" x="181" y="404.062"/><path clip-rule="evenodd" d="m199.688 425.835 9.245-9.245 3.971 3.97-13.216 13.216-9.004-9.004 3.97-3.971z" fill="#66018e" fill-rule="evenodd"/><path d="m159 176.062c0-23.195 18.804-42 42-42l84 .001c23.196 0 42 18.804 42 42 0 23.195-18.804 41.999-42 41.999h-84c-23.196 0-42-18.804-42-42z" fill="#fdd7f5"/><path d="m181 176.062c0-11.045 8.954-20 20-20 11.046.001 20 8.955 20 20 0 11.046-8.954 20-20 20s-20-8.954-20-20z" fill="#fff"/><path clip-rule="evenodd" d="m199.688 177.835 9.245-9.245 3.971 3.97-13.216 13.216-9.004-9.004 3.97-3.971z" fill="#66018e" fill-rule="evenodd"/><path d="m159 300.062c0-23.195 18.804-42 42-42l84 .001c23.196 0 42 18.804 42 42 0 23.195-18.804 41.999-42 41.999h-84c-23.196 0-42-18.804-42-42z" fill="#fdd7f5"/><path d="m181 300.062c0-11.045 8.954-20 20-20 11.046.001 20 8.955 20 20 0 11.046-8.954 20-20 20s-20-8.954-20-20z" fill="#fff"/><path clip-rule="evenodd" d="m199.688 301.835 9.245-9.245 3.971 3.97-13.216 13.216-9.004-9.004 3.97-3.971z" fill="#66018e" fill-rule="evenodd"/><rect fill="#fdd7f5" height="84" rx="42" width="84" x="45" y="134.062"/><path d="m55 218c0-17.673 14.3269-32 32-32 17.673 0 32 14.327 32 32z" fill="#ed60e9"/><path d="m73 158c0-7.732 6.268-14 14-14s14 6.268 14 14v7c0 7.732-6.268 14-14 14s-14-6.268-14-14z" fill="#ed60e9"/><g clip-path="url(#c)"><rect fill="#fdd7f5" height="84" rx="42" width="84" x="45" y="258.062"/><g fill="#ed60e9"><path d="m55 342.062c0-17.673 14.3269-32 32-32 17.673 0 32 14.327 32 32z"/><path d="m73 282.062c0-7.731 6.268-14 14-14s14 6.269 14 14v7c0 7.732-6.268 14-14 14s-14-6.268-14-14z"/></g></g><g clip-path="url(#d)"><rect fill="#fdd7f5" height="84" rx="42" width="84" x="45" y="382.062"/><g fill="#ed60e9"><path d="m55 466.062c0-17.673 14.3269-32 32-32 17.673 0 32 14.327 32 32z"/><path d="m73 406.062c0-7.731 6.268-14 14-14s14 6.269 14 14v7c0 7.732-6.268 14-14 14s-14-6.268-14-14z"/></g></g><g clip-path="url(#e)"><circle cx="357" cy="424.062" fill="#fdd7f5" r="42"/><path d="m342.72 406.422h17.64c9.742 0 17.64 7.898 17.64 17.64 0 9.743-7.898 17.64-17.64 17.64h-17.64z" fill="#490072"/></g><g clip-path="url(#f)"><circle cx="357" cy="300.062" fill="#fdd7f5" r="42"/><path d="m364.252 281.688h-20.377v36.75h20.377c5.418 0 9.811-4.457 9.811-9.954 0-3.546-1.828-6.659-4.58-8.421 2.752-1.763 4.58-4.876 4.58-8.422 0-5.497-4.393-9.953-9.811-9.953z" fill="#490072"/></g><g clip-path="url(#g)"><circle cx="285" cy="300.062" fill="#fff" r="42"/><path d="m258.12 300.063h53.76c0-14.846-12.035-26.88-26.88-26.88s-26.88 12.034-26.88 26.88z" fill="#8702aa"/></g><path clip-rule="evenodd" d="m702.219 144.062c-19.219 4.101-37.152 11.68-53.112 22.047.566.982 1.092 2.003 1.573 3.064l6.349 13.99c4.948 10.901 2.624 23.732-5.829 32.198-8.454 8.467-21.265 10.794-32.149 5.839l-13.968-6.359c-1.06-.483-2.081-1.009-3.062-1.577-10.356 15.988-17.925 33.953-22.021 53.206 1.096.294 2.191.645 3.283 1.054l14.367 5.396c11.194 4.205 18.61 14.923 18.61 26.896 0 11.974-7.416 22.692-18.61 26.896l-14.367 5.396c-1.092.41-2.187.761-3.283 1.055 4.096 19.253 11.665 37.218 22.021 53.206.981-.568 2.002-1.095 3.062-1.577l13.968-6.359c10.884-4.955 23.695-2.628 32.149 5.838 8.453 8.467 10.777 21.298 5.829 32.198l-6.349 13.991c-.481 1.06-1.007 2.082-1.573 3.064 15.96 10.367 33.893 17.945 53.112 22.046.293-1.097.643-2.194 1.053-3.287l5.387-14.39c4.198-11.211 14.9-18.639 26.855-18.639s22.657 7.428 26.854 18.639l5.388 14.39c.409 1.093.76 2.19 1.053 3.287 19.216-4.1 37.147-11.677 53.106-22.043-.567-.983-1.093-2.005-1.575-3.067l-6.349-13.991c-4.947-10.9-2.624-23.731 5.829-32.197 8.454-8.467 21.265-10.794 32.149-5.839l13.969 6.359c1.062.484 2.084 1.011 3.067 1.58 10.356-15.989 17.927-33.955 22.023-53.209-1.096-.294-2.191-.645-3.283-1.055l-14.367-5.396c-11.194-4.204-18.61-14.922-18.61-26.896 0-11.973 7.416-22.691 18.61-26.896l14.367-5.396c1.092-.409 2.187-.76 3.283-1.054-4.096-19.255-11.667-37.221-22.023-53.209-.983.568-2.005 1.096-3.067 1.58l-13.969 6.359c-10.884 4.955-23.695 2.628-32.149-5.839-8.453-8.467-10.776-21.297-5.829-32.198l6.349-13.99c.482-1.062 1.008-2.085 1.575-3.068-15.959-10.365-33.89-17.942-53.106-22.043-.293 1.098-.644 2.195-1.053 3.288l-5.388 14.389c-4.197 11.212-14.899 18.639-26.854 18.639s-22.657-7.427-26.855-18.639l-5.387-14.389c-.41-1.093-.76-2.19-1.053-3.288z" fill="#fdd7f5" fill-rule="evenodd"/><path d="m773.97 237.487-.081.081c7.671 7.652 7.671 20.055 0 27.704l6.352 6.333c4.339-4.328 6.994-9.703 7.962-15.311 9.011 1.83 15.799 9.779 15.799 19.31 0 10.881-8.847 19.705-19.755 19.705h-10.775v8.957h10.775c10.908 0 19.755 8.825 19.755 19.706 0 9.482-6.717 17.4-15.662 19.282-.835-5.92-3.535-11.627-8.099-16.179l-6.352 6.333c7.671 7.652 7.671 20.056 0 27.704l.081.081c-3.574 3.565-8.513 5.773-13.967 5.773-10.302 0-18.766-7.873-19.674-17.914h-.081v-97.632c0-10.882 8.846-19.706 19.755-19.706 5.454 0 10.393 2.208 13.967 5.773z" fill="#ec4612"/><path d="m697.543 361.193.081-.081c-7.671-7.648-7.671-20.052 0-27.704l-6.349-6.333c-4.563 4.552-7.264 10.259-8.102 16.179-8.945-1.882-15.658-9.8-15.658-19.282 0-10.881 8.846-19.706 19.755-19.706h10.775v-8.957h-10.775c-10.909 0-19.755-8.824-19.755-19.705 0-9.527 6.784-17.48 15.795-19.31.968 5.608 3.623 10.983 7.965 15.311l6.349-6.333c-7.671-7.649-7.671-20.052 0-27.704l-.081-.081c3.574-3.568 8.517-5.773 13.971-5.773 10.908 0 19.755 8.824 19.755 19.706v97.632h-.081c-.909 10.041-9.372 17.914-19.674 17.914-5.454 0-10.397-2.204-13.971-5.773z" fill="#ec4612"/><path d="m773.965 237.485-.081.08c7.671 7.652 7.671 20.056 0 27.704l6.352 6.333c4.339-4.328 6.994-9.702 7.963-15.311 9.011 1.83 15.798 9.78 15.798 19.31 0 10.882-8.846 19.706-19.755 19.706h-10.775v8.957h10.775c10.909 0 19.755 8.824 19.755 19.706 0 9.481-6.717 17.399-15.662 19.282-.834-5.92-3.535-11.627-8.099-16.179l-6.352 6.333c7.671 7.652 7.671 20.055 0 27.704l.081.08c-3.574 3.566-8.513 5.773-13.967 5.773-10.302 0-18.766-7.872-19.674-17.914h-.081v-97.632c0-10.881 8.846-19.705 19.755-19.705 5.454 0 10.393 2.208 13.967 5.773z" fill="#510079"/><path clip-rule="evenodd" d="m702.219 505.062c-19.219 4.101-37.152 11.68-53.112 22.047.566.982 1.092 2.003 1.573 3.064l6.349 13.99c4.948 10.901 2.625 23.732-5.829 32.198-8.454 8.467-21.265 10.794-32.149 5.839l-13.968-6.359c-1.06-.483-2.081-1.009-3.062-1.577-10.356 15.988-17.925 33.953-22.021 53.206 1.096.294 2.191.645 3.283 1.054l14.367 5.396c11.194 4.205 18.61 14.923 18.61 26.896 0 11.974-7.416 22.692-18.61 26.896l-14.367 5.396c-1.092.41-2.187.761-3.283 1.055 4.096 19.253 11.665 37.218 22.021 53.206.981-.568 2.002-1.095 3.062-1.577l13.968-6.359c10.884-4.955 23.695-2.628 32.149 5.838 8.454 8.467 10.777 21.298 5.829 32.198l-6.349 13.991c-.481 1.06-1.007 2.082-1.573 3.064 15.96 10.367 33.893 17.945 53.112 22.046.293-1.097.643-2.194 1.053-3.287l5.387-14.39c4.198-11.211 14.9-18.639 26.855-18.639s22.657 7.428 26.854 18.639l5.388 14.39c.409 1.093.76 2.19 1.053 3.287 19.216-4.1 37.147-11.677 53.106-22.043-.567-.983-1.093-2.005-1.575-3.067l-6.349-13.991c-4.947-10.9-2.624-23.731 5.829-32.197 8.454-8.467 21.265-10.794 32.149-5.839l13.969 6.359c1.062.484 2.084 1.011 3.067 1.58 10.356-15.989 17.927-33.955 22.023-53.209-1.096-.294-2.191-.645-3.283-1.055l-14.367-5.396c-11.194-4.204-18.61-14.922-18.61-26.896 0-11.973 7.416-22.691 18.61-26.896l14.367-5.396c1.092-.409 2.187-.76 3.283-1.054-4.096-19.254-11.667-37.221-22.023-53.209-.983.568-2.005 1.096-3.067 1.58l-13.969 6.359c-10.884 4.955-23.695 2.628-32.149-5.839-8.453-8.467-10.776-21.297-5.829-32.198l6.349-13.99c.482-1.062 1.008-2.085 1.575-3.068-15.959-10.365-33.89-17.942-53.106-22.043-.293 1.098-.644 2.195-1.053 3.288l-5.388 14.389c-4.197 11.212-14.899 18.639-26.854 18.639s-22.657-7.427-26.855-18.639l-5.387-14.389c-.41-1.093-.76-2.19-1.053-3.288z" fill="#fdd7f5" fill-rule="evenodd"/><path clip-rule="evenodd" d="m702.219-216.938c-19.219 4.101-37.152 11.68-53.112 22.047.566.982 1.092 2.003 1.573 3.064l6.349 13.99c4.948 10.901 2.625 23.732-5.829 32.198-8.454 8.467-21.265 10.794-32.149 5.839l-13.968-6.359c-1.06-.483-2.081-1.009-3.062-1.577-10.356 15.988-17.925 33.953-22.021 53.2057 1.096.2938 2.191.6448 3.283 1.0548l14.367 5.3959c11.194 4.2043 18.61 14.9222 18.61 26.896s-7.416 22.6916-18.61 26.8959l-14.367 5.396c-1.092.41-2.187.7609-3.283 1.0548 4.096 19.25279 11.665 37.21782 22.021 53.2055.981-.5674 2.002-1.0941 3.062-1.5767l13.968-6.3592c10.884-4.9548 23.695-2.6282 32.149 5.8386s10.777 21.2974 5.829 32.1979l-6.349 13.9904c-.481 1.0607-1.007 2.0822-1.573 3.0641 15.96 10.3671 33.893 17.9456 53.112 22.0465.293-1.0975.643-2.1943 1.053-3.2875l5.387-14.3894c4.198-11.2114 14.9-18.6388 26.855-18.6388s22.657 7.4274 26.854 18.6388l5.388 14.3894c.409 1.0932.76 2.19 1.053 3.2875 19.216-4.1004 37.147-11.6776 53.106-22.0429-.567-.9829-1.093-2.0056-1.575-3.0675l-6.349-13.9903c-4.947-10.9005-2.624-23.7312 5.829-32.198 8.454-8.4668 21.265-10.7934 32.149-5.8386l13.969 6.3592c1.062.4835 2.084 1.0112 3.067 1.5798 10.356-15.98849 17.927-33.95468 22.023-53.2088-1.096-.2939-2.191-.6448-3.283-1.0548l-14.367-5.396c-11.194-4.2043-18.61-14.9221-18.61-26.8959s7.416-22.6917 18.61-26.896l14.367-5.3959c1.092-.41 2.187-.761 3.283-1.0548-4.096-19.2537-11.667-37.2207-22.023-53.2087-.983.568-2.005 1.096-3.067 1.58l-13.969 6.359c-10.884 4.955-23.695 2.628-32.149-5.839-8.453-8.467-10.776-21.297-5.829-32.198l6.349-13.99c.482-1.062 1.008-2.085 1.575-3.068-15.959-10.365-33.89-17.942-53.106-22.043-.293 1.098-.644 2.195-1.053 3.288l-5.388 14.389c-4.197 11.212-14.899 18.639-26.854 18.639s-22.657-7.427-26.855-18.639l-5.387-14.389c-.41-1.093-.76-2.19-1.053-3.288z" fill="#fdd7f5" fill-rule="evenodd"/><g clip-path="url(#h)"><circle cx="42" cy="42" fill="#408a13" r="42" transform="matrix(-1 0 0 1 327 134.062)"/><path d="m285 198.743-21.57-15.672 8.239-25.357h26.662l8.239 25.357z" fill="#fff"/></g><g clip-path="url(#i)"><circle cx="42" cy="42" fill="#00a1ff" r="42" transform="matrix(-1 0 0 1 327 382.062)"/><path d="m302.062 424.062-17.062-24.937-17.062 24.937 17.062 24.938z" fill="#fff"/></g><path d="m509 174.062c0-22.091-17.909-40-40-40v332c22.091 0 40-17.908 40-40v-96l30-30-30-30z" fill="#ed60e9"/><path d="m938 270.062 30 30-30 30z" fill="#ed60e9"/><path d="m1179.5 100.723c9.28-5.3591 20.72-5.3591 30 0l149.7 86.429c9.28 5.359 15 15.263 15 25.981v172.859c0 10.718-5.72 20.622-15 25.981l-149.7 86.429c-9.28 5.359-20.72 5.359-30 0l-149.7-86.429c-9.28-5.359-15-15.263-15-25.981v-172.859c0-10.718 5.72-20.622 15-25.981z" fill="#fdd7f5"/><path d="m1594.5 100.723c9.28-5.3591 20.72-5.3591 30 0l149.7 86.429c9.28 5.359 15 15.263 15 25.981v172.859c0 10.718-5.72 20.622-15 25.981l-149.7 86.429c-9.28 5.359-20.72 5.359-30 0l-149.7-86.429c-9.28-5.359-15-15.263-15-25.981v-172.859c0-10.718 5.72-20.622 15-25.981z" fill="#fdd7f5"/><g clip-path="url(#j)"><circle cx="42" cy="42" fill="#00a1ff" r="42" transform="matrix(-1 0 0 1 1272 163.062)"/><path d="m1247.06 205.062-17.06-24.937-17.06 24.937 17.06 24.938z" fill="#fff"/></g><g clip-path="url(#k)"><circle cx="1230" cy="299.062" fill="#f2cd16" r="42"/><path d="m1215.72 281.422h17.64c9.74 0 17.64 7.898 17.64 17.64 0 9.743-7.9 17.64-17.64 17.64h-17.64z" fill="#fff"/></g><g clip-path="url(#l)"><circle cx="1230" cy="393.062" fill="#ec4612" r="42"/><path d="m1237.25 374.688h-20.37v36.75h20.37c5.42 0 9.81-4.457 9.81-9.954 0-3.546-1.83-6.659-4.58-8.421 2.75-1.763 4.58-4.876 4.58-8.422 0-5.497-4.39-9.953-9.81-9.953z" fill="#fff"/></g><g clip-path="url(#m)"><circle cx="1158" cy="393.062" fill="#fff" r="42"/><path d="m1131.12 393.063h53.76c0-14.846-12.03-26.88-26.88-26.88s-26.88 12.034-26.88 26.88z" fill="#8702aa"/></g><g clip-path="url(#n)"><circle cx="42" cy="42" fill="#408a13" r="42" transform="matrix(-1 0 0 1 1200 163.062)"/><path d="m1158 227.743-21.57-15.672 8.24-25.357h26.66l8.24 25.357z" fill="#fff"/></g><g clip-path="url(#o)"><circle cx="42" cy="42" fill="#00a1ff" r="42" transform="matrix(-1 0 0 1 1200 257.062)"/><path d="m1175.06 299.062-17.06-24.937-17.06 24.937 17.06 24.938z" fill="#fff"/></g></g></svg>