<svg width="405" height="240" viewBox="0 0 405 240" fill="none" xmlns="http://www.w3.org/2000/svg">
<rect width="405" height="240" fill="#CCF8FF"/>
<g clip-path="url(#clip0_2054_32362)">
<rect width="328" height="172" transform="translate(77 67.7344)" fill="#3FC4FF"/>
<rect x="77" y="153.734" width="328" height="86" fill="#012F7A"/>
<path d="M77 82.7344H174C181.732 82.7344 188 89.0024 188 96.7344V112.686C188 123.549 199.189 130.81 209.111 126.385L276.889 96.151C286.811 91.7255 298 98.9863 298 109.85V154.321C298 168.139 315.894 173.603 323.612 162.142L397 53.1719" stroke="#CCF8FF" stroke-width="30"/>
<path fill-rule="evenodd" clip-rule="evenodd" d="M269.85 162.496L205 174.922L214.389 223.919L279.238 211.493L288.955 184.233L269.85 162.496ZM275.649 192.759C278.832 192.149 280.918 189.073 280.308 185.89C279.698 182.706 276.623 180.62 273.439 181.23C270.256 181.84 268.17 184.915 268.78 188.099C269.39 191.283 272.465 193.369 275.649 192.759Z" fill="#CCF8FF"/>
<path d="M228.878 179.31L230.001 185.171L225.437 186.045L224.314 180.185L228.878 179.31ZM233.692 204.433L234.815 210.294L230.251 211.168L229.128 205.307L233.692 204.433ZM226.12 199.524C226.29 200.415 226.621 201.145 227.113 201.714C227.604 202.283 228.205 202.677 228.917 202.896C229.646 203.088 230.449 203.1 231.325 202.932C232.063 202.791 232.661 202.546 233.12 202.197C233.597 201.822 233.924 201.404 234.098 200.944C234.296 200.48 234.351 200.019 234.264 199.562C234.137 198.899 233.785 198.374 233.209 197.987C232.652 197.573 231.916 197.347 231 197.309L227.999 197.174C225.879 197.082 224.113 196.532 222.701 195.524C221.289 194.515 220.418 193.154 220.09 191.44C219.823 190.047 219.976 188.726 220.55 187.479C221.146 186.228 222.033 185.182 223.21 184.34C224.383 183.476 225.695 182.905 227.147 182.626C228.715 182.326 230.179 182.424 231.541 182.921C232.899 183.396 234.03 184.186 234.935 185.291C235.835 186.374 236.428 187.658 236.712 189.144L231.802 190.084C231.614 189.102 231.15 188.362 230.409 187.864C229.687 187.339 228.831 187.172 227.84 187.362C227.194 187.485 226.654 187.719 226.218 188.063C225.805 188.403 225.509 188.791 225.33 189.228C225.174 189.661 225.135 190.083 225.214 190.494C225.31 190.997 225.571 191.421 225.995 191.766C226.415 192.088 227.035 192.265 227.854 192.298L230.786 192.447C233.32 192.577 235.29 193.135 236.698 194.121C238.129 195.102 239.028 196.553 239.396 198.472C239.68 199.957 239.563 201.342 239.045 202.625C238.526 203.909 237.671 204.997 236.48 205.888C235.307 206.753 233.902 207.342 232.266 207.655C230.537 207.987 228.888 207.924 227.319 207.466C225.75 207.009 224.409 206.188 223.298 205.003C222.183 203.796 221.452 202.289 221.106 200.484L226.12 199.524Z" fill="#012F7A"/>
<path d="M249.771 175.305L250.894 181.166L246.33 182.041L245.207 176.18L249.771 175.305ZM254.585 200.428L255.708 206.289L251.144 207.164L250.021 201.303L254.585 200.428ZM247.013 195.519C247.183 196.41 247.514 197.14 248.006 197.709C248.497 198.278 249.098 198.672 249.81 198.892C250.539 199.083 251.342 199.095 252.218 198.927C252.956 198.786 253.554 198.541 254.013 198.193C254.491 197.817 254.817 197.399 254.991 196.939C255.189 196.475 255.244 196.014 255.157 195.557C255.03 194.895 254.678 194.37 254.102 193.983C253.545 193.568 252.809 193.342 251.893 193.304L248.892 193.169C246.772 193.078 245.006 192.528 243.594 191.519C242.182 190.511 241.312 189.149 240.983 187.436C240.716 186.042 240.869 184.722 241.443 183.475C242.039 182.223 242.926 181.177 244.103 180.335C245.276 179.471 246.588 178.9 248.04 178.622C249.608 178.321 251.072 178.42 252.434 178.917C253.792 179.391 254.923 180.181 255.828 181.287C256.728 182.37 257.321 183.654 257.605 185.139L252.696 186.08C252.507 185.097 252.043 184.357 251.302 183.86C250.58 183.335 249.724 183.167 248.733 183.357C248.087 183.481 247.547 183.715 247.111 184.059C246.698 184.398 246.402 184.787 246.223 185.224C246.067 185.656 246.028 186.078 246.107 186.49C246.203 186.992 246.464 187.416 246.888 187.761C247.308 188.083 247.928 188.261 248.747 188.293L251.679 188.442C254.213 188.572 256.184 189.131 257.591 190.116C259.022 191.098 259.921 192.548 260.289 194.467C260.573 195.953 260.456 197.337 259.938 198.621C259.419 199.905 258.564 200.992 257.373 201.884C256.2 202.748 254.796 203.337 253.159 203.651C251.43 203.982 249.781 203.919 248.212 203.462C246.643 203.004 245.303 202.183 244.191 200.998C243.076 199.791 242.345 198.285 241.999 196.48L247.013 195.519Z" fill="#012F7A"/>
<path d="M312 153.734L277 184.734" stroke="#3FC4FF" stroke-width="6"/>
<circle cx="312" cy="154.672" r="18" fill="#F2CD16"/>
</g>
<defs>
<clipPath id="clip0_2054_32362">
<rect width="328" height="172" fill="white" transform="translate(77 67.7344)"/>
</clipPath>
</defs>
</svg>
