<svg fill="none" height="438" viewBox="0 0 458 438" width="458" xmlns="http://www.w3.org/2000/svg" xmlns:xlink="http://www.w3.org/1999/xlink"><mask id="a" height="216" maskUnits="userSpaceOnUse" width="326" x="66" y="130"><path clip-rule="evenodd" d="m189.64 346c-15.835 0-29.847-10.161-34.634-25.116l-24.614-76.884h-15.133c-15.8346 0-29.8461-10.161-34.6337-25.116l-14.6253-45.684h54.858l-28.9343-43.2h274.1523l-28.934 43.2h54.858l-14.625 45.684c-4.788 14.955-18.799 25.116-34.634 25.116h-15.133l-24.614 76.884c-4.787 14.955-18.799 25.116-34.634 25.116zm-18.596-123c0 11.598 8.74 21 19.521 21 10.78 0 19.52-9.402 19.52-21s-8.74-21-19.52-21c-10.781 0-19.521 9.402-19.521 21zm115.912 0c0 11.598-8.74 21-19.52 21-10.781 0-19.521-9.402-19.521-21s8.74-21 19.521-21c10.78 0 19.52 9.402 19.52 21z" fill="#8702aa" fill-rule="evenodd"/></mask><path clip-rule="evenodd" d="m364 353v-12c0-2.761-2.239-5-5-5s-5 2.239-5 5v12c0 2.761 2.239 5 5 5s5-2.239 5-5zm-5-33c-11.598 0-21 9.402-21 21v12c0 11.598 9.402 21 21 21s21-9.402 21-21v-12c0-11.598-9.402-21-21-21z" fill="#fff" fill-rule="evenodd"/><path clip-rule="evenodd" d="m312 353v-12c0-2.761-2.239-5-5-5s-5 2.239-5 5v12c0 2.761 2.239 5 5 5s5-2.239 5-5zm-5-33c-11.598 0-21 9.402-21 21v12c0 11.598 9.402 21 21 21s21-9.402 21-21v-12c0-11.598-9.402-21-21-21z" fill="#ffedec" fill-rule="evenodd"/><path clip-rule="evenodd" d="m312 289v-12c0-2.761-2.239-5-5-5s-5 2.239-5 5v12c0 2.761 2.239 5 5 5s5-2.239 5-5zm-5-33c-11.598 0-21 9.402-21 21v12c0 11.598 9.402 21 21 21s21-9.402 21-21v-12c0-11.598-9.402-21-21-21z" fill="#fff" fill-rule="evenodd"/><path d="m78 130h16v50h-16z" fill="#ffedec"/><path d="m52 130h16v50h-16z" fill="#ffedec"/><g clip-rule="evenodd" fill-rule="evenodd"><path d="m189.64 346c-15.835 0-29.847-10.161-34.634-25.116l-24.614-76.884h-15.133c-15.8346 0-29.8461-10.161-34.6337-25.116l-14.6253-45.684h54.858l-28.9343-43.2h274.1523l-28.934 43.2h54.858l-14.625 45.684c-4.788 14.955-18.799 25.116-34.634 25.116h-15.133l-24.614 76.884c-4.787 14.955-18.799 25.116-34.634 25.116zm-18.596-123c0 11.598 8.74 21 19.521 21 10.78 0 19.52-9.402 19.52-21s-8.74-21-19.52-21c-10.781 0-19.521 9.402-19.521 21zm115.912 0c0 11.598-8.74 21-19.52 21-10.781 0-19.521-9.402-19.521-21s8.74-21 19.521-21c10.78 0 19.52 9.402 19.52 21z" fill="#8702aa"/><path d="m364 33v-12c0-2.7614-2.239-5-5-5s-5 2.2386-5 5v12c0 2.7614 2.239 5 5 5s5-2.2386 5-5zm-5-33c-11.598 0-21 9.40202-21 21v12c0 11.598 9.402 21 21 21s21-9.402 21-21v-12c0-11.59798-9.402-21-21-21z" fill="#8702aa"/><path d="m260 33v-12c0-2.7614-2.239-5-5-5s-5 2.2386-5 5v12c0 2.7614 2.239 5 5 5s5-2.2386 5-5zm-5-33c-11.598 0-21 9.40202-21 21v12c0 11.598 9.402 21 21 21s21-9.402 21-21v-12c0-11.59798-9.402-21-21-21z" fill="#8702aa"/><path d="m312 33v-12c0-2.7614-2.239-5-5-5s-5 2.2386-5 5v12c0 2.7614 2.239 5 5 5s5-2.2386 5-5zm-5-33c-11.598 0-21 9.40202-21 21v12c0 11.598 9.402 21 21 21s21-9.402 21-21v-12c0-11.59798-9.402-21-21-21z" fill="#8702aa"/><path d="m26 161v-12c0-2.761-2.2386-5-5-5s-5 2.239-5 5v12c0 2.761 2.2386 5 5 5s5-2.239 5-5zm-5-33c-11.59798 0-21 9.402-21 21v12c0 11.598 9.40202 21 21 21 11.598 0 21-9.402 21-21v-12c0-11.598-9.402-21-21-21z" fill="#fff"/><path d="m364 97v-12c0-2.7614-2.239-5-5-5s-5 2.2386-5 5v12c0 2.7614 2.239 5 5 5s5-2.2386 5-5zm-5-33c-11.598 0-21 9.402-21 21v12c0 11.598 9.402 21 21 21s21-9.402 21-21v-12c0-11.598-9.402-21-21-21z" fill="#8702aa"/><path d="m68 353v-12c0-2.761 2.2386-5 5-5s5 2.239 5 5v12c0 2.761-2.2386 5-5 5s-5-2.239-5-5zm5-33c11.598 0 21 9.402 21 21v12c0 11.598-9.402 21-21 21s-21-9.402-21-21v-12c0-11.598 9.402-21 21-21z" fill="#ed60e9"/><path d="m42 289v-12c0-2.761 2.2386-5 5-5s5 2.239 5 5v12c0 2.761-2.2386 5-5 5s-5-2.239-5-5zm5-33c11.598 0 21 9.402 21 21v12c0 11.598-9.402 21-21 21s-21-9.402-21-21v-12c0-11.598 9.402-21 21-21z" fill="#ffedec"/><path d="m260 97v-12c0-2.7614-2.239-5-5-5s-5 2.2386-5 5v12c0 2.7614 2.239 5 5 5s5-2.2386 5-5zm-5-33c-11.598 0-21 9.402-21 21v12c0 11.598 9.402 21 21 21s21-9.402 21-21v-12c0-11.598-9.402-21-21-21z" fill="#ec4612"/><path d="m146 417v-12c0-2.761 2.239-5 5-5s5 2.239 5 5v12c0 2.761-2.239 5-5 5s-5-2.239-5-5zm5-33c11.598 0 21 9.402 21 21v12c0 11.598-9.402 21-21 21s-21-9.402-21-21v-12c0-11.598 9.402-21 21-21z" fill="#ec4612"/><path d="m312 97v-12c0-2.7614-2.239-5-5-5s-5 2.2386-5 5v12c0 2.7614 2.239 5 5 5s5-2.2386 5-5zm-5-33c-11.598 0-21 9.402-21 21v12c0 11.598 9.402 21 21 21s21-9.402 21-21v-12c0-11.598-9.402-21-21-21z" fill="#ed60e9"/><path d="m156 97v-12c0-2.7614-2.239-5-5-5s-5 2.2386-5 5v12c0 2.7614 2.239 5 5 5s5-2.2386 5-5zm-5-33c-11.598 0-21 9.402-21 21v12c0 11.598 9.402 21 21 21s21-9.402 21-21v-12c0-11.598-9.402-21-21-21z" fill="#ed60e9"/><path d="m250 417v-12c0-2.761 2.239-5 5-5s5 2.239 5 5v12c0 2.761-2.239 5-5 5s-5-2.239-5-5zm5-33c11.598 0 21 9.402 21 21v12c0 11.598-9.402 21-21 21s-21-9.402-21-21v-12c0-11.598 9.402-21 21-21z" fill="#ed60e9"/><path d="m104 97v-12c0-2.7614-2.239-5-5-5-2.7614 0-5 2.2386-5 5v12c0 2.7614 2.2386 5 5 5 2.761 0 5-2.2386 5-5zm-5-33c-11.598 0-21 9.402-21 21v12c0 11.598 9.402 21 21 21s21-9.402 21-21v-12c0-11.598-9.402-21-21-21z" fill="#ed60e9"/><path d="m302 417v-12c0-2.761 2.239-5 5-5s5 2.239 5 5v12c0 2.761-2.239 5-5 5s-5-2.239-5-5zm5-33c11.598 0 21 9.402 21 21v12c0 11.598-9.402 21-21 21s-21-9.402-21-21v-12c0-11.598 9.402-21 21-21z" fill="#fff"/><path d="m210 33v-12c0-2.7614-2.239-5-5-5s-5 2.2386-5 5v12c0 2.7614 2.239 5 5 5s5-2.2386 5-5zm-5-33c-11.598 0-21 9.40202-21 21v12c0 11.598 9.402 21 21 21s21-9.402 21-21v-12c0-11.59798-9.402-21-21-21z" fill="#ed60e9"/><path d="m442 33v-12c0-2.7614-2.239-5-5-5s-5 2.2386-5 5v12c0 2.7614 2.239 5 5 5s5-2.2386 5-5zm-5-33c-11.598 0-21 9.40202-21 21v12c0 11.598 9.402 21 21 21s21-9.402 21-21v-12c0-11.59798-9.402-21-21-21z" fill="#ffedec"/><path d="m442 353v-12c0-2.761-2.239-5-5-5s-5 2.239-5 5v12c0 2.761 2.239 5 5 5s5-2.239 5-5zm-5-33c-11.598 0-21 9.402-21 21v12c0 11.598 9.402 21 21 21s21-9.402 21-21v-12c0-11.598-9.402-21-21-21z" fill="#ffedec"/></g><path d="m390 2h16v50h-16z" fill="#8702aa"/><path d="m390 322h16v50h-16z" fill="#ffedec"/><path d="m432 66h-16v50h16z" fill="#fff"/><path d="m458 66h-16v50h16z" fill="#ffedec"/><path d="m390 66h16v50h-16z" fill="#8702aa"/><path d="m16 322h-16v50h16z" fill="#fff"/><path d="m16 258h-16v50h16z" fill="#fff"/><path d="m208 66h16v50h-16z" fill="#8702aa"/><path d="m198 386h-16v50h16z" fill="#8702aa"/><path d="m120 386h-16v50h16z" fill="#ed60e9"/><path d="m26 322h16v50h-16z" fill="#fff"/><path d="m94 386h-16v50h16z" fill="#8702aa"/><path d="m120 322h-16v50h16z" fill="#8702aa"/><path d="m52 4h16v50h-16z" fill="#ffedec"/><path d="m182 66h16v50h-16z" fill="#8702aa"/><path d="m224 386h-16v50h16z" fill="#8702aa"/><path d="m354 386h-16v50h16z" fill="#fff"/><g mask="url(#a)"><path clip-rule="evenodd" d="m312 289v-12c0-2.761-2.239-5-5-5s-5 2.239-5 5v12c0 2.761 2.239 5 5 5s5-2.239 5-5zm-5-33c-11.598 0-21 9.402-21 21v12c0 11.598 9.402 21 21 21s21-9.402 21-21v-12c0-11.598-9.402-21-21-21z" fill="#ec4612" fill-rule="evenodd"/><path d="m260 258h16v50h-16z" fill="#490072"/><path d="m234 258h16v50h-16z" fill="#66018e"/><path clip-rule="evenodd" d="m224 161v-12c0-2.761 2.239-5 5-5s5 2.239 5 5v12c0 2.761-2.239 5-5 5s-5-2.239-5-5zm5-33c11.598 0 21 9.402 21 21v12c0 11.598-9.402 21-21 21s-21-9.402-21-21v-12c0-11.598 9.402-21 21-21z" fill="#66018e" fill-rule="evenodd"/><path d="m276 130h-16v50h16z" fill="#490072"/><path d="m302 130h-16v50h16z" fill="#490072"/><path d="m328 130h-16v50h16z" fill="#66018e"/><path d="m198 130h-16v50h16z" fill="#66018e"/><path d="m104 130h16v50h-16z" fill="#ed60e9"/></g><path clip-rule="evenodd" d="m364 289v-12c0-2.761-2.239-5-5-5s-5 2.239-5 5v12c0 2.761 2.239 5 5 5s5-2.239 5-5zm-5-33c-11.598 0-21 9.402-21 21v12c0 11.598 9.402 21 21 21s21-9.402 21-21v-12c0-11.598-9.402-21-21-21z" fill="#8702aa" fill-rule="evenodd"/><path d="m390 258h16v50h-16z" fill="#8702aa"/><path d="m416 258h16v50h-16z" fill="#fff"/><path d="m442 258h16v50h-16z" fill="#ffedec"/></svg>