<svg xmlns="http://www.w3.org/2000/svg" fill="none" viewBox="0 0 789 113"><path fill="currentColor" d="m741.39 85.73-15.65-27.1h-31.29l15.64 27.1h31.3Zm0-54.2h-31.3l-15.64 27.1h31.29l15.65-27.1Zm46.94 27.1L757 4.43h-62.55l15.64 27.1h31.3L757 58.63h31.33Zm0 0H757l-15.64 27.1h-31.3l-15.64 27.1H757l31.33-54.2ZM70.51 64.77c0 19.47-14.37 34.5-31.88 34.5-9.54 0-16.47-3.53-21.17-9.54v7.71H.6V5.87L17.46.68v39.14c4.7-6 11.63-9.54 21.17-9.54 17.51 0 31.88 15.02 31.88 34.49Zm-16.86 0c0-11-7.7-18.42-18.16-18.42s-18 7.45-18 18.42c0 10.97 7.71 18.43 18 18.43s18.16-7.45 18.16-18.43Zm24.44-58.9L94.94.68v96.76H78.09V5.87Zm24.3 58.9a34.554 34.554 0 0 1 21.309-31.979A34.56 34.56 0 1 1 136.88 99.27a34.13 34.13 0 0 1-34.49-34.5Zm52.26 0c0-10.58-7.71-18-17.77-18-10.06 0-17.64 7.45-17.64 18s7.71 18 17.64 18 17.77-7.41 17.77-18Zm23.25 0c0-19.47 14.63-34.49 34.49-34.49 12.81 0 23.91 6.79 29.27 16.85l-14.5 8.5c-2.62-5.36-8.24-8.76-14.9-8.76-10.06 0-17.51 7.45-17.51 17.9s7.45 17.77 17.51 17.77c6.8 0 12.41-3.26 15-8.62l14.63 8.36a33.472 33.472 0 0 1-29.53 17c-19.83-.01-34.46-15.04-34.46-34.51Zm112.42 32.67-23.78-29.66v29.66h-16.86V5.87L266.54.68v60.17L289 32.11h20.12l-26.25 32.27 27.05 33.06h-19.6Zm86.94-40.12v40.12H360.4v-38c0-8.89-5.35-13.46-12.93-13.46-8.23 0-14.38 4.83-14.38 16.2v35.26h-16.85V32.11h16.85v7.31c3.92-5.88 10.72-9.14 19.47-9.14 13.85 0 24.7 9.72 24.7 27.04Zm77.46-25.21v65.33h-16.85v-7.71c-4.71 5.88-11.76 9.54-21.3 9.54-17.38 0-31.75-15-31.75-34.5s14.37-34.49 31.75-34.49c9.54 0 16.59 3.66 21.3 9.54v-7.71h16.85Zm-16.85 32.66c0-11-7.71-18.42-18.17-18.42s-18 7.45-18 18.42c0 10.97 7.71 18.43 18 18.43s18.17-7.45 18.17-18.43Zm60.78-16.46v-16.2h-14.77V12.9L467 18.09v57.4c0 17.64 8 24.56 31.63 22V82.15c-9.67.53-14.77.39-14.77-6.66V48.31h14.79Zm11.81-16.2h16.85v65.33h-16.85V32.11Zm92.67 0-24.831 65.33H559.09l-24.82-65.33h18.55l15.81 45.73 15.94-45.73h18.56ZM639.2 84c6.53 0 11.76-2.74 14.64-6.53l13.58 7.84c-6.14 8.88-15.94 14-28.48 14-22 0-35.8-15-35.8-34.5s14-34.49 34.49-34.49c19.34 0 33.06 15.29 33.06 34.49a39.15 39.15 0 0 1-.69 6.89h-49.22c2.35 8.62 9.54 12.3 18.42 12.3Zm14.64-25.35c-2.1-9.41-9.15-13.2-16.21-13.2-9 0-15.15 4.84-17.12 13.2h33.33Z"/></svg>