<svg xmlns="http://www.w3.org/2000/svg" fill="none" viewBox="0 0 162 56"><circle cx="21.677" cy="28" r="18.064" fill="#D11347"/><path fill="#FFF8F7" fill-rule="evenodd" d="M18.645 36.13a2.56 2.56 0 0 1-2.44-1.786l-1.733-5.466h-1.066a2.56 2.56 0 0 1-2.44-1.785l-1.03-3.248H13.8l-2.038-3.07h19.313l-2.038 3.07H32.9l-1.03 3.248a2.56 2.56 0 0 1-2.44 1.785h-1.066l-1.734 5.466a2.56 2.56 0 0 1-2.44 1.785h-5.546Zm-1.31-8.745c0 .825.616 1.493 1.376 1.493.76 0 1.375-.668 1.375-1.492 0-.825-.616-1.493-1.375-1.493-.76 0-1.375.668-1.375 1.492Zm8.166 0c0 .825-.616 1.493-1.375 1.493-.76 0-1.375-.668-1.375-1.492 0-.825.615-1.493 1.375-1.493s1.375.668 1.375 1.492Z" clip-rule="evenodd"/><path fill="#D0AC10" fill-rule="evenodd" d="M22.58 0v7.226h-1.806V0h1.807Z" clip-rule="evenodd"/><path fill="#FFF8F7" d="M14.903 7.226h13.549v4.064H14.903V7.226Z"/><path fill="#D0AC10" d="M38.188 35.34A18.002 18.002 0 0 0 39.742 28a17.99 17.99 0 0 0-1.554-7.34c-1.218 1.306-2.06 4.102-2.06 7.34 0 3.238.842 6.034 2.06 7.34ZM5.167 20.66A18.001 18.001 0 0 0 3.613 28c0 2.614.555 5.098 1.554 7.34 1.217-1.306 2.059-4.102 2.059-7.34 0-3.238-.842-6.034-2.06-7.34Z"/><path fill="#65D9FF" d="M150.277 23.738h3.219v1.497c.358-.566.812-.976 1.364-1.23a4.132 4.132 0 0 1 1.833-.401c.894 0 1.721.253 2.481.76.775.491 1.386 1.192 1.833 2.1.447.895.67 1.908.67 3.04 0 1.133-.223 2.154-.67 3.063-.447.894-1.058 1.595-1.833 2.101a4.478 4.478 0 0 1-2.481.738c-.611 0-1.2-.149-1.766-.447a4.416 4.416 0 0 1-1.431-1.185v6.058h-3.219V23.738Zm5.7 3.084c-.447 0-.864.12-1.251.358a2.6 2.6 0 0 0-.895.984 2.803 2.803 0 0 0-.335 1.34c0 .478.112.925.335 1.342a2.6 2.6 0 0 0 .895.984c.387.238.804.357 1.251.357a2.24 2.24 0 0 0 1.23-.357c.387-.239.693-.567.916-.984.224-.417.336-.864.336-1.341s-.112-.924-.336-1.341a2.534 2.534 0 0 0-.916-.984 2.237 2.237 0 0 0-1.23-.358Zm-13.621-3.218c1.162 0 2.124.193 2.884.58.774.388 1.348.947 1.721 1.677.372.715.559 1.58.559 2.593v6.818h-3.13v-1.14c-.283.313-.738.604-1.363.872a4.788 4.788 0 0 1-1.9.402c-.835 0-1.55-.156-2.146-.47-.596-.312-1.043-.73-1.342-1.251a3.367 3.367 0 0 1-.447-1.699c0-1.118.41-1.99 1.23-2.615.819-.626 2.086-.94 3.8-.94h2.168v-.513c0-.596-.201-1.028-.603-1.297a2.069 2.069 0 0 0-1.319-.402 2.062 2.062 0 0 0-1.185.402c-.328.254-.514.611-.559 1.073h-3.286a4.609 4.609 0 0 1 .693-2.034c.403-.626.961-1.125 1.677-1.498.73-.372 1.579-.558 2.548-.558Zm-.514 9.522c.432 0 .827-.075 1.185-.223.357-.164.648-.425.871-.783.224-.357.336-.827.336-1.408V30.6l-1.789.022c-.536.015-.998.127-1.385.336-.373.194-.559.499-.559.916 0 .388.111.693.335.917.224.223.559.335 1.006.335Zm-5.023-9.388-3.8 11.534h-2.996l-1.497-4.65-.112-.313a236.229 236.229 0 0 1-.738-2.347h-.022a64.545 64.545 0 0 1-.671 2.169 5.51 5.51 0 0 0-.089.246c-.015.089-.037.17-.067.245l-1.498 4.65h-2.995l-3.8-11.534h3.264l1.341 4.493c.253.804.499 1.698.737 2.682h.023c.089-.372.283-1.043.581-2.012.045-.119.082-.23.112-.335a4.36 4.36 0 0 0 .111-.335l1.476-4.493h2.995l1.475 4.493.045.111c.268.865.529 1.722.782 2.571h.023c.104-.507.29-1.237.559-2.19a5.96 5.96 0 0 0 .089-.246c.03-.09.052-.172.067-.246l1.341-4.493h3.264Zm-27.426 5.812c0 .58.12 1.08.358 1.497.238.417.566.738.984.961.432.209.931.313 1.497.313.477 0 .879-.082 1.207-.246.343-.178.596-.402.76-.67a1.527 1.527 0 0 0-.201-1.967c-.298-.328-.73-.56-1.296-.693l-1.856-.447c-1.311-.313-2.347-.872-3.107-1.677-.76-.804-1.14-1.766-1.14-2.883 0-.91.254-1.722.76-2.437a5.161 5.161 0 0 1 2.034-1.654 6.05 6.05 0 0 1 2.66-.603c1.014 0 1.915.238 2.705.715a4.78 4.78 0 0 1 1.833 1.9c.432.79.648 1.669.648 2.638h-3.174c0-.641-.201-1.163-.603-1.565-.388-.418-.902-.626-1.543-.626-.417 0-.782.082-1.095.246a1.89 1.89 0 0 0-.693.626 1.525 1.525 0 0 0-.224.782c0 .328.112.626.336.894.223.253.588.44 1.095.559l1.811.447c1.564.387 2.727.976 3.487 1.766.775.79 1.162 1.81 1.162 3.062 0 .969-.238 1.826-.715 2.57-.477.746-1.14 1.327-1.99 1.745-.834.402-1.78.603-2.838.603-1.118 0-2.139-.238-3.063-.715a5.598 5.598 0 0 1-2.213-2.034c-.551-.895-.827-1.93-.827-3.107h3.241ZM98.471 19.178 94.09 35.272h-3.33l-2.147-8.047c-.06-.239-.126-.492-.2-.76a17.52 17.52 0 0 0-.202-.85 75.803 75.803 0 0 0-.358-1.61h-.022c-.06.24-.127.493-.201.76-.06.254-.12.522-.18.806l-.223.849c-.06.283-.126.551-.2.805l-2.147 8.047h-3.33l-4.382-16.094h3.309l2.1 8.047a64.646 64.646 0 0 1 .358 1.52l.18.804c.059.254.104.5.134.738h.022c.06-.283.126-.574.201-.872.075-.313.149-.633.224-.96.06-.224.111-.433.156-.627.06-.208.112-.41.156-.603l2.146-8.047h3.331l2.146 8.047a24.369 24.369 0 0 1 .268 1.073c.134.521.298 1.184.492 1.99h.022l.09-.493c.03-.164.067-.335.112-.514.134-.685.29-1.37.469-2.056l2.079-8.047h3.308ZM71.643 35.406a5.549 5.549 0 0 1-2.883-.782 6.039 6.039 0 0 1-2.102-2.146 5.87 5.87 0 0 1-.782-2.973c0-1.073.26-2.057.782-2.95a5.806 5.806 0 0 1 2.102-2.147 5.432 5.432 0 0 1 2.883-.804h.022c1.044 0 2.005.268 2.884.804a5.64 5.64 0 0 1 2.079 2.146c.522.91.782 1.893.782 2.95 0 1.059-.26 2.042-.782 2.951a5.809 5.809 0 0 1-2.079 2.169 5.55 5.55 0 0 1-2.884.782h-.022Zm.022-3.219c.462 0 .887-.119 1.275-.357a2.58 2.58 0 0 0 .916-.962c.224-.417.335-.871.335-1.363 0-.477-.119-.924-.357-1.341a2.537 2.537 0 0 0-.917-.984 2.346 2.346 0 0 0-1.252-.358h-.022c-.462 0-.886.12-1.274.358-.387.239-.7.566-.939.984a2.797 2.797 0 0 0-.335 1.34c0 .478.112.925.335 1.342.239.417.552.745.939.983a2.38 2.38 0 0 0 1.274.358h.022Zm-14.57 3.219a7.976 7.976 0 0 1-4.09-1.095 8.481 8.481 0 0 1-2.996-2.996 7.976 7.976 0 0 1-1.095-4.09c0-1.476.365-2.84 1.095-4.09a8.3 8.3 0 0 1 2.995-2.974 7.854 7.854 0 0 1 4.09-1.117c1.327 0 2.504.305 3.533.916 1.043.596 1.87 1.356 2.48 2.28.612.909.992 1.84 1.14 2.794h-3.33a3.23 3.23 0 0 0-.782-1.408 4.046 4.046 0 0 0-1.386-1.006 4.032 4.032 0 0 0-1.654-.358c-.91 0-1.744.224-2.504.67a5.08 5.08 0 0 0-1.788 1.812 4.731 4.731 0 0 0-.67 2.48c0 .91.223 1.744.67 2.504a5.138 5.138 0 0 0 1.788 1.789 4.85 4.85 0 0 0 2.504.67c.894 0 1.699-.238 2.414-.715a3.419 3.419 0 0 0 1.43-1.945h3.331a6.634 6.634 0 0 1-1.162 2.884c-.626.894-1.46 1.617-2.504 2.168-1.028.551-2.198.827-3.51.827Z"/><path fill="#AE8D0B" d="m41.548 49.677 1.22-3.296 3.297-1.22-3.297-1.22-1.22-3.296-1.22 3.296-3.296 1.22 3.297 1.22 1.22 3.296ZM3.613 13.548l.976-2.637 2.637-.976-2.637-.975-.976-2.637-.976 2.637L0 9.935l2.637.976.976 2.637Z"/></svg>