<svg xmlns="http://www.w3.org/2000/svg" fill="none" viewBox="0 0 173 167"><path fill="currentColor" d="M30.46 166.48h-5.27l-2.85-5.4H9.46l-2.85 5.4H.25c4.33-8.05 8.66-16.09 13-24.14h5.42l13.04 24.14h-1.25Zm-14.55-17.59-3.86 7.29h7.7l-3.84-7.29Zm23.94 17.59h-4.89v-24.14h5.86l10.32 14.44 10.23-14.44h5.82v24.14h-5.64v-15.51l-8.14 11.66h-4.62l-8.18-11.53v15.38h-.76Zm51.7 0H74.34v-24.14h16.73c2.49 0 4.52.59 5.94 1.69 1.47 1.13 2.28 2.77 2.28 4.82 0 1.35-.39 2.61-1.17 3.65-.4.54-.91 1.02-1.52 1.42.9.42 1.65.98 2.24 1.64.95 1.09 1.46 2.45 1.46 4.03 0 2.18-.82 3.93-2.39 5.13-1.5 1.13-3.64 1.76-6.36 1.76Zm1.15-18.75c-.53-.41-1.35-.63-2.45-.63H80.17v4.77h10.12c1.01 0 1.83-.24 2.37-.69.49-.4.76-1 .76-1.76 0-.75-.25-1.32-.72-1.69Zm.71 9.65c-.6-.47-1.54-.71-2.73-.71h-10.5v5.03h10.6c1.23 0 2.12-.23 2.68-.66.52-.39.77-1 .77-1.8 0-.82-.29-1.45-.82-1.86Zm17.52 9.1h-5.18v-24.14h5.93v24.14h-.75Zm13.08 0h-5.18v-24.14h15.66c2.83 0 5.04.72 6.57 2.05 1.59 1.37 2.42 3.36 2.42 5.82 0 2.23-.74 4.07-2.15 5.41-1.08 1.03-2.54 1.74-4.34 2.07l8.17 8.79h-7.57l-7.67-8.31h-5.17v8.31h-.74Zm12.66-18.44c-.62-.51-1.6-.78-2.93-.78h-8.98v5.97h8.98c1.3 0 2.28-.27 2.92-.79.59-.48.89-1.21.89-2.18 0-.99-.29-1.74-.88-2.22Zm34.93 18.44h-22.35v-24.14h22.88v4.93h-17.04v4.45h15.23v4.9h-15.23v4.94h17.27v4.93h-.76v-.01Zm-43.469-83.44-16.6-35.34s-.07-.06-.11-.06c-.06 0-.1.03-.1.1l-.07 12.24v.04c0 .1-.02.21-.06.31 0 .03-.02.05-.03.07-.04.09-.1.17-.16.23L85.451 85.3l16.81-39.33c.04-.1.06-.23.06-.36h.01c0-.12-.02-.23-.06-.35l-.18-.42-11.94-29.22-6.34-15.5a.18.18 0 0 0-.17-.12h-.01c-.09 0-.17.07-.18.18V34.6c0 .2-.08.41-.2.57l-12.84 17.39-5.89-11.59s-.01-.06-.02-.09c-.03-.1-.07-.19-.07-.29 0-.13.01-.26.05-.38l7.81-22.12s0-.08-.02-.11l-.01-.01c-.02-.02-.05-.04-.08-.04-.02 0-.03 0-.05.02-.01 0-.03 0-.04.01l-24.21 36.86-.03.05.02-.02-.52.79-.54.81-.02.02c-.2.29-.25.61-.08.94l4.33 9.02c.12.24.44.32.69.2h.02l14.2-8.04-21.76 29.5c-.29.37-.25.94.12 1.26l27.39 26.44c.25.24.65.16.78-.16l10.96-25.64V126c0 .45.49.66.82.37l43.67-42.19v-.01c.14-.15.23-.33.26-.53.04-.19 0-.4-.08-.6h.02Z"/></svg>