<svg width="48" height="56" viewBox="0 0 48 56" fill="none" xmlns="http://www.w3.org/2000/svg">
  <path d="M15 15.8111L23.9943 0L32.9999 15.8111L23.9943 21.0853L15 15.8111Z" fill="currentColor"/>
  <path d="M7.50586 29.004L12.0088 21.0869L24.0087 28.1115L36.0201 21.0869L40.523 29.004L24.0087 38.6715L7.50586 29.004Z" fill="currentColor"/>
  <path d="M0 42.1944L4.5028 34.2773L23.9999 45.6953L43.5199 34.2773L48 42.1944L47.3485 42.3335C40.617 43.7826 31.3485 49.2076 26.7771 54.4005C26.4299 54.7926 26.0051 55.1059 25.5306 55.3207C25.0562 55.5352 24.5423 55.646 24.0228 55.646C23.5033 55.646 22.9895 55.5352 22.5151 55.3207C22.0405 55.1059 21.6157 54.7926 21.2686 54.4005C16.6971 49.2076 7.3943 43.7826 0.6971 42.3335L0 42.1944Z" fill="currentColor"/>
</svg>
