<svg xmlns="http://www.w3.org/2000/svg" fill="none" viewBox="0 0 30 28"><path fill="currentColor" fill-rule="evenodd" d="M20.491 4.797 19.941 0H10.06l-.55 4.797-4.57-1.938L0 11.141 4.018 14 0 16.86l4.941 8.28 4.568-1.937.55 4.797h9.882l.55-4.797 4.568 1.938L30 16.859 25.982 14 30 11.14l-4.941-8.28-4.568 1.937ZM11.405 7.52 7.686 14l3.719 6.48h7.438L22.562 14l-3.719-6.48h-7.438Z" clip-rule="evenodd"/><path fill="currentColor" d="M18.1 14c0 1.6-1.333 2.897-2.976 2.897S12.15 15.6 12.15 14c0-1.6 1.332-2.896 2.975-2.896S18.1 12.4 18.1 14Z"/></svg>