<svg xmlns="http://www.w3.org/2000/svg" width="762" height="160" fill="none" viewBox="0 0 762 160"><path fill="#012f7a" d="M260.665 138.358q-10.53 0-19.465-5.212-8.935-5.319-14.253-14.253-5.212-8.935-5.212-19.465 0-10.531 5.212-19.466 5.318-8.934 14.253-14.147 8.935-5.318 19.465-5.318 9.468 0 16.806 4.361 7.446 4.255 11.807 10.85 4.362 6.487 5.425 13.296h-15.849q-.957-3.723-3.723-6.702a19.3 19.3 0 0 0-6.594-4.786q-3.83-1.702-7.872-1.702-6.487 0-11.913 3.191-5.318 3.191-8.509 8.616-3.192 5.318-3.191 11.807 0 6.487 3.191 11.913a24.45 24.45 0 0 0 8.509 8.509q5.426 3.19 11.913 3.191 6.382 0 11.488-3.404t6.808-9.254h15.848q-1.063 7.34-5.531 13.722-4.467 6.383-11.913 10.317-7.339 3.936-16.7 3.936m68.696 0q-7.445 0-13.721-3.723-6.276-3.829-9.999-10.211-3.723-6.488-3.723-14.147t3.723-14.04q3.723-6.489 9.999-10.212 6.276-3.83 13.721-3.829h.107q7.445 0 13.721 3.83 6.276 3.722 9.892 10.21 3.723 6.489 3.723 14.041t-3.723 14.041q-3.616 6.487-9.892 10.317-6.276 3.723-13.721 3.723zm.107-15.317q3.297 0 6.063-1.702a12.3 12.3 0 0 0 4.361-4.574q1.595-2.978 1.595-6.488 0-3.403-1.702-6.382-1.595-2.979-4.361-4.68-2.765-1.702-5.956-1.702h-.107q-3.297 0-6.063 1.702-2.764 1.701-4.467 4.68a13.3 13.3 0 0 0-1.596 6.382q0 3.404 1.596 6.382 1.702 2.979 4.467 4.68 2.766 1.702 6.063 1.702zM456.49 61.135l-20.848 76.585h-15.849l-10.212-38.292q-.424-1.702-.957-3.617a83 83 0 0 0-.957-4.042q-.425-2.021-.851-3.936a307 307 0 0 0-.851-3.722h-.106q-.426 1.702-.958 3.616a172 172 0 0 0-.851 3.83l-1.063 4.041a50 50 0 0 1-.958 3.83l-10.211 38.292h-15.849l-20.848-76.585h15.743l9.998 38.293q.426 1.595.851 3.51.426 1.807.851 3.723l.851 3.829q.425 1.807.638 3.51h.107q.425-2.02.957-4.148.532-2.234 1.064-4.574.425-1.596.744-2.979.426-1.489.745-2.871l10.211-38.293h15.849l10.211 38.293q.32 1.17.638 2.446.32 1.276.639 2.659a660 660 0 0 1 2.34 9.467h.106l.425-2.34q.214-1.17.532-2.447a162 162 0 0 1 2.234-9.785l9.892-38.293zm50.91 49.355q0 4.148 1.702 7.126 1.701 2.98 4.68 4.574 3.085 1.49 7.126 1.489 3.404 0 5.744-1.17 2.447-1.276 3.617-3.191 1.276-1.914 1.276-4.042 0-3.084-2.234-5.318-2.127-2.34-6.169-3.297l-8.828-2.128q-9.361-2.233-14.785-7.977-5.425-5.744-5.425-13.722 0-6.488 3.616-11.594 3.723-5.106 9.68-7.871 5.956-2.872 12.657-2.872 7.234 0 12.871 3.404 5.638 3.297 8.722 9.041 3.084 5.637 3.085 12.551H529.63q0-4.573-2.871-7.445-2.766-2.979-7.34-2.979-2.978 0-5.212 1.17-2.127 1.17-3.297 2.979-1.064 1.807-1.064 3.723 0 2.34 1.596 4.254 1.595 1.809 5.212 2.66l8.615 2.127q11.169 2.766 16.594 8.403 5.53 5.638 5.531 14.572 0 6.914-3.404 12.232-3.404 5.32-9.467 8.297-5.957 2.872-13.508 2.872-7.978 0-14.573-3.404-6.594-3.403-10.53-9.679-3.936-6.382-3.936-14.785zm129.972-27.656-18.083 54.886h-14.253l-7.127-22.125-.532-1.489q-3.935-12.444-3.51-11.168h-.106a314 314 0 0 1-3.191 10.317 22 22 0 0 0-.426 1.17q-.106.639-.319 1.17l-7.126 22.125h-14.254l-18.082-54.886h15.53l6.382 21.38q1.808 5.744 3.51 12.764h.106q.639-2.66 2.766-9.573.318-.85.532-1.595.319-.852.531-1.596l7.021-21.38h14.253l7.02 21.38.213.532q1.914 6.17 3.723 12.232h.106q.745-3.616 2.659-10.424.213-.531.426-1.17a10 10 0 0 0 .319-1.17l6.382-21.38zm56.635 0v54.886H678.69v-6.595q-3.19 3.404-7.233 5.318-3.934 1.915-8.403 1.915-6.381 0-11.7-3.723-5.319-3.829-8.509-10.211-3.085-6.488-3.085-14.147t3.085-14.04q3.19-6.489 8.509-10.212 5.319-3.83 11.7-3.829 4.469 0 8.403 1.915 4.043 1.914 7.233 5.318v-6.595zm-27.123 40.207q3.19 0 5.85-1.702 2.766-1.701 4.361-4.68a13.3 13.3 0 0 0 1.595-6.382 13.3 13.3 0 0 0-1.595-6.382q-1.595-2.979-4.361-4.68-2.66-1.702-5.85-1.702-3.192 0-5.957 1.702-2.66 1.701-4.255 4.68a13.3 13.3 0 0 0-1.595 6.382q0 3.404 1.595 6.382 1.596 2.979 4.255 4.68 2.765 1.702 5.957 1.702m40.87-40.207h15.317v7.127q2.552-4.042 6.488-5.85 3.936-1.915 8.722-1.915 6.382 0 11.807 3.617 5.531 3.51 8.722 9.998 3.19 6.382 3.191 14.466t-3.191 14.572q-3.191 6.383-8.722 9.999-5.425 3.51-11.807 3.51-4.36 0-8.403-2.127-4.043-2.128-6.807-5.638v28.826h-15.317zm27.123 14.679q-3.191 0-5.956 1.702-2.66 1.701-4.255 4.68a13.3 13.3 0 0 0-1.595 6.382q0 3.404 1.595 6.382 1.596 2.979 4.255 4.68 2.765 1.702 5.956 1.702t5.851-1.702q2.765-1.701 4.361-4.68a13.3 13.3 0 0 0 1.595-6.382 13.3 13.3 0 0 0-1.595-6.382q-1.596-2.979-4.361-4.68-2.66-1.702-5.851-1.702"/><path fill="#012f7a" fill-rule="evenodd" d="M151.659 60.8h30.684l-8.181 25.785a20.32 20.32 0 0 1-19.372 14.176h-8.464l-13.767 43.395a20.325 20.325 0 0 1-19.371 14.176H69.156a20.32 20.32 0 0 1-19.372-14.176l-13.766-43.395h-8.465A20.32 20.32 0 0 1 8.18 86.585L0 60.8h30.685L14.5 36.418h153.343zM69.674 77.055a10.2 10.2 0 0 0-2.2.24 10.2 10.2 0 0 0-2.534.928 11.1 11.1 0 0 0-3.623 3.059 12 12 0 0 0-1.244 1.976 12.6 12.6 0 0 0-1.318 5.65c0 6.546 4.889 11.853 10.919 11.853 2.6 0 4.987-.989 6.862-2.636q.224-.196.437-.404a11.8 11.8 0 0 0 2.466-3.514c.104-.225.205-.453.295-.686a12.6 12.6 0 0 0 .81-3.544q.047-.528.048-1.07c0-4.704-2.525-8.77-6.185-10.684q-.238-.125-.483-.237a10.2 10.2 0 0 0-3.969-.928zm42.996 0a10 10 0 0 0-2.2.24 10.2 10.2 0 0 0-2.533.928c-2.069 1.082-3.775 2.852-4.868 5.035a12.6 12.6 0 0 0-1.317 5.65c0 6.546 4.888 11.853 10.918 11.853 5.465 0 9.992-4.359 10.793-10.049q.125-.882.125-1.804c0-4.706-2.525-8.77-6.185-10.685q-.239-.125-.483-.237a10.2 10.2 0 0 0-3.968-.928z" clip-rule="evenodd"/><path fill="#005eb7" d="m171.336 60.8-97.53 97.532h-4.65q-.494-.001-.984-.025L165.68 60.8zm-29.845 55.202-42.33 42.33h-5.657l50.616-50.616zm-36.712-18.907q.488.556 1.039 1.039l1.413 1.413-52.639 52.638a20.3 20.3 0 0 1-2.508-3.148l52.319-52.318zm-58.01 37.555-1.362-4.294 93.939-93.939h5.656zm12.23-43.245a12.3 12.3 0 0 0 1.585 4.072L40.662 115.4l-1.363-4.294zm116.675-9.587-18.84 18.839q-1.01.103-2.043.104h-3.715l27.227-27.229zm-145.73 18.943h-2.39c-1.03 0-2.044-.079-3.039-.229L88.63 36.417h5.657zM11.92 93.427a20.3 20.3 0 0 1-2.278-3.38l53.63-53.63h5.658zm150.953-49.522-39.757 39.758-1.413-1.413a12 12 0 0 0-1.217-1.614l44.218-44.219h3.139zm-86.426 35.71a10.6 10.6 0 0 0-3.605-2.051l41.147-41.147h5.656zM4.622 75.367l-1.363-4.294L13.535 60.8h5.656zm21.476-21.476-2.257-3.4 14.075-14.074h5.657z"/><path stroke="#d0ac10" stroke-width="4" d="M91.172 36.417v121.915"/><path fill="#d0ac10" d="m142.529 112.729-97.524 16.365-1.22-3.85 100.103-16.799zM95.171 17.488l8.745-15.145 6.928 4-8.745 15.146 15.147-8.744 4 6.928-15.146 8.744h17.488v8H58.755v-8h17.488l-15.146-8.744 4-6.929 15.147 8.745-8.745-15.146 6.928-4 8.744 15.145V0h8z"/></svg>