<svg xmlns="http://www.w3.org/2000/svg" fill="none" viewBox="0 0 111 16"><path fill="currentColor" fill-rule="evenodd" d="M11.951 2.74 11.637 0H5.99l-.314 2.74-2.61-1.106L.242 6.366 2.538 8 .242 9.634l2.824 4.732 2.61-1.107L5.99 16h5.647l.314-2.74 2.61 1.106 2.824-4.732L15.089 8l2.296-1.634-2.824-4.732-2.61 1.107ZM6.76 4.298 4.634 8l2.125 3.703h4.25L13.136 8 11.01 4.297H6.76Z" clip-rule="evenodd"/><path fill="currentColor" d="M10.585 8c0 .914-.762 1.655-1.7 1.655-.94 0-1.7-.74-1.7-1.655 0-.914.76-1.655 1.7-1.655.938 0 1.7.74 1.7 1.655Zm99.238-1.975c.14 0 .378.014.714.042.018.01.037.014.056.014h.056v2.016h-.028c-.01 0-.019-.004-.028-.014a7.287 7.287 0 0 0-.448-.056 5.77 5.77 0 0 0-.574-.028c-.551 0-.976.154-1.274.462-.299.299-.448.766-.448 1.4v3.472h-2.016V6.11h2.016v.966a2.01 2.01 0 0 1 .826-.784 2.475 2.475 0 0 1 1.148-.266Zm-10.126 4.242c.065.42.224.756.476 1.008s.616.378 1.092.378c.205 0 .387-.033.546-.098.159-.065.289-.15.392-.252a.986.986 0 0 0 .238-.364h2.002c-.028.28-.154.611-.378.994s-.569.728-1.036 1.036c-.467.299-1.055.448-1.764.448a3.737 3.737 0 0 1-1.876-.476 3.56 3.56 0 0 1-1.316-1.316 3.843 3.843 0 0 1-.476-1.904c0-.681.159-1.302.476-1.862a3.637 3.637 0 0 1 1.316-1.344 3.55 3.55 0 0 1 1.82-.49c.607 0 1.167.168 1.68.504.523.327.933.775 1.232 1.344.299.56.448 1.176.448 1.848 0 .196-.009.378-.028.546h-4.844Zm1.512-2.478c-.392 0-.709.108-.952.322-.243.206-.406.49-.49.854h2.758a1.673 1.673 0 0 0-.238-.616 1.103 1.103 0 0 0-.448-.406 1.234 1.234 0 0 0-.63-.154Zm-8.653-4.536v10.08H90.54V3.253h2.016ZM94.6 8.98l2.996 4.354h-2.31l-2.898-4.228L94.6 8.98Zm2.604-2.87-2.94 3.43-.966.798-1.022 1.19-1.008-1.218 3.57-4.2h2.366ZM87.148 8.867a1.204 1.204 0 0 0-.504-.672 1.426 1.426 0 0 0-.84-.266c-.327 0-.611.084-.854.252-.243.168-.43.388-.56.658a2.13 2.13 0 0 0-.182.882c0 .308.065.602.196.882.14.271.331.49.574.658.243.168.518.252.826.252.336 0 .635-.088.896-.266.261-.186.42-.415.476-.686h1.988c-.019.392-.177.812-.476 1.26-.29.448-.69.826-1.204 1.134a3.159 3.159 0 0 1-1.68.462 3.475 3.475 0 0 1-1.806-.49 3.782 3.782 0 0 1-1.316-1.344 3.676 3.676 0 0 1-.49-1.862c0-.672.163-1.288.49-1.848a3.637 3.637 0 0 1 1.316-1.344 3.402 3.402 0 0 1 1.806-.504c.69 0 1.283.15 1.778.448.504.29.891.654 1.162 1.092.27.439.42.873.448 1.302h-2.044Zm-9.587 4.55a3.475 3.475 0 0 1-1.806-.49 3.782 3.782 0 0 1-1.316-1.344 3.676 3.676 0 0 1-.49-1.862c0-.672.164-1.288.49-1.848a3.637 3.637 0 0 1 1.316-1.344 3.402 3.402 0 0 1 1.806-.504h.014c.654 0 1.256.168 1.806.504.55.327.985.775 1.302 1.344.327.57.49 1.186.49 1.848 0 .663-.163 1.279-.49 1.848a3.64 3.64 0 0 1-1.302 1.358c-.55.327-1.152.49-1.806.49h-.014Zm.014-2.016c.29 0 .556-.075.798-.224.243-.15.434-.35.574-.602.14-.261.21-.546.21-.854 0-.298-.074-.578-.224-.84a1.589 1.589 0 0 0-.574-.616 1.47 1.47 0 0 0-.784-.224h-.014c-.29 0-.555.075-.798.224-.242.15-.438.355-.588.616-.14.262-.21.542-.21.84 0 .299.07.579.21.84.15.261.346.467.588.616.243.15.509.224.798.224h.014Zm-4.922 1.932h-2.016V3.253h2.016v10.08ZM67.79 8.181c.448.224.812.56 1.092 1.008.28.439.415.896.406 1.372 0 .495-.14.957-.42 1.386-.271.42-.64.756-1.106 1.008a3.105 3.105 0 0 1-1.498.378h-4.578V3.253h4.186c.55 0 1.054.126 1.512.378.466.243.835.579 1.106 1.008.27.42.406.882.406 1.386 0 .43-.098.83-.294 1.204a2.882 2.882 0 0 1-.812.938v.014ZM63.702 5.27v2.016h2.17c.186 0 .354-.042.504-.126a.973.973 0 0 0 .364-.364c.093-.158.14-.331.14-.518a.932.932 0 0 0-.14-.504.857.857 0 0 0-.364-.364.932.932 0 0 0-.504-.14h-2.17Zm2.562 6.048c.186 0 .354-.042.504-.126a.974.974 0 0 0 .364-.364c.093-.158.14-.331.14-.518a.932.932 0 0 0-.14-.504.857.857 0 0 0-.364-.364.932.932 0 0 0-.504-.14h-2.562v2.016h2.562Zm-9.701-8.065-3.528 10.08h-2.016L47.49 3.253h2.142l1.68 5.04c.065.206.13.42.196.644l.224.672c.056.159.107.318.154.476.047.15.093.294.14.434h.014c.037-.112.07-.224.098-.336l.112-.364c.084-.261.163-.518.238-.77.084-.261.168-.513.252-.756l1.68-5.04h2.142ZM46.806 5.27h-5.124v2.015h4.592v2.016h-4.592v2.016h5.124v2.016h-7.14V3.253h7.14V5.27Zm-9.121 8.063h-2.016V5.857h-.014c-.01.056-.023.112-.042.168-.01.056-.023.112-.042.168-.084.327-.173.635-.266.924a41.9 41.9 0 0 1-.28.812l-1.876 5.404h-2.044L29.229 7.93a9.378 9.378 0 0 1-.182-.546 19.69 19.69 0 0 0-.182-.574 9.986 9.986 0 0 1-.126-.434l-.112-.448h-.014v7.406h-2.016V3.253h3.01L31.23 7.93c.075.215.15.444.224.686.084.243.163.486.238.728l.224.728c.075.234.145.462.21.686h.014l.196-.686a69.27 69.27 0 0 1 .672-2.142l1.638-4.676h3.038v10.08Z"/></svg>