<svg xmlns="http://www.w3.org/2000/svg" fill="none" viewBox="0 0 316 46"><path fill="currentColor" fill-rule="evenodd" d="M22.74.14C11.846.14 2.746 7.85.5 18.103c6.407-7.628 15.589-11.155 25.71-10.54-5.388.984-9.428 3.937-12.039 7.505.163-.041.286-.082.449-.164a22.064 22.064 0 0 1 6.488-.985c3.306 0 6.53.657 9.509 1.969a24.295 24.295 0 0 1 7.468 5.044c2.815 2.748 4.896 6.11 6.08 9.637a23.286 23.286 0 0 0 1.265-7.587C45.512 10.352 35.31.141 22.74.141Zm-1.632 17.923c-8.814 0-16.608 6.848-19.22 14.148a22.637 22.637 0 0 0 3.958 6.15c3.428-5.043 9.182-10.825 12.855-11.85-2.735 3.116-6.448 9.267-8.366 15.706a22.582 22.582 0 0 0 6.815 2.993c3.387-6.561 7.386-11.36 12.038-14.435-2.04 2.133-4.733 9.268-5.468 15.091 7.183-.287 13.549-3.977 17.507-9.472 0-.042 0-.083.04-.165-.611-8.693-8.65-18.166-20.159-18.166Zm61.254-8.574c-8.366 0-14.324 6.07-14.324 13.574 0 7.505 5.958 13.574 14.324 13.574 8.365 0 14.323-6.07 14.323-13.574 0-7.463-5.958-13.574-14.323-13.574Zm.04 20.136c-3.632 0-6.203-2.953-6.203-6.562 0-3.609 2.571-6.561 6.204-6.561 3.631 0 6.202 2.952 6.202 6.561s-2.57 6.562-6.203 6.562Zm80.434-19.437h8.162v25.794h-8.162V10.188Zm40.277 25.793c0-3.608 2.571-6.561 6.204-6.561 3.631 0 6.202 2.953 6.243 6.561h-12.447ZM112.763 9.49c3.428 0 6.04 1.23 7.836 3.486v-2.83h8.161V35.94h-8.161v-2.83c-1.837 2.256-4.448 3.527-7.836 3.527-7.141 0-12.61-6.07-12.61-13.574s5.469-13.574 12.61-13.574Zm-4.488 13.574c0 3.609 2.57 6.562 6.202 6.562s6.122-2.953 6.122-6.562c0-3.609-2.49-6.561-6.122-6.561-3.632 0-6.202 2.952-6.202 6.561Zm129.566-10.088c-1.795-2.255-4.407-3.486-7.835-3.486-7.141 0-12.61 6.07-12.61 13.574 0 7.505 5.469 13.574 12.61 13.574 3.387 0 5.999-1.271 7.835-3.527v2.83h8.162V10.146h-8.162v2.83Zm-6.121 16.65c-3.632 0-6.203-2.953-6.203-6.562 0-3.609 2.571-6.561 6.203-6.561s6.121 2.952 6.121 6.561-2.489 6.562-6.121 6.562Zm29.301-16.65c1.836-2.255 4.448-3.486 7.835-3.486 7.182 0 12.61 6.11 12.61 13.615s-5.469 13.574-12.61 13.574c-3.428 0-6.04-1.271-7.835-3.527v9.965h-8.162v-32.93h8.162v2.79Zm.041 10.088c0 3.609 2.489 6.562 6.121 6.562 3.632 0 6.203-2.953 6.203-6.562 0-3.609-2.571-6.561-6.203-6.561s-6.121 2.952-6.121 6.561ZM302.89 9.49c-3.387 0-5.999 1.23-7.835 3.486v-2.788h-8.162v32.93h8.162V33.15c1.796 2.256 4.407 3.527 7.835 3.527 7.142 0 12.61-6.07 12.61-13.574S310.032 9.49 302.89 9.49Zm-1.714 20.136c-3.632 0-6.121-2.953-6.121-6.562 0-3.609 2.489-6.561 6.121-6.561 3.632 0 6.203 2.952 6.203 6.561.041 3.609-2.571 6.562-6.203 6.562ZM145.533 14.658c-1.877 0-2.938.82-2.938 1.968 0 1.865 2.467 2.608 5.376 3.484 4.19 1.262 9.298 2.8 9.274 8.368 0 3.485-1.959 8.16-11.834 8.16-7.06 0-10.896-2.296-11.509-9.022h8.04c-.082 1.887 1.265 3.568 3.836 3.568 2.326 0 3.55-.738 3.55-2.42 0-1.543-2.269-2.197-5.03-2.993-4.281-1.236-9.743-2.811-9.743-8.57 0-3.076 2.327-7.628 10.978-7.628 8.611 0 11.018 3.485 11.385 8.406h-7.916c0-1.968-1.347-3.321-3.469-3.321Zm39.584 1.968c0-1.148 1.061-1.968 2.938-1.968 2.122 0 3.468 1.353 3.468 3.321h7.917c-.367-4.92-2.775-8.406-11.385-8.406-8.611 0-10.978 4.552-10.978 7.627 0 5.76 5.462 7.335 9.743 8.57 2.76.797 5.03 1.451 5.03 2.995 0 1.681-1.224 2.42-3.55 2.42-2.571 0-3.918-1.682-3.836-3.569h-7.999c.612 6.726 4.448 9.022 11.508 9.022 9.876 0 11.835-4.675 11.835-8.16 0-5.566-5.115-7.105-9.309-8.367-2.914-.876-5.382-1.619-5.382-3.485Z" clip-rule="evenodd"/></svg>