<svg xmlns="http://www.w3.org/2000/svg" fill="none" viewBox="0 0 1532 262"><path fill="currentColor" fill-rule="evenodd" d="M1409.29 79.26V66.605c0-19.793 14.39-24.5 24.86-24.5h15.11V3.598C1445.3 1.799 1435.59 0 1425.48 0 1386.23 0 1361 25.94 1361 65.915V79.29h-25.1v40.905h25.1v136.688h48.44V120.195h67.23v136.688h48.43V79.26h-115.81ZM499.041 97.043c13.013-13.942 31.99-22.068 56.484-22.071 50.252.006 80.684 34.191 80.684 82.528v99.383h-48.431V153.542c0-22.761-13.405-34.097-32.268-34.097s-32.268 11.365-32.268 34.097v103.341H474.81V153.542c0-22.761-13.405-34.097-32.267-34.097-18.863 0-32.268 11.365-32.268 34.097v103.341h-48.432V157.5c0-48.371 30.439-82.528 80.7-82.528 24.5 0 43.483 8.157 56.498 22.071Zm-402.867 54.61a1023.42 1023.42 0 0 0-9.122-1.876c-5.495-1.113-11.01-2.229-16.849-3.582-12.865-2.999-19.222-7.138-19.222-17.214 0-10.076 10.586-17.633 23.78-17.633 21.143 0 26.96 13.315 28.46 23.781l44.053-8.997c-2.279-19.073-20.002-51.13-72.872-51.13-40.035 0-69.484 26.3-69.484 57.968 0 31.668 24.47 46.632 48.342 52.66 5.27 1.333 9.66 2.322 14.018 3.304h.002c3.776.851 7.526 1.695 11.8 2.753 13.045 3.239 22.522 5.878 22.522 15.145 0 9.266-7.948 17.633-24.561 17.633-21.892 0-30.139-12.955-31.278-26.75L0 206.712c2.28 19.912 21.532 54.489 77.43 54.489 48.732 0 72.123-28.759 72.123-57.578 0-30.289-17.243-44.233-53.38-51.94v-.03Zm191.477 30.948c0 22.731-14.844 34.097-33.737 34.097s-33.737-11.336-33.737-34.097V79.26h-48.432v99.382c0 48.342 31.908 82.529 82.169 82.529 50.261 0 82.169-34.157 82.169-82.529V79.26h-48.432v103.341Zm570.714-107.63c-24.486.007-43.459 8.133-56.469 22.072-13.015-13.915-31.997-22.071-56.498-22.071-50.261 0-80.7 34.157-80.7 82.528v99.383h48.432V153.542c0-22.732 13.405-34.097 32.268-34.097s32.268 11.336 32.268 34.097v103.341h48.431V153.542c0-22.732 13.405-34.097 32.268-34.097s32.268 11.336 32.268 34.097v103.341h48.432V157.5c0-48.332-30.427-82.515-80.7-82.528Zm353.775 32.508c7.26-18.023 28.46-30.378 48.79-30.378h.03c5.97 0 11.25.72 15.78 2.159v40.905h-15.03c-25.79 0-45.61 17.693-45.61 48.071v88.617h-48.43V79.26h44.47v28.219Zm254.75-65.345c0-18.258 14.69-32.95 32.56-32.957 17.86.008 32.55 14.7 32.55 32.957h-65.11Zm32.56-32.957h.01-.03.02Zm-210.91 214.748c-17.87.008-32.56 14.7-32.56 32.958h65.11c0-18.258-14.69-32.95-32.55-32.958Zm-231.5-3.808c22.01 0 33.74-11.876 39.94-26.57l42.2 13.854c-10.08 29.539-38.69 53.77-82.5 53.77-50.26 0-94.524-34.937-94.524-94.704 0-56.529 43.184-91.495 90.054-91.495 56.56 0 90.42 34.696 90.42 91.585 0 5.162-.43 9.658-.64 11.861-.07.714-.11 1.188-.11 1.364h-130.96c1.11 23.421 21.56 40.335 46.12 40.335Zm36.83-71.313c-.75-17.664-12.66-34.937-40.94-34.937-25.67 0-39.82 18.743-40.93 34.937h81.87Z" clip-rule="evenodd"/></svg>