<svg xmlns="http://www.w3.org/2000/svg" fill="none" viewBox="0 0 78 87"><path fill="currentColor" d="M76.964 38.014c-.558-7.804-4.422-14.975-10.628-19.695L40.065 0s16.424 23.708 30.322 47.267a23.73 23.73 0 0 1 2.786 8.026 13.465 13.465 0 0 1 0 3.865c.372-.67 1.078-2.044 1.078-2.044a30.155 30.155 0 0 0 2.824-9.104c.223-3.307.223-6.652-.111-9.996Z"/><path fill="currentColor" d="M10.077 20.326c.817-1.486 1.97-2.787 3.381-3.716L37.203.037l-24.34 40.244s-2.117-3.605-2.972-5.426a17.268 17.268 0 0 1 .186-14.529ZM.267 48.084c.557 7.804 4.422 14.975 10.627 19.694l26.272 18.32S20.742 62.39 6.844 38.831a23.728 23.728 0 0 1-2.787-8.026 13.466 13.466 0 0 1 0-3.865c-.371.67-1.078 2.044-1.078 2.044a30.151 30.151 0 0 0-2.824 9.104c-.223 3.307-.223 6.689.112 9.996Zm66.998 3.196c-.855-1.821-2.973-5.425-2.973-5.425L39.99 86.097l23.745-16.573c1.412-.929 2.564-2.23 3.382-3.716a17.132 17.132 0 0 0 .148-14.53Zm9.662-13.229c-.558-7.803-4.422-14.975-10.628-19.694L40.064.037S56.49 23.745 70.388 47.304a23.73 23.73 0 0 1 2.787 8.026 13.465 13.465 0 0 1 0 3.865c.371-.67 1.077-2.044 1.077-2.044a30.15 30.15 0 0 0 2.824-9.104c.26-3.344.26-6.689-.074-10.033l-.074.037Z"/></svg>
