<svg xmlns="http://www.w3.org/2000/svg" viewBox="0 0 96.99 89.17"><defs><style>.e7f406cc-3c06-4a30-97a5-bddbf32f130c{fill:#4a0151;}.a5730b2a-8320-4a06-8a96-b18fb2eaf74b{fill:#fff;}</style></defs><title>Asset 1</title><g id="a4eb77bf-207f-4d31-8ed5-0146622b9dbe" data-name="Layer 2"><g id="ec817b9b-350f-4664-b313-94b4aeef7578" data-name="Layer 1"><path class="e7f406cc-3c06-4a30-97a5-bddbf32f130c" d="M37.89,22.35a30.62,30.62,0,0,1,.8,4.29,16.62,16.62,0,0,0,1.92,6.49C42.48,36.55,45.89,40,49.27,40c2.52,0,3.55-1.73,5-4.56.3-.58.61-1.17.95-1.76a25.64,25.64,0,0,0,3-8.06,41.32,41.32,0,0,1,2-6.69A38.43,38.43,0,0,1,65,10.44Q57.59,5.09,50.21,0q-.75,9.17-1.52,18.33l-2.23.35L44.69.12l-13,8.81-1.87,1.6C35.31,14.94,37.06,19.28,37.89,22.35Z"/><path class="e7f406cc-3c06-4a30-97a5-bddbf32f130c" d="M96.62,29.84a19.29,19.29,0,0,0-8.81-12.92,19.41,19.41,0,0,0-16-1.53c-1.58-1.17-3.19-2.33-4.79-3.5a35.41,35.41,0,0,0-4.52,8,39.92,39.92,0,0,0-1.89,6.33,28.08,28.08,0,0,1-3.24,8.75c-.31.53-.61,1.1-.9,1.65-1.44,2.76-3.08,5.89-7.22,5.89-4.69,0-8.77-4.39-10.83-8.16A18.75,18.75,0,0,1,36.25,27a29.8,29.8,0,0,0-.74-4c-.75-2.79-2.37-6.76-7.64-10.83l-2.8,2.4a21.31,21.31,0,0,0-7.75-.47c-1.53.19-8,1-12.57,6.23-5,5.77-6.53,15.18-2.24,21.38a14.31,14.31,0,0,0,5.17,4.46,15.17,15.17,0,0,0,.12,8.11,16.39,16.39,0,0,0,5.64,7.87c5.33,4.46,17.55,14.33,34.19,27,13.51-10.11,23.95-18,31-23,2-1.45,6.14-4.29,8.1-9.52a18.16,18.16,0,0,0,.94-8.58,15.35,15.35,0,0,0,6.11-4.58C98.09,38,96.91,31.45,96.62,29.84Z"/><ellipse class="a5730b2a-8320-4a06-8a96-b18fb2eaf74b" cx="18.48" cy="32.62" rx="12.82" ry="13.09"/><ellipse class="a5730b2a-8320-4a06-8a96-b18fb2eaf74b" cx="78.23" cy="33.15" rx="12.82" ry="13.09"/><path class="a5730b2a-8320-4a06-8a96-b18fb2eaf74b" d="M35.18,55.57c5.64,1.53,11.15,1.76,23.14.35A91,91,0,0,0,72.89,53a3.41,3.41,0,0,1,1.76,2.23c.21,1.59-1.64,3.57-4.49,5.55-4.76,3.31-7,4.47-10.55,5.73a37.05,37.05,0,0,1-14.33,1.88c-7-.43-11.1-2.1-17.51-5.23-4.64-2.27-7-4.46-7.4-6.76a5.92,5.92,0,0,1,.94-3.87C21.73,52.47,33.26,55.05,35.18,55.57Z"/><ellipse class="e7f406cc-3c06-4a30-97a5-bddbf32f130c" cx="74.82" cy="36.32" rx="2.64" ry="2.51"/><ellipse class="e7f406cc-3c06-4a30-97a5-bddbf32f130c" cx="22.73" cy="36.32" rx="2.64" ry="2.51"/></g></g></svg>