<svg width="66" height="66" viewBox="0 0 66 66" fill="none" xmlns="http://www.w3.org/2000/svg">
  <path
    d="M65.4055 32.7027C65.4055 50.7639 50.764 65.4054 32.7028 65.4054C14.6415 65.4054 0 50.7639 0 32.7027C0 14.6415 14.6415 0 32.7028 0C50.764 0 65.4055 14.6415 65.4055 32.7027Z"
    fill="#1F5BD6" />
  <path fill-rule="evenodd" clip-rule="evenodd"
    d="M27.1126 49.5888C24.9231 49.5888 22.9858 48.1712 22.3238 46.0846L18.9206 35.3573H16.8282C14.6388 35.3573 12.7014 33.9397 12.0395 31.8531L10.0173 25.479H17.6023L13.6017 19.4515H51.5079L47.5073 25.479H55.0923L53.0701 31.8531C52.4081 33.9397 50.4708 35.3573 48.2813 35.3573H46.189L42.7857 46.0846C42.1238 48.1712 40.1864 49.5888 37.997 49.5888H27.1126ZM24.5414 32.4273C24.5414 34.0455 25.7498 35.3573 27.2404 35.3573C28.7311 35.3573 29.9394 34.0455 29.9394 32.4273C29.9394 30.8091 28.7311 29.4973 27.2404 29.4973C25.7498 29.4973 24.5414 30.8091 24.5414 32.4273ZM40.5681 32.4273C40.5681 34.0455 39.3598 35.3573 37.8691 35.3573C36.3785 35.3573 35.1701 34.0455 35.1701 32.4273C35.1701 30.8091 36.3785 29.4973 37.8691 29.4973C39.3598 29.4973 40.5681 30.8091 40.5681 32.4273Z"
    fill="#FFFFFF" />
</svg>
