<svg xmlns="http://www.w3.org/2000/svg" width="763" height="175" fill="none" viewBox="0 0 763 175"><path fill="#fff" d="M261.077 126.824q-10.531 0-19.466-5.212-8.934-5.319-14.253-14.253-5.212-8.935-5.212-19.466 0-10.53 5.212-19.465 5.319-8.934 14.253-14.147 8.935-5.318 19.466-5.318 9.466 0 16.806 4.361 7.446 4.254 11.806 10.85 4.362 6.488 5.425 13.295h-15.849q-.957-3.722-3.722-6.7a19.3 19.3 0 0 0-6.595-4.787q-3.83-1.702-7.871-1.702-6.489 0-11.914 3.19-5.318 3.192-8.509 8.617-3.19 5.317-3.191 11.806t3.191 11.914a24.44 24.44 0 0 0 8.509 8.509q5.425 3.19 11.914 3.191 6.382 0 11.487-3.404t6.808-9.254h15.849q-1.064 7.34-5.532 13.722-4.467 6.382-11.913 10.317-7.34 3.936-16.699 3.936m68.696 0q-7.446 0-13.722-3.723-6.276-3.83-9.998-10.211-3.723-6.488-3.723-14.147t3.723-14.04q3.723-6.489 9.998-10.212 6.276-3.83 13.722-3.83h.106q7.446 0 13.721 3.83 6.276 3.723 9.893 10.211 3.722 6.489 3.722 14.04 0 7.554-3.722 14.041-3.617 6.489-9.893 10.318-6.275 3.723-13.721 3.723zm.106-15.317q3.297 0 6.063-1.702a12.3 12.3 0 0 0 4.361-4.574q1.596-2.978 1.595-6.488 0-3.405-1.701-6.382-1.596-2.979-4.361-4.68-2.766-1.702-5.957-1.702h-.106q-3.299 0-6.063 1.702-2.766 1.701-4.468 4.68a13.3 13.3 0 0 0-1.595 6.382q0 3.403 1.595 6.382 1.702 2.977 4.468 4.68 2.764 1.702 6.063 1.702zm127.022-61.906-20.848 76.585h-15.849l-10.211-38.293a144 144 0 0 0-.958-3.616 82 82 0 0 0-.957-4.042 339 339 0 0 0-1.702-7.659h-.106q-.426 1.702-.957 3.617a162 162 0 0 0-.851 3.83l-1.064 4.041a51 51 0 0 1-.957 3.83l-10.212 38.292h-15.848l-20.848-76.585h15.742l9.999 38.292a87 87 0 0 1 .85 3.51q.426 1.809.851 3.723l.851 3.83a33 33 0 0 1 .639 3.51h.106q.426-2.021.957-4.149.532-2.233 1.064-4.573.426-1.596.744-2.979.426-1.49.745-2.872l10.211-38.292h15.849l10.211 38.292q.32 1.17.639 2.447.318 1.275.638 2.659a658 658 0 0 1 2.34 9.467h.106l.426-2.34q.213-1.17.532-2.447a162 162 0 0 1 2.233-9.786l9.892-38.292zm50.91 49.355q0 4.148 1.702 7.126t4.68 4.574q3.084 1.49 7.127 1.489 3.403 0 5.743-1.17 2.447-1.276 3.617-3.191 1.276-1.915 1.276-4.042 0-3.085-2.233-5.318-2.128-2.34-6.17-3.298L514.725 93q-9.36-2.234-14.785-7.977-5.425-5.745-5.425-13.722 0-6.488 3.617-11.594 3.722-5.106 9.679-7.871 5.956-2.872 12.658-2.872 7.233 0 12.87 3.404 5.638 3.297 8.722 9.04 3.085 5.64 3.085 12.552h-15.104q0-4.573-2.872-7.446-2.766-2.978-7.339-2.978-2.978 0-5.213 1.17-2.127 1.17-3.297 2.979-1.064 1.808-1.064 3.722 0 2.34 1.596 4.255 1.596 1.809 5.212 2.66l8.616 2.127q11.168 2.764 16.593 8.403 5.53 5.637 5.531 14.572 0 6.914-3.404 12.232-3.403 5.319-9.466 8.297-5.957 2.872-13.509 2.872-7.977 0-14.572-3.404t-10.531-9.679q-3.935-6.382-3.935-14.785zM637.783 71.3 619.7 126.186h-14.253l-7.126-22.125-.532-1.489q-3.936-12.445-3.51-11.169h-.107a311 311 0 0 1-3.191 10.318q-.213.532-.425 1.17a5.7 5.7 0 0 1-.319 1.17l-7.127 22.125h-14.253L550.774 71.3h15.53l6.382 21.38q1.808 5.744 3.51 12.764h.106q.639-2.66 2.766-9.573.32-.851.532-1.596.32-.85.532-1.595l7.02-21.38h14.253l7.02 21.38.213.532q1.916 6.17 3.723 12.232h.106q.745-3.617 2.66-10.424.212-.532.425-1.17t.319-1.17l6.382-21.38zm56.636 0v54.886h-15.317v-6.595q-3.192 3.404-7.233 5.318-3.936 1.915-8.403 1.915-6.382 0-11.701-3.723-5.318-3.83-8.509-10.211-3.085-6.488-3.085-14.147t3.085-14.04q3.191-6.489 8.509-10.212 5.319-3.83 11.701-3.83 4.467.001 8.403 1.915 4.041 1.915 7.233 5.319V71.3zm-27.124 40.207q3.19 0 5.85-1.702 2.766-1.703 4.361-4.68a13.3 13.3 0 0 0 1.596-6.382q0-3.405-1.596-6.382-1.596-2.979-4.361-4.68-2.66-1.702-5.85-1.702t-5.957 1.702q-2.66 1.701-4.254 4.68a13.3 13.3 0 0 0-1.596 6.382q0 3.403 1.596 6.382 1.595 2.977 4.254 4.68 2.766 1.702 5.957 1.702m40.87-40.207h15.317v7.127q2.553-4.042 6.488-5.85 3.936-1.915 8.722-1.915 6.383 0 11.807 3.616 5.532 3.51 8.722 9.999 3.191 6.382 3.191 14.466t-3.191 14.572q-3.19 6.382-8.722 9.999-5.424 3.51-11.807 3.51-4.36 0-8.403-2.127-4.041-2.128-6.807-5.638v28.826h-15.317zm27.124 14.679q-3.192 0-5.957 1.702-2.66 1.701-4.255 4.68a13.3 13.3 0 0 0-1.595 6.382q0 3.403 1.595 6.382 1.596 2.977 4.255 4.68 2.766 1.702 5.957 1.702t5.85-1.702q2.765-1.703 4.361-4.68a13.3 13.3 0 0 0 1.595-6.382q0-3.405-1.595-6.382-1.596-2.979-4.361-4.68-2.66-1.702-5.85-1.702"/><path fill="#2b6f0b" d="M182.755 49.264h-30.683l-5.332 39.962h8.463a20.32 20.32 0 0 0 19.37-14.177z"/><path fill="#fff" fill-rule="evenodd" d="M31.095 49.264H.412L8.594 75.05a20.32 20.32 0 0 0 19.37 14.176h2.745l-.002-.004h13.047a9.54 9.54 0 0 1 4.898 1.285c3.748 2.164 5.48 6.476 4.542 10.483 4.007-.938 8.32.794 10.484 4.542s1.508 8.35-1.308 11.351a9.59 9.59 0 0 1 6.808 9.175c0 4.327-2.869 7.985-6.808 9.175a9.59 9.59 0 0 1 1.61 10.782c1.786.51 3.663.782 5.588.782h44.034a20.32 20.32 0 0 0 19.37-14.171l13.77-43.4h8.463a20.32 20.32 0 0 0 16.937-9.112c-7.055-2.472-14.152-6.885-20.35-13.083l-16.633-16.67a30.4 30.4 0 0 1-8.877-21.465v-4.013H14.91zm81.987 16.258c6.03 0 10.921 5.306 10.921 11.852s-4.891 11.851-10.921 11.852c-6.029-.001-10.917-5.306-10.917-11.852 0-6.545 4.888-11.85 10.917-11.852m-42.994 0c6.029.002 10.916 5.307 10.916 11.852 0 6.546-4.887 11.85-10.916 11.852-6.03 0-10.922-5.306-10.922-11.852s4.892-11.852 10.922-11.852" clip-rule="evenodd"/><path fill="#fff" d="M69.565 141.797a15.32 15.32 0 0 1-14.604-10.684L40.084 84.226l17.74 11.253h51.07l34.186-11.253-14.877 46.887a15.32 15.32 0 0 1-13.981 10.671l-.624.013zM96.019 24.883c3.945 11.649-51.185 27.524-62.814 40.224l-2.113-15.843-16.184-24.381z"/><path fill="#2b6f0b" d="M.412 49.264h30.683l5.332 39.962h-8.463A20.32 20.32 0 0 1 8.594 75.05z"/><path fill="#2b6f0b" fill-rule="evenodd" d="M152.072 49.264h30.683l-8.182 25.785a20.32 20.32 0 0 1-19.37 14.177h-2.745l.001-.004h-13.046a9.54 9.54 0 0 0-4.899 1.285c-3.748 2.164-5.48 6.476-4.542 10.483-4.007-.938-8.319.794-10.483 4.542s-1.509 8.35 1.307 11.351c-3.939 1.191-6.807 4.847-6.807 9.175 0 4.327 2.868 7.985 6.807 9.175a9.6 9.6 0 0 0-2.59 6.756v26.584l-7.353-3.053a5.06 5.06 0 0 0-5.774 1.826l-5.08 7.063v-14.612c0-7.18-5.82-13-13-13H69.565a20.32 20.32 0 0 1-19.37-14.171l-13.77-43.4H27.96a20.31 20.31 0 0 1-16.936-9.112q1.485-.52 2.968-1.156v2.714c-.069 0-.004.003 0 .003h19.626a9.54 9.54 0 0 0 4.743-1.284c3.748-2.164 5.48-6.477 4.542-10.484 4.007.939 8.32-.794 10.483-4.542s1.508-8.35-1.307-11.35c3.939-1.191 6.807-4.848 6.807-9.175s-2.868-7.985-6.807-9.176a9.59 9.59 0 0 0 1.609-10.781h114.567zM70.085 65.522c-6.03 0-10.921 5.306-10.921 11.852s4.89 11.851 10.92 11.852c6.03-.001 10.917-5.306 10.917-11.852 0-6.545-4.887-11.85-10.916-11.852m42.994 0c-6.029.002-10.916 5.307-10.916 11.852 0 6.546 4.886 11.85 10.916 11.852 6.03 0 10.921-5.306 10.921-11.852s-4.892-11.852-10.921-11.852" clip-rule="evenodd"/><path fill="#f996ee" d="M113.483.106c13.683.001 24.776 11.093 24.776 24.777h-11.1c-7.895 0-14.474 6.047-15.141 13.914l-1.127 13.306a2.924 2.924 0 0 1-5.827-.005l-1.87-22.783a4.826 4.826 0 0 0-4.808-4.432c-2.665 0-4.754 2.228-5.703 4.719-1.851 4.858-6.437 8.493-11.817 8.493-7.022 0-12.716-5.691-12.717-12.712 0-.168.018-.334.025-.5H44.907c0-9.288 7.962-16.577 17.214-15.76l18.775 1.307a7.91 7.91 0 0 1 7.845-6.876c3.409 0 6.305 2.157 7.42 5.179 4.187-5.155 10.141-8.627 17.322-8.627"/></svg>