<svg xmlns="http://www.w3.org/2000/svg" fill="none" viewBox="0 0 320 49"><path fill="currentColor" fill-rule="evenodd" d="M27.04 48.084c-3.463 0-6.527-2.262-7.574-5.59l-5.383-17.116h-3.31c-3.463 0-6.527-2.262-7.574-5.591L0 9.617h11.998L5.67 0h59.958L59.3 9.617h11.997L68.1 19.787c-1.047 3.329-4.112 5.59-7.575 5.59h-3.31l-5.383 17.116c-1.047 3.33-4.111 5.591-7.574 5.591H27.04Zm-4.066-27.381c0 2.582 1.91 4.675 4.269 4.675 2.358 0 4.269-2.093 4.269-4.675s-1.912-4.675-4.27-4.675c-2.357 0-4.268 2.093-4.268 4.675Zm25.35 0c0 2.582-1.912 4.675-4.27 4.675-2.357 0-4.269-2.093-4.269-4.675s1.912-4.675 4.27-4.675c2.357 0 4.269 2.093 4.269 4.675Z" clip-rule="evenodd"/><path fill="currentColor" d="M301.417 43.692c-3.256 0-6.266-.806-9.029-2.417a18.723 18.723 0 0 1-6.611-6.611c-1.611-2.763-2.417-5.773-2.417-9.029 0-3.256.806-6.266 2.417-9.028 1.645-2.763 3.848-4.95 6.611-6.562 2.763-1.645 5.773-2.467 9.029-2.467 3.256 0 6.265.822 9.028 2.467a17.94 17.94 0 0 1 6.562 6.562c1.644 2.762 2.467 5.772 2.467 9.028 0 3.256-.823 6.266-2.467 9.028a18.324 18.324 0 0 1-6.562 6.612c-2.763 1.611-5.772 2.417-9.028 2.417Zm0-7.104c2.006 0 3.831-.494 5.476-1.48a11.207 11.207 0 0 0 3.996-3.947c.987-1.678 1.48-3.52 1.48-5.526s-.493-3.832-1.48-5.476a11.08 11.08 0 0 0-3.996-3.996c-1.645-.987-3.47-1.48-5.476-1.48-2.007 0-3.848.493-5.526 1.48a11.216 11.216 0 0 0-3.947 3.996c-.986 1.644-1.48 3.47-1.48 5.476s.494 3.848 1.48 5.526a11.346 11.346 0 0 0 3.947 3.947c1.678.986 3.519 1.48 5.526 1.48Zm-47.061-2.023v-6.512h18.747v6.512h-18.747Zm20.178 8.831-6.71-17.465c-.296-.79-.592-1.562-.888-2.319a97.466 97.466 0 0 1-.838-2.22 53.553 53.553 0 0 0-.74-2.072l-.691-2.072h-.049c-.132.428-.28.855-.444 1.283l-.395 1.282c-.329.987-.691 1.99-1.086 3.01-.361.987-.756 2.023-1.184 3.108L254.8 43.396h-7.697l13.716-35.522h7.696l13.715 35.522h-7.696ZM229.255 7.874c3.223 0 6.183.806 8.88 2.418a17.405 17.405 0 0 1 6.463 6.463c1.612 2.697 2.418 5.657 2.418 8.88 0 3.223-.806 6.2-2.418 8.93-1.578 2.697-3.733 4.851-6.463 6.463-2.697 1.579-5.657 2.368-8.88 2.368h-14.209V7.874h14.209Zm0 28.418c1.94 0 3.717-.477 5.328-1.431a10.667 10.667 0 0 0 3.898-3.848c.954-1.645 1.43-3.437 1.43-5.378 0-1.94-.476-3.717-1.43-5.328a10.55 10.55 0 0 0-3.898-3.898c-1.611-.954-3.388-1.43-5.328-1.43h-7.104v21.313h7.104ZM197.008 7.874l-9.67 35.522h-7.351l-4.736-17.76a70.995 70.995 0 0 0-.444-1.678 39.75 39.75 0 0 0-.444-1.875 142.116 142.116 0 0 0-.79-3.552h-.049c-.132.526-.28 1.085-.444 1.677-.132.56-.263 1.151-.395 1.776l-.493 1.875c-.132.625-.28 1.217-.444 1.776l-4.736 17.761h-7.352l-9.669-35.522h7.301l4.638 17.761c.131.493.263 1.036.395 1.628.131.56.263 1.135.394 1.727l.395 1.776c.132.56.23 1.102.296 1.628h.049c.132-.625.28-1.266.444-1.924.165-.69.329-1.398.494-2.121.131-.494.246-.954.345-1.382.132-.46.247-.904.345-1.332l4.737-17.76h7.351l4.736 17.76a69.829 69.829 0 0 1 .592 2.368c.296 1.151.658 2.615 1.085 4.391h.05l.197-1.085c.066-.362.148-.74.247-1.135a74.856 74.856 0 0 1 1.036-4.539l4.588-17.76h7.302Zm-58.966 35.818c-2.302 0-4.423-.576-6.364-1.727a13.332 13.332 0 0 1-4.637-4.736c-1.152-2.006-1.727-4.194-1.727-6.562 0-2.368.575-4.539 1.727-6.512 1.151-2.006 2.697-3.585 4.637-4.736 1.941-1.184 4.062-1.776 6.364-1.776h.05c2.302 0 4.424.592 6.364 1.776 1.941 1.15 3.47 2.73 4.588 4.736a12.857 12.857 0 0 1 1.727 6.512c0 2.336-.575 4.506-1.727 6.513a12.814 12.814 0 0 1-4.588 4.785c-1.94 1.151-4.062 1.727-6.364 1.727h-.05Zm.05-7.104a5.264 5.264 0 0 0 2.812-.79 5.702 5.702 0 0 0 2.023-2.121c.493-.921.74-1.924.74-3.01a5.864 5.864 0 0 0-.79-2.96 5.594 5.594 0 0 0-2.022-2.17 5.18 5.18 0 0 0-2.763-.79h-.05a5.267 5.267 0 0 0-2.812.79c-.855.526-1.546 1.25-2.072 2.17a6.178 6.178 0 0 0-.74 2.96c0 1.053.247 2.04.74 2.96.526.921 1.217 1.645 2.072 2.171a5.27 5.27 0 0 0 2.812.79h.05Zm-31.912 7.104c-3.257 0-6.266-.806-9.029-2.417a18.721 18.721 0 0 1-6.61-6.611c-1.612-2.763-2.418-5.773-2.418-9.029 0-3.256.805-6.266 2.417-9.028a18.323 18.323 0 0 1 6.611-6.562c2.763-1.645 5.772-2.467 9.029-2.467 2.927 0 5.525.674 7.795 2.023 2.302 1.315 4.127 2.993 5.476 5.032 1.348 2.007 2.187 4.062 2.516 6.167h-7.351c-.296-1.151-.872-2.187-1.727-3.108a8.922 8.922 0 0 0-3.059-2.22 8.9 8.9 0 0 0-3.65-.79c-2.007 0-3.849.494-5.526 1.48a11.208 11.208 0 0 0-3.947 3.997c-.987 1.644-1.48 3.47-1.48 5.476s.493 3.848 1.48 5.526a11.338 11.338 0 0 0 3.947 3.947c1.677.986 3.519 1.48 5.526 1.48 1.973 0 3.749-.527 5.328-1.58 1.579-1.052 2.631-2.482 3.157-4.291h7.351c-.328 2.27-1.184 4.39-2.565 6.364-1.381 1.973-3.223 3.569-5.526 4.786-2.269 1.217-4.851 1.825-7.745 1.825Z"/></svg>