<svg xmlns="http://www.w3.org/2000/svg" fill="none" viewBox="0 0 170 171"><path fill="currentColor" d="M134.9 67.59C133.53 55.46 112 40.9 77.27 28.64c-.7-.11-1.54-.21-2.4-.21-1.45 0-2.92.28-3.67 1.23-1.12 1.42-.83 4.23-.37 5.27 5.24 11.8 12.2 29.13 13.94 46.76 7.91-.33 21.39-.93 33.8-2.51 17.35-2.33 16.58-9.3 16.33-11.6v.01Z"/><path fill="currentColor" d="M158.79 53.24c-4.96-7.08-21.17-19.57-28.06-23.65-5.82-3.44-33.07-18.03-60.06-26.53C66.73 1.84 59.46-.01 51.46-.01c-6.54 0-13.57 1.23-19.67 5.04C17.77 13.79 5.58 37.94 2.14 63.78c-3.83 28.56-4.67 81.79 16.52 100.13 7.39 6.4 16.75 7.87 28.62 4.49 9.88-2.82 21.56-14.62 25.36-34.6l.44-2.29.19-.07c3.62-14.35 4.73-27.68 3.81-45.36v-.03c-.92-17.64-8.18-35.78-13.56-47.88-1.33-3.01-2.05-9.06 1.39-13.44 2.01-2.56 6.08-5.32 14.06-3.92l.32.06.31.11c50 17.59 61.99 34.57 63.25 45.73.85 7.78-2.49 17.63-23.24 20.41-12.69 1.62-26.3 2.24-34.36 2.57.51 14.43-.43 26.53-3.04 38.69 2.92-1.02 5.71-2.01 8.44-2.99 16.76-5.96 29.99-10.67 50.61-14.46l.39-.07c6.02-1 22-3.65 26.16-19.71 4.63-17.41.82-23.82-9.01-37.91h-.01Zm-109.94 78c-3.32 6.64-7.28 7.92-9.34 8.1h-.17l-.17.01c-2.07 0-6.12-.98-9.87-7.51-3.16-5.34-5.02-12.67-5.23-20.59-.21-7.88 1.22-15.3 4.02-20.89 3.32-6.64 7.28-7.92 9.35-8.1h.33c2.07-.01 6.12.96 9.87 7.49 3.07 5.4 4.92 12.69 5.23 20.54v.05c.21 7.88-1.22 15.3-4.02 20.89v.01Z"/><path fill="currentColor" d="M40.69 93.73c-1.21-2.1-2.24-3.02-2.78-3.35-.55.36-1.56 1.36-2.67 3.56-2.19 4.38-3.35 10.61-3.18 17.11.17 6.48 1.68 12.6 4.15 16.77 1.23 2.15 2.27 3.08 2.81 3.41.55-.36 1.56-1.36 2.67-3.56 2.19-4.37 3.34-10.6 3.18-17.08-.26-6.49-1.78-12.63-4.18-16.85v-.01Z"/></svg>