<svg xmlns="http://www.w3.org/2000/svg" fill="none" viewBox="0 0 162 56"><circle cx="21.677" cy="28" r="18.064" fill="#D11347"/><path fill="#FFF8F7" fill-rule="evenodd" d="M18.645 36.129a2.56 2.56 0 0 1-2.44-1.785l-1.733-5.466h-1.066a2.56 2.56 0 0 1-2.44-1.785l-1.03-3.248H13.8l-2.038-3.07h19.313l-2.038 3.07H32.9l-1.03 3.248a2.56 2.56 0 0 1-2.44 1.785h-1.066l-1.734 5.466a2.56 2.56 0 0 1-2.44 1.785h-5.546Zm-1.31-8.744c0 .825.616 1.493 1.376 1.493.76 0 1.375-.668 1.375-1.493 0-.824-.616-1.493-1.375-1.493-.76 0-1.375.669-1.375 1.493Zm8.166 0c0 .825-.616 1.493-1.375 1.493-.76 0-1.375-.668-1.375-1.493 0-.824.615-1.493 1.375-1.493s1.375.669 1.375 1.493Z" clip-rule="evenodd"/><path fill="#D0AC10" fill-rule="evenodd" d="M22.58 0v7.226h-1.806V0h1.807Z" clip-rule="evenodd"/><path fill="#FFF8F7" d="M14.903 7.226h13.548v4.064H14.903V7.226Z"/><path fill="#D0AC10" d="M38.188 35.34A18.003 18.003 0 0 0 39.742 28c0-2.614-.555-5.098-1.554-7.341-1.218 1.307-2.06 4.103-2.06 7.34 0 3.239.842 6.034 2.06 7.342ZM5.167 20.659a18.002 18.002 0 0 0-1.554 7.34c0 2.614.555 5.099 1.554 7.342C6.384 34.033 7.226 31.238 7.226 28c0-3.238-.842-6.034-2.06-7.341Z"/><path fill="#07448E" d="M150.277 23.738h3.219v1.498c.358-.567.812-.977 1.364-1.23a4.13 4.13 0 0 1 1.833-.402c.894 0 1.721.253 2.481.76.775.492 1.386 1.192 1.833 2.101.447.894.67 1.907.67 3.04s-.223 2.153-.67 3.063c-.447.894-1.058 1.594-1.833 2.1a4.478 4.478 0 0 1-2.481.738c-.611 0-1.2-.149-1.766-.447a4.418 4.418 0 0 1-1.431-1.184v6.057h-3.219V23.738Zm5.7 3.085c-.447 0-.864.119-1.251.357a2.6 2.6 0 0 0-.895.984 2.803 2.803 0 0 0-.335 1.341c0 .477.112.924.335 1.341a2.6 2.6 0 0 0 .895.984c.387.238.804.358 1.251.358.447 0 .857-.12 1.23-.358.387-.239.693-.566.916-.984a2.79 2.79 0 0 0 .336-1.34c0-.478-.112-.925-.336-1.342a2.535 2.535 0 0 0-.916-.984 2.238 2.238 0 0 0-1.23-.357Zm-13.621-3.219c1.162 0 2.124.194 2.884.581.774.387 1.348.946 1.721 1.677.372.715.559 1.58.559 2.593v6.817h-3.13v-1.14c-.283.313-.737.604-1.363.872a4.788 4.788 0 0 1-1.9.402c-.835 0-1.55-.156-2.146-.47-.596-.312-1.043-.73-1.342-1.25a3.366 3.366 0 0 1-.447-1.7c0-1.117.41-1.99 1.23-2.615.819-.626 2.086-.939 3.8-.939h2.168v-.514c0-.596-.201-1.028-.603-1.296a2.068 2.068 0 0 0-1.319-.403c-.447.015-.842.15-1.185.402-.328.254-.514.612-.559 1.073h-3.286a4.61 4.61 0 0 1 .693-2.034c.403-.626.961-1.125 1.677-1.497.73-.373 1.579-.56 2.548-.56Zm-.514 9.522c.432 0 .827-.074 1.185-.223.357-.164.648-.425.871-.783.224-.357.336-.827.336-1.408V30.6l-1.789.023c-.536.015-.998.126-1.385.335-.373.194-.559.5-.559.917 0 .387.111.693.335.916.224.224.559.335 1.006.335Zm-5.023-9.388-3.8 11.534h-2.995l-1.498-4.65-.112-.312a238.637 238.637 0 0 1-.738-2.347h-.022c-.194.67-.417 1.393-.671 2.168a5.51 5.51 0 0 0-.089.246 1.18 1.18 0 0 1-.067.246l-1.498 4.65h-2.995l-3.8-11.535h3.264l1.341 4.493c.253.805.499 1.699.737 2.682h.023c.089-.372.283-1.043.581-2.012.045-.119.082-.23.112-.335.044-.119.082-.23.111-.335l1.476-4.493h2.995l1.475 4.493.045.112c.268.864.529 1.72.782 2.57h.023c.104-.506.29-1.237.559-2.19a5.51 5.51 0 0 0 .089-.246c.03-.09.052-.172.067-.246l1.341-4.493h3.264Zm-27.426 5.812c0 .58.12 1.08.358 1.497.238.418.566.738.984.962.432.208.931.313 1.497.313.477 0 .879-.082 1.207-.246.343-.18.596-.403.76-.671a1.526 1.526 0 0 0-.201-1.967c-.298-.328-.73-.559-1.296-.693l-1.856-.447c-1.311-.313-2.347-.872-3.107-1.677-.76-.804-1.14-1.765-1.14-2.883 0-.91.254-1.721.76-2.437a5.162 5.162 0 0 1 2.034-1.654 6.052 6.052 0 0 1 2.66-.603c1.014 0 1.915.238 2.705.715a4.78 4.78 0 0 1 1.833 1.9c.432.79.648 1.67.648 2.638h-3.174c0-.641-.201-1.163-.603-1.565-.388-.417-.902-.626-1.543-.626-.417 0-.782.082-1.095.246a1.888 1.888 0 0 0-.693.626 1.523 1.523 0 0 0-.223.782c0 .328.111.626.335.894.223.254.588.44 1.095.56l1.811.446c1.564.388 2.727.976 3.487 1.766.775.79 1.162 1.81 1.162 3.063 0 .968-.238 1.825-.715 2.57-.477.745-1.14 1.327-1.99 1.744-.834.402-1.78.603-2.838.603-1.118 0-2.139-.238-3.063-.715a5.6 5.6 0 0 1-2.213-2.034c-.551-.894-.827-1.93-.827-3.107h3.241ZM98.471 19.178 94.09 35.272h-3.33l-2.147-8.047c-.06-.239-.126-.492-.2-.76-.06-.283-.128-.566-.202-.85a75.776 75.776 0 0 0-.358-1.609h-.022c-.06.238-.127.492-.201.76-.06.253-.12.522-.18.805l-.223.85c-.06.282-.126.55-.2.804l-2.147 8.047h-3.33l-4.382-16.094h3.309l2.1 8.047a64.67 64.67 0 0 1 .358 1.52l.18.805c.059.253.104.499.134.737h.022c.06-.283.126-.573.201-.871.075-.313.149-.634.224-.962.06-.223.111-.432.156-.626.06-.208.112-.41.156-.603l2.146-8.047h3.331l2.146 8.047a25.01 25.01 0 0 1 .268 1.073c.134.522.298 1.185.492 1.99h.022l.09-.492c.03-.164.067-.336.112-.514.134-.686.29-1.372.469-2.057l2.079-8.047h3.308ZM71.643 35.406a5.549 5.549 0 0 1-2.883-.782 6.037 6.037 0 0 1-2.102-2.146 5.87 5.87 0 0 1-.782-2.973c0-1.073.26-2.056.782-2.95a5.807 5.807 0 0 1 2.102-2.146 5.432 5.432 0 0 1 2.883-.805h.022c1.044 0 2.005.268 2.884.805a5.64 5.64 0 0 1 2.079 2.145c.522.91.782 1.893.782 2.951s-.26 2.042-.782 2.95a5.808 5.808 0 0 1-2.079 2.169 5.55 5.55 0 0 1-2.884.782h-.022Zm.022-3.219c.462 0 .887-.119 1.275-.357a2.58 2.58 0 0 0 .916-.961 2.84 2.84 0 0 0 .335-1.364c0-.477-.119-.924-.357-1.341a2.537 2.537 0 0 0-.917-.984 2.346 2.346 0 0 0-1.252-.357h-.022c-.462 0-.886.119-1.274.357-.387.239-.7.567-.939.984a2.796 2.796 0 0 0-.335 1.341c0 .477.112.924.335 1.341.239.418.552.745.939.984.388.238.812.357 1.274.357h.022Zm-14.57 3.219a7.976 7.976 0 0 1-4.09-1.095 8.482 8.482 0 0 1-2.996-2.995 7.976 7.976 0 0 1-1.095-4.091c0-1.475.365-2.839 1.095-4.09a8.301 8.301 0 0 1 2.995-2.974 7.854 7.854 0 0 1 4.09-1.117c1.327 0 2.504.305 3.533.916 1.043.596 1.87 1.356 2.48 2.28.612.91.992 1.84 1.14 2.794h-3.33a3.23 3.23 0 0 0-.782-1.408 4.049 4.049 0 0 0-1.386-1.006 4.034 4.034 0 0 0-1.654-.357c-.91 0-1.744.223-2.504.67a5.078 5.078 0 0 0-1.788 1.81 4.731 4.731 0 0 0-.67 2.482c0 .909.223 1.743.67 2.503a5.137 5.137 0 0 0 1.788 1.789 4.85 4.85 0 0 0 2.504.67c.894 0 1.699-.238 2.414-.715a3.419 3.419 0 0 0 1.43-1.945h3.331a6.634 6.634 0 0 1-1.162 2.884c-.626.894-1.46 1.617-2.504 2.168-1.028.552-2.198.827-3.51.827Z"/><path fill="#D0AC10" d="m41.548 49.678 1.22-3.297 3.297-1.22-3.297-1.22-1.22-3.296-1.22 3.297-3.296 1.22 3.297 1.22 1.22 3.296ZM3.613 13.548l.976-2.637 2.637-.976-2.637-.975-.976-2.637-.976 2.637L0 9.935l2.637.976.976 2.637Z"/></svg>