<svg xmlns="http://www.w3.org/2000/svg" fill="none" viewBox="0 0 180 24"><path fill="currentColor" d="M47.619 18.097a7.493 7.493 0 0 0 3.843 1.029c1.218 0 2.31-.252 3.276-.756.98-.518 1.764-1.19 2.352-2.016a6.447 6.447 0 0 0 1.113-2.71H55.2a3.475 3.475 0 0 1-1.407 1.89c-.686.463-1.463.694-2.331.694a4.59 4.59 0 0 1-2.394-.651 5.007 5.007 0 0 1-1.722-1.743 4.59 4.59 0 0 1-.651-2.394c0-.868.217-1.666.65-2.394a5.007 5.007 0 0 1 1.723-1.743 4.59 4.59 0 0 1 2.394-.651c.546 0 1.078.119 1.596.357.518.224.966.539 1.344.945.378.406.63.86.756 1.365h3.024c-.154-.896-.525-1.771-1.113-2.625-.574-.854-1.344-1.554-2.31-2.1-.966-.56-2.065-.84-3.297-.84-1.386 0-2.667.35-3.843 1.05a7.852 7.852 0 0 0-2.793 2.793 7.493 7.493 0 0 0-1.03 3.843c0 1.386.344 2.667 1.03 3.843a8.025 8.025 0 0 0 2.793 2.814ZM86.136 19l4.137-15.12H87.29l-2.037 7.77a50.12 50.12 0 0 0-.441 1.932 7.607 7.607 0 0 0-.105.483l-.084.42h-.021a107.12 107.12 0 0 0-.441-1.848l-.126-.504a23.493 23.493 0 0 0-.126-.483l-2.1-7.77h-3.003l-2.08 7.77c-.041.182-.09.37-.146.567a11.39 11.39 0 0 1-.147.567c-.07.308-.14.609-.21.903-.07.28-.133.546-.19.798h-.02a6.604 6.604 0 0 0-.126-.693 60.7 60.7 0 0 1-.168-.735 62.722 62.722 0 0 0-.168-.735 23.532 23.532 0 0 0-.168-.672l-2.058-7.77h-2.982L74.48 19h3.003l2.079-7.77c.07-.238.133-.483.189-.735l.21-.798c.056-.252.112-.497.168-.735.07-.252.133-.483.189-.693h.02c.057.224.113.462.169.714l.168.756c.07.266.133.525.189.777.07.252.133.49.189.714l2.08 7.77h3.003Z"/><path fill="currentColor" fill-rule="evenodd" d="M98.203 3.88h6.153c.924 0 1.75.238 2.478.714a5.125 5.125 0 0 1 1.743 1.848c.434.742.651 1.526.651 2.352a4.78 4.78 0 0 1-.63 2.352 5.125 5.125 0 0 1-1.743 1.848 4.594 4.594 0 0 1-2.478.693h-3.255V19h-2.919V3.88Zm6.111 6.909h-3.192V6.778h3.192c.392 0 .735.098 1.029.294.308.182.539.427.693.735.168.308.252.637.252.987 0 .336-.084.658-.252.966-.154.308-.385.56-.693.756a1.915 1.915 0 0 1-1.029.273Z" clip-rule="evenodd"/><path fill="currentColor" d="M179.497 19h-2.919V3.88h2.919V19Z"/><path fill="currentColor" fill-rule="evenodd" d="M169.1 19.126c-.98 0-1.883-.245-2.709-.735a5.674 5.674 0 0 1-1.974-2.016 5.641 5.641 0 0 1-.714-2.793c0-1.008.238-1.932.714-2.772a5.456 5.456 0 0 1 1.974-2.016 5.103 5.103 0 0 1 2.709-.756h.021c.98 0 1.876.252 2.688.756a5.298 5.298 0 0 1 1.953 2.016c.49.854.735 1.778.735 2.772 0 .994-.245 1.918-.735 2.772a5.457 5.457 0 0 1-1.953 2.037 5.104 5.104 0 0 1-2.688.735h-.021Zm.021-2.898a2.28 2.28 0 0 0 1.239-.357c.378-.238.672-.553.882-.945.224-.406.336-.854.336-1.344 0-.476-.112-.917-.336-1.323a2.607 2.607 0 0 0-.903-.966 2.245 2.245 0 0 0-1.218-.357h-.021c-.462 0-.882.12-1.26.357-.378.238-.679.56-.903.966a2.694 2.694 0 0 0-.336 1.323c0 .476.112.917.336 1.323.224.406.525.728.903.966s.798.357 1.26.357h.021Z" clip-rule="evenodd"/><path fill="currentColor" d="M158.41 11.188c.392.266.651.616.777 1.05h2.961c-.042-.616-.266-1.246-.672-1.89-.406-.658-.98-1.204-1.722-1.638-.742-.448-1.624-.672-2.646-.672-.98 0-1.883.252-2.709.756a5.456 5.456 0 0 0-1.974 2.016 5.525 5.525 0 0 0-.714 2.772c0 1.008.238 1.94.714 2.793a5.674 5.674 0 0 0 1.974 2.016c.826.49 1.729.735 2.709.735a4.85 4.85 0 0 0 2.52-.672c.756-.462 1.351-1.022 1.785-1.68.434-.672.665-1.295.693-1.869h-2.877c-.084.42-.329.77-.735 1.05-.406.28-.868.42-1.386.42-.476 0-.91-.126-1.302-.378a2.73 2.73 0 0 1-.882-1.029 3.141 3.141 0 0 1-.315-1.386c0-.49.098-.945.294-1.365.21-.434.504-.777.882-1.029a2.24 2.24 0 0 1 1.323-.399c.476 0 .91.133 1.302.4Z"/><path fill="currentColor" fill-rule="evenodd" d="M144.639 19.126c-.98 0-1.883-.245-2.709-.735a5.674 5.674 0 0 1-1.974-2.016 5.641 5.641 0 0 1-.714-2.793c0-1.008.238-1.932.714-2.772a5.456 5.456 0 0 1 1.974-2.016 5.103 5.103 0 0 1 2.709-.756h.021c.98 0 1.876.252 2.688.756a5.298 5.298 0 0 1 1.953 2.016c.49.854.735 1.778.735 2.772 0 .994-.245 1.918-.735 2.772a5.457 5.457 0 0 1-1.953 2.037 5.104 5.104 0 0 1-2.688.735h-.021Zm.021-2.898a2.28 2.28 0 0 0 1.239-.357c.378-.238.672-.553.882-.945.224-.406.336-.854.336-1.344 0-.476-.112-.917-.336-1.323a2.607 2.607 0 0 0-.903-.966 2.245 2.245 0 0 0-1.218-.357h-.021c-.462 0-.882.12-1.26.357-.378.238-.679.56-.903.966a2.694 2.694 0 0 0-.336 1.323c0 .476.112.917.336 1.323.224.406.525.728.903.966s.798.357 1.26.357h.021Z" clip-rule="evenodd"/><path fill="currentColor" d="M137.966 16.375c-.364.07-.756.105-1.176.105-.406 0-.735-.09-.987-.273-.238-.196-.357-.483-.357-.86v-4.642h2.52v-2.54h-2.52V5.076h-2.898v3.087h-1.743v2.541h1.743v4.683c0 .924.14 1.66.42 2.205.28.546.693.938 1.239 1.176.546.238 1.232.357 2.058.357.644 0 1.211-.084 1.701-.252v-2.499Z"/><path fill="currentColor" fill-rule="evenodd" d="M124.561 19.126c-.98 0-1.883-.245-2.709-.735a5.674 5.674 0 0 1-1.974-2.016 5.641 5.641 0 0 1-.714-2.793c0-1.008.238-1.932.714-2.772a5.456 5.456 0 0 1 1.974-2.016 5.103 5.103 0 0 1 2.709-.756h.021c.98 0 1.876.252 2.688.756a5.298 5.298 0 0 1 1.953 2.016c.49.854.735 1.778.735 2.772 0 .994-.245 1.918-.735 2.772a5.457 5.457 0 0 1-1.953 2.037 5.104 5.104 0 0 1-2.688.735h-.021Zm.021-2.898a2.28 2.28 0 0 0 1.239-.357c.378-.238.672-.553.882-.945.224-.406.336-.854.336-1.344 0-.476-.112-.917-.336-1.323a2.607 2.607 0 0 0-.903-.966 2.245 2.245 0 0 0-1.218-.357h-.021c-.462 0-.882.12-1.26.357-.378.238-.679.56-.903.966a2.694 2.694 0 0 0-.336 1.323c0 .476.112.917.336 1.323.224.406.525.728.903.966s.798.357 1.26.357h.021Z" clip-rule="evenodd"/><path fill="currentColor" d="M118.003 8.101c-.49-.042-.84-.063-1.05-.063-.63 0-1.204.133-1.722.4-.504.251-.91.643-1.218 1.175V8.164h-2.919V19h2.919v-5.292c0-.966.224-1.673.672-2.12.462-.463 1.106-.694 1.932-.694.28 0 .553.014.819.042.266.014.483.035.651.063.014.014.028.021.042.021h.042V8.122h-.084a.186.186 0 0 1-.084-.02Z"/><path fill="currentColor" fill-rule="evenodd" d="M65.147 19.126c-.98 0-1.883-.245-2.709-.735a5.674 5.674 0 0 1-1.974-2.016 5.641 5.641 0 0 1-.714-2.793c0-1.008.238-1.932.714-2.772a5.456 5.456 0 0 1 1.974-2.016 5.103 5.103 0 0 1 2.709-.756h.021c.98 0 1.876.252 2.688.756a5.298 5.298 0 0 1 1.953 2.016c.49.854.735 1.778.735 2.772 0 .994-.245 1.918-.735 2.772a5.457 5.457 0 0 1-1.953 2.037 5.104 5.104 0 0 1-2.688.735h-.021Zm.021-2.898a2.28 2.28 0 0 0 1.239-.357c.378-.238.672-.553.882-.945.224-.406.336-.854.336-1.344 0-.476-.112-.917-.336-1.323a2.607 2.607 0 0 0-.903-.966 2.245 2.245 0 0 0-1.218-.357h-.021c-.462 0-.882.12-1.26.357-.378.238-.679.56-.903.966a2.694 2.694 0 0 0-.336 1.323c0 .476.112.917.336 1.323.224.406.525.728.903.966s.798.357 1.26.357h.021ZM13.653 24a4.011 4.011 0 0 1-3.824-2.79L7.11 12.666H5.44a4.011 4.011 0 0 1-3.825-2.791L0 4.8h6.058L2.863 0h30.274l-3.195 4.8H36l-1.615 5.076a4.011 4.011 0 0 1-3.825 2.79h-1.67l-2.72 8.544A4.011 4.011 0 0 1 22.346 24h-8.693ZM11.6 10.333c0 1.289.965 2.334 2.156 2.334 1.19 0 2.155-1.045 2.155-2.334 0-1.288-.965-2.333-2.155-2.333S11.6 9.045 11.6 10.333Zm12.8 0c0 1.289-.965 2.334-2.156 2.334-1.19 0-2.155-1.045-2.155-2.334 0-1.288.965-2.333 2.155-2.333S24.4 9.045 24.4 10.333Z" clip-rule="evenodd"/></svg>