<svg xmlns="http://www.w3.org/2000/svg" fill="none" viewBox="0 0 610 108"><path fill="currentColor" d="M238.38 24.43c-4.54.2-8.61 1.69-11.63 5.21-1.5 1.75-2.63 3.82-3.96 5.73-.24.35-.6.63-.9.94l-.36-.23V25.8h-14.7v80.13c0 .58-.06 1.16-.09 1.74h14.75c.02-.5.05-1 .05-1.5V74.75l.46-.2c.34.47.73.9 1 1.4 2.47 4.7 5.79 8.56 11.16 9.84 10.18 2.43 21.27-.65 25.79-13.1 3.95-10.88 3.93-22 .52-32.98-3.27-10.54-11.08-15.75-22.11-15.26l.02-.02Zm8.63 39.58c-1.14 6.71-5.45 10.39-12.24 10.76-2.61.14-5.13-.25-7.56-1.27-3.77-1.58-5.6-4.46-5.64-8.47-.06-6.41-.04-12.82 0-19.23.03-4.37 2.36-7.13 6.32-8.65 3.24-1.25 6.59-1.44 9.94-.64 5.23 1.25 8.17 4.85 9.11 9.96.54 2.96.45 6.04.63 8.86-.17 3.04-.08 5.91-.55 8.67l-.01.01Zm349.25-38.33c-1.01-.01-1.44.3-1.77 1.25-4.87 13.79-9.78 27.58-14.7 41.35-.16.44-.55.8-.84 1.19-.25-.38-.59-.74-.74-1.16-4.9-13.83-9.79-27.66-14.66-41.5-.29-.82-.65-1.15-1.57-1.14-4.41.06-8.83.02-13.24.03-.35 0-.7.05-1.15.08.23.59.39 1.06.58 1.51 7.59 18.63 15.17 37.27 22.78 55.9.38.94.44 1.76.06 2.72-1.25 3.17-2.44 6.37-3.6 9.57-.3.82-.68 1.14-1.59 1.13-3.87-.06-7.75-.03-11.62-.02-.44 0-.88.04-1.43.07v10.98h16.75c6.52-1.84 9.97-6.66 12.25-12.62.46-1.2.97-2.39 1.46-3.58 8.44-20.79 16.87-41.59 25.32-62.38.2-.49.48-.95.72-1.42v-2c-4.33.02-8.66.08-12.99.03l-.02.01Zm-126.02.03c-5.21 0-10.58-.02-15.94.03-.45 0-1 .37-1.34.72-7.35 7.6-14.69 15.23-22.03 22.84-.28.29-.66.47-1.28.9V.02h-14.62v85.06h14.64v-1.54c0-6.08 0-12.16.01-18.25 0-.47.05-1.09.34-1.38 2.15-2.14 4.37-4.22 6.66-6.4.86 1.23 1.67 2.38 2.46 3.54 5.31 7.72 10.6 15.45 15.93 23.15.29.42.86.9 1.3.91 5.54.06 11.08.04 16.91.04-8.8-12.14-17.44-24.06-25.97-35.82 7.72-7.95 15.36-15.81 22.94-23.61l-.01-.01Zm-414.32 0c-4.96 0-10.03.03-15.11-.02-1.04 0-1.78.26-2.51 1.02-7.1 7.44-14.23 14.85-21.37 22.26-.39.4-.87.72-1.3 1.08-.11-.08-.23-.15-.34-.23V0H.75v85.08h14.56v-1.53c0-6.08 0-12.16.02-18.25 0-.5.1-1.15.42-1.46 2.13-2.11 4.32-4.15 6.61-6.31.33.45.58.78.82 1.12 5.83 8.47 11.66 16.94 17.46 25.43.51.75 1.02 1.11 1.99 1.1 5-.06 10-.03 15-.03.38 0 .76-.04 1.3-.07-8.77-12.1-17.41-24.01-26.06-35.94l23.06-23.42-.01-.01Zm270.07 46.81c0-9.16.07-18.33-.04-27.49-.12-9.43-4.9-16.02-13.59-18.99-4.93-1.69-10.04-1.89-15.18-1.53-5.36.38-10.4 1.78-14.84 4.96-2.49 1.78-4.64 3.86-6.16 6.64 2.81 2.38 5.55 4.71 8.3 7.04.18-.17.28-.24.35-.34 4.5-6.24 10.68-8.28 18.09-7.15 3.22.49 5.82 1.93 7.22 5.06 1.44 3.2 1.12 6.56 1.09 9.99-3.63 0-7.12-.03-10.61 0-4.59.05-9.16.37-13.58 1.73-4.82 1.48-8.9 3.93-11.12 8.73-1.45 3.13-1.69 6.43-1.38 9.78.6 6.47 3.81 11.16 9.83 13.77 4.7 2.04 9.64 2.24 14.59 1.34 6.12-1.11 10.61-4.39 12.76-10.44.1-.27.28-.52.51-.93.22.34.29.4.3.47.08.37.15.73.23 1.1.85 4.08 2.92 7.19 7.15 8.3 4.29 1.13 8.67.37 13.01.6V74.09H326v-1.57h-.01Zm-14.8-4.36c-.17 2.93-1.88 5.07-4.42 6.39-4.36 2.28-8.93 2.53-13.53.84-2.84-1.04-4.22-3.24-4.24-6.27v-1.87c0-3.68 1.6-5.99 5.12-7.06 1.62-.49 3.34-.81 5.02-.86 3.98-.12 7.97-.04 12.09-.04 0 3.05.13 5.97-.04 8.87ZM118.81 72.5c-.02-9.54.15-19.09-.12-28.62-.24-8.21-4.29-14.24-12.03-17.22-8.9-3.43-17.97-3.21-26.83.24-4.55 1.77-8.25 4.8-10.84 9.18 2.8 2.38 5.57 4.73 8.42 7.15 4.01-5.85 9.51-8.32 16.39-7.81 3.33.25 6.46.98 8.46 4.01 2.29 3.47 1.82 7.36 1.79 11.28h-9.41c-4.3 0-8.58.21-12.78 1.2-4.03.96-7.79 2.48-10.67 5.6-3.27 3.54-4.14 7.88-3.89 12.52.35 6.39 3.12 11.33 8.97 14.25 4.97 2.48 10.28 2.73 15.61 1.75 6.06-1.11 10.54-4.37 12.66-10.38.1-.28.28-.53.42-.8.11 0 .22.01.32.02.08.36.17.73.24 1.09 1 5.39 3.93 8.41 9.38 8.96 3.54.35 7.14.07 10.83.07v-10.9h-6.94V72.5h.02Zm-14.92-3.55c-.22 2.56-1.96 4.39-4.2 5.55-4.66 2.42-9.46 2.7-14.29.56-2.13-.95-3.3-2.73-3.48-5.09-.06-.79-.06-1.58-.06-2.37 0-4.33 1.76-6.69 5.97-7.66 1.89-.44 3.86-.62 5.8-.7 3.03-.11 6.08-.03 9.11-.03h1.21c0 3.36.21 6.57-.07 9.74h.01Zm420.37-41.09c-5.05-2.83-10.54-3.66-16.27-3.46-11.61.4-21.19 7.42-24.68 18.5-2.64 8.4-2.63 16.91.04 25.32 2.1 6.62 6.16 11.73 12.43 14.94 4.34 2.23 8.98 3.18 13.83 3.32 7.41.22 14.43-1.01 20.56-5.54 2.22-1.64 4.23-3.46 5.69-5.67l-8.33-8.33c-.13.14-.33.34-.51.56-5.64 6.91-12.93 8.76-21.3 6.6-7.44-1.92-10.3-9.29-9.33-15.17h41.41c.09-4.54.15-8.87-.82-13.13-1.78-7.74-5.66-14-12.73-17.96l.01.02Zm-1.24 22.33H496.4c-.79-3.94 1.12-9.48 4.95-12.35 4.17-3.13 11.02-3.62 15.61-.99 4.18 2.39 6.77 8 6.07 13.35l-.01-.01Zm-149.2-12.83h24V25.69h-24.14V4.92h-13.65v1.47c0 4.5.04 9-.02 13.5-.06 4.08-1.76 5.72-5.83 5.82h-12.33V37.4h17.17v1.57c0 10.12-.04 20.25.02 30.37.02 5 1.5 9.47 5.55 12.71 3.04 2.43 6.7 3.05 10.46 3.08 7.25.05 14.5.02 21.75.01.32 0 .65-.04 1.04-.06V73.55h-24.01V37.36h-.01Zm-186.83-11.6c-6.25.21-11.31 2.78-14.63 8.13-1.39 2.23-2.17 4.83-3.26 7.25-.16.35-.52.6-.79.89-.11-.08-.22-.16-.34-.24V25.81h-29.39V37.4h14.61v36.16H138.6v11.49h49.88V73.52h-20.41c-.04-.35-.08-.55-.08-.75 0-6.75-.08-13.5.04-20.24.12-7.13 5.37-12.55 12.51-12.88 4.12-.19 8.25-.07 12.37-.09h1.5V25.75c-2.52 0-4.97-.07-7.41.01h-.01Z"/></svg>
