<svg xmlns="http://www.w3.org/2000/svg" fill="none" viewBox="0 0 150 28"><path fill="currentColor" d="M149.653 21h-2.919V9.744h-.021a1.658 1.658 0 0 1-.063.252 1.114 1.114 0 0 1-.063.23c-.126.505-.266.98-.42 1.429l-.441 1.239L142.849 21h-2.961l-2.877-8.106c-.112-.28-.217-.56-.315-.84a31.724 31.724 0 0 0-.273-.903c-.07-.21-.133-.42-.189-.63l-.168-.672h-.021V21h-2.919V5.88h4.284l2.604 7.245c.112.322.224.665.336 1.029.126.35.245.7.357 1.05.112.364.224.72.336 1.07.112.35.217.694.315 1.03h.021c.112-.336.217-.68.315-1.03l.336-1.091c.112-.364.224-.714.336-1.05.112-.35.224-.686.336-1.008l2.625-7.245h4.326V21Zm-19.626 0h-2.919V9.744h-.021a1.658 1.658 0 0 1-.063.252 1.114 1.114 0 0 1-.063.23c-.126.505-.266.98-.42 1.429l-.441 1.239L123.223 21h-2.961l-2.877-8.106c-.112-.28-.217-.56-.315-.84a31.724 31.724 0 0 0-.273-.903c-.07-.21-.133-.42-.189-.63l-.168-.672h-.021V21H113.5V5.88h4.284l2.604 7.245c.112.322.224.665.336 1.029.126.35.245.7.357 1.05.112.364.224.72.336 1.07.112.35.217.694.315 1.03h.021c.112-.336.217-.68.315-1.03l.336-1.091c.112-.364.224-.714.336-1.05.112-.35.224-.686.336-1.008l2.625-7.245h4.326V21Zm-30.083-3.801V14.51h7.98v2.688h-7.98Zm8.631 3.8-2.94-7.622a35.143 35.143 0 0 0-.378-.966 41.736 41.736 0 0 1-.357-.945 22.179 22.179 0 0 0-.315-.882l-.294-.882h-.021a8.413 8.413 0 0 1-.189.546l-.168.546c-.14.42-.294.84-.462 1.26-.154.42-.322.86-.504 1.323L100.007 21h-3.15l5.859-15.12h3.15L111.725 21h-3.15ZM90.27 5.88 86.133 21H83.13l-2.08-7.77a28.525 28.525 0 0 0-.188-.714 20.702 20.702 0 0 0-.19-.777l-.167-.756c-.056-.252-.112-.49-.168-.714h-.021c-.056.21-.12.44-.19.693a60.73 60.73 0 0 0-.167.735l-.21.798c-.056.252-.12.497-.19.735L77.482 21h-3.003L70.34 5.88h2.982l2.058 7.77c.056.21.112.434.168.672.056.238.112.483.168.735.056.252.112.497.168.735.056.238.098.469.126.693h.02c.057-.252.12-.518.19-.798.07-.294.14-.595.21-.903.056-.196.105-.385.147-.567.056-.196.105-.385.147-.567l2.079-7.77h3.003l2.1 7.77c.042.154.084.315.126.483l.126.504c.126.504.273 1.12.44 1.848h.022l.084-.42c.028-.154.063-.315.105-.483.14-.672.287-1.316.44-1.932l2.038-7.77h2.982ZM65.15 21.126a5.22 5.22 0 0 1-2.71-.735 5.674 5.674 0 0 1-1.973-2.016 5.641 5.641 0 0 1-.714-2.793c0-1.008.238-1.932.714-2.772a5.456 5.456 0 0 1 1.974-2.016 5.103 5.103 0 0 1 2.709-.756h.02a5 5 0 0 1 2.689.756 5.298 5.298 0 0 1 1.953 2.016c.49.854.735 1.778.735 2.772 0 .994-.245 1.918-.735 2.772a5.457 5.457 0 0 1-1.953 2.037 5.104 5.104 0 0 1-2.688.735h-.021Zm.02-2.898a2.28 2.28 0 0 0 1.24-.357c.378-.238.672-.553.882-.945.224-.406.336-.854.336-1.344 0-.476-.112-.917-.336-1.323a2.607 2.607 0 0 0-.903-.966 2.245 2.245 0 0 0-1.218-.357h-.021c-.462 0-.882.119-1.26.357s-.68.56-.903.966a2.694 2.694 0 0 0-.336 1.323c0 .476.112.917.336 1.323.224.406.525.728.903.966s.798.357 1.26.357h.02Zm-13.708 2.898a7.493 7.493 0 0 1-3.843-1.03 8.025 8.025 0 0 1-2.793-2.813 7.493 7.493 0 0 1-1.03-3.843c0-1.386.344-2.667 1.03-3.843a7.852 7.852 0 0 1 2.793-2.793 7.378 7.378 0 0 1 3.843-1.05c1.232 0 2.33.28 3.297.84.966.546 1.736 1.246 2.31 2.1.588.854.959 1.729 1.113 2.625h-3.024a3.078 3.078 0 0 0-.756-1.365 3.965 3.965 0 0 0-1.344-.945 3.784 3.784 0 0 0-1.596-.357 4.59 4.59 0 0 0-2.394.65 5.007 5.007 0 0 0-1.722 1.744 4.59 4.59 0 0 0-.651 2.394c0 .868.217 1.666.65 2.394a5.007 5.007 0 0 0 1.723 1.743 4.59 4.59 0 0 0 2.394.65c.868 0 1.645-.23 2.33-.692a3.475 3.475 0 0 0 1.408-1.89h3.003a6.447 6.447 0 0 1-1.113 2.709c-.588.826-1.372 1.498-2.352 2.016-.966.504-2.058.756-3.276.756Z"/><path fill="currentColor" fill-rule="evenodd" d="M13.653 26a4.011 4.011 0 0 1-3.824-2.79L7.11 14.666H5.44a4.011 4.011 0 0 1-3.825-2.791L0 6.8h6.058L2.863 2h30.274l-3.195 4.8H36l-1.615 5.076a4.011 4.011 0 0 1-3.825 2.79h-1.67l-2.72 8.544A4.011 4.011 0 0 1 22.346 26h-8.693ZM11.6 12.333c0 1.289.965 2.334 2.156 2.334 1.19 0 2.155-1.045 2.155-2.334 0-1.288-.965-2.333-2.155-2.333S11.6 11.045 11.6 12.333Zm12.8 0c0 1.289-.965 2.334-2.156 2.334-1.19 0-2.155-1.045-2.155-2.334 0-1.288.965-2.333 2.155-2.333s2.156 1.045 2.156 2.333Z" clip-rule="evenodd"/></svg>