<svg xmlns="http://www.w3.org/2000/svg" fill="none" viewBox="0 0 199 160"><path fill="currentColor" d="M8.24.11v51.92c5.25-5.06 10.13-9.2 14.32-13.96 4.35-4.93 9.15-7.43 15.99-5.34-.76 2.15-2.94 3.35-4.61 4.95-4.55 4.33-9.01 8.77-13.73 12.92-2.16 1.91-2.15 3.05-.14 5.07 6.98 6.97 13.77 14.13 20.99 21.59-6.67 1.2-11.72.69-16.06-4.91-4.79-6.18-10.72-11.49-16.64-17.69v54.91c5.31-5 10.5-9.25 14.89-14.21 4.24-4.79 9.05-5.95 15.7-4.5-5.66 5.34-11 10.37-16.33 15.41-5.02 4.75-5.14 4.87-.33 9.48 6.43 6.17 13.07 12.12 19.08 18.84-5.92 1.58-10.76 2.36-14.98-2.83-5.29-6.49-11.4-12.3-18.27-19.58 0 7.46-.12 13.45.05 19.44.08 2.98-.42 4.45-3.99 4.44-3.6-.01-3.92-1.59-3.92-4.5C.32 87.75.3 43.93.29.12h7.94l.01-.01Zm190.67 61.54c-.82 1.59-1.65 3.17-2.45 4.77-7.1 14.26-24.91 17.12-36.09 5.79-.43-.44-.69-1.15-2.01-.84 0 8.05-.09 16.24.05 24.42.05 2.93-.37 4.5-3.96 4.51-3.79.01-3.83-1.97-3.82-4.69.04-19.01-.04-38.02.1-57.02.02-2.46-1.88-6.09 3.39-6.56 5.37-.48 3.99 3.31 4.47 6.66 6.02-5.74 12.51-8.48 20.49-7.21 10.77 1.71 16.68 8.42 19.82 18.26v11.91h.01Zm-24.07 10.2c9.26-.07 15.98-7.04 16.02-16.6.04-9.7-6.93-16.87-16.36-16.82-9.53.05-15.94 7.02-15.76 17.16.18 9.91 6.54 16.34 16.1 16.27v-.01Z"/><path fill="currentColor" d="M71.21 57.58c-4.96 0-9.92.14-14.87-.05-3.56-.14-3.74 1.26-2.75 4.16 3.6 10.59 16.53 13.74 25.65 6.15 1.42-1.18 2.35-3.13 4.89-1.25 2.98 2.2 3.74 3.7.6 6.56-8.03 7.31-22.32 8.16-31.24 1.51-9.27-6.91-11.95-20.79-6.12-31.77 5.05-9.51 17.09-14.12 27.74-10.62 9.04 2.97 15.23 12.77 14.51 22.54-.19 2.62-1.47 2.83-3.53 2.8-4.96-.09-9.91-.03-14.87-.03h-.01Zm-4.3-6.68c3.31 0 6.63-.19 9.92.05 4.54.33 4.57-1.83 3.19-5.09-2.21-5.2-7.09-7.82-13.85-7.38-6.48.42-10.95 3.9-12.68 9.35-.88 2.76.23 3.13 2.5 3.08 3.64-.07 7.28-.02 10.92-.02v.01Zm56.22 6.68c-4.97 0-9.94.19-14.89-.07-3.34-.17-3.41 1.21-2.68 3.76 3.08 10.73 16.43 14.11 25.93 6.57 1.24-.98 1.94-3.11 4.46-1.47 4.14 2.71 4.39 3.64.67 6.87-8.59 7.48-22.49 8.04-31.26 1.28-8.51-6.56-11.41-19.91-6.57-30.2 4.8-10.19 15.4-15.09 26.93-12.45 10 2.29 17.31 13.28 15.81 23.42-.37 2.49-1.82 2.29-3.5 2.29-4.96-.01-9.93 0-14.9 0Zm-4.09-6.68c3.64 0 7.29-.16 10.92.05 3.32.18 3.46-1.19 2.61-3.84-1.83-5.71-6.47-8.79-13.45-8.65-6.33.13-12.08 4.05-13.46 9.07-.62 2.27-.19 3.47 2.46 3.39 3.64-.1 7.28-.03 10.92-.02Z"/><path fill="currentColor" d="M70.73 115.35c-4.8 0-9.6.16-14.39-.05-3.51-.16-3.79 1.09-2.78 4.07 3.6 10.72 16.24 13.96 25.54 6.51 1.27-1.01 2.02-3.6 4.78-1.58 3.02 2.21 3.97 3.77.73 6.73-7.22 6.57-20.39 8-29.2 2.81-8.99-5.3-13.23-17.13-10.12-28.25 2.74-9.79 11.29-16.19 21.76-16.3 13.54-.14 22.54 9.02 22.56 22.74 0 2.67-.97 3.43-3.48 3.37-5.12-.13-10.26-.04-15.38-.04l-.02-.01Zm-4.39-6.3c3.47 0 6.96-.22 10.41.05 4.35.34 4.72-1.72 3.54-5.05-1.96-5.55-7.61-8.43-15.08-7.7-5.91.58-11.2 5.07-12.14 10.11-.39 2.11.47 2.63 2.34 2.6 3.64-.06 7.28-.02 10.91-.01h.02Zm49.79 16.49c4.18-10.94 8.11-21.25 12.07-31.54.56-1.45.57-3.52 2.79-3.58 1.96-.06 4.45-.52 5.75.46 1.6 1.2-.31 3.29-.91 4.84-6.84 17.53-13.71 35.04-20.74 52.49-3.61 8.98-8.47 11.73-17.75 10.66-1.95-.23-3.86-.51-3.19-3.15.48-1.91-.27-4.85 3.78-3.91 5.48 1.26 8.39-1.92 10.58-6.68 2.7-5.89 3-11.17.08-17.29-5.04-10.56-9.23-21.54-13.53-32.44-.53-1.35-3.36-3.95-.22-4.73 2.45-.6 6.3-2.21 8.02 2.17 3.79 9.68 7.68 19.33 11.54 28.98.41 1.04.93 2.03 1.72 3.72h.01Z"/></svg>