<svg xmlns="http://www.w3.org/2000/svg" fill="none" viewBox="0 0 17 17"><path fill="currentColor" d="M1.894 16.95c-.538 0-.988-.18-1.35-.541C.18 16.048 0 15.6 0 15.067s.18-.98.541-1.34c.361-.36.808-.54 1.342-.54s.98.18 1.34.54c.36.359.54.802.54 1.329 0 .538-.18.988-.54 1.35a1.795 1.795 0 0 1-1.329.544Zm6.594 0c-.525 0-.97-.18-1.332-.541-.362-.361-.543-.808-.543-1.342s.178-.98.534-1.34c.357-.36.796-.54 1.319-.54.523 0 .967.18 1.334.54.367.359.55.802.55 1.329 0 .538-.18.988-.537 1.35a1.79 1.79 0 0 1-1.325.544Zm6.585 0c-.538 0-.987-.18-1.346-.541-.36-.361-.54-.808-.54-1.342s.18-.98.538-1.34c.357-.36.803-.54 1.337-.54.534 0 .982.18 1.344.54.363.359.544.802.544 1.329 0 .538-.181.988-.543 1.35a1.812 1.812 0 0 1-1.334.544ZM1.894 10.338c-.538 0-.988-.179-1.35-.535A1.777 1.777 0 0 1 0 8.484c0-.523.18-.967.541-1.334.361-.367.808-.55 1.342-.55s.98.18 1.34.538c.36.358.54.8.54 1.325 0 .525-.18.968-.54 1.33a1.796 1.796 0 0 1-1.329.545Zm6.594 0a1.83 1.83 0 0 1-1.332-.535 1.777 1.777 0 0 1-.543-1.319c0-.523.178-.967.534-1.334.357-.367.796-.55 1.319-.55.523 0 .967.18 1.334.538.367.358.55.8.55 1.325 0 .525-.18.968-.537 1.33a1.79 1.79 0 0 1-1.325.545Zm6.585 0c-.538 0-.987-.179-1.346-.535a1.784 1.784 0 0 1-.54-1.319c0-.523.18-.967.538-1.334.357-.367.803-.55 1.337-.55.534 0 .982.18 1.344.538.363.358.544.8.544 1.325 0 .525-.181.968-.543 1.33a1.812 1.812 0 0 1-1.334.545ZM1.894 3.763c-.538 0-.988-.18-1.35-.538C.18 2.869 0 2.422 0 1.888 0 1.354.18.906.541.544.902.18 1.35 0 1.883 0s.98.181 1.34.543c.36.363.54.807.54 1.334 0 .538-.18.987-.54 1.346-.359.36-.802.54-1.329.54Zm6.594 0c-.525 0-.97-.18-1.332-.538-.362-.357-.543-.803-.543-1.337 0-.534.178-.982.534-1.344A1.777 1.777 0 0 1 8.466 0c.523 0 .967.181 1.334.543.367.363.55.807.55 1.334 0 .538-.18.987-.537 1.346-.359.36-.8.54-1.325.54Zm6.585 0c-.538 0-.987-.18-1.346-.538-.36-.357-.54-.803-.54-1.337 0-.534.18-.982.538-1.344C14.082.18 14.528 0 15.062 0c.534 0 .982.181 1.344.543.363.363.544.807.544 1.334 0 .538-.181.987-.543 1.346a1.82 1.82 0 0 1-1.334.54Z"/></svg>