<svg xmlns="http://www.w3.org/2000/svg" fill="none" viewBox="0 0 18 18"><path fill="#052B65" d="M9 12c-1.65 0-3-1.35-3-3s1.35-3 3-3 3 1.35 3 3-1.35 3-3 3Zm0-4.5c-.83 0-1.5.67-1.5 1.5s.67 1.5 1.5 1.5 1.5-.67 1.5-1.5S9.83 7.5 9 7.5Z"/><path fill="#052B65" d="M9.06 18c-1.24 0-2.25-1.01-2.25-2.25 0-.25-.13-.43-.32-.5-.23-.1-.44-.06-.58.08-.46.46-1.03.7-1.63.7-.6 0-1.17-.23-1.59-.66-.88-.88-.88-2.3 0-3.18.18-.18.22-.39.14-.58a.486.486 0 0 0-.45-.3h-.12C1.02 11.31.01 10.3.01 9.06s1.01-2.25 2.25-2.25c.25 0 .43-.13.5-.32.1-.23.06-.44-.08-.58-.46-.46-.7-1.03-.7-1.63 0-.6.23-1.17.66-1.59.42-.43.99-.66 1.59-.66.6 0 1.17.23 1.59.66.18.18.39.22.58.14.05-.02.1-.04.15-.05.13-.09.21-.24.21-.4v-.12C6.76 1.02 7.77.01 9.01.01s2.25 1.01 2.25 2.25c0 .26.12.43.3.51.19.08.4.04.54-.09.46-.46 1.03-.7 1.63-.7.6 0 1.17.23 1.59.66.43.42.66.99.66 1.59 0 .6-.23 1.17-.66 1.59-.18.18-.22.39-.14.58.02.05.04.1.05.15.09.13.24.21.4.21h.12c1.24 0 2.25 1.01 2.25 2.25s-1.01 2.25-2.25 2.25c-.26 0-.43.12-.51.3-.08.18-.04.39.1.54.46.46.7 1.03.7 1.63 0 .6-.23 1.17-.66 1.59-.42.42-1 .66-1.59.66h-.01a2.2 2.2 0 0 1-1.58-.66c-.18-.18-.39-.22-.58-.14-.19.08-.3.25-.3.45v.12c0 1.24-1.01 2.25-2.25 2.25h-.01Zm-2.8-4.31c.27 0 .54.06.79.17.73.27 1.24.98 1.26 1.8 0 .5.34.84.75.84s.75-.34.75-.75v-.13c0-.8.48-1.51 1.2-1.82.74-.33 1.6-.17 2.19.4.19.19.38.27.58.27a.75.75 0 0 0 .53-1.28c-.62-.64-.78-1.49-.45-2.24.31-.73 1.03-1.2 1.82-1.2.48 0 .82-.34.82-.75s-.34-.75-.75-.75h-.13c-.79 0-1.51-.48-1.82-1.2-.03-.06-.04-.13-.05-.2-.25-.71-.08-1.5.46-2.05.19-.19.27-.38.27-.58 0-.2-.08-.39-.22-.53-.28-.29-.78-.28-1.06 0-.63.62-1.49.78-2.24.45a1.998 1.998 0 0 1-1.2-1.82c0-.48-.34-.82-.75-.82a.75.75 0 0 0-.75.75v.13c0 .8-.48 1.51-1.21 1.82-.06.03-.13.04-.2.05-.71.25-1.5.08-2.05-.45-.19-.19-.38-.27-.58-.27a.75.75 0 0 0-.53 1.28c.62.64.78 1.5.45 2.24-.27.73-.98 1.24-1.8 1.26-.5 0-.83.34-.83.75s.34.75.75.75h.13c.8 0 1.51.48 1.82 1.2.33.74.17 1.6-.4 2.19-.35.34-.35.82-.05 1.11a.75.75 0 0 0 1.06 0c.42-.41.93-.62 1.45-.62h-.01Z"/></svg>