<svg fill="none" height="56" viewBox="0 0 56 56" width="56" xmlns="http://www.w3.org/2000/svg"><path d="m35 39.6666 2.5177 4.7694c.1517.2893.497.4176.819.4176.0117 0 .021 0 .0327-.0023 1.834-.0583 9.8816-1.4233 12.831-6.6313.0886-.1517.133-.3244.133-.504 0-10.0427-4.2724-21.658-6.4657-23.688-2.107-1.7034-4.7017-2.9074-6.7013-3.668-.7164-.273-1.5237-.1774-2.156.259-.6324.434-1.0104 1.1526-1.0104 1.9203 0 .8073-.6533 1.4607-1.4606 1.4607-3.668 0-7.4107 0-11.081 0-.805 0-1.4584-.6534-1.4584-1.4584 0-.7676-.378-1.4863-1.0103-1.9226-.6323-.4364-1.4397-.532-2.156-.2567-2.0067.7677-4.6153 1.9833-6.7527 3.71-2.14198 1.9857-6.41431 13.6034-6.41431 23.646 0 .1774.04433.35.133.504 2.95166 5.2104 10.99931 6.573 12.83101 6.6313.0117.0024.021.0024.0327.0024.3243 0 .6673-.1307.819-.4177l2.5176-4.7717z" fill="#ED6834" opacity=".3"/><path d="m35 39.6666 2.5177 4.7694c.1517.2893.497.4176.819.4176.0117 0 .021 0 .0327-.0023 1.834-.0583 9.8816-1.4233 12.831-6.6313.0886-.1517.133-.3244.133-.504 0-10.0427-4.2724-21.658-6.4657-23.688-2.107-1.7034-4.7017-2.9074-6.7013-3.668-.7164-.273-1.5237-.1774-2.156.259-.6324.434-1.0104 1.1526-1.0104 1.9203 0 .8073-.6533 1.4607-1.4606 1.4607-3.668 0-7.4107 0-11.081 0-.805 0-1.4584-.6534-1.4584-1.4584 0-.7676-.378-1.4863-1.0103-1.9226-.6323-.4364-1.4397-.532-2.156-.2567-2.0067.7677-4.6153 1.9833-6.7527 3.71-2.14198 1.9857-6.41431 13.6034-6.41431 23.646 0 .1774.04433.35.133.504 2.95166 5.2104 10.99931 6.573 12.83101 6.6313.0117.0024.021.0024.0327.0024.3243 0 .6673-.1307.819-.4177l2.5176-4.7717" stroke="#ED6834" stroke-miterlimit="10" stroke-width="2"/><path d="m21.0933 32.6387c-1.9343 0-3.5-2.0837-3.5-4.6574 0-2.5736 1.5657-4.6573 3.5-4.6573 1.9414-.2567 3.458 2.0837 3.5 4.6573 0 2.5737-1.5656 4.6574-3.5 4.6574z" fill="#ED6834"/><path d="m34.9906 32.6947c1.933 0 3.5-2.0893 3.5-4.6666 0-2.5774-1.567-4.6667-3.5-4.6667s-3.5 2.0893-3.5 4.6667c0 2.5773 1.567 4.6666 3.5 4.6666z" fill="#ED6834"/><path d="m16.3333 37.3333c8.757 3.1127 14.1353 3.1103 23.3333 0" stroke="#ED6834" stroke-linecap="round" stroke-miterlimit="10" stroke-width="2"/></svg>