<svg fill="none" height="42" viewBox="0 0 42 42" width="42" xmlns="http://www.w3.org/2000/svg"><g fill="#ED6834"><path d="m33.25 35h-24.5c-1.05 0-1.75-.7-1.75-1.75v-24.5c0-1.05.7-1.75 1.75-1.75h24.5c1.05 0 1.75.7 1.75 1.75v24.5c0 1.05-.7 1.75-1.75 1.75z" opacity=".2"/><path d="m12.25 15.75h17.5v3.5h-17.5zm0 7h17.5v3.5h-17.5z"/><path d="m33.25 36.75h-24.5c-1.925 0-3.5-1.575-3.5-3.5v-24.5c0-1.925 1.575-3.5 3.5-3.5h24.5c1.925 0 3.5 1.575 3.5 3.5v24.5c0 1.925-1.575 3.5-3.5 3.5zm0-3.5v1.75zm-24.5-24.5v24.5h24.5v-24.5z"/></g></svg>