<svg fill="none" height="56" viewBox="0 0 56 56" width="56" xmlns="http://www.w3.org/2000/svg"><g fill="#ED6834"><path d="m35 21v9.3333h-14v11.6667h28v-21z" opacity=".3"/><path d="m32.6667 7h-23.33335c-2.56666 0-4.66666 2.1-4.66666 4.6667v28l7.00001-7h21c2.5667 0 4.6667-2.1 4.6667-4.6667v-16.3333c0-2.5667-2.1-4.6667-4.6667-4.6667zm0 21h-21-1.86668l-.46667.4667v-16.8h23.33335z"/><path d="m46.6667 18.6667h-11.6667v4.6667h11.6667v16.8l-.4667-.4667h-1.8666-21v-9.3333h-4.6667v9.3333c0 2.5667 2.1 4.6667 4.6667 4.6667h21l7 7v-28c0-2.5667-2.1-4.6667-4.6667-4.6667z"/><path d="m7 9.33331h28v20.99999h-28z" opacity=".3"/></g></svg>