<svg fill="none" height="42" viewBox="0 0 42 42" width="42" xmlns="http://www.w3.org/2000/svg"><g fill="#ED6834"><path d="m8.75 15.75h17.5v21h-17.5z" opacity=".2"/><path d="m3.5 35h28v3.5h-28z"/><path d="m28 36.75h-3.5v-28c0-1.05-.7-1.75-1.75-1.75h-10.5c-1.05 0-1.75.7-1.75 1.75v28h-3.5v-28c0-2.975 2.275-5.25 5.25-5.25h10.5c2.975 0 5.25 2.275 5.25 5.25z"/><path d="m31.5 31.4999h-5.25v-3.5h5.25c1.05 0 1.75-.7 1.75-1.75v-11.55l-4.725-4.725 2.45-2.45 5.775 5.775v12.95c0 2.975-2.275 5.25-5.25 5.25zm-22.75-17.5h17.5v3.5h-17.5z"/><path d="m31.5 10.5v5.25c0 1.05.7 1.75 1.75 1.75h1.75v-3.5z"/></g></svg>