<svg fill="none" height="56" viewBox="0 0 56 56" width="56" xmlns="http://www.w3.org/2000/svg"><g fill="#ED6834"><path d="m28 4.66669c-6.1884 0-12.1233 2.45832-16.4992 6.83421-4.37582 4.3758-6.83414 10.3107-6.83414 16.4991s2.45832 12.1233 6.83414 16.4992c4.3759 4.3758 10.3108 6.8342 16.4992 6.8342s12.1233-2.4584 16.4991-6.8342c4.3759-4.3759 6.8342-10.3108 6.8342-16.4992s-2.4583-12.1233-6.8342-16.4991c-4.3758-4.37589-10.3107-6.83421-16.4991-6.83421z" opacity=".3"/><path d="m25.4334 4.89997c-10.7334 1.16666-19.36671 9.80003-20.53338 20.30003-1.16667 10.9666 5.13338 20.7666 14.69998 24.5.7.2333 1.4-.2334 1.4-1.1667v-3.7333s-.9333.2333-2.1.2333c-3.2666 0-4.6666-2.8-4.9-4.4333-.2333-.9334-.7-1.6334-1.4-2.3334-.7-.2333-.9333-.2333-.9333-.4666 0-.4667.7-.4667.9333-.4667 1.4 0 2.5667 1.6333 3.0334 2.3333 1.1666 1.8667 2.5666 2.3334 3.2666 2.3334.9334 0 1.6334-.2334 2.1-.4667.2334-1.6333.9334-3.2667 2.3334-4.2-5.3667-1.1667-9.3334-4.2-9.3334-9.3333 0-2.5667 1.1667-5.1334 2.8-7-.2333-.4667-.4666-1.6334-.4666-3.2667 0-.9333 0-2.3333.7-3.7333 0 0 3.2666 0 6.5333 3.0333 1.1667-.4667 2.8-.7 4.4333-.7 1.6334 0 3.2667.2333 4.6667.7 3.0333-3.0333 6.5333-3.0333 6.5333-3.0333.4667 1.4.4667 2.8.4667 3.7333 0 1.8667-.2333 2.8-.4667 3.2667 1.6334 1.8666 2.8 4.2 2.8 7 0 5.1333-3.9666 8.1666-9.3333 9.3333 1.4 1.1667 2.3333 3.2667 2.3333 5.3667v6.0666c0 .7.7 1.4 1.6334 1.1667 8.6333-3.5 14.7-11.9 14.7-21.7 0-14-11.9-24.96667-25.9-23.33333z"/></g></svg>