<svg width="105" height="105" viewBox="0 0 105 105" fill="none" xmlns="http://www.w3.org/2000/svg">
<path d="M70 74.375H48.125C38.5 74.375 30.625 66.5 30.625 56.875V39.375C30.625 29.75 38.5 21.875 48.125 21.875H70V30.625H48.125C43.3125 30.625 39.375 34.5625 39.375 39.375V56.875C39.375 61.6875 43.3125 65.625 48.125 65.625H70V74.375Z" fill="#ED6834"/>
<path opacity="0.3" d="M70 70H48.125C40.6875 70 35 64.3125 35 56.875V39.375C35 31.9375 40.6875 26.25 48.125 26.25H70" fill="#ED6834"/>
<path d="M65.625 13.125H74.375V83.125H65.625V13.125ZM21.875 91.875H13.125V56.875C13.125 49.4375 18.8125 43.75 26.25 43.75H35V52.5H26.25C23.625 52.5 21.875 54.25 21.875 56.875V91.875Z" fill="#ED6834"/>
<path d="M70 30.625H91.875V39.375H70V30.625ZM70 56.875H91.875V65.625H70V56.875Z" fill="#ED6834"/>
</svg>
