<svg fill="none" height="42" viewBox="0 0 42 42" width="42" xmlns="http://www.w3.org/2000/svg" xmlns:xlink="http://www.w3.org/1999/xlink"><clipPath id="a"><path d="m0 0h42v42h-42z"/></clipPath><g clip-path="url(#a)"><path d="m14 28 7-7v-10.5" stroke="#ED6834" stroke-miterlimit="10" stroke-width="2"/><g fill="#ED6834"><path d="m40.2255 34.8093c0 4.1702-3.577 4.732-4.2088 4.8072v2.3835h-1.8742v-2.3817c-.5828-.077-4.5097-.4883-4.5097-5.67h3.5349c0 3.059 1.6485 2.933 1.8988 2.933.2747 0 1.624-.049 1.624-2.0475 0-3.9935-6.9405-2.2208-6.9405-8.2058 0-4.102 3.5735-4.7425 4.2087-4.8195v-2.5585h1.8848v2.6075c.6002.1103 4.4065.8453 4.4065 5.551h-3.535c0-2.4587-1.0903-2.8472-1.5488-2.8472-.2502 0-1.9162.063-1.9162 2.0807.0017 3.5228 6.9755 2.4238 6.9755 8.1673z"/><path d="m26.25 33.9692c-1.6222.6598-3.3932 1.0308-5.25 1.0308-7.7192 0-14-6.2808-14-14s6.2808-14 14-14c5.8625 0 10.8868 3.626 12.9693 8.75h3.724c-2.2348-7.09275-8.8725-12.25-16.6933-12.25-9.6495 0-17.5 7.8505-17.5 17.5s7.8505 17.5 17.5 17.5c1.8288 0 3.591-.2835 5.25-.8068z"/><path d="m26.25 27.125c0-3.5858 2.163-6.6605 5.25-8.0115v-3.3635h4.3347c-2.1647-6.11275-7.98-10.5-14.8347-10.5-8.6993 0-15.75 7.0507-15.75 15.75s7.0507 15.75 15.75 15.75c1.8427 0 3.6085-.3202 5.25-.9012z" opacity=".3"/></g></g></svg>