<svg fill="none" height="56" viewBox="0 0 56 56" width="56" xmlns="http://www.w3.org/2000/svg"><g fill="#ED6834"><path d="m51.3334 9.33105c-1.82 1.08035-5.4717 2.55265-7.6184 2.97735-.063.0163-.1143.0373-.175.0537-1.897-1.8714-4.4963-3.03105-7.3733-3.03105-5.7983 0-10.5 4.70165-10.5 10.50005 0 .3056-.0257.868 0 1.1666-7.8237 0-13.7783-4.0973-18.04835-9.3333-.46433 1.1667-.66733 3.01-.66733 4.7413 0 3.269 2.555 6.4797 6.53338 8.47-.7327.189-1.54.3244-2.38.3244-1.35571 0-2.79071-.357-4.10438-1.4397v.119c0 4.5687 4.84868 7.679 9.16068 8.5447-.875.5156-2.639.567-3.5.567-.6067 0-2.75335-.2777-3.32735-.385 1.19935 3.745 5.52535 5.8496 9.64835 5.9243-3.2247 2.5293-5.4623 3.4673-12.06568 3.4673h-2.24933c4.172 2.674 9.48501 4.669 14.80971 4.669 17.3366 0 27.1903-13.2136 27.1903-25.669 0-.2006-.0047-.6206-.0117-1.043 0-.042.0117-.0816.0117-.1236 0-.063-.0187-.1237-.0187-.1867-.007-.3173-.014-.6137-.021-.7677 1.8434-1.33 3.4417-2.989 4.7064-4.879-1.6917.7514-3.507 1.2554-5.4134 1.484 1.946-1.1666 4.711-3.948 5.4134-6.15065z" opacity=".3"/><path d="m51.3334 9.33105c-1.82 1.08035-5.4717 2.55265-7.6184 2.97735-.063.0163-.1143.0373-.175.0537-1.897-1.8714-4.4963-3.03105-7.3733-3.03105-5.7983 0-10.5 4.70165-10.5 10.50005 0 .3056-.0257.868 0 1.1666-7.8237 0-13.7783-4.0973-18.04835-9.3333-.46433 1.1667-.66733 3.01-.66733 4.7413 0 3.269 2.555 6.4797 6.53338 8.47-.7327.189-1.54.3244-2.38.3244-1.35571 0-2.79071-.357-4.10438-1.4397v.119c0 4.5687 4.84868 7.679 9.16068 8.5447-.875.5156-2.639.567-3.5.567-.6067 0-2.75335-.2777-3.32735-.385 1.19935 3.745 5.52535 5.8496 9.64835 5.9243-3.2247 2.5293-5.4623 3.4673-12.06568 3.4673h-2.24933c4.172 2.674 9.48501 4.669 14.80971 4.669 17.3366 0 27.1903-13.2136 27.1903-25.669 0-.2006-.0047-.6206-.0117-1.043 0-.042.0117-.0816.0117-.1236 0-.063-.0187-.1237-.0187-.1867-.007-.3173-.014-.6137-.021-.7677 1.8434-1.33 3.4417-2.989 4.7064-4.879-1.6917.7514-3.507 1.2554-5.4134 1.484 1.946-1.1666 4.711-3.948 5.4134-6.15065zm-9.3334 11.66665c0 9.52-6.8996 19.5977-19.754 20.867 1.7407-1.2343 3.4207-2.9866 3.4207-2.9866s-7-6.2114-7.525-14.3267c2.415.7373 4.9303 1.113 7.525 1.113h4.6667v-5.8333c0-.0024 0-.0024 0-.0024.0046-3.22 2.6133-5.8286 5.8333-5.8286 3.2223 0 5.8333 2.611 5.8333 5.8333z"/></g></svg>