<svg xmlns="http://www.w3.org/2000/svg" fill="none" viewBox="0 0 22 22"><path fill="currentColor" d="M11.742 11 8.36 14.383 9.9 15.95 14.85 11 9.9 6.05 8.36 7.617 11.743 11ZM11 22a10.71 10.71 0 0 1-4.29-.866 11.108 11.108 0 0 1-3.493-2.352 11.109 11.109 0 0 1-2.35-3.492A10.711 10.711 0 0 1 0 11c0-1.522.289-2.952.866-4.29a11.108 11.108 0 0 1 2.351-3.493c.99-.99 2.155-1.773 3.493-2.35A10.711 10.711 0 0 1 11 0c1.522 0 2.952.289 4.29.866a11.109 11.109 0 0 1 3.492 2.351c.99.99 1.774 2.155 2.352 3.493A10.71 10.71 0 0 1 22 11a10.71 10.71 0 0 1-.866 4.29 11.109 11.109 0 0 1-2.352 3.492 11.12 11.12 0 0 1-3.492 2.352A10.71 10.71 0 0 1 11 22Zm0-2.2c2.457 0 4.537-.852 6.242-2.558C18.948 15.537 19.8 13.457 19.8 11s-.852-4.537-2.558-6.242C15.537 3.053 13.457 2.2 11 2.2s-4.537.853-6.242 2.558C3.053 6.463 2.2 8.543 2.2 11s.853 4.537 2.558 6.242C6.463 18.948 8.543 19.8 11 19.8Z"/></svg>