<svg xmlns="http://www.w3.org/2000/svg" fill="none" viewBox="0 0 192 110"><g clip-path="url(#a)"><path fill="#827474" d="M139.532 85.54H93.9l1.369 6.575a13.334 13.334 0 0 0 12.553 10.606l1.513 4.609a3.133 3.133 0 0 0 3.799 2.054 3.203 3.203 0 0 0 2.304-3.748l-.607-2.905h3.293l3.177 4.861a3.138 3.138 0 0 0 4.201 1.001 3.207 3.207 0 0 0 1.256-4.218l-.843-1.669a13.33 13.33 0 0 0 12.247-10.591l1.369-6.574h.001ZM36.501 51.259l-36.5 5.5V78.54h36.5V51.258Zm119.265.68L192 57.535v21.49h-36.234v-27.09.003Z"/><path fill="#FFF8F7" d="M191.977 90.541H.001v-20l36.5-5.533V37.896l30.107-17.632h50.21c18.202 0 34.096 12.316 38.639 29.941l3.962 15.37 32.558 5.03v19.936Z"/><path fill="#827474" d="M146.637 33.547h28.07c9.535 0 17.266-7.73 17.266-17.267v-6.068l-32.693 7.475a16.27 16.27 0 0 0-12.644 15.86"/><path fill="#827474" fill-rule="evenodd" d="M49.176 51.283c3.657 0 6.892-2.412 7.998-5.963l5.684-18.254h3.494c3.657 0 6.892-2.412 7.998-5.963l3.377-10.846H65.059L71.74 0H8.434l6.68 10.257H2.448l3.378 10.846c1.105 3.55 4.34 5.963 7.997 5.963h3.495L23 45.32c1.105 3.55 4.34 5.963 7.997 5.963h18.178Zm-.765-24.254c.183.025.369.037.555.037 2.489 0 4.507-2.232 4.507-4.985 0-2.547-1.727-4.648-3.956-4.95a4.237 4.237 0 0 0-.554-.037c-2.49 0-4.508 2.233-4.508 4.986 0 2.547 1.727 4.648 3.956 4.95v-.001Zm-12.74-5.585-8.315-2.875-1.252 3.73 8.317 2.875 1.25-3.73Z" clip-rule="evenodd"/></g><defs><clipPath id="a"><path fill="#fff" d="M192 0H0v110h192z"/></clipPath></defs></svg>