<svg xmlns="http://www.w3.org/2000/svg" fill="none" viewBox="0 0 172 28"><path fill="currentColor" d="M61.082 21h-2.92V9.744h-.02a1.658 1.658 0 0 1-.063.252 1.114 1.114 0 0 1-.063.23c-.126.505-.266.98-.42 1.429l-.441 1.239L54.278 21h-2.961l-2.877-8.106c-.112-.28-.217-.56-.315-.84a31.724 31.724 0 0 0-.273-.903c-.07-.21-.133-.42-.19-.63l-.167-.672h-.021V21h-2.92V5.88h4.285l2.604 7.245c.112.322.224.665.336 1.029.126.35.245.7.357 1.05.112.364.224.72.336 1.07.112.35.217.694.315 1.03h.02c.113-.336.218-.68.316-1.03l.336-1.091c.112-.364.224-.714.336-1.05.112-.35.224-.686.336-1.008l2.625-7.245h4.326V21ZM74.807 8.778H67.1v3.213h6.93v2.898H67.1v3.213h7.707V21H64.18V5.88h10.626v2.898Zm14.72-2.898L84.214 21h-2.919L75.982 5.88h3.087l2.625 7.77c.098.308.196.63.294.966.112.322.224.65.336.987.084.238.161.469.231.693.07.224.14.44.21.65h.021c.056-.153.105-.314.147-.482.042-.168.091-.343.147-.525.126-.392.245-.777.357-1.155.126-.392.26-.77.4-1.134l2.603-7.77h3.087Zm16.968 7.37a4.01 4.01 0 0 1 1.659 1.513c.434.672.644 1.372.63 2.1 0 .742-.21 1.428-.63 2.058a4.441 4.441 0 0 1-1.659 1.512 4.498 4.498 0 0 1-2.205.567h-6.846V5.88h6.237c.826 0 1.582.189 2.268.567a4.26 4.26 0 0 1 1.638 1.512c.406.63.609 1.316.609 2.058a3.73 3.73 0 0 1-.462 1.827 4.034 4.034 0 0 1-1.239 1.386v.02Zm-6.132-4.472v3.192h3.339c.294 0 .56-.07.798-.21.252-.14.448-.33.588-.567.14-.252.21-.518.21-.798a1.48 1.48 0 0 0-.231-.82 1.572 1.572 0 0 0-.567-.566 1.474 1.474 0 0 0-.819-.231h-3.318Zm3.927 9.324c.294 0 .56-.07.798-.21a1.75 1.75 0 0 0 .567-.588c.154-.252.231-.525.231-.82 0-.293-.077-.56-.231-.797a1.527 1.527 0 0 0-.567-.588 1.438 1.438 0 0 0-.798-.231h-3.927v3.234h3.927ZM113.855 21h-2.919V5.88h2.919V21Zm7.488.126c-.98 0-1.883-.245-2.709-.735a5.674 5.674 0 0 1-1.974-2.016 5.641 5.641 0 0 1-.714-2.793c0-1.008.238-1.932.714-2.772a5.456 5.456 0 0 1 1.974-2.016 5.103 5.103 0 0 1 2.709-.756h.021c.98 0 1.876.252 2.688.756a5.298 5.298 0 0 1 1.953 2.016c.49.854.735 1.778.735 2.772 0 .994-.245 1.918-.735 2.772a5.457 5.457 0 0 1-1.953 2.037 5.104 5.104 0 0 1-2.688.735h-.021Zm.021-2.898a2.28 2.28 0 0 0 1.239-.357c.378-.238.672-.553.882-.945.224-.406.336-.854.336-1.344 0-.476-.112-.917-.336-1.323a2.607 2.607 0 0 0-.903-.966 2.245 2.245 0 0 0-1.218-.357h-.021c-.462 0-.882.119-1.26.357s-.679.56-.903.966a2.694 2.694 0 0 0-.336 1.323c0 .476.112.917.336 1.323.224.406.525.728.903.966s.798.357 1.26.357h.021Zm14.527-3.99a1.871 1.871 0 0 0-.777-1.05 2.268 2.268 0 0 0-1.302-.4 2.24 2.24 0 0 0-1.323.4 2.534 2.534 0 0 0-.882 1.029c-.196.42-.294.875-.294 1.365s.105.952.315 1.386c.21.42.504.763.882 1.029.392.252.826.378 1.302.378.518 0 .98-.14 1.386-.42.406-.28.651-.63.735-1.05h2.877c-.028.574-.259 1.197-.693 1.869-.434.658-1.029 1.218-1.785 1.68a4.85 4.85 0 0 1-2.52.672c-.98 0-1.883-.245-2.709-.735a5.674 5.674 0 0 1-1.974-2.016 5.641 5.641 0 0 1-.714-2.793c0-1.008.238-1.932.714-2.772a5.456 5.456 0 0 1 1.974-2.016 5.103 5.103 0 0 1 2.709-.756c1.022 0 1.904.224 2.646.672.742.434 1.316.98 1.722 1.638.406.644.63 1.274.672 1.89h-2.961Zm8.049-8.358V21h-2.919V5.88h2.919Zm3.045 8.547L151.5 21h-3.339l-4.347-6.342 3.171-.231Zm3.948-4.263-4.41 5.124-1.365 1.134-1.638 1.869-1.428-1.806 5.418-6.321h3.423Zm3.762 6.216c.098.658.343 1.19.735 1.596.406.392.973.588 1.701.588.336 0 .63-.05.882-.147.252-.112.462-.252.63-.42a1.67 1.67 0 0 0 .357-.567h2.898c-.042.42-.231.917-.567 1.49-.336.575-.854 1.086-1.554 1.534-.7.448-1.582.672-2.646.672-1.022 0-1.953-.238-2.793-.714a5.186 5.186 0 0 1-1.953-1.974c-.476-.854-.714-1.806-.714-2.856 0-1.022.238-1.953.714-2.793a5.298 5.298 0 0 1 1.953-2.016 5.213 5.213 0 0 1 2.709-.735c.924 0 1.771.252 2.541.756a4.992 4.992 0 0 1 1.827 2.016c.448.84.672 1.757.672 2.75 0 .295-.014.568-.042.82h-7.35Zm2.352-3.78c-.616 0-1.113.168-1.491.504-.378.336-.63.79-.756 1.365h4.347a2.69 2.69 0 0 0-.378-.987 1.878 1.878 0 0 0-.714-.651c-.28-.154-.616-.231-1.008-.231Zm12.944-2.562c.21 0 .56.02 1.05.063a.186.186 0 0 0 .084.02h.084v2.899h-.042c-.014 0-.028-.007-.042-.021a6.03 6.03 0 0 0-.651-.063 7.82 7.82 0 0 0-.819-.042c-.826 0-1.47.23-1.932.693-.448.448-.672 1.155-.672 2.12V21h-2.919V10.164h2.919v1.449c.308-.532.714-.924 1.218-1.176a3.714 3.714 0 0 1 1.722-.4ZM18 17.02a2.928 2.928 0 1 0 0-5.857 2.928 2.928 0 0 0 0 5.857Z"/><path fill="currentColor" fill-rule="evenodd" d="M13.059 0h9.882l.454 4.655 4.259-1.934 4.941 8.558L28.791 14l3.804 2.72-4.941 8.56-4.259-1.935L22.941 28H13.06l-.454-4.655-4.259 1.934-4.94-8.558L7.208 14l-3.804-2.72 4.941-8.56 4.259 1.935L13.059 0Zm12.443 14-3.751 6.497h-7.502L10.5 14l3.75-6.497h7.502L25.5 14Z" clip-rule="evenodd"/></svg>