<svg xmlns="http://www.w3.org/2000/svg" fill="none" viewBox="0 0 143 28"><path fill="currentColor" d="M135.052 21.126a7.493 7.493 0 0 1-3.843-1.03 8.025 8.025 0 0 1-2.793-2.813 7.493 7.493 0 0 1-1.029-3.843c0-1.386.343-2.667 1.029-3.843a7.852 7.852 0 0 1 2.793-2.793 7.378 7.378 0 0 1 3.843-1.05c1.386 0 2.667.35 3.843 1.05a7.635 7.635 0 0 1 2.793 2.793 7.493 7.493 0 0 1 1.029 3.843 7.493 7.493 0 0 1-1.029 3.843 7.799 7.799 0 0 1-2.793 2.814 7.493 7.493 0 0 1-3.843 1.029Zm0-2.898c.882 0 1.68-.217 2.394-.651a4.78 4.78 0 0 0 1.722-1.743 4.59 4.59 0 0 0 .651-2.394 4.59 4.59 0 0 0-.651-2.394 4.78 4.78 0 0 0-1.722-1.743 4.518 4.518 0 0 0-2.394-.651 4.59 4.59 0 0 0-2.394.65 5.007 5.007 0 0 0-1.722 1.744 4.59 4.59 0 0 0-.651 2.394c0 .868.217 1.666.651 2.394a5.007 5.007 0 0 0 1.722 1.743 4.59 4.59 0 0 0 2.394.65Zm-20.055-1.029V14.51h7.98v2.688h-7.98Zm8.631 3.8-2.94-7.622a35.143 35.143 0 0 0-.378-.966 41.736 41.736 0 0 1-.357-.945 22.179 22.179 0 0 0-.315-.882l-.294-.882h-.021a8.413 8.413 0 0 1-.189.546l-.168.546c-.14.42-.294.84-.462 1.26-.154.42-.322.86-.504 1.323L115.06 21h-3.15l5.859-15.12h3.15L126.778 21h-3.15ZM104.186 5.88c1.358 0 2.611.336 3.759 1.008a7.41 7.41 0 0 1 2.751 2.75c.686 1.149 1.029 2.416 1.029 3.802 0 1.386-.343 2.66-1.029 3.822a7.459 7.459 0 0 1-2.751 2.73A7.309 7.309 0 0 1 104.186 21h-5.985V5.88h5.985Zm0 12.222c.84 0 1.617-.21 2.331-.63a4.555 4.555 0 0 0 1.68-1.701c.42-.714.63-1.491.63-2.331 0-.84-.21-1.617-.63-2.331a4.555 4.555 0 0 0-1.68-1.701 4.516 4.516 0 0 0-2.331-.63h-3.066v9.324h3.066ZM90.27 5.88 86.133 21H83.13l-2.08-7.77a28.525 28.525 0 0 0-.188-.714 20.702 20.702 0 0 0-.19-.777l-.167-.756c-.056-.252-.112-.49-.168-.714h-.021c-.056.21-.12.44-.19.693a60.73 60.73 0 0 0-.167.735l-.21.798c-.056.252-.12.497-.19.735L77.482 21h-3.003L70.34 5.88h2.982l2.058 7.77c.056.21.112.434.168.672.056.238.112.483.168.735.056.252.112.497.168.735.056.238.098.469.126.693h.02c.057-.252.12-.518.19-.798.07-.294.14-.595.21-.903.056-.196.105-.385.147-.567.056-.196.105-.385.147-.567l2.079-7.77h3.003l2.1 7.77c.042.154.084.315.126.483l.126.504c.126.504.273 1.12.44 1.848h.022l.084-.42c.028-.154.063-.315.105-.483.14-.672.287-1.316.44-1.932l2.038-7.77h2.982ZM65.15 21.126a5.22 5.22 0 0 1-2.71-.735 5.674 5.674 0 0 1-1.973-2.016 5.641 5.641 0 0 1-.714-2.793c0-1.008.238-1.932.714-2.772a5.456 5.456 0 0 1 1.974-2.016 5.103 5.103 0 0 1 2.709-.756h.02a5 5 0 0 1 2.689.756 5.298 5.298 0 0 1 1.953 2.016c.49.854.735 1.778.735 2.772 0 .994-.245 1.918-.735 2.772a5.457 5.457 0 0 1-1.953 2.037 5.104 5.104 0 0 1-2.688.735h-.021Zm.02-2.898a2.28 2.28 0 0 0 1.24-.357c.378-.238.672-.553.882-.945.224-.406.336-.854.336-1.344 0-.476-.112-.917-.336-1.323a2.607 2.607 0 0 0-.903-.966 2.245 2.245 0 0 0-1.218-.357h-.021c-.462 0-.882.119-1.26.357s-.68.56-.903.966a2.694 2.694 0 0 0-.336 1.323c0 .476.112.917.336 1.323.224.406.525.728.903.966s.798.357 1.26.357h.02Zm-13.708 2.898a7.493 7.493 0 0 1-3.843-1.03 8.025 8.025 0 0 1-2.793-2.813 7.493 7.493 0 0 1-1.03-3.843c0-1.386.344-2.667 1.03-3.843a7.852 7.852 0 0 1 2.793-2.793 7.378 7.378 0 0 1 3.843-1.05c1.232 0 2.33.28 3.297.84.966.546 1.736 1.246 2.31 2.1.588.854.959 1.729 1.113 2.625h-3.024a3.078 3.078 0 0 0-.756-1.365 3.965 3.965 0 0 0-1.344-.945 3.784 3.784 0 0 0-1.596-.357 4.59 4.59 0 0 0-2.394.65 5.007 5.007 0 0 0-1.722 1.744 4.59 4.59 0 0 0-.651 2.394c0 .868.217 1.666.65 2.394a5.007 5.007 0 0 0 1.723 1.743 4.59 4.59 0 0 0 2.394.65c.868 0 1.645-.23 2.33-.692a3.475 3.475 0 0 0 1.408-1.89h3.003a6.447 6.447 0 0 1-1.113 2.709c-.588.826-1.372 1.498-2.352 2.016-.966.504-2.058.756-3.276.756Z"/><path fill="currentColor" fill-rule="evenodd" d="M13.653 26a4.011 4.011 0 0 1-3.824-2.79L7.11 14.666H5.44a4.011 4.011 0 0 1-3.825-2.791L0 6.8h6.058L2.863 2h30.274l-3.195 4.8H36l-1.615 5.076a4.011 4.011 0 0 1-3.825 2.79h-1.67l-2.72 8.544A4.011 4.011 0 0 1 22.346 26h-8.693ZM11.6 12.333c0 1.289.965 2.334 2.156 2.334 1.19 0 2.155-1.045 2.155-2.334 0-1.288-.965-2.333-2.155-2.333S11.6 11.045 11.6 12.333Zm12.8 0c0 1.289-.965 2.334-2.156 2.334-1.19 0-2.155-1.045-2.155-2.334 0-1.288.965-2.333 2.155-2.333s2.156 1.045 2.156 2.333Z" clip-rule="evenodd"/></svg>