<svg xmlns="http://www.w3.org/2000/svg" width="176" height="62" fill="none" viewBox="0 0 176 62"><path fill="#012f7a" d="M60.206 39.236a8.77 8.77 0 0 1-4.496-1.204 9.3 9.3 0 0 1-3.292-3.292 8.77 8.77 0 0 1-1.204-4.496q0-2.432 1.204-4.496a9.1 9.1 0 0 1 3.292-3.268 8.63 8.63 0 0 1 4.496-1.228q2.187 0 3.882 1.007 1.719.983 2.727 2.506 1.007 1.5 1.253 3.071h-3.66a3.55 3.55 0 0 0-.86-1.547 4.45 4.45 0 0 0-1.524-1.106 4.4 4.4 0 0 0-1.818-.393q-1.498 0-2.751.737a5.6 5.6 0 0 0-1.966 1.99 5.2 5.2 0 0 0-.737 2.727q0 1.498.737 2.752a5.65 5.65 0 0 0 1.966 1.965 5.33 5.33 0 0 0 2.751.737q1.474 0 2.653-.786a3.76 3.76 0 0 0 1.573-2.138h3.66a7.3 7.3 0 0 1-1.277 3.17q-1.032 1.473-2.752 2.383-1.695.909-3.857.909m15.867 0a6.1 6.1 0 0 1-3.17-.86 6.64 6.64 0 0 1-2.309-2.359q-.86-1.498-.86-3.267 0-1.77.86-3.243a6.4 6.4 0 0 1 2.31-2.359 5.97 5.97 0 0 1 3.169-.884h.025a5.97 5.97 0 0 1 3.169.884 6.2 6.2 0 0 1 2.285 2.359q.86 1.499.86 3.243a6.4 6.4 0 0 1-.86 3.243 6.4 6.4 0 0 1-2.285 2.383 6.1 6.1 0 0 1-3.17.86zm.025-3.538a2.6 2.6 0 0 0 1.4-.393 2.84 2.84 0 0 0 1.007-1.056q.369-.69.369-1.5 0-.785-.393-1.473a2.8 2.8 0 0 0-1.008-1.081 2.6 2.6 0 0 0-1.376-.393h-.024q-.762 0-1.4.393-.639.393-1.032 1.08-.369.689-.369 1.475t.369 1.474q.393.689 1.032 1.08a2.6 2.6 0 0 0 1.4.394zM105.436 21.4l-4.815 17.688H96.96l-2.359-8.844a33 33 0 0 0-.22-.835q-.099-.468-.222-.934a83 83 0 0 0-.393-1.769h-.024q-.099.393-.222.835-.097.419-.196.885l-.246.934q-.098.465-.22.884l-2.36 8.844h-3.66L82.023 21.4h3.636l2.31 8.844q.097.369.196.81.097.42.196.86l.197.885q.098.418.147.81h.025q.098-.466.22-.957.124-.517.246-1.057.099-.368.172-.688.099-.343.172-.663L91.9 21.4h3.66l2.36 8.844a28 28 0 0 1 .294 1.18q.221.858.54 2.186h.025l.098-.54q.05-.271.123-.566.222-1.13.516-2.26L101.8 21.4zm11.759 11.399q0 .958.393 1.646t1.081 1.056q.712.344 1.646.344.786 0 1.326-.27.565-.294.836-.737.294-.442.294-.934 0-.712-.515-1.228-.492-.54-1.425-.761l-2.04-.492q-2.162-.516-3.414-1.842-1.254-1.327-1.253-3.17 0-1.498.835-2.678a5.66 5.66 0 0 1 2.236-1.817 6.64 6.64 0 0 1 2.923-.664q1.671 0 2.973.786a5.26 5.26 0 0 1 2.014 2.089q.713 1.302.713 2.899h-3.489q0-1.057-.663-1.72-.639-.688-1.695-.688-.688 0-1.204.27a2.1 2.1 0 0 0-.762.688 1.7 1.7 0 0 0-.245.86q0 .54.368.983.369.417 1.204.614l1.99.491q2.58.639 3.833 1.941 1.277 1.302 1.277 3.366 0 1.596-.786 2.825t-2.187 1.916q-1.376.664-3.12.664-1.842 0-3.366-.786a6.15 6.15 0 0 1-2.432-2.236q-.909-1.474-.909-3.415zm30.019-6.388-4.176 12.677h-3.292l-1.646-5.11-.123-.344a236 236 0 0 1-.811-2.58h-.024a71 71 0 0 1-.738 2.384 6 6 0 0 0-.098.27 1.3 1.3 0 0 1-.073.27l-1.647 5.11h-3.292l-4.176-12.677h3.587l1.474 4.938q.417 1.328.811 2.949h.024q.147-.615.639-2.212.073-.195.123-.368.074-.197.123-.369l1.621-4.938h3.292l1.622 4.938.049.123q.442 1.425.86 2.826h.024q.173-.836.614-2.408a5 5 0 0 0 .099-.27q.049-.148.073-.27l1.474-4.939zm13.081 0v12.677h-3.537v-1.523a5.5 5.5 0 0 1-1.671 1.229 4.4 4.4 0 0 1-1.941.442 4.6 4.6 0 0 1-2.702-.86q-1.228-.885-1.966-2.359-.712-1.498-.712-3.267 0-1.77.712-3.243.738-1.499 1.966-2.359a4.52 4.52 0 0 1 2.702-.884 4.4 4.4 0 0 1 1.941.442 5.5 5.5 0 0 1 1.671 1.229V26.41zm-6.264 9.287q.736 0 1.351-.393a2.8 2.8 0 0 0 1.007-1.081q.369-.688.369-1.474 0-.787-.369-1.474a2.8 2.8 0 0 0-1.007-1.081 2.46 2.46 0 0 0-1.351-.393q-.737 0-1.376.393-.614.393-.983 1.08-.368.689-.368 1.475t.368 1.474q.369.689.983 1.08.638.394 1.376.394m9.439-9.287h3.538v1.646q.59-.933 1.499-1.35a4.54 4.54 0 0 1 2.014-.443q1.475 0 2.727.835 1.278.81 2.015 2.31.737 1.474.737 3.34 0 1.869-.737 3.367-.737 1.473-2.015 2.309a4.9 4.9 0 0 1-2.727.81 4.1 4.1 0 0 1-1.94-.49 4.85 4.85 0 0 1-1.573-1.303V44.1h-3.538zm6.265 3.39q-.737 0-1.376.394a2.85 2.85 0 0 0-.982 1.08q-.369.689-.369 1.475t.369 1.474q.368.689.982 1.08a2.6 2.6 0 0 0 1.376.394q.738 0 1.352-.393a2.8 2.8 0 0 0 1.007-1.081q.368-.688.368-1.474 0-.787-.368-1.474a2.8 2.8 0 0 0-1.007-1.081 2.46 2.46 0 0 0-1.352-.393"/><path fill="#012f7a" fill-rule="evenodd" d="M35.029 21.322h7.087l-1.89 5.956a4.69 4.69 0 0 1-4.474 3.274h-1.955l-3.18 10.023a4.69 4.69 0 0 1-4.474 3.274h-10.17a4.69 4.69 0 0 1-4.474-3.274l-3.18-10.023H6.364a4.69 4.69 0 0 1-4.475-3.274L0 21.322h7.087L3.35 15.691h35.418zm-18.936 3.755a2.34 2.34 0 0 0-1.094.27c-.323.168-.608.41-.837.706a2.7 2.7 0 0 0-.287.456 2.9 2.9 0 0 0-.304 1.305c0 1.512 1.129 2.738 2.522 2.738a2.4 2.4 0 0 0 1.685-.702 2.7 2.7 0 0 0 .638-.97 2.9 2.9 0 0 0 .198-1.066c0-1.087-.583-2.026-1.428-2.468a2.4 2.4 0 0 0-.836-.255 2 2 0 0 0-.192-.014zm9.93 0a2.36 2.36 0 0 0-1.093.27c-.478.25-.872.658-1.124 1.162a2.9 2.9 0 0 0-.304 1.305c0 1.512 1.129 2.738 2.521 2.738 1.263 0 2.308-1.007 2.493-2.321q.03-.204.03-.417c0-1.087-.584-2.026-1.43-2.468a2.4 2.4 0 0 0-.708-.238 2 2 0 0 0-.32-.03z" clip-rule="evenodd"/><path fill="#005eb7" d="M39.573 21.322 17.046 43.85h-1.073a5 5 0 0 1-.228-.007l22.521-22.52zm-6.894 12.75-9.777 9.777h-1.306l11.69-11.69zm-8.47-4.36q.106.122.226.227l.332.332L12.61 42.428a4.7 4.7 0 0 1-.579-.728l12.083-12.082zM10.802 38.38l-.315-.992L32.185 15.69h1.307zm2.826-9.99c.067.342.193.659.366.94L9.39 33.932l-.314-.992zm26.947-2.214-4.352 4.351a5 5 0 0 1-.471.025h-.858l6.288-6.29zm-33.66 4.376h-.551q-.357-.001-.702-.054l14.81-14.808h1.306zm-4.161-1.696a4.7 4.7 0 0 1-.525-.782L14.614 15.69h1.307zM37.618 17.42l-9.182 9.182-.327-.326a3 3 0 0 0-.282-.372L38.042 15.69h.724zm-19.963 8.249a2.5 2.5 0 0 0-.832-.475l9.506-9.504h1.305zm-16.588-.983-.314-.992 2.373-2.372H4.43zm4.96-4.96-.52-.786 3.25-3.25h1.307z"/><path stroke="#d0ac10" stroke-width=".924" d="M21.058 15.69v28.16"/><path fill="#d0ac10" d="m32.92 33.316-22.525 3.78-.282-.89 23.121-3.88zM21.982 11.318l2.02-3.498 1.6.924-2.02 3.498 3.498-2.02.924 1.6-3.498 2.02h4.04v1.848H13.57v-1.848h4.039l-3.498-2.02.924-1.6 3.498 2.02-2.02-3.498 1.6-.924 2.02 3.498V7.28h1.848z"/></svg>