<svg xmlns="http://www.w3.org/2000/svg" fill="none" viewBox="0 0 150 28"><path fill="currentColor" d="M138.845 10.164h2.919v1.449c.336-.546.77-.945 1.302-1.197a4.068 4.068 0 0 1 1.764-.378c.84 0 1.617.238 2.331.714.728.462 1.302 1.12 1.722 1.974.42.84.63 1.792.63 2.856 0 1.064-.21 2.023-.63 2.877-.42.84-.994 1.498-1.722 1.974a4.207 4.207 0 0 1-2.331.693c-.602 0-1.176-.14-1.722-.42a4.275 4.275 0 0 1-1.344-1.155v5.733h-2.919v-15.12Zm5.334 2.772c-.448 0-.854.119-1.218.357s-.658.56-.882.966c-.21.406-.315.847-.315 1.323s.105.917.315 1.323c.224.406.518.728.882.966s.77.357 1.218.357c.434 0 .84-.12 1.218-.357.378-.238.672-.56.882-.966.224-.406.336-.847.336-1.323s-.112-.917-.336-1.323a2.448 2.448 0 0 0-.882-.966 2.245 2.245 0 0 0-1.218-.357Zm-12.782-2.898c1.078 0 1.967.182 2.667.546.714.35 1.246.86 1.596 1.533.35.672.525 1.477.525 2.415V21h-2.835v-1.113c-.266.308-.7.595-1.302.86a4.543 4.543 0 0 1-1.806.379c-.784 0-1.456-.147-2.016-.441-.546-.294-.959-.686-1.239-1.176a3.162 3.162 0 0 1-.42-1.596c0-1.05.385-1.87 1.155-2.457.77-.588 1.96-.882 3.57-.882h2.058v-.483c0-.588-.189-1.015-.567-1.281a2.028 2.028 0 0 0-1.302-.4 1.985 1.985 0 0 0-1.155.4c-.336.238-.525.588-.567 1.05h-2.961c.056-.7.273-1.337.651-1.911.378-.588.903-1.05 1.575-1.386.672-.35 1.463-.525 2.373-.525Zm-.504 9.009c.406 0 .784-.077 1.134-.231.35-.154.637-.406.861-.756.224-.364.336-.826.336-1.386v-.126l-1.743.02c-.546.015-1.008.127-1.386.337-.364.196-.546.504-.546.924 0 .378.112.679.336.903.224.21.56.315 1.008.315Zm-4.741-8.883L122.582 21h-2.73l-1.428-4.452-.105-.273a279.09 279.09 0 0 1-.714-2.268h-.021c-.182.63-.392 1.323-.63 2.079-.028.07-.056.147-.084.23a1.114 1.114 0 0 1-.063.232L115.379 21h-2.709l-3.591-10.836h2.94l1.323 4.305c.238.784.476 1.645.714 2.583h.021c.098-.378.28-1.022.546-1.932.042-.112.084-.217.126-.315.042-.112.077-.224.105-.336l1.407-4.305h2.709l1.407 4.305.042.126c.266.84.518 1.659.756 2.457h.021c.098-.476.28-1.176.546-2.1.028-.07.056-.147.084-.231l.084-.252 1.302-4.305h2.94Zm-25.704 5.502c0 .56.112 1.043.336 1.449a2.4 2.4 0 0 0 .966.903c.406.21.875.315 1.407.315.476 0 .875-.084 1.197-.252.322-.168.567-.385.735-.651.168-.266.252-.546.252-.84 0-.42-.147-.784-.441-1.092-.294-.322-.721-.546-1.281-.672l-1.743-.441c-1.232-.294-2.198-.812-2.898-1.554a3.823 3.823 0 0 1-1.05-2.688c0-.854.238-1.61.714-2.268a4.716 4.716 0 0 1 1.869-1.554 5.594 5.594 0 0 1 2.499-.567c.952 0 1.792.224 2.52.672a4.385 4.385 0 0 1 1.701 1.764c.406.742.609 1.56.609 2.457h-2.877c0-.616-.196-1.12-.588-1.512-.378-.406-.875-.61-1.491-.61-.406 0-.763.085-1.071.253a1.675 1.675 0 0 0-.672.609 1.369 1.369 0 0 0 .105 1.659c.224.252.588.44 1.092.567l1.701.42c1.442.364 2.52.917 3.234 1.659.714.728 1.071 1.68 1.071 2.856 0 .896-.224 1.694-.672 2.394-.434.686-1.043 1.225-1.827 1.617-.784.378-1.673.567-2.667.567-1.036 0-1.988-.224-2.856-.672a5.296 5.296 0 0 1-2.058-1.911c-.504-.826-.756-1.785-.756-2.877h2.94ZM90.27 5.88 86.133 21H83.13l-2.08-7.77a28.525 28.525 0 0 0-.188-.714 20.702 20.702 0 0 0-.19-.777l-.167-.756c-.056-.252-.112-.49-.168-.714h-.021c-.056.21-.12.44-.19.693a60.73 60.73 0 0 0-.167.735l-.21.798c-.056.252-.12.497-.19.735L77.482 21h-3.003L70.34 5.88h2.982l2.058 7.77c.056.21.112.434.168.672.056.238.112.483.168.735.056.252.112.497.168.735.056.238.098.469.126.693h.02c.057-.252.12-.518.19-.798.07-.294.14-.595.21-.903.056-.196.105-.385.147-.567.056-.196.105-.385.147-.567l2.079-7.77h3.003l2.1 7.77c.042.154.084.315.126.483l.126.504c.126.504.273 1.12.44 1.848h.022l.084-.42c.028-.154.063-.315.105-.483.14-.672.287-1.316.44-1.932l2.038-7.77h2.982ZM65.15 21.126a5.22 5.22 0 0 1-2.71-.735 5.674 5.674 0 0 1-1.973-2.016 5.641 5.641 0 0 1-.714-2.793c0-1.008.238-1.932.714-2.772a5.456 5.456 0 0 1 1.974-2.016 5.103 5.103 0 0 1 2.709-.756h.02a5 5 0 0 1 2.689.756 5.298 5.298 0 0 1 1.953 2.016c.49.854.735 1.778.735 2.772 0 .994-.245 1.918-.735 2.772a5.457 5.457 0 0 1-1.953 2.037 5.104 5.104 0 0 1-2.688.735h-.021Zm.02-2.898a2.28 2.28 0 0 0 1.24-.357c.378-.238.672-.553.882-.945.224-.406.336-.854.336-1.344 0-.476-.112-.917-.336-1.323a2.607 2.607 0 0 0-.903-.966 2.245 2.245 0 0 0-1.218-.357h-.021c-.462 0-.882.119-1.26.357s-.68.56-.903.966a2.694 2.694 0 0 0-.336 1.323c0 .476.112.917.336 1.323.224.406.525.728.903.966s.798.357 1.26.357h.02Zm-13.708 2.898a7.493 7.493 0 0 1-3.843-1.03 8.025 8.025 0 0 1-2.793-2.813 7.493 7.493 0 0 1-1.03-3.843c0-1.386.344-2.667 1.03-3.843a7.852 7.852 0 0 1 2.793-2.793 7.378 7.378 0 0 1 3.843-1.05c1.232 0 2.33.28 3.297.84.966.546 1.736 1.246 2.31 2.1.588.854.959 1.729 1.113 2.625h-3.024a3.078 3.078 0 0 0-.756-1.365 3.965 3.965 0 0 0-1.344-.945 3.784 3.784 0 0 0-1.596-.357 4.59 4.59 0 0 0-2.394.65 5.007 5.007 0 0 0-1.722 1.744 4.59 4.59 0 0 0-.651 2.394c0 .868.217 1.666.65 2.394a5.007 5.007 0 0 0 1.723 1.743 4.59 4.59 0 0 0 2.394.65c.868 0 1.645-.23 2.33-.692a3.475 3.475 0 0 0 1.408-1.89h3.003a6.447 6.447 0 0 1-1.113 2.709c-.588.826-1.372 1.498-2.352 2.016-.966.504-2.058.756-3.276.756Z"/><path fill="currentColor" fill-rule="evenodd" d="M13.653 26a4.011 4.011 0 0 1-3.824-2.79L7.11 14.666H5.44a4.011 4.011 0 0 1-3.825-2.791L0 6.8h6.058L2.863 2h30.274l-3.195 4.8H36l-1.615 5.076a4.011 4.011 0 0 1-3.825 2.79h-1.67l-2.72 8.544A4.011 4.011 0 0 1 22.346 26h-8.693ZM11.6 12.333c0 1.289.965 2.334 2.156 2.334 1.19 0 2.155-1.045 2.155-2.334 0-1.288-.965-2.333-2.155-2.333S11.6 11.045 11.6 12.333Zm12.8 0c0 1.289-.965 2.334-2.156 2.334-1.19 0-2.155-1.045-2.155-2.334 0-1.288.965-2.333 2.155-2.333s2.156 1.045 2.156 2.333Z" clip-rule="evenodd"/></svg>