<svg xmlns="http://www.w3.org/2000/svg" fill="none" viewBox="0 0 180 28"><path fill="currentColor" d="M179.499 21h-2.919V5.88h2.919V21Zm-10.395.126c-.98 0-1.883-.245-2.709-.735a5.674 5.674 0 0 1-1.974-2.016 5.641 5.641 0 0 1-.714-2.793c0-1.008.238-1.932.714-2.772a5.456 5.456 0 0 1 1.974-2.016 5.103 5.103 0 0 1 2.709-.756h.021c.98 0 1.876.252 2.688.756a5.298 5.298 0 0 1 1.953 2.016c.49.854.735 1.778.735 2.772 0 .994-.245 1.918-.735 2.772a5.457 5.457 0 0 1-1.953 2.037 5.104 5.104 0 0 1-2.688.735h-.021Zm.021-2.898a2.28 2.28 0 0 0 1.239-.357c.378-.238.672-.553.882-.945.224-.406.336-.854.336-1.344 0-.476-.112-.917-.336-1.323a2.607 2.607 0 0 0-.903-.966 2.245 2.245 0 0 0-1.218-.357h-.021c-.462 0-.882.119-1.26.357s-.679.56-.903.966a2.694 2.694 0 0 0-.336 1.323c0 .476.112.917.336 1.323.224.406.525.728.903.966s.798.357 1.26.357h.021Zm-9.939-3.99a1.871 1.871 0 0 0-.777-1.05 2.268 2.268 0 0 0-1.302-.4 2.24 2.24 0 0 0-1.323.4 2.534 2.534 0 0 0-.882 1.029c-.196.42-.294.875-.294 1.365s.105.952.315 1.386c.21.42.504.763.882 1.029.392.252.826.378 1.302.378.518 0 .98-.14 1.386-.42.406-.28.651-.63.735-1.05h2.877c-.028.574-.259 1.197-.693 1.869-.434.658-1.029 1.218-1.785 1.68a4.85 4.85 0 0 1-2.52.672c-.98 0-1.883-.245-2.709-.735a5.674 5.674 0 0 1-1.974-2.016 5.641 5.641 0 0 1-.714-2.793c0-1.008.238-1.932.714-2.772a5.456 5.456 0 0 1 1.974-2.016 5.103 5.103 0 0 1 2.709-.756c1.022 0 1.904.224 2.646.672.742.434 1.316.98 1.722 1.638.406.644.63 1.274.672 1.89h-2.961Zm-14.548 6.888c-.98 0-1.883-.245-2.709-.735a5.674 5.674 0 0 1-1.974-2.016 5.641 5.641 0 0 1-.714-2.793c0-1.008.238-1.932.714-2.772a5.456 5.456 0 0 1 1.974-2.016 5.103 5.103 0 0 1 2.709-.756h.021c.98 0 1.876.252 2.688.756a5.298 5.298 0 0 1 1.953 2.016c.49.854.735 1.778.735 2.772 0 .994-.245 1.918-.735 2.772a5.457 5.457 0 0 1-1.953 2.037 5.104 5.104 0 0 1-2.688.735h-.021Zm.021-2.898a2.28 2.28 0 0 0 1.239-.357c.378-.238.672-.553.882-.945.224-.406.336-.854.336-1.344 0-.476-.112-.917-.336-1.323a2.607 2.607 0 0 0-.903-.966 2.245 2.245 0 0 0-1.218-.357h-.021c-.462 0-.882.119-1.26.357s-.679.56-.903.966a2.694 2.694 0 0 0-.336 1.323c0 .476.112.917.336 1.323.224.406.525.728.903.966s.798.357 1.26.357h.021Zm-7.872.252c.42 0 .812-.035 1.176-.105v2.499c-.49.168-1.057.252-1.701.252-.826 0-1.512-.12-2.058-.357a2.469 2.469 0 0 1-1.239-1.176c-.28-.546-.42-1.281-.42-2.205v-4.683h-1.743v-2.541h1.743V7.077h2.898v3.087h2.52v2.54h-2.52v4.642c0 .378.119.665.357.86.252.183.581.274.987.274Zm-12.226 2.646c-.98 0-1.883-.245-2.709-.735a5.674 5.674 0 0 1-1.974-2.016 5.641 5.641 0 0 1-.714-2.793c0-1.008.238-1.932.714-2.772a5.456 5.456 0 0 1 1.974-2.016 5.103 5.103 0 0 1 2.709-.756h.021c.98 0 1.876.252 2.688.756a5.298 5.298 0 0 1 1.953 2.016c.49.854.735 1.778.735 2.772 0 .994-.245 1.918-.735 2.772a5.457 5.457 0 0 1-1.953 2.037 5.104 5.104 0 0 1-2.688.735h-.021Zm.021-2.898a2.28 2.28 0 0 0 1.239-.357c.378-.238.672-.553.882-.945.224-.406.336-.854.336-1.344 0-.476-.112-.917-.336-1.323a2.607 2.607 0 0 0-.903-.966 2.245 2.245 0 0 0-1.218-.357h-.021c-.462 0-.882.119-1.26.357s-.679.56-.903.966a2.694 2.694 0 0 0-.336 1.323c0 .476.112.917.336 1.323.224.406.525.728.903.966s.798.357 1.26.357h.021Zm-7.626-8.19c.21 0 .56.02 1.05.063a.186.186 0 0 0 .084.02h.084v2.899h-.042c-.014 0-.028-.007-.042-.021a6.03 6.03 0 0 0-.651-.063 7.82 7.82 0 0 0-.819-.042c-.826 0-1.47.23-1.932.693-.448.448-.672 1.155-.672 2.12V21h-2.919V10.164h2.919v1.449c.308-.532.714-.924 1.218-1.176a3.714 3.714 0 0 1 1.722-.4ZM98.201 5.88h2.919V21h-2.919V5.88Zm6.153 0c.924 0 1.75.238 2.478.714a5.125 5.125 0 0 1 1.743 1.848c.434.742.651 1.526.651 2.352a4.78 4.78 0 0 1-.63 2.352 5.125 5.125 0 0 1-1.743 1.848 4.594 4.594 0 0 1-2.478.693h-6.174v-2.898h6.111c.392 0 .735-.091 1.029-.273.308-.196.539-.448.693-.756a1.99 1.99 0 0 0 .252-.966c0-.35-.084-.68-.252-.987a1.75 1.75 0 0 0-.693-.735 1.812 1.812 0 0 0-1.029-.294h-6.11V5.88h6.152Zm-14.084 0L86.133 21H83.13l-2.08-7.77a28.525 28.525 0 0 0-.188-.714 20.702 20.702 0 0 0-.19-.777l-.167-.756c-.056-.252-.112-.49-.168-.714h-.021c-.056.21-.12.44-.19.693a60.73 60.73 0 0 0-.167.735l-.21.798c-.056.252-.12.497-.19.735L77.482 21h-3.003L70.34 5.88h2.982l2.058 7.77c.056.21.112.434.168.672.056.238.112.483.168.735.056.252.112.497.168.735.056.238.098.469.126.693h.02c.057-.252.12-.518.19-.798.07-.294.14-.595.21-.903.056-.196.105-.385.147-.567.056-.196.105-.385.147-.567l2.079-7.77h3.003l2.1 7.77c.042.154.084.315.126.483l.126.504c.126.504.273 1.12.44 1.848h.022l.084-.42c.028-.154.063-.315.105-.483.14-.672.287-1.316.44-1.932l2.038-7.77h2.982ZM65.15 21.126a5.22 5.22 0 0 1-2.71-.735 5.674 5.674 0 0 1-1.973-2.016 5.641 5.641 0 0 1-.714-2.793c0-1.008.238-1.932.714-2.772a5.456 5.456 0 0 1 1.974-2.016 5.103 5.103 0 0 1 2.709-.756h.02a5 5 0 0 1 2.689.756 5.298 5.298 0 0 1 1.953 2.016c.49.854.735 1.778.735 2.772 0 .994-.245 1.918-.735 2.772a5.457 5.457 0 0 1-1.953 2.037 5.104 5.104 0 0 1-2.688.735h-.021Zm.02-2.898a2.28 2.28 0 0 0 1.24-.357c.378-.238.672-.553.882-.945.224-.406.336-.854.336-1.344 0-.476-.112-.917-.336-1.323a2.607 2.607 0 0 0-.903-.966 2.245 2.245 0 0 0-1.218-.357h-.021c-.462 0-.882.119-1.26.357s-.68.56-.903.966a2.694 2.694 0 0 0-.336 1.323c0 .476.112.917.336 1.323.224.406.525.728.903.966s.798.357 1.26.357h.02Zm-13.708 2.898a7.493 7.493 0 0 1-3.843-1.03 8.025 8.025 0 0 1-2.793-2.813 7.493 7.493 0 0 1-1.03-3.843c0-1.386.344-2.667 1.03-3.843a7.852 7.852 0 0 1 2.793-2.793 7.378 7.378 0 0 1 3.843-1.05c1.232 0 2.33.28 3.297.84.966.546 1.736 1.246 2.31 2.1.588.854.959 1.729 1.113 2.625h-3.024a3.078 3.078 0 0 0-.756-1.365 3.965 3.965 0 0 0-1.344-.945 3.784 3.784 0 0 0-1.596-.357 4.59 4.59 0 0 0-2.394.65 5.007 5.007 0 0 0-1.722 1.744 4.59 4.59 0 0 0-.651 2.394c0 .868.217 1.666.65 2.394a5.007 5.007 0 0 0 1.723 1.743 4.59 4.59 0 0 0 2.394.65c.868 0 1.645-.23 2.33-.692a3.475 3.475 0 0 0 1.408-1.89h3.003a6.447 6.447 0 0 1-1.113 2.709c-.588.826-1.372 1.498-2.352 2.016-.966.504-2.058.756-3.276.756Z"/><path fill="currentColor" fill-rule="evenodd" d="M13.653 26a4.011 4.011 0 0 1-3.824-2.79L7.11 14.666H5.44a4.011 4.011 0 0 1-3.825-2.791L0 6.8h6.058L2.863 2h30.274l-3.195 4.8H36l-1.615 5.076a4.011 4.011 0 0 1-3.825 2.79h-1.67l-2.72 8.544A4.011 4.011 0 0 1 22.346 26h-8.693ZM11.6 12.333c0 1.289.965 2.334 2.156 2.334 1.19 0 2.155-1.045 2.155-2.334 0-1.288-.965-2.333-2.155-2.333S11.6 11.045 11.6 12.333Zm12.8 0c0 1.289-.965 2.334-2.156 2.334-1.19 0-2.155-1.045-2.155-2.334 0-1.288.965-2.333 2.155-2.333s2.156 1.045 2.156 2.333Z" clip-rule="evenodd"/></svg>