<svg xmlns="http://www.w3.org/2000/svg" fill="none" viewBox="0 0 182 28"><path fill="currentColor" d="M179.874 10.038c.21 0 .56.02 1.05.063a.186.186 0 0 0 .084.02h.084v2.899h-.042c-.014 0-.028-.007-.042-.021a6.03 6.03 0 0 0-.651-.063 7.82 7.82 0 0 0-.819-.042c-.826 0-1.47.23-1.932.693-.448.448-.672 1.155-.672 2.12V21h-2.919V10.164h2.919v1.449c.308-.532.714-.924 1.218-1.176a3.714 3.714 0 0 1 1.722-.4Zm-15.296 6.342c.098.658.343 1.19.735 1.596.406.392.973.588 1.701.588.336 0 .63-.05.882-.147.252-.112.462-.252.63-.42a1.67 1.67 0 0 0 .357-.567h2.898c-.042.42-.231.917-.567 1.49-.336.575-.854 1.086-1.554 1.534-.7.448-1.582.672-2.646.672-1.022 0-1.953-.238-2.793-.714a5.186 5.186 0 0 1-1.953-1.974c-.476-.854-.714-1.806-.714-2.856 0-1.022.238-1.953.714-2.793a5.298 5.298 0 0 1 1.953-2.016 5.213 5.213 0 0 1 2.709-.735c.924 0 1.771.252 2.541.756a4.992 4.992 0 0 1 1.827 2.016c.448.84.672 1.757.672 2.75 0 .295-.014.568-.042.82h-7.35Zm2.352-3.78c-.616 0-1.113.168-1.491.504-.378.336-.63.79-.756 1.365h4.347a2.69 2.69 0 0 0-.378-.987 1.878 1.878 0 0 0-.714-.651c-.28-.154-.616-.231-1.008-.231Zm-7.584-2.562c.21 0 .56.02 1.05.063a.186.186 0 0 0 .084.02h.084v2.899h-.042c-.014 0-.028-.007-.042-.021a6.03 6.03 0 0 0-.651-.063 7.82 7.82 0 0 0-.819-.042c-.826 0-1.47.23-1.932.693-.448.448-.672 1.155-.672 2.12V21h-2.919V10.164h2.919v1.449c.308-.532.714-.924 1.218-1.176a3.714 3.714 0 0 1 1.722-.4Zm-13.293 11.088c-.98 0-1.883-.245-2.709-.735a5.674 5.674 0 0 1-1.974-2.016 5.641 5.641 0 0 1-.714-2.793c0-1.008.238-1.932.714-2.772a5.456 5.456 0 0 1 1.974-2.016 5.103 5.103 0 0 1 2.709-.756h.021c.98 0 1.876.252 2.688.756a5.298 5.298 0 0 1 1.953 2.016c.49.854.735 1.778.735 2.772 0 .994-.245 1.918-.735 2.772a5.457 5.457 0 0 1-1.953 2.037 5.104 5.104 0 0 1-2.688.735h-.021Zm.021-2.898a2.28 2.28 0 0 0 1.239-.357c.378-.238.672-.553.882-.945.224-.406.336-.854.336-1.344 0-.476-.112-.917-.336-1.323a2.607 2.607 0 0 0-.903-.966 2.245 2.245 0 0 0-1.218-.357h-.021c-.462 0-.882.119-1.26.357s-.679.56-.903.966a2.694 2.694 0 0 0-.336 1.323c0 .476.112.917.336 1.323.224.406.525.728.903.966s.798.357 1.26.357h.021ZM138.565 21h-2.919V5.88h2.919V21ZM122.89 10.164h2.919v1.449c.336-.546.77-.945 1.302-1.197a4.068 4.068 0 0 1 1.764-.378c.84 0 1.617.238 2.331.714.728.462 1.302 1.12 1.722 1.974.42.84.63 1.792.63 2.856 0 1.064-.21 2.023-.63 2.877-.42.84-.994 1.498-1.722 1.974a4.207 4.207 0 0 1-2.331.693c-.602 0-1.176-.14-1.722-.42a4.275 4.275 0 0 1-1.344-1.155v5.733h-2.919v-15.12Zm5.334 2.772c-.448 0-.854.119-1.218.357s-.658.56-.882.966c-.21.406-.315.847-.315 1.323s.105.917.315 1.323c.224.406.518.728.882.966s.77.357 1.218.357c.434 0 .84-.12 1.218-.357.378-.238.672-.56.882-.966.224-.406.336-.847.336-1.323s-.112-.917-.336-1.323a2.448 2.448 0 0 0-.882-.966 2.245 2.245 0 0 0-1.218-.357ZM117.773 21l-1.155-1.89c-.14-.21-.28-.434-.42-.672a35.56 35.56 0 0 0-.378-.735 1.373 1.373 0 0 1-.084-.147l-.084-.168h-.021a1.373 1.373 0 0 0-.084.147 1.373 1.373 0 0 1-.084.147 7.28 7.28 0 0 1-.378.735 30.98 30.98 0 0 1-.378.693L113.51 21h-3.612l3.696-5.418-3.57-5.418h3.591l1.113 1.785c.14.224.28.476.42.756.14.266.273.539.399.819a.244.244 0 0 0 .042.063.244.244 0 0 1 .042.063h.021a1.16 1.16 0 0 1 .105-.231l.126-.21c.112-.224.217-.441.315-.651.112-.21.231-.413.357-.61l1.113-1.784h3.591l-3.507 5.418L121.343 21h-3.57Zm-8.946-12.222h-7.707v3.213h6.93v2.898h-6.93v3.213h7.707V21H98.201V5.88h10.626v2.898ZM90.27 5.88 86.133 21H83.13l-2.08-7.77a28.525 28.525 0 0 0-.188-.714 20.702 20.702 0 0 0-.19-.777l-.167-.756c-.056-.252-.112-.49-.168-.714h-.021c-.056.21-.12.44-.19.693a60.73 60.73 0 0 0-.167.735l-.21.798c-.056.252-.12.497-.19.735L77.482 21h-3.003L70.34 5.88h2.982l2.058 7.77c.056.21.112.434.168.672.056.238.112.483.168.735.056.252.112.497.168.735.056.238.098.469.126.693h.02c.057-.252.12-.518.19-.798.07-.294.14-.595.21-.903.056-.196.105-.385.147-.567.056-.196.105-.385.147-.567l2.079-7.77h3.003l2.1 7.77c.042.154.084.315.126.483l.126.504c.126.504.273 1.12.44 1.848h.022l.084-.42c.028-.154.063-.315.105-.483.14-.672.287-1.316.44-1.932l2.038-7.77h2.982ZM65.15 21.126a5.22 5.22 0 0 1-2.71-.735 5.674 5.674 0 0 1-1.973-2.016 5.641 5.641 0 0 1-.714-2.793c0-1.008.238-1.932.714-2.772a5.456 5.456 0 0 1 1.974-2.016 5.103 5.103 0 0 1 2.709-.756h.02a5 5 0 0 1 2.689.756 5.298 5.298 0 0 1 1.953 2.016c.49.854.735 1.778.735 2.772 0 .994-.245 1.918-.735 2.772a5.457 5.457 0 0 1-1.953 2.037 5.104 5.104 0 0 1-2.688.735h-.021Zm.02-2.898a2.28 2.28 0 0 0 1.24-.357c.378-.238.672-.553.882-.945.224-.406.336-.854.336-1.344 0-.476-.112-.917-.336-1.323a2.607 2.607 0 0 0-.903-.966 2.245 2.245 0 0 0-1.218-.357h-.021c-.462 0-.882.119-1.26.357s-.68.56-.903.966a2.694 2.694 0 0 0-.336 1.323c0 .476.112.917.336 1.323.224.406.525.728.903.966s.798.357 1.26.357h.02Zm-13.708 2.898a7.493 7.493 0 0 1-3.843-1.03 8.025 8.025 0 0 1-2.793-2.813 7.493 7.493 0 0 1-1.03-3.843c0-1.386.344-2.667 1.03-3.843a7.852 7.852 0 0 1 2.793-2.793 7.378 7.378 0 0 1 3.843-1.05c1.232 0 2.33.28 3.297.84.966.546 1.736 1.246 2.31 2.1.588.854.959 1.729 1.113 2.625h-3.024a3.078 3.078 0 0 0-.756-1.365 3.965 3.965 0 0 0-1.344-.945 3.784 3.784 0 0 0-1.596-.357 4.59 4.59 0 0 0-2.394.65 5.007 5.007 0 0 0-1.722 1.744 4.59 4.59 0 0 0-.651 2.394c0 .868.217 1.666.65 2.394a5.007 5.007 0 0 0 1.723 1.743 4.59 4.59 0 0 0 2.394.65c.868 0 1.645-.23 2.33-.692a3.475 3.475 0 0 0 1.408-1.89h3.003a6.447 6.447 0 0 1-1.113 2.709c-.588.826-1.372 1.498-2.352 2.016-.966.504-2.058.756-3.276.756Z"/><path fill="currentColor" fill-rule="evenodd" d="M13.653 26a4.011 4.011 0 0 1-3.824-2.79L7.11 14.666H5.44a4.011 4.011 0 0 1-3.825-2.791L0 6.8h6.058L2.863 2h30.274l-3.195 4.8H36l-1.615 5.076a4.011 4.011 0 0 1-3.825 2.79h-1.67l-2.72 8.544A4.011 4.011 0 0 1 22.346 26h-8.693ZM11.6 12.333c0 1.289.965 2.334 2.156 2.334 1.19 0 2.155-1.045 2.155-2.334 0-1.288-.965-2.333-2.155-2.333S11.6 11.045 11.6 12.333Zm12.8 0c0 1.289-.965 2.334-2.156 2.334-1.19 0-2.155-1.045-2.155-2.334 0-1.288.965-2.333 2.155-2.333s2.156 1.045 2.156 2.333Z" clip-rule="evenodd"/></svg>