<svg fill="none" height="24" viewBox="0 0 24 24" width="24" xmlns="http://www.w3.org/2000/svg"><g fill="#ff5722"><path d="m12 3c-1.1819 0-2.35222.23279-3.44415.68508-1.09193.4523-2.08408 1.11523-2.91981 1.95096s-1.49866 1.82788-1.95096 2.91981c-.45229 1.09193-.68508 2.26225-.68508 3.44415s.23279 2.3522.68508 3.4442c.4523 1.0919 1.11523 2.084 1.95096 2.9198.83573.8357 1.82788 1.4986 2.91981 1.9509s2.26225.6851 3.44415.6851 2.3522-.2328 3.4442-.6851c1.0919-.4523 2.084-1.1152 2.9198-1.9509.8357-.8358 1.4986-1.8279 1.9509-2.9198.4523-1.092.6851-2.2623.6851-3.4442s-.2328-2.35222-.6851-3.44415-1.1152-2.08408-1.9509-2.91981c-.8358-.83573-1.8279-1.49866-2.9198-1.95096-1.092-.45229-2.2623-.68508-3.4442-.68508z" opacity=".2"/><path d="m11.9999 22c-5.49996 0-9.99996-4.5-9.99996-10s4.5-10 9.99996-10c5.5 0 10 4.5 10 10s-4.5 10-10 10zm0-18c-4.39996 0-7.99996 3.6-7.99996 8s3.6 8 7.99996 8c4.4 0 8-3.6 8-8s-3.6-8-8-8z"/><path d="m9.99993 17.3999-3.7-3.7 1.4-1.4 2.3 2.3 6.29997-6.29997 1.4 1.4z"/></g></svg>