<svg width="149" height="61" viewBox="0 0 149 61" fill="none" xmlns="http://www.w3.org/2000/svg">
<g filter="url(#filter0_d_4988_1541)">
<circle cx="30.4616" cy="37.3057" r="14.7183" fill="#2B4266"/>
<path d="M30.7545 30.605C31.3425 30.6428 31.9248 30.7437 32.4913 30.9059C32.7944 30.3336 33.0482 29.7365 33.25 29.1211C33.3118 28.9414 33.4321 28.7876 33.5915 28.6843C33.7509 28.5809 33.9404 28.5339 34.1296 28.5507C34.3189 28.5675 34.4971 28.6473 34.6357 28.7771C34.7744 28.907 34.8656 29.0796 34.8948 29.2674C34.9646 29.7202 34.9926 30.1784 34.9784 30.6363C38.3496 29.9362 40.8597 29.3468 40.7698 30.6238L40.7573 30.6698C40.0028 32.7452 38.498 34.4046 36.6295 35.2239C36.446 35.2874 36.2897 35.4119 36.1867 35.5765C36.0836 35.7411 36.04 35.9361 36.0631 36.1289C36.0861 37.9409 36.0631 39.7049 36.0631 41.4981C34.2985 40.7316 32.3952 40.336 30.4713 40.336C28.5474 40.336 26.644 40.7316 24.8794 41.4981C24.8794 39.7049 24.8648 37.9451 24.8794 36.1289C24.9025 35.9361 24.8589 35.7411 24.7559 35.5765C24.6529 35.4119 24.4966 35.2874 24.3131 35.2239C22.4446 34.4046 20.9398 32.7452 20.1853 30.6698L20.1727 30.6238C20.0829 29.3468 22.593 29.9362 25.9642 30.6363C25.9499 30.1784 25.9779 29.7202 26.0478 29.2674C26.0769 29.0796 26.1681 28.907 26.3068 28.7771C26.4455 28.6473 26.6237 28.5675 26.813 28.5507C27.0022 28.5339 27.1917 28.5809 27.3511 28.6843C27.5105 28.7876 27.6308 28.9414 27.6926 29.1211C27.8944 29.7365 28.1482 30.3336 28.4513 30.9059C29.0178 30.7437 29.6 30.6428 30.1881 30.605H30.7545Z" fill="#193151"/>
<path d="M30.5312 31.2235C31.2977 31.2543 32.0558 31.3951 32.7822 31.6415C33.2269 30.9109 33.5833 30.13 33.8439 29.3154C33.8572 29.2663 33.8878 29.2238 33.9301 29.1958C33.9724 29.1677 34.0235 29.156 34.0738 29.1628C34.1265 29.1626 34.1772 29.1823 34.216 29.218C34.2547 29.2536 34.2786 29.3026 34.2828 29.3551C34.3755 30.0285 34.3853 30.7108 34.3121 31.3866C34.7133 31.326 34.8137 31.3113 35.3445 31.1922C38.7262 30.4482 39.8339 30.4189 40.1369 30.5464C39.4305 32.4149 38.0657 33.905 36.3749 34.6428C36.079 34.7553 35.8276 34.9608 35.6584 35.2284C35.4892 35.4959 35.4113 35.8112 35.4365 36.1267C35.4553 37.6315 35.4365 39.105 35.4365 40.5847C32.2336 39.3948 28.7098 39.3948 25.5068 40.5847C25.5068 39.105 25.4964 37.6315 25.5068 36.1267C25.532 35.8112 25.4542 35.4959 25.285 35.2284C25.1158 34.9608 24.8643 34.7553 24.5684 34.6428C22.8839 33.905 21.5191 32.4149 20.8064 30.5464C21.1094 30.4189 22.2171 30.4482 25.5988 31.1922C26.1297 31.3113 26.2258 31.326 26.6313 31.3866C26.558 30.7108 26.5679 30.0285 26.6605 29.3551C26.6647 29.3026 26.6886 29.2536 26.7273 29.218C26.7661 29.1823 26.8169 29.1626 26.8695 29.1628C26.9198 29.156 26.9709 29.1677 27.0132 29.1958C27.0555 29.2238 27.0862 29.2663 27.0994 29.3154C27.36 30.13 27.7164 30.9109 28.1611 31.6415C28.8876 31.3951 29.6456 31.2543 30.4121 31.2235H30.5312Z" fill="#BFD5EB"/>
<path d="M27.674 36.9902C27.3905 36.9869 27.1198 36.8721 26.9203 36.6706C26.7208 36.4692 26.6086 36.1973 26.6081 35.9138C26.6119 35.779 26.6423 35.6463 26.6975 35.5233C26.7528 35.4002 26.8318 35.2893 26.93 35.1969C27.1298 35.0061 27.3956 34.8998 27.6719 34.9001C28.0959 34.9286 28.5114 35.0326 28.8988 35.2074C29.3314 35.3955 29.693 35.6567 29.6909 35.9452C29.6888 36.2336 29.3272 36.4927 28.8946 36.6808C28.5086 36.8536 28.0957 36.9582 27.674 36.9902Z" fill="#FFD700"/>
<path d="M27.6636 37.2742C27.3051 37.2687 26.9632 37.1222 26.712 36.8663C26.4608 36.6104 26.3206 36.2659 26.3218 35.9074C26.3271 35.7343 26.3668 35.5641 26.4385 35.4066C26.5103 35.249 26.6127 35.1074 26.7398 34.9898C26.9915 34.7483 27.3273 34.6142 27.6761 34.6157C28.1382 34.6445 28.5913 34.7563 29.0137 34.9459C29.6407 35.2218 29.9793 35.573 29.9793 35.945C29.9793 36.317 29.6428 36.666 29.0095 36.9419C28.5888 37.1303 28.1381 37.2428 27.6782 37.2742H27.6657H27.6636ZM27.6636 35.1842C27.4608 35.1841 27.266 35.2628 27.1202 35.4037C27.0487 35.4697 26.9911 35.5495 26.9509 35.6381C26.9107 35.7268 26.8887 35.8226 26.8861 35.9199C26.8858 36.022 26.9057 36.1232 26.9448 36.2176C26.9839 36.3119 27.0414 36.3976 27.1139 36.4696C27.1858 36.5434 27.2715 36.6022 27.3662 36.6427C27.4609 36.6833 27.5627 36.7047 27.6657 36.7058C28.0483 36.6731 28.4228 36.5763 28.7734 36.4194C29.2332 36.2104 29.4004 36.0265 29.4004 35.9429C29.4004 35.8593 29.2353 35.667 28.7734 35.4685C28.4217 35.3109 28.0456 35.2148 27.6615 35.1842H27.6636Z" fill="#193151"/>
<path d="M22.6114 31.5267L25.224 32.1328C25.252 32.1389 25.2772 32.1538 25.2961 32.1754C25.315 32.1969 25.3264 32.224 25.3288 32.2525C25.3311 32.2811 25.3242 32.3096 25.3091 32.334C25.294 32.3583 25.2715 32.3772 25.2449 32.3878C24.7244 32.5968 23.7819 32.9103 23.3367 32.5759C22.6909 32.0952 22.4902 31.8276 22.4505 31.6813C22.4459 31.6595 22.447 31.6368 22.4536 31.6155C22.4602 31.5942 22.4721 31.5749 22.4882 31.5594C22.5042 31.544 22.524 31.5329 22.5456 31.5271C22.5671 31.5214 22.5898 31.5212 22.6114 31.5267Z" fill="#193151"/>
<path d="M33.2842 36.9902C33.568 36.988 33.8395 36.8735 34.0392 36.6718C34.2389 36.4702 34.3507 36.1976 34.3501 35.9138C34.3463 35.779 34.3159 35.6463 34.2607 35.5233C34.2054 35.4002 34.1265 35.2893 34.0283 35.1969C33.8284 35.0061 33.5626 34.8998 33.2863 34.9001C32.8623 34.9286 32.4468 35.0326 32.0595 35.2074C31.6268 35.3955 31.2653 35.6567 31.2673 35.9452C31.2694 36.2336 31.631 36.4927 32.0636 36.6808C32.4496 36.8536 32.8626 36.9582 33.2842 36.9902Z" fill="#FFD700"/>
<path d="M33.2955 37.2742C33.654 37.2687 33.9959 37.1222 34.247 36.8663C34.4982 36.6104 34.6384 36.2659 34.6373 35.9074C34.632 35.7343 34.5923 35.5641 34.5205 35.4066C34.4488 35.249 34.3463 35.1074 34.2193 34.9898C33.9675 34.7483 33.6318 34.6142 33.2829 34.6157C32.8208 34.6445 32.3677 34.7563 31.9453 34.9459C31.3183 35.2218 30.9797 35.573 30.9797 35.945C30.9797 36.317 31.3162 36.666 31.9495 36.9419C32.3702 37.1303 32.821 37.2428 33.2808 37.2742H33.2934H33.2955ZM33.2955 35.1842C33.4982 35.1841 33.6931 35.2628 33.8389 35.4037C33.9104 35.4697 33.9679 35.5495 34.0081 35.6381C34.0483 35.7268 34.0704 35.8226 34.073 35.9199C34.0733 36.022 34.0533 36.1232 34.0142 36.2176C33.9751 36.3119 33.9176 36.3976 33.8451 36.4696C33.7733 36.5434 33.6875 36.6022 33.5928 36.6427C33.4981 36.6833 33.3964 36.7047 33.2934 36.7058C32.9107 36.6731 32.5362 36.5763 32.1857 36.4194C31.7259 36.2104 31.5587 36.0265 31.5587 35.9429C31.5587 35.8593 31.7238 35.667 32.1857 35.4685C32.5374 35.3109 32.9134 35.2148 33.2976 35.1842H33.2955Z" fill="#193151"/>
<path d="M38.3459 31.5267L35.7334 32.1328C35.7054 32.1389 35.6801 32.1538 35.6613 32.1754C35.6424 32.1969 35.631 32.224 35.6286 32.2525C35.6263 32.2811 35.6332 32.3096 35.6483 32.334C35.6634 32.3583 35.6859 32.3772 35.7125 32.3878C36.2329 32.5968 37.1755 32.9103 37.6207 32.5759C38.2665 32.0952 38.4672 31.8276 38.5069 31.6813C38.5114 31.6595 38.5104 31.6368 38.5038 31.6155C38.4972 31.5942 38.4853 31.5749 38.4692 31.5594C38.4531 31.544 38.4334 31.5329 38.4118 31.5271C38.3903 31.5214 38.3676 31.5212 38.3459 31.5267Z" fill="#193151"/>
<path d="M36.6376 41.9141C35.5655 40.7562 34.161 40.2421 32.6666 39.9369C31.9662 39.7826 31.2498 39.7124 30.5327 39.7279H30.4303C29.7132 39.7124 28.9968 39.7826 28.2964 39.9369C26.7999 40.2337 25.3954 40.7562 24.3253 41.9141C23.458 42.8546 23.2135 44.0271 23.7631 45.0073C24.1174 45.6894 24.645 46.2661 25.293 46.6793C26.511 47.3807 27.865 47.8133 29.2641 47.948C29.6503 47.994 30.0392 48.0142 30.4282 48.0086H30.5306C30.9196 48.0142 31.3085 47.994 31.6947 47.948C33.0938 47.8133 34.4478 47.3807 35.6658 46.6793C36.3138 46.2661 36.8414 45.6894 37.1957 45.0073C37.7495 44.0271 37.505 42.8546 36.6376 41.9141Z" fill="#9AB6CC"/>
<path d="M36.0445 41.7827C35.081 40.9049 33.8207 40.5099 32.4768 40.2862C31.836 40.1608 31.1839 40.102 30.531 40.1107H30.4369C29.7829 40.0989 29.1294 40.1549 28.487 40.2779C27.1431 40.5015 25.8828 40.9049 24.9193 41.7743C24.1397 42.4849 23.9224 43.3732 24.4135 44.1151C24.7519 44.6526 25.2263 45.091 25.7887 45.3859C26.909 45.9242 28.1194 46.2501 29.3585 46.3473C29.728 46.3833 30.0992 46.3987 30.4704 46.3932H30.4976C30.8688 46.3987 31.24 46.3833 31.6094 46.3473C32.8485 46.2501 34.0589 45.9242 35.1792 45.3859C35.7416 45.091 36.2161 44.6526 36.5544 44.1151C37.0414 43.3711 36.824 42.4828 36.0445 41.7827Z" fill="#BFD5EB"/>
<path d="M27.7595 44.2549C27.1513 44.5517 26.5849 44.2549 26.4763 43.582C26.3571 42.8609 27.329 41.1471 27.5526 42.4429C27.7763 43.7387 28.7711 41.9267 28.7774 42.7376C28.761 43.059 28.6577 43.3699 28.4785 43.6372C28.2992 43.9044 28.0507 44.1179 27.7595 44.2549Z" fill="#193151"/>
<path d="M36.8877 41.6821C35.6107 40.3027 33.9032 39.8324 32.7307 39.5921H32.7035C32.0899 39.456 31.4635 39.3859 30.835 39.3831H30.1223C29.4938 39.3859 28.8675 39.456 28.2539 39.5921H28.2267C27.0542 39.8241 25.3467 40.2943 24.0697 41.6821C23.0832 42.748 22.8512 44.0877 23.4594 45.1745C23.8401 45.9127 24.4108 46.536 25.1126 46.9803C26.2725 47.6783 27.5788 48.0963 29.2215 48.2949C29.5884 48.3396 29.9576 48.362 30.3272 48.3618H30.6302C30.9998 48.362 31.369 48.3396 31.7358 48.2949C33.3786 48.0963 34.6848 47.6783 35.8448 46.9803C36.5466 46.536 37.1173 45.9127 37.498 45.1745C38.1062 44.0814 37.8742 42.748 36.8877 41.6821ZM36.9003 44.8401C36.5765 45.4733 36.0903 46.0092 35.4916 46.393C34.4173 47.0388 33.1926 47.438 31.6522 47.6156C31.2798 47.66 30.9049 47.6796 30.5299 47.6742H30.4275C30.0525 47.6796 29.6776 47.66 29.3052 47.6156C27.7606 47.4275 26.5401 47.0388 25.4658 46.393C24.867 46.0092 24.3809 45.4733 24.0571 44.8401C23.591 44.0041 23.7833 43.0009 24.5734 42.1481C25.4532 41.1951 26.6216 40.6162 28.3605 40.2671H28.3855C29.0679 40.1146 29.7661 40.0444 30.4651 40.0581H30.4923C31.1913 40.0444 31.8895 40.1146 32.5718 40.2671H32.5969C34.3358 40.6099 35.5041 41.1888 36.384 42.1481C37.1741 43.0009 37.3663 44.0083 36.9003 44.8401Z" fill="#193151"/>
<path d="M33.1994 44.2549C33.8076 44.5517 34.374 44.2549 34.4827 43.582C34.6018 42.8609 33.63 41.1471 33.4063 42.4429C33.1827 43.7387 32.1878 41.9267 32.1816 42.7376C32.1979 43.059 32.3012 43.3699 32.4805 43.6372C32.6598 43.9044 32.9082 44.1179 33.1994 44.2549Z" fill="#193151"/>
</g>
<path d="M148.923 26.293C148.923 37.3387 139.969 46.293 128.923 46.293C117.877 46.293 108.923 37.3387 108.923 26.293C108.923 15.2473 117.877 6.29297 128.923 6.29297C139.969 6.29297 148.923 15.2473 148.923 26.293Z" fill="url(#paint0_linear_4988_1541)"/>
<path d="M142.85 23.2851L138.224 22.5284L141.756 21.0518L142.554 17.8652L141.622 16.2107L137.066 14.8793L139.385 18.2022H139.383L139.397 18.2215L137.589 18.6731L133.123 15.607L129.334 16.0571L125.544 15.607L121.078 18.6734L119.27 18.2217L119.284 18.2024H119.282L121.601 14.8796L117.046 16.2109L116.114 17.8655L116.911 21.0521L120.443 22.5284L115.819 23.2851L114.764 26.1284L117.936 27.6613L120.933 26.6049L121.363 29.8036L123.333 34.393L124.292 36.8833L128.933 40.1414L129.328 40.4171V40.4226L129.331 40.4248L129.335 40.4218L129.339 40.4248L129.342 40.4226V40.4171L129.737 40.1414L134.377 36.8822L135.336 34.3919L137.306 29.8025L137.736 26.6038L140.733 27.6602L143.905 26.1273L142.85 23.2851ZM117.36 16.6047L120.46 15.6983L118.778 18.109L116.726 17.7303L117.36 16.6047ZM116.677 18.1944L118.483 18.53L117.213 20.3335L116.677 18.1944ZM120.89 26.1262L117.964 27.157L115.35 25.8926L116.163 23.7012L120.891 22.9291L120.89 26.1262ZM120.89 22.2105L117.467 20.7796L118.981 18.6287L120.889 19.1052L120.89 22.2105ZM129.334 34.8753L128.153 33.9052L126.667 29.9738H132.001L130.515 33.9063L129.334 34.8753ZM126.526 29.5067L125.328 25.4046H133.34L132.142 29.5069L126.526 29.5067ZM125.182 24.9383L124.74 23.4588L129.334 16.8308L133.927 23.4591L133.485 24.9385L125.182 24.9383ZM121.357 21.6736V19.0476L125.664 16.0902L128.993 16.4859L129.015 16.4886L129.005 16.498L124.325 23.2148L121.357 21.6736ZM123.765 34.2171L121.817 29.6773L121.382 26.4634L124.884 25.5477L126.102 29.7198L125.116 31.7783L123.788 34.2755L123.765 34.2171ZM124.01 34.8527L125.396 32.246L128.971 35.1811L128.851 35.2795L124.626 36.4512L124.01 34.8527ZM129.334 39.854L125.022 36.8251L129.334 35.6287L133.646 36.8251L129.334 39.854ZM134.041 36.4512L129.817 35.279L129.697 35.1806L133.271 32.2454L134.658 34.8521L134.041 36.4512ZM136.849 29.6773L134.902 34.2165L134.879 34.2758L133.551 31.7783L132.565 29.7198L133.783 25.5477L137.284 26.4634L136.849 29.6773ZM137.311 21.6736L134.345 23.2148L129.662 16.498L129.653 16.4886L129.675 16.4859L133.004 16.0902L137.311 19.0476V21.6736ZM141.455 20.3326L140.185 18.5292L141.991 18.195L141.455 20.3326ZM138.208 15.7L141.308 16.6064L141.941 17.7303L139.89 18.1098L138.208 15.7ZM137.778 19.1086L139.686 18.6321L141.2 20.7829L137.777 22.2138L137.778 19.1086ZM140.704 27.1586L137.778 26.1279V22.9291L142.506 23.7012L143.319 25.8926L140.704 27.1586Z" fill="url(#paint1_linear_4988_1541)"/>
<path d="M71.6905 23.9047C71.3 24.2952 71.3 24.9284 71.6905 25.3189L78.0545 31.6829C78.445 32.0734 79.0782 32.0734 79.4687 31.6829C79.8592 31.2924 79.8592 30.6592 79.4687 30.2687L73.8119 24.6118L79.4687 18.955C79.8592 18.5644 79.8592 17.9313 79.4687 17.5407C79.0782 17.1502 78.445 17.1502 78.0545 17.5407L71.6905 23.9047ZM99.8559 25.3189C100.246 24.9284 100.246 24.2952 99.8559 23.9047L93.492 17.5407C93.1014 17.1502 92.4683 17.1502 92.0777 17.5407C91.6872 17.9313 91.6872 18.5644 92.0777 18.955L97.7346 24.6118L92.0777 30.2687C91.6872 30.6592 91.6872 31.2924 92.0777 31.6829C92.4683 32.0734 93.1014 32.0734 93.492 31.6829L99.8559 25.3189ZM72.3976 25.6118H99.1488V23.6118H72.3976V25.6118Z" fill="#A2B8D1"/>
<g filter="url(#filter1_d_4988_1541)">
<circle cx="19.1145" cy="15.5232" r="14.7183" fill="#2B4266"/>
<path d="M19.4071 8.82251C19.9951 8.86034 20.5774 8.96124 21.1439 9.12347C21.447 8.55115 21.7008 7.95402 21.9026 7.33859C21.9644 7.15893 22.0847 7.00516 22.2441 6.90179C22.4035 6.79841 22.593 6.7514 22.7822 6.76824C22.9715 6.78507 23.1497 6.86479 23.2884 6.99468C23.427 7.12457 23.5182 7.29714 23.5474 7.4849C23.6173 7.93768 23.6452 8.39594 23.631 8.85385C27.0022 8.1537 29.5123 7.56431 29.4224 8.84132L29.4099 8.8873C28.6554 10.9627 27.1506 12.6222 25.2821 13.4414C25.0986 13.505 24.9423 13.6294 24.8393 13.794C24.7362 13.9587 24.6926 14.1536 24.7157 14.3464C24.7387 16.1585 24.7157 17.9224 24.7157 19.7157C22.9511 18.9491 21.0478 18.5536 19.1239 18.5536C17.2 18.5536 15.2966 18.9491 13.5321 19.7157C13.5321 17.9224 13.5174 16.1626 13.5321 14.3464C13.5551 14.1536 13.5115 13.9587 13.4085 13.794C13.3055 13.6294 13.1492 13.505 12.9657 13.4414C11.0972 12.6222 9.59237 10.9627 8.83788 8.8873L8.82534 8.84132C8.73547 7.56431 11.2456 8.1537 14.6168 8.85385C14.6026 8.39594 14.6305 7.93768 14.7004 7.4849C14.7295 7.29714 14.8208 7.12457 14.9594 6.99468C15.0981 6.86479 15.2763 6.78507 15.4656 6.76824C15.6548 6.7514 15.8443 6.79841 16.0037 6.90179C16.1631 7.00516 16.2834 7.15893 16.3452 7.33859C16.547 7.95402 16.8008 8.55115 17.1039 9.12347C17.6704 8.96124 18.2527 8.86034 18.8407 8.82251H19.4071Z" fill="#193151"/>
<path d="M19.1845 9.44083C19.951 9.47156 20.7091 9.61234 21.4355 9.85883C21.8802 9.12818 22.2366 8.34732 22.4972 7.53264C22.5104 7.48362 22.5411 7.44112 22.5834 7.41304C22.6257 7.38496 22.6768 7.37324 22.7271 7.38008C22.7797 7.37991 22.8305 7.39963 22.8693 7.43527C22.908 7.47092 22.9319 7.51987 22.9361 7.57235C23.0288 8.24578 23.0386 8.92804 22.9654 9.60386C23.3666 9.54325 23.467 9.52862 23.9978 9.40949C27.3795 8.66544 28.4872 8.63618 28.7902 8.76367C28.0838 10.6321 26.719 12.1223 25.0282 12.8601C24.7323 12.9726 24.4809 13.1781 24.3117 13.4456C24.1424 13.7132 24.0646 14.0284 24.0898 14.344C24.1086 15.8488 24.0898 17.3223 24.0898 18.802C20.8868 17.6121 17.3631 17.6121 14.1601 18.802C14.1601 17.3223 14.1497 15.8488 14.1601 14.344C14.1853 14.0284 14.1075 13.7132 13.9382 13.4456C13.769 13.1781 13.5176 12.9726 13.2217 12.8601C11.5371 12.1223 10.1724 10.6321 9.45967 8.76367C9.76272 8.63618 10.8704 8.66544 14.2521 9.40949C14.7829 9.52862 14.8791 9.54325 15.2845 9.60386C15.2113 8.92804 15.2211 8.24578 15.3138 7.57235C15.318 7.51987 15.3419 7.47092 15.3806 7.43527C15.4194 7.39963 15.4702 7.37991 15.5228 7.38008C15.5731 7.37324 15.6242 7.38496 15.6665 7.41304C15.7088 7.44112 15.7395 7.48362 15.7527 7.53264C16.0133 8.34732 16.3697 9.12818 16.8144 9.85883C17.5408 9.61234 18.2989 9.47156 19.0654 9.44083H19.1845Z" fill="#BFD5EB"/>
<path d="M16.3269 15.2074C16.0434 15.2042 15.7726 15.0894 15.5731 14.8879C15.3737 14.6865 15.2615 14.4146 15.261 14.1311C15.2648 13.9963 15.2952 13.8636 15.3504 13.7405C15.4057 13.6175 15.4846 13.5066 15.5828 13.4142C15.7827 13.2234 16.0485 13.1171 16.3248 13.1174C16.7488 13.1459 17.1643 13.2499 17.5516 13.4247C17.9843 13.6128 18.3459 13.874 18.3438 14.1624C18.3417 14.4509 17.9801 14.71 17.5475 14.8981C17.1615 15.0709 16.7485 15.1755 16.3269 15.2074Z" fill="#FFD700"/>
<path d="M16.3173 15.4915C15.9588 15.486 15.6169 15.3395 15.3657 15.0836C15.1145 14.8277 14.9743 14.4832 14.9755 14.1247C14.9808 13.9516 15.0205 13.7814 15.0922 13.6239C15.164 13.4663 15.2664 13.3247 15.3935 13.2071C15.6452 12.9656 15.981 12.8315 16.3298 12.833C16.7919 12.8618 17.245 12.9736 17.6674 13.1632C18.2944 13.4391 18.633 13.7902 18.633 14.1623C18.633 14.5343 18.2965 14.8833 17.6632 15.1592C17.2425 15.3475 16.7918 15.46 16.3319 15.4915H16.3194H16.3173ZM16.3173 13.4015C16.1145 13.4014 15.9197 13.4801 15.7739 13.6209C15.7024 13.687 15.6448 13.7667 15.6046 13.8554C15.5644 13.9441 15.5424 14.0399 15.5398 14.1372C15.5395 14.2393 15.5594 14.3405 15.5985 14.4349C15.6376 14.5292 15.6951 14.6149 15.7676 14.6869C15.8395 14.7606 15.9252 14.8195 16.0199 14.86C16.1146 14.9006 16.2164 14.922 16.3194 14.923C16.702 14.8904 17.0765 14.7936 17.4271 14.6367C17.8869 14.4277 18.0541 14.2438 18.0541 14.1602C18.0541 14.0766 17.889 13.8843 17.4271 13.6857C17.0754 13.5282 16.6993 13.4321 16.3152 13.4015H16.3173Z" fill="#193151"/>
<path d="M11.2643 9.74395L13.8768 10.3501C13.9048 10.3562 13.9301 10.3711 13.949 10.3927C13.9678 10.4142 13.9793 10.4413 13.9816 10.4698C13.984 10.4984 13.9771 10.5269 13.962 10.5513C13.9469 10.5756 13.9243 10.5945 13.8977 10.605C13.3773 10.814 12.4347 11.1275 11.9895 10.7931C11.3437 10.3124 11.1431 10.0449 11.1034 9.89861C11.0988 9.87677 11.0999 9.85413 11.1064 9.83281C11.113 9.81149 11.1249 9.79218 11.141 9.77672C11.1571 9.76126 11.1769 9.75014 11.1984 9.74441C11.22 9.73868 11.2427 9.73852 11.2643 9.74395Z" fill="#193151"/>
<path d="M21.9375 15.2074C22.2213 15.2052 22.4927 15.0908 22.6925 14.8891C22.8922 14.6874 23.004 14.4149 23.0034 14.1311C22.9996 13.9963 22.9692 13.8636 22.914 13.7405C22.8587 13.6175 22.7797 13.5066 22.6815 13.4142C22.4817 13.2234 22.2159 13.1171 21.9396 13.1174C21.5156 13.1459 21.1001 13.2499 20.7128 13.4247C20.2801 13.6128 19.9185 13.874 19.9206 14.1624C19.9227 14.4509 20.2843 14.71 20.7169 14.8981C21.1029 15.0709 21.5158 15.1755 21.9375 15.2074Z" fill="#FFD700"/>
<path d="M21.9488 15.4915C22.3073 15.486 22.6492 15.3395 22.9003 15.0836C23.1515 14.8277 23.2917 14.4832 23.2906 14.1247C23.2853 13.9516 23.2456 13.7814 23.1738 13.6239C23.102 13.4663 22.9996 13.3247 22.8726 13.2071C22.6208 12.9656 22.2851 12.8315 21.9362 12.833C21.4741 12.8618 21.021 12.9736 20.5986 13.1632C19.9716 13.4391 19.633 13.7902 19.633 14.1623C19.633 14.5343 19.9695 14.8833 20.6028 15.1592C21.0235 15.3475 21.4742 15.46 21.9341 15.4915H21.9467H21.9488ZM21.9488 13.4015C22.1515 13.4014 22.3463 13.4801 22.4922 13.6209C22.5637 13.687 22.6212 13.7667 22.6614 13.8554C22.7016 13.9441 22.7237 14.0399 22.7263 14.1372C22.7266 14.2393 22.7066 14.3405 22.6675 14.4349C22.6284 14.5292 22.5709 14.6149 22.4984 14.6869C22.4266 14.7606 22.3408 14.8195 22.2461 14.86C22.1514 14.9006 22.0497 14.922 21.9467 14.923C21.564 14.8904 21.1895 14.7936 20.839 14.6367C20.3792 14.4277 20.212 14.2438 20.212 14.1602C20.212 14.0766 20.3771 13.8843 20.839 13.6857C21.1907 13.5282 21.5667 13.4321 21.9509 13.4015H21.9488Z" fill="#193151"/>
<path d="M26.9992 9.74395L24.3867 10.3501C24.3587 10.3562 24.3334 10.3711 24.3146 10.3927C24.2957 10.4142 24.2843 10.4413 24.2819 10.4698C24.2796 10.4984 24.2865 10.5269 24.3016 10.5513C24.3167 10.5756 24.3392 10.5945 24.3658 10.605C24.8862 10.814 25.8288 11.1275 26.274 10.7931C26.9198 10.3124 27.1204 10.0449 27.1602 9.89861C27.1647 9.87677 27.1637 9.85413 27.1571 9.83281C27.1505 9.81149 27.1386 9.79218 27.1225 9.77672C27.1064 9.76126 27.0867 9.75014 27.0651 9.74441C27.0435 9.73868 27.0209 9.73852 26.9992 9.74395Z" fill="#193151"/>
<path d="M25.2905 20.1314C24.2183 18.9735 22.8138 18.4594 21.3195 18.1542C20.619 17.9999 19.9027 17.9297 19.1856 17.9452H19.0832C18.3661 17.9297 17.6497 17.9999 16.9493 18.1542C15.4528 18.451 14.0483 18.9735 12.9782 20.1314C12.1109 21.0719 11.8663 22.2444 12.416 23.2246C12.7702 23.9067 13.2979 24.4834 13.9459 24.8966C15.1639 25.598 16.5179 26.0306 17.9169 26.1653C18.3032 26.2113 18.6921 26.2315 19.0811 26.2259H19.1835C19.5724 26.2315 19.9614 26.2113 20.3476 26.1653C21.7467 26.0306 23.1007 25.598 24.3187 24.8966C24.9666 24.4834 25.4943 23.9067 25.8485 23.2246C26.4024 22.2444 26.1579 21.0719 25.2905 20.1314Z" fill="#9AB6CC"/>
<path d="M24.6978 20C23.7343 19.1222 22.474 18.7271 21.1301 18.5035C20.4893 18.3781 19.8372 18.3192 19.1843 18.3279H19.0902C18.4362 18.3162 17.7827 18.3722 17.1403 18.4951C15.7964 18.7188 14.5361 19.1222 13.5726 19.9916C12.793 20.7022 12.5757 21.5905 13.0668 22.3324C13.4052 22.8698 13.8796 23.3082 14.442 23.6031C15.5623 24.1414 16.7727 24.4674 18.0118 24.5646C18.3813 24.6006 18.7525 24.616 19.1237 24.6105H19.1508C19.522 24.616 19.8933 24.6006 20.2627 24.5646C21.5018 24.4674 22.7122 24.1414 23.8325 23.6031C24.3949 23.3082 24.8694 22.8698 25.2077 22.3324C25.6947 21.5884 25.4773 20.7001 24.6978 20Z" fill="#BFD5EB"/>
<path d="M16.4128 22.4722C15.8046 22.769 15.2382 22.4722 15.1295 21.7992C15.0104 21.0782 15.9823 19.3644 16.2059 20.6602C16.4295 21.956 17.4244 20.144 17.4306 20.9549C17.4143 21.2763 17.311 21.5872 17.1317 21.8544C16.9525 22.1217 16.704 22.3352 16.4128 22.4722Z" fill="#193151"/>
<path d="M25.5414 19.8994C24.2644 18.5199 22.5569 18.0497 21.3844 17.8093H21.3572C20.7436 17.6732 20.1172 17.6032 19.4887 17.6003H18.776C18.1475 17.6032 17.5212 17.6732 16.9076 17.8093H16.8804C15.7079 18.0413 14.0004 18.5116 12.7234 19.8994C11.7369 20.9653 11.5049 22.305 12.1131 23.3918C12.4938 24.13 13.0645 24.7533 13.7663 25.1975C14.9262 25.8956 16.2325 26.3136 17.8752 26.5122C18.2421 26.5569 18.6113 26.5793 18.9809 26.579H19.2839C19.6535 26.5793 20.0227 26.5569 20.3895 26.5122C22.0323 26.3136 23.3386 25.8956 24.4985 25.1975C25.2003 24.7533 25.771 24.13 26.1517 23.3918C26.7599 22.2987 26.5279 20.9653 25.5414 19.8994ZM25.554 23.0574C25.2302 23.6906 24.744 24.2265 24.1453 24.6103C23.071 25.2561 21.8463 25.6553 20.3059 25.8329C19.9335 25.8773 19.5586 25.8969 19.1836 25.8914H19.0812C18.7062 25.8969 18.3313 25.8773 17.9589 25.8329C16.4143 25.6448 15.1938 25.2561 14.1195 24.6103C13.5207 24.2265 13.0346 23.6906 12.7108 23.0574C12.2447 22.2214 12.437 21.2182 13.2271 20.3654C14.107 19.4124 15.2753 18.8334 17.0142 18.4844H17.0392C17.7216 18.3319 18.4198 18.2617 19.1188 18.2754H19.146C19.845 18.2617 20.5432 18.3319 21.2255 18.4844H21.2506C22.9895 18.8272 24.1578 19.4061 25.0377 20.3654C25.8278 21.2182 26.02 22.2255 25.554 23.0574Z" fill="#193151"/>
<path d="M21.8523 22.4722C22.4605 22.769 23.0269 22.4722 23.1356 21.7992C23.2547 21.0782 22.2828 19.3644 22.0592 20.6602C21.8356 21.956 20.8407 20.144 20.8345 20.9549C20.8508 21.2763 20.9541 21.5872 21.1334 21.8544C21.3126 22.1217 21.5611 22.3352 21.8523 22.4722Z" fill="#193151"/>
</g>
<g filter="url(#filter2_d_4988_1541)">
<circle cx="45.1804" cy="15.5232" r="14.7183" fill="#2B4266"/>
<path d="M45.4729 8.82251C46.061 8.86034 46.6433 8.96124 47.2097 9.12347C47.5129 8.55115 47.7667 7.95402 47.9684 7.33859C48.0303 7.15893 48.1505 7.00516 48.3099 6.90179C48.4694 6.79841 48.6588 6.7514 48.8481 6.76824C49.0373 6.78507 49.2155 6.86479 49.3542 6.99468C49.4929 7.12457 49.5841 7.29714 49.6133 7.4849C49.6831 7.93768 49.7111 8.39594 49.6969 8.85385C53.0681 8.1537 55.5782 7.56431 55.4883 8.84132L55.4757 8.8873C54.7213 10.9627 53.2164 12.6222 51.348 13.4414C51.1644 13.505 51.0082 13.6294 50.9051 13.794C50.8021 13.9587 50.7585 14.1536 50.7816 14.3464C50.8046 16.1585 50.7816 17.9224 50.7816 19.7157C49.017 18.9491 47.1136 18.5536 45.1897 18.5536C43.2658 18.5536 41.3625 18.9491 39.5979 19.7157C39.5979 17.9224 39.5833 16.1626 39.5979 14.3464C39.621 14.1536 39.5774 13.9587 39.4743 13.794C39.3713 13.6294 39.215 13.505 39.0315 13.4414C37.163 12.6222 35.6582 10.9627 34.9037 8.8873L34.8912 8.84132C34.8013 7.56431 37.3114 8.1537 40.6826 8.85385C40.6684 8.39594 40.6964 7.93768 40.7662 7.4849C40.7954 7.29714 40.8866 7.12457 41.0253 6.99468C41.164 6.86479 41.3421 6.78507 41.5314 6.76824C41.7207 6.7514 41.9101 6.79841 42.0695 6.90179C42.229 7.00516 42.3492 7.15893 42.4111 7.33859C42.6128 7.95402 42.8666 8.55115 43.1697 9.12347C43.7362 8.96124 44.3185 8.86034 44.9065 8.82251H45.4729Z" fill="#193151"/>
<path d="M45.2499 9.44083C46.0163 9.47156 46.7744 9.61234 47.5008 9.85883C47.9455 9.12818 48.3019 8.34732 48.5625 7.53264C48.5758 7.48362 48.6064 7.44112 48.6487 7.41304C48.6911 7.38496 48.7421 7.37324 48.7925 7.38008C48.8451 7.37991 48.8959 7.39963 48.9346 7.43527C48.9734 7.47092 48.9972 7.51987 49.0015 7.57235C49.0941 8.24578 49.1039 8.92804 49.0307 9.60386C49.432 9.54325 49.5323 9.52862 50.0632 9.40949C53.4448 8.66544 54.5525 8.63618 54.8556 8.76367C54.1492 10.6321 52.7844 12.1223 51.0936 12.8601C50.7976 12.9726 50.5462 13.1781 50.377 13.4456C50.2078 13.7132 50.1299 14.0284 50.1551 14.344C50.174 15.8488 50.1551 17.3223 50.1551 18.802C46.9522 17.6121 43.4284 17.6121 40.2255 18.802C40.2255 17.3223 40.215 15.8488 40.2255 14.344C40.2507 14.0284 40.1728 13.7132 40.0036 13.4456C39.8344 13.1781 39.583 12.9726 39.2871 12.8601C37.6025 12.1223 36.2377 10.6321 35.525 8.76367C35.8281 8.63618 36.9358 8.66544 40.3174 9.40949C40.8483 9.52862 40.9444 9.54325 41.3499 9.60386C41.2767 8.92804 41.2865 8.24578 41.3792 7.57235C41.3834 7.51987 41.4072 7.47092 41.446 7.43527C41.4847 7.39963 41.5355 7.37991 41.5882 7.38008C41.6385 7.37324 41.6896 7.38496 41.7319 7.41304C41.7742 7.44112 41.8048 7.48362 41.8181 7.53264C42.0787 8.34732 42.4351 9.12818 42.8798 9.85883C43.6062 9.61234 44.3643 9.47156 45.1307 9.44083H45.2499Z" fill="#BFD5EB"/>
<path d="M42.3931 15.2074C42.1096 15.2042 41.8388 15.0894 41.6393 14.8879C41.4398 14.6865 41.3277 14.4146 41.3271 14.1311C41.331 13.9963 41.3613 13.8636 41.4166 13.7405C41.4718 13.6175 41.5508 13.5066 41.649 13.4142C41.8488 13.2234 42.1146 13.1171 42.391 13.1174C42.815 13.1459 43.2304 13.2499 43.6178 13.4247C44.0504 13.6128 44.412 13.874 44.4099 14.1624C44.4078 14.4509 44.0463 14.71 43.6136 14.8981C43.2277 15.0709 42.8147 15.1755 42.3931 15.2074Z" fill="#FFD700"/>
<path d="M42.3826 15.4915C42.0241 15.486 41.6822 15.3395 41.431 15.0836C41.1799 14.8277 41.0397 14.4832 41.0408 14.1247C41.0461 13.9516 41.0858 13.7814 41.1576 13.6239C41.2293 13.4663 41.3317 13.3247 41.4588 13.2071C41.7105 12.9656 42.0463 12.8315 42.3951 12.833C42.8572 12.8618 43.3104 12.9736 43.7328 13.1632C44.3598 13.4391 44.6983 13.7902 44.6983 14.1623C44.6983 14.5343 44.3618 14.8833 43.7286 15.1592C43.3078 15.3475 42.8571 15.46 42.3972 15.4915H42.3847H42.3826ZM42.3826 13.4015C42.1799 13.4014 41.985 13.4801 41.8392 13.6209C41.7677 13.687 41.7102 13.7667 41.67 13.8554C41.6298 13.9441 41.6077 14.0399 41.6051 14.1372C41.6048 14.2393 41.6248 14.3405 41.6639 14.4349C41.703 14.5292 41.7604 14.6149 41.8329 14.6869C41.9048 14.7606 41.9905 14.8195 42.0852 14.86C42.1799 14.9006 42.2817 14.922 42.3847 14.923C42.7674 14.8904 43.1418 14.7936 43.4924 14.6367C43.9522 14.4277 44.1194 14.2438 44.1194 14.1602C44.1194 14.0766 43.9543 13.8843 43.4924 13.6857C43.1407 13.5282 42.7646 13.4321 42.3805 13.4015H42.3826Z" fill="#193151"/>
<path d="M37.3309 9.74395L39.9434 10.3501C39.9714 10.3562 39.9967 10.3711 40.0156 10.3927C40.0344 10.4142 40.0459 10.4413 40.0482 10.4698C40.0505 10.4984 40.0437 10.5269 40.0286 10.5513C40.0135 10.5756 39.9909 10.5945 39.9643 10.605C39.4439 10.814 38.5013 11.1275 38.0561 10.7931C37.4103 10.3124 37.2097 10.0449 37.17 9.89861C37.1654 9.87677 37.1665 9.85413 37.173 9.83281C37.1796 9.81149 37.1915 9.79218 37.2076 9.77672C37.2237 9.76126 37.2435 9.75014 37.265 9.74441C37.2866 9.73868 37.3092 9.73852 37.3309 9.74395Z" fill="#193151"/>
<path d="M48.0032 15.2074C48.2871 15.2052 48.5585 15.0908 48.7582 14.8891C48.9579 14.6874 49.0697 14.4149 49.0692 14.1311C49.0653 13.9963 49.035 13.8636 48.9797 13.7405C48.9245 13.6175 48.8455 13.5066 48.7473 13.4142C48.5475 13.2234 48.2817 13.1171 48.0053 13.1174C47.5813 13.1459 47.1659 13.2499 46.7785 13.4247C46.3459 13.6128 45.9843 13.874 45.9864 14.1624C45.9885 14.4509 46.35 14.71 46.7827 14.8981C47.1687 15.0709 47.5816 15.1755 48.0032 15.2074Z" fill="#FFD700"/>
<path d="M48.0145 15.4915C48.373 15.486 48.7149 15.3395 48.9661 15.0836C49.2172 14.8277 49.3574 14.4832 49.3563 14.1247C49.351 13.9516 49.3113 13.7814 49.2396 13.6239C49.1678 13.4663 49.0654 13.3247 48.9383 13.2071C48.6866 12.9656 48.3508 12.8315 48.002 12.833C47.5399 12.8618 47.0867 12.9736 46.6644 13.1632C46.0374 13.4391 45.6988 13.7902 45.6988 14.1623C45.6988 14.5343 46.0353 14.8833 46.6685 15.1592C47.0893 15.3475 47.54 15.46 47.9999 15.4915H48.0124H48.0145ZM48.0145 13.4015C48.2173 13.4014 48.4121 13.4801 48.5579 13.6209C48.6294 13.687 48.687 13.7667 48.7272 13.8554C48.7674 13.9441 48.7894 14.0399 48.792 14.1372C48.7923 14.2393 48.7723 14.3405 48.7332 14.4349C48.6941 14.5292 48.6367 14.6149 48.5642 14.6869C48.4923 14.7606 48.4066 14.8195 48.3119 14.86C48.2172 14.9006 48.1154 14.922 48.0124 14.923C47.6297 14.8904 47.2553 14.7936 46.9047 14.6367C46.4449 14.4277 46.2777 14.2438 46.2777 14.1602C46.2777 14.0766 46.4428 13.8843 46.9047 13.6857C47.2564 13.5282 47.6325 13.4321 48.0166 13.4015H48.0145Z" fill="#193151"/>
<path d="M53.065 9.74395L50.4525 10.3501C50.4245 10.3562 50.3992 10.3711 50.3803 10.3927C50.3614 10.4142 50.35 10.4413 50.3477 10.4698C50.3453 10.4984 50.3522 10.5269 50.3673 10.5513C50.3824 10.5756 50.4049 10.5945 50.4316 10.605C50.952 10.814 51.8946 11.1275 52.3397 10.7931C52.9856 10.3124 53.1862 10.0449 53.2259 9.89861C53.2305 9.87677 53.2294 9.85413 53.2228 9.83281C53.2162 9.81149 53.2043 9.79218 53.1883 9.77672C53.1722 9.76126 53.1524 9.75014 53.1309 9.74441C53.1093 9.73868 53.0866 9.73852 53.065 9.74395Z" fill="#193151"/>
<path d="M51.3571 20.1314C50.2849 18.9735 48.8804 18.4594 47.3861 18.1542C46.6856 17.9999 45.9693 17.9297 45.2522 17.9452H45.1497C44.4327 17.9297 43.7163 17.9999 43.0158 18.1542C41.5194 18.451 40.1149 18.9735 39.0448 20.1314C38.1775 21.0719 37.9329 22.2444 38.4826 23.2246C38.8368 23.9067 39.3645 24.4834 40.0125 24.8966C41.2305 25.598 42.5845 26.0306 43.9835 26.1653C44.3698 26.2113 44.7587 26.2315 45.1477 26.2259H45.2501C45.639 26.2315 46.0279 26.2113 46.4142 26.1653C47.8133 26.0306 49.1673 25.598 50.3852 24.8966C51.0332 24.4834 51.5609 23.9067 51.9151 23.2246C52.469 22.2444 52.2245 21.0719 51.3571 20.1314Z" fill="#9AB6CC"/>
<path d="M50.7635 20C49.8 19.1222 48.5397 18.7271 47.1958 18.5035C46.555 18.3781 45.903 18.3192 45.25 18.3279H45.156C44.502 18.3162 43.8485 18.3722 43.206 18.4951C41.8621 18.7188 40.6018 19.1222 39.6383 19.9916C38.8588 20.7022 38.6414 21.5905 39.1326 22.3324C39.4709 22.8698 39.9453 23.3082 40.5078 23.6031C41.6281 24.1414 42.8384 24.4674 44.0775 24.5646C44.447 24.6006 44.8182 24.616 45.1894 24.6105H45.2166C45.5878 24.616 45.959 24.6006 46.3285 24.5646C47.5676 24.4674 48.7779 24.1414 49.8982 23.6031C50.4607 23.3082 50.9351 22.8698 51.2735 22.3324C51.7604 21.5884 51.5431 20.7001 50.7635 20Z" fill="#BFD5EB"/>
<path d="M42.4786 22.4722C41.8704 22.769 41.304 22.4722 41.1953 21.7992C41.0762 21.0782 42.048 19.3644 42.2717 20.6602C42.4953 21.956 43.4901 20.144 43.4964 20.9549C43.4801 21.2763 43.3768 21.5872 43.1975 21.8544C43.0182 22.1217 42.7697 22.3352 42.4786 22.4722Z" fill="#193151"/>
<path d="M51.6072 19.8994C50.3302 18.5199 48.6227 18.0497 47.4502 17.8093H47.423C46.8094 17.6732 46.183 17.6032 45.5545 17.6003H44.8418C44.2133 17.6032 43.5869 17.6732 42.9733 17.8093H42.9462C41.7737 18.0413 40.0661 18.5116 38.7891 19.8994C37.8026 20.9653 37.5706 22.305 38.1788 23.3918C38.5596 24.13 39.1302 24.7533 39.832 25.1975C40.992 25.8956 42.2983 26.3136 43.941 26.5122C44.3078 26.5569 44.6771 26.5793 45.0466 26.579H45.3497C45.7192 26.5793 46.0885 26.5569 46.4553 26.5122C48.0981 26.3136 49.4043 25.8956 50.5643 25.1975C51.2661 24.7533 51.8368 24.13 52.2175 23.3918C52.8257 22.2987 52.5937 20.9653 51.6072 19.8994ZM51.6197 23.0574C51.2959 23.6906 50.8098 24.2265 50.2111 24.6103C49.1368 25.2561 47.912 25.6553 46.3717 25.8329C45.9993 25.8773 45.6244 25.8969 45.2494 25.8914H45.147C44.772 25.8969 44.397 25.8773 44.0246 25.8329C42.4801 25.6448 41.2595 25.2561 40.1853 24.6103C39.5865 24.2265 39.1004 23.6906 38.7766 23.0574C38.3105 22.2214 38.5028 21.2182 39.2928 20.3654C40.1727 19.4124 41.341 18.8334 43.0799 18.4844H43.105C43.7874 18.3319 44.4855 18.2617 45.1846 18.2754H45.2117C45.9108 18.2617 46.609 18.3319 47.2913 18.4844H47.3164C49.0553 18.8272 50.2236 19.4061 51.1035 20.3654C51.8935 21.2182 52.0858 22.2255 51.6197 23.0574Z" fill="#193151"/>
<path d="M47.9176 22.4722C48.5258 22.769 49.0922 22.4722 49.2009 21.7992C49.32 21.0782 48.3482 19.3644 48.1245 20.6602C47.9009 21.956 46.9061 20.144 46.8998 20.9549C46.9161 21.2763 47.0194 21.5872 47.1987 21.8544C47.378 22.1217 47.6265 22.3352 47.9176 22.4722Z" fill="#193151"/>
</g>
<defs>
<filter id="filter0_d_4988_1541" x="11.7433" y="22.5874" width="37.4366" height="37.4365" filterUnits="userSpaceOnUse" color-interpolation-filters="sRGB">
<feFlood flood-opacity="0" result="BackgroundImageFix"/>
<feColorMatrix in="SourceAlpha" type="matrix" values="0 0 0 0 0 0 0 0 0 0 0 0 0 0 0 0 0 0 127 0" result="hardAlpha"/>
<feOffset dy="4"/>
<feGaussianBlur stdDeviation="2"/>
<feComposite in2="hardAlpha" operator="out"/>
<feColorMatrix type="matrix" values="0 0 0 0 0 0 0 0 0 0 0 0 0 0 0 0 0 0 0.25 0"/>
<feBlend mode="normal" in2="BackgroundImageFix" result="effect1_dropShadow_4988_1541"/>
<feBlend mode="normal" in="SourceGraphic" in2="effect1_dropShadow_4988_1541" result="shape"/>
</filter>
<filter id="filter1_d_4988_1541" x="0.396179" y="0.804932" width="37.4366" height="37.4365" filterUnits="userSpaceOnUse" color-interpolation-filters="sRGB">
<feFlood flood-opacity="0" result="BackgroundImageFix"/>
<feColorMatrix in="SourceAlpha" type="matrix" values="0 0 0 0 0 0 0 0 0 0 0 0 0 0 0 0 0 0 127 0" result="hardAlpha"/>
<feOffset dy="4"/>
<feGaussianBlur stdDeviation="2"/>
<feComposite in2="hardAlpha" operator="out"/>
<feColorMatrix type="matrix" values="0 0 0 0 0 0 0 0 0 0 0 0 0 0 0 0 0 0 0.25 0"/>
<feBlend mode="normal" in2="BackgroundImageFix" result="effect1_dropShadow_4988_1541"/>
<feBlend mode="normal" in="SourceGraphic" in2="effect1_dropShadow_4988_1541" result="shape"/>
</filter>
<filter id="filter2_d_4988_1541" x="26.4621" y="0.804932" width="37.4366" height="37.4365" filterUnits="userSpaceOnUse" color-interpolation-filters="sRGB">
<feFlood flood-opacity="0" result="BackgroundImageFix"/>
<feColorMatrix in="SourceAlpha" type="matrix" values="0 0 0 0 0 0 0 0 0 0 0 0 0 0 0 0 0 0 127 0" result="hardAlpha"/>
<feOffset dy="4"/>
<feGaussianBlur stdDeviation="2"/>
<feComposite in2="hardAlpha" operator="out"/>
<feColorMatrix type="matrix" values="0 0 0 0 0 0 0 0 0 0 0 0 0 0 0 0 0 0 0.25 0"/>
<feBlend mode="normal" in2="BackgroundImageFix" result="effect1_dropShadow_4988_1541"/>
<feBlend mode="normal" in="SourceGraphic" in2="effect1_dropShadow_4988_1541" result="shape"/>
</filter>
<linearGradient id="paint0_linear_4988_1541" x1="109.837" y1="32.293" x2="147.204" y2="18.832" gradientUnits="userSpaceOnUse">
<stop stop-color="#36373D"/>
<stop offset="0.359375" stop-color="#101015"/>
<stop offset="1" stop-color="#0E0501"/>
</linearGradient>
<linearGradient id="paint1_linear_4988_1541" x1="114.764" y1="27.6528" x2="143.904" y2="27.6528" gradientUnits="userSpaceOnUse">
<stop offset="0.442708" stop-color="white"/>
<stop offset="0.505208" stop-color="#8D9ACA"/>
<stop offset="1" stop-color="#FF784A"/>
</linearGradient>
</defs>
</svg>
