<svg fill="none" height="62" viewBox="0 0 71 62" width="71" xmlns="http://www.w3.org/2000/svg" xmlns:xlink="http://www.w3.org/1999/xlink"><linearGradient id="a" gradientUnits="userSpaceOnUse" x1="0" x2="70.1285" y1="31.0017" y2="31.0017"><stop offset=".442708" stop-color="#fff"/><stop offset=".505208" stop-color="#8d9aca"/><stop offset="1" stop-color="#c8643b"/></linearGradient><path d="m67.5917 20.4012-11.1317-1.8365 8.4993-3.5839 1.9195-7.734-2.2431-4.01559-10.963-3.23121 5.5812 8.06464h-.0047l.0333.04685-4.352 1.09625-10.7464-7.44155-9.1199 1.09224-9.1198-1.09224-10.7484 7.44222-4.3506-1.09625.0332-.04685h-.0047l5.5812-8.06464008-10.96298 3.23121008-2.24309 4.01559 1.91952 7.73403 8.49995 3.5832-11.12841 1.8365-2.54009 6.9008 7.63355 3.7204 7.21235-2.5639 1.0365 7.7634 4.7393 11.1386 2.3082 6.0441 11.1703 7.9074.9501.6693v.0134l.0066.0053.01-.0074.01.0074.0066-.0053v-.0134l.9501-.6693 11.1677-7.91 2.3082-6.0442 4.7393-11.1385 1.0365-7.7635 7.2123 2.5639 7.6335-3.7204zm-61.34413-16.21361 7.46083-2.19987-4.04836 5.85071-4.93666-.9189zm-1.64246 3.85831 4.34599.81449-3.05634 4.37701zm10.13839 19.2507-7.04284 2.5017-6.29009-3.0685 1.95606-5.3187 11.38027-1.8739zm0-9.5035-8.2388-3.4728 3.6437-5.22031 4.5925 1.15651zm20.3207 30.738-2.8424-2.3545-3.5759-9.5417h12.8367l-3.576 9.5444zm.4399-13.03h-7.1977l-2.8829-9.9559h19.2815l-2.8829 9.9566zm0-11.0877h-10.4314l-1.0631-3.5906 11.0546-16.08641 11.0527 16.08711-1.0631 3.5906zm-19.637-7.9234v-6.3734l10.365-7.17786 8.0116.9604.0531.00669-.0232.02275-11.2646 16.30192zm5.7951 30.4435-4.6875-11.0181-1.0465-7.8003 8.4262-2.2226 2.9314 10.126-2.3719 4.996-3.1966 6.0609zm.5893 1.5427 3.3368-6.3266 8.6016 7.1237-.2884.2389-10.1663 2.8437zm12.8127 12.1384-10.3776-7.3512 10.3776-2.9039 10.3777 2.9039zm11.3278-8.2587-10.1657-2.845-.2883-.239 8.6016-7.1236 3.3367 6.3265zm6.7592-16.4405-4.6875 11.0168-.0552.1439-3.1965-6.0616-2.372-4.996 2.9314-10.126 8.4262 2.2226zm1.1102-19.4254-7.1385 3.7405-11.268-16.30192-.0232-.02275.0531-.00669 8.0116-.9604 10.365 7.17786zm9.9743-3.2546-3.0563-4.37702 4.346-.81114zm-7.8156-11.24367 7.4608 2.19987 1.5242 2.72793-4.9367.92091zm-1.0352 8.27277 4.5925-1.15648 3.6437 5.22028-8.2388 3.4728zm7.0429 19.5379-7.0429-2.5018v-7.7634l11.3803 1.8739 1.956 5.3187z" fill="url(#a)"/></svg>