<svg width="60" height="91" viewBox="0 0 60 91" fill="none" xmlns="http://www.w3.org/2000/svg">
<g clip-path="url(#clip0_2998:165)">
<path fill-rule="evenodd" clip-rule="evenodd" d="M59.84 27.2C59.69 26.52 59.13 26.33 58.59 26.14C55.92 25.22 53.24 24.36 50.59 23.38C46.95 22.02 43.33 20.58 39.71 19.16C35.38 17.46 31.06 15.77 26.71 14.02C22.2579 12.3553 18.122 9.9441 14.4799 6.89C12.3214 5.05077 10.4566 2.89253 8.94995 0.490002C8.83995 0.310002 8.59993 0.22 8.29993 0C8.23266 0.378803 8.25557 0.768124 8.36676 1.13644C8.47795 1.50475 8.6743 1.8417 8.93994 2.12C10.1168 3.73627 11.4031 5.26987 12.7899 6.71C15.1596 9.01209 17.8551 10.9529 20.7899 12.47C21.6338 12.8326 22.4326 13.2923 23.1699 13.84C23.3166 14.6343 23.2647 15.4526 23.0187 16.222C22.7727 16.9914 22.3403 17.6881 21.7599 18.25L20.7599 17.89C18.1309 16.818 15.5841 15.5546 13.14 14.11C11.7917 13.4191 10.4921 12.6373 9.24994 11.77C6.74379 9.95111 4.13259 8.28155 1.42993 6.77C1.08993 6.58 0.739932 6.4 0.429932 6.22C3.20993 9.22 6.52995 11.48 9.72995 13.87C9.99318 14.0464 10.2708 14.2003 10.5599 14.33C13.1099 15.71 15.6599 17.1 18.2299 18.43C19.2075 18.9157 20.0753 19.5964 20.78 20.43C21.0947 20.7691 21.3084 21.1895 21.3967 21.6436C21.4851 22.0978 21.4447 22.5676 21.28 23C21.1513 23.663 20.776 24.2526 20.2299 24.65C17.6282 24.4704 15.0533 24.0111 12.5499 23.28C11.4699 22.97 10.3899 22.64 9.29993 22.35C8.83365 22.2764 8.36195 22.2429 7.88995 22.25C8.15778 22.482 8.43821 22.6989 8.72995 22.9C10.6374 23.9999 12.7061 24.7929 14.86 25.25C15.96 25.5 17.0499 25.76 18.1299 26.04C18.5888 26.2401 19.0638 26.4007 19.5499 26.52C21.9163 26.7508 24.2172 27.4295 26.33 28.52C27.62 29.17 28.9499 29.75 30.2399 30.42C33.5803 32.2115 36.3518 34.9033 38.2399 38.19C39.5269 40.458 40.6887 42.7949 41.72 45.19C42.6983 47.4164 43.3419 49.7753 43.6299 52.19C43.9899 54.87 44.16 57.57 44.47 60.26C44.5895 61.1727 44.511 62.1004 44.2399 62.98C43.9244 63.9184 43.7066 64.8869 43.59 65.87C43.4533 67.046 43.1746 68.2011 42.7599 69.31C41.6899 72.42 40.57 75.51 39.53 78.62C38.7 81.12 37.9499 83.62 37.1699 86.15C36.9885 86.646 36.8415 87.1538 36.7299 87.67C36.6458 87.9322 36.6604 88.2162 36.7709 88.4685C36.8814 88.7208 37.0802 88.924 37.33 89.04C37.93 88.04 38.6 87.09 39.14 86.04C39.8079 84.7858 40.8166 83.7458 42.0499 83.04C43.762 82.0957 45.7552 81.7943 47.6699 82.19C48.9416 82.286 50.1417 82.8155 51.0699 83.69C52.9299 85.69 54.8399 87.58 55.0699 90.59C55.0699 90.65 55.1399 90.7 55.2399 90.85C55.8999 90.68 55.8999 90.18 55.9399 89.73C56.0799 87.73 56.2 85.8 56.33 83.84C56.33 82.98 56.4499 82.12 56.4899 81.27C56.6899 77.51 57.0099 73.75 57.0599 69.98C57.1099 66.21 57.1599 62.46 57.4299 58.71C58.0599 49.81 58.65 40.91 59.28 32.01C59.3108 30.7536 59.5333 29.5092 59.9399 28.32C60.0042 27.9443 59.9698 27.5584 59.84 27.2ZM57.84 28.39C57.6482 30.0979 56.991 31.7202 55.9399 33.08C54.9688 31.2306 53.5003 29.6893 51.7 28.63C53.99 28.44 55.9399 27.9 57.8599 28.39H57.84ZM47.3799 28.52C49.4464 28.8003 51.3968 29.6407 53.02 30.95C54.038 31.7354 54.7499 32.8515 55.0329 34.1057C55.3159 35.3599 55.1521 36.6736 54.5699 37.82C54.0699 39.03 53.5699 40.24 53.0599 41.44C52.8457 41.8175 52.6086 42.1815 52.3499 42.53C52.1599 42.05 52.0099 41.78 51.9299 41.53C51.0842 37.7666 48.9647 34.4108 45.9299 32.03C44.6699 31.03 43.4599 30.03 42.2299 29.03C42.0499 28.87 41.9 28.67 41.58 28.31C43.5158 28.2631 45.4526 28.3332 47.3799 28.52V28.52ZM40.22 26.72C40.12 26.72 40.0299 26.58 39.8599 26.45C39.9699 26.13 40.07 25.78 40.21 25.33C42.86 25.71 45.4099 26.41 48.0099 26.87L48.5599 27.01C48.5599 27.01 48.5599 27.08 48.5599 27.12L48.0499 26.87C47.9099 26.98 47.77 27.2 47.65 27.19C45.15 27.03 42.68 26.87 40.22 26.7V26.72ZM45.58 23.72C45.6593 23.4976 45.7528 23.2805 45.8599 23.07C49.4124 23.8118 52.8497 25.026 56.08 26.68C52.4368 26.424 48.8305 25.7872 45.3199 24.78C45.4199 24.28 45.48 23.97 45.58 23.66V23.72ZM39.7 20.42C40.98 20.91 42.27 21.42 43.53 21.94C44.59 22.4 44.6999 22.76 44.2499 23.94C44.1444 24.1395 44.0132 24.3244 43.8599 24.49C42.2663 24.2606 40.6896 23.9266 39.14 23.49C39.1784 22.8973 39.1784 22.3027 39.14 21.71C39.0625 21.2822 38.9419 20.8634 38.78 20.46C39.16 19.99 39.45 20.26 39.7 20.36V20.42ZM39.14 25.34C39.1344 25.5003 39.0953 25.6576 39.0253 25.8019C38.9553 25.9462 38.8559 26.0742 38.7335 26.1778C38.611 26.2814 38.4683 26.3582 38.3145 26.4034C38.1606 26.4485 37.999 26.461 37.84 26.44C36.72 26.44 35.6099 26.38 34.4799 26.34C34.1399 25.48 33.8299 24.71 33.4799 23.94C35.4427 23.9609 37.3762 24.4187 39.14 25.28V25.34ZM32.9399 17.66C33.9399 18.07 35.0199 18.54 36.0699 18.95C36.4898 19.106 36.8679 19.3569 37.1749 19.6829C37.4819 20.009 37.7095 20.4016 37.84 20.83C38.29 22.1 38.0799 22.74 36.4799 22.76C36.4203 22.7699 36.3595 22.7699 36.2999 22.76L35.39 22.54L29.8199 21.09L32.0099 17.46C32.3257 17.4965 32.6371 17.5635 32.9399 17.66V17.66ZM24.5399 14.52C24.5399 14.52 24.7199 14.41 24.7999 14.44C26.4399 15.09 28.0699 15.74 29.6899 16.44C30.4599 16.76 30.5999 17.18 30.2599 17.99C29.9684 18.7134 29.4756 19.3381 28.84 19.79C28.5495 20.028 28.2002 20.1833 27.8289 20.2396C27.4576 20.2959 27.0779 20.2511 26.7299 20.11C25.6399 19.66 24.4799 19.38 23.4299 18.85C23.8199 17.28 24.1699 15.9 24.5399 14.52ZM25.3799 23.92C24.4271 24.5697 23.2789 24.87 22.1299 24.77C22.344 23.9964 22.4978 23.2074 22.59 22.41C22.5643 21.6679 22.4807 20.929 22.34 20.2L25.83 21.43C25.89 21.88 25.9699 22.32 25.9899 22.77C26.0019 22.9935 25.9511 23.2159 25.8433 23.412C25.7355 23.6082 25.575 23.7703 25.3799 23.88V23.92ZM25.84 25.42C26.266 24.8869 26.6347 24.3104 26.9399 23.7C27.0965 23.1193 27.1805 22.5214 27.1899 21.92C27.4899 21.92 27.72 22 27.95 22.06C29.09 22.38 30.2399 22.65 31.3499 23.06C32.4599 23.47 32.63 24.4 32.96 25.31C32.96 25.45 32.7799 25.76 32.6099 25.9C32.4474 25.996 32.2549 26.0281 32.0699 25.99L25.84 25.42ZM27.9399 27.3C28.6099 27.3 28.94 27.21 29.21 27.23C32 27.47 34.7899 27.74 37.5699 27.96C38.3862 27.9857 39.1778 28.2461 39.8499 28.71C40.8499 29.46 41.9299 30.15 42.9399 30.92C43.9499 31.69 44.69 32.4 45.58 33.11C47.1175 34.3918 48.3679 35.983 49.2499 37.78C50.2471 39.9222 50.9502 42.1894 51.34 44.52C51.419 45.0369 51.3568 45.5656 51.1599 46.05C50.6899 47.34 50.1599 48.59 49.6099 49.84C49.1499 49.93 49.0499 49.59 48.9999 49.27C48.4846 47.1126 47.7054 45.0268 46.6799 43.06C45.0799 39.46 42.5599 36.64 39.9899 33.87C38.4686 32.3363 36.6657 31.1105 34.6799 30.26C32.5799 29.23 30.4399 28.35 27.9399 27.26V27.3ZM43.4 46.46C42.0858 43.0418 40.4484 39.7569 38.5099 36.65C37.575 35.2609 36.4584 34.0031 35.1899 32.91C34.556 32.4786 34.0375 31.8983 33.6799 31.22C34.2136 31.3662 34.7351 31.5534 35.2399 31.78C37.9282 33.2844 40.245 35.3722 42.02 37.89C42.35 38.37 42.72 38.82 43.09 39.26C44.6054 41.2933 45.843 43.5196 46.77 45.88C47.57 47.57 47.7699 49.41 48.4299 51.12C48.6348 51.6819 48.6348 52.2981 48.4299 52.86C47.6899 54.97 46.96 57.08 46.21 59.19C46.21 59.35 45.9699 59.45 45.7599 59.66C45.4172 58.58 45.2451 57.4531 45.2499 56.32C44.9399 52.94 44.65 49.52 43.4 46.42V46.46ZM55.4 84.28C55.4 84.85 55.1999 85.28 54.5999 85.42C50.7999 79.95 44.7499 79.79 40.0699 82.98C40.0352 82.7346 40.0352 82.4854 40.0699 82.24C41.0699 79.19 42.1499 76.16 43.1799 73.11C43.5473 72.0733 44.2515 71.1896 45.1799 70.6C46.3424 69.6227 47.7093 68.9188 49.1799 68.54C49.9562 68.4496 50.7428 68.5154 51.4933 68.7335C52.2438 68.9516 52.943 69.3176 53.5499 69.81C53.8466 70.07 54.0474 70.4222 54.1199 70.81C54.7666 73.0959 55.182 75.441 55.3599 77.81C55.4961 79.9512 55.4961 82.0988 55.3599 84.24L55.4 84.28ZM56.08 72.01C56.0472 72.3056 55.9731 72.595 55.8599 72.87C55.6234 72.1716 55.4265 71.4605 55.27 70.74C55.171 70.1661 54.927 69.6269 54.5612 69.1736C54.1955 68.7204 53.72 68.368 53.1799 68.15C51.9915 67.4969 50.6341 67.2163 49.2841 67.3447C47.9341 67.4731 46.6539 68.0045 45.6099 68.87C45.3862 69.0168 45.1484 69.1407 44.9 69.24C44.7866 69.1366 44.714 68.9959 44.6957 68.8436C44.6773 68.6912 44.7143 68.5374 44.7999 68.41C45.6599 65.86 46.5499 63.32 47.4099 60.77C47.6094 60.153 47.9934 59.612 48.5099 59.22C49.0701 58.8027 49.6043 58.3519 50.1099 57.87C50.5 57.493 50.985 57.2288 51.5132 57.1055C52.0415 56.9823 52.5933 57.0045 53.1099 57.17C53.8533 57.3301 54.5272 57.7208 55.0353 58.2865C55.5435 58.8521 55.8601 59.5638 55.9399 60.32C56.0659 60.9789 56.1196 61.6495 56.0999 62.32C55.8518 65.5312 55.8318 68.756 56.0399 71.97L56.08 72.01ZM56.4999 57.19C56.4999 57.31 56.38 57.41 56.22 57.69C55.7691 57.1421 55.2004 56.703 54.5563 56.4052C53.9123 56.1074 53.2094 55.9586 52.4999 55.97C51.7496 55.8811 50.99 56.0254 50.3245 56.3832C49.6589 56.741 49.1197 57.295 48.78 57.97C48.7446 57.6376 48.7446 57.3024 48.78 56.97C49.54 54.89 50.3099 52.8 51.1099 50.73C51.2522 50.3746 51.4829 50.0614 51.78 49.82C52.4699 49.2668 53.2021 48.7686 53.97 48.33C54.4071 48.1023 54.8981 47.9985 55.39 48.03C55.7467 48.019 56.0937 48.1476 56.357 48.3886C56.6203 48.6295 56.7793 48.9637 56.7999 49.32C56.9142 49.8965 56.9745 50.4823 56.9799 51.07C56.7799 53.08 56.61 55.12 56.46 57.15L56.4999 57.19ZM57.1299 47.19C56.3739 46.9996 55.5993 46.8923 54.8199 46.87C54.091 46.996 53.3794 47.2075 52.7 47.5C52.43 47.33 52.58 47.05 52.7 46.84C53.1 45.73 53.49 44.62 53.96 43.55C54.64 42 54.96 41.83 56.89 41.99C57.4597 43.6431 57.5292 45.4275 57.09 47.12L57.1299 47.19ZM57.5699 40.79C57.1699 40.79 56.75 40.86 56.33 40.86C55.91 40.86 55.5999 40.79 55.2399 40.75C55.2195 40.6007 55.2195 40.4493 55.2399 40.3L57.8599 33.19C57.9799 33.32 58.1199 33.4 58.1199 33.49C58.1075 35.9115 57.9103 38.3285 57.53 40.72L57.5699 40.79Z" fill="#BFD5EB"/>
<path d="M6.93997 81.85C6.93997 81.85 6.93997 79.53 5.46997 80.07C3.99997 80.61 4.88999 82.2 4.88999 82.2C4.88999 82.2 3.21996 85.68 7.04996 86.45C7.06996 86.45 9.38997 84.6 6.93997 81.85Z" fill="#042744"/>
<path d="M4.76001 82.38C3.83709 81.6283 2.84996 80.9591 1.81 80.38C1.26237 80.2811 0.697466 80.3842 0.220001 80.67L0 80.27C0.603052 79.9168 1.31546 79.7993 2 79.94C3.08346 80.549 4.11378 81.2482 5.08002 82.03L4.76001 82.38Z" fill="#042744"/>
<path d="M0.490051 84.35L0.0500488 84.22C0.0500488 84.13 0.690053 82.01 1.96005 81.97C2.96454 82.049 3.94508 82.317 4.85007 82.76L4.65005 83.18C3.81493 82.7648 2.90921 82.5104 1.98007 82.43C1.19007 82.46 0.640051 83.83 0.490051 84.35Z" fill="#042744"/>
<path d="M0.940002 87.26L0.5 87.11C0.63 86.73 1.77 83.39 3.28 83.44C4.56 83.44 4.87001 83.76 4.89001 83.99L4.44 84.05C4.43407 84.073 4.43407 84.0971 4.44 84.12C4.44 84.12 4.26 83.93 3.25 83.9C2.24 83.87 1.39 85.95 0.940002 87.26Z" fill="#042744"/>
<path d="M2.24002 88.45C2.24002 88.34 1.97003 85.81 3.69003 85.34L5.23004 84.92L5.35004 85.36L3.81003 85.79C2.47003 86.15 2.70004 88.38 2.70004 88.4L2.24002 88.45Z" fill="#042744"/>
<path d="M7.26007 82.15H6.80005C7.24005 78.29 9.57007 77.46 9.67007 77.43L9.82007 77.87C9.73007 77.85 7.66007 78.6 7.26007 82.15Z" fill="#042744"/>
<path d="M7.27988 83.12L6.86987 82.9C7.37373 81.9037 7.98396 80.9649 8.68988 80.1C9.51988 79.27 11.6399 80.88 12.0499 81.21L11.7599 81.57C10.8599 80.85 9.41989 80.03 9.00989 80.43C8.34083 81.2638 7.76098 82.1654 7.27988 83.12V83.12Z" fill="#042744"/>
<path d="M11.9899 83.88C11.2099 83.22 9.72995 82.27 9.09995 82.56C8.43077 82.9075 7.81455 83.3486 7.26993 83.87L6.93994 83.52C7.53106 82.9538 8.20558 82.4816 8.93994 82.12C10.0399 81.61 12.0899 83.32 12.3199 83.51L11.9899 83.88Z" fill="#042744"/>
<path d="M11.6299 85.35C11.5499 85.27 9.62991 83.51 7.62991 84.68L7.3999 84.28C9.6399 82.93 11.8999 84.99 11.9299 85.01L11.6299 85.35Z" fill="#042744"/>
<path d="M5.65994 9.65002C5.59213 9.71646 5.5185 9.77671 5.43994 9.83002V82.72H5.93994V9.27002L5.65994 9.65002Z" fill="#042744"/>
</g>
<defs>
<clipPath id="clip0_2998:165">
<rect width="59.99" height="90.87" fill="white"/>
</clipPath>
</defs>
</svg>
