<svg fill="none" viewBox="0 0 60 60" xmlns="http://www.w3.org/2000/svg"><path d="m30 60c16.569 0 30-13.431 30-30s-13.431-30-30-30-30 13.431-30 30 13.431 30 30 30z" fill="#627eea"/><path d="m30.12 9-.287.957v27.774l.287.281 13.122-7.62z" fill="#c0cbf6"/><path d="m30.122 9-13.122 21.392 13.122 7.62z" fill="#fff"/><path d="m30.12 40.45-.162.193v9.893l.162.464 13.13-18.167-13.13 7.616z" fill="#c0cbf6"/><path d="m30.122 51v-10.55l-13.122-7.619z" fill="#fff"/><path d="m30.12 38.027 13.122-7.62-13.122-5.86z" fill="#8197ee"/><path d="m17 30.406 13.122 7.621v-13.48z" fill="#c0cbf6"/></svg>