<svg xmlns="http://www.w3.org/2000/svg" fill="none" viewBox="0 0 60 60">
  <path fill="#E0A515" d="M30 60c16.569 0 30-13.431 30-30C60 13.431 46.569 0 30 0 13.431 0 0 13.431 0 30c0 16.569 13.431 30 30 30Z"/>
  <path fill="#F1E2BE" d="m30.12 9-.287.957v27.774l.287.281 13.122-7.62L30.12 9Z"/>
  <path fill="#fff" d="M30.122 9 17 30.392l13.122 7.62V9Z"/>
  <path fill="#F1E2BE" d="m30.12 40.45-.162.193v9.893l.162.464 13.13-18.167-13.13 7.616Z"/>
  <path fill="#fff" d="M30.122 51V40.45L17 32.831 30.122 51Z"/>
  <path fill="#EAB535" d="m30.12 38.027 13.122-7.62-13.122-5.86v13.48Z"/>
  <path fill="#F1E2BE" d="m17 30.406 13.122 7.621v-13.48L17 30.406Z"/>
</svg>