<svg fill="none" height="13" viewBox="0 0 13 13" width="13" xmlns="http://www.w3.org/2000/svg"><path d="m13 6.5c0 3.5899-2.9101 6.5-6.5 6.5-3.58986 0-6.5-2.9101-6.5-6.5 0-3.58986 2.91014-6.5 6.5-6.5 3.5899 0 6.5 2.91014 6.5 6.5zm-7.25185 3.4417 4.82255-4.82258c.1638-.16376.1638-.42929 0-.59305l-.59302-.59305c-.16375-.16378-.42929-.16378-.59307 0l-3.933 3.93298-1.83622-1.83623c-.16376-.16376-.42929-.16376-.59307 0l-.59305.59305c-.16376.16376-.16376.42929 0 .59304l2.72581 2.72581c.16378.16383.42928.16383.59307.00003z" fill="#3b7848"/></svg>