<svg width="14" height="14" viewBox="0 0 14 14" fill="none" xmlns="http://www.w3.org/2000/svg">
<path d="M6.66602 13.1667C3.07607 13.1667 0.166016 10.2567 0.166016 6.66675C0.166016 3.0768 3.07607 0.166748 6.66602 0.166748C10.256 0.166748 13.166 3.0768 13.166 6.66675C13.166 10.2567 10.256 13.1667 6.66602 13.1667ZM6.66602 9.26675C7.35558 9.26675 8.0169 8.99282 8.50449 8.50523C8.99209 8.01763 9.26602 7.35631 9.26602 6.66675C9.26602 5.97718 8.99209 5.31586 8.50449 4.82827C8.0169 4.34068 7.35558 4.06675 6.66602 4.06675C5.97645 4.06675 5.31513 4.34068 4.82754 4.82827C4.33994 5.31586 4.06602 5.97718 4.06602 6.66675C4.06602 7.35631 4.33994 8.01763 4.82754 8.50523C5.31513 8.99282 5.97645 9.26675 6.66602 9.26675Z" fill="#43758C"/>
</svg>