<svg fill="none" height="20" viewBox="0 0 18 20" width="18" xmlns="http://www.w3.org/2000/svg"><path d="m5 16h5c.2833 0 .521-.096.713-.288.1913-.1913.287-.4287.287-.712s-.0957-.521-.287-.713c-.192-.1913-.4297-.287-.713-.287h-5c-.28333 0-.521.0957-.713.287-.19133.192-.287.4297-.287.713s.09567.5207.287.712c.192.192.42967.288.713.288zm0-4h8c.2833 0 .5207-.096.712-.288.192-.1913.288-.4287.288-.712s-.096-.521-.288-.713c-.1913-.1913-.4287-.287-.712-.287h-8c-.28333 0-.521.0957-.713.287-.19133.192-.287.4297-.287.713s.09567.5207.287.712c.192.192.42967.288.713.288zm0-4h8c.2833 0 .5207-.096.712-.288.192-.19133.288-.42867.288-.712s-.096-.521-.288-.713c-.1913-.19133-.4287-.287-.712-.287h-8c-.28333 0-.521.09567-.713.287-.19133.192-.287.42967-.287.713s.09567.52067.287.712c.192.192.42967.288.713.288zm-3 10h14v-14h-14zm0-14v14zm0 16c-.55 0-1.021-.1957-1.413-.587-.391333-.392-.587-.863-.587-1.413v-14c0-.55.195667-1.021.587-1.413.392-.39133.863-.587 1.413-.587h4.2c.21667-.6.57933-1.083333 1.088-1.45.508-.366667 1.07867-.55 1.712-.55s1.2043.183333 1.713.55c.508.366667.8703.85 1.087 1.45h4.2c.55 0 1.021.19567 1.413.587.3913.392.587.863.587 1.413v14c0 .55-.1957 1.021-.587 1.413-.392.3913-.863.587-1.413.587zm7-16.75c.21667 0 .396-.071.538-.213.14133-.14133.212-.32033.212-.537s-.07067-.396-.212-.538c-.142-.14133-.32133-.212-.538-.212s-.39567.07067-.537.212c-.142.142-.213.32133-.213.538s.071.39567.213.537c.14133.142.32033.213.537.213z" fill="#000"/></svg>