<svg width="20" height="18" fill="none" xmlns="http://www.w3.org/2000/svg"><path d="M20 2.797a8.192 8.192 0 01-2.357.646 4.11 4.11 0 001.805-2.27 8.22 8.22 0 01-2.606.996A4.096 4.096 0 0013.847.873c-2.65 0-4.596 2.472-3.998 5.038a11.648 11.648 0 01-8.457-4.287 4.109 4.109 0 001.27 5.478A4.086 4.086 0 01.804 6.59C.76 8.49 2.122 10.27 4.095 10.664a4.111 4.111 0 01-1.853.07 4.106 4.106 0 003.833 2.85A8.25 8.25 0 010 15.283a11.616 11.616 0 006.29 1.843c7.618 0 11.922-6.434 11.663-12.205A8.353 8.353 0 0020 2.797z" fill="#EF7F56"/></svg>