<svg fill="none" height="300" viewBox="0 0 1724 300" width="1724" xmlns="http://www.w3.org/2000/svg" xmlns:xlink="http://www.w3.org/1999/xlink"><clipPath id="a"><path d="m0 0h1724v300h-1724z"/></clipPath><g clip-path="url(#a)"><path d="m0 0h1724v300h-1724z" fill="#f0dede"/><path d="m-27 158h182.906c32.268 0 63.344 12.173 86.993 34.079l43.101 39.921h-313z" fill="#fff8f7"/><path d="m61 133 9 25h-18z" fill="#fff8f7"/><path d="m-28 232h594.475c28.899 0 56.953 9.763 79.624 27.709l50.901 40.291h-725z" fill="#000"/><path d="m460 207 9 25h-18z" fill="#fff8f7"/><path d="m344.167 105h4.666l1.167 127h-7z" fill="#000"/><path d="m348.867 54.9999h2.185l4.565 40.1698c.518 4.5605-2.337 8.8273-6.75 10.0883z" fill="#000"/><path d="m305.344 130.387-1.093-1.893 32.506-24.038c3.69-2.729 8.813-2.39 12.111.802z" fill="#000"/><path d="m392.391 130.387-1.093 1.892-37.07-16.132c-4.209-1.831-6.477-6.437-5.362-10.889z" fill="#000"/><g fill="#fff8f7"><path d="m497 180-16 44h32z"/><path d="m0 0h4v8h-4z" transform="matrix(-1 0 0 1 499 224)"/><path d="m104 106-16 44h32z"/><path d="m126 114-16 44h32z"/><path d="m0 0h4v8h-4z" transform="matrix(-1 0 0 1 106 150)"/><path d="m1360 275 9 25h-18z"/><path d="m1378 248 16 44h-32z"/><path d="m1376 292h4v8h-4z"/><path d="m1316 267 9 25h-18z"/><path d="m1314 292h4v8h-4z"/></g><path d="m1585 224h139v76h-139z" fill="#000"/><path d="m1536 257 49-33 49 33v43h-98z" fill="#fff8f7"/><path d="m1556 273h58v28h-58z" fill="#000"/><path d="m1469 219c0-14.912 12.09-27 27-27s27 12.088 27 27v81h-54z" fill="#fff8f7"/><path d="m1091 300v-14l10 14z" fill="#000"/><path d="m1083 300v-14l10 14z" fill="#000"/><path d="m1075 300v-14l10 14z" fill="#000"/><path d="m838 300v-14l10 14z" fill="#000"/><path d="m830 300v-14l10 14z" fill="#000"/><path d="m1440 300v-20l-14 20z" fill="#000"/><path d="m1429 300v-20l-14 20z" fill="#000"/><path d="m1418 300v-20l-14 20z" fill="#000"/></g></svg>