<svg xmlns="http://www.w3.org/2000/svg" fill="none" viewBox="0 0 122 77"><path fill="#23191a" d="m32.165 76.567-18.245.012 2.009-17.637L35.9 58.93z"/><path fill="#fff8f7" d="m92.3 16.279 13.8 13.951-.117 23.882-7.3.372 2.081 22.043-17.515.012-3.562-17.634-3.65.003 1.374 17.635-18.245.012-2.833-17.634-33.571.022-3.736 17.638-18.245.012 6.863-60.26z"/><path fill="#23191a" fill-rule="evenodd" d="M103.2 62.561a5.41 5.41 0 0 0 5.135-3.763l3.693-11.51 2.237-.002a5.41 5.41 0 0 0 5.135-3.763l2.195-6.84-8.106.006 4.306-6.47-40.506.027 4.243 6.464-8.105.005 2.128 6.837a5.33 5.33 0 0 0 5.098 3.756l2.236-.002 3.58 11.507a5.33 5.33 0 0 0 5.1 3.756zm2.838-18.413c-.01 1.736-1.307 3.144-2.9 3.145s-2.878-1.405-2.869-3.141 1.307-3.145 2.9-3.146 2.877 1.406 2.869 3.142m-17.127.011c-.008 1.736 1.276 3.143 2.869 3.142s2.891-1.41 2.9-3.146-1.277-3.142-2.87-3.141c-1.592 0-2.89 1.41-2.899 3.145" clip-rule="evenodd"/><path fill="#23191a" d="M46.404.874 14.592 5.859c-3.454.542-6.132 3.354-6.531 6.86l-.412 3.611 27.091-.017c6.4-.004 11.614-5.246 11.646-11.707z"/><path fill="#f0dede" d="m22.762 58.941 27.003-.017-.691 3.22c-.793 3.692-4.034 6.335-7.772 6.338l-10.171.007c-3.738.002-6.953-2.637-7.71-6.328z"/><path fill="#f0dede" d="m40.965 67.745-3.65.002-.012 2.601a1.793 1.793 0 0 0 1.8 1.806 1.857 1.857 0 0 0 1.85-1.842zm-5.878.004-3.65.002-.012 2.6a1.79 1.79 0 0 0 1.799 1.807 1.857 1.857 0 0 0 1.85-1.842z"/></svg>