<?xml version="1.0" encoding="utf-8"?>
<!-- Generator: Adobe Illustrator 24.1.0, SVG Export Plug-In . SVG Version: 6.00 Build 0)  -->
<svg version="1.1" id="Layer_1" xmlns="http://www.w3.org/2000/svg" xmlns:xlink="http://www.w3.org/1999/xlink" x="0px" y="0px"
	 viewBox="0 0 440 440" style="enable-background:new 0 0 440 440;" xml:space="preserve">
<style type="text/css">
	.st0{clip-path:url(#SVGID_2_);fill:#001428;}
	.st1{clip-path:url(#SVGID_2_);fill:#009CB4;}
	.st2{clip-path:url(#SVGID_2_);fill:#E8663D;}
	.st3{clip-path:url(#SVGID_2_);fill:#008C73;}
	.st4{fill:#E8663D;}
	.st5{fill:#FFFFFF;}
	.st6{fill:#001428;}
</style>
<g>
	<path d="M133.8,250.1c12.6,0,24.1-4.2,33.4-11.4l-76.6-76.6c-7.2,9.2-11.4,20.8-11.4,33.4C79.3,225.6,103.7,250.1,133.8,250.1z"/>
	<path d="M361.6,195.4c0-12.6-4.2-24.1-11.4-33.4l-76.6,76.6c9.2,7.2,20.8,11.4,33.4,11.4C337.1,250.1,361.6,225.6,361.6,195.4z"/>
	<path d="M400.2,112.1L366.3,146c11.2,13.4,18,30.6,18,49.5c0,42.6-34.7,77.3-77.3,77.3c-18.7,0-36-6.8-49.5-18l-37.1,37.1
		l-37.1-37.1c-13.4,11.2-30.6,18-49.5,18c-42.6,0-77.3-34.7-77.3-77.3c0-18.7,6.8-36,18-49.5l-17.4-17.4l-16.5-16.5
		c-19.2,31.8-30.3,69-30.3,108.9c0,116,94,210.1,210.1,210.1S430.5,337,430.5,221C430.5,181.1,419.4,143.9,400.2,112.1z"/>
	<path d="M372.4,76c-38.2-40.1-92.2-65.1-152-65.1s-113.8,25-152,65.1c-5.2,5.5-10.1,11.2-14.7,17.2l166.7,166.8L387.1,93.2
		C382.6,87.2,377.6,81.5,372.4,76z M220.4,38.4c49.2,0,94.8,18.9,129.2,53.5L220.4,221.1L91.2,91.9
		C125.6,57.3,171.2,38.4,220.4,38.4z"/>
</g>
</svg>
