<svg xmlns="http://www.w3.org/2000/svg" fill="none" viewBox="0 0 256 235"><g clip-path="url(#a)"><mask id="c" width="256" height="235" x="0" y="0" maskUnits="userSpaceOnUse" style="mask-type:alpha"><path fill="url(#b)" d="M0 0h256v235H0V0Z"/></mask><g fill="#00A1FF" mask="url(#c)" opacity=".5"><path d="M64.54 164.167h94.919l-47.46-47.46-47.459 47.46Zm-.707-.708L111.292 116 63.833 68.54v94.919ZM112.706 116l47.46 47.459V68.54L112.706 116Zm-.707-.708 47.46-47.459H64.54l47.459 47.459Zm49.167 49.875H62.833V66.833h98.333v98.334Z"/><path d="M64.54 66.833h94.919l-47.46-47.46-47.459 47.46Zm-.707-.707 47.459-47.46-47.459-47.459v94.919Zm48.873-47.46 47.46 47.46v-94.919l-47.46 47.459Zm-.707-.707 47.46-47.459H64.54l47.459 47.459Zm49.167 49.874H62.833V-30.5h98.333v98.333ZM64.54 261.5h94.919l-47.46-47.46L64.54 261.5Zm-.707-.708 47.459-47.459-47.459-47.459v94.918Zm48.873-47.459 47.46 47.459v-94.918l-47.46 47.459Zm-.707-.708 47.46-47.458H64.54l47.459 47.458Zm49.167 49.875H62.833v-98.333h98.333V262.5Z"/><path d="M-32.793 164.167h94.919l-47.46-47.46-47.459 47.46Zm-.707-.708L13.959 116-33.5 68.54v94.919ZM15.373 116l47.46 47.459V68.54L15.373 116Zm-.707-.708 47.46-47.459h-94.919l47.459 47.459Zm49.167 49.875H-34.5V66.833h98.333v98.334Z"/><path d="M-32.793 66.833h94.919l-47.46-47.46-47.459 47.46Zm-.707-.707 47.459-47.46L-33.5-28.793v94.919Zm48.873-47.46 47.46 47.46v-94.919l-47.46 47.459Zm-.707-.707L62.126-29.5h-94.919l47.459 47.459Zm49.167 49.874H-34.5V-30.5h98.333v98.333ZM-32.793 261.5h94.919l-47.46-47.46-47.459 47.46Zm-.707-.708 47.459-47.459-47.459-47.459v94.918Zm48.873-47.459 47.46 47.459v-94.918l-47.46 47.459Zm-.707-.708 47.46-47.458h-94.919l47.459 47.458ZM63.833 262.5H-34.5v-98.333h98.333V262.5Zm98.041-98.333h94.919l-47.46-47.46-47.459 47.46Zm-.707-.708L208.626 116l-47.459-47.46v94.919ZM210.04 116l47.46 47.459V68.54L210.04 116Zm-.707-.708 47.46-47.459h-94.919l47.459 47.459Zm49.167 49.875h-98.333V66.833H258.5v98.334Z"/><path d="M161.874 66.833h94.919l-47.46-47.46-47.459 47.46Zm-.707-.707 47.459-47.46-47.459-47.459v94.919Zm48.873-47.46 47.46 47.46v-94.919l-47.46 47.459Zm-.707-.707 47.46-47.459h-94.919l47.459 47.459ZM258.5 67.833h-98.333V-30.5H258.5v98.333ZM161.874 261.5h94.919l-47.46-47.46-47.459 47.46Zm-.707-.708 47.459-47.459-47.459-47.459v94.918Zm48.873-47.459 47.46 47.459v-94.918l-47.46 47.459Zm-.707-.708 47.46-47.458h-94.919l47.459 47.458ZM258.5 262.5h-98.333v-98.333H258.5V262.5Z"/></g></g><defs><linearGradient id="b" x1="256" x2="0" y1="0" y2="0" gradientUnits="userSpaceOnUse"><stop offset=".44" stop-color="#fff"/><stop offset="1" stop-color="#fff" stop-opacity="0"/></linearGradient><clipPath id="a"><path fill="#fff" d="M0 0h256v235H0z"/></clipPath></defs></svg>