<svg fill="none" viewBox="0 0 14 14" xmlns="http://www.w3.org/2000/svg"><path d="m0 .889.896-.889 13.104 13.104-.889.896-1.414-1.4a1.797 1.797 0 0 1 -1.547-1.554l-1.05-1.057v2.611h-7v-9.611zm11.9 4.011c.385 0 .7-.315.7-.7s-.315-.7-.7-.7-.7.315-.7.7.315.7.7.7zm-4.2 0v-3.5h-3.626l-1.232-1.239c.196-.105.42-.161.658-.161h4.2c.77 0 1.4.623 1.4 1.4v4.9h.7c.77 0 1.4.623 1.4 1.4v.826l-3.626-3.626zm-4.2 0h.511l-.511-.511zm9.639-1.939c.315.315.511.756.511 1.239v6.769l-1.05-1.043v-4.123a1.75 1.75 0 0 1 -2.45-1.603c0-.749.469-1.379 1.127-1.631l-1.477-1.477.742-.742 2.604 2.604z" fill="#007b28"/></svg>