<svg viewBox="0 0 14 14" fill="none" xmlns="http://www.w3.org/2000/svg"><path d="M0 .889.896 0 14 13.104l-.889.896-1.414-1.4a1.797 1.797 0 0 1-1.547-1.554L9.1 9.989V12.6h-7V2.989L0 .889ZM11.9 4.9c.385 0 .7-.315.7-.7 0-.385-.315-.7-.7-.7-.385 0-.7.315-.7.7 0 .385.315.7.7.7Zm-4.2 0V1.4H4.074L2.842.161C3.038.056 3.262 0 3.5 0h4.2c.77 0 1.4.623 1.4 1.4v4.9h.7c.77 0 1.4.623 1.4 1.4v.826L7.574 4.9H7.7Zm-4.2 0h.511L3.5 4.389V4.9Zm9.639-1.939c.315.315.511.756.511 1.239v6.769L12.6 9.926V5.803A1.75 1.75 0 0 1 10.15 4.2c0-.749.469-1.379 1.127-1.631L9.8 1.092l.742-.742 2.604 2.604-.007.007Z" fill="#007B28"/></svg>
