<svg xmlns="http://www.w3.org/2000/svg" fill="currentColor" viewBox="0 -960 960 960">
  <path d="M87.87-668.41v-203.72h203.72v83H170.87v120.72zm0 580.54v-203.72h83v120.72h120.72v83zm580.54 0v-83h120.72v-120.72h83v203.72zm120.72-580.54v-120.72H668.41v-83h203.72v203.72zM672-288h48v48h-48zm0-96h48v48h-48zm-48 48h48v48h-48zm-48 48h48v48h-48zm-48-48h48v48h-48zm96-96h48v48h-48zm-48 48h48v48h-48zm-48-48h48v48h-48zm216-312v216H528v-216zM432-432v216H216v-216zm0-312v216H216v-216zm-51.59 476.41v-112.82H267.59v112.82zm0-312v-112.82H267.59v112.82zm312 0v-112.82H579.59v112.82z"/>
</svg>
