<svg viewBox="0 0 14 14" fill="none" xmlns="http://www.w3.org/2000/svg"><path d="M9.722 9.722c.646 0 1.167-.52 1.167-1.166 0-.646-.521-1.167-1.167-1.167-.645 0-1.166.521-1.166 1.167 0 .645.52 1.166 1.166 1.166ZM3.112 0h7.777c.863 0 1.555.7 1.555 1.556V3.11c.864 0 1.556.7 1.556 1.556v7.777A1.55 1.55 0 0 1 12.444 14H3.111A3.11 3.11 0 0 1 0 10.889V3.11A3.11 3.11 0 0 1 3.111 0Zm7.777 3.111V1.556H3.11c-.855 0-1.555.7-1.555 1.555v.42c.458-.264.987-.42 1.555-.42h7.778ZM1.556 10.89c0 .863.7 1.555 1.555 1.555h9.333V4.667H3.111c-.855 0-1.555.7-1.555 1.555v4.667Z" fill="#0F2C61"/></svg>