<svg fill="none" viewBox="0 0 122 77" xmlns="http://www.w3.org/2000/svg"><path d="m31.77 76.596-18.246-.016 2.036-17.634 19.972.017z" fill="#23191a"/><path d="m48.414 61.952c-.798 3.691-4.043 6.329-7.78 6.326l-.055-.001-.013 2.077a1.857 1.857 0 0 1 -1.853 1.84 1.793 1.793 0 0 1 -1.797-1.81l.014-2.11-2.517-.003-.01 1.832a1.857 1.857 0 0 1 -1.854 1.84 1.793 1.793 0 0 1 -1.796-1.81l.012-1.865h-.304c-3.737-.003-6.948-2.647-7.699-6.339l-.655-3.22 27.004.024z" fill="#fccaf2"/><path d="m91.998 16.399 13.776 13.974-.154 23.881-7.3.361 2.048 22.047-17.515-.016-3.536-17.638-3.65-.004 1.347 17.637-18.245-.016-2.806-17.638-33.571-.03-3.762 17.633-18.246-.016 6.956-60.25z" fill="#fff8f7"/><g fill="#23191a"><path clip-rule="evenodd" d="m102.825 62.698a5.41 5.41 0 0 0 5.141-3.755l3.711-11.505 2.237.002a5.41 5.41 0 0 0 5.141-3.755l2.205-6.836-8.106-.007 4.316-6.463-40.506-.036 4.234 6.47-8.106-.007 2.117 6.84a5.33 5.33 0 0 0 5.093 3.764l2.236.002 3.563 11.512a5.33 5.33 0 0 0 5.093 3.764zm2.866-18.409c-.012 1.736-1.311 3.143-2.904 3.141s-2.875-1.41-2.864-3.146c.01-1.736 1.311-3.142 2.904-3.14 1.593 0 2.875 1.41 2.864 3.145m-17.126-.015c-.011 1.736 1.271 3.145 2.864 3.146 1.593.002 2.893-1.405 2.904-3.14.011-1.737-1.27-3.145-2.864-3.147-1.593 0-2.893 1.405-2.904 3.141" fill-rule="evenodd"/><path d="m46.124.924-31.82 4.937c-3.455.536-6.137 3.344-6.541 6.849l-.417 3.611 27.091.024c6.4.006 11.622-5.228 11.663-11.69z"/></g></svg>