<svg fill="none" height="21" viewBox="0 0 19 21" width="19" xmlns="http://www.w3.org/2000/svg"><path d="m5.25 2.625h2.625v-2.625h-2.625zm5.25 0v-2.625h2.625v2.625zm-5.25 10.5v-2.625h2.625v2.625zm10.5-5.25v-2.625h2.625v2.625zm0 5.25v-2.625h2.625v2.625zm-5.25 0v-2.625h2.625v2.625zm5.25-10.5v-2.625h2.625v2.625zm-7.875 2.625v-2.625h2.625v2.625zm-7.875 15.75v-21h2.625v2.625h2.625v2.625h-2.625v2.625h2.625v2.625h-2.625v10.5zm13.125-10.5v-2.625h2.625v2.625zm-5.25 0v-2.625h2.625v2.625zm-2.625-2.625v-2.625h2.625v2.625zm5.25 0v-2.625h2.625v2.625zm2.625-2.625v-2.625h2.625v2.625z" fill="#000000" /></svg>