<svg width="69" height="70" fill="none" xmlns="http://www.w3.org/2000/svg"><path d="M6.33194 34.4414C11.2309 36.5586 24.3067 36.8665 26.186 33.1517C28.6497 30.393 39.5332 25.6681 44.5066 32.7289C49.1725 39.3533 57.3714 35.9882 63.898 33.2989C65.8068 32.8761 68.9478 35.6421 65.7452 36.9436C62.5427 38.2451 49.0758 46.5709 45.8751 41.1584C49.4246 49.1953 54.2739 59.6754 48.615 63.6063C45.2335 65.9553 28.3945 67.6711 20.8771 62.5634C13.3598 57.4558 23.9685 47.6047 23.9685 41.1584C23.3816 44.4431 6.47774 39.0353 4.17017 37.9638C1.86261 36.8921 1.43296 32.3242 6.33194 34.4414Z" fill="#CAE9FF"/><mask id="a" style="mask-type:alpha" maskUnits="userSpaceOnUse" x="2" y="29" width="66" height="37"><path d="M6.33194 34.4414C11.2309 36.5586 24.3067 36.8665 26.186 33.1517C28.6497 30.393 39.5332 25.6681 44.5066 32.7289C49.1725 39.3533 57.3714 35.9882 63.898 33.2989C65.8068 32.8761 68.9478 35.6421 65.7452 36.9436C62.5427 38.2451 49.0758 46.5709 45.8751 41.1584C49.4246 49.1953 54.2739 59.6754 48.615 63.6063C45.2335 65.9553 28.3945 67.6711 20.8771 62.5634C13.3598 57.4558 23.9685 47.6047 23.9685 41.1584C23.3816 44.4431 6.47774 39.0353 4.17017 37.9638C1.86261 36.8921 1.43296 32.3242 6.33194 34.4414Z" fill="#CAE9FF"/></mask><g mask="url(#a)"><path d="M46.1031 20.2999C44.443 17.7865 42.2684 16.6704 39.9547 16.008C38.8702 15.6729 37.761 15.5207 36.6507 15.5544H36.4922C35.3819 15.5207 34.2727 15.6729 33.1882 16.008C30.8712 16.6523 28.6966 17.7865 27.0397 20.2999C25.6968 22.3415 25.3182 24.8867 26.1693 27.0145C26.7177 28.495 27.5347 29.7469 28.538 30.644C30.4238 32.1665 32.5203 33.1056 34.6865 33.3979C35.2845 33.4978 35.8867 33.5417 36.4889 33.5295H36.6475C37.2497 33.5417 37.8518 33.4978 38.45 33.3979C40.6161 33.1056 42.7125 32.1665 44.5984 30.644C45.6017 29.7469 46.4187 28.495 46.9671 27.0145C47.8247 24.8867 47.4461 22.3415 46.1031 20.2999Z" fill="#052B65" fill-opacity="0.07"/></g><path d="M44.8619 50.7844C43.2018 48.271 41.0272 47.1549 38.7135 46.4925C37.6289 46.1574 36.5198 46.0052 35.4095 46.0389H35.251C34.1406 46.0052 33.0315 46.1574 31.947 46.4925C29.6299 47.1368 27.4554 48.271 25.7985 50.7844C24.4556 52.826 24.077 55.3712 24.9281 57.499C25.4765 58.9795 26.2935 60.2314 27.2968 61.1285C29.1826 62.651 31.2791 63.5901 33.4453 63.8824C34.0433 63.9823 34.6455 64.0262 35.2477 64.014H35.4063C36.0085 64.0262 36.6106 63.9823 37.2087 63.8824C39.3749 63.5901 41.4713 62.651 43.3572 61.1285C44.3605 60.2314 45.1775 58.9795 45.7259 57.499C46.5835 55.3712 46.2049 52.826 44.8619 50.7844Z" fill="#052B65" fill-opacity="0.2"/><path d="M10.2279 58.6403C8.73683 52.4964 14.2907 51.8533 19.3889 52.8081C18.7759 54.6581 18.8984 56.9572 20.9583 59.3488C23.4176 62.2041 29.2904 63.0201 33.7269 63.5497L38.4666 62.6455L40.4631 67.5446L35.1665 68.6221C19.1634 68.0771 11.7188 64.7843 10.2279 58.6403Z" fill="#CAE9FF"/><path d="M58.8224 57.9317C60.3134 51.7878 55.3737 51.2835 50.2754 52.2383C50.8886 54.0883 49.8472 56.5524 47.7872 58.944C45.3279 61.7993 40.3828 63.0199 35.9463 63.5495L31.2066 62.6453V65.237L29.6475 66.8793L34.5067 68.6219C50.5097 68.0769 57.3314 64.0755 58.8224 57.9317Z" fill="#CAE9FF"/><path d="M30.7097 62.0739C32.0881 62.3764 34.3682 62.8233 35.8879 63.3642L35.129 67.0792L34.4021 69.0767L28.751 67.0792L30.7097 65.0797V62.0739Z" fill="#052B65"/><path d="M38.6997 63.1579C36.8218 63.3911 34.7593 63.4487 34.249 63.2827L35.7542 62.5089L36.8218 62.0948L38.4325 61.9148L38.6997 63.1579Z" fill="#052B65"/><path d="M2.86824 33.0395C3.70854 33.4101 5.42793 34.1593 5.58308 34.1909L5.14637 36.4006L3.83336 37.7982L0.684103 36.3987L2.46644 34.9992L2.86824 33.0395Z" fill="#052B65"/><path fill-rule="evenodd" clip-rule="evenodd" d="M2.60846 32.5363L3.01174 32.7142C3.43121 32.8992 4.06991 33.1786 4.62266 33.4155C4.89923 33.5341 5.15297 33.6414 5.34654 33.7208C5.44355 33.7606 5.52361 33.7926 5.58308 33.8153C5.63873 33.8366 5.65972 33.843 5.65959 33.8435C5.65956 33.8436 5.65842 33.8433 5.65635 33.8429L6.00046 33.9128L5.47539 36.5696L3.91965 38.2256L0 36.4837L2.14431 34.8001L2.60846 32.5363ZM3.12814 33.5421L2.78857 35.1984L1.36821 36.3136L3.74706 37.3708L4.81734 36.2315L5.17555 34.419C5.14432 34.4064 5.11127 34.3929 5.07665 34.3787C4.87794 34.2972 4.62022 34.1882 4.34251 34.0691C3.94404 33.8984 3.50171 33.7058 3.12814 33.5421Z" fill="#052B65"/><path d="M66.18 32.3932C65.3588 32.7559 63.6784 33.489 63.5268 33.5198L63.9545 35.6843L65.2386 37.0538L68.3165 35.6843L66.5737 34.3129L66.18 32.3932Z" fill="#052B65"/><path fill-rule="evenodd" clip-rule="evenodd" d="M66.4397 31.8898L66.8958 34.1139L68.9997 35.7694L65.1521 37.4814L63.6254 35.8531L63.1094 33.2418L63.4522 33.1721C63.4506 33.1725 63.4498 33.1725 63.4498 33.1725C63.4496 33.1721 63.4699 33.1658 63.5238 33.1453C63.5818 33.1231 63.66 33.0918 63.7547 33.0529C63.9439 32.9752 64.1918 32.8702 64.4621 32.7542C65.0023 32.5224 65.6264 32.249 66.0364 32.0679L66.4397 31.8898ZM63.9342 33.7477L64.2836 35.5154L65.325 36.6261L67.6333 35.5991L66.2515 34.5118L65.9202 32.896C65.557 33.0554 65.1287 33.242 64.7425 33.4077C64.4711 33.5242 64.2192 33.6309 64.0249 33.7107C63.9933 33.7237 63.963 33.736 63.9342 33.7477Z" fill="#052B65"/><path d="M36.3906 18.4689C30.0864 18.3263 24.9096 21.1518 24.8276 24.7798C24.7456 28.4078 29.7894 31.4643 36.0936 31.6068C42.3978 31.7493 47.5745 28.9239 47.6565 25.2959C47.7386 21.6679 42.6945 18.6114 36.3906 18.4689Z" fill="#CAE9FF"/><path d="M53.2043 3.63122C52.9298 1.28459 44.9751 2.77394 43.9422 2.9274C43.8892 2.9352 43.8409 2.88906 43.8529 2.83698C43.9694 2.31516 44.0772 0.89966 43.0797 0.570116C42.4419 0.359319 42.0104 0.711928 41.7507 1.0717C41.6345 1.23311 41.2817 1.93419 41.0615 2.42145C40.9427 2.68454 40.6714 3.06682 40.3829 3.05332C39.1809 2.64937 37.9693 2.43353 36.7537 2.40605C35.5379 2.37856 34.3178 2.53943 33.0987 2.88865C32.8099 2.8891 32.5559 2.49494 32.4491 2.22675C32.2511 1.73004 31.9304 1.01373 31.8216 0.847231C31.5787 0.476098 31.1636 0.104349 30.5169 0.286107C29.5055 0.570236 29.5489 1.98916 29.642 2.51572C29.6514 2.56828 29.6011 2.61219 29.5487 2.60201C28.5238 2.40203 20.6446 0.554717 20.264 2.88654C19.9031 5.09831 22.6416 8.22167 25.5483 9.66328C25.8289 9.80246 26.0494 10.0319 26.3208 10.1874C26.7775 10.4493 27.0391 11.0833 26.9586 11.6479L26.7739 19.8188L27.8604 19.2281C29.5165 18.3291 31.233 17.9296 32.5526 17.6995L32.5992 17.7005C33.6542 17.4915 34.7285 17.3961 35.804 17.4153L37.0239 17.4429C38.0989 17.4723 39.1679 17.6162 40.2126 17.8726L40.2589 17.8737C41.567 18.1633 43.2635 18.6399 44.8777 19.6128L45.9364 20.252L46.1212 12.0811C46.066 11.5134 46.3558 10.892 46.8238 10.6509C47.1025 10.5078 47.3326 10.2886 47.6192 10.1622C50.5881 8.85345 53.4652 5.85705 53.2043 3.63122Z" fill="#CAE9FF"/><path d="M42.3964 26.0214C43.5404 26.6119 44.6306 26.0719 44.8662 24.7969C45.1234 23.4311 43.3488 20.131 42.8679 22.5852C42.3868 25.0392 40.5721 21.5513 40.5257 23.0929C40.5605 24.3392 41.2795 25.4649 42.3964 26.0214Z" fill="#052B65" fill-opacity="0.2"/><path d="M28.3308 24.423C28.5085 25.7074 29.5733 26.296 30.7431 25.7579C31.8837 25.2525 32.6528 24.1603 32.7442 22.9169C32.7675 21.3748 30.7968 24.7771 30.4273 22.3039C30.0575 19.8304 28.1353 23.0469 28.3308 24.423Z" fill="#052B65" fill-opacity="0.2"/><path fill-rule="evenodd" clip-rule="evenodd" d="M39.042 10.7324C39.0237 10.7478 39.0175 10.7565 39.0175 10.7565L39.0176 10.7564C38.8702 10.9728 38.5753 11.0288 38.3589 10.8814C38.1424 10.734 38.0865 10.4391 38.2339 10.2227C38.4449 9.91287 38.8414 9.73219 39.209 9.629C39.6045 9.51801 40.0816 9.46456 40.578 9.48636C41.5593 9.52946 42.7187 9.87434 43.472 10.7928C43.638 10.9953 43.6085 11.294 43.406 11.46C43.2036 11.626 42.9049 11.5965 42.7388 11.3941C42.2179 10.7588 41.3634 10.4699 40.5364 10.4336C40.1286 10.4157 39.753 10.4611 39.4652 10.5419C39.3214 10.5823 39.2089 10.6288 39.1287 10.6741C39.089 10.6965 39.0609 10.7165 39.042 10.7324ZM34.9247 9.87971C35.0694 9.94671 35.2413 10.047 35.3592 10.1998C35.5192 10.4071 35.4809 10.7048 35.2737 10.8648C35.0706 11.0216 34.7805 10.988 34.6184 10.7914C34.615 10.7893 34.5903 10.7697 34.5264 10.7401C34.4411 10.7006 34.3192 10.6586 34.1639 10.6212C33.854 10.5465 33.4502 10.4995 33.0219 10.5107C32.1362 10.5338 31.304 10.7966 30.8886 11.3712C30.7352 11.5834 30.4388 11.631 30.2266 11.4776C30.0145 11.3242 29.9668 11.0279 30.1202 10.8157C30.7983 9.87762 32.0129 9.58853 32.9972 9.56286C33.5038 9.54965 33.9908 9.60412 34.3861 9.69941C34.5834 9.74696 34.7678 9.80706 34.9247 9.87971Z" fill="#052B65"/></svg>