<svg fill="none" height="14" viewBox="0 0 14 14" width="14" xmlns="http://www.w3.org/2000/svg"><path d="m6.66602 13.1667c-3.58995 0-6.500004-2.91-6.500004-6.49995s2.910054-6.500002 6.500004-6.500002c3.58998 0 6.49998 2.910052 6.49998 6.500002s-2.91 6.49995-6.49998 6.49995zm0-3.89995c.68956 0 1.35088-.27393 1.83847-.76152.4876-.4876.76153-1.14892.76153-1.83848 0-.68957-.27393-1.35089-.76153-1.83848-.48759-.48759-1.14891-.76152-1.83847-.76152-.68957 0-1.35089.27393-1.83848.76152-.4876.48759-.76152 1.14891-.76152 1.83848 0 .68956.27392 1.35088.76152 1.83848.48759.48759 1.14891.76152 1.83848.76152z" fill="#43758c"/></svg>