<svg width="21" height="17" viewBox="0 0 21 17" fill="none" xmlns="http://www.w3.org/2000/svg">
<path d="M20.5487 0.00939236C19.6543 0.640311 18.664 1.12286 17.6159 1.43846C17.0533 0.791655 16.3057 0.333214 15.4742 0.125144C14.6426 -0.0829272 13.7672 -0.0305884 12.9663 0.275081C12.1655 0.580751 11.4778 1.125 10.9964 1.83423C10.5149 2.54346 10.2629 3.38344 10.2744 4.24056V5.1746C8.63293 5.21716 7.00644 4.85312 5.53976 4.11489C4.07308 3.37666 2.81174 2.28716 1.86807 0.943426C1.86807 0.943426 -1.86807 9.34973 6.53823 13.0859C4.61462 14.3916 2.32309 15.0463 0 14.9539C8.4063 19.6241 18.6807 14.9539 18.6807 4.21254C18.6798 3.95237 18.6548 3.69284 18.6059 3.4373C19.5592 2.49718 20.2319 1.31023 20.5487 0.00939236Z" fill="#C5D9ED"/>
</svg>
