<svg fill="none" height="300" viewBox="0 0 800 300" width="800" xmlns="http://www.w3.org/2000/svg" xmlns:xlink="http://www.w3.org/1999/xlink"><clipPath id="a"><path d="m0 0h800v300h-800z"/></clipPath><g clip-path="url(#a)"><path d="m0 0h800v300h-800z" fill="#f0dede"/><path d="m-60.2969 158h182.9069c32.268 0 63.343 12.173 86.992 34.079l111.101 107.921h-380.9999z" fill="#fff8f7"/><path d="m27.7031 133 9 25h-18z" fill="#fff8f7"/><path d="m-387 232h464.4752c28.8988 0 56.9518 9.763 79.6238 27.709l50.901 40.291h-595z" fill="#000"/><g fill="#fff8f7"><path d="m176.555 105h4.667l1.167 127h-7z"/><path d="m181.256 55h2.185l4.565 40.1698c.518 4.5606-2.337 8.8272-6.75 10.0882z"/><path d="m137.732 130.387-1.092-1.893 32.506-24.038c3.69-2.729 8.813-2.39 12.111.802z"/><path d="m224.779 130.387-1.092 1.892-37.071-16.132c-4.208-1.831-6.476-6.437-5.361-10.889z"/><path d="m70.7031 106-16 44h32z"/><path d="m92.7031 114-16 44h31.9999z"/><path d="m0 0h4v8h-4z" transform="matrix(-1 0 0 1 72.7031 150)"/></g><g fill="#000"><path d="m121 299.859v-14l10 14z"/><path d="m113 299.859v-14l10 14z"/><path d="m53 180-16 44h32z"/><path d="m0 0h4v8h-4z" transform="matrix(-1 0 0 1 55 224)"/><path d="m427 300v-14l10 14z"/><path d="m419 300v-14l10 14z"/><path d="m411 300v-14l10 14z"/><path d="m729 224h139v76h-139z"/></g><path d="m680 257 49-33 49 33v43h-98z" fill="#fff8f7"/><path d="m700 273h58v28h-58z" fill="#000"/><path d="m620 219c0-14.912 12.088-27 27-27s27 12.088 27 27v81h-54z" fill="#fff8f7"/></g></svg>