<svg fill="none" height="300" viewBox="0 0 375 300" width="375" xmlns="http://www.w3.org/2000/svg" xmlns:xlink="http://www.w3.org/1999/xlink"><clipPath id="a"><path d="m0 0h375v300h-375z"/></clipPath><g clip-path="url(#a)"><path d="m0 0h375v300h-375z" fill="#f0dede"/><path d="m-299 265h302.70068c14.59292 0 28.75032 4.973 40.13782 14.098l26.126 20.937h-368.9645z" fill="#2c2f6f"/><g fill="#fff8f7"><path d="m-248 158h182.9064c32.2681 0 63.3432 12.173 86.9929 34.079l111.1007 107.921h-381z"/><path d="m55.5553 111h4.6667l1.1667 127h-7z"/><path d="m60.2559 61h2.1851l4.5647 40.17c.5183 4.56-2.3365 8.827-6.7498 10.088z"/><path d="m16.7324 136.387-1.0925-1.893 32.5057-24.038c3.6904-2.729 8.813-2.39 12.1116.802z"/><path d="m103.779 136.387-1.092 1.892-37.0707-16.132c-4.2087-1.831-6.4764-6.437-5.3618-10.889z"/></g><g fill="#000"><path d="m184 300v-14l10 14z"/><path d="m176 300v-14l10 14z"/><path d="m168 300v-14l10 14z"/></g><path d="m344 219c0-14.912 12.088-27 27-27s27 12.088 27 27v81h-54z" fill="#fff8f7"/><path d="m-315 265h302.7007c14.59294 0 28.7503 4.973 40.1378 14.098l26.126 20.937h-368.9645z" fill="#000"/></g></svg>