<svg xmlns="http://www.w3.org/2000/svg" fill="none" viewBox="0 0 528 682"><path fill="#f2cd16" fill-opacity=".4" d="m292.634 61.996-51.082 15.716L209 681.996h312z"/><path fill="#504444" d="m328.821 41.64-16.516-10.253a26.44 26.44 0 0 0-18.985-3.493l-32.616 6.332 3.861 19.888z"/><path fill="#504444" d="m200.309 66.593 11.481-15.69a26.44 26.44 0 0 1 16.299-10.341l32.616-6.332 3.86 19.89z"/><path fill="#23191a" d="m200.308 66.595 16.516 10.254a26.44 26.44 0 0 0 18.985 3.493l32.615-6.331h.001l32.615-6.33a26.44 26.44 0 0 0 16.299-10.342l11.481-15.69-64.256 12.474v-.001z"/><path fill="#f2cd16" d="M280.488 16.397c-3.935-10.972-15.286-17.431-26.729-15.21s-19.552 12.458-19.097 24.105l.544 13.894 49.977-9.702z"/><path fill="#fff8f7" d="m516.245 535.241 2.755-6.245 2.755 6.245 6.245 2.755-6.245 2.755-2.755 6.245-2.755-6.245-6.245-2.755zM425.184 52.18 431 38.996l5.816 13.183L450 57.997l-13.184 5.816L431 76.996l-5.816-13.184L412 57.996zM7.633 461.629 11 453.996l3.367 7.633L22 464.996l-7.633 3.367L11 475.996l-3.367-7.633L0 464.996z"/></svg>