<svg width="166" height="166" xmlns="http://www.w3.org/2000/svg">
  <g>
    <title>Layer 1</title>
    <g id="svg_3">
      <rect id="svg_4" width="166" height="166" rx="16" fill="#ffffff" y="0" x="0"/>
      <g id="svg_1" fill="none" fill-rule="evenodd" stroke="null">
        <path d="m53.11382,58.63842l0,-8.83496c0,-17.04132 13.81472,-30.85604 30.85604,-30.85604c17.04132,0 30.85604,13.81472 30.85604,30.85604l0,8.83496l12.91042,0l0,67.68291l-43.38077,20.67867l-44.35556,-20.67867l0,-67.68291l13.11382,0l0.00001,0zm15.42802,0l30.85604,0l0,-8.83496l-0.02481,0c-0.45727,-8.17197 -7.17869,-14.65662 -15.40321,-14.65662c-8.22452,0 -14.94594,6.48465 -15.40321,14.65662l-0.02481,0l0,8.83496zm-10.79962,15.84988l0,40.88426l26.12594,12.31681l26.32934,-12.31681l0,-40.88426l-52.45528,0z" id="svg_2" fill="currentColor" stroke="null"/>
      </g>
    </g>
  </g>
</svg>
