<svg height="1152pt" preserveAspectRatio="xMidYMid meet" viewBox="0 0 1152 1152" width="1152pt" xmlns="http://www.w3.org/2000/svg"><path d="m1092 9328c318-478 828-1249 828-1254 0-2-432-4-960-4-761 0-960-3-960-12 0-7 22-83 49-168 201-632 269-845 336-1055 127-402 156-487 197-570 179-360 501-610 898-697 82-18 142-22 444-27l348-6 13-40c8-22 60-184 115-360 56-176 148-466 205-645s137-431 178-560 121-379 177-555c187-589 201-629 255-741 172-354 486-600 884-690l106-24h1551c1500 0 1555 1 1645 19 322 67 596 241 787 499 122 164 150 237 402 1032 107 337 267 839 562 1765 44 138 83 261 87 275l7 25 350 6c302 5 362 9 444 27 337 74 638 278 816 553 81 125 132 250 243 600 100 312 213 669 367 1154 30 94 54 176 54 183 0 9-199 12-960 12-528 0-960 2-960 4 0 5 601 913 878 1329l132 197h-4850-4850zm3434-2307c290-55 520-324 553-644 36-360-161-684-481-791-106-36-203-43-309-22-335 67-569 367-569 731 0 206 71 384 209 528 99 103 219 174 335 197 58 11 204 12 262 1zm2739-5c124-30 223-86 320-185 139-141 215-329 215-536 0-364-234-664-569-731-296-58-608 120-734 422-89 211-80 457 23 664 95 190 290 341 480 373 59 10 210 6 265-7z" transform="matrix(.1 0 0 -.1 0 1152)"/></svg>