<svg width="208" height="50" fill="none" xmlns="http://www.w3.org/2000/svg"><path d="M73.303 16.714l-5.79 7.101c-1.192-1.255-2.235-2.06-3.129-2.41-.893-.352-1.666-.436-2.316-.25-.65.186-1.197.573-1.636 1.156a8.724 8.724 0 00-1.059 1.784c-.264.606-.508 1.393-.728 2.363 0 .045.051.33.15.859.1.528.331 1.117.695 1.768a3.32 3.32 0 001.556 1.436c.673.309 1.588.264 2.746-.132 1.158-.397 2.587-1.376 4.283-2.94l6.452 6.87c-.33.64-.905 1.288-1.72 1.95-.816.66-1.787 1.266-2.912 1.816a21.007 21.007 0 01-3.706 1.372c-1.344.364-2.719.574-4.12.628a14.217 14.217 0 01-4.137-.445 10.399 10.399 0 01-3.754-1.85c-1.654-1.276-2.878-2.687-3.672-4.227-.794-1.54-1.27-3.126-1.423-4.757a14.47 14.47 0 01.38-4.889c.408-1.63.98-3.159 1.72-4.59.74-1.433 1.609-2.721 2.614-3.865 1.004-1.144 2.024-2.06 3.059-2.742.88-.484 1.708-.84 2.481-1.072.773-.231 1.681-.396 2.731-.495 1.047-.1 2.184 0 3.408.297 1.224.297 2.503.853 3.838 1.67 1.336.807 2.665 2.008 3.989 3.594z" fill="#000"/><path d="M94.909 27.614c.22 1.52.15 2.934-.214 4.243-.364 1.31-.947 2.465-1.754 3.468-.806 1.003-1.807 1.829-3.01 2.478-1.204.648-2.542 1.072-4.019 1.27-1.477.198-2.89.153-4.235-.132-1.345-.286-2.548-.8-3.607-1.538a9.37 9.37 0 01-2.647-2.84c-.707-1.157-1.158-2.496-1.356-4.012-.22-1.52-.15-2.934.213-4.246a9.685 9.685 0 011.754-3.483 9.7 9.7 0 013.01-2.496c1.204-.649 2.543-1.072 4.023-1.27 1.476-.198 2.884-.153 4.217.132a9.772 9.772 0 013.591 1.538c1.059.738 1.94 1.69 2.647 2.858.704 1.168 1.167 2.51 1.387 4.03zm-13.897 2.808c.376.858.972 1.42 1.787 1.684s1.741.177 2.78-.264c1.013-.441 1.714-1.042 2.102-1.802.385-.76.403-1.57.05-2.426-.375-.838-.97-1.393-1.786-1.67-.815-.276-1.732-.192-2.746.25-1.038.441-1.748 1.045-2.133 1.816-.39.772-.406 1.574-.054 2.412zM103.28 28.175l1.886-8.555 5.194-.396 1.952 9.05h.067l1.952-9.347 7.213.594-5.096 19.06-6.849.528-1.853-9.216h-.066l-1.886 8.687-6.783.562-5.161-19.62 7.411-.595 1.952 9.248h.067z" fill="#000"/><path d="M134.745 22.395c.683.31 1.384.66 2.103 1.057.716.396 1.369.88 1.952 1.453a7.25 7.25 0 011.456 2.066c.385.805.601 1.757.644 2.856.066 1.564-.187 2.946-.761 4.147a8.484 8.484 0 01-2.431 3.039c-1.047.826-2.298 1.465-3.754 1.916-1.456.45-3.023.711-4.698.774a16.076 16.076 0 01-2.382-.114c-.815-.099-1.622-.249-2.416-.447a23.05 23.05 0 01-2.316-.709 27.275 27.275 0 01-2.117-.877l2.514-7.068a28.6 28.6 0 011.191.513c.464.21.96.402 1.489.577.53.177 1.08.33 1.655.462a6.406 6.406 0 001.687.165c.815-.045 1.507-.186 2.07-.43.562-.242.833-.648.812-1.221-.021-.376-.214-.66-.578-.86-.364-.197-.8-.395-1.305-.594-.331-.087-.767-.21-1.309-.363a15.666 15.666 0 01-3.603-1.585 8.492 8.492 0 01-1.721-1.355 7.093 7.093 0 01-1.29-1.831c-.343-.694-.523-1.493-.545-2.397-.045-1.54.22-2.912.795-4.11a9.197 9.197 0 012.349-3.072c.992-.847 2.15-1.499 3.474-1.95a15.137 15.137 0 014.235-.777c1.39-.066 2.767.006 4.136.216 1.368.21 2.647.556 3.838 1.04l-1.952 7.63a39.99 39.99 0 00-2.415-.944c-.728-.252-1.577-.444-2.548-.576a7.862 7.862 0 00-1.158-.066c-.463 0-.921.05-1.375.15-.451.1-.842.258-1.176.48-.331.22-.508.529-.529.925 0 .177.084.316.249.415.166.099.364.177.596.23.231.055.469.1.71.133l.595.081c.641.132 1.324.285 2.052.463.607.129 1.203.315 1.777.558z" fill="#000"/><path d="M148.907 28.175l1.886-8.555 5.194-.396 1.952 9.05h.067l1.952-9.347 7.213.594-5.096 19.06-6.849.528-1.853-9.216h-.066l-1.886 8.687-6.783.562-5.161-19.62 7.411-.595 1.952 9.248h.067zM177.957 36.73h-.066c-.596.838-1.351 1.42-2.268 1.751a8.663 8.663 0 01-2.96.496 6.65 6.65 0 01-2.515-.48 6.166 6.166 0 01-2.084-1.37 6.608 6.608 0 01-1.423-2.147c-.352-.838-.529-1.772-.529-2.808 0-.904.177-1.732.529-2.492.352-.76.833-1.42 1.441-1.982a6.646 6.646 0 012.151-1.321 7.444 7.444 0 012.695-.48c1.013 0 1.868.15 2.565.444.695.297 1.285.633 1.769 1.006v-.991c0-1.012-.331-1.685-.992-2.015-.662-.33-1.522-.496-2.581-.496-.972 0-1.874.1-2.713.298-.84.198-1.688.43-2.548.693l1.29-5.252a19.053 19.053 0 013.309-.645c1.146-.12 2.316-.18 3.507-.18 1.08 0 2.139.126 3.177.378 1.037.252 1.946.667 2.731 1.237a6.214 6.214 0 011.868 2.213c.463.904.682 2.015.661 3.336l-.364 12.486-6.65.562v-2.24zm-4.202-6.11c-.749.11-1.369.37-1.853.774-.484.409-.695.865-.629 1.37.088.507.403.886.942 1.14.541.253 1.239.313 2.102.181.861-.132 1.501-.408 1.919-.826.419-.417.584-.87.497-1.354-.066-.417-.349-.775-.845-1.075-.497-.291-1.207-.363-2.133-.21zM194.269 19.224v2.246c.707-.771 1.441-1.339 2.202-1.702.761-.364 1.669-.544 2.728-.544 1.323 0 2.533.291 3.621.874a8.882 8.882 0 012.78 2.297 10.71 10.71 0 011.768 3.222c.418 1.201.629 2.417.629 3.652 0 1.32-.22 2.591-.662 3.816a10.487 10.487 0 01-1.868 3.252 9.355 9.355 0 01-2.893 2.28c-1.125.573-2.361.858-3.706.858-.683 0-1.417-.099-2.202-.297a4.626 4.626 0 01-2.099-1.19l.198 6.574-6.981.595-.364-25.338 6.849-.595zm4.5 12.783c.992-.462 1.66-1.11 2.003-1.949.343-.837.337-1.618-.018-2.345-.352-.748-.954-1.25-1.802-1.504-.848-.253-1.771-.148-2.764.312-1.014.483-1.7 1.141-2.051 1.967-.352.826-.343 1.612.033 2.36.177.375.418.688.728.943.309.252.667.435 1.076.543.409.111.849.145 1.324.1a4.298 4.298 0 001.471-.427z" fill="#000"/><path d="M25.152 31.527c-1.51-.298-2.373-.475-4.767-.484h-.162c-2.395.01-3.258.183-4.768.484-3.291.648-6.374 1.795-8.726 4.339-1.907 2.06-2.443 4.633-1.237 6.78.816 1.456 1.865 2.787 3.363 3.685 2.695 1.615 5.607 2.402 8.73 2.78.917.111 1.822.15 2.718.135.9.015 1.805-.024 2.72-.135 3.125-.381 6.033-1.165 8.729-2.78 1.497-.898 2.547-2.229 3.362-3.685 1.204-2.147.668-4.723-1.236-6.78-2.352-2.544-5.435-3.688-8.726-4.34z" fill="#B0B6C1"/><path d="M19.918 50c-.836 0-1.639-.048-2.427-.144-3.61-.439-6.479-1.354-9.027-2.883-1.432-.859-2.62-2.153-3.633-3.96-1.339-2.385-.824-5.319 1.341-7.658 2.804-3.027 6.554-4.057 9.132-4.564l.057-.012c1.342-.264 2.211-.436 4.106-.477v-.01H21.134v.01c1.895.038 2.76.213 4.105.477l.058.012c2.577.51 6.328 1.537 9.131 4.564 2.166 2.34 2.68 5.273 1.342 7.657-1.014 1.808-2.202 3.102-3.634 3.961-2.547 1.529-5.417 2.444-9.026 2.883a20.45 20.45 0 01-2.825.141c-.12.003-.243.003-.367.003zm.373-1.504c.948.015 1.805-.027 2.641-.13 3.393-.414 6.073-1.264 8.434-2.681 1.2-.72 2.214-1.835 3.096-3.405 1.022-1.826.598-4.033-1.134-5.907-1.934-2.087-4.5-3.357-8.32-4.11l-.057-.013c-1.468-.291-2.277-.45-4.57-.456h-.159c-2.292.006-3.098.168-4.566.456l-.057.012c-3.82.754-6.386 2.024-8.32 4.111-1.732 1.871-2.157 4.081-1.134 5.907.881 1.57 1.892 2.687 3.095 3.405 2.361 1.414 5.042 2.267 8.434 2.681.834.103 1.688.145 2.617.13z" fill="#000"/><path d="M24.575 32.268c-1.357-.225-2.133-.36-4.28-.366h-.145c-2.15.006-2.924.138-4.28.366-2.954.493-5.721 1.36-7.836 3.282-1.711 1.559-2.193 3.508-1.11 5.132.734 1.102 1.676 2.108 3.02 2.787 2.421 1.222 5.032 1.817 7.839 2.105.824.084 1.636.114 2.442.102a20.9 20.9 0 002.442-.102c2.807-.288 5.418-.883 7.84-2.105 1.344-.679 2.285-1.685 3.019-2.787 1.083-1.624.602-3.573-1.11-5.132-2.117-1.924-4.888-2.79-7.841-3.282z" fill="#fff"/><path d="M14.275 40.995c-1.335.651-2.577-.021-2.818-1.475-.259-1.585 1.874-5.342 2.361-2.498.488 2.843 2.677-1.135 2.69.645-.112 1.37-.777 2.616-2.233 3.328zM25.928 40.995c1.336.651 2.578-.021 2.819-1.475.258-1.585-1.874-5.342-2.362-2.498-.49 2.843-2.677-1.135-2.689.645.112 1.37.776 2.616 2.232 3.328z" fill="#000"/><path d="M37.767 11.615c-1.57-.045-3.146.19-4.72.315-.309.024-.613.117-1.085.21.207-2.189 0-4.252-.98-6.173-.972-1.901-2.368-3.379-4.425-4.27.192.288.39.573.574.867 2.238 3.619 2.304 7.267.187 10.967-.391.681-.75.732-1.51.441A17.566 17.566 0 0024 13.387a15.256 15.256 0 00-3.61-.51v-.007c-.027 0-.054.003-.08.003-.028 0-.055-.003-.082-.003v.006c-1.808.033-3.618.402-5.42 1.096-.761.291-1.12.243-1.51-.441-2.12-3.7-2.055-7.348.186-10.967.184-.294.382-.58.575-.867-2.06.891-3.456 2.369-4.425 4.27-.98 1.921-1.19 3.981-.98 6.173-.473-.093-.776-.186-1.086-.21-1.573-.123-3.152-.36-4.72-.315-2.283.066-2.511.525-1.549 2.64 1.531 3.38 3.908 5.987 7.334 7.53.73.33.962.745.953 1.517-.039 2.985-.015 5.973-.015 8.96v1.258c3.604-1.519 7.171-2.279 10.732-2.276 3.562-.003 7.13.754 10.733 2.276v-1.258c0-2.988.024-5.972-.016-8.96-.008-.772.223-1.186.954-1.517 3.426-1.543 5.802-4.15 7.342-7.53.963-2.115.734-2.574-1.549-2.64z" fill="#fff"/><path d="M31.788 34.653l-1.044-.442c-3.486-1.471-6.99-2.216-10.407-2.216h-.06c-3.424 0-6.925.745-10.41 2.216l-1.045.442v-2.39c0-.808-.003-1.616-.003-2.427-.006-2.144-.009-4.36.018-6.543.006-.496-.075-.625-.51-.823-3.442-1.55-6.038-4.21-7.722-7.906C.13 13.519-.258 12.519.22 11.75c.475-.763 1.543-.856 2.596-.886 1.176-.036 2.349.081 3.483.195.439.045.878.088 1.317.123.072.006.142.015.21.024-.074-2.122.299-3.954 1.126-5.579 1.122-2.195 2.692-3.705 4.797-4.618L16.081 0l-1.405 2.111-.19.282c-.126.186-.252.373-.37.565-2.102 3.396-2.16 6.732-.171 10.2.114.199.174.24.177.24-.012-.008.088-.002.412-.128 1.646-.631 3.303-1.006 4.94-1.115v-.036h.754l.07.003.842-.006v.04c1.014.066 2.036.237 3.05.504.625.165 1.26.37 1.886.61.298.114.406.12.433.12-.003-.006.057-.06.153-.232 1.989-3.465 1.931-6.801-.171-10.2-.117-.192-.244-.379-.37-.565-.063-.093-.126-.189-.19-.282L24.527 0l2.328 1.009c2.105.913 3.675 2.423 4.797 4.615.83 1.622 1.2 3.457 1.125 5.58.07-.01.139-.019.21-.024.44-.037.88-.079 1.318-.124 1.134-.11 2.31-.228 3.484-.195 1.052.03 2.12.126 2.595.886.479.769.09 1.769-.385 2.814-1.684 3.696-4.28 6.357-7.718 7.903-.436.195-.514.327-.508.823.027 2.183.024 4.399.018 6.543-.003.808-.003 1.616-.003 2.426v2.397zM1.504 12.549c-.009.114.036.444.47 1.393 1.527 3.354 3.874 5.762 6.969 7.159.977.441 1.407 1.123 1.395 2.21a429.574 429.574 0 00-.018 6.522c.003.81.003 1.619.003 2.43v.147c3.33-1.27 6.672-1.916 9.95-1.916h.064c3.275 0 6.617.642 9.947 1.916v-.148c0-.81.003-1.618.003-2.429.006-2.138.009-4.351-.018-6.522-.012-1.087.415-1.769 1.396-2.21 3.095-1.396 5.438-3.805 6.969-7.159.433-.949.478-1.282.469-1.393-.087-.051-.382-.156-1.357-.183-1.076-.033-2.153.075-3.29.186-.448.045-.9.09-1.348.126-.15.012-.322.051-.544.102l-.454.1-.993.197.096-1.006c.22-2.297-.069-4.126-.902-5.76a8.982 8.982 0 00-1.537-2.188c1.338 3.23 1.068 6.513-.806 9.786-.704 1.228-1.625 1.078-2.434.769a17.02 17.02 0 00-1.73-.562 14.489 14.489 0 00-3.431-.486h-.139c-1.696.03-3.435.381-5.164 1.045-.81.31-1.73.462-2.434-.769-1.877-3.273-2.144-6.555-.806-9.786a9.038 9.038 0 00-1.537 2.189c-.833 1.633-1.122 3.465-.902 5.76l.096 1.005-.992-.198a10.186 10.186 0 01-.455-.099 3.962 3.962 0 00-.544-.102c-.448-.036-.9-.081-1.348-.126-1.137-.114-2.213-.22-3.29-.186-.972.03-1.27.135-1.354.186z" fill="#000"/><path d="M15.262 26.035a2.046 2.046 0 01-1.465-.616 2.03 2.03 0 01-.601-1.466 1.98 1.98 0 01.625-1.39 2.071 2.071 0 011.441-.573c.557.003 1.537.228 2.376.594.84.367 1.54.871 1.54 1.43-.003.555-.706 1.06-1.546 1.423-.839.363-1.822.591-2.37.598z" fill="#FAD951"/><path d="M15.244 26.785c-.728 0-1.45-.306-1.98-.84a2.788 2.788 0 01-.82-2.01 2.712 2.712 0 01.857-1.915 2.82 2.82 0 011.952-.781h.01c.703.003 1.777.267 2.673.658 1.648.717 1.991 1.549 1.991 2.12-.003.822-.676 1.534-1.997 2.108-.878.38-1.973.654-2.659.66h-.027zm.009-4.045c-.34 0-.665.13-.914.367-.247.234-.385.54-.391.861-.006.33.132.667.385.92.25.252.58.393.911.393h.012c.418-.003 1.287-.195 2.072-.535.825-.357 1.074-.672 1.095-.753-.018-.04-.252-.36-1.088-.724-.788-.342-1.66-.532-2.079-.532 0 .003 0 .003-.003.003z" fill="#000"/><path d="M25.341 26.035c-1.097-.012-3.907-.91-3.913-2.024-.003-1.117 2.8-2.021 3.913-2.024 1.11-.003 2.043.88 2.064 1.964.03 1.12-.939 2.096-2.064 2.084z" fill="#FAD951"/><path d="M25.363 26.785h-.027c-1.083-.012-4.65-.898-4.657-2.771-.003-.571.343-1.403 1.992-2.12.896-.39 1.973-.655 2.674-.658h.009c1.518 0 2.779 1.207 2.809 2.697a2.79 2.79 0 01-.818 2.005 2.806 2.806 0 01-1.982.847zm-.012-1.501c.324.009.67-.141.923-.397.25-.252.391-.588.385-.919-.015-.666-.614-1.228-1.308-1.228h-.003c-1.113.003-3.056.856-3.168 1.283.123.432 2.139 1.252 3.17 1.26zM4.545 14.227l5.715 1.325s-3.032 1.537-4.22.651c-2.388-1.78-1.495-1.976-1.495-1.976zM36.272 14.227l-5.715 1.325s3.032 1.537 4.22.651c2.389-1.78 1.495-1.976 1.495-1.976z" fill="#000"/><path d="M13.283 14.789c1.026-.775 7.195-1.354 7.195-1.354s7.838.852 6.915 1.354c-.86.468-7.054-.652-7.054-.652s-8.079 1.424-7.056.652z" fill="#B0B6C1"/></svg>