<svg fill="none" height="18" viewBox="0 0 18 18" width="18" xmlns="http://www.w3.org/2000/svg"><g fill="#052b65"><path d="m16.6146 15.021-5.615-8.021h-2.00002-2l-5.615 8.021c-.583002.834.013 1.979 1.03 1.979h6.585 6.58502c1.017 0 1.613-1.145 1.03-1.979z" opacity=".3"/><path d="m7.5 12c-.39782 0-.77936.158-1.06066.4393s-.43934.6629-.43934 1.0607.15804.7794.43934 1.0607.66284.4393 1.06066.4393.77936-.158 1.06066-.4393.43934-.6629.43934-1.0607-.15804-.7794-.43934-1.0607-.66284-.4393-1.06066-.4393zm2.5-2c-.26522 0-.51957.1054-.70711.2929-.18753.1875-.29289.4419-.29289.7071s.10536.5196.29289.7071c.18754.1875.44189.2929.70711.2929.2652 0 .5196-.1054.7071-.2929s.2929-.4419.2929-.7071-.1054-.5196-.2929-.7071-.4419-.2929-.7071-.2929zm-5-10h8v2h-8z"/><path d="m17.569 14.774-5.569-7.774v-7h-6v7l-5.569 7.774c-.266.339-.431.761-.431 1.226 0 1.105.895 2 2 2h14c1.105 0 2-.895 2-2 0-.465-.165-.887-.431-1.226zm-15.563 1.233.026-.034.025-.035 5.943-8.296v-5.642h2v5.642l5.943 8.296.03.028.027.034z"/><path d="m7 6h4v2h-4z"/></g></svg>