<svg width="75" height="76" viewBox="0 0 75 76" fill="none" xmlns="http://www.w3.org/2000/svg">
<g clip-path="url(#clip0_2998:177)">
<path d="M48.5505 25.0132C48.5505 25.0132 57.2462 28.5751 57.689 28.535C58.1318 28.495 55.4346 24.5329 54.4281 22.3318C58.0361 23.1871 61.8116 23.0347 65.3379 21.8915C59.47 20.168 54.2547 16.7394 50.3621 12.0464C50.3244 12.0286 50.2831 12.0193 50.2413 12.0193C50.1995 12.0193 50.1583 12.0286 50.1205 12.0464C50.1205 12.0464 42.5521 21.0511 41.1431 19.5703C39.7341 18.0896 40.1769 9.08481 40.1769 8.92473C40.1769 8.76464 36.1512 12.9268 35.507 13.247C34.8629 13.5672 35.507 7.84416 35.507 7.84416C35.507 7.84416 30.2735 15.4482 28.462 13.6872C26.6504 11.9263 28.4619 4.32231 29.9515 0.0800781C25.9257 1.60088 5.79688 1.04057 5.79688 0.960531C5.79688 0.880489 14.7341 2.68144 17.3106 5.643C19.8871 8.60456 13.7679 14.5677 13.7679 14.5677C13.7679 14.5677 19.7663 14.1675 20.974 15.168C22.1818 16.1685 20.0883 17.7694 18.478 21.5314C19.623 20.8106 20.9204 20.3633 22.2684 20.2244C23.6164 20.0856 24.9784 20.2589 26.2478 20.7309C27.1737 21.7315 26.6101 24.7331 24.7583 33.3776C33.1721 23.8126 34.7019 24.9732 36.2719 26.0137C37.842 27.0543 38.8082 32.5772 39.09 32.5772C39.3718 32.5772 43.317 26.9342 43.317 26.9342C45.2492 29.0364 47.3642 30.9649 49.6375 32.6972C49.535 30.1062 49.1708 27.5319 48.5505 25.0132V25.0132Z" fill="black"/>
<path d="M0 47.9052C2.12942 48.4841 4.11634 49.4922 5.83735 50.8667C7.12559 52.4275 3.86476 54.8688 3.86476 54.8688C5.13435 54.9068 6.3876 55.1641 7.56846 55.6292C8.17232 56.1895 7.08538 56.7898 6.19971 58.4707C6.83128 58.183 7.51785 58.034 8.21259 58.034C8.90734 58.034 9.59391 58.183 10.2255 58.4707C10.6683 58.991 10.2255 60.3117 9.21904 64.3938C13.7279 60.3917 14.4928 60.992 15.2979 61.6324C16.1031 62.2727 16.5056 64.9141 16.6667 64.9141C17.46 64.1535 18.2125 63.352 18.9211 62.5129C19.8998 63.6323 20.9631 64.6758 22.1015 65.6345C22.0846 64.3927 21.9225 63.1571 21.6184 61.9526C21.6184 61.9526 26.0467 64.1937 26.2882 64.2338C25.8379 63.1456 25.3133 62.0892 24.7182 61.0721C26.5278 61.694 28.4646 61.859 30.3543 61.5523C28.79 60.8753 27.305 60.0298 25.9259 59.031C24.7568 58.1197 23.7025 57.0716 22.7858 55.9094V55.9094C22.7858 55.9094 18.7601 59.9115 17.9952 58.951C17.2303 57.9905 17.6731 53.8683 17.6731 53.7883C17.6731 53.7082 15.5797 55.3891 15.2174 55.5492C14.8551 55.7093 15.2174 52.9878 15.2174 52.9878C15.2174 52.9878 12.3994 56.2696 11.4735 55.3091C10.5475 54.3486 11.4735 50.8667 12.4799 48.9457C8.29776 48.9518 4.12268 48.6037 0 47.9052V47.9052Z" fill="black"/>
<path d="M75 74.1191C73.6454 73.0892 72.4279 71.8923 71.3768 70.5572C70.4772 69.3826 69.7205 68.1065 69.1224 66.7552V66.7552C69.1224 66.7552 64.1707 69.3966 63.7279 68.4761C63.285 67.5557 64.6941 63.4735 64.7343 63.4335C64.7746 63.3935 62.2786 64.434 61.8761 64.5141C61.4735 64.5941 62.6812 62.0328 62.6812 62.0328C62.6812 62.0328 59.0983 64.5141 58.4541 63.3134C57.81 62.1128 59.7021 59.0712 61.0709 57.4303C57.0296 56.3206 53.085 54.8886 49.2754 53.1481C51.1933 54.2558 52.8644 55.74 54.1868 57.5104C55.0322 59.3513 51.248 60.8721 51.248 60.8721C52.4618 61.2406 53.6049 61.8088 54.6297 62.553C55.0725 63.2734 53.8245 63.5536 52.5363 64.9543C53.2518 64.8433 53.9832 64.8897 54.6787 65.0902C55.3743 65.2908 56.0172 65.6405 56.562 66.1149C56.8841 66.7552 56.1997 67.9559 54.0661 71.5978C59.5008 68.8363 60.0644 69.6768 60.6683 70.4772C61.2722 71.2776 60.9904 73.959 61.1112 73.999C62.0973 73.4821 63.0517 72.9075 63.9694 72.2781C64.6066 73.6727 65.3607 75.0115 66.2238 76.2802C66.4882 75.0561 66.6365 73.81 66.6667 72.5583C66.6667 72.5583 70.3704 75.88 70.6924 75.9601C70.5496 74.7944 70.3072 73.643 69.9678 72.5183C71.4995 73.4285 73.2213 73.9762 75 74.1191V74.1191Z" fill="black"/>
</g>
<defs>
<clipPath id="clip0_2998:177">
<rect width="75" height="76" fill="white"/>
</clipPath>
</defs>
</svg>
