<svg fill="none" viewBox="0 0 190 190" xmlns="http://www.w3.org/2000/svg" xmlns:xlink="http://www.w3.org/1999/xlink"><radialGradient id="a" cx="0" cy="0" gradientTransform="matrix(190.00029921 -190.00029921 190.00029921 190.00029921 .000488 190)" gradientUnits="userSpaceOnUse" r="1"><stop offset="0" stop-color="#fed4c9"/><stop offset=".171003" stop-color="#f8dbf4"/><stop offset=".450696" stop-color="#d8dbff"/><stop offset=".656105" stop-color="#c4ddff"/><stop offset="1" stop-color="#cae9ff"/></radialGradient><circle cx="152" cy="3" fill="#fff" r="3"/><path d="m190 95c0 52.467-42.532 95-94.9995 95-52.4671 0-95.00001172-42.533-95.00001172-95 0-52.4671 42.53291172-95 95.00001172-95 52.4675 0 94.9995 42.5329 94.9995 95z" fill="url(#a)"/><path d="m36.8894 106 4.9777 8.491-17.6564 10.17-3.2107-9.411z" fill="#fff"/><path d="m153.111 106-4.978 8.491 17.657 10.17 3.21-9.411z" fill="#fff"/><g fill="#052b65"><path d="m150.684 169.494c-15.523 11.623-34.799 18.506-55.6833 18.506-20.8842 0-40.1606-6.884-55.6839-18.506l-15.1054-44.833 17.6564-10.17 17.9029 31.008 6.23-13.499h58.0003l6.23 13.498 17.902-31.007 17.657 10.17z"/><path d="m70.9995 72c0-2.2091 1.7909-4 4-4 2.2092 0 4 1.7909 4 4v4h-8z"/><path d="m119 72c0-2.2091-1.791-4-4-4s-4 1.7909-4 4v4h8z"/><path d="m41 77c0-.5523.4477-1 1-1h37v23h-20c-9.9411 0-18-8.0589-18-18z"/><path d="m149 77c0-.5523-.448-1-1-1h-37v23h20c9.941 0 18-8.0589 18-18z"/><path d="m55.0005 96.0005h79.9995l-11 35.9995h-57.9995z"/></g><path clip-rule="evenodd" d="m66.7414 95.9114c-.5477 1.9846-.7414 4.4356-.7414 6.0886h-3c0-1.825.2063-4.5917.8586-6.9549.3241-1.1742.7896-2.3673 1.481-3.2977.7123-.9585 1.7588-1.7474 3.1604-1.7474s2.4481.7889 3.1604 1.7474c.6914.9304 1.1569 2.1235 1.481 3.2977.6523 2.3632.8586 5.1299.8586 6.9549h-3c0-1.653-.1937-4.104-.7414-6.0886-.2759-.9997-.6104-1.7631-.969-2.2458-.3377-.4545-.5912-.5352-.7896-.5352s-.4519.0807-.7896.5352c-.3586.4827-.6931 1.2461-.969 2.2458z" fill="#fff" fill-rule="evenodd"/><path d="m79 76h32v35.146c0 6.547-5.307 11.854-11.8536 11.854h-8.2928c-6.5466 0-11.8536-5.307-11.8536-11.854z" fill="#fff"/><path clip-rule="evenodd" d="m123.259 95.9119c.547 1.9846.741 4.4351.741 6.0881h3c0-1.824-.206-4.5912-.859-6.9544-.324-1.1742-.789-2.3673-1.481-3.2977-.712-.9585-1.758-1.7474-3.16-1.7474s-2.448.7889-3.16 1.7474c-.692.9304-1.157 2.1235-1.481 3.2977-.653 2.3632-.859 5.1304-.859 6.9544h3c0-1.653.194-4.1035.741-6.0881.276-.9997.611-1.7632.969-2.2458.338-.4545.592-.5352.79-.5352s.452.0807.79.5352c.358.4826.693 1.2461.969 2.2458z" fill="#fff" fill-rule="evenodd"/><path d="m126.769 138h-63.538l2.7692-6h57.9998z" fill="#357833"/><path d="m90.485 14h6v12h-6z" fill="#ff83a8" transform="matrix(.70710678 .70710678 -.70710678 .70710678 36.402055 -59.882335)"/><path d="m172 88h6v12h-6z" fill="#ff83a8" transform="matrix(.8660254 .5 -.5 .8660254 67.043631 -74.210236)"/><path d="m73.361 53.657h6v12h-6z" fill="#357833" transform="matrix(.25881905 .96592583 -.96592583 .25881905 106.202874 -31.09188)"/><circle cx="137" cy="54" fill="#357833" r="4"/><path d="m21.91 99.3015c-.2487.9315-1.5703.9315-1.819 0l-1.2064-4.5189c-.3476-1.3021-1.3646-2.3191-2.6667-2.6667l-4.5189-1.2064c-.9314-.2487-.9314-1.5703 0-1.819l4.5189-1.2064c1.3021-.3476 2.3191-1.3646 2.6667-2.6667l1.2064-4.5189c.2487-.9313 1.5703-.9313 1.819 0l1.2064 4.5189c.3476 1.3021 1.3646 2.3191 2.6667 2.6667l4.5189 1.2064c.9313.2487.9313 1.5703 0 1.819l-4.5189 1.2064c-1.3021.3476-2.3191 1.3646-2.6667 2.6667z" fill="#fff" opacity=".5"/><path d="m165.455 70.6507c-.125.4657-.785.4657-.91 0l-.603-2.2594c-.174-.651-.682-1.1595-1.333-1.3333l-2.26-.6033c-.465-.1243-.465-.7851 0-.9094l2.26-.6033c.651-.1738 1.159-.6823 1.333-1.3333l.603-2.2594c.125-.4657.785-.4657.91 0l.603 2.2594c.174.651.682 1.1595 1.333 1.3333l2.26.6033c.465.1243.465.7851 0 .9094l-2.26.6033c-.651.1738-1.159.6823-1.333 1.3333z" fill="#fff" opacity=".5"/><path d="m120.182 32.4761c-.187.6985-1.178.6985-1.365 0l-.904-3.3891c-.261-.9766-1.024-1.7394-2-2.0001l-3.39-.9048c-.698-.1865-.698-1.1777 0-1.3642l3.39-.9048c.976-.2607 1.739-1.0235 2-2.0001l.904-3.3891c.187-.6985 1.178-.6985 1.365 0l.904 3.3891c.261.9766 1.024 1.7394 2 2.0001l3.39.9048c.698.1865.698 1.1777 0 1.3642l-3.39.9048c-.976.2607-1.739 1.0235-2 2.0001z" fill="#fff" opacity=".5"/><path clip-rule="evenodd" d="m95.0005 188c51.3625 0 92.9995-41.638 92.9995-93 0-51.3625-41.637-93-92.9995-93s-93.00001 41.6375-93.00001 93c0 51.362 41.63751 93 93.00001 93zm0 2c52.4675 0 94.9995-42.533 94.9995-95 0-52.4671-42.532-95-94.9995-95-52.4671 0-95.00001172 42.5329-95.00001172 95 0 52.467 42.53291172 95 95.00001172 95z" fill="#fff" fill-rule="evenodd"/><path d="m25.187 58.5117-5.6421 9.7723-19.54465378-11.2841 5.64207378-9.7724z" fill="#ff83a8"/><path clip-rule="evenodd" d="m92.9998 132h4v3.203c3.7852.777 6.8522 3.719 7.6992 7.614l3.301 15.183h-8.0006c0 2.761-2.2386 5-5 5s-5-2.239-5-5h-7.9999l3.3006-15.183c.8469-3.895 3.9145-6.838 7.6997-7.614z" fill="#ffcf56" fill-rule="evenodd"/><path d="m75 111c0-5.523 4.4772-10 10-10h20c5.523 0 10 4.477 10 10v7c0 5.523-4.477 10-10 10h-20c-5.5228 0-10-4.477-10-10z" fill="#ff83a8"/><path d="m98 112.136c0-2.284 2.015-4.136 4.5-4.136s4.5 1.852 4.5 4.136v4.728c0 2.284-2.015 4.136-4.5 4.136s-4.5-1.852-4.5-4.136z" fill="#052b65"/><path d="m82.9995 112.136c0-2.284 2.0147-4.136 4.5-4.136s4.5 1.852 4.5 4.136v4.728c0 2.284-2.0147 4.136-4.5 4.136s-4.5-1.852-4.5-4.136z" fill="#052b65"/><path d="m183.327 29.0376c3.872 6.7069-.238 16.3294-9.181 21.4924-8.942 5.163-19.331 3.9114-23.203-2.7956l-3.506-6.0719c-3.872-6.707.238-16.3295 9.181-21.4925s19.331-3.9114 23.203 2.7956z" fill="#ffcf56"/><path clip-rule="evenodd" d="m147.939 30.6435c-1.589 3.7198-1.613 7.5362.173 10.6297 2.377 4.1165 7.49 6.1095 13.305 5.472 2.899-.3178 5.941-1.2909 8.834-2.9616 4.34-2.5054 7.48-6.0786 9.069-9.7986 1.589-3.7197 1.613-7.5362-.173-10.6297s-5.103-4.9812-9.119-5.465c-4.016-.4839-8.681.4493-13.02 2.9547-4.34 2.5053-7.48 6.0785-9.069 9.7985zm34.118-2.2477c.024 2.0536-.434 4.1639-1.304 6.2012-.514 1.2041-1.174 2.387-1.968 3.5249l2.639 4.5665c.553-.8603 1.022-1.7417 1.402-2.6314 1.589-3.7197 1.612-7.5362-.174-10.6297zm-1.622 15.694-2.67-4.6202c-1.623 1.9801-3.667 3.7818-6.066 5.2638l2.726 4.722c2.431-1.5081 4.457-3.3556 6.01-5.3656zm-7.359 6.1446-2.726-4.722c-2.486 1.3378-5.069 2.2066-7.594 2.6214l2.668 4.622c2.518-.3398 5.131-1.1703 7.652-2.5214zm-9.36 2.6778-2.638-4.5686c-3.703.3164-7.246-.364-10.055-2.0279l.595 1.0295c1.786 3.0935 5.103 4.9812 9.119 5.4651.96.1157 1.957.1503 2.979.1019zm16.78-30.3359 3.506 6.072c2.086 3.6134 1.991 7.9617.257 12.0207-1.734 4.0587-5.12 7.8783-9.723 10.5359s-9.604 3.6802-13.986 3.1522c-4.382-.5279-8.195-2.6194-10.282-6.2329l-3.505-6.072c-2.086-3.6134-1.991-7.9617-.257-12.0207 1.734-4.0587 5.119-7.8782 9.723-10.5359 4.603-2.6576 9.604-3.6801 13.985-3.1522 4.382.5279 8.196 2.6195 10.282 6.2329z" fill="#fff" fill-rule="evenodd"/><path d="m22.0396 35.4754c7.7454-9.385 17.2583-17.2573 28.029-23.1072.6117.5494 1.2168 1.1225 1.8131 1.7188 9.4312 9.4313 13.084 21.0694 8.1588 25.9946l-8.0548 8.0548c-3.2895 3.2895-9.5734 2.7526-16.1943-.7767-3.2924-1.755-6.668-4.2499-9.8003-7.3821-1.4589-1.459-2.7795-2.9707-3.9515-4.5022z" fill="#ffcf56"/><path clip-rule="evenodd" d="m50.2516 11.269.4092.3675c.622.5587 1.2373 1.1415 1.8434 1.7476 4.786 4.786 8.1343 10.1581 9.6555 15.0046 1.5085 4.8062 1.2744 9.3206-1.4967 12.0917l-8.0548 8.0548c-1.8496 1.8496-4.4898 2.5682-7.4442 2.3955-2.9528-.1726-6.2891-1.2348-9.6674-3.0356-3.3654-1.794-6.8024-4.3364-9.9847-7.5188-1.4828-1.4828-2.8262-3.0204-4.0194-4.5795l-.3763-.4918.3942-.4776c7.8084-9.4613 17.3989-17.3979 28.258-23.2959zm9.3097 28.1097c2.1541-2.1541 2.5562-5.9214 1.1118-10.5234-1.4318-4.5617-4.6254-9.7243-9.2707-14.3695-.4537-.4537-.9125-.8938-1.3755-1.3198-6.9335 3.8188-13.3347 8.4856-19.0638 13.8606 1.1061 1.4247 2.344 2.8319 3.7054 4.1932 3.0821 3.0822 6.3965 5.5295 9.6158 7.2455 3.2426 1.7285 6.3587 2.6993 9.0255 2.8552 2.6652.1557 4.8117-.502 6.2515-1.9418zm-29.7312-11.2713c-2.363 2.2914-4.6063 4.7056-6.7197 7.2323.9022 1.1439 1.8894 2.2752 2.957 3.3794l6.953-6.9529c-1.1548-1.193-2.2201-2.4182-3.1903-3.6588zm4.292 4.7605-6.953 6.953c2.7603 2.6689 5.6883 4.8328 8.5548 6.4241l6.9109-6.9109c-2.8742-1.6422-5.7789-3.82-8.5127-6.4662zm9.9421 7.2402c3.2024 1.6382 6.3514 2.604 9.1547 2.7678 1.05.0614 2.0603.0101 3.0096-.1644l-4.722 4.722c-1.4399 1.4399-3.5863 2.0976-6.2516 1.9418-2.4078-.1407-5.1819-.9458-8.0847-2.3731z" fill="#fff" fill-rule="evenodd"/><path d="m102.202 59.466-3.3055-3.3052c-1.6312-1.6312-1.8368-4.2739-.7876-6.8471.5163-1.2662 1.3365-2.5156 2.4401-3.6193 1.104-1.1037 2.353-1.9238 3.619-2.4402 2.574-1.0492 5.216-.8435 6.847.7876l3.306 3.3052c2.434 2.4339 1.694 7.1198-1.653 10.4664s-8.032 4.0864-10.466 1.6526z" fill="#ffcf56"/><path clip-rule="evenodd" d="m114.893 52.1164c.271-1.7155-.126-3.2213-1.123-4.2185-1.332-1.332-3.602-1.5957-6.002-.6171-1.166.4756-2.329 1.2365-3.363 2.2697-1.033 1.0332-1.794 2.1961-2.269 3.3625-.979 2.4-.715 4.6702.617 6.0021.997.9973 2.503 1.3936 4.218 1.1227 1.715-.2707 3.577-1.2058 5.147-2.7753 1.569-1.5695 2.504-3.4315 2.775-5.1461zm-14.89 4.0489c-.0641-1.0889.115-2.2353.505-3.3512l-2.0555-2.0553c-.4872 1.9588-.1213 3.7346.9952 4.8511zm-.966-7.0255 2.146 2.1458c.422-.7872.953-1.5524 1.587-2.2691l-2.201-2.2011c-.6415.738-1.1535 1.5264-1.532 2.3244zm2.633-3.4261 2.201 2.201c.717-.6337 1.482-1.1646 2.27-1.5869l-2.146-2.1458c-.798.3785-1.587.8905-2.325 1.5317zm3.944-2.1162 2.055 2.0554c1.116-.3895 2.262-.569 3.351-.5048l-.555-.5554c-1.117-1.1165-2.892-1.4824-4.851-.9952zm-3.963 16.4193-3.305-3.3051c-1.9304-1.9304-2.078-4.9458-.9581-7.6921.5569-1.366 1.4365-2.7018 2.6107-3.876 1.1744-1.1742 2.5104-2.0537 3.8764-2.6107 2.746-1.1198 5.761-.9723 7.692.9581l3.305 3.3051c1.436 1.4366 1.887 3.4908 1.56 5.5633-.328 2.0735-1.436 4.2278-3.213 6.0049-1.777 1.777-3.931 2.8852-6.005 3.2125-2.072.3273-4.126-.1234-5.563-1.56z" fill="#fff" fill-rule="evenodd"/></svg>